<?xml version="1.0" encoding="UTF-8" standalone="no"?>
<!DOCTYPE svg PUBLIC "-//W3C//DTD SVG 1.1//EN"
 "http://www.w3.org/Graphics/SVG/1.1/DTD/svg11.dtd">
<!-- Generated by graphviz version 2.44.0 (20200408.0750)
 -->
<!-- Pages: 1 -->
<svg width="1967pt" height="1210pt"
 viewBox="0.00 0.00 1967.00 1210.00" xmlns="http://www.w3.org/2000/svg" xmlns:xlink="http://www.w3.org/1999/xlink">
<g id="graph0" class="graph" transform="scale(1 1) rotate(0) translate(4 1206)">
<polygon fill="white" stroke="transparent" points="-4,4 -4,-1206 1963,-1206 1963,4 -4,4"/>
<g id="clust2" class="cluster">
<title>clusterModel Free</title>
<polygon fill="#f7fdff" stroke="black" points="62,-8 62,-1139 1193,-1139 1193,-8 62,-8"/>
<text text-anchor="middle" x="627.5" y="-1122.2" font-family="sans-serif" font-size="16.00">Model Free</text>
</g>
<g id="clust3" class="cluster">
<title>clusterValue Gradient</title>
<path fill="#f1f7fe" stroke="black" stroke-dasharray="5,2" d="M778,-16C778,-16 1173,-16 1173,-16 1179,-16 1185,-22 1185,-28 1185,-28 1185,-1004 1185,-1004 1185,-1010 1179,-1016 1173,-1016 1173,-1016 778,-1016 778,-1016 772,-1016 766,-1010 766,-1004 766,-1004 766,-28 766,-28 766,-22 772,-16 778,-16"/>
<text text-anchor="middle" x="975.5" y="-999.2" font-family="sans-serif" font-size="16.00">Value Gradient</text>
</g>
<g id="clust4" class="cluster">
<title>clusterPolicy Gradient/Actor&#45;Critic</title>
<path fill="#f1f7fe" stroke="black" stroke-dasharray="5,2" d="M82,-162C82,-162 732,-162 732,-162 738,-162 744,-168 744,-174 744,-174 744,-1004 744,-1004 744,-1010 738,-1016 732,-1016 732,-1016 82,-1016 82,-1016 76,-1016 70,-1010 70,-1004 70,-1004 70,-174 70,-174 70,-168 76,-162 82,-162"/>
<text text-anchor="middle" x="407" y="-999.2" font-family="sans-serif" font-size="16.00">Policy Gradient/Actor&#45;Critic</text>
</g>
<g id="clust5" class="cluster">
<title>clusterModel Based</title>
<polygon fill="#f7fdff" stroke="black" points="1201,-89 1201,-1139 1741,-1139 1741,-89 1201,-89"/>
<text text-anchor="middle" x="1471" y="-1122.2" font-family="sans-serif" font-size="16.00">Model Based</text>
</g>
<g id="clust6" class="cluster">
<title>clusterMeta&#45;RL</title>
<polygon fill="#f7fdff" stroke="black" points="1749,-162 1749,-1139 1951,-1139 1951,-162 1749,-162"/>
<text text-anchor="middle" x="1850" y="-1122.2" font-family="sans-serif" font-size="16.00">Meta&#45;RL</text>
</g>
<!-- Past -->
<g id="node1" class="node">
<title>Past</title>
<text text-anchor="middle" x="27" y="-1057.3" font-family="sans-serif" font-size="14.00" fill="darkblue">Past</text>
</g>
<!-- 1989 -->
<g id="node2" class="node">
<title>1989</title>
<text text-anchor="middle" x="27" y="-861.3" font-family="sans-serif" font-size="14.00" fill="darkblue">1989</text>
</g>
<!-- Past&#45;&gt;1989 -->
<g id="edge1" class="edge">
<title>Past&#45;&gt;1989</title>
<path fill="none" stroke="darkblue" d="M27,-1042.78C27,-1009.06 27,-934.06 27,-893.43"/>
<polygon fill="darkblue" stroke="darkblue" points="30.5,-893.18 27,-883.18 23.5,-893.18 30.5,-893.18"/>
</g>
<!-- 1992 -->
<g id="node3" class="node">
<title>1992</title>
<text text-anchor="middle" x="27" y="-788.3" font-family="sans-serif" font-size="14.00" fill="darkblue">1992</text>
</g>
<!-- 1989&#45;&gt;1992 -->
<g id="edge2" class="edge">
<title>1989&#45;&gt;1992</title>
<path fill="none" stroke="darkblue" d="M27,-846.81C27,-838.79 27,-829.05 27,-820.07"/>
<polygon fill="darkblue" stroke="darkblue" points="30.5,-820.03 27,-810.03 23.5,-820.03 30.5,-820.03"/>
</g>
<!-- 1994 -->
<g id="node4" class="node">
<title>1994</title>
<text text-anchor="middle" x="27" y="-715.3" font-family="sans-serif" font-size="14.00" fill="darkblue">1994</text>
</g>
<!-- 1992&#45;&gt;1994 -->
<g id="edge3" class="edge">
<title>1992&#45;&gt;1994</title>
<path fill="none" stroke="darkblue" d="M27,-773.81C27,-765.79 27,-756.05 27,-747.07"/>
<polygon fill="darkblue" stroke="darkblue" points="30.5,-747.03 27,-737.03 23.5,-747.03 30.5,-747.03"/>
</g>
<!-- 2011 -->
<g id="node5" class="node">
<title>2011</title>
<text text-anchor="middle" x="27" y="-642.3" font-family="sans-serif" font-size="14.00" fill="darkblue">2011</text>
</g>
<!-- 1994&#45;&gt;2011 -->
<g id="edge4" class="edge">
<title>1994&#45;&gt;2011</title>
<path fill="none" stroke="darkblue" d="M27,-700.81C27,-692.79 27,-683.05 27,-674.07"/>
<polygon fill="darkblue" stroke="darkblue" points="30.5,-674.03 27,-664.03 23.5,-674.03 30.5,-674.03"/>
</g>
<!-- 2013 -->
<g id="node6" class="node">
<title>2013</title>
<text text-anchor="middle" x="27" y="-569.3" font-family="sans-serif" font-size="14.00" fill="darkblue">2013</text>
</g>
<!-- 2011&#45;&gt;2013 -->
<g id="edge5" class="edge">
<title>2011&#45;&gt;2013</title>
<path fill="none" stroke="darkblue" d="M27,-627.81C27,-619.79 27,-610.05 27,-601.07"/>
<polygon fill="darkblue" stroke="darkblue" points="30.5,-601.03 27,-591.03 23.5,-601.03 30.5,-601.03"/>
</g>
<!-- 2014 -->
<g id="node7" class="node">
<title>2014</title>
<text text-anchor="middle" x="27" y="-496.3" font-family="sans-serif" font-size="14.00" fill="darkblue">2014</text>
</g>
<!-- 2013&#45;&gt;2014 -->
<g id="edge6" class="edge">
<title>2013&#45;&gt;2014</title>
<path fill="none" stroke="darkblue" d="M27,-554.81C27,-546.79 27,-537.05 27,-528.07"/>
<polygon fill="darkblue" stroke="darkblue" points="30.5,-528.03 27,-518.03 23.5,-528.03 30.5,-528.03"/>
</g>
<!-- 2015 -->
<g id="node8" class="node">
<title>2015</title>
<text text-anchor="middle" x="27" y="-423.3" font-family="sans-serif" font-size="14.00" fill="darkblue">2015</text>
</g>
<!-- 2014&#45;&gt;2015 -->
<g id="edge7" class="edge">
<title>2014&#45;&gt;2015</title>
<path fill="none" stroke="darkblue" d="M27,-481.81C27,-473.79 27,-464.05 27,-455.07"/>
<polygon fill="darkblue" stroke="darkblue" points="30.5,-455.03 27,-445.03 23.5,-455.03 30.5,-455.03"/>
</g>
<!-- 2016 -->
<g id="node9" class="node">
<title>2016</title>
<text text-anchor="middle" x="27" y="-350.3" font-family="sans-serif" font-size="14.00" fill="darkblue">2016</text>
</g>
<!-- 2015&#45;&gt;2016 -->
<g id="edge8" class="edge">
<title>2015&#45;&gt;2016</title>
<path fill="none" stroke="darkblue" d="M27,-408.81C27,-400.79 27,-391.05 27,-382.07"/>
<polygon fill="darkblue" stroke="darkblue" points="30.5,-382.03 27,-372.03 23.5,-382.03 30.5,-382.03"/>
</g>
<!-- 2017 -->
<g id="node10" class="node">
<title>2017</title>
<text text-anchor="middle" x="27" y="-267.3" font-family="sans-serif" font-size="14.00" fill="darkblue">2017</text>
</g>
<!-- 2016&#45;&gt;2017 -->
<g id="edge9" class="edge">
<title>2016&#45;&gt;2017</title>
<path fill="none" stroke="darkblue" d="M27,-335.82C27,-325.19 27,-311.31 27,-299.2"/>
<polygon fill="darkblue" stroke="darkblue" points="30.5,-299.15 27,-289.15 23.5,-299.15 30.5,-299.15"/>
</g>
<!-- 2018 -->
<g id="node11" class="node">
<title>2018</title>
<text text-anchor="middle" x="27" y="-184.3" font-family="sans-serif" font-size="14.00" fill="darkblue">2018</text>
</g>
<!-- 2017&#45;&gt;2018 -->
<g id="edge10" class="edge">
<title>2017&#45;&gt;2018</title>
<path fill="none" stroke="darkblue" d="M27,-252.82C27,-242.19 27,-228.31 27,-216.2"/>
<polygon fill="darkblue" stroke="darkblue" points="30.5,-216.15 27,-206.15 23.5,-216.15 30.5,-216.15"/>
</g>
<!-- 2019 -->
<g id="node12" class="node">
<title>2019</title>
<text text-anchor="middle" x="27" y="-111.3" font-family="sans-serif" font-size="14.00" fill="darkblue">2019</text>
</g>
<!-- 2018&#45;&gt;2019 -->
<g id="edge11" class="edge">
<title>2018&#45;&gt;2019</title>
<path fill="none" stroke="darkblue" d="M27,-169.81C27,-161.79 27,-152.05 27,-143.07"/>
<polygon fill="darkblue" stroke="darkblue" points="30.5,-143.03 27,-133.03 23.5,-143.03 30.5,-143.03"/>
</g>
<!-- 2020 -->
<g id="node13" class="node">
<title>2020</title>
<text text-anchor="middle" x="27" y="-38.3" font-family="sans-serif" font-size="14.00" fill="darkblue">2020</text>
</g>
<!-- 2019&#45;&gt;2020 -->
<g id="edge12" class="edge">
<title>2019&#45;&gt;2020</title>
<path fill="none" stroke="darkblue" d="M27,-96.81C27,-88.79 27,-79.05 27,-70.07"/>
<polygon fill="darkblue" stroke="darkblue" points="30.5,-70.03 27,-60.03 23.5,-70.03 30.5,-70.03"/>
</g>
<!-- Reinforcement Learning -->
<g id="node14" class="node">
<title>Reinforcement Learning</title>
<path fill="#ffe6cc" stroke="black" stroke-width="2" d="M1519.5,-1202C1519.5,-1202 1398.5,-1202 1398.5,-1202 1392.5,-1202 1386.5,-1196 1386.5,-1190 1386.5,-1190 1386.5,-1178 1386.5,-1178 1386.5,-1172 1392.5,-1166 1398.5,-1166 1398.5,-1166 1519.5,-1166 1519.5,-1166 1525.5,-1166 1531.5,-1172 1531.5,-1178 1531.5,-1178 1531.5,-1190 1531.5,-1190 1531.5,-1196 1525.5,-1202 1519.5,-1202"/>
<text text-anchor="middle" x="1459" y="-1180.9" font-family="sans-serif" font-size="12.00">Reinforcement Learning</text>
</g>
<!-- Model Free -->
<g id="node15" class="node">
<title>Model Free</title>
<path fill="#ffe6cc" stroke="black" stroke-width="2" d="M946.5,-1079C946.5,-1079 893.5,-1079 893.5,-1079 887.5,-1079 881.5,-1073 881.5,-1067 881.5,-1067 881.5,-1055 881.5,-1055 881.5,-1049 887.5,-1043 893.5,-1043 893.5,-1043 946.5,-1043 946.5,-1043 952.5,-1043 958.5,-1049 958.5,-1055 958.5,-1055 958.5,-1067 958.5,-1067 958.5,-1073 952.5,-1079 946.5,-1079"/>
<text text-anchor="middle" x="920" y="-1057.9" font-family="sans-serif" font-size="12.00">Model Free</text>
</g>
<!-- Reinforcement Learning&#45;&gt;Model Free -->
<g id="edge83" class="edge">
<title>Reinforcement Learning&#45;&gt;Model Free</title>
<path fill="none" stroke="black" d="M1386.32,-1172.88C1333.52,-1165.03 1260.48,-1153.11 1197,-1139 1116.04,-1121 1023.48,-1093.93 968.49,-1077.14"/>
<polygon fill="black" stroke="black" points="969.26,-1073.72 958.67,-1074.13 967.2,-1080.41 969.26,-1073.72"/>
</g>
<!-- Model Based -->
<g id="node52" class="node">
<title>Model Based</title>
<path fill="#ffe6cc" stroke="black" stroke-width="2" d="M1490.5,-1079C1490.5,-1079 1427.5,-1079 1427.5,-1079 1421.5,-1079 1415.5,-1073 1415.5,-1067 1415.5,-1067 1415.5,-1055 1415.5,-1055 1415.5,-1049 1421.5,-1043 1427.5,-1043 1427.5,-1043 1490.5,-1043 1490.5,-1043 1496.5,-1043 1502.5,-1049 1502.5,-1055 1502.5,-1055 1502.5,-1067 1502.5,-1067 1502.5,-1073 1496.5,-1079 1490.5,-1079"/>
<text text-anchor="middle" x="1459" y="-1057.9" font-family="sans-serif" font-size="12.00">Model Based</text>
</g>
<!-- Reinforcement Learning&#45;&gt;Model Based -->
<g id="edge84" class="edge">
<title>Reinforcement Learning&#45;&gt;Model Based</title>
<path fill="none" stroke="black" d="M1459,-1165.92C1459,-1146.04 1459,-1112.92 1459,-1089.42"/>
<polygon fill="black" stroke="black" points="1462.5,-1089.38 1459,-1079.38 1455.5,-1089.38 1462.5,-1089.38"/>
</g>
<!-- Meta&#45;RL -->
<g id="node66" class="node">
<title>Meta&#45;RL</title>
<path fill="#ffe6cc" stroke="black" stroke-width="2" d="M1859,-1079C1859,-1079 1821,-1079 1821,-1079 1815,-1079 1809,-1073 1809,-1067 1809,-1067 1809,-1055 1809,-1055 1809,-1049 1815,-1043 1821,-1043 1821,-1043 1859,-1043 1859,-1043 1865,-1043 1871,-1049 1871,-1055 1871,-1055 1871,-1067 1871,-1067 1871,-1073 1865,-1079 1859,-1079"/>
<text text-anchor="middle" x="1840" y="-1057.9" font-family="sans-serif" font-size="12.00">Meta&#45;RL</text>
</g>
<!-- Reinforcement Learning&#45;&gt;Meta&#45;RL -->
<g id="edge85" class="edge">
<title>Reinforcement Learning&#45;&gt;Meta&#45;RL</title>
<path fill="none" stroke="black" d="M1531.55,-1182.24C1591.19,-1179.21 1676.67,-1169.26 1745,-1139 1772.86,-1126.66 1799.33,-1103.96 1817.22,-1086.39"/>
<polygon fill="black" stroke="black" points="1819.78,-1088.79 1824.35,-1079.22 1814.82,-1083.85 1819.78,-1088.79"/>
</g>
<!-- Value Gradient -->
<g id="node16" class="node">
<title>Value Gradient</title>
<path fill="#ffe6cc" stroke="black" stroke-width="2" d="M955.5,-956C955.5,-956 884.5,-956 884.5,-956 878.5,-956 872.5,-950 872.5,-944 872.5,-944 872.5,-932 872.5,-932 872.5,-926 878.5,-920 884.5,-920 884.5,-920 955.5,-920 955.5,-920 961.5,-920 967.5,-926 967.5,-932 967.5,-932 967.5,-944 967.5,-944 967.5,-950 961.5,-956 955.5,-956"/>
<text text-anchor="middle" x="920" y="-934.9" font-family="sans-serif" font-size="12.00">Value Gradient</text>
</g>
<!-- Model Free&#45;&gt;Value Gradient -->
<g id="edge13" class="edge">
<title>Model Free&#45;&gt;Value Gradient</title>
<path fill="none" stroke="black" d="M920,-1042.92C920,-1023.04 920,-989.92 920,-966.42"/>
<polygon fill="black" stroke="black" points="923.5,-966.38 920,-956.38 916.5,-966.38 923.5,-966.38"/>
</g>
<!-- Policy Gradient/Actor&#45;Critic -->
<g id="node17" class="node">
<title>Policy Gradient/Actor&#45;Critic</title>
<path fill="#ffe6cc" stroke="black" stroke-width="2" d="M359.5,-956C359.5,-956 222.5,-956 222.5,-956 216.5,-956 210.5,-950 210.5,-944 210.5,-944 210.5,-932 210.5,-932 210.5,-926 216.5,-920 222.5,-920 222.5,-920 359.5,-920 359.5,-920 365.5,-920 371.5,-926 371.5,-932 371.5,-932 371.5,-944 371.5,-944 371.5,-950 365.5,-956 359.5,-956"/>
<text text-anchor="middle" x="291" y="-934.9" font-family="sans-serif" font-size="12.00">Policy Gradient/Actor&#45;Critic</text>
</g>
<!-- Model Free&#45;&gt;Policy Gradient/Actor&#45;Critic -->
<g id="edge14" class="edge">
<title>Model Free&#45;&gt;Policy Gradient/Actor&#45;Critic</title>
<path fill="none" stroke="black" d="M881.13,-1052.52C782.58,-1033.57 520.94,-983.23 381.48,-956.41"/>
<polygon fill="black" stroke="black" points="382.14,-952.97 371.66,-954.52 380.82,-959.84 382.14,-952.97"/>
</g>
<!-- SARSA -->
<g id="node29" class="node">
<title>SARSA</title>
<path fill="#dae8fc" stroke="black" stroke-width="2" d="M921.5,-737C921.5,-737 886.5,-737 886.5,-737 880.5,-737 874.5,-731 874.5,-725 874.5,-725 874.5,-713 874.5,-713 874.5,-707 880.5,-701 886.5,-701 886.5,-701 921.5,-701 921.5,-701 927.5,-701 933.5,-707 933.5,-713 933.5,-713 933.5,-725 933.5,-725 933.5,-731 927.5,-737 921.5,-737"/>
<text text-anchor="middle" x="904" y="-715.9" font-family="sans-serif" font-size="12.00">SARSA</text>
</g>
<!-- Value Gradient&#45;&gt;SARSA -->
<g id="edge21" class="edge">
<title>Value Gradient&#45;&gt;SARSA</title>
<path fill="none" stroke="black" d="M918.31,-919.98C917.29,-909.36 915.99,-895.39 915,-883 911.18,-835.25 907.61,-779.55 905.63,-747.18"/>
<polygon fill="black" stroke="black" points="909.12,-746.91 905.02,-737.14 902.13,-747.34 909.12,-746.91"/>
</g>
<!-- Q&#45;learning -->
<g id="node30" class="node">
<title>Q&#45;learning</title>
<path fill="#dae8fc" stroke="black" stroke-width="2" d="M984.5,-883C984.5,-883 935.5,-883 935.5,-883 929.5,-883 923.5,-877 923.5,-871 923.5,-871 923.5,-859 923.5,-859 923.5,-853 929.5,-847 935.5,-847 935.5,-847 984.5,-847 984.5,-847 990.5,-847 996.5,-853 996.5,-859 996.5,-859 996.5,-871 996.5,-871 996.5,-877 990.5,-883 984.5,-883"/>
<text text-anchor="middle" x="960" y="-861.9" font-family="sans-serif" font-size="12.00">Q&#45;learning</text>
</g>
<!-- Value Gradient&#45;&gt;Q&#45;learning -->
<g id="edge22" class="edge">
<title>Value Gradient&#45;&gt;Q&#45;learning</title>
<path fill="none" stroke="black" d="M929.68,-919.81C934.4,-911.44 940.17,-901.2 945.41,-891.9"/>
<polygon fill="black" stroke="black" points="948.55,-893.46 950.41,-883.03 942.45,-890.02 948.55,-893.46"/>
</g>
<!-- A3C -->
<g id="node27" class="node">
<title>A3C</title>
<path fill="#dae8fc" stroke="black" stroke-width="2" d="M695,-372C695,-372 665,-372 665,-372 659,-372 653,-366 653,-360 653,-360 653,-348 653,-348 653,-342 659,-336 665,-336 665,-336 695,-336 695,-336 701,-336 707,-342 707,-348 707,-348 707,-360 707,-360 707,-366 701,-372 695,-372"/>
<text text-anchor="middle" x="680" y="-350.9" font-family="sans-serif" font-size="12.00">A3C</text>
</g>
<!-- Policy Gradient/Actor&#45;Critic&#45;&gt;A3C -->
<g id="edge44" class="edge">
<title>Policy Gradient/Actor&#45;Critic&#45;&gt;A3C</title>
<path fill="none" stroke="black" d="M371.52,-937.43C480.1,-935.8 660,-924.31 660,-866 660,-866 660,-866 660,-426 660,-410.9 664.24,-394.64 668.82,-381.5"/>
<polygon fill="black" stroke="black" points="672.1,-382.72 672.32,-372.13 665.55,-380.27 672.1,-382.72"/>
</g>
<!-- REINFORCE -->
<g id="node40" class="node">
<title>REINFORCE</title>
<path fill="#dae8fc" stroke="black" stroke-width="2" d="M417.5,-810C417.5,-810 352.5,-810 352.5,-810 346.5,-810 340.5,-804 340.5,-798 340.5,-798 340.5,-786 340.5,-786 340.5,-780 346.5,-774 352.5,-774 352.5,-774 417.5,-774 417.5,-774 423.5,-774 429.5,-780 429.5,-786 429.5,-786 429.5,-798 429.5,-798 429.5,-804 423.5,-810 417.5,-810"/>
<text text-anchor="middle" x="385" y="-788.9" font-family="sans-serif" font-size="12.00">REINFORCE</text>
</g>
<!-- Policy Gradient/Actor&#45;Critic&#45;&gt;REINFORCE -->
<g id="edge40" class="edge">
<title>Policy Gradient/Actor&#45;Critic&#45;&gt;REINFORCE</title>
<path fill="none" stroke="black" d="M310.23,-919.76C315.68,-914.37 321.38,-908.2 326,-902 345.58,-875.74 362.74,-842.16 373.43,-819.26"/>
<polygon fill="black" stroke="black" points="376.62,-820.7 377.61,-810.15 370.26,-817.78 376.62,-820.7"/>
</g>
<!-- DPG -->
<g id="node41" class="node">
<title>DPG</title>
<path fill="#dae8fc" stroke="black" stroke-width="2" d="M397,-518C397,-518 367,-518 367,-518 361,-518 355,-512 355,-506 355,-506 355,-494 355,-494 355,-488 361,-482 367,-482 367,-482 397,-482 397,-482 403,-482 409,-488 409,-494 409,-494 409,-506 409,-506 409,-512 403,-518 397,-518"/>
<text text-anchor="middle" x="382" y="-496.9" font-family="sans-serif" font-size="12.00">DPG</text>
</g>
<!-- Policy Gradient/Actor&#45;Critic&#45;&gt;DPG -->
<g id="edge41" class="edge">
<title>Policy Gradient/Actor&#45;Critic&#45;&gt;DPG</title>
<path fill="none" stroke="black" d="M302.86,-919.76C311.24,-905.88 321,-885.54 321,-866 321,-866 321,-866 321,-572 321,-553.25 333.39,-536.98 347,-524.77"/>
<polygon fill="black" stroke="black" points="349.62,-527.14 355.07,-518.05 345.14,-521.76 349.62,-527.14"/>
</g>
<!-- TRPO -->
<g id="node42" class="node">
<title>TRPO</title>
<path fill="#dae8fc" stroke="black" stroke-width="2" d="M120,-445C120,-445 90,-445 90,-445 84,-445 78,-439 78,-433 78,-433 78,-421 78,-421 78,-415 84,-409 90,-409 90,-409 120,-409 120,-409 126,-409 132,-415 132,-421 132,-421 132,-433 132,-433 132,-439 126,-445 120,-445"/>
<text text-anchor="middle" x="105" y="-423.9" font-family="sans-serif" font-size="12.00">TRPO</text>
</g>
<!-- Policy Gradient/Actor&#45;Critic&#45;&gt;TRPO -->
<g id="edge42" class="edge">
<title>Policy Gradient/Actor&#45;Critic&#45;&gt;TRPO</title>
<path fill="none" stroke="black" d="M210.33,-923.92C180.13,-914 153,-896.58 153,-866 153,-866 153,-866 153,-499 153,-481.5 142.87,-465.1 131.92,-452.48"/>
<polygon fill="black" stroke="black" points="134.45,-450.06 125.08,-445.13 129.33,-454.83 134.45,-450.06"/>
</g>
<!-- GAE -->
<g id="node43" class="node">
<title>GAE</title>
<path fill="#dae8fc" stroke="black" stroke-width="2" d="M210,-445C210,-445 180,-445 180,-445 174,-445 168,-439 168,-433 168,-433 168,-421 168,-421 168,-415 174,-409 180,-409 180,-409 210,-409 210,-409 216,-409 222,-415 222,-421 222,-421 222,-433 222,-433 222,-439 216,-445 210,-445"/>
<text text-anchor="middle" x="195" y="-423.9" font-family="sans-serif" font-size="12.00">GAE</text>
</g>
<!-- Policy Gradient/Actor&#45;Critic&#45;&gt;GAE -->
<g id="edge43" class="edge">
<title>Policy Gradient/Actor&#45;Critic&#45;&gt;GAE</title>
<path fill="none" stroke="black" d="M249.99,-919.98C229.08,-908.3 208,-890.46 208,-866 208,-866 208,-866 208,-499 208,-484.27 205.26,-468.09 202.29,-454.91"/>
<polygon fill="black" stroke="black" points="205.66,-453.96 199.91,-445.06 198.86,-455.6 205.66,-453.96"/>
</g>
<!-- ACKTR -->
<g id="node44" class="node">
<title>ACKTR</title>
<path fill="#dae8fc" stroke="black" stroke-width="2" d="M237.5,-289C237.5,-289 202.5,-289 202.5,-289 196.5,-289 190.5,-283 190.5,-277 190.5,-277 190.5,-265 190.5,-265 190.5,-259 196.5,-253 202.5,-253 202.5,-253 237.5,-253 237.5,-253 243.5,-253 249.5,-259 249.5,-265 249.5,-265 249.5,-277 249.5,-277 249.5,-283 243.5,-289 237.5,-289"/>
<text text-anchor="middle" x="220" y="-267.9" font-family="sans-serif" font-size="12.00">ACKTR</text>
</g>
<!-- Policy Gradient/Actor&#45;Critic&#45;&gt;ACKTR -->
<g id="edge45" class="edge">
<title>Policy Gradient/Actor&#45;Critic&#45;&gt;ACKTR</title>
<path fill="none" stroke="black" d="M287.22,-919.88C284.39,-905.56 281,-884.55 281,-866 281,-866 281,-866 281,-353 281,-330.81 266.22,-310.84 251.2,-296.28"/>
<polygon fill="black" stroke="black" points="253.16,-293.32 243.41,-289.17 248.44,-298.5 253.16,-293.32"/>
</g>
<!-- SVPG -->
<g id="node45" class="node">
<title>SVPG</title>
<path fill="#dae8fc" stroke="black" stroke-width="2" d="M310,-289C310,-289 280,-289 280,-289 274,-289 268,-283 268,-277 268,-277 268,-265 268,-265 268,-259 274,-253 280,-253 280,-253 310,-253 310,-253 316,-253 322,-259 322,-265 322,-265 322,-277 322,-277 322,-283 316,-289 310,-289"/>
<text text-anchor="middle" x="295" y="-267.9" font-family="sans-serif" font-size="12.00">SVPG</text>
</g>
<!-- Policy Gradient/Actor&#45;Critic&#45;&gt;SVPG -->
<g id="edge46" class="edge">
<title>Policy Gradient/Actor&#45;Critic&#45;&gt;SVPG</title>
<path fill="none" stroke="black" d="M294.78,-919.88C297.61,-905.56 301,-884.55 301,-866 301,-866 301,-866 301,-353 301,-335.01 299.51,-314.84 298.02,-299.12"/>
<polygon fill="black" stroke="black" points="301.48,-298.64 297,-289.04 294.52,-299.34 301.48,-298.64"/>
</g>
<!-- SAC -->
<g id="node46" class="node">
<title>SAC</title>
<path fill="#dae8fc" stroke="black" stroke-width="2" d="M143,-206C143,-206 113,-206 113,-206 107,-206 101,-200 101,-194 101,-194 101,-182 101,-182 101,-176 107,-170 113,-170 113,-170 143,-170 143,-170 149,-170 155,-176 155,-182 155,-182 155,-194 155,-194 155,-200 149,-206 143,-206"/>
<text text-anchor="middle" x="128" y="-184.9" font-family="sans-serif" font-size="12.00">SAC</text>
</g>
<!-- Policy Gradient/Actor&#45;Critic&#45;&gt;SAC -->
<g id="edge47" class="edge">
<title>Policy Gradient/Actor&#45;Critic&#45;&gt;SAC</title>
<path fill="none" stroke="black" d="M269.8,-919.76C256.17,-906.64 241,-887.26 241,-866 241,-866 241,-866 241,-463 241,-438.59 241.9,-430.84 231,-409 221.02,-389.02 208.71,-391.02 197,-372 165.57,-320.95 144.67,-253.26 134.73,-216.17"/>
<polygon fill="black" stroke="black" points="138.02,-214.92 132.1,-206.13 131.25,-216.69 138.02,-214.92"/>
</g>
<!-- IMPALA -->
<g id="node47" class="node">
<title>IMPALA</title>
<path fill="#dae8fc" stroke="black" stroke-width="2" d="M324.5,-206C324.5,-206 289.5,-206 289.5,-206 283.5,-206 277.5,-200 277.5,-194 277.5,-194 277.5,-182 277.5,-182 277.5,-176 283.5,-170 289.5,-170 289.5,-170 324.5,-170 324.5,-170 330.5,-170 336.5,-176 336.5,-182 336.5,-182 336.5,-194 336.5,-194 336.5,-200 330.5,-206 324.5,-206"/>
<text text-anchor="middle" x="307" y="-184.9" font-family="sans-serif" font-size="12.00">IMPALA</text>
</g>
<!-- Policy Gradient/Actor&#45;Critic&#45;&gt;IMPALA -->
<g id="edge48" class="edge">
<title>Policy Gradient/Actor&#45;Critic&#45;&gt;IMPALA</title>
<path fill="none" stroke="black" d="M279.14,-919.76C270.76,-905.88 261,-885.54 261,-866 261,-866 261,-866 261,-463 261,-378.07 202.6,-371.39 182,-289 178.12,-273.48 173.65,-266.65 182,-253 200.49,-222.76 238.28,-206.23 267.5,-197.59"/>
<polygon fill="black" stroke="black" points="268.72,-200.88 277.43,-194.85 266.86,-194.13 268.72,-200.88"/>
</g>
<!-- DQN -->
<g id="node18" class="node">
<title>DQN</title>
<path fill="#dae8fc" stroke="black" stroke-width="2" d="M975,-591C975,-591 945,-591 945,-591 939,-591 933,-585 933,-579 933,-579 933,-567 933,-567 933,-561 939,-555 945,-555 945,-555 975,-555 975,-555 981,-555 987,-561 987,-567 987,-567 987,-579 987,-579 987,-585 981,-591 975,-591"/>
<text text-anchor="middle" x="960" y="-569.9" font-family="sans-serif" font-size="12.00">DQN</text>
</g>
<!-- DDPG -->
<g id="node19" class="node">
<title>DDPG</title>
<path fill="#dae8fc" stroke="black" stroke-width="2" d="M490,-445C490,-445 460,-445 460,-445 454,-445 448,-439 448,-433 448,-433 448,-421 448,-421 448,-415 454,-409 460,-409 460,-409 490,-409 490,-409 496,-409 502,-415 502,-421 502,-421 502,-433 502,-433 502,-439 496,-445 490,-445"/>
<text text-anchor="middle" x="475" y="-423.9" font-family="sans-serif" font-size="12.00">DDPG</text>
</g>
<!-- DQN&#45;&gt;DDPG -->
<g id="edge15" class="edge">
<title>DQN&#45;&gt;DDPG</title>
<path fill="none" stroke="darkgray" stroke-dasharray="5,2" d="M932.82,-563.94C908.9,-556.85 873.14,-546.24 842,-537 721.34,-501.19 578.37,-458.71 512.12,-439.03"/>
<polygon fill="darkgray" stroke="darkgray" points="512.75,-435.56 502.16,-436.07 510.75,-442.27 512.75,-435.56"/>
<text text-anchor="middle" x="804.5" y="-497.5" font-family="sans-serif" font-size="10.00" fill="darkgray">replay buffer</text>
</g>
<!-- ACER -->
<g id="node20" class="node">
<title>ACER</title>
<path fill="#dae8fc" stroke="black" stroke-width="2" d="M634,-289C634,-289 604,-289 604,-289 598,-289 592,-283 592,-277 592,-277 592,-265 592,-265 592,-259 598,-253 604,-253 604,-253 634,-253 634,-253 640,-253 646,-259 646,-265 646,-265 646,-277 646,-277 646,-283 640,-289 634,-289"/>
<text text-anchor="middle" x="619" y="-267.9" font-family="sans-serif" font-size="12.00">ACER</text>
</g>
<!-- DQN&#45;&gt;ACER -->
<g id="edge16" class="edge">
<title>DQN&#45;&gt;ACER</title>
<path fill="none" stroke="darkgray" stroke-dasharray="5,2" d="M932.95,-569.03C878.86,-562.56 760.07,-545.52 731,-518 725.28,-512.58 726,-508.88 726,-501 726,-501 726,-501 726,-353 726,-332.44 733.84,-323.06 721,-307 718.8,-304.25 684.04,-292.67 655.69,-283.57"/>
<polygon fill="darkgray" stroke="darkgray" points="656.59,-280.18 646,-280.48 654.46,-286.85 656.59,-280.18"/>
<text text-anchor="middle" x="753.5" y="-424.5" font-family="sans-serif" font-size="10.00" fill="darkgray">replay buffer</text>
</g>
<!-- DDQN -->
<g id="node21" class="node">
<title>DDQN</title>
<path fill="#dae8fc" stroke="black" stroke-width="2" d="M1024,-445C1024,-445 994,-445 994,-445 988,-445 982,-439 982,-433 982,-433 982,-421 982,-421 982,-415 988,-409 994,-409 994,-409 1024,-409 1024,-409 1030,-409 1036,-415 1036,-421 1036,-421 1036,-433 1036,-433 1036,-439 1030,-445 1024,-445"/>
<text text-anchor="middle" x="1009" y="-423.9" font-family="sans-serif" font-size="12.00">DDQN</text>
</g>
<!-- DQN&#45;&gt;DDQN -->
<g id="edge25" class="edge">
<title>DQN&#45;&gt;DDQN</title>
<path fill="none" stroke="black" d="M965.81,-554.92C974.25,-530.12 989.96,-483.95 999.93,-454.66"/>
<polygon fill="black" stroke="black" points="1003.29,-455.66 1003.19,-445.06 996.66,-453.4 1003.29,-455.66"/>
</g>
<!-- DQN+HER -->
<g id="node23" class="node">
<title>DQN+HER</title>
<path fill="#dae8fc" stroke="black" stroke-width="2" d="M839.5,-289C839.5,-289 786.5,-289 786.5,-289 780.5,-289 774.5,-283 774.5,-277 774.5,-277 774.5,-265 774.5,-265 774.5,-259 780.5,-253 786.5,-253 786.5,-253 839.5,-253 839.5,-253 845.5,-253 851.5,-259 851.5,-265 851.5,-265 851.5,-277 851.5,-277 851.5,-283 845.5,-289 839.5,-289"/>
<text text-anchor="middle" x="813" y="-267.9" font-family="sans-serif" font-size="12.00">DQN+HER</text>
</g>
<!-- DQN&#45;&gt;DQN+HER -->
<g id="edge29" class="edge">
<title>DQN&#45;&gt;DQN+HER</title>
<path fill="none" stroke="black" d="M932.93,-567.29C899.5,-559.73 847,-541.43 847,-501 847,-501 847,-501 847,-353 847,-332.44 850.01,-325.94 842,-307 840.61,-303.7 838.79,-300.47 836.76,-297.39"/>
<polygon fill="black" stroke="black" points="839.39,-295.07 830.58,-289.17 833.79,-299.27 839.39,-295.07"/>
</g>
<!-- APE&#45;X DQN -->
<g id="node25" class="node">
<title>APE&#45;X DQN</title>
<path fill="#dae8fc" stroke="black" stroke-width="2" d="M917.5,-206C917.5,-206 858.5,-206 858.5,-206 852.5,-206 846.5,-200 846.5,-194 846.5,-194 846.5,-182 846.5,-182 846.5,-176 852.5,-170 858.5,-170 858.5,-170 917.5,-170 917.5,-170 923.5,-170 929.5,-176 929.5,-182 929.5,-182 929.5,-194 929.5,-194 929.5,-200 923.5,-206 917.5,-206"/>
<text text-anchor="middle" x="888" y="-184.9" font-family="sans-serif" font-size="12.00">APE&#45;X DQN</text>
</g>
<!-- DQN&#45;&gt;APE&#45;X DQN -->
<g id="edge31" class="edge">
<title>DQN&#45;&gt;APE&#45;X DQN</title>
<path fill="none" stroke="black" d="M932.81,-563.26C906.64,-552.95 871,-533.02 871,-501 871,-501 871,-501 871,-270 871,-251.79 875.17,-231.75 879.38,-216.17"/>
<polygon fill="black" stroke="black" points="882.85,-216.74 882.24,-206.16 876.12,-214.81 882.85,-216.74"/>
</g>
<!-- DRQN -->
<g id="node31" class="node">
<title>DRQN</title>
<path fill="#dae8fc" stroke="black" stroke-width="2" d="M952,-445C952,-445 922,-445 922,-445 916,-445 910,-439 910,-433 910,-433 910,-421 910,-421 910,-415 916,-409 922,-409 922,-409 952,-409 952,-409 958,-409 964,-415 964,-421 964,-421 964,-433 964,-433 964,-439 958,-445 952,-445"/>
<text text-anchor="middle" x="937" y="-423.9" font-family="sans-serif" font-size="12.00">DRQN</text>
</g>
<!-- DQN&#45;&gt;DRQN -->
<g id="edge24" class="edge">
<title>DQN&#45;&gt;DRQN</title>
<path fill="none" stroke="black" d="M957.27,-554.92C953.33,-530.23 946,-484.35 941.32,-455.04"/>
<polygon fill="black" stroke="black" points="944.76,-454.38 939.73,-445.06 937.85,-455.49 944.76,-454.38"/>
</g>
<!-- PER -->
<g id="node32" class="node">
<title>PER</title>
<path fill="#dae8fc" stroke="black" stroke-width="2" d="M1096,-445C1096,-445 1066,-445 1066,-445 1060,-445 1054,-439 1054,-433 1054,-433 1054,-421 1054,-421 1054,-415 1060,-409 1066,-409 1066,-409 1096,-409 1096,-409 1102,-409 1108,-415 1108,-421 1108,-421 1108,-433 1108,-433 1108,-439 1102,-445 1096,-445"/>
<text text-anchor="middle" x="1081" y="-423.9" font-family="sans-serif" font-size="12.00">PER</text>
</g>
<!-- DQN&#45;&gt;PER -->
<g id="edge26" class="edge">
<title>DQN&#45;&gt;PER</title>
<path fill="none" stroke="black" d="M974.36,-554.92C995.64,-529.58 1035.69,-481.92 1060.19,-452.76"/>
<polygon fill="black" stroke="black" points="1062.91,-454.97 1066.66,-445.06 1057.55,-450.47 1062.91,-454.97"/>
</g>
<!-- QR&#45;DQN -->
<g id="node33" class="node">
<title>QR&#45;DQN</title>
<path fill="#dae8fc" stroke="black" stroke-width="2" d="M943.5,-289C943.5,-289 902.5,-289 902.5,-289 896.5,-289 890.5,-283 890.5,-277 890.5,-277 890.5,-265 890.5,-265 890.5,-259 896.5,-253 902.5,-253 902.5,-253 943.5,-253 943.5,-253 949.5,-253 955.5,-259 955.5,-265 955.5,-265 955.5,-277 955.5,-277 955.5,-283 949.5,-289 943.5,-289"/>
<text text-anchor="middle" x="923" y="-267.9" font-family="sans-serif" font-size="12.00">QR&#45;DQN</text>
</g>
<!-- DQN&#45;&gt;QR&#45;DQN -->
<g id="edge27" class="edge">
<title>DQN&#45;&gt;QR&#45;DQN</title>
<path fill="none" stroke="black" d="M932.73,-557.84C913.44,-545.66 891,-526.1 891,-501 891,-501 891,-501 891,-353 891,-333.72 898.94,-313.54 906.91,-298.15"/>
<polygon fill="black" stroke="black" points="910.06,-299.69 911.81,-289.24 903.93,-296.32 910.06,-299.69"/>
</g>
<!-- C51 -->
<g id="node34" class="node">
<title>C51</title>
<path fill="#dae8fc" stroke="black" stroke-width="2" d="M1125,-289C1125,-289 1095,-289 1095,-289 1089,-289 1083,-283 1083,-277 1083,-277 1083,-265 1083,-265 1083,-259 1089,-253 1095,-253 1095,-253 1125,-253 1125,-253 1131,-253 1137,-259 1137,-265 1137,-265 1137,-277 1137,-277 1137,-283 1131,-289 1125,-289"/>
<text text-anchor="middle" x="1110" y="-267.9" font-family="sans-serif" font-size="12.00">C51</text>
</g>
<!-- DQN&#45;&gt;C51 -->
<g id="edge28" class="edge">
<title>DQN&#45;&gt;C51</title>
<path fill="none" stroke="black" d="M987.2,-572.22C1034.52,-571.03 1127,-561.02 1127,-501 1127,-501 1127,-501 1127,-353 1127,-334.79 1122.83,-314.75 1118.62,-299.17"/>
<polygon fill="black" stroke="black" points="1121.88,-297.81 1115.76,-289.16 1115.15,-299.74 1121.88,-297.81"/>
</g>
<!-- IQN -->
<g id="node35" class="node">
<title>IQN</title>
<path fill="#dae8fc" stroke="black" stroke-width="2" d="M1145,-206C1145,-206 1115,-206 1115,-206 1109,-206 1103,-200 1103,-194 1103,-194 1103,-182 1103,-182 1103,-176 1109,-170 1115,-170 1115,-170 1145,-170 1145,-170 1151,-170 1157,-176 1157,-182 1157,-182 1157,-194 1157,-194 1157,-200 1151,-206 1145,-206"/>
<text text-anchor="middle" x="1130" y="-184.9" font-family="sans-serif" font-size="12.00">IQN</text>
</g>
<!-- DQN&#45;&gt;IQN -->
<g id="edge30" class="edge">
<title>DQN&#45;&gt;IQN</title>
<path fill="none" stroke="black" d="M987.01,-570.26C1019.51,-567.23 1074.94,-559.02 1117,-537 1137.9,-526.06 1156,-524.59 1156,-501 1156,-501 1156,-501 1156,-270 1156,-251.22 1149.59,-231.11 1143.13,-215.63"/>
<polygon fill="black" stroke="black" points="1146.2,-213.91 1138.95,-206.19 1139.8,-216.75 1146.2,-213.91"/>
</g>
<!-- R2D2 -->
<g id="node36" class="node">
<title>R2D2</title>
<path fill="#dae8fc" stroke="black" stroke-width="2" d="M1140,-133C1140,-133 1110,-133 1110,-133 1104,-133 1098,-127 1098,-121 1098,-121 1098,-109 1098,-109 1098,-103 1104,-97 1110,-97 1110,-97 1140,-97 1140,-97 1146,-97 1152,-103 1152,-109 1152,-109 1152,-121 1152,-121 1152,-127 1146,-133 1140,-133"/>
<text text-anchor="middle" x="1125" y="-111.9" font-family="sans-serif" font-size="12.00">R2D2</text>
</g>
<!-- DQN&#45;&gt;R2D2 -->
<g id="edge32" class="edge">
<title>DQN&#45;&gt;R2D2</title>
<path fill="none" stroke="black" d="M987.36,-568.85C1045.48,-561.39 1176,-540.28 1176,-501 1176,-501 1176,-501 1176,-187 1176,-169.28 1165.39,-152.95 1153.85,-140.44"/>
<polygon fill="black" stroke="black" points="1156.16,-137.79 1146.63,-133.16 1151.19,-142.72 1156.16,-137.79"/>
</g>
<!-- TD3 -->
<g id="node22" class="node">
<title>TD3</title>
<path fill="#dae8fc" stroke="black" stroke-width="2" d="M692,-206C692,-206 662,-206 662,-206 656,-206 650,-200 650,-194 650,-194 650,-182 650,-182 650,-176 656,-170 662,-170 662,-170 692,-170 692,-170 698,-170 704,-176 704,-182 704,-182 704,-194 704,-194 704,-200 698,-206 692,-206"/>
<text text-anchor="middle" x="677" y="-184.9" font-family="sans-serif" font-size="12.00">TD3</text>
</g>
<!-- DDPG&#45;&gt;TD3 -->
<g id="edge54" class="edge">
<title>DDPG&#45;&gt;TD3</title>
<path fill="none" stroke="black" d="M502.11,-411.84C517.62,-402.46 536.26,-388.8 548,-372 579.58,-326.81 550.54,-297.56 583,-253 597.75,-232.75 620.98,-216.85 640.65,-205.96"/>
<polygon fill="black" stroke="black" points="642.49,-208.95 649.68,-201.17 639.21,-202.76 642.49,-208.95"/>
</g>
<!-- DDPG+HER -->
<g id="node24" class="node">
<title>DDPG+HER</title>
<path fill="#dae8fc" stroke="black" stroke-width="2" d="M501.5,-289C501.5,-289 440.5,-289 440.5,-289 434.5,-289 428.5,-283 428.5,-277 428.5,-277 428.5,-265 428.5,-265 428.5,-259 434.5,-253 440.5,-253 440.5,-253 501.5,-253 501.5,-253 507.5,-253 513.5,-259 513.5,-265 513.5,-265 513.5,-277 513.5,-277 513.5,-283 507.5,-289 501.5,-289"/>
<text text-anchor="middle" x="471" y="-267.9" font-family="sans-serif" font-size="12.00">DDPG+HER</text>
</g>
<!-- DDPG&#45;&gt;DDPG+HER -->
<g id="edge50" class="edge">
<title>DDPG&#45;&gt;DDPG+HER</title>
<path fill="none" stroke="darkgray" stroke-dasharray="5,2" d="M474.56,-408.93C473.87,-382.45 472.54,-331.22 471.71,-299.49"/>
<polygon fill="darkgray" stroke="darkgray" points="475.2,-299.05 471.45,-289.15 468.21,-299.23 475.2,-299.05"/>
</g>
<!-- APE&#45;X DDPG -->
<g id="node26" class="node">
<title>APE&#45;X DDPG</title>
<path fill="#dae8fc" stroke="black" stroke-width="2" d="M604,-206C604,-206 536,-206 536,-206 530,-206 524,-200 524,-194 524,-194 524,-182 524,-182 524,-176 530,-170 536,-170 536,-170 604,-170 604,-170 610,-170 616,-176 616,-182 616,-182 616,-194 616,-194 616,-200 610,-206 604,-206"/>
<text text-anchor="middle" x="570" y="-184.9" font-family="sans-serif" font-size="12.00">APE&#45;X DDPG</text>
</g>
<!-- DDPG&#45;&gt;APE&#45;X DDPG -->
<g id="edge53" class="edge">
<title>DDPG&#45;&gt;APE&#45;X DDPG</title>
<path fill="none" stroke="black" d="M483.33,-408.71C488.22,-398.22 494.33,-384.49 499,-372 504.85,-356.33 504.39,-351.76 510,-336 512.14,-330 542.44,-256.09 559.14,-215.42"/>
<polygon fill="black" stroke="black" points="562.41,-216.67 562.97,-206.09 555.94,-214.01 562.41,-216.67"/>
</g>
<!-- MADDPG -->
<g id="node48" class="node">
<title>MADDPG</title>
<path fill="#dae8fc" stroke="black" stroke-width="2" d="M398,-289C398,-289 352,-289 352,-289 346,-289 340,-283 340,-277 340,-277 340,-265 340,-265 340,-259 346,-253 352,-253 352,-253 398,-253 398,-253 404,-253 410,-259 410,-265 410,-265 410,-277 410,-277 410,-283 404,-289 398,-289"/>
<text text-anchor="middle" x="375" y="-267.9" font-family="sans-serif" font-size="12.00">MADDPG</text>
</g>
<!-- DDPG&#45;&gt;MADDPG -->
<g id="edge51" class="edge">
<title>DDPG&#45;&gt;MADDPG</title>
<path fill="none" stroke="black" d="M463.92,-408.93C446.42,-381.99 412.29,-329.43 391.78,-297.84"/>
<polygon fill="black" stroke="black" points="394.52,-295.63 386.13,-289.15 388.64,-299.44 394.52,-295.63"/>
</g>
<!-- D4PG -->
<g id="node49" class="node">
<title>D4PG</title>
<path fill="#dae8fc" stroke="black" stroke-width="2" d="M494,-206C494,-206 464,-206 464,-206 458,-206 452,-200 452,-194 452,-194 452,-182 452,-182 452,-176 458,-170 464,-170 464,-170 494,-170 494,-170 500,-170 506,-176 506,-182 506,-182 506,-194 506,-194 506,-200 500,-206 494,-206"/>
<text text-anchor="middle" x="479" y="-184.9" font-family="sans-serif" font-size="12.00">D4PG</text>
</g>
<!-- DDPG&#45;&gt;D4PG -->
<g id="edge52" class="edge">
<title>DDPG&#45;&gt;D4PG</title>
<path fill="none" stroke="black" d="M478.78,-408.78C483.04,-390.44 490.61,-360.71 500,-336 502.06,-330.56 521.69,-294.66 523,-289 526.61,-273.41 527.75,-268.28 523,-253 518.63,-238.94 509.99,-225.24 501.51,-214.14"/>
<polygon fill="black" stroke="black" points="504.12,-211.8 495.13,-206.19 498.67,-216.18 504.12,-211.8"/>
</g>
<!-- DDQN&#45;&gt;TD3 -->
<g id="edge17" class="edge">
<title>DDQN&#45;&gt;TD3</title>
<path fill="none" stroke="darkgray" stroke-dasharray="5,2" d="M981.91,-413.11C978.91,-411.71 975.89,-410.32 973,-409 881.55,-367.32 833.36,-392.58 766,-318 745.65,-295.47 761.23,-278.66 745,-253 735.38,-237.8 721.32,-223.75 708.48,-212.71"/>
<polygon fill="darkgray" stroke="darkgray" points="710.63,-209.94 700.7,-206.24 706.15,-215.32 710.63,-209.94"/>
<text text-anchor="middle" x="804" y="-310" font-family="sans-serif" font-size="10.00" fill="darkgray">double Q&#45;learning</text>
</g>
<!-- RAINBOW -->
<g id="node28" class="node">
<title>RAINBOW</title>
<path fill="#dae8fc" stroke="black" stroke-width="2" d="M1053,-289C1053,-289 1003,-289 1003,-289 997,-289 991,-283 991,-277 991,-277 991,-265 991,-265 991,-259 997,-253 1003,-253 1003,-253 1053,-253 1053,-253 1059,-253 1065,-259 1065,-265 1065,-265 1065,-277 1065,-277 1065,-283 1059,-289 1053,-289"/>
<text text-anchor="middle" x="1028" y="-267.9" font-family="sans-serif" font-size="12.00">RAINBOW</text>
</g>
<!-- DDQN&#45;&gt;RAINBOW -->
<g id="edge34" class="edge">
<title>DDQN&#45;&gt;RAINBOW</title>
<path fill="none" stroke="darkgray" stroke-dasharray="5,2" d="M989.09,-408.61C979.53,-398.92 969.07,-386 964,-372 958.55,-356.96 957.88,-350.78 964,-336 970.51,-320.28 982.96,-306.41 995.17,-295.63"/>
<polygon fill="darkgray" stroke="darkgray" points="997.66,-298.11 1003.09,-289.01 993.17,-292.74 997.66,-298.11"/>
</g>
<!-- Duelling&#45;DQN -->
<g id="node37" class="node">
<title>Duelling&#45;DQN</title>
<path fill="#dae8fc" stroke="black" stroke-width="2" d="M1053,-372C1053,-372 985,-372 985,-372 979,-372 973,-366 973,-360 973,-360 973,-348 973,-348 973,-342 979,-336 985,-336 985,-336 1053,-336 1053,-336 1059,-336 1065,-342 1065,-348 1065,-348 1065,-360 1065,-360 1065,-366 1059,-372 1053,-372"/>
<text text-anchor="middle" x="1019" y="-350.9" font-family="sans-serif" font-size="12.00">Duelling&#45;DQN</text>
</g>
<!-- DDQN&#45;&gt;Duelling&#45;DQN -->
<g id="edge33" class="edge">
<title>DDQN&#45;&gt;Duelling&#45;DQN</title>
<path fill="none" stroke="black" d="M1011.42,-408.81C1012.55,-400.79 1013.92,-391.05 1015.19,-382.07"/>
<polygon fill="black" stroke="black" points="1018.67,-382.42 1016.6,-372.03 1011.74,-381.44 1018.67,-382.42"/>
</g>
<!-- DQN+HER&#45;&gt;DDPG+HER -->
<g id="edge18" class="edge">
<title>DQN+HER&#45;&gt;DDPG+HER</title>
<path fill="none" stroke="darkgray" stroke-dasharray="5,2" d="M780.97,-289.08C763.54,-297.89 741.24,-307.53 720,-312 647.98,-327.17 563.25,-304.77 513.51,-287.58"/>
<text text-anchor="middle" x="709" y="-310" font-family="sans-serif" font-size="10.00" fill="darkgray">HER</text>
</g>
<!-- APE&#45;X DQN&#45;&gt;APE&#45;X DDPG -->
<g id="edge19" class="edge">
<title>APE&#45;X DQN&#45;&gt;APE&#45;X DDPG</title>
<path fill="none" stroke="darkgray" stroke-dasharray="5,2" d="M868.78,-206.2C857.87,-215.25 843.44,-225.26 828.5,-230 789.82,-242.28 679.4,-217.01 616.09,-200.59"/>
<text text-anchor="middle" x="813" y="-227" font-family="sans-serif" font-size="10.00" fill="darkgray">APE&#45;X</text>
</g>
<!-- A3C&#45;&gt;ACER -->
<g id="edge59" class="edge">
<title>A3C&#45;&gt;ACER</title>
<path fill="none" stroke="black" d="M667.06,-335.82C658.65,-324.65 647.54,-309.9 638.12,-297.38"/>
<polygon fill="black" stroke="black" points="640.73,-295.04 631.92,-289.15 635.14,-299.25 640.73,-295.04"/>
</g>
<!-- A3C&#45;&gt;RAINBOW -->
<g id="edge20" class="edge">
<title>A3C&#45;&gt;RAINBOW</title>
<path fill="none" stroke="darkgray" stroke-dasharray="5,2" d="M701.45,-335.93C717.86,-322.88 737.72,-307.11 738,-307 832.18,-269.95 865.28,-306.26 965,-289 970.17,-288.11 975.53,-286.98 980.84,-285.73"/>
<polygon fill="darkgray" stroke="darkgray" points="982.09,-289.03 990.94,-283.22 980.39,-282.24 982.09,-289.03"/>
</g>
<!-- A2C -->
<g id="node51" class="node">
<title>A2C</title>
<path fill="#dae8fc" stroke="black" stroke-width="2" d="M724,-289C724,-289 694,-289 694,-289 688,-289 682,-283 682,-277 682,-277 682,-265 682,-265 682,-259 688,-253 694,-253 694,-253 724,-253 724,-253 730,-253 736,-259 736,-265 736,-265 736,-277 736,-277 736,-283 730,-289 724,-289"/>
<text text-anchor="middle" x="709" y="-267.9" font-family="sans-serif" font-size="12.00">A2C</text>
</g>
<!-- A3C&#45;&gt;A2C -->
<g id="edge58" class="edge">
<title>A3C&#45;&gt;A2C</title>
<path fill="none" stroke="black" d="M671.31,-335.87C668.02,-326.98 665.94,-316.11 670,-307 671.66,-303.27 673.94,-299.78 676.56,-296.55"/>
<polygon fill="black" stroke="black" points="679.3,-298.75 683.65,-289.09 674.23,-293.93 679.3,-298.75"/>
</g>
<!-- Q&#45;learning&#45;&gt;DQN -->
<g id="edge23" class="edge">
<title>Q&#45;learning&#45;&gt;DQN</title>
<path fill="none" stroke="black" d="M960,-846.78C960,-832.41 960,-811.37 960,-793 960,-793 960,-793 960,-645 960,-630.65 960,-614.67 960,-601.51"/>
<polygon fill="black" stroke="black" points="963.5,-601.22 960,-591.22 956.5,-601.22 963.5,-601.22"/>
</g>
<!-- PER&#45;&gt;RAINBOW -->
<g id="edge35" class="edge">
<title>PER&#45;&gt;RAINBOW</title>
<path fill="none" stroke="darkgray" stroke-dasharray="5,2" d="M1082.36,-408.84C1083.21,-390.29 1082.82,-360.14 1074,-336 1068.87,-321.97 1059.75,-308.27 1050.98,-297.16"/>
<polygon fill="darkgray" stroke="darkgray" points="1053.48,-294.69 1044.41,-289.22 1048.08,-299.15 1053.48,-294.69"/>
</g>
<!-- QR&#45;DQN&#45;&gt;RAINBOW -->
<g id="edge37" class="edge">
<title>QR&#45;DQN&#45;&gt;RAINBOW</title>
<path fill="none" stroke="darkgray" stroke-dasharray="5,2" d="M955.81,-271C964.1,-271 972.38,-271 980.67,-271"/>
<polygon fill="darkgray" stroke="darkgray" points="980.78,-274.5 990.78,-271 980.78,-267.5 980.78,-274.5"/>
</g>
<!-- NGU -->
<g id="node38" class="node">
<title>NGU</title>
<path fill="#dae8fc" stroke="black" stroke-width="2" d="M1067,-60C1067,-60 1037,-60 1037,-60 1031,-60 1025,-54 1025,-48 1025,-48 1025,-36 1025,-36 1025,-30 1031,-24 1037,-24 1037,-24 1067,-24 1067,-24 1073,-24 1079,-30 1079,-36 1079,-36 1079,-48 1079,-48 1079,-54 1073,-60 1067,-60"/>
<text text-anchor="middle" x="1052" y="-38.9" font-family="sans-serif" font-size="12.00">NGU</text>
</g>
<!-- R2D2&#45;&gt;NGU -->
<g id="edge38" class="edge">
<title>R2D2&#45;&gt;NGU</title>
<path fill="none" stroke="black" d="M1107.33,-96.81C1098.18,-87.92 1086.86,-76.91 1076.85,-67.17"/>
<polygon fill="black" stroke="black" points="1079.12,-64.49 1069.51,-60.03 1074.24,-69.51 1079.12,-64.49"/>
</g>
<!-- Duelling&#45;DQN&#45;&gt;RAINBOW -->
<g id="edge36" class="edge">
<title>Duelling&#45;DQN&#45;&gt;RAINBOW</title>
<path fill="none" stroke="darkgray" stroke-dasharray="5,2" d="M1020.91,-335.82C1022.09,-325.19 1023.63,-311.31 1024.98,-299.2"/>
<polygon fill="darkgray" stroke="darkgray" points="1028.47,-299.48 1026.09,-289.15 1021.51,-298.71 1028.47,-299.48"/>
</g>
<!-- Agent57 -->
<g id="node39" class="node">
<title>Agent57</title>
<path fill="#dae8fc" stroke="black" stroke-width="2" d="M1165,-60C1165,-60 1127,-60 1127,-60 1121,-60 1115,-54 1115,-48 1115,-48 1115,-36 1115,-36 1115,-30 1121,-24 1127,-24 1127,-24 1165,-24 1165,-24 1171,-24 1177,-30 1177,-36 1177,-36 1177,-48 1177,-48 1177,-54 1171,-60 1165,-60"/>
<text text-anchor="middle" x="1146" y="-38.9" font-family="sans-serif" font-size="12.00">Agent57</text>
</g>
<!-- NGU&#45;&gt;Agent57 -->
<g id="edge39" class="edge">
<title>NGU&#45;&gt;Agent57</title>
<path fill="none" stroke="black" d="M1079.17,-42C1087.74,-42 1096.31,-42 1104.88,-42"/>
<polygon fill="black" stroke="black" points="1104.94,-45.5 1114.94,-42 1104.94,-38.5 1104.94,-45.5"/>
</g>
<!-- DPG&#45;&gt;DDPG -->
<g id="edge49" class="edge">
<title>DPG&#45;&gt;DDPG</title>
<path fill="none" stroke="black" d="M404.51,-481.81C416.51,-472.66 431.43,-461.26 444.46,-451.32"/>
<polygon fill="black" stroke="black" points="446.87,-453.88 452.69,-445.03 442.62,-448.32 446.87,-453.88"/>
</g>
<!-- TRPO&#45;&gt;ACER -->
<g id="edge56" class="edge">
<title>TRPO&#45;&gt;ACER</title>
<path fill="none" stroke="darkgray" stroke-dasharray="5,2" d="M132.1,-417.11C140.67,-414.4 150.2,-411.48 159,-409 320.35,-363.59 367.51,-375.38 525,-318 544.59,-310.86 565.5,-300.88 582.62,-292.04"/>
<polygon fill="darkgray" stroke="darkgray" points="584.48,-295.02 591.7,-287.27 581.22,-288.82 584.48,-295.02"/>
<text text-anchor="middle" x="507.5" y="-351.5" font-family="sans-serif" font-size="10.00" fill="darkgray">TRPO technique</text>
</g>
<!-- TRPO&#45;&gt;GAE -->
<g id="edge55" class="edge">
<title>TRPO&#45;&gt;GAE</title>
<path fill="none" stroke="darkgray" stroke-dasharray="5,2" d="M132.07,-427C140.67,-427 149.27,-427 157.87,-427"/>
<polygon fill="darkgray" stroke="darkgray" points="157.96,-430.5 167.96,-427 157.96,-423.5 157.96,-430.5"/>
</g>
<!-- PPO -->
<g id="node50" class="node">
<title>PPO</title>
<path fill="#dae8fc" stroke="black" stroke-width="2" d="M120,-289C120,-289 90,-289 90,-289 84,-289 78,-283 78,-277 78,-277 78,-265 78,-265 78,-259 84,-253 90,-253 90,-253 120,-253 120,-253 126,-253 132,-259 132,-265 132,-265 132,-277 132,-277 132,-283 126,-289 120,-289"/>
<text text-anchor="middle" x="105" y="-267.9" font-family="sans-serif" font-size="12.00">PPO</text>
</g>
<!-- TRPO&#45;&gt;PPO -->
<g id="edge57" class="edge">
<title>TRPO&#45;&gt;PPO</title>
<path fill="none" stroke="darkgray" stroke-dasharray="5,2" d="M105,-408.93C105,-382.45 105,-331.22 105,-299.49"/>
<polygon fill="darkgray" stroke="darkgray" points="108.5,-299.15 105,-289.15 101.5,-299.15 108.5,-299.15"/>
</g>
<!-- PPO&#45;&gt;SAC -->
<!-- A2C&#45;&gt;ACER -->
<!-- A2C&#45;&gt;ACKTR -->
<!-- A2C&#45;&gt;SVPG -->
<!-- A2C&#45;&gt;IMPALA -->
<!-- PILCO -->
<g id="node53" class="node">
<title>PILCO</title>
<path fill="#dae8fc" stroke="black" stroke-width="2" d="M1428,-664C1428,-664 1398,-664 1398,-664 1392,-664 1386,-658 1386,-652 1386,-652 1386,-640 1386,-640 1386,-634 1392,-628 1398,-628 1398,-628 1428,-628 1428,-628 1434,-628 1440,-634 1440,-640 1440,-640 1440,-652 1440,-652 1440,-658 1434,-664 1428,-664"/>
<text text-anchor="middle" x="1413" y="-642.9" font-family="sans-serif" font-size="12.00">PILCO</text>
</g>
<!-- Model Based&#45;&gt;PILCO -->
<g id="edge65" class="edge">
<title>Model Based&#45;&gt;PILCO</title>
<path fill="none" stroke="black" d="M1451.18,-1042.77C1441.42,-1019.66 1426,-977.1 1426,-939 1426,-939 1426,-939 1426,-718 1426,-703.27 1423.26,-687.09 1420.29,-673.91"/>
<polygon fill="black" stroke="black" points="1423.66,-672.96 1417.91,-664.06 1416.86,-674.6 1423.66,-672.96"/>
</g>
<!-- I2A -->
<g id="node54" class="node">
<title>I2A</title>
<path fill="#dae8fc" stroke="black" stroke-width="2" d="M1425,-289C1425,-289 1395,-289 1395,-289 1389,-289 1383,-283 1383,-277 1383,-277 1383,-265 1383,-265 1383,-259 1389,-253 1395,-253 1395,-253 1425,-253 1425,-253 1431,-253 1437,-259 1437,-265 1437,-265 1437,-277 1437,-277 1437,-283 1431,-289 1425,-289"/>
<text text-anchor="middle" x="1410" y="-267.9" font-family="sans-serif" font-size="12.00">I2A</text>
</g>
<!-- Model Based&#45;&gt;I2A -->
<g id="edge66" class="edge">
<title>Model Based&#45;&gt;I2A</title>
<path fill="none" stroke="black" d="M1459,-1042.77C1459,-1019.3 1459,-975.97 1459,-939 1459,-939 1459,-939 1459,-353 1459,-332.06 1446.86,-311.9 1434.67,-296.93"/>
<polygon fill="black" stroke="black" points="1437.15,-294.45 1427.97,-289.18 1431.86,-299.03 1437.15,-294.45"/>
</g>
<!-- MBMF -->
<g id="node55" class="node">
<title>MBMF</title>
<path fill="#dae8fc" stroke="black" stroke-width="2" d="M1497,-289C1497,-289 1467,-289 1467,-289 1461,-289 1455,-283 1455,-277 1455,-277 1455,-265 1455,-265 1455,-259 1461,-253 1467,-253 1467,-253 1497,-253 1497,-253 1503,-253 1509,-259 1509,-265 1509,-265 1509,-277 1509,-277 1509,-283 1503,-289 1497,-289"/>
<text text-anchor="middle" x="1482" y="-267.9" font-family="sans-serif" font-size="12.00">MBMF</text>
</g>
<!-- Model Based&#45;&gt;MBMF -->
<g id="edge67" class="edge">
<title>Model Based&#45;&gt;MBMF</title>
<path fill="none" stroke="black" d="M1463.87,-1042.93C1470.07,-1019.64 1480,-976.52 1480,-939 1480,-939 1480,-939 1480,-353 1480,-335.06 1480.5,-314.88 1480.99,-299.16"/>
<polygon fill="black" stroke="black" points="1484.5,-299.18 1481.33,-289.06 1477.5,-298.94 1484.5,-299.18"/>
</g>
<!-- Exit -->
<g id="node56" class="node">
<title>Exit</title>
<path fill="#dae8fc" stroke="black" stroke-width="2" d="M1569,-289C1569,-289 1539,-289 1539,-289 1533,-289 1527,-283 1527,-277 1527,-277 1527,-265 1527,-265 1527,-259 1533,-253 1539,-253 1539,-253 1569,-253 1569,-253 1575,-253 1581,-259 1581,-265 1581,-265 1581,-277 1581,-277 1581,-283 1575,-289 1569,-289"/>
<text text-anchor="middle" x="1554" y="-267.9" font-family="sans-serif" font-size="12.00">Exit</text>
</g>
<!-- Model Based&#45;&gt;Exit -->
<g id="edge68" class="edge">
<title>Model Based&#45;&gt;Exit</title>
<path fill="none" stroke="black" d="M1476.66,-1042.95C1497.4,-1021.01 1529,-980.74 1529,-939 1529,-939 1529,-939 1529,-353 1529,-334.29 1535.17,-314.18 1541.38,-298.68"/>
<polygon fill="black" stroke="black" points="1544.71,-299.8 1545.4,-289.22 1538.26,-297.06 1544.71,-299.8"/>
</g>
<!-- AlphaZero -->
<g id="node57" class="node">
<title>AlphaZero</title>
<path fill="#dae8fc" stroke="black" stroke-width="2" d="M1660.5,-289C1660.5,-289 1611.5,-289 1611.5,-289 1605.5,-289 1599.5,-283 1599.5,-277 1599.5,-277 1599.5,-265 1599.5,-265 1599.5,-259 1605.5,-253 1611.5,-253 1611.5,-253 1660.5,-253 1660.5,-253 1666.5,-253 1672.5,-259 1672.5,-265 1672.5,-265 1672.5,-277 1672.5,-277 1672.5,-283 1666.5,-289 1660.5,-289"/>
<text text-anchor="middle" x="1636" y="-267.9" font-family="sans-serif" font-size="12.00">AlphaZero</text>
</g>
<!-- Model Based&#45;&gt;AlphaZero -->
<g id="edge69" class="edge">
<title>Model Based&#45;&gt;AlphaZero</title>
<path fill="none" stroke="black" d="M1500.72,-1042.96C1539.72,-1023.94 1592,-989.1 1592,-939 1592,-939 1592,-939 1592,-353 1592,-332.67 1602.84,-312.56 1613.76,-297.47"/>
<polygon fill="black" stroke="black" points="1616.8,-299.26 1620.11,-289.2 1611.25,-295 1616.8,-299.26"/>
</g>
<!-- MVE -->
<g id="node58" class="node">
<title>MVE</title>
<path fill="#dae8fc" stroke="black" stroke-width="2" d="M1555,-206C1555,-206 1525,-206 1525,-206 1519,-206 1513,-200 1513,-194 1513,-194 1513,-182 1513,-182 1513,-176 1519,-170 1525,-170 1525,-170 1555,-170 1555,-170 1561,-170 1567,-176 1567,-182 1567,-182 1567,-194 1567,-194 1567,-200 1561,-206 1555,-206"/>
<text text-anchor="middle" x="1540" y="-184.9" font-family="sans-serif" font-size="12.00">MVE</text>
</g>
<!-- Model Based&#45;&gt;MVE -->
<g id="edge70" class="edge">
<title>Model Based&#45;&gt;MVE</title>
<path fill="none" stroke="black" d="M1502.55,-1056.73C1569.99,-1049.03 1692,-1023.44 1692,-939 1692,-939 1692,-939 1692,-270 1692,-220.92 1657.97,-242.72 1577,-206 1576.8,-205.91 1576.6,-205.82 1576.39,-205.73"/>
<polygon fill="black" stroke="black" points="1577.61,-202.44 1567.06,-201.47 1574.71,-208.8 1577.61,-202.44"/>
</g>
<!-- STEVE -->
<g id="node59" class="node">
<title>STEVE</title>
<path fill="#dae8fc" stroke="black" stroke-width="2" d="M1630.5,-206C1630.5,-206 1597.5,-206 1597.5,-206 1591.5,-206 1585.5,-200 1585.5,-194 1585.5,-194 1585.5,-182 1585.5,-182 1585.5,-176 1591.5,-170 1597.5,-170 1597.5,-170 1630.5,-170 1630.5,-170 1636.5,-170 1642.5,-176 1642.5,-182 1642.5,-182 1642.5,-194 1642.5,-194 1642.5,-200 1636.5,-206 1630.5,-206"/>
<text text-anchor="middle" x="1614" y="-184.9" font-family="sans-serif" font-size="12.00">STEVE</text>
</g>
<!-- Model Based&#45;&gt;STEVE -->
<g id="edge71" class="edge">
<title>Model Based&#45;&gt;STEVE</title>
<path fill="none" stroke="black" d="M1502.76,-1055.55C1557.39,-1049.23 1646.86,-1036.14 1673,-1016 1703.39,-992.59 1712,-977.36 1712,-939 1712,-939 1712,-939 1712,-270 1712,-253.62 1679.05,-229 1651.37,-211.21"/>
<polygon fill="black" stroke="black" points="1652.94,-208.06 1642.61,-205.69 1649.2,-213.98 1652.94,-208.06"/>
</g>
<!-- ME&#45;TRPO -->
<g id="node60" class="node">
<title>ME&#45;TRPO</title>
<path fill="#dae8fc" stroke="black" stroke-width="2" d="M1721,-206C1721,-206 1673,-206 1673,-206 1667,-206 1661,-200 1661,-194 1661,-194 1661,-182 1661,-182 1661,-176 1667,-170 1673,-170 1673,-170 1721,-170 1721,-170 1727,-170 1733,-176 1733,-182 1733,-182 1733,-194 1733,-194 1733,-200 1727,-206 1721,-206"/>
<text text-anchor="middle" x="1697" y="-184.9" font-family="sans-serif" font-size="12.00">ME&#45;TRPO</text>
</g>
<!-- Model Based&#45;&gt;ME&#45;TRPO -->
<g id="edge72" class="edge">
<title>Model Based&#45;&gt;ME&#45;TRPO</title>
<path fill="none" stroke="black" d="M1502.57,-1057.03C1563.01,-1052.08 1668.15,-1040.2 1697,-1016 1725.8,-991.84 1732,-976.59 1732,-939 1732,-939 1732,-939 1732,-270 1732,-250.46 1723.31,-230.29 1714.6,-214.96"/>
<polygon fill="black" stroke="black" points="1717.41,-212.85 1709.24,-206.09 1711.41,-216.46 1717.41,-212.85"/>
</g>
<!-- MB&#45;MPO -->
<g id="node61" class="node">
<title>MB&#45;MPO</title>
<path fill="#dae8fc" stroke="black" stroke-width="2" d="M1262.5,-206C1262.5,-206 1221.5,-206 1221.5,-206 1215.5,-206 1209.5,-200 1209.5,-194 1209.5,-194 1209.5,-182 1209.5,-182 1209.5,-176 1215.5,-170 1221.5,-170 1221.5,-170 1262.5,-170 1262.5,-170 1268.5,-170 1274.5,-176 1274.5,-182 1274.5,-182 1274.5,-194 1274.5,-194 1274.5,-200 1268.5,-206 1262.5,-206"/>
<text text-anchor="middle" x="1242" y="-184.9" font-family="sans-serif" font-size="12.00">MB&#45;MPO</text>
</g>
<!-- Model Based&#45;&gt;MB&#45;MPO -->
<g id="edge73" class="edge">
<title>Model Based&#45;&gt;MB&#45;MPO</title>
<path fill="none" stroke="black" d="M1415.16,-1059.12C1379.21,-1056.07 1329.32,-1046.14 1298,-1016 1270.91,-989.93 1263,-976.59 1263,-939 1263,-939 1263,-939 1263,-270 1263,-251.41 1257.75,-231.16 1252.5,-215.57"/>
<polygon fill="black" stroke="black" points="1255.77,-214.29 1249.11,-206.05 1249.17,-216.64 1255.77,-214.29"/>
</g>
<!-- World Models -->
<g id="node62" class="node">
<title>World Models</title>
<path fill="#dae8fc" stroke="black" stroke-width="2" d="M1371,-206C1371,-206 1305,-206 1305,-206 1299,-206 1293,-200 1293,-194 1293,-194 1293,-182 1293,-182 1293,-176 1299,-170 1305,-170 1305,-170 1371,-170 1371,-170 1377,-170 1383,-176 1383,-182 1383,-182 1383,-194 1383,-194 1383,-200 1377,-206 1371,-206"/>
<text text-anchor="middle" x="1338" y="-184.9" font-family="sans-serif" font-size="12.00">World Models</text>
</g>
<!-- Model Based&#45;&gt;World Models -->
<g id="edge74" class="edge">
<title>Model Based&#45;&gt;World Models</title>
<path fill="none" stroke="black" d="M1415.3,-1059.39C1382.45,-1056.34 1339.42,-1046.29 1317,-1016 1296.35,-988.1 1304,-973.71 1304,-939 1304,-939 1304,-939 1304,-270 1304,-250.55 1312.44,-230.38 1320.91,-215.03"/>
<polygon fill="black" stroke="black" points="1324.08,-216.54 1326.11,-206.14 1318.04,-213.01 1324.08,-216.54"/>
</g>
<!-- PETS -->
<g id="node63" class="node">
<title>PETS</title>
<path fill="#dae8fc" stroke="black" stroke-width="2" d="M1443,-206C1443,-206 1413,-206 1413,-206 1407,-206 1401,-200 1401,-194 1401,-194 1401,-182 1401,-182 1401,-176 1407,-170 1413,-170 1413,-170 1443,-170 1443,-170 1449,-170 1455,-176 1455,-182 1455,-182 1455,-194 1455,-194 1455,-200 1449,-206 1443,-206"/>
<text text-anchor="middle" x="1428" y="-184.9" font-family="sans-serif" font-size="12.00">PETS</text>
</g>
<!-- Model Based&#45;&gt;PETS -->
<g id="edge75" class="edge">
<title>Model Based&#45;&gt;PETS</title>
<path fill="none" stroke="black" d="M1415.26,-1058.35C1389.41,-1054.99 1358.1,-1046.35 1339,-1025 1313.13,-996.08 1324,-977.8 1324,-939 1324,-939 1324,-939 1324,-270 1324,-252.32 1361.89,-226.47 1391.93,-208.76"/>
<polygon fill="black" stroke="black" points="1394.04,-211.58 1400.95,-203.54 1390.54,-205.52 1394.04,-211.58"/>
</g>
<!-- SimPLe -->
<g id="node64" class="node">
<title>SimPLe</title>
<path fill="#dae8fc" stroke="black" stroke-width="2" d="M1462.5,-133C1462.5,-133 1427.5,-133 1427.5,-133 1421.5,-133 1415.5,-127 1415.5,-121 1415.5,-121 1415.5,-109 1415.5,-109 1415.5,-103 1421.5,-97 1427.5,-97 1427.5,-97 1462.5,-97 1462.5,-97 1468.5,-97 1474.5,-103 1474.5,-109 1474.5,-109 1474.5,-121 1474.5,-121 1474.5,-127 1468.5,-133 1462.5,-133"/>
<text text-anchor="middle" x="1445" y="-111.9" font-family="sans-serif" font-size="12.00">SimPLe</text>
</g>
<!-- Model Based&#45;&gt;SimPLe -->
<g id="edge76" class="edge">
<title>Model Based&#45;&gt;SimPLe</title>
<path fill="none" stroke="black" d="M1415.39,-1054.88C1395.38,-1050.28 1373.04,-1041.55 1359,-1025 1333.9,-995.41 1344,-977.8 1344,-939 1344,-939 1344,-939 1344,-311.5 1344,-284.66 1341.7,-273.52 1359,-253 1359.51,-252.39 1463.57,-206.67 1464,-206 1476.33,-186.97 1469.14,-161.36 1460.28,-142.32"/>
<polygon fill="black" stroke="black" points="1463.36,-140.66 1455.74,-133.3 1457.11,-143.81 1463.36,-140.66"/>
</g>
<!-- MuZero -->
<g id="node65" class="node">
<title>MuZero</title>
<path fill="#dae8fc" stroke="black" stroke-width="2" d="M1539,-133C1539,-133 1505,-133 1505,-133 1499,-133 1493,-127 1493,-121 1493,-121 1493,-109 1493,-109 1493,-103 1499,-97 1505,-97 1505,-97 1539,-97 1539,-97 1545,-97 1551,-103 1551,-109 1551,-109 1551,-121 1551,-121 1551,-127 1545,-133 1539,-133"/>
<text text-anchor="middle" x="1522" y="-111.9" font-family="sans-serif" font-size="12.00">MuZero</text>
</g>
<!-- Model Based&#45;&gt;MuZero -->
<g id="edge77" class="edge">
<title>Model Based&#45;&gt;MuZero</title>
<path fill="none" stroke="black" d="M1433.04,-1042.84C1404.91,-1021.96 1364,-983.87 1364,-939 1364,-939 1364,-939 1364,-311.5 1364,-285.12 1357.67,-273.71 1374,-253 1386.57,-237.05 1397.64,-243.68 1416,-235 1441.34,-223.03 1451.89,-225.53 1472,-206 1490.34,-188.18 1503.8,-162.17 1512.1,-142.69"/>
<polygon fill="black" stroke="black" points="1515.45,-143.76 1515.97,-133.18 1508.96,-141.12 1515.45,-143.76"/>
</g>
<!-- DMRL -->
<g id="node67" class="node">
<title>DMRL</title>
<path fill="#dae8fc" stroke="black" stroke-width="2" d="M1911,-372C1911,-372 1881,-372 1881,-372 1875,-372 1869,-366 1869,-360 1869,-360 1869,-348 1869,-348 1869,-342 1875,-336 1881,-336 1881,-336 1911,-336 1911,-336 1917,-336 1923,-342 1923,-348 1923,-348 1923,-360 1923,-360 1923,-366 1917,-372 1911,-372"/>
<text text-anchor="middle" x="1896" y="-350.9" font-family="sans-serif" font-size="12.00">DMRL</text>
</g>
<!-- Meta&#45;RL&#45;&gt;DMRL -->
<g id="edge78" class="edge">
<title>Meta&#45;RL&#45;&gt;DMRL</title>
<path fill="none" stroke="black" d="M1850.41,-1042.65C1863.14,-1019.75 1883,-977.79 1883,-939 1883,-939 1883,-939 1883,-426 1883,-411.27 1885.74,-395.09 1888.71,-381.91"/>
<polygon fill="black" stroke="black" points="1892.14,-382.6 1891.09,-372.06 1885.34,-380.96 1892.14,-382.6"/>
</g>
<!-- RL^2 -->
<g id="node68" class="node">
<title>RL^2</title>
<path fill="#dae8fc" stroke="black" stroke-width="2" d="M1799,-372C1799,-372 1769,-372 1769,-372 1763,-372 1757,-366 1757,-360 1757,-360 1757,-348 1757,-348 1757,-342 1763,-336 1769,-336 1769,-336 1799,-336 1799,-336 1805,-336 1811,-342 1811,-348 1811,-348 1811,-360 1811,-360 1811,-366 1805,-372 1799,-372"/>
<text text-anchor="middle" x="1784" y="-350.9" font-family="sans-serif" font-size="12.00">RL^2</text>
</g>
<!-- Meta&#45;RL&#45;&gt;RL^2 -->
<g id="edge79" class="edge">
<title>Meta&#45;RL&#45;&gt;RL^2</title>
<path fill="none" stroke="black" d="M1829.59,-1042.65C1816.86,-1019.75 1797,-977.79 1797,-939 1797,-939 1797,-939 1797,-426 1797,-411.27 1794.26,-395.09 1791.29,-381.91"/>
<polygon fill="black" stroke="black" points="1794.66,-380.96 1788.91,-372.06 1787.86,-382.6 1794.66,-380.96"/>
</g>
<!-- MAML -->
<g id="node69" class="node">
<title>MAML</title>
<path fill="#dae8fc" stroke="black" stroke-width="2" d="M1819,-289C1819,-289 1789,-289 1789,-289 1783,-289 1777,-283 1777,-277 1777,-277 1777,-265 1777,-265 1777,-259 1783,-253 1789,-253 1789,-253 1819,-253 1819,-253 1825,-253 1831,-259 1831,-265 1831,-265 1831,-277 1831,-277 1831,-283 1825,-289 1819,-289"/>
<text text-anchor="middle" x="1804" y="-267.9" font-family="sans-serif" font-size="12.00">MAML</text>
</g>
<!-- Meta&#45;RL&#45;&gt;MAML -->
<g id="edge80" class="edge">
<title>Meta&#45;RL&#45;&gt;MAML</title>
<path fill="none" stroke="black" d="M1837.68,-1042.8C1834.73,-1019.38 1830,-976.1 1830,-939 1830,-939 1830,-939 1830,-353 1830,-334.22 1823.59,-314.11 1817.13,-298.63"/>
<polygon fill="black" stroke="black" points="1820.2,-296.91 1812.95,-289.19 1813.8,-299.75 1820.2,-296.91"/>
</g>
<!-- SNAIL -->
<g id="node70" class="node">
<title>SNAIL</title>
<path fill="#dae8fc" stroke="black" stroke-width="2" d="M1891,-289C1891,-289 1861,-289 1861,-289 1855,-289 1849,-283 1849,-277 1849,-277 1849,-265 1849,-265 1849,-259 1855,-253 1861,-253 1861,-253 1891,-253 1891,-253 1897,-253 1903,-259 1903,-265 1903,-265 1903,-277 1903,-277 1903,-283 1897,-289 1891,-289"/>
<text text-anchor="middle" x="1876" y="-267.9" font-family="sans-serif" font-size="12.00">SNAIL</text>
</g>
<!-- Meta&#45;RL&#45;&gt;SNAIL -->
<g id="edge81" class="edge">
<title>Meta&#45;RL&#45;&gt;SNAIL</title>
<path fill="none" stroke="black" d="M1842.32,-1042.8C1845.27,-1019.38 1850,-976.1 1850,-939 1850,-939 1850,-939 1850,-353 1850,-334.22 1856.41,-314.11 1862.87,-298.63"/>
<polygon fill="black" stroke="black" points="1866.2,-299.75 1867.05,-289.19 1859.8,-296.91 1866.2,-299.75"/>
</g>
<!-- ProMP -->
<g id="node71" class="node">
<title>ProMP</title>
<path fill="#dae8fc" stroke="black" stroke-width="2" d="M1931,-206C1931,-206 1901,-206 1901,-206 1895,-206 1889,-200 1889,-194 1889,-194 1889,-182 1889,-182 1889,-176 1895,-170 1901,-170 1901,-170 1931,-170 1931,-170 1937,-170 1943,-176 1943,-182 1943,-182 1943,-194 1943,-194 1943,-200 1937,-206 1931,-206"/>
<text text-anchor="middle" x="1916" y="-184.9" font-family="sans-serif" font-size="12.00">ProMP</text>
</g>
<!-- Meta&#45;RL&#45;&gt;ProMP -->
<g id="edge82" class="edge">
<title>Meta&#45;RL&#45;&gt;ProMP</title>
<path fill="none" stroke="black" d="M1868.41,-1042.93C1898.59,-1022.4 1942,-984.88 1942,-939 1942,-939 1942,-939 1942,-270 1942,-251.22 1935.59,-231.11 1929.13,-215.63"/>
<polygon fill="black" stroke="black" points="1932.2,-213.91 1924.95,-206.19 1925.8,-216.75 1932.2,-213.91"/>
</g>
</g>
</svg>
