<?xml version="1.0" encoding="UTF-8" standalone="no"?>
<!DOCTYPE svg PUBLIC "-//W3C//DTD SVG 1.1//EN"
 "http://www.w3.org/Graphics/SVG/1.1/DTD/svg11.dtd">
<!-- Generated by graphviz version 2.44.0 (20200408.0750)
 -->
<!-- Pages: 1 -->
<svg width="1795pt" height="1000pt"
 viewBox="0.00 0.00 1795.00 1000.00" xmlns="http://www.w3.org/2000/svg" xmlns:xlink="http://www.w3.org/1999/xlink">
<g id="graph0" class="graph" transform="scale(1 1) rotate(0) translate(4 996)">
<polygon fill="white" stroke="transparent" points="-4,4 -4,-996 1791,-996 1791,4 -4,4"/>
<g id="clust2" class="cluster">
<title>clusterModel Free</title>
<polygon fill="#f7fdff" stroke="black" points="62,-79 62,-929 1133,-929 1133,-79 62,-79"/>
<text text-anchor="middle" x="597.5" y="-912.2" font-family="sans-serif" font-size="16.00">Model Free</text>
</g>
<g id="clust3" class="cluster">
<title>clusterValue Gradient</title>
<path fill="#f1f7fe" stroke="black" stroke-dasharray="5,2" d="M758,-87C758,-87 1113,-87 1113,-87 1119,-87 1125,-93 1125,-99 1125,-99 1125,-820 1125,-820 1125,-826 1119,-832 1113,-832 1113,-832 758,-832 758,-832 752,-832 746,-826 746,-820 746,-820 746,-99 746,-99 746,-93 752,-87 758,-87"/>
<text text-anchor="middle" x="935.5" y="-815.2" font-family="sans-serif" font-size="16.00">Value Gradient</text>
</g>
<g id="clust4" class="cluster">
<title>clusterPolicy Gradient/Actor&#45;Critic</title>
<path fill="#f1f7fe" stroke="black" stroke-dasharray="5,2" d="M82,-87C82,-87 712,-87 712,-87 718,-87 724,-93 724,-99 724,-99 724,-820 724,-820 724,-826 718,-832 712,-832 712,-832 82,-832 82,-832 76,-832 70,-826 70,-820 70,-820 70,-99 70,-99 70,-93 76,-87 82,-87"/>
<text text-anchor="middle" x="397" y="-815.2" font-family="sans-serif" font-size="16.00">Policy Gradient/Actor&#45;Critic</text>
</g>
<g id="clust5" class="cluster">
<title>clusterModel Based</title>
<polygon fill="#f7fdff" stroke="black" points="1141,-8 1141,-929 1589,-929 1589,-8 1141,-8"/>
<text text-anchor="middle" x="1365" y="-912.2" font-family="sans-serif" font-size="16.00">Model Based</text>
</g>
<g id="clust6" class="cluster">
<title>clusterMeta&#45;RL</title>
<polygon fill="#f7fdff" stroke="black" points="1597,-160 1597,-929 1779,-929 1779,-160 1597,-160"/>
<text text-anchor="middle" x="1688" y="-912.2" font-family="sans-serif" font-size="16.00">Meta&#45;RL</text>
</g>
<!-- 1989 -->
<g id="node1" class="node">
<title>1989</title>
<text text-anchor="middle" x="27" y="-704.5" font-family="sans-serif" font-size="10.00" fill="darkblue">1989</text>
</g>
<!-- 1992 -->
<g id="node2" class="node">
<title>1992</title>
<text text-anchor="middle" x="27" y="-631.5" font-family="sans-serif" font-size="10.00" fill="darkblue">1992</text>
</g>
<!-- 1989&#45;&gt;1992 -->
<g id="edge1" class="edge">
<title>1989&#45;&gt;1992</title>
<path fill="none" stroke="darkblue" d="M27,-688.81C27,-680.79 27,-671.05 27,-662.07"/>
<polygon fill="darkblue" stroke="darkblue" points="30.5,-662.03 27,-652.03 23.5,-662.03 30.5,-662.03"/>
</g>
<!-- 1994 -->
<g id="node3" class="node">
<title>1994</title>
<text text-anchor="middle" x="27" y="-558.5" font-family="sans-serif" font-size="10.00" fill="darkblue">1994</text>
</g>
<!-- 1992&#45;&gt;1994 -->
<g id="edge2" class="edge">
<title>1992&#45;&gt;1994</title>
<path fill="none" stroke="darkblue" d="M27,-615.81C27,-607.79 27,-598.05 27,-589.07"/>
<polygon fill="darkblue" stroke="darkblue" points="30.5,-589.03 27,-579.03 23.5,-589.03 30.5,-589.03"/>
</g>
<!-- 2013 -->
<g id="node4" class="node">
<title>2013</title>
<text text-anchor="middle" x="27" y="-485.5" font-family="sans-serif" font-size="10.00" fill="darkblue">2013</text>
</g>
<!-- 1994&#45;&gt;2013 -->
<g id="edge3" class="edge">
<title>1994&#45;&gt;2013</title>
<path fill="none" stroke="darkblue" d="M27,-542.81C27,-534.79 27,-525.05 27,-516.07"/>
<polygon fill="darkblue" stroke="darkblue" points="30.5,-516.03 27,-506.03 23.5,-516.03 30.5,-516.03"/>
</g>
<!-- 2014 -->
<g id="node5" class="node">
<title>2014</title>
<text text-anchor="middle" x="27" y="-412.5" font-family="sans-serif" font-size="10.00" fill="darkblue">2014</text>
</g>
<!-- 2013&#45;&gt;2014 -->
<g id="edge4" class="edge">
<title>2013&#45;&gt;2014</title>
<path fill="none" stroke="darkblue" d="M27,-469.81C27,-461.79 27,-452.05 27,-443.07"/>
<polygon fill="darkblue" stroke="darkblue" points="30.5,-443.03 27,-433.03 23.5,-443.03 30.5,-443.03"/>
</g>
<!-- 2015 -->
<g id="node6" class="node">
<title>2015</title>
<text text-anchor="middle" x="27" y="-339.5" font-family="sans-serif" font-size="10.00" fill="darkblue">2015</text>
</g>
<!-- 2014&#45;&gt;2015 -->
<g id="edge5" class="edge">
<title>2014&#45;&gt;2015</title>
<path fill="none" stroke="darkblue" d="M27,-396.81C27,-388.79 27,-379.05 27,-370.07"/>
<polygon fill="darkblue" stroke="darkblue" points="30.5,-370.03 27,-360.03 23.5,-370.03 30.5,-370.03"/>
</g>
<!-- 2016 -->
<g id="node7" class="node">
<title>2016</title>
<text text-anchor="middle" x="27" y="-266.5" font-family="sans-serif" font-size="10.00" fill="darkblue">2016</text>
</g>
<!-- 2015&#45;&gt;2016 -->
<g id="edge6" class="edge">
<title>2015&#45;&gt;2016</title>
<path fill="none" stroke="darkblue" d="M27,-323.81C27,-315.79 27,-306.05 27,-297.07"/>
<polygon fill="darkblue" stroke="darkblue" points="30.5,-297.03 27,-287.03 23.5,-297.03 30.5,-297.03"/>
</g>
<!-- 2017 -->
<g id="node8" class="node">
<title>2017</title>
<text text-anchor="middle" x="27" y="-183.5" font-family="sans-serif" font-size="10.00" fill="darkblue">2017</text>
</g>
<!-- 2016&#45;&gt;2017 -->
<g id="edge7" class="edge">
<title>2016&#45;&gt;2017</title>
<path fill="none" stroke="darkblue" d="M27,-250.82C27,-240.19 27,-226.31 27,-214.2"/>
<polygon fill="darkblue" stroke="darkblue" points="30.5,-214.15 27,-204.15 23.5,-214.15 30.5,-214.15"/>
</g>
<!-- 2018 -->
<g id="node9" class="node">
<title>2018</title>
<text text-anchor="middle" x="27" y="-110.5" font-family="sans-serif" font-size="10.00" fill="darkblue">2018</text>
</g>
<!-- 2017&#45;&gt;2018 -->
<g id="edge8" class="edge">
<title>2017&#45;&gt;2018</title>
<path fill="none" stroke="darkblue" d="M27,-167.81C27,-159.79 27,-150.05 27,-141.07"/>
<polygon fill="darkblue" stroke="darkblue" points="30.5,-141.03 27,-131.03 23.5,-141.03 30.5,-141.03"/>
</g>
<!-- 2019 -->
<g id="node10" class="node">
<title>2019</title>
<text text-anchor="middle" x="27" y="-31.5" font-family="sans-serif" font-size="10.00" fill="darkblue">2019</text>
</g>
<!-- 2018&#45;&gt;2019 -->
<g id="edge9" class="edge">
<title>2018&#45;&gt;2019</title>
<path fill="none" stroke="darkblue" d="M27,-94.91C27,-85.34 27,-73.18 27,-62.32"/>
<polygon fill="darkblue" stroke="darkblue" points="30.5,-62.04 27,-52.04 23.5,-62.04 30.5,-62.04"/>
</g>
<!-- Reinforcement Learning -->
<g id="node11" class="node">
<title>Reinforcement Learning</title>
<path fill="#ffe6cc" stroke="black" stroke-width="2" d="M1528.5,-992C1528.5,-992 1407.5,-992 1407.5,-992 1401.5,-992 1395.5,-986 1395.5,-980 1395.5,-980 1395.5,-968 1395.5,-968 1395.5,-962 1401.5,-956 1407.5,-956 1407.5,-956 1528.5,-956 1528.5,-956 1534.5,-956 1540.5,-962 1540.5,-968 1540.5,-968 1540.5,-980 1540.5,-980 1540.5,-986 1534.5,-992 1528.5,-992"/>
<text text-anchor="middle" x="1468" y="-970.9" font-family="sans-serif" font-size="12.00">Reinforcement Learning</text>
</g>
<!-- Model Free -->
<g id="node12" class="node">
<title>Model Free</title>
<path fill="#ffe6cc" stroke="black" stroke-width="2" d="M954.5,-895C954.5,-895 901.5,-895 901.5,-895 895.5,-895 889.5,-889 889.5,-883 889.5,-883 889.5,-871 889.5,-871 889.5,-865 895.5,-859 901.5,-859 901.5,-859 954.5,-859 954.5,-859 960.5,-859 966.5,-865 966.5,-871 966.5,-871 966.5,-883 966.5,-883 966.5,-889 960.5,-895 954.5,-895"/>
<text text-anchor="middle" x="928" y="-873.9" font-family="sans-serif" font-size="12.00">Model Free</text>
</g>
<!-- Reinforcement Learning&#45;&gt;Model Free -->
<g id="edge69" class="edge">
<title>Reinforcement Learning&#45;&gt;Model Free</title>
<path fill="none" stroke="black" d="M1395.33,-965.61C1328.02,-958.22 1225.31,-945.59 1137,-929 1081.44,-918.56 1018.51,-902.64 976.36,-891.36"/>
<polygon fill="black" stroke="black" points="977.2,-887.96 966.63,-888.75 975.38,-894.72 977.2,-887.96"/>
</g>
<!-- Model Based -->
<g id="node44" class="node">
<title>Model Based</title>
<path fill="#ffe6cc" stroke="black" stroke-width="2" d="M1499.5,-895C1499.5,-895 1436.5,-895 1436.5,-895 1430.5,-895 1424.5,-889 1424.5,-883 1424.5,-883 1424.5,-871 1424.5,-871 1424.5,-865 1430.5,-859 1436.5,-859 1436.5,-859 1499.5,-859 1499.5,-859 1505.5,-859 1511.5,-865 1511.5,-871 1511.5,-871 1511.5,-883 1511.5,-883 1511.5,-889 1505.5,-895 1499.5,-895"/>
<text text-anchor="middle" x="1468" y="-873.9" font-family="sans-serif" font-size="12.00">Model Based</text>
</g>
<!-- Reinforcement Learning&#45;&gt;Model Based -->
<g id="edge70" class="edge">
<title>Reinforcement Learning&#45;&gt;Model Based</title>
<path fill="none" stroke="black" d="M1468,-955.58C1468,-941.65 1468,-921.86 1468,-905.76"/>
<polygon fill="black" stroke="black" points="1471.5,-905.31 1468,-895.31 1464.5,-905.31 1471.5,-905.31"/>
</g>
<!-- Meta&#45;RL -->
<g id="node55" class="node">
<title>Meta&#45;RL</title>
<path fill="#ffe6cc" stroke="black" stroke-width="2" d="M1723,-895C1723,-895 1685,-895 1685,-895 1679,-895 1673,-889 1673,-883 1673,-883 1673,-871 1673,-871 1673,-865 1679,-859 1685,-859 1685,-859 1723,-859 1723,-859 1729,-859 1735,-865 1735,-871 1735,-871 1735,-883 1735,-883 1735,-889 1729,-895 1723,-895"/>
<text text-anchor="middle" x="1704" y="-873.9" font-family="sans-serif" font-size="12.00">Meta&#45;RL</text>
</g>
<!-- Reinforcement Learning&#45;&gt;Meta&#45;RL -->
<g id="edge71" class="edge">
<title>Reinforcement Learning&#45;&gt;Meta&#45;RL</title>
<path fill="none" stroke="black" d="M1519.79,-955.97C1542.44,-948.21 1569.22,-938.62 1593,-929 1616.7,-919.41 1642.69,-907.54 1663.56,-897.67"/>
<polygon fill="black" stroke="black" points="1665.23,-900.75 1672.76,-893.29 1662.23,-894.43 1665.23,-900.75"/>
</g>
<!-- Value Gradient -->
<g id="node13" class="node">
<title>Value Gradient</title>
<path fill="#ffe6cc" stroke="black" stroke-width="2" d="M963.5,-798C963.5,-798 892.5,-798 892.5,-798 886.5,-798 880.5,-792 880.5,-786 880.5,-786 880.5,-774 880.5,-774 880.5,-768 886.5,-762 892.5,-762 892.5,-762 963.5,-762 963.5,-762 969.5,-762 975.5,-768 975.5,-774 975.5,-774 975.5,-786 975.5,-786 975.5,-792 969.5,-798 963.5,-798"/>
<text text-anchor="middle" x="928" y="-776.9" font-family="sans-serif" font-size="12.00">Value Gradient</text>
</g>
<!-- Model Free&#45;&gt;Value Gradient -->
<g id="edge10" class="edge">
<title>Model Free&#45;&gt;Value Gradient</title>
<path fill="none" stroke="black" d="M928,-858.58C928,-844.65 928,-824.86 928,-808.76"/>
<polygon fill="black" stroke="black" points="931.5,-808.31 928,-798.31 924.5,-808.31 931.5,-808.31"/>
</g>
<!-- Policy Gradient/Actor&#45;Critic -->
<g id="node14" class="node">
<title>Policy Gradient/Actor&#45;Critic</title>
<path fill="#ffe6cc" stroke="black" stroke-width="2" d="M545.5,-798C545.5,-798 408.5,-798 408.5,-798 402.5,-798 396.5,-792 396.5,-786 396.5,-786 396.5,-774 396.5,-774 396.5,-768 402.5,-762 408.5,-762 408.5,-762 545.5,-762 545.5,-762 551.5,-762 557.5,-768 557.5,-774 557.5,-774 557.5,-786 557.5,-786 557.5,-792 551.5,-798 545.5,-798"/>
<text text-anchor="middle" x="477" y="-776.9" font-family="sans-serif" font-size="12.00">Policy Gradient/Actor&#45;Critic</text>
</g>
<!-- Model Free&#45;&gt;Policy Gradient/Actor&#45;Critic -->
<g id="edge11" class="edge">
<title>Model Free&#45;&gt;Policy Gradient/Actor&#45;Critic</title>
<path fill="none" stroke="black" d="M889.16,-867.82C818.2,-852.87 665.89,-820.79 567.62,-800.09"/>
<polygon fill="black" stroke="black" points="568.2,-796.63 557.69,-798 566.75,-803.48 568.2,-796.63"/>
</g>
<!-- SARSA -->
<g id="node22" class="node">
<title>SARSA</title>
<path fill="#dae8fc" stroke="black" stroke-width="2" d="M929.5,-579C929.5,-579 894.5,-579 894.5,-579 888.5,-579 882.5,-573 882.5,-567 882.5,-567 882.5,-555 882.5,-555 882.5,-549 888.5,-543 894.5,-543 894.5,-543 929.5,-543 929.5,-543 935.5,-543 941.5,-549 941.5,-555 941.5,-555 941.5,-567 941.5,-567 941.5,-573 935.5,-579 929.5,-579"/>
<text text-anchor="middle" x="912" y="-557.9" font-family="sans-serif" font-size="12.00">SARSA</text>
</g>
<!-- Value Gradient&#45;&gt;SARSA -->
<g id="edge16" class="edge">
<title>Value Gradient&#45;&gt;SARSA</title>
<path fill="none" stroke="black" d="M926.31,-761.98C925.29,-751.36 923.99,-737.39 923,-725 919.18,-677.25 915.61,-621.55 913.63,-589.18"/>
<polygon fill="black" stroke="black" points="917.12,-588.91 913.02,-579.14 910.13,-589.34 917.12,-588.91"/>
</g>
<!-- Q&#45;learning -->
<g id="node23" class="node">
<title>Q&#45;learning</title>
<path fill="#dae8fc" stroke="black" stroke-width="2" d="M992.5,-725C992.5,-725 943.5,-725 943.5,-725 937.5,-725 931.5,-719 931.5,-713 931.5,-713 931.5,-701 931.5,-701 931.5,-695 937.5,-689 943.5,-689 943.5,-689 992.5,-689 992.5,-689 998.5,-689 1004.5,-695 1004.5,-701 1004.5,-701 1004.5,-713 1004.5,-713 1004.5,-719 998.5,-725 992.5,-725"/>
<text text-anchor="middle" x="968" y="-703.9" font-family="sans-serif" font-size="12.00">Q&#45;learning</text>
</g>
<!-- Value Gradient&#45;&gt;Q&#45;learning -->
<g id="edge17" class="edge">
<title>Value Gradient&#45;&gt;Q&#45;learning</title>
<path fill="none" stroke="black" d="M937.68,-761.81C942.4,-753.44 948.17,-743.2 953.41,-733.9"/>
<polygon fill="black" stroke="black" points="956.55,-735.46 958.41,-725.03 950.45,-732.02 956.55,-735.46"/>
</g>
<!-- A3C -->
<g id="node20" class="node">
<title>A3C</title>
<path fill="#dae8fc" stroke="black" stroke-width="2" d="M554,-287C554,-287 524,-287 524,-287 518,-287 512,-281 512,-275 512,-275 512,-263 512,-263 512,-257 518,-251 524,-251 524,-251 554,-251 554,-251 560,-251 566,-257 566,-263 566,-263 566,-275 566,-275 566,-281 560,-287 554,-287"/>
<text text-anchor="middle" x="539" y="-265.9" font-family="sans-serif" font-size="12.00">A3C</text>
</g>
<!-- Policy Gradient/Actor&#45;Critic&#45;&gt;A3C -->
<g id="edge35" class="edge">
<title>Policy Gradient/Actor&#45;Critic&#45;&gt;A3C</title>
<path fill="none" stroke="black" d="M497.5,-761.95C510.92,-748.79 526,-729.27 526,-708 526,-708 526,-708 526,-341 526,-326.27 528.74,-310.09 531.71,-296.91"/>
<polygon fill="black" stroke="black" points="535.14,-297.6 534.09,-287.06 528.34,-295.96 535.14,-297.6"/>
</g>
<!-- REINFORCE -->
<g id="node31" class="node">
<title>REINFORCE</title>
<path fill="#dae8fc" stroke="black" stroke-width="2" d="M279.5,-652C279.5,-652 214.5,-652 214.5,-652 208.5,-652 202.5,-646 202.5,-640 202.5,-640 202.5,-628 202.5,-628 202.5,-622 208.5,-616 214.5,-616 214.5,-616 279.5,-616 279.5,-616 285.5,-616 291.5,-622 291.5,-628 291.5,-628 291.5,-640 291.5,-640 291.5,-646 285.5,-652 279.5,-652"/>
<text text-anchor="middle" x="247" y="-630.9" font-family="sans-serif" font-size="12.00">REINFORCE</text>
</g>
<!-- Policy Gradient/Actor&#45;Critic&#45;&gt;REINFORCE -->
<g id="edge31" class="edge">
<title>Policy Gradient/Actor&#45;Critic&#45;&gt;REINFORCE</title>
<path fill="none" stroke="black" d="M396.32,-769.11C359.41,-763.27 320.66,-754.88 306,-744 278.66,-723.72 262.58,-686.88 254.28,-661.69"/>
<polygon fill="black" stroke="black" points="257.59,-660.53 251.29,-652.01 250.9,-662.6 257.59,-660.53"/>
</g>
<!-- DPG -->
<g id="node32" class="node">
<title>DPG</title>
<path fill="#dae8fc" stroke="black" stroke-width="2" d="M198,-433C198,-433 168,-433 168,-433 162,-433 156,-427 156,-421 156,-421 156,-409 156,-409 156,-403 162,-397 168,-397 168,-397 198,-397 198,-397 204,-397 210,-403 210,-409 210,-409 210,-421 210,-421 210,-427 204,-433 198,-433"/>
<text text-anchor="middle" x="183" y="-411.9" font-family="sans-serif" font-size="12.00">DPG</text>
</g>
<!-- Policy Gradient/Actor&#45;Critic&#45;&gt;DPG -->
<g id="edge32" class="edge">
<title>Policy Gradient/Actor&#45;Critic&#45;&gt;DPG</title>
<path fill="none" stroke="black" d="M396.27,-775.21C309.24,-768.85 183,-752.04 183,-708 183,-708 183,-708 183,-487 183,-472.65 183,-456.67 183,-443.51"/>
<polygon fill="black" stroke="black" points="186.5,-443.22 183,-433.22 179.5,-443.22 186.5,-443.22"/>
</g>
<!-- TRPO -->
<g id="node33" class="node">
<title>TRPO</title>
<path fill="#dae8fc" stroke="black" stroke-width="2" d="M372,-360C372,-360 342,-360 342,-360 336,-360 330,-354 330,-348 330,-348 330,-336 330,-336 330,-330 336,-324 342,-324 342,-324 372,-324 372,-324 378,-324 384,-330 384,-336 384,-336 384,-348 384,-348 384,-354 378,-360 372,-360"/>
<text text-anchor="middle" x="357" y="-338.9" font-family="sans-serif" font-size="12.00">TRPO</text>
</g>
<!-- Policy Gradient/Actor&#45;Critic&#45;&gt;TRPO -->
<g id="edge33" class="edge">
<title>Policy Gradient/Actor&#45;Critic&#45;&gt;TRPO</title>
<path fill="none" stroke="black" d="M438.43,-761.75C418.37,-749.91 398,-731.97 398,-708 398,-708 398,-708 398,-414 398,-397.19 389.27,-380.77 379.87,-367.97"/>
<polygon fill="black" stroke="black" points="382.61,-365.8 373.68,-360.11 377.11,-370.13 382.61,-365.8"/>
</g>
<!-- GAE -->
<g id="node34" class="node">
<title>GAE</title>
<path fill="#dae8fc" stroke="black" stroke-width="2" d="M462,-360C462,-360 432,-360 432,-360 426,-360 420,-354 420,-348 420,-348 420,-336 420,-336 420,-330 426,-324 432,-324 432,-324 462,-324 462,-324 468,-324 474,-330 474,-336 474,-336 474,-348 474,-348 474,-354 468,-360 462,-360"/>
<text text-anchor="middle" x="447" y="-338.9" font-family="sans-serif" font-size="12.00">GAE</text>
</g>
<!-- Policy Gradient/Actor&#45;Critic&#45;&gt;GAE -->
<g id="edge34" class="edge">
<title>Policy Gradient/Actor&#45;Critic&#45;&gt;GAE</title>
<path fill="none" stroke="black" d="M470.48,-761.77C465.68,-747.56 460,-726.76 460,-708 460,-708 460,-708 460,-414 460,-399.27 457.26,-383.09 454.29,-369.91"/>
<polygon fill="black" stroke="black" points="457.66,-368.96 451.91,-360.06 450.86,-370.6 457.66,-368.96"/>
</g>
<!-- ACKTR -->
<g id="node35" class="node">
<title>ACKTR</title>
<path fill="#dae8fc" stroke="black" stroke-width="2" d="M631.5,-204C631.5,-204 596.5,-204 596.5,-204 590.5,-204 584.5,-198 584.5,-192 584.5,-192 584.5,-180 584.5,-180 584.5,-174 590.5,-168 596.5,-168 596.5,-168 631.5,-168 631.5,-168 637.5,-168 643.5,-174 643.5,-180 643.5,-180 643.5,-192 643.5,-192 643.5,-198 637.5,-204 631.5,-204"/>
<text text-anchor="middle" x="614" y="-182.9" font-family="sans-serif" font-size="12.00">ACKTR</text>
</g>
<!-- Policy Gradient/Actor&#45;Critic&#45;&gt;ACKTR -->
<g id="edge36" class="edge">
<title>Policy Gradient/Actor&#45;Critic&#45;&gt;ACKTR</title>
<path fill="none" stroke="black" d="M542.15,-761.92C566.79,-751.2 589,-734.25 589,-708 589,-708 589,-708 589,-268 589,-249.29 595.17,-229.18 601.38,-213.68"/>
<polygon fill="black" stroke="black" points="604.71,-214.8 605.4,-204.22 598.26,-212.06 604.71,-214.8"/>
</g>
<!-- SVPG -->
<g id="node36" class="node">
<title>SVPG</title>
<path fill="#dae8fc" stroke="black" stroke-width="2" d="M704,-204C704,-204 674,-204 674,-204 668,-204 662,-198 662,-192 662,-192 662,-180 662,-180 662,-174 668,-168 674,-168 674,-168 704,-168 704,-168 710,-168 716,-174 716,-180 716,-180 716,-192 716,-192 716,-198 710,-204 704,-204"/>
<text text-anchor="middle" x="689" y="-182.9" font-family="sans-serif" font-size="12.00">SVPG</text>
</g>
<!-- Policy Gradient/Actor&#45;Critic&#45;&gt;SVPG -->
<g id="edge37" class="edge">
<title>Policy Gradient/Actor&#45;Critic&#45;&gt;SVPG</title>
<path fill="none" stroke="black" d="M557.56,-773.56C599.03,-765.88 641,-748.18 641,-708 641,-708 641,-708 641,-268 641,-247.17 652.89,-227.01 664.83,-212.02"/>
<polygon fill="black" stroke="black" points="667.62,-214.14 671.4,-204.24 662.27,-209.62 667.62,-214.14"/>
</g>
<!-- SAC -->
<g id="node37" class="node">
<title>SAC</title>
<path fill="#dae8fc" stroke="black" stroke-width="2" d="M414,-131C414,-131 384,-131 384,-131 378,-131 372,-125 372,-119 372,-119 372,-107 372,-107 372,-101 378,-95 384,-95 384,-95 414,-95 414,-95 420,-95 426,-101 426,-107 426,-107 426,-119 426,-119 426,-125 420,-131 414,-131"/>
<text text-anchor="middle" x="399" y="-109.9" font-family="sans-serif" font-size="12.00">SAC</text>
</g>
<!-- Policy Gradient/Actor&#45;Critic&#45;&gt;SAC -->
<g id="edge38" class="edge">
<title>Policy Gradient/Actor&#45;Critic&#45;&gt;SAC</title>
<path fill="none" stroke="black" d="M483.14,-761.74C487.65,-747.51 493,-726.7 493,-708 493,-708 493,-708 493,-305 493,-280.9 500.63,-271.53 488,-251 467.38,-217.5 434.65,-236.85 413,-204 400.8,-185.48 397.76,-160.24 397.51,-141.2"/>
<polygon fill="black" stroke="black" points="401.01,-141.11 397.63,-131.07 394.02,-141.03 401.01,-141.11"/>
</g>
<!-- IMPALA -->
<g id="node38" class="node">
<title>IMPALA</title>
<path fill="#dae8fc" stroke="black" stroke-width="2" d="M333.5,-131C333.5,-131 298.5,-131 298.5,-131 292.5,-131 286.5,-125 286.5,-119 286.5,-119 286.5,-107 286.5,-107 286.5,-101 292.5,-95 298.5,-95 298.5,-95 333.5,-95 333.5,-95 339.5,-95 345.5,-101 345.5,-107 345.5,-107 345.5,-119 345.5,-119 345.5,-125 339.5,-131 333.5,-131"/>
<text text-anchor="middle" x="316" y="-109.9" font-family="sans-serif" font-size="12.00">IMPALA</text>
</g>
<!-- Policy Gradient/Actor&#45;Critic&#45;&gt;IMPALA -->
<g id="edge39" class="edge">
<title>Policy Gradient/Actor&#45;Critic&#45;&gt;IMPALA</title>
<path fill="none" stroke="black" d="M396.43,-774.03C354.14,-766.56 311,-748.91 311,-708 311,-708 311,-708 311,-185 311,-170.62 312.03,-154.63 313.16,-141.48"/>
<polygon fill="black" stroke="black" points="316.68,-141.47 314.11,-131.19 309.71,-140.83 316.68,-141.47"/>
</g>
<!-- DQN -->
<g id="node15" class="node">
<title>DQN</title>
<path fill="#dae8fc" stroke="black" stroke-width="2" d="M983,-506C983,-506 953,-506 953,-506 947,-506 941,-500 941,-494 941,-494 941,-482 941,-482 941,-476 947,-470 953,-470 953,-470 983,-470 983,-470 989,-470 995,-476 995,-482 995,-482 995,-494 995,-494 995,-500 989,-506 983,-506"/>
<text text-anchor="middle" x="968" y="-484.9" font-family="sans-serif" font-size="12.00">DQN</text>
</g>
<!-- DDPG -->
<g id="node16" class="node">
<title>DDPG</title>
<path fill="#dae8fc" stroke="black" stroke-width="2" d="M198,-360C198,-360 168,-360 168,-360 162,-360 156,-354 156,-348 156,-348 156,-336 156,-336 156,-330 162,-324 168,-324 168,-324 198,-324 198,-324 204,-324 210,-330 210,-336 210,-336 210,-348 210,-348 210,-354 204,-360 198,-360"/>
<text text-anchor="middle" x="183" y="-338.9" font-family="sans-serif" font-size="12.00">DDPG</text>
</g>
<!-- DQN&#45;&gt;DDPG -->
<g id="edge12" class="edge">
<title>DQN&#45;&gt;DDPG</title>
<path fill="none" stroke="darkgray" stroke-dasharray="5,2" d="M940.98,-482.04C823.4,-460.47 356.13,-374.76 220.25,-349.83"/>
<polygon fill="darkgray" stroke="darkgray" points="220.78,-346.37 210.31,-348.01 219.52,-353.26 220.78,-346.37"/>
<text text-anchor="middle" x="693.5" y="-412.5" font-family="sans-serif" font-size="10.00" fill="darkgray">replay buffer</text>
</g>
<!-- ACER -->
<g id="node17" class="node">
<title>ACER</title>
<path fill="#dae8fc" stroke="black" stroke-width="2" d="M554,-204C554,-204 524,-204 524,-204 518,-204 512,-198 512,-192 512,-192 512,-180 512,-180 512,-174 518,-168 524,-168 524,-168 554,-168 554,-168 560,-168 566,-174 566,-180 566,-180 566,-192 566,-192 566,-198 560,-204 554,-204"/>
<text text-anchor="middle" x="539" y="-182.9" font-family="sans-serif" font-size="12.00">ACER</text>
</g>
<!-- DQN&#45;&gt;ACER -->
<g id="edge13" class="edge">
<title>DQN&#45;&gt;ACER</title>
<path fill="none" stroke="darkgray" stroke-dasharray="5,2" d="M940.85,-485.44C877.26,-481.25 721.23,-467.59 684,-433 678.23,-427.64 679,-423.88 679,-416 679,-416 679,-416 679,-268 679,-256.02 616.83,-224.04 575.35,-204.03"/>
<polygon fill="darkgray" stroke="darkgray" points="576.86,-200.87 566.33,-199.71 573.83,-207.19 576.86,-200.87"/>
<text text-anchor="middle" x="706.5" y="-339.5" font-family="sans-serif" font-size="10.00" fill="darkgray">replay buffer</text>
</g>
<!-- DDQN -->
<g id="node18" class="node">
<title>DDQN</title>
<path fill="#dae8fc" stroke="black" stroke-width="2" d="M947,-360C947,-360 917,-360 917,-360 911,-360 905,-354 905,-348 905,-348 905,-336 905,-336 905,-330 911,-324 917,-324 917,-324 947,-324 947,-324 953,-324 959,-330 959,-336 959,-336 959,-348 959,-348 959,-354 953,-360 947,-360"/>
<text text-anchor="middle" x="932" y="-338.9" font-family="sans-serif" font-size="12.00">DDQN</text>
</g>
<!-- DQN&#45;&gt;DDQN -->
<g id="edge20" class="edge">
<title>DQN&#45;&gt;DDQN</title>
<path fill="none" stroke="black" d="M963.73,-469.92C957.56,-445.23 946.09,-399.35 938.76,-370.04"/>
<polygon fill="black" stroke="black" points="942.09,-368.91 936.27,-360.06 935.3,-370.61 942.09,-368.91"/>
</g>
<!-- DRQN -->
<g id="node24" class="node">
<title>DRQN</title>
<path fill="#dae8fc" stroke="black" stroke-width="2" d="M875,-360C875,-360 845,-360 845,-360 839,-360 833,-354 833,-348 833,-348 833,-336 833,-336 833,-330 839,-324 845,-324 845,-324 875,-324 875,-324 881,-324 887,-330 887,-336 887,-336 887,-348 887,-348 887,-354 881,-360 875,-360"/>
<text text-anchor="middle" x="860" y="-338.9" font-family="sans-serif" font-size="12.00">DRQN</text>
</g>
<!-- DQN&#45;&gt;DRQN -->
<g id="edge19" class="edge">
<title>DQN&#45;&gt;DRQN</title>
<path fill="none" stroke="black" d="M955.19,-469.92C936.27,-444.69 900.75,-397.33 878.85,-368.14"/>
<polygon fill="black" stroke="black" points="881.6,-365.96 872.8,-360.06 876,-370.16 881.6,-365.96"/>
</g>
<!-- PER -->
<g id="node25" class="node">
<title>PER</title>
<path fill="#dae8fc" stroke="black" stroke-width="2" d="M1019,-360C1019,-360 989,-360 989,-360 983,-360 977,-354 977,-348 977,-348 977,-336 977,-336 977,-330 983,-324 989,-324 989,-324 1019,-324 1019,-324 1025,-324 1031,-330 1031,-336 1031,-336 1031,-348 1031,-348 1031,-354 1025,-360 1019,-360"/>
<text text-anchor="middle" x="1004" y="-338.9" font-family="sans-serif" font-size="12.00">PER</text>
</g>
<!-- DQN&#45;&gt;PER -->
<g id="edge21" class="edge">
<title>DQN&#45;&gt;PER</title>
<path fill="none" stroke="black" d="M972.27,-469.92C978.44,-445.23 989.91,-399.35 997.24,-370.04"/>
<polygon fill="black" stroke="black" points="1000.7,-370.61 999.73,-360.06 993.91,-368.91 1000.7,-370.61"/>
</g>
<!-- QR&#45;DQN -->
<g id="node26" class="node">
<title>QR&#45;DQN</title>
<path fill="#dae8fc" stroke="black" stroke-width="2" d="M807.5,-204C807.5,-204 766.5,-204 766.5,-204 760.5,-204 754.5,-198 754.5,-192 754.5,-192 754.5,-180 754.5,-180 754.5,-174 760.5,-168 766.5,-168 766.5,-168 807.5,-168 807.5,-168 813.5,-168 819.5,-174 819.5,-180 819.5,-180 819.5,-192 819.5,-192 819.5,-198 813.5,-204 807.5,-204"/>
<text text-anchor="middle" x="787" y="-182.9" font-family="sans-serif" font-size="12.00">QR&#45;DQN</text>
</g>
<!-- DQN&#45;&gt;QR&#45;DQN -->
<g id="edge22" class="edge">
<title>DQN&#45;&gt;QR&#45;DQN</title>
<path fill="none" stroke="black" d="M940.98,-472.61C906.55,-452.58 848.57,-412.72 824,-360 798,-304.2 833.31,-279.76 812,-222 810.84,-218.85 809.31,-215.72 807.58,-212.71"/>
<polygon fill="black" stroke="black" points="810.37,-210.57 801.97,-204.11 804.5,-214.4 810.37,-210.57"/>
</g>
<!-- C51 -->
<g id="node27" class="node">
<title>C51</title>
<path fill="#dae8fc" stroke="black" stroke-width="2" d="M989,-204C989,-204 959,-204 959,-204 953,-204 947,-198 947,-192 947,-192 947,-180 947,-180 947,-174 953,-168 959,-168 959,-168 989,-168 989,-168 995,-168 1001,-174 1001,-180 1001,-180 1001,-192 1001,-192 1001,-198 995,-204 989,-204"/>
<text text-anchor="middle" x="974" y="-182.9" font-family="sans-serif" font-size="12.00">C51</text>
</g>
<!-- DQN&#45;&gt;C51 -->
<g id="edge23" class="edge">
<title>DQN&#45;&gt;C51</title>
<path fill="none" stroke="black" d="M995.3,-476.62C1019.16,-465.57 1050,-445.56 1050,-416 1050,-416 1050,-416 1050,-268 1050,-242.18 1029.22,-221.22 1009.39,-207.09"/>
<polygon fill="black" stroke="black" points="1011.26,-204.13 1001.01,-201.46 1007.36,-209.94 1011.26,-204.13"/>
</g>
<!-- DQN+HER -->
<g id="node28" class="node">
<title>DQN+HER</title>
<path fill="#dae8fc" stroke="black" stroke-width="2" d="M1084.5,-204C1084.5,-204 1031.5,-204 1031.5,-204 1025.5,-204 1019.5,-198 1019.5,-192 1019.5,-192 1019.5,-180 1019.5,-180 1019.5,-174 1025.5,-168 1031.5,-168 1031.5,-168 1084.5,-168 1084.5,-168 1090.5,-168 1096.5,-174 1096.5,-180 1096.5,-180 1096.5,-192 1096.5,-192 1096.5,-198 1090.5,-204 1084.5,-204"/>
<text text-anchor="middle" x="1058" y="-182.9" font-family="sans-serif" font-size="12.00">DQN+HER</text>
</g>
<!-- DQN&#45;&gt;DQN+HER -->
<g id="edge24" class="edge">
<title>DQN&#45;&gt;DQN+HER</title>
<path fill="none" stroke="black" d="M995.07,-480.69C1025.28,-471.84 1070,-452.57 1070,-416 1070,-416 1070,-416 1070,-268 1070,-249.98 1067.06,-229.95 1064.09,-214.31"/>
<polygon fill="black" stroke="black" points="1067.47,-213.38 1062.06,-204.27 1060.61,-214.77 1067.47,-213.38"/>
</g>
<!-- IQN -->
<g id="node29" class="node">
<title>IQN</title>
<path fill="#dae8fc" stroke="black" stroke-width="2" d="M1105,-131C1105,-131 1075,-131 1075,-131 1069,-131 1063,-125 1063,-119 1063,-119 1063,-107 1063,-107 1063,-101 1069,-95 1075,-95 1075,-95 1105,-95 1105,-95 1111,-95 1117,-101 1117,-107 1117,-107 1117,-119 1117,-119 1117,-125 1111,-131 1105,-131"/>
<text text-anchor="middle" x="1090" y="-109.9" font-family="sans-serif" font-size="12.00">IQN</text>
</g>
<!-- DQN&#45;&gt;IQN -->
<g id="edge25" class="edge">
<title>DQN&#45;&gt;IQN</title>
<path fill="none" stroke="black" d="M995.15,-485.87C1037.87,-482.47 1116,-469.01 1116,-416 1116,-416 1116,-416 1116,-185 1116,-169.62 1110.56,-153.45 1104.65,-140.43"/>
<polygon fill="black" stroke="black" points="1107.66,-138.61 1100.13,-131.16 1101.36,-141.68 1107.66,-138.61"/>
</g>
<!-- TD3 -->
<g id="node19" class="node">
<title>TD3</title>
<path fill="#dae8fc" stroke="black" stroke-width="2" d="M597,-131C597,-131 567,-131 567,-131 561,-131 555,-125 555,-119 555,-119 555,-107 555,-107 555,-101 561,-95 567,-95 567,-95 597,-95 597,-95 603,-95 609,-101 609,-107 609,-107 609,-119 609,-119 609,-125 603,-131 597,-131"/>
<text text-anchor="middle" x="582" y="-109.9" font-family="sans-serif" font-size="12.00">TD3</text>
</g>
<!-- DDPG&#45;&gt;TD3 -->
<g id="edge44" class="edge">
<title>DDPG&#45;&gt;TD3</title>
<path fill="none" stroke="black" d="M194.97,-323.88C225.23,-280.8 303.66,-170.56 321,-160 339.84,-148.53 476.88,-128.44 544.48,-119.07"/>
<polygon fill="black" stroke="black" points="545.28,-122.5 554.71,-117.66 544.33,-115.56 545.28,-122.5"/>
</g>
<!-- DDPG+HER -->
<g id="node39" class="node">
<title>DDPG+HER</title>
<path fill="#dae8fc" stroke="black" stroke-width="2" d="M171.5,-204C171.5,-204 110.5,-204 110.5,-204 104.5,-204 98.5,-198 98.5,-192 98.5,-192 98.5,-180 98.5,-180 98.5,-174 104.5,-168 110.5,-168 110.5,-168 171.5,-168 171.5,-168 177.5,-168 183.5,-174 183.5,-180 183.5,-180 183.5,-192 183.5,-192 183.5,-198 177.5,-204 171.5,-204"/>
<text text-anchor="middle" x="141" y="-182.9" font-family="sans-serif" font-size="12.00">DDPG+HER</text>
</g>
<!-- DDPG&#45;&gt;DDPG+HER -->
<g id="edge41" class="edge">
<title>DDPG&#45;&gt;DDPG+HER</title>
<path fill="none" stroke="darkgray" stroke-dasharray="5,2" d="M178.34,-323.93C171.09,-297.34 157.03,-245.78 148.38,-214.07"/>
<polygon fill="darkgray" stroke="darkgray" points="151.68,-212.87 145.68,-204.15 144.93,-214.71 151.68,-212.87"/>
</g>
<!-- MADDPG -->
<g id="node40" class="node">
<title>MADDPG</title>
<path fill="#dae8fc" stroke="black" stroke-width="2" d="M260,-204C260,-204 214,-204 214,-204 208,-204 202,-198 202,-192 202,-192 202,-180 202,-180 202,-174 208,-168 214,-168 214,-168 260,-168 260,-168 266,-168 272,-174 272,-180 272,-180 272,-192 272,-192 272,-198 266,-204 260,-204"/>
<text text-anchor="middle" x="237" y="-182.9" font-family="sans-serif" font-size="12.00">MADDPG</text>
</g>
<!-- DDPG&#45;&gt;MADDPG -->
<g id="edge42" class="edge">
<title>DDPG&#45;&gt;MADDPG</title>
<path fill="none" stroke="black" d="M188.99,-323.93C198.35,-297.22 216.55,-245.33 227.65,-213.66"/>
<polygon fill="black" stroke="black" points="230.98,-214.74 230.99,-204.15 224.38,-212.42 230.98,-214.74"/>
</g>
<!-- D4PG -->
<g id="node41" class="node">
<title>D4PG</title>
<path fill="#dae8fc" stroke="black" stroke-width="2" d="M120,-131C120,-131 90,-131 90,-131 84,-131 78,-125 78,-119 78,-119 78,-107 78,-107 78,-101 84,-95 90,-95 90,-95 120,-95 120,-95 126,-95 132,-101 132,-107 132,-107 132,-119 132,-119 132,-125 126,-131 120,-131"/>
<text text-anchor="middle" x="105" y="-109.9" font-family="sans-serif" font-size="12.00">D4PG</text>
</g>
<!-- DDPG&#45;&gt;D4PG -->
<g id="edge43" class="edge">
<title>DDPG&#45;&gt;D4PG</title>
<path fill="none" stroke="black" d="M166.17,-323.81C143.68,-299.51 104.95,-252.64 90,-204 83.63,-183.27 88.36,-158.98 94.14,-140.86"/>
<polygon fill="black" stroke="black" points="97.51,-141.83 97.5,-131.23 90.9,-139.52 97.51,-141.83"/>
</g>
<!-- DDQN&#45;&gt;TD3 -->
<g id="edge14" class="edge">
<title>DDQN&#45;&gt;TD3</title>
<path fill="none" stroke="darkgray" stroke-dasharray="5,2" d="M904.97,-327.79C853.78,-302.51 746.77,-248.46 736,-233 717.25,-206.08 746.25,-185 725,-160 698.94,-129.34 652.34,-118.93 619.43,-115.5"/>
<polygon fill="darkgray" stroke="darkgray" points="619.54,-111.99 609.27,-114.61 618.93,-118.96 619.54,-111.99"/>
<text text-anchor="middle" x="774" y="-225" font-family="sans-serif" font-size="10.00" fill="darkgray">double Q&#45;learning</text>
</g>
<!-- RAINBOW -->
<g id="node21" class="node">
<title>RAINBOW</title>
<path fill="#dae8fc" stroke="black" stroke-width="2" d="M917,-204C917,-204 867,-204 867,-204 861,-204 855,-198 855,-192 855,-192 855,-180 855,-180 855,-174 861,-168 867,-168 867,-168 917,-168 917,-168 923,-168 929,-174 929,-180 929,-180 929,-192 929,-192 929,-198 923,-204 917,-204"/>
<text text-anchor="middle" x="892" y="-182.9" font-family="sans-serif" font-size="12.00">RAINBOW</text>
</g>
<!-- DDQN&#45;&gt;RAINBOW -->
<g id="edge27" class="edge">
<title>DDQN&#45;&gt;RAINBOW</title>
<path fill="none" stroke="darkgray" stroke-dasharray="5,2" d="M909.22,-323.88C898.47,-314.36 886.76,-301.5 881,-287 871.67,-263.54 876.39,-234.68 882.26,-214.01"/>
<polygon fill="darkgray" stroke="darkgray" points="885.65,-214.88 885.27,-204.29 878.97,-212.81 885.65,-214.88"/>
</g>
<!-- Duelling&#45;DQN -->
<g id="node30" class="node">
<title>Duelling&#45;DQN</title>
<path fill="#dae8fc" stroke="black" stroke-width="2" d="M970,-287C970,-287 902,-287 902,-287 896,-287 890,-281 890,-275 890,-275 890,-263 890,-263 890,-257 896,-251 902,-251 902,-251 970,-251 970,-251 976,-251 982,-257 982,-263 982,-263 982,-275 982,-275 982,-281 976,-287 970,-287"/>
<text text-anchor="middle" x="936" y="-265.9" font-family="sans-serif" font-size="12.00">Duelling&#45;DQN</text>
</g>
<!-- DDQN&#45;&gt;Duelling&#45;DQN -->
<g id="edge26" class="edge">
<title>DDQN&#45;&gt;Duelling&#45;DQN</title>
<path fill="none" stroke="black" d="M932.97,-323.81C933.42,-315.79 933.97,-306.05 934.47,-297.07"/>
<polygon fill="black" stroke="black" points="937.97,-297.21 935.04,-287.03 930.98,-296.82 937.97,-297.21"/>
</g>
<!-- A3C&#45;&gt;ACER -->
<g id="edge49" class="edge">
<title>A3C&#45;&gt;ACER</title>
<path fill="none" stroke="black" d="M539,-250.82C539,-240.19 539,-226.31 539,-214.2"/>
<polygon fill="black" stroke="black" points="542.5,-214.15 539,-204.15 535.5,-214.15 542.5,-214.15"/>
</g>
<!-- A3C&#45;&gt;RAINBOW -->
<g id="edge15" class="edge">
<title>A3C&#45;&gt;RAINBOW</title>
<path fill="none" stroke="darkgray" stroke-dasharray="5,2" d="M566.21,-259.86C600.28,-249.89 660.55,-232.97 713,-222 764.07,-211.32 777.96,-214.81 829,-204 834.13,-202.91 839.47,-201.66 844.77,-200.34"/>
<polygon fill="darkgray" stroke="darkgray" points="846.04,-203.63 854.85,-197.75 844.3,-196.85 846.04,-203.63"/>
</g>
<!-- A2C -->
<g id="node43" class="node">
<title>A2C</title>
<path fill="#dae8fc" stroke="black" stroke-width="2" d="M464,-204C464,-204 434,-204 434,-204 428,-204 422,-198 422,-192 422,-192 422,-180 422,-180 422,-174 428,-168 434,-168 434,-168 464,-168 464,-168 470,-168 476,-174 476,-180 476,-180 476,-192 476,-192 476,-198 470,-204 464,-204"/>
<text text-anchor="middle" x="449" y="-182.9" font-family="sans-serif" font-size="12.00">A2C</text>
</g>
<!-- A3C&#45;&gt;A2C -->
<g id="edge48" class="edge">
<title>A3C&#45;&gt;A2C</title>
<path fill="none" stroke="black" d="M519.91,-250.82C507.03,-239.22 489.84,-223.75 475.61,-210.95"/>
<polygon fill="black" stroke="black" points="477.83,-208.24 468.06,-204.15 473.15,-213.44 477.83,-208.24"/>
</g>
<!-- Q&#45;learning&#45;&gt;DQN -->
<g id="edge18" class="edge">
<title>Q&#45;learning&#45;&gt;DQN</title>
<path fill="none" stroke="black" d="M968,-688.97C968,-651.51 968,-561.68 968,-516.26"/>
<polygon fill="black" stroke="black" points="971.5,-516.25 968,-506.25 964.5,-516.25 971.5,-516.25"/>
</g>
<!-- PER&#45;&gt;RAINBOW -->
<g id="edge28" class="edge">
<title>PER&#45;&gt;RAINBOW</title>
<path fill="none" stroke="darkgray" stroke-dasharray="5,2" d="M1005.54,-323.98C1006.43,-304.73 1005.23,-273.19 991,-251 978.51,-231.52 957.73,-216.76 938.43,-206.35"/>
<polygon fill="darkgray" stroke="darkgray" points="939.91,-203.17 929.41,-201.73 936.72,-209.4 939.91,-203.17"/>
</g>
<!-- QR&#45;DQN&#45;&gt;RAINBOW -->
<g id="edge30" class="edge">
<title>QR&#45;DQN&#45;&gt;RAINBOW</title>
<path fill="none" stroke="darkgray" stroke-dasharray="5,2" d="M819.81,-186C828.1,-186 836.38,-186 844.67,-186"/>
<polygon fill="darkgray" stroke="darkgray" points="844.78,-189.5 854.78,-186 844.78,-182.5 844.78,-189.5"/>
</g>
<!-- Duelling&#45;DQN&#45;&gt;RAINBOW -->
<g id="edge29" class="edge">
<title>Duelling&#45;DQN&#45;&gt;RAINBOW</title>
<path fill="none" stroke="darkgray" stroke-dasharray="5,2" d="M926.67,-250.82C920.72,-239.87 912.89,-225.46 906.18,-213.11"/>
<polygon fill="darkgray" stroke="darkgray" points="909.17,-211.27 901.32,-204.15 903.02,-214.61 909.17,-211.27"/>
</g>
<!-- DPG&#45;&gt;DDPG -->
<g id="edge40" class="edge">
<title>DPG&#45;&gt;DDPG</title>
<path fill="none" stroke="black" d="M183,-396.81C183,-388.79 183,-379.05 183,-370.07"/>
<polygon fill="black" stroke="black" points="186.5,-370.03 183,-360.03 179.5,-370.03 186.5,-370.03"/>
</g>
<!-- TRPO&#45;&gt;ACER -->
<g id="edge46" class="edge">
<title>TRPO&#45;&gt;ACER</title>
<path fill="none" stroke="darkgray" stroke-dasharray="5,2" d="M368.1,-323.87C381.22,-304.53 404.52,-272.9 430,-251 451.99,-232.1 480.31,-215.66 502.58,-204.18"/>
<polygon fill="darkgray" stroke="darkgray" points="504.36,-207.2 511.71,-199.57 501.21,-200.95 504.36,-207.2"/>
<text text-anchor="middle" x="466.5" y="-266.5" font-family="sans-serif" font-size="10.00" fill="darkgray">TRPO technique</text>
</g>
<!-- TRPO&#45;&gt;GAE -->
<g id="edge45" class="edge">
<title>TRPO&#45;&gt;GAE</title>
<path fill="none" stroke="darkgray" stroke-dasharray="5,2" d="M384.07,-342C392.67,-342 401.27,-342 409.87,-342"/>
<polygon fill="darkgray" stroke="darkgray" points="409.96,-345.5 419.96,-342 409.96,-338.5 409.96,-345.5"/>
</g>
<!-- PPO -->
<g id="node42" class="node">
<title>PPO</title>
<path fill="#dae8fc" stroke="black" stroke-width="2" d="M372,-204C372,-204 342,-204 342,-204 336,-204 330,-198 330,-192 330,-192 330,-180 330,-180 330,-174 336,-168 342,-168 342,-168 372,-168 372,-168 378,-168 384,-174 384,-180 384,-180 384,-192 384,-192 384,-198 378,-204 372,-204"/>
<text text-anchor="middle" x="357" y="-182.9" font-family="sans-serif" font-size="12.00">PPO</text>
</g>
<!-- TRPO&#45;&gt;PPO -->
<g id="edge47" class="edge">
<title>TRPO&#45;&gt;PPO</title>
<path fill="none" stroke="darkgray" stroke-dasharray="5,2" d="M357,-323.93C357,-297.45 357,-246.22 357,-214.49"/>
<polygon fill="darkgray" stroke="darkgray" points="360.5,-214.15 357,-204.15 353.5,-214.15 360.5,-214.15"/>
</g>
<!-- PPO&#45;&gt;SAC -->
<!-- A2C&#45;&gt;ACER -->
<!-- A2C&#45;&gt;ACKTR -->
<!-- A2C&#45;&gt;SVPG -->
<!-- A2C&#45;&gt;IMPALA -->
<!-- I2A -->
<g id="node45" class="node">
<title>I2A</title>
<path fill="#dae8fc" stroke="black" stroke-width="2" d="M1191,-204C1191,-204 1161,-204 1161,-204 1155,-204 1149,-198 1149,-192 1149,-192 1149,-180 1149,-180 1149,-174 1155,-168 1161,-168 1161,-168 1191,-168 1191,-168 1197,-168 1203,-174 1203,-180 1203,-180 1203,-192 1203,-192 1203,-198 1197,-204 1191,-204"/>
<text text-anchor="middle" x="1176" y="-182.9" font-family="sans-serif" font-size="12.00">I2A</text>
</g>
<!-- Model Based&#45;&gt;I2A -->
<g id="edge55" class="edge">
<title>Model Based&#45;&gt;I2A</title>
<path fill="none" stroke="black" d="M1424.46,-869.95C1347.85,-858.06 1197,-828.61 1197,-781 1197,-781 1197,-781 1197,-268 1197,-249.41 1191.75,-229.16 1186.5,-213.57"/>
<polygon fill="black" stroke="black" points="1189.77,-212.29 1183.11,-204.05 1183.17,-214.64 1189.77,-212.29"/>
</g>
<!-- MBMF -->
<g id="node46" class="node">
<title>MBMF</title>
<path fill="#dae8fc" stroke="black" stroke-width="2" d="M1263,-204C1263,-204 1233,-204 1233,-204 1227,-204 1221,-198 1221,-192 1221,-192 1221,-180 1221,-180 1221,-174 1227,-168 1233,-168 1233,-168 1263,-168 1263,-168 1269,-168 1275,-174 1275,-180 1275,-180 1275,-192 1275,-192 1275,-198 1269,-204 1263,-204"/>
<text text-anchor="middle" x="1248" y="-182.9" font-family="sans-serif" font-size="12.00">MBMF</text>
</g>
<!-- Model Based&#45;&gt;MBMF -->
<g id="edge56" class="edge">
<title>Model Based&#45;&gt;MBMF</title>
<path fill="none" stroke="black" d="M1424.21,-867.7C1379.94,-856.47 1318,-831.71 1318,-781 1318,-781 1318,-781 1318,-268 1318,-244.31 1300.64,-224.13 1283.21,-209.83"/>
<polygon fill="black" stroke="black" points="1285.32,-207.03 1275.26,-203.69 1281.04,-212.57 1285.32,-207.03"/>
</g>
<!-- Exit -->
<g id="node47" class="node">
<title>Exit</title>
<path fill="#dae8fc" stroke="black" stroke-width="2" d="M1335,-204C1335,-204 1305,-204 1305,-204 1299,-204 1293,-198 1293,-192 1293,-192 1293,-180 1293,-180 1293,-174 1299,-168 1305,-168 1305,-168 1335,-168 1335,-168 1341,-168 1347,-174 1347,-180 1347,-180 1347,-192 1347,-192 1347,-198 1341,-204 1335,-204"/>
<text text-anchor="middle" x="1320" y="-182.9" font-family="sans-serif" font-size="12.00">Exit</text>
</g>
<!-- Model Based&#45;&gt;Exit -->
<g id="edge57" class="edge">
<title>Model Based&#45;&gt;Exit</title>
<path fill="none" stroke="black" d="M1436.12,-858.87C1410.58,-842.58 1379,-815.47 1379,-781 1379,-781 1379,-781 1379,-268 1379,-245.93 1364.51,-225.83 1349.89,-211.18"/>
<polygon fill="black" stroke="black" points="1351.98,-208.35 1342.31,-204.04 1347.18,-213.44 1351.98,-208.35"/>
</g>
<!-- AlphaZero -->
<g id="node48" class="node">
<title>AlphaZero</title>
<path fill="#dae8fc" stroke="black" stroke-width="2" d="M1426.5,-204C1426.5,-204 1377.5,-204 1377.5,-204 1371.5,-204 1365.5,-198 1365.5,-192 1365.5,-192 1365.5,-180 1365.5,-180 1365.5,-174 1371.5,-168 1377.5,-168 1377.5,-168 1426.5,-168 1426.5,-168 1432.5,-168 1438.5,-174 1438.5,-180 1438.5,-180 1438.5,-192 1438.5,-192 1438.5,-198 1432.5,-204 1426.5,-204"/>
<text text-anchor="middle" x="1402" y="-182.9" font-family="sans-serif" font-size="12.00">AlphaZero</text>
</g>
<!-- Model Based&#45;&gt;AlphaZero -->
<g id="edge58" class="edge">
<title>Model Based&#45;&gt;AlphaZero</title>
<path fill="none" stroke="black" d="M1453.08,-858.75C1438.99,-840.66 1420,-810.75 1420,-781 1420,-781 1420,-781 1420,-268 1420,-249.74 1415.59,-229.71 1411.13,-214.13"/>
<polygon fill="black" stroke="black" points="1414.35,-212.69 1408.09,-204.14 1407.65,-214.72 1414.35,-212.69"/>
</g>
<!-- MVE -->
<g id="node49" class="node">
<title>MVE</title>
<path fill="#dae8fc" stroke="black" stroke-width="2" d="M1191,-131C1191,-131 1161,-131 1161,-131 1155,-131 1149,-125 1149,-119 1149,-119 1149,-107 1149,-107 1149,-101 1155,-95 1161,-95 1161,-95 1191,-95 1191,-95 1197,-95 1203,-101 1203,-107 1203,-107 1203,-119 1203,-119 1203,-125 1197,-131 1191,-131"/>
<text text-anchor="middle" x="1176" y="-109.9" font-family="sans-serif" font-size="12.00">MVE</text>
</g>
<!-- Model Based&#45;&gt;MVE -->
<g id="edge59" class="edge">
<title>Model Based&#45;&gt;MVE</title>
<path fill="none" stroke="black" d="M1465.11,-858.9C1462.15,-839.92 1458,-808.36 1458,-781 1458,-781 1458,-781 1458,-185 1458,-173.03 1457.48,-167.3 1448,-160 1406.32,-127.88 1263.62,-145.38 1213,-131 1212.9,-130.97 1212.8,-130.94 1212.69,-130.91"/>
<polygon fill="black" stroke="black" points="1213.72,-127.56 1203.12,-127.6 1211.42,-134.18 1213.72,-127.56"/>
</g>
<!-- STEVE -->
<g id="node50" class="node">
<title>STEVE</title>
<path fill="#dae8fc" stroke="black" stroke-width="2" d="M1266.5,-131C1266.5,-131 1233.5,-131 1233.5,-131 1227.5,-131 1221.5,-125 1221.5,-119 1221.5,-119 1221.5,-107 1221.5,-107 1221.5,-101 1227.5,-95 1233.5,-95 1233.5,-95 1266.5,-95 1266.5,-95 1272.5,-95 1278.5,-101 1278.5,-107 1278.5,-107 1278.5,-119 1278.5,-119 1278.5,-125 1272.5,-131 1266.5,-131"/>
<text text-anchor="middle" x="1250" y="-109.9" font-family="sans-serif" font-size="12.00">STEVE</text>
</g>
<!-- Model Based&#45;&gt;STEVE -->
<g id="edge60" class="edge">
<title>Model Based&#45;&gt;STEVE</title>
<path fill="none" stroke="black" d="M1470.89,-858.9C1473.85,-839.92 1478,-808.36 1478,-781 1478,-781 1478,-781 1478,-185 1478,-100.3 1380.07,-149.91 1288.66,-130.39"/>
<polygon fill="black" stroke="black" points="1289.24,-126.93 1278.7,-127.97 1287.59,-133.73 1289.24,-126.93"/>
</g>
<!-- ME&#45;TRPO -->
<g id="node51" class="node">
<title>ME&#45;TRPO</title>
<path fill="#dae8fc" stroke="black" stroke-width="2" d="M1357,-131C1357,-131 1309,-131 1309,-131 1303,-131 1297,-125 1297,-119 1297,-119 1297,-107 1297,-107 1297,-101 1303,-95 1309,-95 1309,-95 1357,-95 1357,-95 1363,-95 1369,-101 1369,-107 1369,-107 1369,-119 1369,-119 1369,-125 1363,-131 1357,-131"/>
<text text-anchor="middle" x="1333" y="-109.9" font-family="sans-serif" font-size="12.00">ME&#45;TRPO</text>
</g>
<!-- Model Based&#45;&gt;ME&#45;TRPO -->
<g id="edge61" class="edge">
<title>Model Based&#45;&gt;ME&#45;TRPO</title>
<path fill="none" stroke="black" d="M1477,-858.66C1485.84,-840 1498,-809.19 1498,-781 1498,-781 1498,-781 1498,-185 1498,-167.67 1496.55,-159.81 1483,-149 1446.34,-119.73 1424.3,-143.18 1379,-131 1378.9,-130.97 1378.8,-130.95 1378.7,-130.92"/>
<polygon fill="black" stroke="black" points="1379.79,-127.59 1369.21,-128.08 1377.79,-134.3 1379.79,-127.59"/>
</g>
<!-- MB&#45;MPO -->
<g id="node52" class="node">
<title>MB&#45;MPO</title>
<path fill="#dae8fc" stroke="black" stroke-width="2" d="M1440.5,-131C1440.5,-131 1399.5,-131 1399.5,-131 1393.5,-131 1387.5,-125 1387.5,-119 1387.5,-119 1387.5,-107 1387.5,-107 1387.5,-101 1393.5,-95 1399.5,-95 1399.5,-95 1440.5,-95 1440.5,-95 1446.5,-95 1452.5,-101 1452.5,-107 1452.5,-107 1452.5,-119 1452.5,-119 1452.5,-125 1446.5,-131 1440.5,-131"/>
<text text-anchor="middle" x="1420" y="-109.9" font-family="sans-serif" font-size="12.00">MB&#45;MPO</text>
</g>
<!-- Model Based&#45;&gt;MB&#45;MPO -->
<g id="edge62" class="edge">
<title>Model Based&#45;&gt;MB&#45;MPO</title>
<path fill="none" stroke="black" d="M1488.99,-858.7C1494.21,-853.49 1499.36,-847.43 1503,-841 1516.54,-817.08 1518,-808.49 1518,-781 1518,-781 1518,-781 1518,-185 1518,-167.67 1515.23,-161.28 1503,-149 1502.14,-148.13 1482.27,-139.75 1462.2,-131.4"/>
<polygon fill="black" stroke="black" points="1463.29,-128.07 1452.72,-127.47 1460.61,-134.53 1463.29,-128.07"/>
</g>
<!-- World Models -->
<g id="node53" class="node">
<title>World Models</title>
<path fill="#dae8fc" stroke="black" stroke-width="2" d="M1549,-131C1549,-131 1483,-131 1483,-131 1477,-131 1471,-125 1471,-119 1471,-119 1471,-107 1471,-107 1471,-101 1477,-95 1483,-95 1483,-95 1549,-95 1549,-95 1555,-95 1561,-101 1561,-107 1561,-107 1561,-119 1561,-119 1561,-125 1555,-131 1549,-131"/>
<text text-anchor="middle" x="1516" y="-109.9" font-family="sans-serif" font-size="12.00">World Models</text>
</g>
<!-- Model Based&#45;&gt;World Models -->
<g id="edge63" class="edge">
<title>Model Based&#45;&gt;World Models</title>
<path fill="none" stroke="black" d="M1487.58,-858.96C1494.09,-853.27 1501.37,-846.88 1508,-841 1512.47,-837.03 1514.59,-836.92 1518,-832 1531.86,-811.99 1538,-805.35 1538,-781 1538,-781 1538,-781 1538,-185 1538,-169.78 1533.33,-153.52 1528.29,-140.4"/>
<polygon fill="black" stroke="black" points="1531.49,-138.96 1524.44,-131.05 1525.02,-141.63 1531.49,-138.96"/>
</g>
<!-- SimPLe -->
<g id="node54" class="node">
<title>SimPLe</title>
<path fill="#dae8fc" stroke="black" stroke-width="2" d="M1568.5,-52C1568.5,-52 1533.5,-52 1533.5,-52 1527.5,-52 1521.5,-46 1521.5,-40 1521.5,-40 1521.5,-28 1521.5,-28 1521.5,-22 1527.5,-16 1533.5,-16 1533.5,-16 1568.5,-16 1568.5,-16 1574.5,-16 1580.5,-22 1580.5,-28 1580.5,-28 1580.5,-40 1580.5,-40 1580.5,-46 1574.5,-52 1568.5,-52"/>
<text text-anchor="middle" x="1551" y="-30.9" font-family="sans-serif" font-size="12.00">SimPLe</text>
</g>
<!-- Model Based&#45;&gt;SimPLe -->
<g id="edge64" class="edge">
<title>Model Based&#45;&gt;SimPLe</title>
<path fill="none" stroke="black" d="M1511.62,-859.38C1543.07,-844.24 1580,-818.48 1580,-781 1580,-781 1580,-781 1580,-112 1580,-94.19 1573.12,-75.46 1566.06,-60.94"/>
<polygon fill="black" stroke="black" points="1569.17,-59.33 1561.47,-52.05 1562.95,-62.54 1569.17,-59.33"/>
</g>
<!-- DMRL -->
<g id="node56" class="node">
<title>DMRL</title>
<path fill="#dae8fc" stroke="black" stroke-width="2" d="M1647,-287C1647,-287 1617,-287 1617,-287 1611,-287 1605,-281 1605,-275 1605,-275 1605,-263 1605,-263 1605,-257 1611,-251 1617,-251 1617,-251 1647,-251 1647,-251 1653,-251 1659,-257 1659,-263 1659,-263 1659,-275 1659,-275 1659,-281 1653,-287 1647,-287"/>
<text text-anchor="middle" x="1632" y="-265.9" font-family="sans-serif" font-size="12.00">DMRL</text>
</g>
<!-- Meta&#45;RL&#45;&gt;DMRL -->
<g id="edge65" class="edge">
<title>Meta&#45;RL&#45;&gt;DMRL</title>
<path fill="none" stroke="black" d="M1689.95,-858.99C1676.42,-840.84 1658,-810.69 1658,-781 1658,-781 1658,-781 1658,-341 1658,-325.62 1652.56,-309.45 1646.65,-296.43"/>
<polygon fill="black" stroke="black" points="1649.66,-294.61 1642.13,-287.16 1643.36,-297.68 1649.66,-294.61"/>
</g>
<!-- RL^2 -->
<g id="node57" class="node">
<title>RL^2</title>
<path fill="#dae8fc" stroke="black" stroke-width="2" d="M1719,-287C1719,-287 1689,-287 1689,-287 1683,-287 1677,-281 1677,-275 1677,-275 1677,-263 1677,-263 1677,-257 1683,-251 1689,-251 1689,-251 1719,-251 1719,-251 1725,-251 1731,-257 1731,-263 1731,-263 1731,-275 1731,-275 1731,-281 1725,-287 1719,-287"/>
<text text-anchor="middle" x="1704" y="-265.9" font-family="sans-serif" font-size="12.00">RL^2</text>
</g>
<!-- Meta&#45;RL&#45;&gt;RL^2 -->
<g id="edge66" class="edge">
<title>Meta&#45;RL&#45;&gt;RL^2</title>
<path fill="none" stroke="black" d="M1704,-858.84C1704,-839.81 1704,-808.21 1704,-781 1704,-781 1704,-781 1704,-341 1704,-326.65 1704,-310.67 1704,-297.51"/>
<polygon fill="black" stroke="black" points="1707.5,-297.22 1704,-287.22 1700.5,-297.22 1707.5,-297.22"/>
</g>
<!-- MAML -->
<g id="node58" class="node">
<title>MAML</title>
<path fill="#dae8fc" stroke="black" stroke-width="2" d="M1687,-204C1687,-204 1657,-204 1657,-204 1651,-204 1645,-198 1645,-192 1645,-192 1645,-180 1645,-180 1645,-174 1651,-168 1657,-168 1657,-168 1687,-168 1687,-168 1693,-168 1699,-174 1699,-180 1699,-180 1699,-192 1699,-192 1699,-198 1693,-204 1687,-204"/>
<text text-anchor="middle" x="1672" y="-182.9" font-family="sans-serif" font-size="12.00">MAML</text>
</g>
<!-- Meta&#45;RL&#45;&gt;MAML -->
<g id="edge67" class="edge">
<title>Meta&#45;RL&#45;&gt;MAML</title>
<path fill="none" stroke="black" d="M1718.05,-858.99C1731.58,-840.84 1750,-810.69 1750,-781 1750,-781 1750,-781 1750,-268 1750,-241.69 1728.39,-220.64 1707.92,-206.6"/>
<polygon fill="black" stroke="black" points="1709.58,-203.5 1699.28,-201.01 1705.78,-209.38 1709.58,-203.5"/>
</g>
<!-- SNAIL -->
<g id="node59" class="node">
<title>SNAIL</title>
<path fill="#dae8fc" stroke="black" stroke-width="2" d="M1759,-204C1759,-204 1729,-204 1729,-204 1723,-204 1717,-198 1717,-192 1717,-192 1717,-180 1717,-180 1717,-174 1723,-168 1729,-168 1729,-168 1759,-168 1759,-168 1765,-168 1771,-174 1771,-180 1771,-180 1771,-192 1771,-192 1771,-198 1765,-204 1759,-204"/>
<text text-anchor="middle" x="1744" y="-182.9" font-family="sans-serif" font-size="12.00">SNAIL</text>
</g>
<!-- Meta&#45;RL&#45;&gt;SNAIL -->
<g id="edge68" class="edge">
<title>Meta&#45;RL&#45;&gt;SNAIL</title>
<path fill="none" stroke="black" d="M1725.61,-858.84C1744.86,-841.48 1770,-812.73 1770,-781 1770,-781 1770,-781 1770,-268 1770,-249.22 1763.59,-229.11 1757.13,-213.63"/>
<polygon fill="black" stroke="black" points="1760.2,-211.91 1752.95,-204.19 1753.8,-214.75 1760.2,-211.91"/>
</g>
</g>
</svg>
