<?xml version="1.0" encoding="UTF-8" standalone="no"?>
<!DOCTYPE svg PUBLIC "-//W3C//DTD SVG 1.1//EN"
 "http://www.w3.org/Graphics/SVG/1.1/DTD/svg11.dtd">
<!-- Generated by graphviz version 2.38.0 (20140413.2041)
 -->
<!-- Title: %3 Pages: 1 -->
<svg width="1171pt" height="835pt"
 viewBox="0.00 0.00 1171.00 835.00" xmlns="http://www.w3.org/2000/svg" xmlns:xlink="http://www.w3.org/1999/xlink">
<g id="graph0" class="graph" transform="scale(1 1) rotate(0) translate(4 831)">
<title>%3</title>
<polygon fill="white" stroke="none" points="-4,4 -4,-831 1167,-831 1167,4 -4,4"/>
<g id="clust3" class="cluster"><title>clusterPolicy Gradient/Actor&#45;Critic</title>
<polygon fill="none" stroke="black" stroke-dasharray="5,2" points="64,-8 64,-763 714,-763 714,-8 64,-8"/>
<text text-anchor="middle" x="389" y="-746.2" font-family="sans-serif" font-size="16.00">Policy Gradient/Actor&#45;Critic</text>
</g>
<g id="clust2" class="cluster"><title>clusterValue Gradient</title>
<polygon fill="none" stroke="black" stroke-dasharray="5,2" points="768,-8 768,-763 1155,-763 1155,-8 768,-8"/>
<text text-anchor="middle" x="961.5" y="-746.2" font-family="sans-serif" font-size="16.00">Value Gradient</text>
</g>
<!-- 1989 -->
<g id="node1" class="node"><title>1989</title>
<text text-anchor="middle" x="27" y="-634" font-family="sans-serif" font-size="10.00" fill="blue">1989</text>
</g>
<!-- 1992 -->
<g id="node2" class="node"><title>1992</title>
<text text-anchor="middle" x="27" y="-560" font-family="sans-serif" font-size="10.00" fill="blue">1992</text>
</g>
<!-- 1989&#45;&gt;1992 -->
<g id="edge1" class="edge"><title>1989&#45;&gt;1992</title>
<path fill="none" stroke="blue" d="M27,-618.437C27,-610.307 27,-600.376 27,-591.205"/>
<polygon fill="blue" stroke="blue" points="30.5001,-590.941 27,-580.941 23.5001,-590.941 30.5001,-590.941"/>
</g>
<!-- 1994 -->
<g id="node3" class="node"><title>1994</title>
<text text-anchor="middle" x="27" y="-486" font-family="sans-serif" font-size="10.00" fill="blue">1994</text>
</g>
<!-- 1992&#45;&gt;1994 -->
<g id="edge2" class="edge"><title>1992&#45;&gt;1994</title>
<path fill="none" stroke="blue" d="M27,-544.437C27,-536.307 27,-526.376 27,-517.205"/>
<polygon fill="blue" stroke="blue" points="30.5001,-516.941 27,-506.941 23.5001,-516.941 30.5001,-516.941"/>
</g>
<!-- 2013 -->
<g id="node4" class="node"><title>2013</title>
<text text-anchor="middle" x="27" y="-412" font-family="sans-serif" font-size="10.00" fill="blue">2013</text>
</g>
<!-- 1994&#45;&gt;2013 -->
<g id="edge3" class="edge"><title>1994&#45;&gt;2013</title>
<path fill="none" stroke="blue" d="M27,-470.437C27,-462.307 27,-452.376 27,-443.205"/>
<polygon fill="blue" stroke="blue" points="30.5001,-442.941 27,-432.941 23.5001,-442.941 30.5001,-442.941"/>
</g>
<!-- 2014 -->
<g id="node5" class="node"><title>2014</title>
<text text-anchor="middle" x="27" y="-338" font-family="sans-serif" font-size="10.00" fill="blue">2014</text>
</g>
<!-- 2013&#45;&gt;2014 -->
<g id="edge4" class="edge"><title>2013&#45;&gt;2014</title>
<path fill="none" stroke="blue" d="M27,-396.437C27,-388.307 27,-378.376 27,-369.205"/>
<polygon fill="blue" stroke="blue" points="30.5001,-368.941 27,-358.941 23.5001,-368.941 30.5001,-368.941"/>
</g>
<!-- 2015 -->
<g id="node6" class="node"><title>2015</title>
<text text-anchor="middle" x="27" y="-264" font-family="sans-serif" font-size="10.00" fill="blue">2015</text>
</g>
<!-- 2014&#45;&gt;2015 -->
<g id="edge5" class="edge"><title>2014&#45;&gt;2015</title>
<path fill="none" stroke="blue" d="M27,-322.437C27,-314.307 27,-304.376 27,-295.205"/>
<polygon fill="blue" stroke="blue" points="30.5001,-294.941 27,-284.941 23.5001,-294.941 30.5001,-294.941"/>
</g>
<!-- 2016 -->
<g id="node7" class="node"><title>2016</title>
<text text-anchor="middle" x="27" y="-190" font-family="sans-serif" font-size="10.00" fill="blue">2016</text>
</g>
<!-- 2015&#45;&gt;2016 -->
<g id="edge6" class="edge"><title>2015&#45;&gt;2016</title>
<path fill="none" stroke="blue" d="M27,-248.437C27,-240.307 27,-230.376 27,-221.205"/>
<polygon fill="blue" stroke="blue" points="30.5001,-220.941 27,-210.941 23.5001,-220.941 30.5001,-220.941"/>
</g>
<!-- 2017 -->
<g id="node8" class="node"><title>2017</title>
<text text-anchor="middle" x="27" y="-106" font-family="sans-serif" font-size="10.00" fill="blue">2017</text>
</g>
<!-- 2016&#45;&gt;2017 -->
<g id="edge7" class="edge"><title>2016&#45;&gt;2017</title>
<path fill="none" stroke="blue" d="M27,-174.11C27,-163.274 27,-149.101 27,-136.791"/>
<polygon fill="blue" stroke="blue" points="30.5001,-136.584 27,-126.584 23.5001,-136.584 30.5001,-136.584"/>
</g>
<!-- 2018 -->
<g id="node9" class="node"><title>2018</title>
<text text-anchor="middle" x="27" y="-32" font-family="sans-serif" font-size="10.00" fill="blue">2018</text>
</g>
<!-- 2017&#45;&gt;2018 -->
<g id="edge8" class="edge"><title>2017&#45;&gt;2018</title>
<path fill="none" stroke="blue" d="M27,-90.437C27,-82.3072 27,-72.3761 27,-63.2047"/>
<polygon fill="blue" stroke="blue" points="30.5001,-62.9406 27,-52.9407 23.5001,-62.9407 30.5001,-62.9406"/>
</g>
<!-- Reinforcement Learning -->
<g id="node10" class="node"><title>Reinforcement Learning</title>
<path fill="none" stroke="black" stroke-width="2" d="M560,-790.5C560,-790.5 692,-790.5 692,-790.5 698,-790.5 704,-796.5 704,-802.5 704,-802.5 704,-814.5 704,-814.5 704,-820.5 698,-826.5 692,-826.5 692,-826.5 560,-826.5 560,-826.5 554,-826.5 548,-820.5 548,-814.5 548,-814.5 548,-802.5 548,-802.5 548,-796.5 554,-790.5 560,-790.5"/>
<text text-anchor="middle" x="626" y="-805.4" font-family="sans-serif" font-size="12.00">Reinforcement Learning</text>
</g>
<!-- Value Gradient -->
<!-- Reinforcement Learning&#45;&gt;Value Gradient -->
<g id="edge52" class="edge"><title>Reinforcement Learning&#45;&gt;Value Gradient</title>
<path fill="none" stroke="black" d="M667.387,-790.448C692.876,-779.946 726.726,-765.999 758.878,-752.752"/>
<polygon fill="black" stroke="black" points="760.428,-755.899 768.341,-748.853 757.761,-749.427 760.428,-755.899"/>
</g>
<!-- Policy Gradient/Actor&#45;Critic -->
<!-- Reinforcement Learning&#45;&gt;Policy Gradient/Actor&#45;Critic -->
<g id="edge53" class="edge"><title>Reinforcement Learning&#45;&gt;Policy Gradient/Actor&#45;Critic</title>
<path fill="none" stroke="black" d="M572.356,-790.448C550.271,-783.427 523.342,-774.867 495.465,-766.006"/>
<polygon fill="black" stroke="black" points="496.162,-762.554 485.572,-762.861 494.041,-769.226 496.162,-762.554"/>
</g>
<!-- DQN -->
<g id="node11" class="node"><title>DQN</title>
<path fill="none" stroke="black" stroke-width="2" d="M928,-396.5C928,-396.5 958,-396.5 958,-396.5 964,-396.5 970,-402.5 970,-408.5 970,-408.5 970,-420.5 970,-420.5 970,-426.5 964,-432.5 958,-432.5 958,-432.5 928,-432.5 928,-432.5 922,-432.5 916,-426.5 916,-420.5 916,-420.5 916,-408.5 916,-408.5 916,-402.5 922,-396.5 928,-396.5"/>
<text text-anchor="middle" x="943" y="-411.4" font-family="sans-serif" font-size="12.00">DQN</text>
</g>
<!-- DDPG -->
<g id="node12" class="node"><title>DDPG</title>
<path fill="none" stroke="black" stroke-width="2" d="M286,-248.5C286,-248.5 316,-248.5 316,-248.5 322,-248.5 328,-254.5 328,-260.5 328,-260.5 328,-272.5 328,-272.5 328,-278.5 322,-284.5 316,-284.5 316,-284.5 286,-284.5 286,-284.5 280,-284.5 274,-278.5 274,-272.5 274,-272.5 274,-260.5 274,-260.5 274,-254.5 280,-248.5 286,-248.5"/>
<text text-anchor="middle" x="301" y="-263.4" font-family="sans-serif" font-size="12.00">DDPG</text>
</g>
<!-- DQN&#45;&gt;DDPG -->
<g id="edge9" class="edge"><title>DQN&#45;&gt;DDPG</title>
<path fill="none" stroke="darkgray" stroke-dasharray="5,2" d="M915.824,-407.32C814.005,-384.165 454.992,-302.52 338.092,-275.935"/>
<polygon fill="darkgray" stroke="darkgray" points="338.71,-272.486 328.183,-273.682 337.158,-279.312 338.71,-272.486"/>
<text text-anchor="middle" x="727.5" y="-338" font-family="sans-serif" font-size="10.00" fill="darkgray">replay buffer</text>
</g>
<!-- ACER -->
<g id="node13" class="node"><title>ACER</title>
<path fill="none" stroke="black" stroke-width="2" d="M644,-90.5C644,-90.5 674,-90.5 674,-90.5 680,-90.5 686,-96.5 686,-102.5 686,-102.5 686,-114.5 686,-114.5 686,-120.5 680,-126.5 674,-126.5 674,-126.5 644,-126.5 644,-126.5 638,-126.5 632,-120.5 632,-114.5 632,-114.5 632,-102.5 632,-102.5 632,-96.5 638,-90.5 644,-90.5"/>
<text text-anchor="middle" x="659" y="-105.4" font-family="sans-serif" font-size="12.00">ACER</text>
</g>
<!-- DQN&#45;&gt;ACER -->
<g id="edge10" class="edge"><title>DQN&#45;&gt;ACER</title>
<path fill="none" stroke="darkgray" stroke-dasharray="5,2" d="M915.623,-411.206C858.268,-405.818 728.365,-390.372 699,-359 669.287,-327.257 661.606,-195.081 659.652,-137.037"/>
<polygon fill="darkgray" stroke="darkgray" points="663.143,-136.675 659.342,-126.785 656.146,-136.887 663.143,-136.675"/>
<text text-anchor="middle" x="703.5" y="-264" font-family="sans-serif" font-size="10.00" fill="darkgray">replay buffer</text>
</g>
<!-- DDQN -->
<g id="node14" class="node"><title>DDQN</title>
<path fill="none" stroke="black" stroke-width="2" d="M928,-248.5C928,-248.5 958,-248.5 958,-248.5 964,-248.5 970,-254.5 970,-260.5 970,-260.5 970,-272.5 970,-272.5 970,-278.5 964,-284.5 958,-284.5 958,-284.5 928,-284.5 928,-284.5 922,-284.5 916,-278.5 916,-272.5 916,-272.5 916,-260.5 916,-260.5 916,-254.5 922,-248.5 928,-248.5"/>
<text text-anchor="middle" x="943" y="-263.4" font-family="sans-serif" font-size="12.00">DDQN</text>
</g>
<!-- DQN&#45;&gt;DDQN -->
<g id="edge16" class="edge"><title>DQN&#45;&gt;DDQN</title>
<path fill="none" stroke="black" d="M943,-396.466C943,-371.545 943,-324.874 943,-295.037"/>
<polygon fill="black" stroke="black" points="946.5,-294.878 943,-284.878 939.5,-294.878 946.5,-294.878"/>
</g>
<!-- DRQN -->
<g id="node19" class="node"><title>DRQN</title>
<path fill="none" stroke="black" stroke-width="2" d="M856,-248.5C856,-248.5 886,-248.5 886,-248.5 892,-248.5 898,-254.5 898,-260.5 898,-260.5 898,-272.5 898,-272.5 898,-278.5 892,-284.5 886,-284.5 886,-284.5 856,-284.5 856,-284.5 850,-284.5 844,-278.5 844,-272.5 844,-272.5 844,-260.5 844,-260.5 844,-254.5 850,-248.5 856,-248.5"/>
<text text-anchor="middle" x="871" y="-263.4" font-family="sans-serif" font-size="12.00">DRQN</text>
</g>
<!-- DQN&#45;&gt;DRQN -->
<g id="edge15" class="edge"><title>DQN&#45;&gt;DRQN</title>
<path fill="none" stroke="black" d="M934.6,-396.466C922.148,-371.217 898.686,-323.642 884.004,-293.868"/>
<polygon fill="black" stroke="black" points="887.132,-292.299 879.57,-284.878 880.854,-295.395 887.132,-292.299"/>
</g>
<!-- PER -->
<g id="node20" class="node"><title>PER</title>
<path fill="none" stroke="black" stroke-width="2" d="M1000,-248.5C1000,-248.5 1030,-248.5 1030,-248.5 1036,-248.5 1042,-254.5 1042,-260.5 1042,-260.5 1042,-272.5 1042,-272.5 1042,-278.5 1036,-284.5 1030,-284.5 1030,-284.5 1000,-284.5 1000,-284.5 994,-284.5 988,-278.5 988,-272.5 988,-272.5 988,-260.5 988,-260.5 988,-254.5 994,-248.5 1000,-248.5"/>
<text text-anchor="middle" x="1015" y="-263.4" font-family="sans-serif" font-size="12.00">PER</text>
</g>
<!-- DQN&#45;&gt;PER -->
<g id="edge17" class="edge"><title>DQN&#45;&gt;PER</title>
<path fill="none" stroke="black" d="M951.4,-396.466C963.852,-371.217 987.314,-323.642 1002,-293.868"/>
<polygon fill="black" stroke="black" points="1005.15,-295.395 1006.43,-284.878 998.868,-292.299 1005.15,-295.395"/>
</g>
<!-- QR&#45;DQN -->
<g id="node21" class="node"><title>QR&#45;DQN</title>
<path fill="none" stroke="black" stroke-width="2" d="M788.5,-90.5C788.5,-90.5 831.5,-90.5 831.5,-90.5 837.5,-90.5 843.5,-96.5 843.5,-102.5 843.5,-102.5 843.5,-114.5 843.5,-114.5 843.5,-120.5 837.5,-126.5 831.5,-126.5 831.5,-126.5 788.5,-126.5 788.5,-126.5 782.5,-126.5 776.5,-120.5 776.5,-114.5 776.5,-114.5 776.5,-102.5 776.5,-102.5 776.5,-96.5 782.5,-90.5 788.5,-90.5"/>
<text text-anchor="middle" x="810" y="-105.4" font-family="sans-serif" font-size="12.00">QR&#45;DQN</text>
</g>
<!-- DQN&#45;&gt;QR&#45;DQN -->
<g id="edge18" class="edge"><title>DQN&#45;&gt;QR&#45;DQN</title>
<path fill="none" stroke="black" d="M915.928,-409.237C881.091,-402.033 825,-383.857 825,-341.5 825,-341.5 825,-341.5 825,-191.5 825,-170.714 823.943,-165.408 820,-145 819.472,-142.265 818.834,-139.435 818.14,-136.62"/>
<polygon fill="black" stroke="black" points="821.447,-135.442 815.47,-126.695 814.688,-137.261 821.447,-135.442"/>
</g>
<!-- C51 -->
<g id="node22" class="node"><title>C51</title>
<path fill="none" stroke="black" stroke-width="2" d="M987,-90.5C987,-90.5 1017,-90.5 1017,-90.5 1023,-90.5 1029,-96.5 1029,-102.5 1029,-102.5 1029,-114.5 1029,-114.5 1029,-120.5 1023,-126.5 1017,-126.5 1017,-126.5 987,-126.5 987,-126.5 981,-126.5 975,-120.5 975,-114.5 975,-114.5 975,-102.5 975,-102.5 975,-96.5 981,-90.5 987,-90.5"/>
<text text-anchor="middle" x="1002" y="-105.4" font-family="sans-serif" font-size="12.00">C51</text>
</g>
<!-- DQN&#45;&gt;C51 -->
<g id="edge19" class="edge"><title>DQN&#45;&gt;C51</title>
<path fill="none" stroke="black" d="M970.072,-409.237C1004.91,-402.033 1061,-383.857 1061,-341.5 1061,-341.5 1061,-341.5 1061,-191.5 1061,-169.098 1046.31,-148.636 1031.59,-133.756"/>
<polygon fill="black" stroke="black" points="1033.63,-130.861 1023.97,-126.503 1028.8,-135.932 1033.63,-130.861"/>
</g>
<!-- DQN+HER -->
<g id="node23" class="node"><title>DQN+HER</title>
<path fill="none" stroke="black" stroke-width="2" d="M1059.5,-90.5C1059.5,-90.5 1114.5,-90.5 1114.5,-90.5 1120.5,-90.5 1126.5,-96.5 1126.5,-102.5 1126.5,-102.5 1126.5,-114.5 1126.5,-114.5 1126.5,-120.5 1120.5,-126.5 1114.5,-126.5 1114.5,-126.5 1059.5,-126.5 1059.5,-126.5 1053.5,-126.5 1047.5,-120.5 1047.5,-114.5 1047.5,-114.5 1047.5,-102.5 1047.5,-102.5 1047.5,-96.5 1053.5,-90.5 1059.5,-90.5"/>
<text text-anchor="middle" x="1087" y="-105.4" font-family="sans-serif" font-size="12.00">DQN+HER</text>
</g>
<!-- DQN&#45;&gt;DQN+HER -->
<g id="edge20" class="edge"><title>DQN&#45;&gt;DQN+HER</title>
<path fill="none" stroke="black" d="M970.043,-411.722C1011.24,-407.384 1085,-392.497 1085,-341.5 1085,-341.5 1085,-341.5 1085,-191.5 1085,-173.335 1085.5,-152.912 1085.99,-136.993"/>
<polygon fill="black" stroke="black" points="1089.5,-136.885 1086.33,-126.774 1082.5,-136.652 1089.5,-136.885"/>
</g>
<!-- IQN -->
<g id="node24" class="node"><title>IQN</title>
<path fill="none" stroke="black" stroke-width="2" d="M1105,-16.5C1105,-16.5 1135,-16.5 1135,-16.5 1141,-16.5 1147,-22.5 1147,-28.5 1147,-28.5 1147,-40.5 1147,-40.5 1147,-46.5 1141,-52.5 1135,-52.5 1135,-52.5 1105,-52.5 1105,-52.5 1099,-52.5 1093,-46.5 1093,-40.5 1093,-40.5 1093,-28.5 1093,-28.5 1093,-22.5 1099,-16.5 1105,-16.5"/>
<text text-anchor="middle" x="1120" y="-31.4" font-family="sans-serif" font-size="12.00">IQN</text>
</g>
<!-- DQN&#45;&gt;IQN -->
<g id="edge21" class="edge"><title>DQN&#45;&gt;IQN</title>
<path fill="none" stroke="black" d="M970.377,-409.659C1025.79,-401.115 1146,-378.333 1146,-341.5 1146,-341.5 1146,-341.5 1146,-107.5 1146,-91.6724 1140.37,-74.9888 1134.35,-61.6712"/>
<polygon fill="black" stroke="black" points="1137.49,-60.1052 1129.98,-52.629 1131.18,-63.155 1137.49,-60.1052"/>
</g>
<!-- TD3 -->
<g id="node15" class="node"><title>TD3</title>
<path fill="none" stroke="black" stroke-width="2" d="M592,-16.5C592,-16.5 622,-16.5 622,-16.5 628,-16.5 634,-22.5 634,-28.5 634,-28.5 634,-40.5 634,-40.5 634,-46.5 628,-52.5 622,-52.5 622,-52.5 592,-52.5 592,-52.5 586,-52.5 580,-46.5 580,-40.5 580,-40.5 580,-28.5 580,-28.5 580,-22.5 586,-16.5 592,-16.5"/>
<text text-anchor="middle" x="607" y="-31.4" font-family="sans-serif" font-size="12.00">TD3</text>
</g>
<!-- DDPG&#45;&gt;TD3 -->
<g id="edge41" class="edge"><title>DDPG&#45;&gt;TD3</title>
<path fill="none" stroke="black" d="M289.905,-248.451C269.106,-214.138 229.741,-136.096 269,-90 269.153,-89.8204 482.097,-55.5759 569.866,-41.4679"/>
<polygon fill="black" stroke="black" points="570.608,-44.8936 579.926,-39.8509 569.497,-37.9823 570.608,-44.8936"/>
</g>
<!-- DDPG+HER -->
<g id="node37" class="node"><title>DDPG+HER</title>
<path fill="none" stroke="black" stroke-width="2" d="M290,-90.5C290,-90.5 352,-90.5 352,-90.5 358,-90.5 364,-96.5 364,-102.5 364,-102.5 364,-114.5 364,-114.5 364,-120.5 358,-126.5 352,-126.5 352,-126.5 290,-126.5 290,-126.5 284,-126.5 278,-120.5 278,-114.5 278,-114.5 278,-102.5 278,-102.5 278,-96.5 284,-90.5 290,-90.5"/>
<text text-anchor="middle" x="321" y="-105.4" font-family="sans-serif" font-size="12.00">DDPG+HER</text>
</g>
<!-- DDPG&#45;&gt;DDPG+HER -->
<g id="edge38" class="edge"><title>DDPG&#45;&gt;DDPG+HER</title>
<path fill="none" stroke="darkgray" stroke-dasharray="5,2" d="M303.217,-248.209C306.671,-221.268 313.367,-169.04 317.484,-136.923"/>
<polygon fill="darkgray" stroke="darkgray" points="320.973,-137.232 318.773,-126.868 314.03,-136.342 320.973,-137.232"/>
</g>
<!-- MADDPG -->
<g id="node38" class="node"><title>MADDPG</title>
<path fill="none" stroke="black" stroke-width="2" d="M394.5,-90.5C394.5,-90.5 439.5,-90.5 439.5,-90.5 445.5,-90.5 451.5,-96.5 451.5,-102.5 451.5,-102.5 451.5,-114.5 451.5,-114.5 451.5,-120.5 445.5,-126.5 439.5,-126.5 439.5,-126.5 394.5,-126.5 394.5,-126.5 388.5,-126.5 382.5,-120.5 382.5,-114.5 382.5,-114.5 382.5,-102.5 382.5,-102.5 382.5,-96.5 388.5,-90.5 394.5,-90.5"/>
<text text-anchor="middle" x="417" y="-105.4" font-family="sans-serif" font-size="12.00">MADDPG</text>
</g>
<!-- DDPG&#45;&gt;MADDPG -->
<g id="edge39" class="edge"><title>DDPG&#45;&gt;MADDPG</title>
<path fill="none" stroke="black" d="M313.857,-248.209C334.239,-220.8 374.083,-167.216 397.841,-135.266"/>
<polygon fill="black" stroke="black" points="400.927,-136.981 404.085,-126.868 395.309,-132.804 400.927,-136.981"/>
</g>
<!-- D4PG -->
<g id="node39" class="node"><title>D4PG</title>
<path fill="none" stroke="black" stroke-width="2" d="M224,-16.5C224,-16.5 254,-16.5 254,-16.5 260,-16.5 266,-22.5 266,-28.5 266,-28.5 266,-40.5 266,-40.5 266,-46.5 260,-52.5 254,-52.5 254,-52.5 224,-52.5 224,-52.5 218,-52.5 212,-46.5 212,-40.5 212,-40.5 212,-28.5 212,-28.5 212,-22.5 218,-16.5 224,-16.5"/>
<text text-anchor="middle" x="239" y="-31.4" font-family="sans-serif" font-size="12.00">D4PG</text>
</g>
<!-- DDPG&#45;&gt;D4PG -->
<g id="edge40" class="edge"><title>DDPG&#45;&gt;D4PG</title>
<path fill="none" stroke="black" d="M296.34,-248.213C285.632,-208.488 259.203,-110.447 246.31,-62.6177"/>
<polygon fill="black" stroke="black" points="249.612,-61.4186 243.63,-52.6742 242.853,-63.2406 249.612,-61.4186"/>
</g>
<!-- DDQN&#45;&gt;TD3 -->
<g id="edge11" class="edge"><title>DDQN&#45;&gt;TD3</title>
<path fill="none" stroke="darkgray" stroke-dasharray="5,2" d="M915.963,-251.971C861.108,-224.427 741.367,-163.775 735,-156 710.052,-125.533 737.199,-99.4754 710,-71 692.857,-53.0525 666.227,-44.1769 644.339,-39.7885"/>
<polygon fill="darkgray" stroke="darkgray" points="644.81,-36.3175 634.354,-38.0229 643.591,-43.2106 644.81,-36.3175"/>
<text text-anchor="middle" x="777.5" y="-148" font-family="sans-serif" font-size="10.00" fill="darkgray">double Q&#45;learning</text>
</g>
<!-- Duelling&#45;DQN -->
<g id="node25" class="node"><title>Duelling&#45;DQN</title>
<path fill="none" stroke="black" stroke-width="2" d="M866,-174.5C866,-174.5 936,-174.5 936,-174.5 942,-174.5 948,-180.5 948,-186.5 948,-186.5 948,-198.5 948,-198.5 948,-204.5 942,-210.5 936,-210.5 936,-210.5 866,-210.5 866,-210.5 860,-210.5 854,-204.5 854,-198.5 854,-198.5 854,-186.5 854,-186.5 854,-180.5 860,-174.5 866,-174.5"/>
<text text-anchor="middle" x="901" y="-189.4" font-family="sans-serif" font-size="12.00">Duelling&#45;DQN</text>
</g>
<!-- DDQN&#45;&gt;Duelling&#45;DQN -->
<g id="edge22" class="edge"><title>DDQN&#45;&gt;Duelling&#45;DQN</title>
<path fill="none" stroke="black" d="M933.047,-248.437C928.046,-239.865 921.878,-229.291 916.293,-219.717"/>
<polygon fill="black" stroke="black" points="919.236,-217.815 911.174,-210.941 913.189,-221.342 919.236,-217.815"/>
</g>
<!-- RAINBOW -->
<g id="node26" class="node"><title>RAINBOW</title>
<path fill="none" stroke="black" stroke-width="2" d="M891.5,-90.5C891.5,-90.5 944.5,-90.5 944.5,-90.5 950.5,-90.5 956.5,-96.5 956.5,-102.5 956.5,-102.5 956.5,-114.5 956.5,-114.5 956.5,-120.5 950.5,-126.5 944.5,-126.5 944.5,-126.5 891.5,-126.5 891.5,-126.5 885.5,-126.5 879.5,-120.5 879.5,-114.5 879.5,-114.5 879.5,-102.5 879.5,-102.5 879.5,-96.5 885.5,-90.5 891.5,-90.5"/>
<text text-anchor="middle" x="918" y="-105.4" font-family="sans-serif" font-size="12.00">RAINBOW</text>
</g>
<!-- DDQN&#45;&gt;RAINBOW -->
<g id="edge23" class="edge"><title>DDQN&#45;&gt;RAINBOW</title>
<path fill="none" stroke="darkgray" stroke-dasharray="5,2" d="M949.867,-248.378C956.342,-229.798 964.078,-199.387 957,-174 953.145,-160.175 945.435,-146.357 937.88,-135.077"/>
<polygon fill="darkgray" stroke="darkgray" points="940.549,-132.788 931.931,-126.624 934.824,-136.816 940.549,-132.788"/>
</g>
<!-- SARSA -->
<g id="node17" class="node"><title>SARSA</title>
<path fill="none" stroke="black" stroke-width="2" d="M843,-470.5C843,-470.5 875,-470.5 875,-470.5 881,-470.5 887,-476.5 887,-482.5 887,-482.5 887,-494.5 887,-494.5 887,-500.5 881,-506.5 875,-506.5 875,-506.5 843,-506.5 843,-506.5 837,-506.5 831,-500.5 831,-494.5 831,-494.5 831,-482.5 831,-482.5 831,-476.5 837,-470.5 843,-470.5"/>
<text text-anchor="middle" x="859" y="-485.4" font-family="sans-serif" font-size="12.00">SARSA</text>
</g>
<!-- Value Gradient&#45;&gt;SARSA -->
<!-- Q&#45;learning -->
<g id="node18" class="node"><title>Q&#45;learning</title>
<path fill="none" stroke="black" stroke-width="2" d="M906.5,-618.5C906.5,-618.5 959.5,-618.5 959.5,-618.5 965.5,-618.5 971.5,-624.5 971.5,-630.5 971.5,-630.5 971.5,-642.5 971.5,-642.5 971.5,-648.5 965.5,-654.5 959.5,-654.5 959.5,-654.5 906.5,-654.5 906.5,-654.5 900.5,-654.5 894.5,-648.5 894.5,-642.5 894.5,-642.5 894.5,-630.5 894.5,-630.5 894.5,-624.5 900.5,-618.5 906.5,-618.5"/>
<text text-anchor="middle" x="933" y="-633.4" font-family="sans-serif" font-size="12.00">Q&#45;learning</text>
</g>
<!-- Value Gradient&#45;&gt;Q&#45;learning -->
<!-- Q&#45;learning&#45;&gt;DQN -->
<g id="edge14" class="edge"><title>Q&#45;learning&#45;&gt;DQN</title>
<path fill="none" stroke="black" d="M933.785,-618.237C935.515,-580.164 939.671,-488.731 941.759,-442.801"/>
<polygon fill="black" stroke="black" points="945.261,-442.831 942.219,-432.683 938.268,-442.514 945.261,-442.831"/>
</g>
<!-- PER&#45;&gt;RAINBOW -->
<g id="edge24" class="edge"><title>PER&#45;&gt;RAINBOW</title>
<path fill="none" stroke="darkgray" stroke-dasharray="5,2" d="M1007.84,-248.263C997.394,-224.056 976.51,-179.131 952,-145 949.352,-141.313 946.337,-137.626 943.222,-134.098"/>
<polygon fill="darkgray" stroke="darkgray" points="945.713,-131.637 936.344,-126.689 940.583,-136.399 945.713,-131.637"/>
</g>
<!-- QR&#45;DQN&#45;&gt;RAINBOW -->
<g id="edge26" class="edge"><title>QR&#45;DQN&#45;&gt;RAINBOW</title>
<path fill="none" stroke="darkgray" stroke-dasharray="5,2" d="M843.75,-108.5C852.297,-108.5 860.844,-108.5 869.391,-108.5"/>
<polygon fill="darkgray" stroke="darkgray" points="869.425,-112 879.425,-108.5 869.425,-105 869.425,-112"/>
</g>
<!-- Duelling&#45;DQN&#45;&gt;RAINBOW -->
<g id="edge25" class="edge"><title>Duelling&#45;DQN&#45;&gt;RAINBOW</title>
<path fill="none" stroke="darkgray" stroke-dasharray="5,2" d="M904.605,-174.11C906.874,-163.165 909.849,-148.815 912.419,-136.419"/>
<polygon fill="darkgray" stroke="darkgray" points="915.855,-137.086 914.458,-126.584 909.001,-135.665 915.855,-137.086"/>
</g>
<!-- A3C -->
<g id="node27" class="node"><title>A3C</title>
<path fill="none" stroke="black" stroke-width="2" d="M449,-174.5C449,-174.5 479,-174.5 479,-174.5 485,-174.5 491,-180.5 491,-186.5 491,-186.5 491,-198.5 491,-198.5 491,-204.5 485,-210.5 479,-210.5 479,-210.5 449,-210.5 449,-210.5 443,-210.5 437,-204.5 437,-198.5 437,-198.5 437,-186.5 437,-186.5 437,-180.5 443,-174.5 449,-174.5"/>
<text text-anchor="middle" x="464" y="-189.4" font-family="sans-serif" font-size="12.00">A3C</text>
</g>
<!-- A3C&#45;&gt;ACER -->
<g id="edge46" class="edge"><title>A3C&#45;&gt;ACER</title>
<path fill="none" stroke="black" d="M491.297,-174.566C507.396,-165.046 528.396,-153.421 548,-145 572.41,-134.514 579.697,-135.095 605,-127 610.592,-125.211 616.506,-123.307 622.289,-121.438"/>
<polygon fill="black" stroke="black" points="623.383,-124.763 631.819,-118.353 621.227,-118.103 623.383,-124.763"/>
</g>
<!-- A3C&#45;&gt;RAINBOW -->
<g id="edge27" class="edge"><title>A3C&#45;&gt;RAINBOW</title>
<path fill="none" stroke="darkgray" stroke-dasharray="5,2" d="M491.237,-183.731C503.348,-180.447 517.82,-176.753 531,-174 612.038,-157.074 633.058,-156.799 715,-145 776.221,-136.184 792.336,-139.067 853,-127 858.373,-125.931 863.957,-124.667 869.496,-123.315"/>
<polygon fill="darkgray" stroke="darkgray" points="870.529,-126.664 879.36,-120.81 868.806,-119.879 870.529,-126.664"/>
</g>
<!-- A2C -->
<g id="node41" class="node"><title>A2C</title>
<path fill="none" stroke="black" stroke-width="2" d="M554,-90.5C554,-90.5 584,-90.5 584,-90.5 590,-90.5 596,-96.5 596,-102.5 596,-102.5 596,-114.5 596,-114.5 596,-120.5 590,-126.5 584,-126.5 584,-126.5 554,-126.5 554,-126.5 548,-126.5 542,-120.5 542,-114.5 542,-114.5 542,-102.5 542,-102.5 542,-96.5 548,-90.5 554,-90.5"/>
<text text-anchor="middle" x="569" y="-105.4" font-family="sans-serif" font-size="12.00">A2C</text>
</g>
<!-- A3C&#45;&gt;A2C -->
<g id="edge45" class="edge"><title>A3C&#45;&gt;A2C</title>
<path fill="none" stroke="black" d="M470.376,-174.163C474.668,-164.509 481.168,-152.884 490,-145 503.585,-132.874 511.923,-134.75 532.637,-126.772"/>
<polygon fill="black" stroke="black" points="534.092,-129.957 541.95,-122.85 531.375,-123.505 534.092,-129.957"/>
</g>
<!-- Policy Gradient/Actor&#45;Critic&#45;&gt;A3C -->
<!-- REINFORCE -->
<g id="node29" class="node"><title>REINFORCE</title>
<path fill="none" stroke="black" stroke-width="2" d="M378,-544.5C378,-544.5 440,-544.5 440,-544.5 446,-544.5 452,-550.5 452,-556.5 452,-556.5 452,-568.5 452,-568.5 452,-574.5 446,-580.5 440,-580.5 440,-580.5 378,-580.5 378,-580.5 372,-580.5 366,-574.5 366,-568.5 366,-568.5 366,-556.5 366,-556.5 366,-550.5 372,-544.5 378,-544.5"/>
<text text-anchor="middle" x="409" y="-559.4" font-family="sans-serif" font-size="12.00">REINFORCE</text>
</g>
<!-- Policy Gradient/Actor&#45;Critic&#45;&gt;REINFORCE -->
<!-- DPG -->
<g id="node30" class="node"><title>DPG</title>
<path fill="none" stroke="black" stroke-width="2" d="M286,-322.5C286,-322.5 316,-322.5 316,-322.5 322,-322.5 328,-328.5 328,-334.5 328,-334.5 328,-346.5 328,-346.5 328,-352.5 322,-358.5 316,-358.5 316,-358.5 286,-358.5 286,-358.5 280,-358.5 274,-352.5 274,-346.5 274,-346.5 274,-334.5 274,-334.5 274,-328.5 280,-322.5 286,-322.5"/>
<text text-anchor="middle" x="301" y="-337.4" font-family="sans-serif" font-size="12.00">DPG</text>
</g>
<!-- Policy Gradient/Actor&#45;Critic&#45;&gt;DPG -->
<!-- TRPO -->
<g id="node31" class="node"><title>TRPO</title>
<path fill="none" stroke="black" stroke-width="2" d="M483,-248.5C483,-248.5 513,-248.5 513,-248.5 519,-248.5 525,-254.5 525,-260.5 525,-260.5 525,-272.5 525,-272.5 525,-278.5 519,-284.5 513,-284.5 513,-284.5 483,-284.5 483,-284.5 477,-284.5 471,-278.5 471,-272.5 471,-272.5 471,-260.5 471,-260.5 471,-254.5 477,-248.5 483,-248.5"/>
<text text-anchor="middle" x="498" y="-263.4" font-family="sans-serif" font-size="12.00">TRPO</text>
</g>
<!-- Policy Gradient/Actor&#45;Critic&#45;&gt;TRPO -->
<!-- GAE -->
<g id="node32" class="node"><title>GAE</title>
<path fill="none" stroke="black" stroke-width="2" d="M84,-248.5C84,-248.5 114,-248.5 114,-248.5 120,-248.5 126,-254.5 126,-260.5 126,-260.5 126,-272.5 126,-272.5 126,-278.5 120,-284.5 114,-284.5 114,-284.5 84,-284.5 84,-284.5 78,-284.5 72,-278.5 72,-272.5 72,-272.5 72,-260.5 72,-260.5 72,-254.5 78,-248.5 84,-248.5"/>
<text text-anchor="middle" x="99" y="-263.4" font-family="sans-serif" font-size="12.00">GAE</text>
</g>
<!-- Policy Gradient/Actor&#45;Critic&#45;&gt;GAE -->
<!-- ACKTR -->
<g id="node33" class="node"><title>ACKTR</title>
<path fill="none" stroke="black" stroke-width="2" d="M104,-90.5C104,-90.5 136,-90.5 136,-90.5 142,-90.5 148,-96.5 148,-102.5 148,-102.5 148,-114.5 148,-114.5 148,-120.5 142,-126.5 136,-126.5 136,-126.5 104,-126.5 104,-126.5 98,-126.5 92,-120.5 92,-114.5 92,-114.5 92,-102.5 92,-102.5 92,-96.5 98,-90.5 104,-90.5"/>
<text text-anchor="middle" x="120" y="-105.4" font-family="sans-serif" font-size="12.00">ACKTR</text>
</g>
<!-- Policy Gradient/Actor&#45;Critic&#45;&gt;ACKTR -->
<!-- SVPG -->
<g id="node34" class="node"><title>SVPG</title>
<path fill="none" stroke="black" stroke-width="2" d="M178,-90.5C178,-90.5 208,-90.5 208,-90.5 214,-90.5 220,-96.5 220,-102.5 220,-102.5 220,-114.5 220,-114.5 220,-120.5 214,-126.5 208,-126.5 208,-126.5 178,-126.5 178,-126.5 172,-126.5 166,-120.5 166,-114.5 166,-114.5 166,-102.5 166,-102.5 166,-96.5 172,-90.5 178,-90.5"/>
<text text-anchor="middle" x="193" y="-105.4" font-family="sans-serif" font-size="12.00">SVPG</text>
</g>
<!-- Policy Gradient/Actor&#45;Critic&#45;&gt;SVPG -->
<!-- SAC -->
<g id="node35" class="node"><title>SAC</title>
<path fill="none" stroke="black" stroke-width="2" d="M118,-16.5C118,-16.5 148,-16.5 148,-16.5 154,-16.5 160,-22.5 160,-28.5 160,-28.5 160,-40.5 160,-40.5 160,-46.5 154,-52.5 148,-52.5 148,-52.5 118,-52.5 118,-52.5 112,-52.5 106,-46.5 106,-40.5 106,-40.5 106,-28.5 106,-28.5 106,-22.5 112,-16.5 118,-16.5"/>
<text text-anchor="middle" x="133" y="-31.4" font-family="sans-serif" font-size="12.00">SAC</text>
</g>
<!-- Policy Gradient/Actor&#45;Critic&#45;&gt;SAC -->
<!-- IMPALA -->
<g id="node36" class="node"><title>IMPALA</title>
<path fill="none" stroke="black" stroke-width="2" d="M440.5,-16.5C440.5,-16.5 477.5,-16.5 477.5,-16.5 483.5,-16.5 489.5,-22.5 489.5,-28.5 489.5,-28.5 489.5,-40.5 489.5,-40.5 489.5,-46.5 483.5,-52.5 477.5,-52.5 477.5,-52.5 440.5,-52.5 440.5,-52.5 434.5,-52.5 428.5,-46.5 428.5,-40.5 428.5,-40.5 428.5,-28.5 428.5,-28.5 428.5,-22.5 434.5,-16.5 440.5,-16.5"/>
<text text-anchor="middle" x="459" y="-31.4" font-family="sans-serif" font-size="12.00">IMPALA</text>
</g>
<!-- Policy Gradient/Actor&#45;Critic&#45;&gt;IMPALA -->
<!-- DPG&#45;&gt;DDPG -->
<g id="edge37" class="edge"><title>DPG&#45;&gt;DDPG</title>
<path fill="none" stroke="black" d="M301,-322.437C301,-314.307 301,-304.376 301,-295.205"/>
<polygon fill="black" stroke="black" points="304.5,-294.941 301,-284.941 297.5,-294.941 304.5,-294.941"/>
</g>
<!-- TRPO&#45;&gt;ACER -->
<g id="edge43" class="edge"><title>TRPO&#45;&gt;ACER</title>
<path fill="none" stroke="darkgray" stroke-dasharray="5,2" d="M509.231,-248.494C522.438,-229.203 545.663,-197.393 570,-174 586.167,-158.46 606.246,-143.596 623.238,-132.061"/>
<polygon fill="darkgray" stroke="darkgray" points="625.428,-134.807 631.805,-126.347 621.544,-128.984 625.428,-134.807"/>
<text text-anchor="middle" x="608" y="-190" font-family="sans-serif" font-size="10.00" fill="darkgray">TRPO technique</text>
</g>
<!-- TRPO&#45;&gt;GAE -->
<g id="edge42" class="edge"><title>TRPO&#45;&gt;GAE</title>
<path fill="none" stroke="darkgray" stroke-dasharray="5,2" d="M470.913,-274.282C437.611,-283.409 379.204,-297.992 328,-303.5 259.69,-310.848 180.728,-291.971 135.646,-278.559"/>
<polygon fill="darkgray" stroke="darkgray" points="136.604,-275.192 126.018,-275.623 134.562,-281.888 136.604,-275.192"/>
</g>
<!-- PPO -->
<g id="node40" class="node"><title>PPO</title>
<path fill="none" stroke="black" stroke-width="2" d="M482,-90.5C482,-90.5 512,-90.5 512,-90.5 518,-90.5 524,-96.5 524,-102.5 524,-102.5 524,-114.5 524,-114.5 524,-120.5 518,-126.5 512,-126.5 512,-126.5 482,-126.5 482,-126.5 476,-126.5 470,-120.5 470,-114.5 470,-114.5 470,-102.5 470,-102.5 470,-96.5 476,-90.5 482,-90.5"/>
<text text-anchor="middle" x="497" y="-105.4" font-family="sans-serif" font-size="12.00">PPO</text>
</g>
<!-- TRPO&#45;&gt;PPO -->
<g id="edge44" class="edge"><title>TRPO&#45;&gt;PPO</title>
<path fill="none" stroke="darkgray" stroke-dasharray="5,2" d="M498.792,-248.322C499.246,-237.595 499.771,-223.496 500,-211 500.302,-194.558 500.382,-190.44 500,-174 499.718,-161.855 499.137,-148.435 498.561,-136.995"/>
<polygon fill="darkgray" stroke="darkgray" points="502.042,-136.541 498.02,-126.74 495.052,-136.91 502.042,-136.541"/>
</g>
<!-- PPO&#45;&gt;SAC -->
<!-- A2C&#45;&gt;ACER -->
<!-- A2C&#45;&gt;ACKTR -->
<!-- A2C&#45;&gt;SVPG -->
<!-- A2C&#45;&gt;IMPALA -->
</g>
</svg>
