<?xml version="1.0" encoding="UTF-8" standalone="no"?>
<!DOCTYPE svg PUBLIC "-//W3C//DTD SVG 1.1//EN"
 "http://www.w3.org/Graphics/SVG/1.1/DTD/svg11.dtd">
<!-- Generated by graphviz version 2.38.0 (20140413.2041)
 -->
<!-- Title: %3 Pages: 1 -->
<svg width="1123pt" height="835pt"
 viewBox="0.00 0.00 1123.00 835.00" xmlns="http://www.w3.org/2000/svg" xmlns:xlink="http://www.w3.org/1999/xlink">
<g id="graph0" class="graph" transform="scale(1 1) rotate(0) translate(4 831)">
<title>%3</title>
<polygon fill="white" stroke="none" points="-4,4 -4,-831 1119,-831 1119,4 -4,4"/>
<g id="clust3" class="cluster"><title>clusterPolicy Gradient/Actor&#45;Critic</title>
<polygon fill="none" stroke="black" stroke-dasharray="5,2" points="64,-8 64,-763 656,-763 656,-8 64,-8"/>
<text text-anchor="middle" x="360" y="-746.2" font-family="sans-serif" font-size="16.00">Policy Gradient/Actor&#45;Critic</text>
</g>
<g id="clust2" class="cluster"><title>clusterValue Gradient</title>
<polygon fill="none" stroke="black" stroke-dasharray="5,2" points="720,-8 720,-763 1107,-763 1107,-8 720,-8"/>
<text text-anchor="middle" x="913.5" y="-746.2" font-family="sans-serif" font-size="16.00">Value Gradient</text>
</g>
<!-- 1989 -->
<g id="node1" class="node"><title>1989</title>
<text text-anchor="middle" x="27" y="-634" font-family="sans-serif" font-size="10.00" fill="blue">1989</text>
</g>
<!-- 1992 -->
<g id="node2" class="node"><title>1992</title>
<text text-anchor="middle" x="27" y="-560" font-family="sans-serif" font-size="10.00" fill="blue">1992</text>
</g>
<!-- 1989&#45;&gt;1992 -->
<g id="edge1" class="edge"><title>1989&#45;&gt;1992</title>
<path fill="none" stroke="blue" d="M27,-618.437C27,-610.307 27,-600.376 27,-591.205"/>
<polygon fill="blue" stroke="blue" points="30.5001,-590.941 27,-580.941 23.5001,-590.941 30.5001,-590.941"/>
</g>
<!-- 1994 -->
<g id="node3" class="node"><title>1994</title>
<text text-anchor="middle" x="27" y="-486" font-family="sans-serif" font-size="10.00" fill="blue">1994</text>
</g>
<!-- 1992&#45;&gt;1994 -->
<g id="edge2" class="edge"><title>1992&#45;&gt;1994</title>
<path fill="none" stroke="blue" d="M27,-544.437C27,-536.307 27,-526.376 27,-517.205"/>
<polygon fill="blue" stroke="blue" points="30.5001,-516.941 27,-506.941 23.5001,-516.941 30.5001,-516.941"/>
</g>
<!-- 2013 -->
<g id="node4" class="node"><title>2013</title>
<text text-anchor="middle" x="27" y="-412" font-family="sans-serif" font-size="10.00" fill="blue">2013</text>
</g>
<!-- 1994&#45;&gt;2013 -->
<g id="edge3" class="edge"><title>1994&#45;&gt;2013</title>
<path fill="none" stroke="blue" d="M27,-470.437C27,-462.307 27,-452.376 27,-443.205"/>
<polygon fill="blue" stroke="blue" points="30.5001,-442.941 27,-432.941 23.5001,-442.941 30.5001,-442.941"/>
</g>
<!-- 2014 -->
<g id="node5" class="node"><title>2014</title>
<text text-anchor="middle" x="27" y="-338" font-family="sans-serif" font-size="10.00" fill="blue">2014</text>
</g>
<!-- 2013&#45;&gt;2014 -->
<g id="edge4" class="edge"><title>2013&#45;&gt;2014</title>
<path fill="none" stroke="blue" d="M27,-396.437C27,-388.307 27,-378.376 27,-369.205"/>
<polygon fill="blue" stroke="blue" points="30.5001,-368.941 27,-358.941 23.5001,-368.941 30.5001,-368.941"/>
</g>
<!-- 2015 -->
<g id="node6" class="node"><title>2015</title>
<text text-anchor="middle" x="27" y="-264" font-family="sans-serif" font-size="10.00" fill="blue">2015</text>
</g>
<!-- 2014&#45;&gt;2015 -->
<g id="edge5" class="edge"><title>2014&#45;&gt;2015</title>
<path fill="none" stroke="blue" d="M27,-322.437C27,-314.307 27,-304.376 27,-295.205"/>
<polygon fill="blue" stroke="blue" points="30.5001,-294.941 27,-284.941 23.5001,-294.941 30.5001,-294.941"/>
</g>
<!-- 2016 -->
<g id="node7" class="node"><title>2016</title>
<text text-anchor="middle" x="27" y="-190" font-family="sans-serif" font-size="10.00" fill="blue">2016</text>
</g>
<!-- 2015&#45;&gt;2016 -->
<g id="edge6" class="edge"><title>2015&#45;&gt;2016</title>
<path fill="none" stroke="blue" d="M27,-248.437C27,-240.307 27,-230.376 27,-221.205"/>
<polygon fill="blue" stroke="blue" points="30.5001,-220.941 27,-210.941 23.5001,-220.941 30.5001,-220.941"/>
</g>
<!-- 2017 -->
<g id="node8" class="node"><title>2017</title>
<text text-anchor="middle" x="27" y="-106" font-family="sans-serif" font-size="10.00" fill="blue">2017</text>
</g>
<!-- 2016&#45;&gt;2017 -->
<g id="edge7" class="edge"><title>2016&#45;&gt;2017</title>
<path fill="none" stroke="blue" d="M27,-174.11C27,-163.274 27,-149.101 27,-136.791"/>
<polygon fill="blue" stroke="blue" points="30.5001,-136.584 27,-126.584 23.5001,-136.584 30.5001,-136.584"/>
</g>
<!-- 2018 -->
<g id="node9" class="node"><title>2018</title>
<text text-anchor="middle" x="27" y="-32" font-family="sans-serif" font-size="10.00" fill="blue">2018</text>
</g>
<!-- 2017&#45;&gt;2018 -->
<g id="edge8" class="edge"><title>2017&#45;&gt;2018</title>
<path fill="none" stroke="blue" d="M27,-90.437C27,-82.3072 27,-72.3761 27,-63.2047"/>
<polygon fill="blue" stroke="blue" points="30.5001,-62.9406 27,-52.9407 23.5001,-62.9407 30.5001,-62.9406"/>
</g>
<!-- Reinforcement Learning -->
<g id="node10" class="node"><title>Reinforcement Learning</title>
<path fill="none" stroke="black" d="M635,-790.5C635,-790.5 767,-790.5 767,-790.5 773,-790.5 779,-796.5 779,-802.5 779,-802.5 779,-814.5 779,-814.5 779,-820.5 773,-826.5 767,-826.5 767,-826.5 635,-826.5 635,-826.5 629,-826.5 623,-820.5 623,-814.5 623,-814.5 623,-802.5 623,-802.5 623,-796.5 629,-790.5 635,-790.5"/>
<text text-anchor="middle" x="701" y="-805.4" font-family="sans-serif" font-size="12.00">Reinforcement Learning</text>
</g>
<!-- Value Gradient -->
<!-- Reinforcement Learning&#45;&gt;Value Gradient -->
<g id="edge42" class="edge"><title>Reinforcement Learning&#45;&gt;Value Gradient</title>
<path fill="none" stroke="black" d="M717.09,-790.337C722.584,-784.477 729.075,-777.554 735.892,-770.282"/>
<polygon fill="black" stroke="black" points="738.507,-772.61 742.793,-762.921 733.4,-767.823 738.507,-772.61"/>
</g>
<!-- Policy Gradient/Actor&#45;Critic -->
<!-- Reinforcement Learning&#45;&gt;Policy Gradient/Actor&#45;Critic -->
<g id="edge43" class="edge"><title>Reinforcement Learning&#45;&gt;Policy Gradient/Actor&#45;Critic</title>
<path fill="none" stroke="black" d="M675.971,-790.337C666.799,-784.048 655.842,-776.534 644.387,-768.68"/>
<polygon fill="black" stroke="black" points="646.204,-765.682 635.978,-762.913 642.245,-771.455 646.204,-765.682"/>
</g>
<!-- DQN -->
<g id="node11" class="node"><title>DQN</title>
<path fill="none" stroke="black" d="M870,-396.5C870,-396.5 900,-396.5 900,-396.5 906,-396.5 912,-402.5 912,-408.5 912,-408.5 912,-420.5 912,-420.5 912,-426.5 906,-432.5 900,-432.5 900,-432.5 870,-432.5 870,-432.5 864,-432.5 858,-426.5 858,-420.5 858,-420.5 858,-408.5 858,-408.5 858,-402.5 864,-396.5 870,-396.5"/>
<text text-anchor="middle" x="885" y="-411.4" font-family="sans-serif" font-size="12.00">DQN</text>
</g>
<!-- DDPG -->
<g id="node12" class="node"><title>DDPG</title>
<path fill="none" stroke="black" d="M158,-248.5C158,-248.5 188,-248.5 188,-248.5 194,-248.5 200,-254.5 200,-260.5 200,-260.5 200,-272.5 200,-272.5 200,-278.5 194,-284.5 188,-284.5 188,-284.5 158,-284.5 158,-284.5 152,-284.5 146,-278.5 146,-272.5 146,-272.5 146,-260.5 146,-260.5 146,-254.5 152,-248.5 158,-248.5"/>
<text text-anchor="middle" x="173" y="-263.4" font-family="sans-serif" font-size="12.00">DDPG</text>
</g>
<!-- DQN&#45;&gt;DDPG -->
<g id="edge9" class="edge"><title>DQN&#45;&gt;DDPG</title>
<path fill="none" stroke="darkgray" stroke-dasharray="5,2" d="M857.849,-397.535C856.564,-396.982 855.277,-396.466 854,-396 792.519,-373.543 343.505,-296.417 210.208,-273.788"/>
<polygon fill="darkgray" stroke="darkgray" points="210.532,-270.293 200.087,-272.072 209.361,-277.195 210.532,-270.293"/>
<text text-anchor="middle" x="715.5" y="-338" font-family="sans-serif" font-size="10.00" fill="darkgray">replay buffer</text>
</g>
<!-- ACER -->
<g id="node13" class="node"><title>ACER</title>
<path fill="none" stroke="black" d="M606,-90.5C606,-90.5 636,-90.5 636,-90.5 642,-90.5 648,-96.5 648,-102.5 648,-102.5 648,-114.5 648,-114.5 648,-120.5 642,-126.5 636,-126.5 636,-126.5 606,-126.5 606,-126.5 600,-126.5 594,-120.5 594,-114.5 594,-114.5 594,-102.5 594,-102.5 594,-96.5 600,-90.5 606,-90.5"/>
<text text-anchor="middle" x="621" y="-105.4" font-family="sans-serif" font-size="12.00">ACER</text>
</g>
<!-- DQN&#45;&gt;ACER -->
<g id="edge10" class="edge"><title>DQN&#45;&gt;ACER</title>
<path fill="none" stroke="darkgray" stroke-dasharray="5,2" d="M857.852,-397.526C856.566,-396.976 855.278,-396.463 854,-396 760.911,-362.279 638,-440.509 638,-341.5 638,-341.5 638,-341.5 638,-191.5 638,-172.776 633.697,-152.137 629.421,-136.25"/>
<polygon fill="darkgray" stroke="darkgray" points="632.768,-135.222 626.661,-126.564 626.036,-137.14 632.768,-135.222"/>
<text text-anchor="middle" x="689.5" y="-264" font-family="sans-serif" font-size="10.00" fill="darkgray">replay buffer, workers</text>
</g>
<!-- DDQN -->
<g id="node14" class="node"><title>DDQN</title>
<path fill="none" stroke="black" d="M870,-248.5C870,-248.5 900,-248.5 900,-248.5 906,-248.5 912,-254.5 912,-260.5 912,-260.5 912,-272.5 912,-272.5 912,-278.5 906,-284.5 900,-284.5 900,-284.5 870,-284.5 870,-284.5 864,-284.5 858,-278.5 858,-272.5 858,-272.5 858,-260.5 858,-260.5 858,-254.5 864,-248.5 870,-248.5"/>
<text text-anchor="middle" x="885" y="-263.4" font-family="sans-serif" font-size="12.00">DDQN</text>
</g>
<!-- DQN&#45;&gt;DDQN -->
<g id="edge15" class="edge"><title>DQN&#45;&gt;DDQN</title>
<path fill="none" stroke="black" d="M885,-396.466C885,-371.545 885,-324.874 885,-295.037"/>
<polygon fill="black" stroke="black" points="888.5,-294.878 885,-284.878 881.5,-294.878 888.5,-294.878"/>
</g>
<!-- DRQN -->
<g id="node19" class="node"><title>DRQN</title>
<path fill="none" stroke="black" d="M798,-248.5C798,-248.5 828,-248.5 828,-248.5 834,-248.5 840,-254.5 840,-260.5 840,-260.5 840,-272.5 840,-272.5 840,-278.5 834,-284.5 828,-284.5 828,-284.5 798,-284.5 798,-284.5 792,-284.5 786,-278.5 786,-272.5 786,-272.5 786,-260.5 786,-260.5 786,-254.5 792,-248.5 798,-248.5"/>
<text text-anchor="middle" x="813" y="-263.4" font-family="sans-serif" font-size="12.00">DRQN</text>
</g>
<!-- DQN&#45;&gt;DRQN -->
<g id="edge14" class="edge"><title>DQN&#45;&gt;DRQN</title>
<path fill="none" stroke="black" d="M876.6,-396.466C864.148,-371.217 840.686,-323.642 826.004,-293.868"/>
<polygon fill="black" stroke="black" points="829.132,-292.299 821.57,-284.878 822.854,-295.395 829.132,-292.299"/>
</g>
<!-- PER -->
<g id="node20" class="node"><title>PER</title>
<path fill="none" stroke="black" d="M942,-248.5C942,-248.5 972,-248.5 972,-248.5 978,-248.5 984,-254.5 984,-260.5 984,-260.5 984,-272.5 984,-272.5 984,-278.5 978,-284.5 972,-284.5 972,-284.5 942,-284.5 942,-284.5 936,-284.5 930,-278.5 930,-272.5 930,-272.5 930,-260.5 930,-260.5 930,-254.5 936,-248.5 942,-248.5"/>
<text text-anchor="middle" x="957" y="-263.4" font-family="sans-serif" font-size="12.00">PER</text>
</g>
<!-- DQN&#45;&gt;PER -->
<g id="edge16" class="edge"><title>DQN&#45;&gt;PER</title>
<path fill="none" stroke="black" d="M909.489,-396.373C915.612,-391.087 921.662,-384.837 926,-378 942.198,-352.468 950.086,-318.375 953.823,-294.844"/>
<polygon fill="black" stroke="black" points="957.302,-295.241 955.263,-284.844 950.374,-294.243 957.302,-295.241"/>
</g>
<!-- QR&#45;DQN -->
<g id="node21" class="node"><title>QR&#45;DQN</title>
<path fill="none" stroke="black" d="M740.5,-90.5C740.5,-90.5 783.5,-90.5 783.5,-90.5 789.5,-90.5 795.5,-96.5 795.5,-102.5 795.5,-102.5 795.5,-114.5 795.5,-114.5 795.5,-120.5 789.5,-126.5 783.5,-126.5 783.5,-126.5 740.5,-126.5 740.5,-126.5 734.5,-126.5 728.5,-120.5 728.5,-114.5 728.5,-114.5 728.5,-102.5 728.5,-102.5 728.5,-96.5 734.5,-90.5 740.5,-90.5"/>
<text text-anchor="middle" x="762" y="-105.4" font-family="sans-serif" font-size="12.00">QR&#45;DQN</text>
</g>
<!-- DQN&#45;&gt;QR&#45;DQN -->
<g id="edge17" class="edge"><title>DQN&#45;&gt;QR&#45;DQN</title>
<path fill="none" stroke="black" d="M857.928,-397.748C823.091,-377.369 767,-344.147 767,-341.5 767,-341.5 767,-341.5 767,-191.5 767,-173.306 765.759,-152.884 764.513,-136.972"/>
<polygon fill="black" stroke="black" points="767.98,-136.435 763.665,-126.758 761.004,-137.014 767.98,-136.435"/>
</g>
<!-- C51 -->
<g id="node22" class="node"><title>C51</title>
<path fill="none" stroke="black" d="M939,-90.5C939,-90.5 969,-90.5 969,-90.5 975,-90.5 981,-96.5 981,-102.5 981,-102.5 981,-114.5 981,-114.5 981,-120.5 975,-126.5 969,-126.5 969,-126.5 939,-126.5 939,-126.5 933,-126.5 927,-120.5 927,-114.5 927,-114.5 927,-102.5 927,-102.5 927,-96.5 933,-90.5 939,-90.5"/>
<text text-anchor="middle" x="954" y="-105.4" font-family="sans-serif" font-size="12.00">C51</text>
</g>
<!-- DQN&#45;&gt;C51 -->
<g id="edge18" class="edge"><title>DQN&#45;&gt;C51</title>
<path fill="none" stroke="black" d="M912.29,-412.831C938.423,-410.625 976.905,-402.98 998,-378 1008.56,-365.49 1003,-357.874 1003,-341.5 1003,-341.5 1003,-341.5 1003,-191.5 1003,-170.231 990.702,-149.692 978.428,-134.49"/>
<polygon fill="black" stroke="black" points="980.853,-131.941 971.69,-126.623 975.537,-136.495 980.853,-131.941"/>
</g>
<!-- DQN+HER -->
<g id="node23" class="node"><title>DQN+HER</title>
<path fill="none" stroke="black" d="M1011.5,-90.5C1011.5,-90.5 1066.5,-90.5 1066.5,-90.5 1072.5,-90.5 1078.5,-96.5 1078.5,-102.5 1078.5,-102.5 1078.5,-114.5 1078.5,-114.5 1078.5,-120.5 1072.5,-126.5 1066.5,-126.5 1066.5,-126.5 1011.5,-126.5 1011.5,-126.5 1005.5,-126.5 999.5,-120.5 999.5,-114.5 999.5,-114.5 999.5,-102.5 999.5,-102.5 999.5,-96.5 1005.5,-90.5 1011.5,-90.5"/>
<text text-anchor="middle" x="1039" y="-105.4" font-family="sans-serif" font-size="12.00">DQN+HER</text>
</g>
<!-- DQN&#45;&gt;DQN+HER -->
<g id="edge19" class="edge"><title>DQN&#45;&gt;DQN+HER</title>
<path fill="none" stroke="black" d="M912.043,-410.186C948.152,-405.182 1009.28,-394.495 1024,-378 1034.9,-365.782 1029,-357.874 1029,-341.5 1029,-341.5 1029,-341.5 1029,-191.5 1029,-173.206 1031.48,-152.783 1033.97,-136.895"/>
<polygon fill="black" stroke="black" points="1037.48,-137.142 1035.67,-126.703 1030.58,-135.993 1037.48,-137.142"/>
</g>
<!-- IQN -->
<g id="node24" class="node"><title>IQN</title>
<path fill="none" stroke="black" d="M1057,-16.5C1057,-16.5 1087,-16.5 1087,-16.5 1093,-16.5 1099,-22.5 1099,-28.5 1099,-28.5 1099,-40.5 1099,-40.5 1099,-46.5 1093,-52.5 1087,-52.5 1087,-52.5 1057,-52.5 1057,-52.5 1051,-52.5 1045,-46.5 1045,-40.5 1045,-40.5 1045,-28.5 1045,-28.5 1045,-22.5 1051,-16.5 1057,-16.5"/>
<text text-anchor="middle" x="1072" y="-31.4" font-family="sans-serif" font-size="12.00">IQN</text>
</g>
<!-- DQN&#45;&gt;IQN -->
<g id="edge20" class="edge"><title>DQN&#45;&gt;IQN</title>
<path fill="none" stroke="black" d="M912.124,-412.724C962.679,-410.681 1068.42,-403.405 1093,-378 1104.39,-366.233 1098,-357.874 1098,-341.5 1098,-341.5 1098,-341.5 1098,-107.5 1098,-91.6724 1092.37,-74.9888 1086.35,-61.6712"/>
<polygon fill="black" stroke="black" points="1089.49,-60.1052 1081.98,-52.629 1083.18,-63.155 1089.49,-60.1052"/>
</g>
<!-- TD3 -->
<g id="node15" class="node"><title>TD3</title>
<path fill="none" stroke="black" d="M526,-16.5C526,-16.5 556,-16.5 556,-16.5 562,-16.5 568,-22.5 568,-28.5 568,-28.5 568,-40.5 568,-40.5 568,-46.5 562,-52.5 556,-52.5 556,-52.5 526,-52.5 526,-52.5 520,-52.5 514,-46.5 514,-40.5 514,-40.5 514,-28.5 514,-28.5 514,-22.5 520,-16.5 526,-16.5"/>
<text text-anchor="middle" x="541" y="-31.4" font-family="sans-serif" font-size="12.00">TD3</text>
</g>
<!-- DDPG&#45;&gt;TD3 -->
<g id="edge31" class="edge"><title>DDPG&#45;&gt;TD3</title>
<path fill="none" stroke="black" d="M200.218,-256.017C249.287,-237.768 353.55,-193.587 419,-127 432.104,-113.669 425.75,-103.186 439,-90 457.512,-71.5774 483.546,-57.8055 504.679,-48.7145"/>
<polygon fill="black" stroke="black" points="506.091,-51.9181 513.999,-44.8671 503.42,-45.4478 506.091,-51.9181"/>
</g>
<!-- DDPG+HER -->
<g id="node31" class="node"><title>DDPG+HER</title>
<path fill="none" stroke="black" d="M104,-90.5C104,-90.5 166,-90.5 166,-90.5 172,-90.5 178,-96.5 178,-102.5 178,-102.5 178,-114.5 178,-114.5 178,-120.5 172,-126.5 166,-126.5 166,-126.5 104,-126.5 104,-126.5 98,-126.5 92,-120.5 92,-114.5 92,-114.5 92,-102.5 92,-102.5 92,-96.5 98,-90.5 104,-90.5"/>
<text text-anchor="middle" x="135" y="-105.4" font-family="sans-serif" font-size="12.00">DDPG+HER</text>
</g>
<!-- DDPG&#45;&gt;DDPG+HER -->
<g id="edge28" class="edge"><title>DDPG&#45;&gt;DDPG+HER</title>
<path fill="none" stroke="darkgray" stroke-dasharray="5,2" d="M168.788,-248.209C162.226,-221.268 149.503,-169.04 141.68,-136.923"/>
<polygon fill="darkgray" stroke="darkgray" points="144.998,-135.756 139.231,-126.868 138.197,-137.412 144.998,-135.756"/>
</g>
<!-- MADDPG -->
<g id="node32" class="node"><title>MADDPG</title>
<path fill="none" stroke="black" d="M208.5,-90.5C208.5,-90.5 253.5,-90.5 253.5,-90.5 259.5,-90.5 265.5,-96.5 265.5,-102.5 265.5,-102.5 265.5,-114.5 265.5,-114.5 265.5,-120.5 259.5,-126.5 253.5,-126.5 253.5,-126.5 208.5,-126.5 208.5,-126.5 202.5,-126.5 196.5,-120.5 196.5,-114.5 196.5,-114.5 196.5,-102.5 196.5,-102.5 196.5,-96.5 202.5,-90.5 208.5,-90.5"/>
<text text-anchor="middle" x="231" y="-105.4" font-family="sans-serif" font-size="12.00">MADDPG</text>
</g>
<!-- DDPG&#45;&gt;MADDPG -->
<g id="edge29" class="edge"><title>DDPG&#45;&gt;MADDPG</title>
<path fill="none" stroke="black" d="M179.429,-248.209C189.489,-221.151 209.032,-168.585 220.959,-136.506"/>
<polygon fill="black" stroke="black" points="224.338,-137.461 224.543,-126.868 217.777,-135.022 224.338,-137.461"/>
</g>
<!-- D4PG -->
<g id="node33" class="node"><title>D4PG</title>
<path fill="none" stroke="black" d="M84,-16.5C84,-16.5 114,-16.5 114,-16.5 120,-16.5 126,-22.5 126,-28.5 126,-28.5 126,-40.5 126,-40.5 126,-46.5 120,-52.5 114,-52.5 114,-52.5 84,-52.5 84,-52.5 78,-52.5 72,-46.5 72,-40.5 72,-40.5 72,-28.5 72,-28.5 72,-22.5 78,-16.5 84,-16.5"/>
<text text-anchor="middle" x="99" y="-31.4" font-family="sans-serif" font-size="12.00">D4PG</text>
</g>
<!-- DDPG&#45;&gt;D4PG -->
<g id="edge30" class="edge"><title>DDPG&#45;&gt;D4PG</title>
<path fill="none" stroke="black" d="M157.066,-248.392C135.35,-223.781 97.5041,-175.939 83,-127 76.6591,-105.605 81.8478,-80.6055 87.9545,-62.1493"/>
<polygon fill="black" stroke="black" points="91.286,-63.2279 91.3743,-52.6335 84.6985,-60.8605 91.286,-63.2279"/>
</g>
<!-- DDQN&#45;&gt;TD3 -->
<g id="edge11" class="edge"><title>DDQN&#45;&gt;TD3</title>
<path fill="none" stroke="darkgray" stroke-dasharray="5,2" d="M857.968,-251.967C803.122,-224.415 683.399,-163.749 677,-156 657.484,-132.365 677.047,-113.186 657,-90 636.573,-66.3734 603.672,-52.2711 578.117,-44.3518"/>
<polygon fill="darkgray" stroke="darkgray" points="578.955,-40.9505 568.375,-41.5171 576.999,-47.6717 578.955,-40.9505"/>
<text text-anchor="middle" x="719.5" y="-148" font-family="sans-serif" font-size="10.00" fill="darkgray">double Q&#45;learning</text>
</g>
<!-- Duelling&#45;DQN -->
<g id="node25" class="node"><title>Duelling&#45;DQN</title>
<path fill="none" stroke="black" d="M817,-174.5C817,-174.5 887,-174.5 887,-174.5 893,-174.5 899,-180.5 899,-186.5 899,-186.5 899,-198.5 899,-198.5 899,-204.5 893,-210.5 887,-210.5 887,-210.5 817,-210.5 817,-210.5 811,-210.5 805,-204.5 805,-198.5 805,-198.5 805,-186.5 805,-186.5 805,-180.5 811,-174.5 817,-174.5"/>
<text text-anchor="middle" x="852" y="-189.4" font-family="sans-serif" font-size="12.00">Duelling&#45;DQN</text>
</g>
<!-- DDQN&#45;&gt;Duelling&#45;DQN -->
<g id="edge21" class="edge"><title>DDQN&#45;&gt;Duelling&#45;DQN</title>
<path fill="none" stroke="black" d="M877.179,-248.437C873.332,-240.042 868.604,-229.727 864.288,-220.31"/>
<polygon fill="black" stroke="black" points="867.342,-218.573 859.994,-210.941 860.979,-221.49 867.342,-218.573"/>
</g>
<!-- RAINBOW -->
<g id="node26" class="node"><title>RAINBOW</title>
<path fill="none" stroke="black" d="M843.5,-90.5C843.5,-90.5 896.5,-90.5 896.5,-90.5 902.5,-90.5 908.5,-96.5 908.5,-102.5 908.5,-102.5 908.5,-114.5 908.5,-114.5 908.5,-120.5 902.5,-126.5 896.5,-126.5 896.5,-126.5 843.5,-126.5 843.5,-126.5 837.5,-126.5 831.5,-120.5 831.5,-114.5 831.5,-114.5 831.5,-102.5 831.5,-102.5 831.5,-96.5 837.5,-90.5 843.5,-90.5"/>
<text text-anchor="middle" x="870" y="-105.4" font-family="sans-serif" font-size="12.00">RAINBOW</text>
</g>
<!-- DDQN&#45;&gt;RAINBOW -->
<g id="edge22" class="edge"><title>DDQN&#45;&gt;RAINBOW</title>
<path fill="none" stroke="darkgray" stroke-dasharray="5,2" d="M894.682,-248.245C903.779,-229.81 915.024,-199.758 908,-174 904.25,-160.247 896.738,-146.439 889.376,-135.148"/>
<polygon fill="darkgray" stroke="darkgray" points="892.116,-132.955 883.579,-126.681 886.341,-136.91 892.116,-132.955"/>
</g>
<!-- Q&#45;learning -->
<g id="node17" class="node"><title>Q&#45;learning</title>
<path fill="none" stroke="black" d="M830.5,-618.5C830.5,-618.5 883.5,-618.5 883.5,-618.5 889.5,-618.5 895.5,-624.5 895.5,-630.5 895.5,-630.5 895.5,-642.5 895.5,-642.5 895.5,-648.5 889.5,-654.5 883.5,-654.5 883.5,-654.5 830.5,-654.5 830.5,-654.5 824.5,-654.5 818.5,-648.5 818.5,-642.5 818.5,-642.5 818.5,-630.5 818.5,-630.5 818.5,-624.5 824.5,-618.5 830.5,-618.5"/>
<text text-anchor="middle" x="857" y="-633.4" font-family="sans-serif" font-size="12.00">Q&#45;learning</text>
</g>
<!-- Value Gradient&#45;&gt;Q&#45;learning -->
<!-- Q&#45;learning&#45;&gt;DQN -->
<g id="edge13" class="edge"><title>Q&#45;learning&#45;&gt;DQN</title>
<path fill="none" stroke="black" d="M859.197,-618.237C864.043,-580.164 875.68,-488.731 881.525,-442.801"/>
<polygon fill="black" stroke="black" points="885.022,-443.045 882.813,-432.683 878.078,-442.161 885.022,-443.045"/>
</g>
<!-- SARSA -->
<g id="node18" class="node"><title>SARSA</title>
<path fill="none" stroke="black" d="M778,-470.5C778,-470.5 810,-470.5 810,-470.5 816,-470.5 822,-476.5 822,-482.5 822,-482.5 822,-494.5 822,-494.5 822,-500.5 816,-506.5 810,-506.5 810,-506.5 778,-506.5 778,-506.5 772,-506.5 766,-500.5 766,-494.5 766,-494.5 766,-482.5 766,-482.5 766,-476.5 772,-470.5 778,-470.5"/>
<text text-anchor="middle" x="794" y="-485.4" font-family="sans-serif" font-size="12.00">SARSA</text>
</g>
<!-- PER&#45;&gt;RAINBOW -->
<g id="edge23" class="edge"><title>PER&#45;&gt;RAINBOW</title>
<path fill="none" stroke="darkgray" stroke-dasharray="5,2" d="M951.292,-248.231C942.84,-223.987 925.537,-179.018 903,-145 900.595,-141.37 897.814,-137.757 894.907,-134.302"/>
<polygon fill="darkgray" stroke="darkgray" points="897.289,-131.715 888.013,-126.595 892.071,-136.382 897.289,-131.715"/>
</g>
<!-- QR&#45;DQN&#45;&gt;RAINBOW -->
<g id="edge25" class="edge"><title>QR&#45;DQN&#45;&gt;RAINBOW</title>
<path fill="none" stroke="darkgray" stroke-dasharray="5,2" d="M795.75,-108.5C804.297,-108.5 812.844,-108.5 821.391,-108.5"/>
<polygon fill="darkgray" stroke="darkgray" points="821.425,-112 831.425,-108.5 821.425,-105 821.425,-112"/>
</g>
<!-- Duelling&#45;DQN&#45;&gt;RAINBOW -->
<g id="edge24" class="edge"><title>Duelling&#45;DQN&#45;&gt;RAINBOW</title>
<path fill="none" stroke="darkgray" stroke-dasharray="5,2" d="M855.817,-174.11C858.22,-163.165 861.37,-148.815 864.091,-136.419"/>
<polygon fill="darkgray" stroke="darkgray" points="867.524,-137.102 866.25,-126.584 860.687,-135.601 867.524,-137.102"/>
</g>
<!-- A3C -->
<g id="node27" class="node"><title>A3C</title>
<path fill="none" stroke="black" d="M456,-174.5C456,-174.5 486,-174.5 486,-174.5 492,-174.5 498,-180.5 498,-186.5 498,-186.5 498,-198.5 498,-198.5 498,-204.5 492,-210.5 486,-210.5 486,-210.5 456,-210.5 456,-210.5 450,-210.5 444,-204.5 444,-198.5 444,-198.5 444,-186.5 444,-186.5 444,-180.5 450,-174.5 456,-174.5"/>
<text text-anchor="middle" x="471" y="-189.4" font-family="sans-serif" font-size="12.00">A3C</text>
</g>
<!-- A3C&#45;&gt;ACER -->
<g id="edge36" class="edge"><title>A3C&#45;&gt;ACER</title>
<path fill="none" stroke="black" d="M488.834,-174.344C499.724,-164.631 514.337,-152.885 529,-145 549.597,-133.924 558.742,-136.053 584.008,-126.994"/>
<polygon fill="black" stroke="black" points="585.584,-130.138 593.663,-123.283 583.073,-123.604 585.584,-130.138"/>
</g>
<!-- A3C&#45;&gt;RAINBOW -->
<g id="edge26" class="edge"><title>A3C&#45;&gt;RAINBOW</title>
<path fill="none" stroke="darkgray" stroke-dasharray="5,2" d="M498.059,-179.044C502.653,-177.193 507.419,-175.429 512,-174 573.49,-154.815 590.409,-155.265 654,-145 720.722,-134.229 738.641,-139.819 805,-127 810.379,-125.961 815.967,-124.716 821.508,-123.375"/>
<polygon fill="darkgray" stroke="darkgray" points="822.537,-126.725 831.374,-120.881 820.821,-119.938 822.537,-126.725"/>
</g>
<!-- A2C -->
<g id="node37" class="node"><title>A2C</title>
<path fill="none" stroke="black" d="M368,-90.5C368,-90.5 398,-90.5 398,-90.5 404,-90.5 410,-96.5 410,-102.5 410,-102.5 410,-114.5 410,-114.5 410,-120.5 404,-126.5 398,-126.5 398,-126.5 368,-126.5 368,-126.5 362,-126.5 356,-120.5 356,-114.5 356,-114.5 356,-102.5 356,-102.5 356,-96.5 362,-90.5 368,-90.5"/>
<text text-anchor="middle" x="383" y="-105.4" font-family="sans-serif" font-size="12.00">A2C</text>
</g>
<!-- A3C&#45;&gt;A2C -->
<g id="edge35" class="edge"><title>A3C&#45;&gt;A2C</title>
<path fill="none" stroke="black" d="M452.337,-174.11C439.652,-162.289 422.704,-146.497 408.739,-133.484"/>
<polygon fill="black" stroke="black" points="411.036,-130.84 401.334,-126.584 406.264,-135.962 411.036,-130.84"/>
</g>
<!-- REINFORCE -->
<g id="node29" class="node"><title>REINFORCE</title>
<path fill="none" stroke="black" d="M329,-544.5C329,-544.5 391,-544.5 391,-544.5 397,-544.5 403,-550.5 403,-556.5 403,-556.5 403,-568.5 403,-568.5 403,-574.5 397,-580.5 391,-580.5 391,-580.5 329,-580.5 329,-580.5 323,-580.5 317,-574.5 317,-568.5 317,-568.5 317,-556.5 317,-556.5 317,-550.5 323,-544.5 329,-544.5"/>
<text text-anchor="middle" x="360" y="-559.4" font-family="sans-serif" font-size="12.00">REINFORCE</text>
</g>
<!-- DPG -->
<g id="node30" class="node"><title>DPG</title>
<path fill="none" stroke="black" d="M158,-322.5C158,-322.5 188,-322.5 188,-322.5 194,-322.5 200,-328.5 200,-334.5 200,-334.5 200,-346.5 200,-346.5 200,-352.5 194,-358.5 188,-358.5 188,-358.5 158,-358.5 158,-358.5 152,-358.5 146,-352.5 146,-346.5 146,-346.5 146,-334.5 146,-334.5 146,-328.5 152,-322.5 158,-322.5"/>
<text text-anchor="middle" x="173" y="-337.4" font-family="sans-serif" font-size="12.00">DPG</text>
</g>
<!-- DPG&#45;&gt;DDPG -->
<g id="edge27" class="edge"><title>DPG&#45;&gt;DDPG</title>
<path fill="none" stroke="black" d="M173,-322.437C173,-314.307 173,-304.376 173,-295.205"/>
<polygon fill="black" stroke="black" points="176.5,-294.941 173,-284.941 169.5,-294.941 176.5,-294.941"/>
</g>
<!-- TRPO -->
<g id="node34" class="node"><title>TRPO</title>
<path fill="none" stroke="black" d="M440,-248.5C440,-248.5 470,-248.5 470,-248.5 476,-248.5 482,-254.5 482,-260.5 482,-260.5 482,-272.5 482,-272.5 482,-278.5 476,-284.5 470,-284.5 470,-284.5 440,-284.5 440,-284.5 434,-284.5 428,-278.5 428,-272.5 428,-272.5 428,-260.5 428,-260.5 428,-254.5 434,-248.5 440,-248.5"/>
<text text-anchor="middle" x="455" y="-263.4" font-family="sans-serif" font-size="12.00">TRPO</text>
</g>
<!-- TRPO&#45;&gt;ACER -->
<g id="edge33" class="edge"><title>TRPO&#45;&gt;ACER</title>
<path fill="none" stroke="darkgray" stroke-dasharray="5,2" d="M471.874,-248.357C490.306,-229.76 520.832,-199.333 548,-174 562.682,-160.309 579.444,-145.447 593.2,-133.444"/>
<polygon fill="darkgray" stroke="darkgray" points="595.663,-135.94 600.913,-126.737 591.07,-130.657 595.663,-135.94"/>
<text text-anchor="middle" x="586" y="-190" font-family="sans-serif" font-size="10.00" fill="darkgray">TRPO technique</text>
</g>
<!-- GAE -->
<g id="node35" class="node"><title>GAE</title>
<path fill="none" stroke="black" d="M530,-248.5C530,-248.5 560,-248.5 560,-248.5 566,-248.5 572,-254.5 572,-260.5 572,-260.5 572,-272.5 572,-272.5 572,-278.5 566,-284.5 560,-284.5 560,-284.5 530,-284.5 530,-284.5 524,-284.5 518,-278.5 518,-272.5 518,-272.5 518,-260.5 518,-260.5 518,-254.5 524,-248.5 530,-248.5"/>
<text text-anchor="middle" x="545" y="-263.4" font-family="sans-serif" font-size="12.00">GAE</text>
</g>
<!-- TRPO&#45;&gt;GAE -->
<g id="edge32" class="edge"><title>TRPO&#45;&gt;GAE</title>
<path fill="none" stroke="darkgray" stroke-dasharray="5,2" d="M482.07,-266.5C490.669,-266.5 499.267,-266.5 507.866,-266.5"/>
<polygon fill="darkgray" stroke="darkgray" points="507.96,-270 517.96,-266.5 507.96,-263 507.96,-270"/>
</g>
<!-- PPO -->
<g id="node36" class="node"><title>PPO</title>
<path fill="none" stroke="black" d="M296,-90.5C296,-90.5 326,-90.5 326,-90.5 332,-90.5 338,-96.5 338,-102.5 338,-102.5 338,-114.5 338,-114.5 338,-120.5 332,-126.5 326,-126.5 326,-126.5 296,-126.5 296,-126.5 290,-126.5 284,-120.5 284,-114.5 284,-114.5 284,-102.5 284,-102.5 284,-96.5 290,-90.5 296,-90.5"/>
<text text-anchor="middle" x="311" y="-105.4" font-family="sans-serif" font-size="12.00">PPO</text>
</g>
<!-- TRPO&#45;&gt;PPO -->
<g id="edge34" class="edge"><title>TRPO&#45;&gt;PPO</title>
<path fill="none" stroke="darkgray" stroke-dasharray="5,2" d="M439.039,-248.209C413.522,-220.566 363.429,-166.298 334.032,-134.452"/>
<polygon fill="darkgray" stroke="darkgray" points="336.387,-131.842 327.032,-126.868 331.243,-136.59 336.387,-131.842"/>
</g>
<!-- SAC -->
<g id="node41" class="node"><title>SAC</title>
<path fill="none" stroke="black" d="M294,-16.5C294,-16.5 324,-16.5 324,-16.5 330,-16.5 336,-22.5 336,-28.5 336,-28.5 336,-40.5 336,-40.5 336,-46.5 330,-52.5 324,-52.5 324,-52.5 294,-52.5 294,-52.5 288,-52.5 282,-46.5 282,-40.5 282,-40.5 282,-28.5 282,-28.5 282,-22.5 288,-16.5 294,-16.5"/>
<text text-anchor="middle" x="309" y="-31.4" font-family="sans-serif" font-size="12.00">SAC</text>
</g>
<!-- PPO&#45;&gt;SAC -->
<!-- A2C&#45;&gt;ACER -->
<!-- ACKTR -->
<g id="node38" class="node"><title>ACKTR</title>
<path fill="none" stroke="black" d="M460,-90.5C460,-90.5 492,-90.5 492,-90.5 498,-90.5 504,-96.5 504,-102.5 504,-102.5 504,-114.5 504,-114.5 504,-120.5 498,-126.5 492,-126.5 492,-126.5 460,-126.5 460,-126.5 454,-126.5 448,-120.5 448,-114.5 448,-114.5 448,-102.5 448,-102.5 448,-96.5 454,-90.5 460,-90.5"/>
<text text-anchor="middle" x="476" y="-105.4" font-family="sans-serif" font-size="12.00">ACKTR</text>
</g>
<!-- A2C&#45;&gt;ACKTR -->
<!-- SVPG -->
<g id="node39" class="node"><title>SVPG</title>
<path fill="none" stroke="black" d="M534,-90.5C534,-90.5 564,-90.5 564,-90.5 570,-90.5 576,-96.5 576,-102.5 576,-102.5 576,-114.5 576,-114.5 576,-120.5 570,-126.5 564,-126.5 564,-126.5 534,-126.5 534,-126.5 528,-126.5 522,-120.5 522,-114.5 522,-114.5 522,-102.5 522,-102.5 522,-96.5 528,-90.5 534,-90.5"/>
<text text-anchor="middle" x="549" y="-105.4" font-family="sans-serif" font-size="12.00">SVPG</text>
</g>
<!-- A2C&#45;&gt;SVPG -->
<!-- IMPALA -->
<g id="node40" class="node"><title>IMPALA</title>
<path fill="none" stroke="black" d="M366.5,-16.5C366.5,-16.5 403.5,-16.5 403.5,-16.5 409.5,-16.5 415.5,-22.5 415.5,-28.5 415.5,-28.5 415.5,-40.5 415.5,-40.5 415.5,-46.5 409.5,-52.5 403.5,-52.5 403.5,-52.5 366.5,-52.5 366.5,-52.5 360.5,-52.5 354.5,-46.5 354.5,-40.5 354.5,-40.5 354.5,-28.5 354.5,-28.5 354.5,-22.5 360.5,-16.5 366.5,-16.5"/>
<text text-anchor="middle" x="385" y="-31.4" font-family="sans-serif" font-size="12.00">IMPALA</text>
</g>
<!-- A2C&#45;&gt;IMPALA -->
</g>
</svg>
