<?xml version="1.0" encoding="UTF-8" standalone="no"?>
<!DOCTYPE svg PUBLIC "-//W3C//DTD SVG 1.1//EN"
 "http://www.w3.org/Graphics/SVG/1.1/DTD/svg11.dtd">
<!-- Generated by graphviz version 2.38.0 (20140413.2041)
 -->
<!-- Title: %3 Pages: 1 -->
<svg width="2045pt" height="1210pt"
 viewBox="0.00 0.00 2045.00 1210.00" xmlns="http://www.w3.org/2000/svg" xmlns:xlink="http://www.w3.org/1999/xlink">
<g id="graph0" class="graph" transform="scale(1 1) rotate(0) translate(4 1206)">
<title>%3</title>
<polygon fill="white" stroke="none" points="-4,4 -4,-1206 2041,-1206 2041,4 -4,4"/>
<g id="clust2" class="cluster"><title>clusterModel Free</title>
<polygon fill="#f7fdff" stroke="black" points="62,-8 62,-1139 1197,-1139 1197,-8 62,-8"/>
<text text-anchor="middle" x="629.5" y="-1122.2" font-family="sans-serif" font-size="16.00">Model Free</text>
</g>
<g id="clust3" class="cluster"><title>clusterValue Gradient</title>
<path fill="#f1f7fe" stroke="black" stroke-dasharray="5,2" d="M774,-16C774,-16 1177,-16 1177,-16 1183,-16 1189,-22 1189,-28 1189,-28 1189,-1004 1189,-1004 1189,-1010 1183,-1016 1177,-1016 1177,-1016 774,-1016 774,-1016 768,-1016 762,-1010 762,-1004 762,-1004 762,-28 762,-28 762,-22 768,-16 774,-16"/>
<text text-anchor="middle" x="975.5" y="-999.2" font-family="sans-serif" font-size="16.00">Value Gradient</text>
</g>
<g id="clust4" class="cluster"><title>clusterPolicy Gradient/Actor&#45;Critic</title>
<path fill="#f1f7fe" stroke="black" stroke-dasharray="5,2" d="M82,-162C82,-162 728,-162 728,-162 734,-162 740,-168 740,-174 740,-174 740,-1004 740,-1004 740,-1010 734,-1016 728,-1016 728,-1016 82,-1016 82,-1016 76,-1016 70,-1010 70,-1004 70,-1004 70,-174 70,-174 70,-168 76,-162 82,-162"/>
<text text-anchor="middle" x="405" y="-999.2" font-family="sans-serif" font-size="16.00">Policy Gradient/Actor&#45;Critic</text>
</g>
<g id="clust5" class="cluster"><title>clusterModel Based</title>
<polygon fill="#f7fdff" stroke="black" points="1205,-89 1205,-1139 1819,-1139 1819,-89 1205,-89"/>
<text text-anchor="middle" x="1512" y="-1122.2" font-family="sans-serif" font-size="16.00">Model Based</text>
</g>
<g id="clust6" class="cluster"><title>clusterMeta&#45;RL</title>
<polygon fill="#f7fdff" stroke="black" points="1827,-162 1827,-1139 2029,-1139 2029,-162 1827,-162"/>
<text text-anchor="middle" x="1928" y="-1122.2" font-family="sans-serif" font-size="16.00">Meta&#45;RL</text>
</g>
<!-- Past -->
<g id="node1" class="node"><title>Past</title>
<text text-anchor="middle" x="27" y="-1057.3" font-family="sans-serif" font-size="14.00" fill="darkblue">Past</text>
</g>
<!-- 1989 -->
<g id="node2" class="node"><title>1989</title>
<text text-anchor="middle" x="27" y="-861.3" font-family="sans-serif" font-size="14.00" fill="darkblue">1989</text>
</g>
<!-- Past&#45;&gt;1989 -->
<g id="edge1" class="edge"><title>Past&#45;&gt;1989</title>
<path fill="none" stroke="darkblue" d="M27,-1042.78C27,-1009.06 27,-934.058 27,-893.428"/>
<polygon fill="darkblue" stroke="darkblue" points="30.5001,-893.178 27,-883.178 23.5001,-893.178 30.5001,-893.178"/>
</g>
<!-- 1992 -->
<g id="node3" class="node"><title>1992</title>
<text text-anchor="middle" x="27" y="-788.3" font-family="sans-serif" font-size="14.00" fill="darkblue">1992</text>
</g>
<!-- 1989&#45;&gt;1992 -->
<g id="edge2" class="edge"><title>1989&#45;&gt;1992</title>
<path fill="none" stroke="darkblue" d="M27,-846.813C27,-838.789 27,-829.047 27,-820.069"/>
<polygon fill="darkblue" stroke="darkblue" points="30.5001,-820.029 27,-810.029 23.5001,-820.029 30.5001,-820.029"/>
</g>
<!-- 1994 -->
<g id="node4" class="node"><title>1994</title>
<text text-anchor="middle" x="27" y="-715.3" font-family="sans-serif" font-size="14.00" fill="darkblue">1994</text>
</g>
<!-- 1992&#45;&gt;1994 -->
<g id="edge3" class="edge"><title>1992&#45;&gt;1994</title>
<path fill="none" stroke="darkblue" d="M27,-773.813C27,-765.789 27,-756.047 27,-747.069"/>
<polygon fill="darkblue" stroke="darkblue" points="30.5001,-747.029 27,-737.029 23.5001,-747.029 30.5001,-747.029"/>
</g>
<!-- 2011 -->
<g id="node5" class="node"><title>2011</title>
<text text-anchor="middle" x="27" y="-642.3" font-family="sans-serif" font-size="14.00" fill="darkblue">2011</text>
</g>
<!-- 1994&#45;&gt;2011 -->
<g id="edge4" class="edge"><title>1994&#45;&gt;2011</title>
<path fill="none" stroke="darkblue" d="M27,-700.813C27,-692.789 27,-683.047 27,-674.069"/>
<polygon fill="darkblue" stroke="darkblue" points="30.5001,-674.029 27,-664.029 23.5001,-674.029 30.5001,-674.029"/>
</g>
<!-- 2013 -->
<g id="node6" class="node"><title>2013</title>
<text text-anchor="middle" x="27" y="-569.3" font-family="sans-serif" font-size="14.00" fill="darkblue">2013</text>
</g>
<!-- 2011&#45;&gt;2013 -->
<g id="edge5" class="edge"><title>2011&#45;&gt;2013</title>
<path fill="none" stroke="darkblue" d="M27,-627.813C27,-619.789 27,-610.047 27,-601.069"/>
<polygon fill="darkblue" stroke="darkblue" points="30.5001,-601.029 27,-591.029 23.5001,-601.029 30.5001,-601.029"/>
</g>
<!-- 2014 -->
<g id="node7" class="node"><title>2014</title>
<text text-anchor="middle" x="27" y="-496.3" font-family="sans-serif" font-size="14.00" fill="darkblue">2014</text>
</g>
<!-- 2013&#45;&gt;2014 -->
<g id="edge6" class="edge"><title>2013&#45;&gt;2014</title>
<path fill="none" stroke="darkblue" d="M27,-554.813C27,-546.789 27,-537.047 27,-528.069"/>
<polygon fill="darkblue" stroke="darkblue" points="30.5001,-528.029 27,-518.029 23.5001,-528.029 30.5001,-528.029"/>
</g>
<!-- 2015 -->
<g id="node8" class="node"><title>2015</title>
<text text-anchor="middle" x="27" y="-423.3" font-family="sans-serif" font-size="14.00" fill="darkblue">2015</text>
</g>
<!-- 2014&#45;&gt;2015 -->
<g id="edge7" class="edge"><title>2014&#45;&gt;2015</title>
<path fill="none" stroke="darkblue" d="M27,-481.813C27,-473.789 27,-464.047 27,-455.069"/>
<polygon fill="darkblue" stroke="darkblue" points="30.5001,-455.029 27,-445.029 23.5001,-455.029 30.5001,-455.029"/>
</g>
<!-- 2016 -->
<g id="node9" class="node"><title>2016</title>
<text text-anchor="middle" x="27" y="-350.3" font-family="sans-serif" font-size="14.00" fill="darkblue">2016</text>
</g>
<!-- 2015&#45;&gt;2016 -->
<g id="edge8" class="edge"><title>2015&#45;&gt;2016</title>
<path fill="none" stroke="darkblue" d="M27,-408.813C27,-400.789 27,-391.047 27,-382.069"/>
<polygon fill="darkblue" stroke="darkblue" points="30.5001,-382.029 27,-372.029 23.5001,-382.029 30.5001,-382.029"/>
</g>
<!-- 2017 -->
<g id="node10" class="node"><title>2017</title>
<text text-anchor="middle" x="27" y="-267.3" font-family="sans-serif" font-size="14.00" fill="darkblue">2017</text>
</g>
<!-- 2016&#45;&gt;2017 -->
<g id="edge9" class="edge"><title>2016&#45;&gt;2017</title>
<path fill="none" stroke="darkblue" d="M27,-335.822C27,-325.19 27,-311.306 27,-299.204"/>
<polygon fill="darkblue" stroke="darkblue" points="30.5001,-299.153 27,-289.153 23.5001,-299.153 30.5001,-299.153"/>
</g>
<!-- 2018 -->
<g id="node11" class="node"><title>2018</title>
<text text-anchor="middle" x="27" y="-184.3" font-family="sans-serif" font-size="14.00" fill="darkblue">2018</text>
</g>
<!-- 2017&#45;&gt;2018 -->
<g id="edge10" class="edge"><title>2017&#45;&gt;2018</title>
<path fill="none" stroke="darkblue" d="M27,-252.822C27,-242.19 27,-228.306 27,-216.204"/>
<polygon fill="darkblue" stroke="darkblue" points="30.5001,-216.153 27,-206.153 23.5001,-216.153 30.5001,-216.153"/>
</g>
<!-- 2019 -->
<g id="node12" class="node"><title>2019</title>
<text text-anchor="middle" x="27" y="-111.3" font-family="sans-serif" font-size="14.00" fill="darkblue">2019</text>
</g>
<!-- 2018&#45;&gt;2019 -->
<g id="edge11" class="edge"><title>2018&#45;&gt;2019</title>
<path fill="none" stroke="darkblue" d="M27,-169.813C27,-161.789 27,-152.047 27,-143.069"/>
<polygon fill="darkblue" stroke="darkblue" points="30.5001,-143.029 27,-133.029 23.5001,-143.029 30.5001,-143.029"/>
</g>
<!-- 2020 -->
<g id="node13" class="node"><title>2020</title>
<text text-anchor="middle" x="27" y="-38.3" font-family="sans-serif" font-size="14.00" fill="darkblue">2020</text>
</g>
<!-- 2019&#45;&gt;2020 -->
<g id="edge12" class="edge"><title>2019&#45;&gt;2020</title>
<path fill="none" stroke="darkblue" d="M27,-96.8129C27,-88.7895 27,-79.0475 27,-70.0691"/>
<polygon fill="darkblue" stroke="darkblue" points="30.5001,-70.0288 27,-60.0288 23.5001,-70.0289 30.5001,-70.0288"/>
</g>
<!-- Reinforcement Learning -->
<g id="node14" class="node"><title>Reinforcement Learning</title>
<path fill="#ffe6cc" stroke="black" stroke-width="2" d="M1584,-1202C1584,-1202 1452,-1202 1452,-1202 1446,-1202 1440,-1196 1440,-1190 1440,-1190 1440,-1178 1440,-1178 1440,-1172 1446,-1166 1452,-1166 1452,-1166 1584,-1166 1584,-1166 1590,-1166 1596,-1172 1596,-1178 1596,-1178 1596,-1190 1596,-1190 1596,-1196 1590,-1202 1584,-1202"/>
<text text-anchor="middle" x="1518" y="-1180.9" font-family="sans-serif" font-size="12.00">Reinforcement Learning</text>
</g>
<!-- Model Free -->
<g id="node15" class="node"><title>Model Free</title>
<path fill="#ffe6cc" stroke="black" stroke-width="2" d="M1010,-1079C1010,-1079 954,-1079 954,-1079 948,-1079 942,-1073 942,-1067 942,-1067 942,-1055 942,-1055 942,-1049 948,-1043 954,-1043 954,-1043 1010,-1043 1010,-1043 1016,-1043 1022,-1049 1022,-1055 1022,-1055 1022,-1067 1022,-1067 1022,-1073 1016,-1079 1010,-1079"/>
<text text-anchor="middle" x="982" y="-1057.9" font-family="sans-serif" font-size="12.00">Model Free</text>
</g>
<!-- Reinforcement Learning&#45;&gt;Model Free -->
<g id="edge84" class="edge"><title>Reinforcement Learning&#45;&gt;Model Free</title>
<path fill="none" stroke="black" d="M1440,-1176.56C1375.33,-1170.18 1281.32,-1158.49 1201,-1139 1141.47,-1124.56 1075.42,-1100.12 1031.58,-1082.65"/>
<polygon fill="black" stroke="black" points="1032.62,-1079.29 1022.03,-1078.81 1030.01,-1085.78 1032.62,-1079.29"/>
</g>
<!-- Model Based -->
<g id="node52" class="node"><title>Model Based</title>
<path fill="#ffe6cc" stroke="black" stroke-width="2" d="M1551,-1079C1551,-1079 1485,-1079 1485,-1079 1479,-1079 1473,-1073 1473,-1067 1473,-1067 1473,-1055 1473,-1055 1473,-1049 1479,-1043 1485,-1043 1485,-1043 1551,-1043 1551,-1043 1557,-1043 1563,-1049 1563,-1055 1563,-1055 1563,-1067 1563,-1067 1563,-1073 1557,-1079 1551,-1079"/>
<text text-anchor="middle" x="1518" y="-1057.9" font-family="sans-serif" font-size="12.00">Model Based</text>
</g>
<!-- Reinforcement Learning&#45;&gt;Model Based -->
<g id="edge85" class="edge"><title>Reinforcement Learning&#45;&gt;Model Based</title>
<path fill="none" stroke="black" d="M1518,-1165.92C1518,-1146.04 1518,-1112.92 1518,-1089.42"/>
<polygon fill="black" stroke="black" points="1521.5,-1089.38 1518,-1079.38 1514.5,-1089.38 1521.5,-1089.38"/>
</g>
<!-- Meta&#45;RL -->
<g id="node67" class="node"><title>Meta&#45;RL</title>
<path fill="#ffe6cc" stroke="black" stroke-width="2" d="M1925,-1079C1925,-1079 1885,-1079 1885,-1079 1879,-1079 1873,-1073 1873,-1067 1873,-1067 1873,-1055 1873,-1055 1873,-1049 1879,-1043 1885,-1043 1885,-1043 1925,-1043 1925,-1043 1931,-1043 1937,-1049 1937,-1055 1937,-1055 1937,-1067 1937,-1067 1937,-1073 1931,-1079 1925,-1079"/>
<text text-anchor="middle" x="1905" y="-1057.9" font-family="sans-serif" font-size="12.00">Meta&#45;RL</text>
</g>
<!-- Reinforcement Learning&#45;&gt;Meta&#45;RL -->
<g id="edge86" class="edge"><title>Reinforcement Learning&#45;&gt;Meta&#45;RL</title>
<path fill="none" stroke="black" d="M1596.09,-1177.1C1672.88,-1170.34 1784.07,-1157.74 1823,-1139 1847.8,-1127.06 1870.15,-1104.93 1885.22,-1087.45"/>
<polygon fill="black" stroke="black" points="1888.3,-1089.22 1892.02,-1079.3 1882.93,-1084.74 1888.3,-1089.22"/>
</g>
<!-- Value Gradient -->
<g id="node16" class="node"><title>Value Gradient</title>
<path fill="#ffe6cc" stroke="black" stroke-width="2" d="M1020.5,-956C1020.5,-956 943.5,-956 943.5,-956 937.5,-956 931.5,-950 931.5,-944 931.5,-944 931.5,-932 931.5,-932 931.5,-926 937.5,-920 943.5,-920 943.5,-920 1020.5,-920 1020.5,-920 1026.5,-920 1032.5,-926 1032.5,-932 1032.5,-932 1032.5,-944 1032.5,-944 1032.5,-950 1026.5,-956 1020.5,-956"/>
<text text-anchor="middle" x="982" y="-934.9" font-family="sans-serif" font-size="12.00">Value Gradient</text>
</g>
<!-- Model Free&#45;&gt;Value Gradient -->
<g id="edge13" class="edge"><title>Model Free&#45;&gt;Value Gradient</title>
<path fill="none" stroke="black" d="M982,-1042.92C982,-1023.04 982,-989.923 982,-966.423"/>
<polygon fill="black" stroke="black" points="985.5,-966.385 982,-956.385 978.5,-966.385 985.5,-966.385"/>
</g>
<!-- Policy Gradient/Actor&#45;Critic -->
<g id="node17" class="node"><title>Policy Gradient/Actor&#45;Critic</title>
<path fill="#ffe6cc" stroke="black" stroke-width="2" d="M303.5,-956C303.5,-956 154.5,-956 154.5,-956 148.5,-956 142.5,-950 142.5,-944 142.5,-944 142.5,-932 142.5,-932 142.5,-926 148.5,-920 154.5,-920 154.5,-920 303.5,-920 303.5,-920 309.5,-920 315.5,-926 315.5,-932 315.5,-932 315.5,-944 315.5,-944 315.5,-950 309.5,-956 303.5,-956"/>
<text text-anchor="middle" x="229" y="-934.9" font-family="sans-serif" font-size="12.00">Policy Gradient/Actor&#45;Critic</text>
</g>
<!-- Model Free&#45;&gt;Policy Gradient/Actor&#45;Critic -->
<g id="edge14" class="edge"><title>Model Free&#45;&gt;Policy Gradient/Actor&#45;Critic</title>
<path fill="none" stroke="black" d="M941.782,-1053.54C826.48,-1035.01 492.392,-981.325 325.806,-954.556"/>
<polygon fill="black" stroke="black" points="325.995,-951.041 315.566,-952.91 324.884,-957.953 325.995,-951.041"/>
</g>
<!-- SARSA -->
<g id="node29" class="node"><title>SARSA</title>
<path fill="#dae8fc" stroke="black" stroke-width="2" d="M1027,-737C1027,-737 995,-737 995,-737 989,-737 983,-731 983,-725 983,-725 983,-713 983,-713 983,-707 989,-701 995,-701 995,-701 1027,-701 1027,-701 1033,-701 1039,-707 1039,-713 1039,-713 1039,-725 1039,-725 1039,-731 1033,-737 1027,-737"/>
<text text-anchor="middle" x="1011" y="-715.9" font-family="sans-serif" font-size="12.00">SARSA</text>
</g>
<!-- Value Gradient&#45;&gt;SARSA -->
<g id="edge21" class="edge"><title>Value Gradient&#45;&gt;SARSA</title>
<path fill="none" stroke="black" d="M988.984,-919.793C992.913,-909.333 997.516,-895.604 1000,-883 1009.26,-835.997 1011.09,-780.061 1011.26,-747.441"/>
<polygon fill="black" stroke="black" points="1014.76,-747.32 1011.27,-737.319 1007.76,-747.318 1014.76,-747.32"/>
</g>
<!-- Q&#45;learning -->
<g id="node30" class="node"><title>Q&#45;learning</title>
<path fill="#dae8fc" stroke="black" stroke-width="2" d="M979.5,-883C979.5,-883 926.5,-883 926.5,-883 920.5,-883 914.5,-877 914.5,-871 914.5,-871 914.5,-859 914.5,-859 914.5,-853 920.5,-847 926.5,-847 926.5,-847 979.5,-847 979.5,-847 985.5,-847 991.5,-853 991.5,-859 991.5,-859 991.5,-871 991.5,-871 991.5,-877 985.5,-883 979.5,-883"/>
<text text-anchor="middle" x="953" y="-861.9" font-family="sans-serif" font-size="12.00">Q&#45;learning</text>
</g>
<!-- Value Gradient&#45;&gt;Q&#45;learning -->
<g id="edge22" class="edge"><title>Value Gradient&#45;&gt;Q&#45;learning</title>
<path fill="none" stroke="black" d="M974.98,-919.813C971.632,-911.615 967.55,-901.623 963.818,-892.485"/>
<polygon fill="black" stroke="black" points="966.977,-890.963 959.955,-883.029 960.497,-893.61 966.977,-890.963"/>
</g>
<!-- A3C -->
<g id="node27" class="node"><title>A3C</title>
<path fill="#dae8fc" stroke="black" stroke-width="2" d="M557,-372C557,-372 527,-372 527,-372 521,-372 515,-366 515,-360 515,-360 515,-348 515,-348 515,-342 521,-336 527,-336 527,-336 557,-336 557,-336 563,-336 569,-342 569,-348 569,-348 569,-360 569,-360 569,-366 563,-372 557,-372"/>
<text text-anchor="middle" x="542" y="-350.9" font-family="sans-serif" font-size="12.00">A3C</text>
</g>
<!-- Policy Gradient/Actor&#45;Critic&#45;&gt;A3C -->
<g id="edge44" class="edge"><title>Policy Gradient/Actor&#45;Critic&#45;&gt;A3C</title>
<path fill="none" stroke="black" d="M315.505,-931.399C396.78,-923.688 506,-905.902 506,-866 506,-866 506,-866 506,-426 506,-409.718 513.624,-393.385 521.856,-380.496"/>
<polygon fill="black" stroke="black" points="524.798,-382.394 527.565,-372.167 519.024,-378.436 524.798,-382.394"/>
</g>
<!-- REINFORCE -->
<g id="node40" class="node"><title>REINFORCE</title>
<path fill="#dae8fc" stroke="black" stroke-width="2" d="M332,-810C332,-810 270,-810 270,-810 264,-810 258,-804 258,-798 258,-798 258,-786 258,-786 258,-780 264,-774 270,-774 270,-774 332,-774 332,-774 338,-774 344,-780 344,-786 344,-786 344,-798 344,-798 344,-804 338,-810 332,-810"/>
<text text-anchor="middle" x="301" y="-788.9" font-family="sans-serif" font-size="12.00">REINFORCE</text>
</g>
<!-- Policy Gradient/Actor&#45;Critic&#45;&gt;REINFORCE -->
<g id="edge40" class="edge"><title>Policy Gradient/Actor&#45;Critic&#45;&gt;REINFORCE</title>
<path fill="none" stroke="black" d="M237.542,-919.916C249.992,-895.016 273.228,-848.544 287.863,-819.273"/>
<polygon fill="black" stroke="black" points="291.127,-820.571 292.469,-810.062 284.866,-817.441 291.127,-820.571"/>
</g>
<!-- DPG -->
<g id="node41" class="node"><title>DPG</title>
<path fill="#dae8fc" stroke="black" stroke-width="2" d="M342,-518C342,-518 312,-518 312,-518 306,-518 300,-512 300,-506 300,-506 300,-494 300,-494 300,-488 306,-482 312,-482 312,-482 342,-482 342,-482 348,-482 354,-488 354,-494 354,-494 354,-506 354,-506 354,-512 348,-518 342,-518"/>
<text text-anchor="middle" x="327" y="-496.9" font-family="sans-serif" font-size="12.00">DPG</text>
</g>
<!-- Policy Gradient/Actor&#45;Critic&#45;&gt;DPG -->
<g id="edge41" class="edge"><title>Policy Gradient/Actor&#45;Critic&#45;&gt;DPG</title>
<path fill="none" stroke="black" d="M232.781,-919.879C235.612,-905.557 239,-884.548 239,-866 239,-866 239,-866 239,-572 239,-544.099 266.126,-525.293 290.258,-514.084"/>
<polygon fill="black" stroke="black" points="291.855,-517.207 299.639,-510.019 289.071,-510.784 291.855,-517.207"/>
</g>
<!-- TRPO -->
<g id="node42" class="node"><title>TRPO</title>
<path fill="#dae8fc" stroke="black" stroke-width="2" d="M575,-445C575,-445 545,-445 545,-445 539,-445 533,-439 533,-433 533,-433 533,-421 533,-421 533,-415 539,-409 545,-409 545,-409 575,-409 575,-409 581,-409 587,-415 587,-421 587,-421 587,-433 587,-433 587,-439 581,-445 575,-445"/>
<text text-anchor="middle" x="560" y="-423.9" font-family="sans-serif" font-size="12.00">TRPO</text>
</g>
<!-- Policy Gradient/Actor&#45;Critic&#45;&gt;TRPO -->
<g id="edge42" class="edge"><title>Policy Gradient/Actor&#45;Critic&#45;&gt;TRPO</title>
<path fill="none" stroke="black" d="M315.712,-933.472C386.015,-929.298 478.56,-920.428 511,-902 528.624,-891.988 539,-886.27 539,-866 539,-866 539,-866 539,-499 539,-483.84 543.457,-467.579 548.264,-454.45"/>
<polygon fill="black" stroke="black" points="551.543,-455.677 551.941,-445.09 545.027,-453.118 551.543,-455.677"/>
</g>
<!-- GAE -->
<g id="node43" class="node"><title>GAE</title>
<path fill="#dae8fc" stroke="black" stroke-width="2" d="M120,-445C120,-445 90,-445 90,-445 84,-445 78,-439 78,-433 78,-433 78,-421 78,-421 78,-415 84,-409 90,-409 90,-409 120,-409 120,-409 126,-409 132,-415 132,-421 132,-421 132,-433 132,-433 132,-439 126,-445 120,-445"/>
<text text-anchor="middle" x="105" y="-423.9" font-family="sans-serif" font-size="12.00">GAE</text>
</g>
<!-- Policy Gradient/Actor&#45;Critic&#45;&gt;GAE -->
<g id="edge43" class="edge"><title>Policy Gradient/Actor&#45;Critic&#45;&gt;GAE</title>
<path fill="none" stroke="black" d="M164.752,-919.912C140.205,-909.159 118,-892.193 118,-866 118,-866 118,-866 118,-499 118,-484.267 115.258,-468.091 112.293,-454.905"/>
<polygon fill="black" stroke="black" points="115.664,-453.956 109.915,-445.056 108.86,-455.599 115.664,-453.956"/>
</g>
<!-- ACKTR -->
<g id="node44" class="node"><title>ACKTR</title>
<path fill="#dae8fc" stroke="black" stroke-width="2" d="M162,-289C162,-289 130,-289 130,-289 124,-289 118,-283 118,-277 118,-277 118,-265 118,-265 118,-259 124,-253 130,-253 130,-253 162,-253 162,-253 168,-253 174,-259 174,-265 174,-265 174,-277 174,-277 174,-283 168,-289 162,-289"/>
<text text-anchor="middle" x="146" y="-267.9" font-family="sans-serif" font-size="12.00">ACKTR</text>
</g>
<!-- Policy Gradient/Actor&#45;Critic&#45;&gt;ACKTR -->
<g id="edge45" class="edge"><title>Policy Gradient/Actor&#45;Critic&#45;&gt;ACKTR</title>
<path fill="none" stroke="black" d="M213.763,-919.964C203.191,-906.358 191,-886.272 191,-866 191,-866 191,-866 191,-353 191,-332.56 179.914,-312.455 168.747,-297.389"/>
<polygon fill="black" stroke="black" points="171.183,-294.826 162.246,-289.136 165.685,-299.158 171.183,-294.826"/>
</g>
<!-- SVPG -->
<g id="node45" class="node"><title>SVPG</title>
<path fill="#dae8fc" stroke="black" stroke-width="2" d="M234,-289C234,-289 204,-289 204,-289 198,-289 192,-283 192,-277 192,-277 192,-265 192,-265 192,-259 198,-253 204,-253 204,-253 234,-253 234,-253 240,-253 246,-259 246,-265 246,-265 246,-277 246,-277 246,-283 240,-289 234,-289"/>
<text text-anchor="middle" x="219" y="-267.9" font-family="sans-serif" font-size="12.00">SVPG</text>
</g>
<!-- Policy Gradient/Actor&#45;Critic&#45;&gt;SVPG -->
<g id="edge46" class="edge"><title>Policy Gradient/Actor&#45;Critic&#45;&gt;SVPG</title>
<path fill="none" stroke="black" d="M225.219,-919.879C222.388,-905.557 219,-884.548 219,-866 219,-866 219,-866 219,-353 219,-335.062 219,-314.888 219,-299.162"/>
<polygon fill="black" stroke="black" points="222.5,-299.066 219,-289.066 215.5,-299.066 222.5,-299.066"/>
</g>
<!-- SAC -->
<g id="node46" class="node"><title>SAC</title>
<path fill="#dae8fc" stroke="black" stroke-width="2" d="M542,-206C542,-206 512,-206 512,-206 506,-206 500,-200 500,-194 500,-194 500,-182 500,-182 500,-176 506,-170 512,-170 512,-170 542,-170 542,-170 548,-170 554,-176 554,-182 554,-182 554,-194 554,-194 554,-200 548,-206 542,-206"/>
<text text-anchor="middle" x="527" y="-184.9" font-family="sans-serif" font-size="12.00">SAC</text>
</g>
<!-- Policy Gradient/Actor&#45;Critic&#45;&gt;SAC -->
<g id="edge47" class="edge"><title>Policy Gradient/Actor&#45;Critic&#45;&gt;SAC</title>
<path fill="none" stroke="black" d="M203.729,-919.928C188.099,-907.154 171,-888.124 171,-866 171,-866 171,-866 171,-463 171,-414.342 76.8406,-289.515 109,-253 163.634,-190.966 397.52,-224.871 478,-206 481.931,-205.078 485.989,-203.958 490.008,-202.736"/>
<polygon fill="black" stroke="black" points="491.394,-205.966 499.824,-199.549 489.232,-199.308 491.394,-205.966"/>
</g>
<!-- IMPALA -->
<g id="node47" class="node"><title>IMPALA</title>
<path fill="#dae8fc" stroke="black" stroke-width="2" d="M201.5,-206C201.5,-206 164.5,-206 164.5,-206 158.5,-206 152.5,-200 152.5,-194 152.5,-194 152.5,-182 152.5,-182 152.5,-176 158.5,-170 164.5,-170 164.5,-170 201.5,-170 201.5,-170 207.5,-170 213.5,-176 213.5,-182 213.5,-182 213.5,-194 213.5,-194 213.5,-200 207.5,-206 201.5,-206"/>
<text text-anchor="middle" x="183" y="-184.9" font-family="sans-serif" font-size="12.00">IMPALA</text>
</g>
<!-- Policy Gradient/Actor&#45;Critic&#45;&gt;IMPALA -->
<g id="edge48" class="edge"><title>Policy Gradient/Actor&#45;Critic&#45;&gt;IMPALA</title>
<path fill="none" stroke="black" d="M188.758,-919.939C180.463,-915.056 172.336,-909.091 166,-902 154.451,-889.075 151,-883.333 151,-866 151,-866 151,-866 151,-463 151,-438.592 149.731,-431.793 141,-409 137.646,-400.245 134.458,-399.248 130,-391 107.144,-348.707 101.529,-336.481 94,-289 91.4943,-273.197 86.7013,-267.238 94,-253 104.445,-232.624 124.73,-217.264 143.299,-206.706"/>
<polygon fill="black" stroke="black" points="145.075,-209.725 152.226,-201.908 141.761,-203.56 145.075,-209.725"/>
</g>
<!-- DQN -->
<g id="node18" class="node"><title>DQN</title>
<path fill="#dae8fc" stroke="black" stroke-width="2" d="M968,-591C968,-591 938,-591 938,-591 932,-591 926,-585 926,-579 926,-579 926,-567 926,-567 926,-561 932,-555 938,-555 938,-555 968,-555 968,-555 974,-555 980,-561 980,-567 980,-567 980,-579 980,-579 980,-585 974,-591 968,-591"/>
<text text-anchor="middle" x="953" y="-569.9" font-family="sans-serif" font-size="12.00">DQN</text>
</g>
<!-- DDPG -->
<g id="node19" class="node"><title>DDPG</title>
<path fill="#dae8fc" stroke="black" stroke-width="2" d="M394,-445C394,-445 364,-445 364,-445 358,-445 352,-439 352,-433 352,-433 352,-421 352,-421 352,-415 358,-409 364,-409 364,-409 394,-409 394,-409 400,-409 406,-415 406,-421 406,-421 406,-433 406,-433 406,-439 400,-445 394,-445"/>
<text text-anchor="middle" x="379" y="-423.9" font-family="sans-serif" font-size="12.00">DDPG</text>
</g>
<!-- DQN&#45;&gt;DDPG -->
<g id="edge15" class="edge"><title>DQN&#45;&gt;DDPG</title>
<path fill="none" stroke="darkgray" stroke-dasharray="5,2" d="M925.701,-565.151C831.921,-541.625 522.838,-464.085 415.842,-437.242"/>
<polygon fill="darkgray" stroke="darkgray" points="416.683,-433.845 406.132,-434.807 414.98,-440.635 416.683,-433.845"/>
<text text-anchor="middle" x="763.5" y="-497.5" font-family="sans-serif" font-size="10.00" fill="darkgray">replay buffer</text>
</g>
<!-- ACER -->
<g id="node20" class="node"><title>ACER</title>
<path fill="#dae8fc" stroke="black" stroke-width="2" d="M648,-289C648,-289 618,-289 618,-289 612,-289 606,-283 606,-277 606,-277 606,-265 606,-265 606,-259 612,-253 618,-253 618,-253 648,-253 648,-253 654,-253 660,-259 660,-265 660,-265 660,-277 660,-277 660,-283 654,-289 648,-289"/>
<text text-anchor="middle" x="633" y="-267.9" font-family="sans-serif" font-size="12.00">ACER</text>
</g>
<!-- DQN&#45;&gt;ACER -->
<g id="edge16" class="edge"><title>DQN&#45;&gt;ACER</title>
<path fill="none" stroke="darkgray" stroke-dasharray="5,2" d="M925.652,-568.961C871.609,-562.422 753.859,-545.355 725,-518 719.284,-512.582 720,-508.876 720,-501 720,-501 720,-501 720,-353 720,-328.346 706.73,-324.13 689,-307 683.087,-301.287 676.091,-296.028 669.085,-291.417"/>
<polygon fill="darkgray" stroke="darkgray" points="670.623,-288.251 660.284,-285.937 666.923,-294.194 670.623,-288.251"/>
<text text-anchor="middle" x="750.5" y="-424.5" font-family="sans-serif" font-size="10.00" fill="darkgray">replay buffer</text>
</g>
<!-- DDQN -->
<g id="node21" class="node"><title>DDQN</title>
<path fill="#dae8fc" stroke="black" stroke-width="2" d="M1022,-445C1022,-445 992,-445 992,-445 986,-445 980,-439 980,-433 980,-433 980,-421 980,-421 980,-415 986,-409 992,-409 992,-409 1022,-409 1022,-409 1028,-409 1034,-415 1034,-421 1034,-421 1034,-433 1034,-433 1034,-439 1028,-445 1022,-445"/>
<text text-anchor="middle" x="1007" y="-423.9" font-family="sans-serif" font-size="12.00">DDQN</text>
</g>
<!-- DQN&#45;&gt;DDQN -->
<g id="edge25" class="edge"><title>DQN&#45;&gt;DDQN</title>
<path fill="none" stroke="black" d="M959.407,-554.916C968.703,-530.125 986.02,-483.948 997.004,-454.656"/>
<polygon fill="black" stroke="black" points="1000.37,-455.654 1000.6,-445.062 993.813,-453.196 1000.37,-455.654"/>
</g>
<!-- DQN+HER -->
<g id="node23" class="node"><title>DQN+HER</title>
<path fill="#dae8fc" stroke="black" stroke-width="2" d="M837.5,-289C837.5,-289 782.5,-289 782.5,-289 776.5,-289 770.5,-283 770.5,-277 770.5,-277 770.5,-265 770.5,-265 770.5,-259 776.5,-253 782.5,-253 782.5,-253 837.5,-253 837.5,-253 843.5,-253 849.5,-259 849.5,-265 849.5,-265 849.5,-277 849.5,-277 849.5,-283 843.5,-289 837.5,-289"/>
<text text-anchor="middle" x="810" y="-267.9" font-family="sans-serif" font-size="12.00">DQN+HER</text>
</g>
<!-- DQN&#45;&gt;DQN+HER -->
<g id="edge29" class="edge"><title>DQN&#45;&gt;DQN+HER</title>
<path fill="none" stroke="black" d="M925.747,-566.55C893.753,-558.378 845,-539.595 845,-501 845,-501 845,-501 845,-353 845,-332.435 848.168,-325.873 840,-307 838.514,-303.566 836.57,-300.22 834.385,-297.042"/>
<polygon fill="black" stroke="black" points="837.094,-294.824 828.188,-289.085 831.572,-299.126 837.094,-294.824"/>
</g>
<!-- APE&#45;X DQN -->
<g id="node25" class="node"><title>APE&#45;X DQN</title>
<path fill="#dae8fc" stroke="black" stroke-width="2" d="M899,-206C899,-206 839,-206 839,-206 833,-206 827,-200 827,-194 827,-194 827,-182 827,-182 827,-176 833,-170 839,-170 839,-170 899,-170 899,-170 905,-170 911,-176 911,-182 911,-182 911,-194 911,-194 911,-200 905,-206 899,-206"/>
<text text-anchor="middle" x="869" y="-184.9" font-family="sans-serif" font-size="12.00">APE&#45;X DQN</text>
</g>
<!-- DQN&#45;&gt;APE&#45;X DQN -->
<g id="edge31" class="edge"><title>DQN&#45;&gt;APE&#45;X DQN</title>
<path fill="none" stroke="black" d="M925.959,-562.221C901.404,-551.397 869,-531.361 869,-501 869,-501 869,-501 869,-270 869,-252.062 869,-231.888 869,-216.162"/>
<polygon fill="black" stroke="black" points="872.5,-216.066 869,-206.066 865.5,-216.066 872.5,-216.066"/>
</g>
<!-- DRQN -->
<g id="node31" class="node"><title>DRQN</title>
<path fill="#dae8fc" stroke="black" stroke-width="2" d="M950,-445C950,-445 920,-445 920,-445 914,-445 908,-439 908,-433 908,-433 908,-421 908,-421 908,-415 914,-409 920,-409 920,-409 950,-409 950,-409 956,-409 962,-415 962,-421 962,-421 962,-433 962,-433 962,-439 956,-445 950,-445"/>
<text text-anchor="middle" x="935" y="-423.9" font-family="sans-serif" font-size="12.00">DRQN</text>
</g>
<!-- DQN&#45;&gt;DRQN -->
<g id="edge24" class="edge"><title>DQN&#45;&gt;DRQN</title>
<path fill="none" stroke="black" d="M950.864,-554.916C947.779,-530.233 942.044,-484.351 938.38,-455.041"/>
<polygon fill="black" stroke="black" points="941.846,-454.551 937.133,-445.062 934.9,-455.419 941.846,-454.551"/>
</g>
<!-- PER -->
<g id="node32" class="node"><title>PER</title>
<path fill="#dae8fc" stroke="black" stroke-width="2" d="M1094,-445C1094,-445 1064,-445 1064,-445 1058,-445 1052,-439 1052,-433 1052,-433 1052,-421 1052,-421 1052,-415 1058,-409 1064,-409 1064,-409 1094,-409 1094,-409 1100,-409 1106,-415 1106,-421 1106,-421 1106,-433 1106,-433 1106,-439 1100,-445 1094,-445"/>
<text text-anchor="middle" x="1079" y="-423.9" font-family="sans-serif" font-size="12.00">PER</text>
</g>
<!-- DQN&#45;&gt;PER -->
<g id="edge26" class="edge"><title>DQN&#45;&gt;PER</title>
<path fill="none" stroke="black" d="M967.949,-554.916C990.114,-529.583 1031.82,-481.921 1057.33,-452.762"/>
<polygon fill="black" stroke="black" points="1060.12,-454.893 1064.07,-445.062 1054.85,-450.283 1060.12,-454.893"/>
</g>
<!-- QR&#45;DQN -->
<g id="node33" class="node"><title>QR&#45;DQN</title>
<path fill="#dae8fc" stroke="black" stroke-width="2" d="M943.5,-289C943.5,-289 900.5,-289 900.5,-289 894.5,-289 888.5,-283 888.5,-277 888.5,-277 888.5,-265 888.5,-265 888.5,-259 894.5,-253 900.5,-253 900.5,-253 943.5,-253 943.5,-253 949.5,-253 955.5,-259 955.5,-265 955.5,-265 955.5,-277 955.5,-277 955.5,-283 949.5,-289 943.5,-289"/>
<text text-anchor="middle" x="922" y="-267.9" font-family="sans-serif" font-size="12.00">QR&#45;DQN</text>
</g>
<!-- DQN&#45;&gt;QR&#45;DQN -->
<g id="edge27" class="edge"><title>DQN&#45;&gt;QR&#45;DQN</title>
<path fill="none" stroke="black" d="M925.858,-556.055C908.415,-543.561 889,-524.399 889,-501 889,-501 889,-501 889,-353 889,-333.635 897.19,-313.462 905.409,-298.092"/>
<polygon fill="black" stroke="black" points="908.568,-299.618 910.458,-289.193 902.479,-296.163 908.568,-299.618"/>
</g>
<!-- C51 -->
<g id="node34" class="node"><title>C51</title>
<path fill="#dae8fc" stroke="black" stroke-width="2" d="M1129,-289C1129,-289 1099,-289 1099,-289 1093,-289 1087,-283 1087,-277 1087,-277 1087,-265 1087,-265 1087,-259 1093,-253 1099,-253 1099,-253 1129,-253 1129,-253 1135,-253 1141,-259 1141,-265 1141,-265 1141,-277 1141,-277 1141,-283 1135,-289 1129,-289"/>
<text text-anchor="middle" x="1114" y="-267.9" font-family="sans-serif" font-size="12.00">C51</text>
</g>
<!-- DQN&#45;&gt;C51 -->
<g id="edge28" class="edge"><title>DQN&#45;&gt;C51</title>
<path fill="none" stroke="black" d="M980.254,-572.531C1028.75,-571.904 1125,-562.864 1125,-501 1125,-501 1125,-501 1125,-353 1125,-335.012 1122.3,-314.98 1119.58,-299.338"/>
<polygon fill="black" stroke="black" points="1122.98,-298.486 1117.72,-289.289 1116.1,-299.758 1122.98,-298.486"/>
</g>
<!-- IQN -->
<g id="node35" class="node"><title>IQN</title>
<path fill="#dae8fc" stroke="black" stroke-width="2" d="M1149,-206C1149,-206 1119,-206 1119,-206 1113,-206 1107,-200 1107,-194 1107,-194 1107,-182 1107,-182 1107,-176 1113,-170 1119,-170 1119,-170 1149,-170 1149,-170 1155,-170 1161,-176 1161,-182 1161,-182 1161,-194 1161,-194 1161,-200 1155,-206 1149,-206"/>
<text text-anchor="middle" x="1134" y="-184.9" font-family="sans-serif" font-size="12.00">IQN</text>
</g>
<!-- DQN&#45;&gt;IQN -->
<g id="edge30" class="edge"><title>DQN&#45;&gt;IQN</title>
<path fill="none" stroke="black" d="M980.062,-568.51C1036.17,-560.516 1160,-538.613 1160,-501 1160,-501 1160,-501 1160,-270 1160,-251.221 1153.59,-231.115 1147.13,-215.632"/>
<polygon fill="black" stroke="black" points="1150.2,-213.913 1142.95,-206.186 1143.8,-216.747 1150.2,-213.913"/>
</g>
<!-- R2D2 -->
<g id="node36" class="node"><title>R2D2</title>
<path fill="#dae8fc" stroke="black" stroke-width="2" d="M1118,-133C1118,-133 1088,-133 1088,-133 1082,-133 1076,-127 1076,-121 1076,-121 1076,-109 1076,-109 1076,-103 1082,-97 1088,-97 1088,-97 1118,-97 1118,-97 1124,-97 1130,-103 1130,-109 1130,-109 1130,-121 1130,-121 1130,-127 1124,-133 1118,-133"/>
<text text-anchor="middle" x="1103" y="-111.9" font-family="sans-serif" font-size="12.00">R2D2</text>
</g>
<!-- DQN&#45;&gt;R2D2 -->
<g id="edge32" class="edge"><title>DQN&#45;&gt;R2D2</title>
<path fill="none" stroke="black" d="M980.382,-569.273C1040.76,-562.501 1180,-542.396 1180,-501 1180,-501 1180,-501 1180,-187 1180,-162.765 1159.13,-144.521 1139.12,-132.598"/>
<polygon fill="black" stroke="black" points="1140.8,-129.529 1130.36,-127.721 1137.4,-135.644 1140.8,-129.529"/>
</g>
<!-- TD3 -->
<g id="node22" class="node"><title>TD3</title>
<path fill="#dae8fc" stroke="black" stroke-width="2" d="M667,-206C667,-206 637,-206 637,-206 631,-206 625,-200 625,-194 625,-194 625,-182 625,-182 625,-176 631,-170 637,-170 637,-170 667,-170 667,-170 673,-170 679,-176 679,-182 679,-182 679,-194 679,-194 679,-200 673,-206 667,-206"/>
<text text-anchor="middle" x="652" y="-184.9" font-family="sans-serif" font-size="12.00">TD3</text>
</g>
<!-- DDPG&#45;&gt;TD3 -->
<g id="edge54" class="edge"><title>DDPG&#45;&gt;TD3</title>
<path fill="none" stroke="black" d="M381.933,-408.89C389.176,-367.464 408.112,-264.342 419,-253 432.691,-238.738 552.555,-210.778 614.807,-197.026"/>
<polygon fill="black" stroke="black" points="615.624,-200.43 624.64,-194.866 614.122,-193.593 615.624,-200.43"/>
</g>
<!-- DDPG+HER -->
<g id="node24" class="node"><title>DDPG+HER</title>
<path fill="#dae8fc" stroke="black" stroke-width="2" d="M338,-289C338,-289 276,-289 276,-289 270,-289 264,-283 264,-277 264,-277 264,-265 264,-265 264,-259 270,-253 276,-253 276,-253 338,-253 338,-253 344,-253 350,-259 350,-265 350,-265 350,-277 350,-277 350,-283 344,-289 338,-289"/>
<text text-anchor="middle" x="307" y="-267.9" font-family="sans-serif" font-size="12.00">DDPG+HER</text>
</g>
<!-- DDPG&#45;&gt;DDPG+HER -->
<g id="edge50" class="edge"><title>DDPG&#45;&gt;DDPG+HER</title>
<path fill="none" stroke="darkgray" stroke-dasharray="5,2" d="M371.02,-408.931C358.477,-382.104 334.06,-329.878 319.272,-298.249"/>
<polygon fill="darkgray" stroke="darkgray" points="322.422,-296.722 315.016,-289.146 316.081,-299.687 322.422,-296.722"/>
</g>
<!-- APE&#45;X DDPG -->
<g id="node26" class="node"><title>APE&#45;X DDPG</title>
<path fill="#dae8fc" stroke="black" stroke-width="2" d="M457.5,-206C457.5,-206 390.5,-206 390.5,-206 384.5,-206 378.5,-200 378.5,-194 378.5,-194 378.5,-182 378.5,-182 378.5,-176 384.5,-170 390.5,-170 390.5,-170 457.5,-170 457.5,-170 463.5,-170 469.5,-176 469.5,-182 469.5,-182 469.5,-194 469.5,-194 469.5,-200 463.5,-206 457.5,-206"/>
<text text-anchor="middle" x="424" y="-184.9" font-family="sans-serif" font-size="12.00">APE&#45;X DDPG</text>
</g>
<!-- DDPG&#45;&gt;APE&#45;X DDPG -->
<g id="edge53" class="edge"><title>DDPG&#45;&gt;APE&#45;X DDPG</title>
<path fill="none" stroke="black" d="M378.873,-408.743C379.098,-373.215 382.138,-289.72 404,-224 404.984,-221.041 406.232,-218.051 407.622,-215.132"/>
<polygon fill="black" stroke="black" points="410.785,-216.638 412.395,-206.166 404.606,-213.348 410.785,-216.638"/>
</g>
<!-- MADDPG -->
<g id="node48" class="node"><title>MADDPG</title>
<path fill="#dae8fc" stroke="black" stroke-width="2" d="M485.5,-289C485.5,-289 440.5,-289 440.5,-289 434.5,-289 428.5,-283 428.5,-277 428.5,-277 428.5,-265 428.5,-265 428.5,-259 434.5,-253 440.5,-253 440.5,-253 485.5,-253 485.5,-253 491.5,-253 497.5,-259 497.5,-265 497.5,-265 497.5,-277 497.5,-277 497.5,-283 491.5,-289 485.5,-289"/>
<text text-anchor="middle" x="463" y="-267.9" font-family="sans-serif" font-size="12.00">MADDPG</text>
</g>
<!-- DDPG&#45;&gt;MADDPG -->
<g id="edge51" class="edge"><title>DDPG&#45;&gt;MADDPG</title>
<path fill="none" stroke="black" d="M399.017,-408.693C404.359,-403.394 409.805,-397.292 414,-391 433.389,-361.917 447.38,-323.938 455.329,-298.798"/>
<polygon fill="black" stroke="black" points="458.688,-299.781 458.269,-289.194 451.995,-297.731 458.688,-299.781"/>
</g>
<!-- D4PG -->
<g id="node49" class="node"><title>D4PG</title>
<path fill="#dae8fc" stroke="black" stroke-width="2" d="M348,-206C348,-206 318,-206 318,-206 312,-206 306,-200 306,-194 306,-194 306,-182 306,-182 306,-176 312,-170 318,-170 318,-170 348,-170 348,-170 354,-170 360,-176 360,-182 360,-182 360,-194 360,-194 360,-200 354,-206 348,-206"/>
<text text-anchor="middle" x="333" y="-184.9" font-family="sans-serif" font-size="12.00">D4PG</text>
</g>
<!-- DDPG&#45;&gt;D4PG -->
<g id="edge52" class="edge"><title>DDPG&#45;&gt;D4PG</title>
<path fill="none" stroke="black" d="M377.272,-408.736C373.151,-367.937 362.803,-267.865 359,-253 355.758,-240.329 350.56,-226.84 345.661,-215.528"/>
<polygon fill="black" stroke="black" points="348.774,-213.917 341.489,-206.224 342.386,-216.781 348.774,-213.917"/>
</g>
<!-- DDQN&#45;&gt;TD3 -->
<g id="edge17" class="edge"><title>DDQN&#45;&gt;TD3</title>
<path fill="none" stroke="darkgray" stroke-dasharray="5,2" d="M979.93,-413.066C976.925,-411.676 973.903,-410.296 971,-409 875.88,-366.527 821.478,-398.202 755,-318 736.142,-295.248 751.719,-280.539 741,-253 735.581,-239.077 734.967,-234.146 724,-224 713.937,-214.691 700.94,-207.359 688.764,-201.863"/>
<polygon fill="darkgray" stroke="darkgray" points="689.821,-198.511 679.247,-197.847 687.099,-204.96 689.821,-198.511"/>
<text text-anchor="middle" x="797.5" y="-310" font-family="sans-serif" font-size="10.00" fill="darkgray">double Q&#45;learning</text>
</g>
<!-- RAINBOW -->
<g id="node28" class="node"><title>RAINBOW</title>
<path fill="#dae8fc" stroke="black" stroke-width="2" d="M1056.5,-289C1056.5,-289 1003.5,-289 1003.5,-289 997.5,-289 991.5,-283 991.5,-277 991.5,-277 991.5,-265 991.5,-265 991.5,-259 997.5,-253 1003.5,-253 1003.5,-253 1056.5,-253 1056.5,-253 1062.5,-253 1068.5,-259 1068.5,-265 1068.5,-265 1068.5,-277 1068.5,-277 1068.5,-283 1062.5,-289 1056.5,-289"/>
<text text-anchor="middle" x="1030" y="-267.9" font-family="sans-serif" font-size="12.00">RAINBOW</text>
</g>
<!-- DDQN&#45;&gt;RAINBOW -->
<g id="edge34" class="edge"><title>DDQN&#45;&gt;RAINBOW</title>
<path fill="none" stroke="darkgray" stroke-dasharray="5,2" d="M1014.96,-408.904C1019.4,-398.483 1024.52,-384.757 1027,-372 1031.73,-347.722 1032.12,-319.51 1031.55,-299.254"/>
<polygon fill="darkgray" stroke="darkgray" points="1035.04,-299.03 1031.16,-289.172 1028.04,-299.299 1035.04,-299.03"/>
</g>
<!-- Duelling&#45;DQN -->
<g id="node37" class="node"><title>Duelling&#45;DQN</title>
<path fill="#dae8fc" stroke="black" stroke-width="2" d="M1006,-372C1006,-372 936,-372 936,-372 930,-372 924,-366 924,-360 924,-360 924,-348 924,-348 924,-342 930,-336 936,-336 936,-336 1006,-336 1006,-336 1012,-336 1018,-342 1018,-348 1018,-348 1018,-360 1018,-360 1018,-366 1012,-372 1006,-372"/>
<text text-anchor="middle" x="971" y="-350.9" font-family="sans-serif" font-size="12.00">Duelling&#45;DQN</text>
</g>
<!-- DDQN&#45;&gt;Duelling&#45;DQN -->
<g id="edge33" class="edge"><title>DDQN&#45;&gt;Duelling&#45;DQN</title>
<path fill="none" stroke="black" d="M998.285,-408.813C994.085,-400.528 988.955,-390.41 984.281,-381.193"/>
<polygon fill="black" stroke="black" points="987.278,-379.365 979.634,-372.029 981.035,-382.531 987.278,-379.365"/>
</g>
<!-- DQN+HER&#45;&gt;DDPG+HER -->
<g id="edge18" class="edge"><title>DQN+HER&#45;&gt;DDPG+HER</title>
<path fill="none" stroke="darkgray" stroke-dasharray="5,2" d="M770.278,-287.654C746.103,-296.868 714.327,-307.368 685,-312 621.347,-322.053 434.905,-292.921 350.003,-278.529"/>
<text text-anchor="middle" x="675" y="-310" font-family="sans-serif" font-size="10.00" fill="darkgray">HER</text>
</g>
<!-- APE&#45;X DQN&#45;&gt;APE&#45;X DDPG -->
<g id="edge19" class="edge"><title>APE&#45;X DQN&#45;&gt;APE&#45;X DDPG</title>
<path fill="none" stroke="darkgray" stroke-dasharray="5,2" d="M826.777,-203.307C797.414,-213.113 757.123,-224.921 720.5,-230 631.668,-242.32 527.927,-218.967 469.703,-202.422"/>
<text text-anchor="middle" x="706" y="-227" font-family="sans-serif" font-size="10.00" fill="darkgray">APE&#45;X</text>
</g>
<!-- A3C&#45;&gt;ACER -->
<g id="edge59" class="edge"><title>A3C&#45;&gt;ACER</title>
<path fill="none" stroke="black" d="M561.299,-335.822C574.329,-324.224 591.708,-308.755 606.092,-295.951"/>
<polygon fill="black" stroke="black" points="608.587,-298.416 613.729,-289.153 603.932,-293.188 608.587,-298.416"/>
</g>
<!-- A3C&#45;&gt;RAINBOW -->
<g id="edge20" class="edge"><title>A3C&#45;&gt;RAINBOW</title>
<path fill="none" stroke="darkgray" stroke-dasharray="5,2" d="M569.041,-340.788C573.637,-339.003 578.409,-337.323 583,-336 628.916,-322.765 642.258,-327.93 689,-318 708.296,-313.901 712.538,-310.219 732,-307 834.034,-290.121 861.98,-305.963 964,-289 969.544,-288.078 975.303,-286.913 981.007,-285.627"/>
<polygon fill="darkgray" stroke="darkgray" points="982.238,-288.931 991.154,-283.207 980.615,-282.122 982.238,-288.931"/>
</g>
<!-- A2C -->
<g id="node51" class="node"><title>A2C</title>
<path fill="#dae8fc" stroke="black" stroke-width="2" d="M558,-289C558,-289 528,-289 528,-289 522,-289 516,-283 516,-277 516,-277 516,-265 516,-265 516,-259 522,-253 528,-253 528,-253 558,-253 558,-253 564,-253 570,-259 570,-265 570,-265 570,-277 570,-277 570,-283 564,-289 558,-289"/>
<text text-anchor="middle" x="543" y="-267.9" font-family="sans-serif" font-size="12.00">A2C</text>
</g>
<!-- A3C&#45;&gt;A2C -->
<g id="edge58" class="edge"><title>A3C&#45;&gt;A2C</title>
<path fill="none" stroke="black" d="M542.212,-335.822C542.343,-325.19 542.515,-311.306 542.664,-299.204"/>
<polygon fill="black" stroke="black" points="546.164,-299.196 542.788,-289.153 539.165,-299.109 546.164,-299.196"/>
</g>
<!-- Q&#45;learning&#45;&gt;DQN -->
<g id="edge23" class="edge"><title>Q&#45;learning&#45;&gt;DQN</title>
<path fill="none" stroke="black" d="M953,-846.784C953,-832.405 953,-811.366 953,-793 953,-793 953,-793 953,-645 953,-630.651 953,-614.671 953,-601.511"/>
<polygon fill="black" stroke="black" points="956.5,-601.216 953,-591.216 949.5,-601.216 956.5,-601.216"/>
</g>
<!-- PER&#45;&gt;RAINBOW -->
<g id="edge35" class="edge"><title>PER&#45;&gt;RAINBOW</title>
<path fill="none" stroke="darkgray" stroke-dasharray="5,2" d="M1073.57,-408.931C1065.11,-382.335 1048.7,-330.776 1038.61,-299.072"/>
<polygon fill="darkgray" stroke="darkgray" points="1041.82,-297.614 1035.46,-289.146 1035.15,-299.736 1041.82,-297.614"/>
</g>
<!-- QR&#45;DQN&#45;&gt;RAINBOW -->
<g id="edge37" class="edge"><title>QR&#45;DQN&#45;&gt;RAINBOW</title>
<path fill="none" stroke="darkgray" stroke-dasharray="5,2" d="M955.75,-271C964.297,-271 972.844,-271 981.391,-271"/>
<polygon fill="darkgray" stroke="darkgray" points="981.425,-274.5 991.425,-271 981.425,-267.5 981.425,-274.5"/>
</g>
<!-- NGU -->
<g id="node38" class="node"><title>NGU</title>
<path fill="#dae8fc" stroke="black" stroke-width="2" d="M1067,-60C1067,-60 1037,-60 1037,-60 1031,-60 1025,-54 1025,-48 1025,-48 1025,-36 1025,-36 1025,-30 1031,-24 1037,-24 1037,-24 1067,-24 1067,-24 1073,-24 1079,-30 1079,-36 1079,-36 1079,-48 1079,-48 1079,-54 1073,-60 1067,-60"/>
<text text-anchor="middle" x="1052" y="-38.9" font-family="sans-serif" font-size="12.00">NGU</text>
</g>
<!-- R2D2&#45;&gt;NGU -->
<g id="edge38" class="edge"><title>R2D2&#45;&gt;NGU</title>
<path fill="none" stroke="black" d="M1090.65,-96.8129C1084.52,-88.2662 1076.98,-77.7695 1070.19,-68.3229"/>
<polygon fill="black" stroke="black" points="1072.91,-66.1088 1064.23,-60.0288 1067.22,-70.1926 1072.91,-66.1088"/>
</g>
<!-- Duelling&#45;DQN&#45;&gt;RAINBOW -->
<g id="edge36" class="edge"><title>Duelling&#45;DQN&#45;&gt;RAINBOW</title>
<path fill="none" stroke="darkgray" stroke-dasharray="5,2" d="M983.512,-335.822C991.648,-324.653 1002.4,-309.895 1011.51,-297.384"/>
<polygon fill="darkgray" stroke="darkgray" points="1014.45,-299.297 1017.51,-289.153 1008.79,-295.176 1014.45,-299.297"/>
</g>
<!-- Agent57 -->
<g id="node39" class="node"><title>Agent57</title>
<path fill="#dae8fc" stroke="black" stroke-width="2" d="M1169,-60C1169,-60 1127,-60 1127,-60 1121,-60 1115,-54 1115,-48 1115,-48 1115,-36 1115,-36 1115,-30 1121,-24 1127,-24 1127,-24 1169,-24 1169,-24 1175,-24 1181,-30 1181,-36 1181,-36 1181,-48 1181,-48 1181,-54 1175,-60 1169,-60"/>
<text text-anchor="middle" x="1148" y="-38.9" font-family="sans-serif" font-size="12.00">Agent57</text>
</g>
<!-- NGU&#45;&gt;Agent57 -->
<g id="edge39" class="edge"><title>NGU&#45;&gt;Agent57</title>
<path fill="none" stroke="black" d="M1079.38,-42C1087.76,-42 1096.15,-42 1104.53,-42"/>
<polygon fill="black" stroke="black" points="1104.76,-45.5001 1114.76,-42 1104.76,-38.5001 1104.76,-45.5001"/>
</g>
<!-- DPG&#45;&gt;DDPG -->
<g id="edge49" class="edge"><title>DPG&#45;&gt;DDPG</title>
<path fill="none" stroke="black" d="M339.588,-481.813C345.847,-473.266 353.535,-462.769 360.454,-453.323"/>
<polygon fill="black" stroke="black" points="363.443,-455.165 366.528,-445.029 357.796,-451.028 363.443,-455.165"/>
</g>
<!-- TRPO&#45;&gt;ACER -->
<g id="edge56" class="edge"><title>TRPO&#45;&gt;ACER</title>
<path fill="none" stroke="darkgray" stroke-dasharray="5,2" d="M568.091,-408.931C580.808,-382.104 605.564,-329.878 620.557,-298.249"/>
<polygon fill="darkgray" stroke="darkgray" points="623.752,-299.681 624.873,-289.146 617.426,-296.683 623.752,-299.681"/>
<text text-anchor="middle" x="641" y="-351.5" font-family="sans-serif" font-size="10.00" fill="darkgray">TRPO technique</text>
</g>
<!-- TRPO&#45;&gt;GAE -->
<g id="edge55" class="edge"><title>TRPO&#45;&gt;GAE</title>
<path fill="none" stroke="darkgray" stroke-dasharray="5,2" d="M532.804,-435.48C502.297,-444.512 451.167,-458.221 406,-463.5 311.005,-474.604 199.232,-451.56 142.348,-437.247"/>
<polygon fill="darkgray" stroke="darkgray" points="142.938,-433.785 132.382,-434.687 141.196,-440.565 142.938,-433.785"/>
</g>
<!-- PPO -->
<g id="node50" class="node"><title>PPO</title>
<path fill="#dae8fc" stroke="black" stroke-width="2" d="M720,-289C720,-289 690,-289 690,-289 684,-289 678,-283 678,-277 678,-277 678,-265 678,-265 678,-259 684,-253 690,-253 690,-253 720,-253 720,-253 726,-253 732,-259 732,-265 732,-265 732,-277 732,-277 732,-283 726,-289 720,-289"/>
<text text-anchor="middle" x="705" y="-267.9" font-family="sans-serif" font-size="12.00">PPO</text>
</g>
<!-- TRPO&#45;&gt;PPO -->
<g id="edge57" class="edge"><title>TRPO&#45;&gt;PPO</title>
<path fill="none" stroke="darkgray" stroke-dasharray="5,2" d="M587.101,-421.493C615.356,-415.334 658.822,-401.485 683,-372 699.682,-351.657 704.428,-321.414 705.464,-299.516"/>
<polygon fill="darkgray" stroke="darkgray" points="708.97,-299.301 705.711,-289.22 701.972,-299.133 708.97,-299.301"/>
</g>
<!-- PPO&#45;&gt;SAC -->
<!-- A2C&#45;&gt;ACER -->
<!-- A2C&#45;&gt;ACKTR -->
<!-- A2C&#45;&gt;SVPG -->
<!-- A2C&#45;&gt;IMPALA -->
<!-- PILCO -->
<g id="node53" class="node"><title>PILCO</title>
<path fill="#dae8fc" stroke="black" stroke-width="2" d="M1499,-664C1499,-664 1469,-664 1469,-664 1463,-664 1457,-658 1457,-652 1457,-652 1457,-640 1457,-640 1457,-634 1463,-628 1469,-628 1469,-628 1499,-628 1499,-628 1505,-628 1511,-634 1511,-640 1511,-640 1511,-652 1511,-652 1511,-658 1505,-664 1499,-664"/>
<text text-anchor="middle" x="1484" y="-642.9" font-family="sans-serif" font-size="12.00">PILCO</text>
</g>
<!-- Model Based&#45;&gt;PILCO -->
<g id="edge65" class="edge"><title>Model Based&#45;&gt;PILCO</title>
<path fill="none" stroke="black" d="M1512.67,-1042.96C1505.87,-1019.71 1495,-976.634 1495,-939 1495,-939 1495,-939 1495,-718 1495,-703.335 1492.68,-687.165 1490.17,-673.965"/>
<polygon fill="black" stroke="black" points="1493.59,-673.2 1488.16,-664.102 1486.73,-674.599 1493.59,-673.2"/>
</g>
<!-- I2A -->
<g id="node54" class="node"><title>I2A</title>
<path fill="#dae8fc" stroke="black" stroke-width="2" d="M1499,-289C1499,-289 1469,-289 1469,-289 1463,-289 1457,-283 1457,-277 1457,-277 1457,-265 1457,-265 1457,-259 1463,-253 1469,-253 1469,-253 1499,-253 1499,-253 1505,-253 1511,-259 1511,-265 1511,-265 1511,-277 1511,-277 1511,-283 1505,-289 1499,-289"/>
<text text-anchor="middle" x="1484" y="-267.9" font-family="sans-serif" font-size="12.00">I2A</text>
</g>
<!-- Model Based&#45;&gt;I2A -->
<g id="edge66" class="edge"><title>Model Based&#45;&gt;I2A</title>
<path fill="none" stroke="black" d="M1520.78,-1042.82C1524.33,-1019.41 1530,-976.154 1530,-939 1530,-939 1530,-939 1530,-353 1530,-332.259 1518.46,-311.971 1506.93,-296.887"/>
<polygon fill="black" stroke="black" points="1509.62,-294.643 1500.61,-289.072 1504.18,-299.047 1509.62,-294.643"/>
</g>
<!-- MBMF -->
<g id="node55" class="node"><title>MBMF</title>
<path fill="#dae8fc" stroke="black" stroke-width="2" d="M1571,-289C1571,-289 1541,-289 1541,-289 1535,-289 1529,-283 1529,-277 1529,-277 1529,-265 1529,-265 1529,-259 1535,-253 1541,-253 1541,-253 1571,-253 1571,-253 1577,-253 1583,-259 1583,-265 1583,-265 1583,-277 1583,-277 1583,-283 1577,-289 1571,-289"/>
<text text-anchor="middle" x="1556" y="-267.9" font-family="sans-serif" font-size="12.00">MBMF</text>
</g>
<!-- Model Based&#45;&gt;MBMF -->
<g id="edge67" class="edge"><title>Model Based&#45;&gt;MBMF</title>
<path fill="none" stroke="black" d="M1526.29,-1042.82C1536.64,-1019.76 1553,-977.269 1553,-939 1553,-939 1553,-939 1553,-353 1553,-335.049 1553.74,-314.876 1554.49,-299.152"/>
<polygon fill="black" stroke="black" points="1557.99,-299.223 1555,-289.06 1551,-298.871 1557.99,-299.223"/>
</g>
<!-- Exit -->
<g id="node56" class="node"><title>Exit</title>
<path fill="#dae8fc" stroke="black" stroke-width="2" d="M1643,-289C1643,-289 1613,-289 1613,-289 1607,-289 1601,-283 1601,-277 1601,-277 1601,-265 1601,-265 1601,-259 1607,-253 1613,-253 1613,-253 1643,-253 1643,-253 1649,-253 1655,-259 1655,-265 1655,-265 1655,-277 1655,-277 1655,-283 1649,-289 1643,-289"/>
<text text-anchor="middle" x="1628" y="-267.9" font-family="sans-serif" font-size="12.00">Exit</text>
</g>
<!-- Model Based&#45;&gt;Exit -->
<g id="edge68" class="edge"><title>Model Based&#45;&gt;Exit</title>
<path fill="none" stroke="black" d="M1539.81,-1042.87C1564.4,-1021.45 1601,-982.306 1601,-939 1601,-939 1601,-939 1601,-353 1601,-334.153 1607.66,-314.046 1614.37,-298.58"/>
<polygon fill="black" stroke="black" points="1617.71,-299.694 1618.71,-289.147 1611.35,-296.767 1617.71,-299.694"/>
</g>
<!-- AlphaZero -->
<g id="node57" class="node"><title>AlphaZero</title>
<path fill="#dae8fc" stroke="black" stroke-width="2" d="M1738.5,-289C1738.5,-289 1685.5,-289 1685.5,-289 1679.5,-289 1673.5,-283 1673.5,-277 1673.5,-277 1673.5,-265 1673.5,-265 1673.5,-259 1679.5,-253 1685.5,-253 1685.5,-253 1738.5,-253 1738.5,-253 1744.5,-253 1750.5,-259 1750.5,-265 1750.5,-265 1750.5,-277 1750.5,-277 1750.5,-283 1744.5,-289 1738.5,-289"/>
<text text-anchor="middle" x="1712" y="-267.9" font-family="sans-serif" font-size="12.00">AlphaZero</text>
</g>
<!-- Model Based&#45;&gt;AlphaZero -->
<g id="edge69" class="edge"><title>Model Based&#45;&gt;AlphaZero</title>
<path fill="none" stroke="black" d="M1563.21,-1044.79C1606.73,-1026.94 1666,-992.766 1666,-939 1666,-939 1666,-939 1666,-353 1666,-332.259 1677.54,-311.971 1689.07,-296.887"/>
<polygon fill="black" stroke="black" points="1691.82,-299.047 1695.39,-289.072 1686.38,-294.643 1691.82,-299.047"/>
</g>
<!-- MVE -->
<g id="node58" class="node"><title>MVE</title>
<path fill="#dae8fc" stroke="black" stroke-width="2" d="M1637,-206C1637,-206 1607,-206 1607,-206 1601,-206 1595,-200 1595,-194 1595,-194 1595,-182 1595,-182 1595,-176 1601,-170 1607,-170 1607,-170 1637,-170 1637,-170 1643,-170 1649,-176 1649,-182 1649,-182 1649,-194 1649,-194 1649,-200 1643,-206 1637,-206"/>
<text text-anchor="middle" x="1622" y="-184.9" font-family="sans-serif" font-size="12.00">MVE</text>
</g>
<!-- Model Based&#45;&gt;MVE -->
<g id="edge70" class="edge"><title>Model Based&#45;&gt;MVE</title>
<path fill="none" stroke="black" d="M1563.05,-1058.15C1635.54,-1052.49 1770,-1029.75 1770,-939 1770,-939 1770,-939 1770,-270 1770,-226.649 1745.55,-244.914 1658.33,-206.039"/>
<polygon fill="black" stroke="black" points="1659.67,-202.803 1649.12,-201.826 1656.76,-209.168 1659.67,-202.803"/>
</g>
<!-- STEVE -->
<g id="node59" class="node"><title>STEVE</title>
<path fill="#dae8fc" stroke="black" stroke-width="2" d="M1709,-206C1709,-206 1679,-206 1679,-206 1673,-206 1667,-200 1667,-194 1667,-194 1667,-182 1667,-182 1667,-176 1673,-170 1679,-170 1679,-170 1709,-170 1709,-170 1715,-170 1721,-176 1721,-182 1721,-182 1721,-194 1721,-194 1721,-200 1715,-206 1709,-206"/>
<text text-anchor="middle" x="1694" y="-184.9" font-family="sans-serif" font-size="12.00">STEVE</text>
</g>
<!-- Model Based&#45;&gt;STEVE -->
<g id="edge71" class="edge"><title>Model Based&#45;&gt;STEVE</title>
<path fill="none" stroke="black" d="M1563.16,-1056.48C1622.72,-1051.01 1723.36,-1038.67 1752,-1016 1781.92,-992.314 1790,-977.163 1790,-939 1790,-939 1790,-939 1790,-270 1790,-253.668 1757.13,-228.717 1729.86,-210.825"/>
<polygon fill="black" stroke="black" points="1731.56,-207.753 1721.25,-205.284 1727.77,-213.639 1731.56,-207.753"/>
</g>
<!-- ME&#45;TRPO -->
<g id="node60" class="node"><title>ME&#45;TRPO</title>
<path fill="#dae8fc" stroke="black" stroke-width="2" d="M1798.5,-206C1798.5,-206 1751.5,-206 1751.5,-206 1745.5,-206 1739.5,-200 1739.5,-194 1739.5,-194 1739.5,-182 1739.5,-182 1739.5,-176 1745.5,-170 1751.5,-170 1751.5,-170 1798.5,-170 1798.5,-170 1804.5,-170 1810.5,-176 1810.5,-182 1810.5,-182 1810.5,-194 1810.5,-194 1810.5,-200 1804.5,-206 1798.5,-206"/>
<text text-anchor="middle" x="1775" y="-184.9" font-family="sans-serif" font-size="12.00">ME&#45;TRPO</text>
</g>
<!-- Model Based&#45;&gt;ME&#45;TRPO -->
<g id="edge72" class="edge"><title>Model Based&#45;&gt;ME&#45;TRPO</title>
<path fill="none" stroke="black" d="M1563.16,-1057.81C1628.44,-1053.74 1744.79,-1042.86 1776,-1016 1804.36,-991.597 1810,-976.41 1810,-939 1810,-939 1810,-939 1810,-270 1810,-250.463 1801.31,-230.29 1792.6,-214.962"/>
<polygon fill="black" stroke="black" points="1795.41,-212.846 1787.24,-206.094 1789.41,-216.464 1795.41,-212.846"/>
</g>
<!-- MB&#45;MPO -->
<g id="node61" class="node"><title>MB&#45;MPO</title>
<path fill="#dae8fc" stroke="black" stroke-width="2" d="M1267,-206C1267,-206 1225,-206 1225,-206 1219,-206 1213,-200 1213,-194 1213,-194 1213,-182 1213,-182 1213,-176 1219,-170 1225,-170 1225,-170 1267,-170 1267,-170 1273,-170 1279,-176 1279,-182 1279,-182 1279,-194 1279,-194 1279,-200 1273,-206 1267,-206"/>
<text text-anchor="middle" x="1246" y="-184.9" font-family="sans-serif" font-size="12.00">MB&#45;MPO</text>
</g>
<!-- Model Based&#45;&gt;MB&#45;MPO -->
<g id="edge73" class="edge"><title>Model Based&#45;&gt;MB&#45;MPO</title>
<path fill="none" stroke="black" d="M1472.99,-1056.47C1405.53,-1048.45 1286,-1022.47 1286,-939 1286,-939 1286,-939 1286,-270 1286,-249.941 1276.02,-229.707 1266.02,-214.48"/>
<polygon fill="black" stroke="black" points="1268.8,-212.341 1260.22,-206.132 1263.05,-216.34 1268.8,-212.341"/>
</g>
<!-- World Models -->
<g id="node62" class="node"><title>World Models</title>
<path fill="#dae8fc" stroke="black" stroke-width="2" d="M1381,-206C1381,-206 1309,-206 1309,-206 1303,-206 1297,-200 1297,-194 1297,-194 1297,-182 1297,-182 1297,-176 1303,-170 1309,-170 1309,-170 1381,-170 1381,-170 1387,-170 1393,-176 1393,-182 1393,-182 1393,-194 1393,-194 1393,-200 1387,-206 1381,-206"/>
<text text-anchor="middle" x="1345" y="-184.9" font-family="sans-serif" font-size="12.00">World Models</text>
</g>
<!-- Model Based&#45;&gt;World Models -->
<g id="edge74" class="edge"><title>Model Based&#45;&gt;World Models</title>
<path fill="none" stroke="black" d="M1472.7,-1058.21C1440.45,-1054.42 1398.62,-1043.95 1374,-1016 1350.48,-989.291 1352,-974.592 1352,-939 1352,-939 1352,-939 1352,-270 1352,-251.995 1350.26,-231.821 1348.52,-216.111"/>
<polygon fill="black" stroke="black" points="1351.98,-215.552 1347.33,-206.029 1345.02,-216.37 1351.98,-215.552"/>
</g>
<!-- PETS -->
<g id="node63" class="node"><title>PETS</title>
<path fill="#dae8fc" stroke="black" stroke-width="2" d="M1453,-206C1453,-206 1423,-206 1423,-206 1417,-206 1411,-200 1411,-194 1411,-194 1411,-182 1411,-182 1411,-176 1417,-170 1423,-170 1423,-170 1453,-170 1453,-170 1459,-170 1465,-176 1465,-182 1465,-182 1465,-194 1465,-194 1465,-200 1459,-206 1453,-206"/>
<text text-anchor="middle" x="1438" y="-184.9" font-family="sans-serif" font-size="12.00">PETS</text>
</g>
<!-- Model Based&#45;&gt;PETS -->
<g id="edge75" class="edge"><title>Model Based&#45;&gt;PETS</title>
<path fill="none" stroke="black" d="M1472.86,-1056.77C1444.76,-1052.18 1410.54,-1041.33 1392,-1016 1371.45,-987.933 1378,-973.783 1378,-939 1378,-939 1378,-939 1378,-270 1378,-247.944 1392.54,-227.973 1407.31,-213.38"/>
<polygon fill="black" stroke="black" points="1410.03,-215.627 1414.97,-206.256 1405.27,-210.499 1410.03,-215.627"/>
</g>
<!-- PlaNet -->
<g id="node64" class="node"><title>PlaNet</title>
<path fill="#dae8fc" stroke="black" stroke-width="2" d="M1525,-206C1525,-206 1495,-206 1495,-206 1489,-206 1483,-200 1483,-194 1483,-194 1483,-182 1483,-182 1483,-176 1489,-170 1495,-170 1495,-170 1525,-170 1525,-170 1531,-170 1537,-176 1537,-182 1537,-182 1537,-194 1537,-194 1537,-200 1531,-206 1525,-206"/>
<text text-anchor="middle" x="1510" y="-184.9" font-family="sans-serif" font-size="12.00">PlaNet</text>
</g>
<!-- Model Based&#45;&gt;PlaNet -->
<g id="edge76" class="edge"><title>Model Based&#45;&gt;PlaNet</title>
<path fill="none" stroke="black" d="M1472.79,-1055.55C1451.66,-1051.11 1427.92,-1042.33 1413,-1025 1387.68,-995.598 1398,-977.799 1398,-939 1398,-939 1398,-939 1398,-270 1398,-250.917 1441.23,-224.281 1473.97,-206.843"/>
<polygon fill="black" stroke="black" points="1475.65,-209.917 1482.89,-202.182 1472.4,-203.714 1475.65,-209.917"/>
</g>
<!-- SimPLe -->
<g id="node65" class="node"><title>SimPLe</title>
<path fill="#dae8fc" stroke="black" stroke-width="2" d="M1543.5,-133C1543.5,-133 1508.5,-133 1508.5,-133 1502.5,-133 1496.5,-127 1496.5,-121 1496.5,-121 1496.5,-109 1496.5,-109 1496.5,-103 1502.5,-97 1508.5,-97 1508.5,-97 1543.5,-97 1543.5,-97 1549.5,-97 1555.5,-103 1555.5,-109 1555.5,-109 1555.5,-121 1555.5,-121 1555.5,-127 1549.5,-133 1543.5,-133"/>
<text text-anchor="middle" x="1526" y="-111.9" font-family="sans-serif" font-size="12.00">SimPLe</text>
</g>
<!-- Model Based&#45;&gt;SimPLe -->
<g id="edge77" class="edge"><title>Model Based&#45;&gt;SimPLe</title>
<path fill="none" stroke="black" d="M1472.91,-1050.71C1458.15,-1045.51 1442.99,-1037.44 1433,-1025 1408.71,-994.744 1418,-977.799 1418,-939 1418,-939 1418,-939 1418,-311.5 1418,-284.659 1415.46,-273.321 1433,-253 1454.73,-227.816 1471.27,-236.742 1502,-224 1521.52,-215.907 1534.22,-223.542 1546,-206 1558.75,-187.015 1551.04,-161.191 1541.73,-142.073"/>
<polygon fill="black" stroke="black" points="1544.73,-140.244 1536.97,-133.023 1538.53,-143.503 1544.73,-140.244"/>
</g>
<!-- MuZero -->
<g id="node66" class="node"><title>MuZero</title>
<path fill="#dae8fc" stroke="black" stroke-width="2" d="M1624,-133C1624,-133 1586,-133 1586,-133 1580,-133 1574,-127 1574,-121 1574,-121 1574,-109 1574,-109 1574,-103 1580,-97 1586,-97 1586,-97 1624,-97 1624,-97 1630,-97 1636,-103 1636,-109 1636,-109 1636,-121 1636,-121 1636,-127 1630,-133 1624,-133"/>
<text text-anchor="middle" x="1605" y="-111.9" font-family="sans-serif" font-size="12.00">MuZero</text>
</g>
<!-- Model Based&#45;&gt;MuZero -->
<g id="edge78" class="edge"><title>Model Based&#45;&gt;MuZero</title>
<path fill="none" stroke="black" d="M1496.98,-1042.7C1473.28,-1021.12 1438,-981.811 1438,-939 1438,-939 1438,-939 1438,-311.5 1438,-285.123 1431.76,-273.787 1448,-253 1452,-247.883 1550.2,-210.372 1555,-206 1565.23,-196.679 1581.38,-165.696 1592.55,-142.673"/>
<polygon fill="black" stroke="black" points="1595.84,-143.91 1597,-133.379 1589.52,-140.889 1595.84,-143.91"/>
</g>
<!-- DMRL -->
<g id="node68" class="node"><title>DMRL</title>
<path fill="#dae8fc" stroke="black" stroke-width="2" d="M1897,-372C1897,-372 1867,-372 1867,-372 1861,-372 1855,-366 1855,-360 1855,-360 1855,-348 1855,-348 1855,-342 1861,-336 1867,-336 1867,-336 1897,-336 1897,-336 1903,-336 1909,-342 1909,-348 1909,-348 1909,-360 1909,-360 1909,-366 1903,-372 1897,-372"/>
<text text-anchor="middle" x="1882" y="-350.9" font-family="sans-serif" font-size="12.00">DMRL</text>
</g>
<!-- Meta&#45;RL&#45;&gt;DMRL -->
<g id="edge79" class="edge"><title>Meta&#45;RL&#45;&gt;DMRL</title>
<path fill="none" stroke="black" d="M1902.22,-1042.82C1898.67,-1019.41 1893,-976.154 1893,-939 1893,-939 1893,-939 1893,-426 1893,-411.335 1890.68,-395.165 1888.17,-381.965"/>
<polygon fill="black" stroke="black" points="1891.59,-381.2 1886.16,-372.102 1884.73,-382.599 1891.59,-381.2"/>
</g>
<!-- RL^2 -->
<g id="node69" class="node"><title>RL^2</title>
<path fill="#dae8fc" stroke="black" stroke-width="2" d="M1989,-372C1989,-372 1959,-372 1959,-372 1953,-372 1947,-366 1947,-360 1947,-360 1947,-348 1947,-348 1947,-342 1953,-336 1959,-336 1959,-336 1989,-336 1989,-336 1995,-336 2001,-342 2001,-348 2001,-348 2001,-360 2001,-360 2001,-366 1995,-372 1989,-372"/>
<text text-anchor="middle" x="1974" y="-350.9" font-family="sans-serif" font-size="12.00">RL^2</text>
</g>
<!-- Meta&#45;RL&#45;&gt;RL^2 -->
<g id="edge80" class="edge"><title>Meta&#45;RL&#45;&gt;RL^2</title>
<path fill="none" stroke="black" d="M1920.86,-1042.71C1925.23,-1037.32 1929.67,-1031.16 1933,-1025 1952.09,-989.623 1961,-979.197 1961,-939 1961,-939 1961,-939 1961,-426 1961,-411.267 1963.74,-395.091 1966.71,-381.905"/>
<polygon fill="black" stroke="black" points="1970.14,-382.599 1969.09,-372.056 1963.34,-380.956 1970.14,-382.599"/>
</g>
<!-- MAML -->
<g id="node70" class="node"><title>MAML</title>
<path fill="#dae8fc" stroke="black" stroke-width="2" d="M1877,-289C1877,-289 1847,-289 1847,-289 1841,-289 1835,-283 1835,-277 1835,-277 1835,-265 1835,-265 1835,-259 1841,-253 1847,-253 1847,-253 1877,-253 1877,-253 1883,-253 1889,-259 1889,-265 1889,-265 1889,-277 1889,-277 1889,-283 1883,-289 1877,-289"/>
<text text-anchor="middle" x="1862" y="-267.9" font-family="sans-serif" font-size="12.00">MAML</text>
</g>
<!-- Meta&#45;RL&#45;&gt;MAML -->
<g id="edge81" class="edge"><title>Meta&#45;RL&#45;&gt;MAML</title>
<path fill="none" stroke="black" d="M1887.59,-1042.9C1867.15,-1020.92 1836,-980.594 1836,-939 1836,-939 1836,-939 1836,-353 1836,-334.221 1842.41,-314.115 1848.87,-298.632"/>
<polygon fill="black" stroke="black" points="1852.2,-299.747 1853.05,-289.186 1845.8,-296.913 1852.2,-299.747"/>
</g>
<!-- SNAIL -->
<g id="node71" class="node"><title>SNAIL</title>
<path fill="#dae8fc" stroke="black" stroke-width="2" d="M1949,-289C1949,-289 1919,-289 1919,-289 1913,-289 1907,-283 1907,-277 1907,-277 1907,-265 1907,-265 1907,-259 1913,-253 1919,-253 1919,-253 1949,-253 1949,-253 1955,-253 1961,-259 1961,-265 1961,-265 1961,-277 1961,-277 1961,-283 1955,-289 1949,-289"/>
<text text-anchor="middle" x="1934" y="-267.9" font-family="sans-serif" font-size="12.00">SNAIL</text>
</g>
<!-- Meta&#45;RL&#45;&gt;SNAIL -->
<g id="edge82" class="edge"><title>Meta&#45;RL&#45;&gt;SNAIL</title>
<path fill="none" stroke="black" d="M1910.33,-1042.96C1917.13,-1019.71 1928,-976.634 1928,-939 1928,-939 1928,-939 1928,-353 1928,-335.012 1929.49,-314.839 1930.98,-299.125"/>
<polygon fill="black" stroke="black" points="1934.48,-299.34 1932,-289.039 1927.52,-298.637 1934.48,-299.34"/>
</g>
<!-- ProMP -->
<g id="node72" class="node"><title>ProMP</title>
<path fill="#dae8fc" stroke="black" stroke-width="2" d="M2009,-206C2009,-206 1979,-206 1979,-206 1973,-206 1967,-200 1967,-194 1967,-194 1967,-182 1967,-182 1967,-176 1973,-170 1979,-170 1979,-170 2009,-170 2009,-170 2015,-170 2021,-176 2021,-182 2021,-182 2021,-194 2021,-194 2021,-200 2015,-206 2009,-206"/>
<text text-anchor="middle" x="1994" y="-184.9" font-family="sans-serif" font-size="12.00">ProMP</text>
</g>
<!-- Meta&#45;RL&#45;&gt;ProMP -->
<g id="edge83" class="edge"><title>Meta&#45;RL&#45;&gt;ProMP</title>
<path fill="none" stroke="black" d="M1937.03,-1043.84C1971.06,-1024.14 2020,-987.398 2020,-939 2020,-939 2020,-939 2020,-270 2020,-251.221 2013.59,-231.115 2007.13,-215.632"/>
<polygon fill="black" stroke="black" points="2010.2,-213.913 2002.95,-206.186 2003.8,-216.747 2010.2,-213.913"/>
</g>
</g>
</svg>
