<?xml version="1.0" encoding="UTF-8" standalone="no"?>
<!DOCTYPE svg PUBLIC "-//W3C//DTD SVG 1.1//EN"
 "http://www.w3.org/Graphics/SVG/1.1/DTD/svg11.dtd">
<!-- Generated by graphviz version 2.44.0 (20200408.0750)
 -->
<!-- Pages: 1 -->
<svg width="1605pt" height="1013pt"
 viewBox="0.00 0.00 1605.00 1013.00" xmlns="http://www.w3.org/2000/svg" xmlns:xlink="http://www.w3.org/1999/xlink">
<g id="graph0" class="graph" transform="scale(1 1) rotate(0) translate(4 1009)">
<polygon fill="white" stroke="transparent" points="-4,4 -4,-1009 1601,-1009 1601,4 -4,4"/>
<g id="clust2" class="cluster">
<title>clusterModel Free</title>
<polygon fill="#f7fdff" stroke="black" points="62,-80 62,-941 1133,-941 1133,-80 62,-80"/>
<text text-anchor="middle" x="597.5" y="-924.2" font-family="sans-serif" font-size="16.00">Model Free</text>
</g>
<g id="clust3" class="cluster">
<title>clusterValue Gradient</title>
<path fill="#f1f7fe" stroke="black" stroke-dasharray="5,2" d="M758,-88C758,-88 1113,-88 1113,-88 1119,-88 1125,-94 1125,-100 1125,-100 1125,-831 1125,-831 1125,-837 1119,-843 1113,-843 1113,-843 758,-843 758,-843 752,-843 746,-837 746,-831 746,-831 746,-100 746,-100 746,-94 752,-88 758,-88"/>
<text text-anchor="middle" x="935.5" y="-826.2" font-family="sans-serif" font-size="16.00">Value Gradient</text>
</g>
<g id="clust4" class="cluster">
<title>clusterPolicy Gradient/Actor&#45;Critic</title>
<path fill="#f1f7fe" stroke="black" stroke-dasharray="5,2" d="M82,-88C82,-88 712,-88 712,-88 718,-88 724,-94 724,-100 724,-100 724,-831 724,-831 724,-837 718,-843 712,-843 712,-843 82,-843 82,-843 76,-843 70,-837 70,-831 70,-831 70,-100 70,-100 70,-94 76,-88 82,-88"/>
<text text-anchor="middle" x="397" y="-826.2" font-family="sans-serif" font-size="16.00">Policy Gradient/Actor&#45;Critic</text>
</g>
<g id="clust5" class="cluster">
<title>clusterModel Based</title>
<polygon fill="#f7fdff" stroke="black" points="1141,-8 1141,-941 1589,-941 1589,-8 1141,-8"/>
<text text-anchor="middle" x="1365" y="-924.2" font-family="sans-serif" font-size="16.00">Model Based</text>
</g>
<!-- 1989 -->
<g id="node1" class="node">
<title>1989</title>
<text text-anchor="middle" x="27" y="-714" font-family="sans-serif" font-size="10.00" fill="darkblue">1989</text>
</g>
<!-- 1992 -->
<g id="node2" class="node">
<title>1992</title>
<text text-anchor="middle" x="27" y="-640" font-family="sans-serif" font-size="10.00" fill="darkblue">1992</text>
</g>
<!-- 1989&#45;&gt;1992 -->
<g id="edge1" class="edge">
<title>1989&#45;&gt;1992</title>
<path fill="none" stroke="darkblue" d="M27,-698.44C27,-690.31 27,-680.38 27,-671.2"/>
<polygon fill="darkblue" stroke="darkblue" points="30.5,-670.94 27,-660.94 23.5,-670.94 30.5,-670.94"/>
</g>
<!-- 1994 -->
<g id="node3" class="node">
<title>1994</title>
<text text-anchor="middle" x="27" y="-566" font-family="sans-serif" font-size="10.00" fill="darkblue">1994</text>
</g>
<!-- 1992&#45;&gt;1994 -->
<g id="edge2" class="edge">
<title>1992&#45;&gt;1994</title>
<path fill="none" stroke="darkblue" d="M27,-624.44C27,-616.31 27,-606.38 27,-597.2"/>
<polygon fill="darkblue" stroke="darkblue" points="30.5,-596.94 27,-586.94 23.5,-596.94 30.5,-596.94"/>
</g>
<!-- 2013 -->
<g id="node4" class="node">
<title>2013</title>
<text text-anchor="middle" x="27" y="-492" font-family="sans-serif" font-size="10.00" fill="darkblue">2013</text>
</g>
<!-- 1994&#45;&gt;2013 -->
<g id="edge3" class="edge">
<title>1994&#45;&gt;2013</title>
<path fill="none" stroke="darkblue" d="M27,-550.44C27,-542.31 27,-532.38 27,-523.2"/>
<polygon fill="darkblue" stroke="darkblue" points="30.5,-522.94 27,-512.94 23.5,-522.94 30.5,-522.94"/>
</g>
<!-- 2014 -->
<g id="node5" class="node">
<title>2014</title>
<text text-anchor="middle" x="27" y="-418" font-family="sans-serif" font-size="10.00" fill="darkblue">2014</text>
</g>
<!-- 2013&#45;&gt;2014 -->
<g id="edge4" class="edge">
<title>2013&#45;&gt;2014</title>
<path fill="none" stroke="darkblue" d="M27,-476.44C27,-468.31 27,-458.38 27,-449.2"/>
<polygon fill="darkblue" stroke="darkblue" points="30.5,-448.94 27,-438.94 23.5,-448.94 30.5,-448.94"/>
</g>
<!-- 2015 -->
<g id="node6" class="node">
<title>2015</title>
<text text-anchor="middle" x="27" y="-344" font-family="sans-serif" font-size="10.00" fill="darkblue">2015</text>
</g>
<!-- 2014&#45;&gt;2015 -->
<g id="edge5" class="edge">
<title>2014&#45;&gt;2015</title>
<path fill="none" stroke="darkblue" d="M27,-402.44C27,-394.31 27,-384.38 27,-375.2"/>
<polygon fill="darkblue" stroke="darkblue" points="30.5,-374.94 27,-364.94 23.5,-374.94 30.5,-374.94"/>
</g>
<!-- 2016 -->
<g id="node7" class="node">
<title>2016</title>
<text text-anchor="middle" x="27" y="-270" font-family="sans-serif" font-size="10.00" fill="darkblue">2016</text>
</g>
<!-- 2015&#45;&gt;2016 -->
<g id="edge6" class="edge">
<title>2015&#45;&gt;2016</title>
<path fill="none" stroke="darkblue" d="M27,-328.44C27,-320.31 27,-310.38 27,-301.2"/>
<polygon fill="darkblue" stroke="darkblue" points="30.5,-300.94 27,-290.94 23.5,-300.94 30.5,-300.94"/>
</g>
<!-- 2017 -->
<g id="node8" class="node">
<title>2017</title>
<text text-anchor="middle" x="27" y="-186" font-family="sans-serif" font-size="10.00" fill="darkblue">2017</text>
</g>
<!-- 2016&#45;&gt;2017 -->
<g id="edge7" class="edge">
<title>2016&#45;&gt;2017</title>
<path fill="none" stroke="darkblue" d="M27,-254.11C27,-243.27 27,-229.1 27,-216.79"/>
<polygon fill="darkblue" stroke="darkblue" points="30.5,-216.58 27,-206.58 23.5,-216.58 30.5,-216.58"/>
</g>
<!-- 2018 -->
<g id="node9" class="node">
<title>2018</title>
<text text-anchor="middle" x="27" y="-112" font-family="sans-serif" font-size="10.00" fill="darkblue">2018</text>
</g>
<!-- 2017&#45;&gt;2018 -->
<g id="edge8" class="edge">
<title>2017&#45;&gt;2018</title>
<path fill="none" stroke="darkblue" d="M27,-170.44C27,-162.31 27,-152.38 27,-143.2"/>
<polygon fill="darkblue" stroke="darkblue" points="30.5,-142.94 27,-132.94 23.5,-142.94 30.5,-142.94"/>
</g>
<!-- 2019 -->
<g id="node10" class="node">
<title>2019</title>
<text text-anchor="middle" x="27" y="-32" font-family="sans-serif" font-size="10.00" fill="darkblue">2019</text>
</g>
<!-- 2018&#45;&gt;2019 -->
<g id="edge9" class="edge">
<title>2018&#45;&gt;2019</title>
<path fill="none" stroke="darkblue" d="M27,-96.19C27,-86.39 27,-73.92 27,-62.83"/>
<polygon fill="darkblue" stroke="darkblue" points="30.5,-62.76 27,-52.76 23.5,-62.76 30.5,-62.76"/>
</g>
<!-- Reinforcement Learning -->
<g id="node11" class="node">
<title>Reinforcement Learning</title>
<path fill="#ffe6cc" stroke="black" stroke-width="2" d="M1151.5,-968.5C1151.5,-968.5 1272.5,-968.5 1272.5,-968.5 1278.5,-968.5 1284.5,-974.5 1284.5,-980.5 1284.5,-980.5 1284.5,-992.5 1284.5,-992.5 1284.5,-998.5 1278.5,-1004.5 1272.5,-1004.5 1272.5,-1004.5 1151.5,-1004.5 1151.5,-1004.5 1145.5,-1004.5 1139.5,-998.5 1139.5,-992.5 1139.5,-992.5 1139.5,-980.5 1139.5,-980.5 1139.5,-974.5 1145.5,-968.5 1151.5,-968.5"/>
<text text-anchor="middle" x="1212" y="-983.4" font-family="sans-serif" font-size="12.00">Reinforcement Learning</text>
</g>
<!-- Model Free -->
<g id="node12" class="node">
<title>Model Free</title>
<path fill="#ffe6cc" stroke="black" stroke-width="2" d="M889.5,-870.5C889.5,-870.5 942.5,-870.5 942.5,-870.5 948.5,-870.5 954.5,-876.5 954.5,-882.5 954.5,-882.5 954.5,-894.5 954.5,-894.5 954.5,-900.5 948.5,-906.5 942.5,-906.5 942.5,-906.5 889.5,-906.5 889.5,-906.5 883.5,-906.5 877.5,-900.5 877.5,-894.5 877.5,-894.5 877.5,-882.5 877.5,-882.5 877.5,-876.5 883.5,-870.5 889.5,-870.5"/>
<text text-anchor="middle" x="916" y="-885.4" font-family="sans-serif" font-size="12.00">Model Free</text>
</g>
<!-- Reinforcement Learning&#45;&gt;Model Free -->
<g id="edge65" class="edge">
<title>Reinforcement Learning&#45;&gt;Model Free</title>
<path fill="none" stroke="black" d="M1159.42,-968.45C1104.21,-950.54 1018.13,-922.62 964.5,-905.23"/>
<polygon fill="black" stroke="black" points="965.47,-901.87 954.88,-902.11 963.31,-908.52 965.47,-901.87"/>
</g>
<!-- Model Based -->
<g id="node44" class="node">
<title>Model Based</title>
<path fill="#ffe6cc" stroke="black" stroke-width="2" d="M1426.5,-870.5C1426.5,-870.5 1489.5,-870.5 1489.5,-870.5 1495.5,-870.5 1501.5,-876.5 1501.5,-882.5 1501.5,-882.5 1501.5,-894.5 1501.5,-894.5 1501.5,-900.5 1495.5,-906.5 1489.5,-906.5 1489.5,-906.5 1426.5,-906.5 1426.5,-906.5 1420.5,-906.5 1414.5,-900.5 1414.5,-894.5 1414.5,-894.5 1414.5,-882.5 1414.5,-882.5 1414.5,-876.5 1420.5,-870.5 1426.5,-870.5"/>
<text text-anchor="middle" x="1458" y="-885.4" font-family="sans-serif" font-size="12.00">Model Based</text>
</g>
<!-- Reinforcement Learning&#45;&gt;Model Based -->
<g id="edge66" class="edge">
<title>Reinforcement Learning&#45;&gt;Model Based</title>
<path fill="none" stroke="black" d="M1255.7,-968.45C1297.37,-952.18 1360.22,-927.66 1404.8,-910.26"/>
<polygon fill="black" stroke="black" points="1406.25,-913.45 1414.3,-906.55 1403.71,-906.93 1406.25,-913.45"/>
</g>
<!-- Value Gradient -->
<g id="node13" class="node">
<title>Value Gradient</title>
<path fill="#ffe6cc" stroke="black" stroke-width="2" d="M880.5,-772.5C880.5,-772.5 951.5,-772.5 951.5,-772.5 957.5,-772.5 963.5,-778.5 963.5,-784.5 963.5,-784.5 963.5,-796.5 963.5,-796.5 963.5,-802.5 957.5,-808.5 951.5,-808.5 951.5,-808.5 880.5,-808.5 880.5,-808.5 874.5,-808.5 868.5,-802.5 868.5,-796.5 868.5,-796.5 868.5,-784.5 868.5,-784.5 868.5,-778.5 874.5,-772.5 880.5,-772.5"/>
<text text-anchor="middle" x="916" y="-787.4" font-family="sans-serif" font-size="12.00">Value Gradient</text>
</g>
<!-- Model Free&#45;&gt;Value Gradient -->
<g id="edge10" class="edge">
<title>Model Free&#45;&gt;Value Gradient</title>
<path fill="none" stroke="black" d="M916,-870.34C916,-856 916,-835.31 916,-818.72"/>
<polygon fill="black" stroke="black" points="919.5,-818.51 916,-808.51 912.5,-818.51 919.5,-818.51"/>
</g>
<!-- Policy Gradient/Actor&#45;Critic -->
<g id="node14" class="node">
<title>Policy Gradient/Actor&#45;Critic</title>
<path fill="#ffe6cc" stroke="black" stroke-width="2" d="M408.5,-772.5C408.5,-772.5 545.5,-772.5 545.5,-772.5 551.5,-772.5 557.5,-778.5 557.5,-784.5 557.5,-784.5 557.5,-796.5 557.5,-796.5 557.5,-802.5 551.5,-808.5 545.5,-808.5 545.5,-808.5 408.5,-808.5 408.5,-808.5 402.5,-808.5 396.5,-802.5 396.5,-796.5 396.5,-796.5 396.5,-784.5 396.5,-784.5 396.5,-778.5 402.5,-772.5 408.5,-772.5"/>
<text text-anchor="middle" x="477" y="-787.4" font-family="sans-serif" font-size="12.00">Policy Gradient/Actor&#45;Critic</text>
</g>
<!-- Model Free&#45;&gt;Policy Gradient/Actor&#45;Critic -->
<g id="edge11" class="edge">
<title>Model Free&#45;&gt;Policy Gradient/Actor&#45;Critic</title>
<path fill="none" stroke="black" d="M877.43,-879.06C807.91,-863.86 660,-831.52 564.71,-810.68"/>
<polygon fill="black" stroke="black" points="565.31,-807.23 554.8,-808.51 563.82,-814.07 565.31,-807.23"/>
</g>
<!-- SARSA -->
<g id="node22" class="node">
<title>SARSA</title>
<path fill="#dae8fc" stroke="black" stroke-width="2" d="M883.5,-550.5C883.5,-550.5 918.5,-550.5 918.5,-550.5 924.5,-550.5 930.5,-556.5 930.5,-562.5 930.5,-562.5 930.5,-574.5 930.5,-574.5 930.5,-580.5 924.5,-586.5 918.5,-586.5 918.5,-586.5 883.5,-586.5 883.5,-586.5 877.5,-586.5 871.5,-580.5 871.5,-574.5 871.5,-574.5 871.5,-562.5 871.5,-562.5 871.5,-556.5 877.5,-550.5 883.5,-550.5"/>
<text text-anchor="middle" x="901" y="-565.4" font-family="sans-serif" font-size="12.00">SARSA</text>
</g>
<!-- Value Gradient&#45;&gt;SARSA -->
<g id="edge16" class="edge">
<title>Value Gradient&#45;&gt;SARSA</title>
<path fill="none" stroke="black" d="M914.71,-772.32C913.91,-761.59 912.87,-747.49 912,-735 908.61,-686.48 904.9,-629.94 902.78,-597.09"/>
<polygon fill="black" stroke="black" points="906.25,-596.65 902.12,-586.9 899.27,-597.1 906.25,-596.65"/>
</g>
<!-- Q&#45;learning -->
<g id="node23" class="node">
<title>Q&#45;learning</title>
<path fill="#dae8fc" stroke="black" stroke-width="2" d="M932.5,-698.5C932.5,-698.5 981.5,-698.5 981.5,-698.5 987.5,-698.5 993.5,-704.5 993.5,-710.5 993.5,-710.5 993.5,-722.5 993.5,-722.5 993.5,-728.5 987.5,-734.5 981.5,-734.5 981.5,-734.5 932.5,-734.5 932.5,-734.5 926.5,-734.5 920.5,-728.5 920.5,-722.5 920.5,-722.5 920.5,-710.5 920.5,-710.5 920.5,-704.5 926.5,-698.5 932.5,-698.5"/>
<text text-anchor="middle" x="957" y="-713.4" font-family="sans-serif" font-size="12.00">Q&#45;learning</text>
</g>
<!-- Value Gradient&#45;&gt;Q&#45;learning -->
<g id="edge17" class="edge">
<title>Value Gradient&#45;&gt;Q&#45;learning</title>
<path fill="none" stroke="black" d="M925.72,-772.44C930.6,-763.87 936.62,-753.29 942.07,-743.72"/>
<polygon fill="black" stroke="black" points="945.16,-745.36 947.07,-734.94 939.08,-741.9 945.16,-745.36"/>
</g>
<!-- A3C -->
<g id="node20" class="node">
<title>A3C</title>
<path fill="#dae8fc" stroke="black" stroke-width="2" d="M524,-254.5C524,-254.5 554,-254.5 554,-254.5 560,-254.5 566,-260.5 566,-266.5 566,-266.5 566,-278.5 566,-278.5 566,-284.5 560,-290.5 554,-290.5 554,-290.5 524,-290.5 524,-290.5 518,-290.5 512,-284.5 512,-278.5 512,-278.5 512,-266.5 512,-266.5 512,-260.5 518,-254.5 524,-254.5"/>
<text text-anchor="middle" x="539" y="-269.4" font-family="sans-serif" font-size="12.00">A3C</text>
</g>
<!-- Policy Gradient/Actor&#45;Critic&#45;&gt;A3C -->
<g id="edge35" class="edge">
<title>Policy Gradient/Actor&#45;Critic&#45;&gt;A3C</title>
<path fill="none" stroke="black" d="M497.21,-772.44C510.71,-759.05 526,-739.12 526,-717.5 526,-717.5 526,-717.5 526,-345.5 526,-330.47 528.78,-313.94 531.77,-300.52"/>
<polygon fill="black" stroke="black" points="535.24,-301.05 534.16,-290.51 528.43,-299.42 535.24,-301.05"/>
</g>
<!-- REINFORCE -->
<g id="node31" class="node">
<title>REINFORCE</title>
<path fill="#dae8fc" stroke="black" stroke-width="2" d="M214.5,-624.5C214.5,-624.5 279.5,-624.5 279.5,-624.5 285.5,-624.5 291.5,-630.5 291.5,-636.5 291.5,-636.5 291.5,-648.5 291.5,-648.5 291.5,-654.5 285.5,-660.5 279.5,-660.5 279.5,-660.5 214.5,-660.5 214.5,-660.5 208.5,-660.5 202.5,-654.5 202.5,-648.5 202.5,-648.5 202.5,-636.5 202.5,-636.5 202.5,-630.5 208.5,-624.5 214.5,-624.5"/>
<text text-anchor="middle" x="247" y="-639.4" font-family="sans-serif" font-size="12.00">REINFORCE</text>
</g>
<!-- Policy Gradient/Actor&#45;Critic&#45;&gt;REINFORCE -->
<g id="edge31" class="edge">
<title>Policy Gradient/Actor&#45;Critic&#45;&gt;REINFORCE</title>
<path fill="none" stroke="black" d="M396.29,-779.39C359.37,-773.45 320.63,-764.95 306,-754 278.46,-733.38 262.42,-696.05 254.19,-670.53"/>
<polygon fill="black" stroke="black" points="257.47,-669.29 251.23,-660.73 250.77,-671.32 257.47,-669.29"/>
</g>
<!-- DPG -->
<g id="node32" class="node">
<title>DPG</title>
<path fill="#dae8fc" stroke="black" stroke-width="2" d="M168,-402.5C168,-402.5 198,-402.5 198,-402.5 204,-402.5 210,-408.5 210,-414.5 210,-414.5 210,-426.5 210,-426.5 210,-432.5 204,-438.5 198,-438.5 198,-438.5 168,-438.5 168,-438.5 162,-438.5 156,-432.5 156,-426.5 156,-426.5 156,-414.5 156,-414.5 156,-408.5 162,-402.5 168,-402.5"/>
<text text-anchor="middle" x="183" y="-417.4" font-family="sans-serif" font-size="12.00">DPG</text>
</g>
<!-- Policy Gradient/Actor&#45;Critic&#45;&gt;DPG -->
<g id="edge32" class="edge">
<title>Policy Gradient/Actor&#45;Critic&#45;&gt;DPG</title>
<path fill="none" stroke="black" d="M396.27,-785.44C309.24,-778.8 183,-761.58 183,-717.5 183,-717.5 183,-717.5 183,-493.5 183,-478.71 183,-462.2 183,-448.73"/>
<polygon fill="black" stroke="black" points="186.5,-448.67 183,-438.67 179.5,-448.67 186.5,-448.67"/>
</g>
<!-- TRPO -->
<g id="node33" class="node">
<title>TRPO</title>
<path fill="#dae8fc" stroke="black" stroke-width="2" d="M342,-328.5C342,-328.5 372,-328.5 372,-328.5 378,-328.5 384,-334.5 384,-340.5 384,-340.5 384,-352.5 384,-352.5 384,-358.5 378,-364.5 372,-364.5 372,-364.5 342,-364.5 342,-364.5 336,-364.5 330,-358.5 330,-352.5 330,-352.5 330,-340.5 330,-340.5 330,-334.5 336,-328.5 342,-328.5"/>
<text text-anchor="middle" x="357" y="-343.4" font-family="sans-serif" font-size="12.00">TRPO</text>
</g>
<!-- Policy Gradient/Actor&#45;Critic&#45;&gt;TRPO -->
<g id="edge33" class="edge">
<title>Policy Gradient/Actor&#45;Critic&#45;&gt;TRPO</title>
<path fill="none" stroke="black" d="M439.83,-772.31C419.74,-760.21 399,-741.83 399,-717.5 399,-717.5 399,-717.5 399,-419.5 399,-402.29 389.93,-385.53 380.22,-372.51"/>
<polygon fill="black" stroke="black" points="382.82,-370.16 373.84,-364.54 377.36,-374.53 382.82,-370.16"/>
</g>
<!-- GAE -->
<g id="node34" class="node">
<title>GAE</title>
<path fill="#dae8fc" stroke="black" stroke-width="2" d="M432,-328.5C432,-328.5 462,-328.5 462,-328.5 468,-328.5 474,-334.5 474,-340.5 474,-340.5 474,-352.5 474,-352.5 474,-358.5 468,-364.5 462,-364.5 462,-364.5 432,-364.5 432,-364.5 426,-364.5 420,-358.5 420,-352.5 420,-352.5 420,-340.5 420,-340.5 420,-334.5 426,-328.5 432,-328.5"/>
<text text-anchor="middle" x="447" y="-343.4" font-family="sans-serif" font-size="12.00">GAE</text>
</g>
<!-- Policy Gradient/Actor&#45;Critic&#45;&gt;GAE -->
<g id="edge34" class="edge">
<title>Policy Gradient/Actor&#45;Critic&#45;&gt;GAE</title>
<path fill="none" stroke="black" d="M470.57,-772.31C465.76,-757.89 460,-736.64 460,-717.5 460,-717.5 460,-717.5 460,-419.5 460,-404.47 457.22,-387.94 454.23,-374.52"/>
<polygon fill="black" stroke="black" points="457.57,-373.42 451.84,-364.51 450.76,-375.05 457.57,-373.42"/>
</g>
<!-- ACKTR -->
<g id="node35" class="node">
<title>ACKTR</title>
<path fill="#dae8fc" stroke="black" stroke-width="2" d="M596.5,-170.5C596.5,-170.5 631.5,-170.5 631.5,-170.5 637.5,-170.5 643.5,-176.5 643.5,-182.5 643.5,-182.5 643.5,-194.5 643.5,-194.5 643.5,-200.5 637.5,-206.5 631.5,-206.5 631.5,-206.5 596.5,-206.5 596.5,-206.5 590.5,-206.5 584.5,-200.5 584.5,-194.5 584.5,-194.5 584.5,-182.5 584.5,-182.5 584.5,-176.5 590.5,-170.5 596.5,-170.5"/>
<text text-anchor="middle" x="614" y="-185.4" font-family="sans-serif" font-size="12.00">ACKTR</text>
</g>
<!-- Policy Gradient/Actor&#45;Critic&#45;&gt;ACKTR -->
<g id="edge36" class="edge">
<title>Policy Gradient/Actor&#45;Critic&#45;&gt;ACKTR</title>
<path fill="none" stroke="black" d="M539.96,-772.5C565.01,-761.58 588,-744.26 588,-717.5 588,-717.5 588,-717.5 588,-271.5 588,-252.39 594.5,-231.89 601,-216.17"/>
<polygon fill="black" stroke="black" points="604.38,-217.16 605.2,-206.6 597.97,-214.35 604.38,-217.16"/>
</g>
<!-- SVPG -->
<g id="node36" class="node">
<title>SVPG</title>
<path fill="#dae8fc" stroke="black" stroke-width="2" d="M674,-170.5C674,-170.5 704,-170.5 704,-170.5 710,-170.5 716,-176.5 716,-182.5 716,-182.5 716,-194.5 716,-194.5 716,-200.5 710,-206.5 704,-206.5 704,-206.5 674,-206.5 674,-206.5 668,-206.5 662,-200.5 662,-194.5 662,-194.5 662,-182.5 662,-182.5 662,-176.5 668,-170.5 674,-170.5"/>
<text text-anchor="middle" x="689" y="-185.4" font-family="sans-serif" font-size="12.00">SVPG</text>
</g>
<!-- Policy Gradient/Actor&#45;Critic&#45;&gt;SVPG -->
<g id="edge37" class="edge">
<title>Policy Gradient/Actor&#45;Critic&#45;&gt;SVPG</title>
<path fill="none" stroke="black" d="M557.68,-781.27C595.34,-772.48 632,-754.44 632,-717.5 632,-717.5 632,-717.5 632,-271.5 632,-249.35 646.19,-228.89 660.41,-213.95"/>
<polygon fill="black" stroke="black" points="663.13,-216.18 667.78,-206.66 658.21,-211.21 663.13,-216.18"/>
</g>
<!-- SAC -->
<g id="node37" class="node">
<title>SAC</title>
<path fill="#dae8fc" stroke="black" stroke-width="2" d="M384,-96.5C384,-96.5 414,-96.5 414,-96.5 420,-96.5 426,-102.5 426,-108.5 426,-108.5 426,-120.5 426,-120.5 426,-126.5 420,-132.5 414,-132.5 414,-132.5 384,-132.5 384,-132.5 378,-132.5 372,-126.5 372,-120.5 372,-120.5 372,-108.5 372,-108.5 372,-102.5 378,-96.5 384,-96.5"/>
<text text-anchor="middle" x="399" y="-111.4" font-family="sans-serif" font-size="12.00">SAC</text>
</g>
<!-- Policy Gradient/Actor&#45;Critic&#45;&gt;SAC -->
<g id="edge38" class="edge">
<title>Policy Gradient/Actor&#45;Critic&#45;&gt;SAC</title>
<path fill="none" stroke="black" d="M483.05,-772.28C487.58,-757.84 493,-736.58 493,-717.5 493,-717.5 493,-717.5 493,-309 493,-284.45 500.85,-274.91 488,-254 467.41,-220.48 434.6,-239.87 413,-207 400.49,-187.96 397.54,-161.95 397.4,-142.53"/>
<polygon fill="black" stroke="black" points="400.9,-142.56 397.57,-132.5 393.9,-142.44 400.9,-142.56"/>
</g>
<!-- IMPALA -->
<g id="node38" class="node">
<title>IMPALA</title>
<path fill="#dae8fc" stroke="black" stroke-width="2" d="M298.5,-96.5C298.5,-96.5 333.5,-96.5 333.5,-96.5 339.5,-96.5 345.5,-102.5 345.5,-108.5 345.5,-108.5 345.5,-120.5 345.5,-120.5 345.5,-126.5 339.5,-132.5 333.5,-132.5 333.5,-132.5 298.5,-132.5 298.5,-132.5 292.5,-132.5 286.5,-126.5 286.5,-120.5 286.5,-120.5 286.5,-108.5 286.5,-108.5 286.5,-102.5 292.5,-96.5 298.5,-96.5"/>
<text text-anchor="middle" x="316" y="-111.4" font-family="sans-serif" font-size="12.00">IMPALA</text>
</g>
<!-- Policy Gradient/Actor&#45;Critic&#45;&gt;IMPALA -->
<g id="edge39" class="edge">
<title>Policy Gradient/Actor&#45;Critic&#45;&gt;IMPALA</title>
<path fill="none" stroke="black" d="M396.43,-784.11C354.14,-776.4 311,-758.49 311,-717.5 311,-717.5 311,-717.5 311,-187.5 311,-172.67 312.07,-156.16 313.22,-142.7"/>
<polygon fill="black" stroke="black" points="316.71,-142.92 314.14,-132.64 309.74,-142.28 316.71,-142.92"/>
</g>
<!-- DQN -->
<g id="node15" class="node">
<title>DQN</title>
<path fill="#dae8fc" stroke="black" stroke-width="2" d="M942,-476.5C942,-476.5 972,-476.5 972,-476.5 978,-476.5 984,-482.5 984,-488.5 984,-488.5 984,-500.5 984,-500.5 984,-506.5 978,-512.5 972,-512.5 972,-512.5 942,-512.5 942,-512.5 936,-512.5 930,-506.5 930,-500.5 930,-500.5 930,-488.5 930,-488.5 930,-482.5 936,-476.5 942,-476.5"/>
<text text-anchor="middle" x="957" y="-491.4" font-family="sans-serif" font-size="12.00">DQN</text>
</g>
<!-- DDPG -->
<g id="node16" class="node">
<title>DDPG</title>
<path fill="#dae8fc" stroke="black" stroke-width="2" d="M168,-328.5C168,-328.5 198,-328.5 198,-328.5 204,-328.5 210,-334.5 210,-340.5 210,-340.5 210,-352.5 210,-352.5 210,-358.5 204,-364.5 198,-364.5 198,-364.5 168,-364.5 168,-364.5 162,-364.5 156,-358.5 156,-352.5 156,-352.5 156,-340.5 156,-340.5 156,-334.5 162,-328.5 168,-328.5"/>
<text text-anchor="middle" x="183" y="-343.4" font-family="sans-serif" font-size="12.00">DDPG</text>
</g>
<!-- DQN&#45;&gt;DDPG -->
<g id="edge12" class="edge">
<title>DQN&#45;&gt;DDPG</title>
<path fill="none" stroke="darkgray" stroke-dasharray="5,2" d="M929.91,-488.39C813.46,-466.42 355.3,-380 220.5,-354.57"/>
<polygon fill="darkgray" stroke="darkgray" points="220.75,-351.06 210.27,-352.64 219.45,-357.94 220.75,-351.06"/>
<text text-anchor="middle" x="686.5" y="-418" font-family="sans-serif" font-size="10.00" fill="darkgray">replay buffer</text>
</g>
<!-- ACER -->
<g id="node17" class="node">
<title>ACER</title>
<path fill="#dae8fc" stroke="black" stroke-width="2" d="M524,-170.5C524,-170.5 554,-170.5 554,-170.5 560,-170.5 566,-176.5 566,-182.5 566,-182.5 566,-194.5 566,-194.5 566,-200.5 560,-206.5 554,-206.5 554,-206.5 524,-206.5 524,-206.5 518,-206.5 512,-200.5 512,-194.5 512,-194.5 512,-182.5 512,-182.5 512,-176.5 518,-170.5 524,-170.5"/>
<text text-anchor="middle" x="539" y="-185.4" font-family="sans-serif" font-size="12.00">ACER</text>
</g>
<!-- DQN&#45;&gt;ACER -->
<g id="edge13" class="edge">
<title>DQN&#45;&gt;ACER</title>
<path fill="none" stroke="darkgray" stroke-dasharray="5,2" d="M929.55,-491.76C866.87,-487.23 715.83,-472.97 680,-439 674.13,-433.43 675,-429.59 675,-421.5 675,-421.5 675,-421.5 675,-271.5 675,-259.83 615.51,-227.73 575.22,-207.33"/>
<polygon fill="darkgray" stroke="darkgray" points="576.7,-204.15 566.19,-202.79 573.56,-210.41 576.7,-204.15"/>
<text text-anchor="middle" x="702.5" y="-344" font-family="sans-serif" font-size="10.00" fill="darkgray">replay buffer</text>
</g>
<!-- DDQN -->
<g id="node18" class="node">
<title>DDQN</title>
<path fill="#dae8fc" stroke="black" stroke-width="2" d="M906,-328.5C906,-328.5 936,-328.5 936,-328.5 942,-328.5 948,-334.5 948,-340.5 948,-340.5 948,-352.5 948,-352.5 948,-358.5 942,-364.5 936,-364.5 936,-364.5 906,-364.5 906,-364.5 900,-364.5 894,-358.5 894,-352.5 894,-352.5 894,-340.5 894,-340.5 894,-334.5 900,-328.5 906,-328.5"/>
<text text-anchor="middle" x="921" y="-343.4" font-family="sans-serif" font-size="12.00">DDQN</text>
</g>
<!-- DQN&#45;&gt;DDQN -->
<g id="edge20" class="edge">
<title>DQN&#45;&gt;DDQN</title>
<path fill="none" stroke="black" d="M952.8,-476.47C946.63,-451.44 935.05,-404.46 927.69,-374.65"/>
<polygon fill="black" stroke="black" points="931.08,-373.75 925.28,-364.88 924.28,-375.42 931.08,-373.75"/>
</g>
<!-- DRQN -->
<g id="node24" class="node">
<title>DRQN</title>
<path fill="#dae8fc" stroke="black" stroke-width="2" d="M834,-328.5C834,-328.5 864,-328.5 864,-328.5 870,-328.5 876,-334.5 876,-340.5 876,-340.5 876,-352.5 876,-352.5 876,-358.5 870,-364.5 864,-364.5 864,-364.5 834,-364.5 834,-364.5 828,-364.5 822,-358.5 822,-352.5 822,-352.5 822,-340.5 822,-340.5 822,-334.5 828,-328.5 834,-328.5"/>
<text text-anchor="middle" x="849" y="-343.4" font-family="sans-serif" font-size="12.00">DRQN</text>
</g>
<!-- DQN&#45;&gt;DRQN -->
<g id="edge19" class="edge">
<title>DQN&#45;&gt;DRQN</title>
<path fill="none" stroke="black" d="M944.4,-476.47C925.56,-451 889.92,-402.82 867.94,-373.1"/>
<polygon fill="black" stroke="black" points="870.62,-370.84 861.85,-364.88 864.99,-375 870.62,-370.84"/>
</g>
<!-- PER -->
<g id="node25" class="node">
<title>PER</title>
<path fill="#dae8fc" stroke="black" stroke-width="2" d="M978,-328.5C978,-328.5 1008,-328.5 1008,-328.5 1014,-328.5 1020,-334.5 1020,-340.5 1020,-340.5 1020,-352.5 1020,-352.5 1020,-358.5 1014,-364.5 1008,-364.5 1008,-364.5 978,-364.5 978,-364.5 972,-364.5 966,-358.5 966,-352.5 966,-352.5 966,-340.5 966,-340.5 966,-334.5 972,-328.5 978,-328.5"/>
<text text-anchor="middle" x="993" y="-343.4" font-family="sans-serif" font-size="12.00">PER</text>
</g>
<!-- DQN&#45;&gt;PER -->
<g id="edge21" class="edge">
<title>DQN&#45;&gt;PER</title>
<path fill="none" stroke="black" d="M961.2,-476.47C967.37,-451.44 978.95,-404.46 986.31,-374.65"/>
<polygon fill="black" stroke="black" points="989.72,-375.42 988.72,-364.88 982.92,-373.75 989.72,-375.42"/>
</g>
<!-- QR&#45;DQN -->
<g id="node26" class="node">
<title>QR&#45;DQN</title>
<path fill="#dae8fc" stroke="black" stroke-width="2" d="M766.5,-170.5C766.5,-170.5 807.5,-170.5 807.5,-170.5 813.5,-170.5 819.5,-176.5 819.5,-182.5 819.5,-182.5 819.5,-194.5 819.5,-194.5 819.5,-200.5 813.5,-206.5 807.5,-206.5 807.5,-206.5 766.5,-206.5 766.5,-206.5 760.5,-206.5 754.5,-200.5 754.5,-194.5 754.5,-194.5 754.5,-182.5 754.5,-182.5 754.5,-176.5 760.5,-170.5 766.5,-170.5"/>
<text text-anchor="middle" x="787" y="-185.4" font-family="sans-serif" font-size="12.00">QR&#45;DQN</text>
</g>
<!-- DQN&#45;&gt;QR&#45;DQN -->
<g id="edge22" class="edge">
<title>DQN&#45;&gt;QR&#45;DQN</title>
<path fill="none" stroke="black" d="M929.97,-479.46C894.96,-459.51 835.71,-419.24 813,-365 788.97,-307.6 829.65,-284.37 811,-225 809.94,-221.63 808.45,-218.3 806.73,-215.09"/>
<polygon fill="black" stroke="black" points="809.65,-213.16 801.4,-206.5 803.7,-216.85 809.65,-213.16"/>
</g>
<!-- C51 -->
<g id="node27" class="node">
<title>C51</title>
<path fill="#dae8fc" stroke="black" stroke-width="2" d="M959,-170.5C959,-170.5 989,-170.5 989,-170.5 995,-170.5 1001,-176.5 1001,-182.5 1001,-182.5 1001,-194.5 1001,-194.5 1001,-200.5 995,-206.5 989,-206.5 989,-206.5 959,-206.5 959,-206.5 953,-206.5 947,-200.5 947,-194.5 947,-194.5 947,-182.5 947,-182.5 947,-176.5 953,-170.5 959,-170.5"/>
<text text-anchor="middle" x="974" y="-185.4" font-family="sans-serif" font-size="12.00">C51</text>
</g>
<!-- DQN&#45;&gt;C51 -->
<g id="edge23" class="edge">
<title>DQN&#45;&gt;C51</title>
<path fill="none" stroke="black" d="M984.3,-482.87C1008.16,-471.59 1039,-451.24 1039,-421.5 1039,-421.5 1039,-421.5 1039,-271.5 1039,-248.39 1022.96,-228.01 1006.81,-213.34"/>
<polygon fill="black" stroke="black" points="1008.82,-210.45 998.94,-206.61 1004.27,-215.77 1008.82,-210.45"/>
</g>
<!-- DQN+HER -->
<g id="node28" class="node">
<title>DQN+HER</title>
<path fill="#dae8fc" stroke="black" stroke-width="2" d="M1031.5,-170.5C1031.5,-170.5 1084.5,-170.5 1084.5,-170.5 1090.5,-170.5 1096.5,-176.5 1096.5,-182.5 1096.5,-182.5 1096.5,-194.5 1096.5,-194.5 1096.5,-200.5 1090.5,-206.5 1084.5,-206.5 1084.5,-206.5 1031.5,-206.5 1031.5,-206.5 1025.5,-206.5 1019.5,-200.5 1019.5,-194.5 1019.5,-194.5 1019.5,-182.5 1019.5,-182.5 1019.5,-176.5 1025.5,-170.5 1031.5,-170.5"/>
<text text-anchor="middle" x="1058" y="-185.4" font-family="sans-serif" font-size="12.00">DQN+HER</text>
</g>
<!-- DQN&#45;&gt;DQN+HER -->
<g id="edge24" class="edge">
<title>DQN&#45;&gt;DQN+HER</title>
<path fill="none" stroke="black" d="M984.07,-486.98C1014.28,-477.89 1059,-458.24 1059,-421.5 1059,-421.5 1059,-421.5 1059,-271.5 1059,-253.34 1058.75,-232.92 1058.5,-217"/>
<polygon fill="black" stroke="black" points="1062,-216.72 1058.33,-206.78 1055,-216.83 1062,-216.72"/>
</g>
<!-- IQN -->
<g id="node29" class="node">
<title>IQN</title>
<path fill="#dae8fc" stroke="black" stroke-width="2" d="M1075,-96.5C1075,-96.5 1105,-96.5 1105,-96.5 1111,-96.5 1117,-102.5 1117,-108.5 1117,-108.5 1117,-120.5 1117,-120.5 1117,-126.5 1111,-132.5 1105,-132.5 1105,-132.5 1075,-132.5 1075,-132.5 1069,-132.5 1063,-126.5 1063,-120.5 1063,-120.5 1063,-108.5 1063,-108.5 1063,-102.5 1069,-96.5 1075,-96.5"/>
<text text-anchor="middle" x="1090" y="-111.4" font-family="sans-serif" font-size="12.00">IQN</text>
</g>
<!-- DQN&#45;&gt;IQN -->
<g id="edge25" class="edge">
<title>DQN&#45;&gt;IQN</title>
<path fill="none" stroke="black" d="M984.33,-493.04C1029.79,-490.66 1116,-478.62 1116,-421.5 1116,-421.5 1116,-421.5 1116,-187.5 1116,-171.67 1110.37,-154.99 1104.35,-141.67"/>
<polygon fill="black" stroke="black" points="1107.49,-140.11 1099.98,-132.63 1101.18,-143.15 1107.49,-140.11"/>
</g>
<!-- TD3 -->
<g id="node19" class="node">
<title>TD3</title>
<path fill="#dae8fc" stroke="black" stroke-width="2" d="M563,-96.5C563,-96.5 593,-96.5 593,-96.5 599,-96.5 605,-102.5 605,-108.5 605,-108.5 605,-120.5 605,-120.5 605,-126.5 599,-132.5 593,-132.5 593,-132.5 563,-132.5 563,-132.5 557,-132.5 551,-126.5 551,-120.5 551,-120.5 551,-108.5 551,-108.5 551,-102.5 557,-96.5 563,-96.5"/>
<text text-anchor="middle" x="578" y="-111.4" font-family="sans-serif" font-size="12.00">TD3</text>
</g>
<!-- DDPG&#45;&gt;TD3 -->
<g id="edge44" class="edge">
<title>DDPG&#45;&gt;TD3</title>
<path fill="none" stroke="black" d="M194.2,-328.43C220.73,-288.48 287.68,-190.74 321,-170 357.33,-147.39 478.48,-128.64 540.59,-120.25"/>
<polygon fill="black" stroke="black" points="541.29,-123.68 550.74,-118.89 540.37,-116.74 541.29,-123.68"/>
</g>
<!-- DDPG+HER -->
<g id="node39" class="node">
<title>DDPG+HER</title>
<path fill="#dae8fc" stroke="black" stroke-width="2" d="M110.5,-170.5C110.5,-170.5 171.5,-170.5 171.5,-170.5 177.5,-170.5 183.5,-176.5 183.5,-182.5 183.5,-182.5 183.5,-194.5 183.5,-194.5 183.5,-200.5 177.5,-206.5 171.5,-206.5 171.5,-206.5 110.5,-206.5 110.5,-206.5 104.5,-206.5 98.5,-200.5 98.5,-194.5 98.5,-194.5 98.5,-182.5 98.5,-182.5 98.5,-176.5 104.5,-170.5 110.5,-170.5"/>
<text text-anchor="middle" x="141" y="-185.4" font-family="sans-serif" font-size="12.00">DDPG+HER</text>
</g>
<!-- DDPG&#45;&gt;DDPG+HER -->
<g id="edge41" class="edge">
<title>DDPG&#45;&gt;DDPG+HER</title>
<path fill="none" stroke="darkgray" stroke-dasharray="5,2" d="M178.34,-328.21C171.09,-301.27 157.03,-249.04 148.38,-216.92"/>
<polygon fill="darkgray" stroke="darkgray" points="151.66,-215.61 145.68,-206.87 144.9,-217.43 151.66,-215.61"/>
</g>
<!-- MADDPG -->
<g id="node40" class="node">
<title>MADDPG</title>
<path fill="#dae8fc" stroke="black" stroke-width="2" d="M214,-170.5C214,-170.5 260,-170.5 260,-170.5 266,-170.5 272,-176.5 272,-182.5 272,-182.5 272,-194.5 272,-194.5 272,-200.5 266,-206.5 260,-206.5 260,-206.5 214,-206.5 214,-206.5 208,-206.5 202,-200.5 202,-194.5 202,-194.5 202,-182.5 202,-182.5 202,-176.5 208,-170.5 214,-170.5"/>
<text text-anchor="middle" x="237" y="-185.4" font-family="sans-serif" font-size="12.00">MADDPG</text>
</g>
<!-- DDPG&#45;&gt;MADDPG -->
<g id="edge42" class="edge">
<title>DDPG&#45;&gt;MADDPG</title>
<path fill="none" stroke="black" d="M188.99,-328.21C198.35,-301.15 216.55,-248.59 227.65,-216.51"/>
<polygon fill="black" stroke="black" points="231.02,-217.46 230.99,-206.87 224.41,-215.17 231.02,-217.46"/>
</g>
<!-- D4PG -->
<g id="node41" class="node">
<title>D4PG</title>
<path fill="#dae8fc" stroke="black" stroke-width="2" d="M90,-96.5C90,-96.5 120,-96.5 120,-96.5 126,-96.5 132,-102.5 132,-108.5 132,-108.5 132,-120.5 132,-120.5 132,-126.5 126,-132.5 120,-132.5 120,-132.5 90,-132.5 90,-132.5 84,-132.5 78,-126.5 78,-120.5 78,-120.5 78,-108.5 78,-108.5 78,-102.5 84,-96.5 90,-96.5"/>
<text text-anchor="middle" x="105" y="-111.4" font-family="sans-serif" font-size="12.00">D4PG</text>
</g>
<!-- DDPG&#45;&gt;D4PG -->
<g id="edge43" class="edge">
<title>DDPG&#45;&gt;D4PG</title>
<path fill="none" stroke="black" d="M166.54,-328.5C144.12,-304.01 105.02,-256.32 90,-207 83.51,-185.69 88.42,-160.69 94.3,-142.2"/>
<polygon fill="black" stroke="black" points="97.63,-143.27 97.6,-132.67 91.02,-140.98 97.63,-143.27"/>
</g>
<!-- DDQN&#45;&gt;TD3 -->
<g id="edge14" class="edge">
<title>DDQN&#45;&gt;TD3</title>
<path fill="none" stroke="darkgray" stroke-dasharray="5,2" d="M893.83,-331.18C844.66,-305.04 745.07,-250.9 735,-236 718.38,-211.42 743.73,-193.01 725,-170 698.14,-137 649.27,-123.98 615.29,-118.84"/>
<polygon fill="darkgray" stroke="darkgray" points="615.64,-115.36 605.26,-117.49 614.7,-122.3 615.64,-115.36"/>
<text text-anchor="middle" x="773" y="-228" font-family="sans-serif" font-size="10.00" fill="darkgray">double Q&#45;learning</text>
</g>
<!-- RAINBOW -->
<g id="node21" class="node">
<title>RAINBOW</title>
<path fill="#dae8fc" stroke="black" stroke-width="2" d="M867,-170.5C867,-170.5 917,-170.5 917,-170.5 923,-170.5 929,-176.5 929,-182.5 929,-182.5 929,-194.5 929,-194.5 929,-200.5 923,-206.5 917,-206.5 917,-206.5 867,-206.5 867,-206.5 861,-206.5 855,-200.5 855,-194.5 855,-194.5 855,-182.5 855,-182.5 855,-176.5 861,-170.5 867,-170.5"/>
<text text-anchor="middle" x="892" y="-185.4" font-family="sans-serif" font-size="12.00">RAINBOW</text>
</g>
<!-- DDQN&#45;&gt;RAINBOW -->
<g id="edge27" class="edge">
<title>DDQN&#45;&gt;RAINBOW</title>
<path fill="none" stroke="darkgray" stroke-dasharray="5,2" d="M897.34,-328.36C886.18,-318.78 874.01,-305.8 868,-291 858,-266.38 867.35,-236.63 877.16,-215.72"/>
<polygon fill="darkgray" stroke="darkgray" points="880.42,-217.02 881.77,-206.51 874.16,-213.88 880.42,-217.02"/>
</g>
<!-- Duelling&#45;DQN -->
<g id="node30" class="node">
<title>Duelling&#45;DQN</title>
<path fill="#dae8fc" stroke="black" stroke-width="2" d="M889,-254.5C889,-254.5 957,-254.5 957,-254.5 963,-254.5 969,-260.5 969,-266.5 969,-266.5 969,-278.5 969,-278.5 969,-284.5 963,-290.5 957,-290.5 957,-290.5 889,-290.5 889,-290.5 883,-290.5 877,-284.5 877,-278.5 877,-278.5 877,-266.5 877,-266.5 877,-260.5 883,-254.5 889,-254.5"/>
<text text-anchor="middle" x="923" y="-269.4" font-family="sans-serif" font-size="12.00">Duelling&#45;DQN</text>
</g>
<!-- DDQN&#45;&gt;Duelling&#45;DQN -->
<g id="edge26" class="edge">
<title>DDQN&#45;&gt;Duelling&#45;DQN</title>
<path fill="none" stroke="black" d="M921.47,-328.44C921.7,-320.31 921.98,-310.38 922.23,-301.2"/>
<polygon fill="black" stroke="black" points="925.74,-301.03 922.52,-290.94 918.74,-300.84 925.74,-301.03"/>
</g>
<!-- A3C&#45;&gt;ACER -->
<g id="edge49" class="edge">
<title>A3C&#45;&gt;ACER</title>
<path fill="none" stroke="black" d="M539,-254.11C539,-243.27 539,-229.1 539,-216.79"/>
<polygon fill="black" stroke="black" points="542.5,-216.58 539,-206.58 535.5,-216.58 542.5,-216.58"/>
</g>
<!-- A3C&#45;&gt;RAINBOW -->
<g id="edge15" class="edge">
<title>A3C&#45;&gt;RAINBOW</title>
<path fill="none" stroke="darkgray" stroke-dasharray="5,2" d="M566.04,-263.24C599.9,-253.13 659.81,-235.99 712,-225 763.48,-214.16 777.56,-218.06 829,-207 834.27,-205.87 839.76,-204.55 845.19,-203.16"/>
<polygon fill="darkgray" stroke="darkgray" points="846.1,-206.54 854.87,-200.6 844.31,-199.77 846.1,-206.54"/>
</g>
<!-- A2C -->
<g id="node43" class="node">
<title>A2C</title>
<path fill="#dae8fc" stroke="black" stroke-width="2" d="M434,-170.5C434,-170.5 464,-170.5 464,-170.5 470,-170.5 476,-176.5 476,-182.5 476,-182.5 476,-194.5 476,-194.5 476,-200.5 470,-206.5 464,-206.5 464,-206.5 434,-206.5 434,-206.5 428,-206.5 422,-200.5 422,-194.5 422,-194.5 422,-182.5 422,-182.5 422,-176.5 428,-170.5 434,-170.5"/>
<text text-anchor="middle" x="449" y="-185.4" font-family="sans-serif" font-size="12.00">A2C</text>
</g>
<!-- A3C&#45;&gt;A2C -->
<g id="edge48" class="edge">
<title>A3C&#45;&gt;A2C</title>
<path fill="none" stroke="black" d="M519.91,-254.11C506.94,-242.29 489.61,-226.5 475.32,-213.48"/>
<polygon fill="black" stroke="black" points="477.5,-210.73 467.75,-206.58 472.79,-215.91 477.5,-210.73"/>
</g>
<!-- Q&#45;learning&#45;&gt;DQN -->
<g id="edge18" class="edge">
<title>Q&#45;learning&#45;&gt;DQN</title>
<path fill="none" stroke="black" d="M957,-698.24C957,-660.16 957,-568.73 957,-522.8"/>
<polygon fill="black" stroke="black" points="960.5,-522.68 957,-512.68 953.5,-522.68 960.5,-522.68"/>
</g>
<!-- PER&#45;&gt;RAINBOW -->
<g id="edge28" class="edge">
<title>PER&#45;&gt;RAINBOW</title>
<path fill="none" stroke="darkgray" stroke-dasharray="5,2" d="M993.87,-328.35C994.07,-308.92 991.93,-276.99 978,-254 967.63,-236.9 950.88,-222.81 934.9,-212.21"/>
<polygon fill="darkgray" stroke="darkgray" points="936.47,-209.07 926.15,-206.69 932.73,-214.99 936.47,-209.07"/>
</g>
<!-- Duelling&#45;DQN&#45;&gt;RAINBOW -->
<g id="edge29" class="edge">
<title>Duelling&#45;DQN&#45;&gt;RAINBOW</title>
<path fill="none" stroke="darkgray" stroke-dasharray="5,2" d="M916.43,-254.11C912.25,-243.06 906.75,-228.53 902.04,-216.05"/>
<polygon fill="darkgray" stroke="darkgray" points="905.27,-214.7 898.46,-206.58 898.72,-217.18 905.27,-214.7"/>
</g>
<!-- DPG&#45;&gt;DDPG -->
<g id="edge40" class="edge">
<title>DPG&#45;&gt;DDPG</title>
<path fill="none" stroke="black" d="M183,-402.44C183,-394.31 183,-384.38 183,-375.2"/>
<polygon fill="black" stroke="black" points="186.5,-374.94 183,-364.94 179.5,-374.94 186.5,-374.94"/>
</g>
<!-- TRPO&#45;&gt;ACER -->
<g id="edge46" class="edge">
<title>TRPO&#45;&gt;ACER</title>
<path fill="none" stroke="darkgray" stroke-dasharray="5,2" d="M367.82,-328.44C380.85,-308.81 404.24,-276.41 430,-254 451.92,-234.93 480.25,-218.37 502.53,-206.8"/>
<polygon fill="darkgray" stroke="darkgray" points="504.34,-209.8 511.67,-202.15 501.17,-203.56 504.34,-209.8"/>
<text text-anchor="middle" x="466.5" y="-270" font-family="sans-serif" font-size="10.00" fill="darkgray">TRPO technique</text>
</g>
<!-- PPO -->
<g id="node42" class="node">
<title>PPO</title>
<path fill="#dae8fc" stroke="black" stroke-width="2" d="M342,-170.5C342,-170.5 372,-170.5 372,-170.5 378,-170.5 384,-176.5 384,-182.5 384,-182.5 384,-194.5 384,-194.5 384,-200.5 378,-206.5 372,-206.5 372,-206.5 342,-206.5 342,-206.5 336,-206.5 330,-200.5 330,-194.5 330,-194.5 330,-182.5 330,-182.5 330,-176.5 336,-170.5 342,-170.5"/>
<text text-anchor="middle" x="357" y="-185.4" font-family="sans-serif" font-size="12.00">PPO</text>
</g>
<!-- TRPO&#45;&gt;PPO -->
<g id="edge47" class="edge">
<title>TRPO&#45;&gt;PPO</title>
<path fill="none" stroke="darkgray" stroke-dasharray="5,2" d="M357,-328.21C357,-301.27 357,-249.04 357,-216.92"/>
<polygon fill="darkgray" stroke="darkgray" points="360.5,-216.87 357,-206.87 353.5,-216.87 360.5,-216.87"/>
</g>
<!-- PPO&#45;&gt;SAC -->
<!-- A2C&#45;&gt;ACKTR -->
<!-- A2C&#45;&gt;SVPG -->
<!-- A2C&#45;&gt;IMPALA -->
<!-- I2A -->
<g id="node45" class="node">
<title>I2A</title>
<path fill="#dae8fc" stroke="black" stroke-width="2" d="M1161,-170.5C1161,-170.5 1191,-170.5 1191,-170.5 1197,-170.5 1203,-176.5 1203,-182.5 1203,-182.5 1203,-194.5 1203,-194.5 1203,-200.5 1197,-206.5 1191,-206.5 1191,-206.5 1161,-206.5 1161,-206.5 1155,-206.5 1149,-200.5 1149,-194.5 1149,-194.5 1149,-182.5 1149,-182.5 1149,-176.5 1155,-170.5 1161,-170.5"/>
<text text-anchor="middle" x="1176" y="-185.4" font-family="sans-serif" font-size="12.00">I2A</text>
</g>
<!-- Model Based&#45;&gt;I2A -->
<g id="edge55" class="edge">
<title>Model Based&#45;&gt;I2A</title>
<path fill="none" stroke="black" d="M1414.39,-880.15C1342.27,-866.74 1206,-835.57 1206,-791.5 1206,-791.5 1206,-791.5 1206,-271.5 1206,-252.04 1198.46,-231.48 1190.94,-215.82"/>
<polygon fill="black" stroke="black" points="1193.98,-214.07 1186.32,-206.75 1187.74,-217.25 1193.98,-214.07"/>
</g>
<!-- MBMF -->
<g id="node46" class="node">
<title>MBMF</title>
<path fill="#dae8fc" stroke="black" stroke-width="2" d="M1233,-170.5C1233,-170.5 1263,-170.5 1263,-170.5 1269,-170.5 1275,-176.5 1275,-182.5 1275,-182.5 1275,-194.5 1275,-194.5 1275,-200.5 1269,-206.5 1263,-206.5 1263,-206.5 1233,-206.5 1233,-206.5 1227,-206.5 1221,-200.5 1221,-194.5 1221,-194.5 1221,-182.5 1221,-182.5 1221,-176.5 1227,-170.5 1233,-170.5"/>
<text text-anchor="middle" x="1248" y="-185.4" font-family="sans-serif" font-size="12.00">MBMF</text>
</g>
<!-- Model Based&#45;&gt;MBMF -->
<g id="edge56" class="edge">
<title>Model Based&#45;&gt;MBMF</title>
<path fill="none" stroke="black" d="M1414.1,-878.77C1370.15,-867.17 1309,-841.97 1309,-791.5 1309,-791.5 1309,-791.5 1309,-271.5 1309,-248.78 1293.74,-228.27 1278.48,-213.45"/>
<polygon fill="black" stroke="black" points="1280.8,-210.82 1271.06,-206.65 1276.07,-215.98 1280.8,-210.82"/>
</g>
<!-- Exit -->
<g id="node47" class="node">
<title>Exit</title>
<path fill="#dae8fc" stroke="black" stroke-width="2" d="M1305,-170.5C1305,-170.5 1335,-170.5 1335,-170.5 1341,-170.5 1347,-176.5 1347,-182.5 1347,-182.5 1347,-194.5 1347,-194.5 1347,-200.5 1341,-206.5 1335,-206.5 1335,-206.5 1305,-206.5 1305,-206.5 1299,-206.5 1293,-200.5 1293,-194.5 1293,-194.5 1293,-182.5 1293,-182.5 1293,-176.5 1299,-170.5 1305,-170.5"/>
<text text-anchor="middle" x="1320" y="-185.4" font-family="sans-serif" font-size="12.00">Exit</text>
</g>
<!-- Model Based&#45;&gt;Exit -->
<g id="edge57" class="edge">
<title>Model Based&#45;&gt;Exit</title>
<path fill="none" stroke="black" d="M1426.73,-870.18C1401.43,-853.63 1370,-826.09 1370,-791.5 1370,-791.5 1370,-791.5 1370,-271.5 1370,-250.12 1357.45,-229.58 1344.93,-214.4"/>
<polygon fill="black" stroke="black" points="1347.27,-211.77 1338.05,-206.56 1342.01,-216.38 1347.27,-211.77"/>
</g>
<!-- AlphaZero -->
<g id="node48" class="node">
<title>AlphaZero</title>
<path fill="#dae8fc" stroke="black" stroke-width="2" d="M1377.5,-170.5C1377.5,-170.5 1426.5,-170.5 1426.5,-170.5 1432.5,-170.5 1438.5,-176.5 1438.5,-182.5 1438.5,-182.5 1438.5,-194.5 1438.5,-194.5 1438.5,-200.5 1432.5,-206.5 1426.5,-206.5 1426.5,-206.5 1377.5,-206.5 1377.5,-206.5 1371.5,-206.5 1365.5,-200.5 1365.5,-194.5 1365.5,-194.5 1365.5,-182.5 1365.5,-182.5 1365.5,-176.5 1371.5,-170.5 1377.5,-170.5"/>
<text text-anchor="middle" x="1402" y="-185.4" font-family="sans-serif" font-size="12.00">AlphaZero</text>
</g>
<!-- Model Based&#45;&gt;AlphaZero -->
<g id="edge58" class="edge">
<title>Model Based&#45;&gt;AlphaZero</title>
<path fill="none" stroke="black" d="M1446.6,-870.26C1435.41,-851.65 1420,-820.72 1420,-791.5 1420,-791.5 1420,-791.5 1420,-271.5 1420,-252.73 1415.44,-232.09 1410.92,-216.22"/>
<polygon fill="black" stroke="black" points="1414.24,-215.1 1407.99,-206.54 1407.53,-217.12 1414.24,-215.1"/>
</g>
<!-- MVE -->
<g id="node49" class="node">
<title>MVE</title>
<path fill="#dae8fc" stroke="black" stroke-width="2" d="M1161,-96.5C1161,-96.5 1191,-96.5 1191,-96.5 1197,-96.5 1203,-102.5 1203,-108.5 1203,-108.5 1203,-120.5 1203,-120.5 1203,-126.5 1197,-132.5 1191,-132.5 1191,-132.5 1161,-132.5 1161,-132.5 1155,-132.5 1149,-126.5 1149,-120.5 1149,-120.5 1149,-108.5 1149,-108.5 1149,-102.5 1155,-96.5 1161,-96.5"/>
<text text-anchor="middle" x="1176" y="-111.4" font-family="sans-serif" font-size="12.00">MVE</text>
</g>
<!-- Model Based&#45;&gt;MVE -->
<g id="edge59" class="edge">
<title>Model Based&#45;&gt;MVE</title>
<path fill="none" stroke="black" d="M1458,-870.16C1458,-850.93 1458,-819 1458,-791.5 1458,-791.5 1458,-791.5 1458,-187.5 1458,-138.01 1440.17,-203.02 1213,-133 1212.9,-132.97 1212.8,-132.94 1212.69,-132.91"/>
<polygon fill="black" stroke="black" points="1213.72,-129.55 1203.13,-129.4 1211.31,-136.13 1213.72,-129.55"/>
</g>
<!-- STEVE -->
<g id="node50" class="node">
<title>STEVE</title>
<path fill="#dae8fc" stroke="black" stroke-width="2" d="M1233.5,-96.5C1233.5,-96.5 1266.5,-96.5 1266.5,-96.5 1272.5,-96.5 1278.5,-102.5 1278.5,-108.5 1278.5,-108.5 1278.5,-120.5 1278.5,-120.5 1278.5,-126.5 1272.5,-132.5 1266.5,-132.5 1266.5,-132.5 1233.5,-132.5 1233.5,-132.5 1227.5,-132.5 1221.5,-126.5 1221.5,-120.5 1221.5,-120.5 1221.5,-108.5 1221.5,-108.5 1221.5,-102.5 1227.5,-96.5 1233.5,-96.5"/>
<text text-anchor="middle" x="1250" y="-111.4" font-family="sans-serif" font-size="12.00">STEVE</text>
</g>
<!-- Model Based&#45;&gt;STEVE -->
<g id="edge60" class="edge">
<title>Model Based&#45;&gt;STEVE</title>
<path fill="none" stroke="black" d="M1463.78,-870.38C1469.69,-851.35 1478,-819.59 1478,-791.5 1478,-791.5 1478,-791.5 1478,-187.5 1478,-102.74 1380.01,-152.38 1288.63,-132.37"/>
<polygon fill="black" stroke="black" points="1289.23,-128.91 1278.68,-129.89 1287.54,-135.7 1289.23,-128.91"/>
</g>
<!-- ME&#45;TRPO -->
<g id="node51" class="node">
<title>ME&#45;TRPO</title>
<path fill="#dae8fc" stroke="black" stroke-width="2" d="M1309,-96.5C1309,-96.5 1357,-96.5 1357,-96.5 1363,-96.5 1369,-102.5 1369,-108.5 1369,-108.5 1369,-120.5 1369,-120.5 1369,-126.5 1363,-132.5 1357,-132.5 1357,-132.5 1309,-132.5 1309,-132.5 1303,-132.5 1297,-126.5 1297,-120.5 1297,-120.5 1297,-108.5 1297,-108.5 1297,-102.5 1303,-96.5 1309,-96.5"/>
<text text-anchor="middle" x="1333" y="-111.4" font-family="sans-serif" font-size="12.00">ME&#45;TRPO</text>
</g>
<!-- Model Based&#45;&gt;ME&#45;TRPO -->
<g id="edge61" class="edge">
<title>Model Based&#45;&gt;ME&#45;TRPO</title>
<path fill="none" stroke="black" d="M1472.09,-870.23C1476.08,-864.67 1480.12,-858.31 1483,-852 1494.51,-826.8 1498,-819.2 1498,-791.5 1498,-791.5 1498,-791.5 1498,-187.5 1498,-169.96 1496.68,-161.98 1483,-151 1446.41,-121.65 1424.24,-145.4 1379,-133 1378.9,-132.97 1378.8,-132.94 1378.7,-132.92"/>
<polygon fill="black" stroke="black" points="1379.78,-129.59 1369.19,-130.01 1377.73,-136.28 1379.78,-129.59"/>
</g>
<!-- MB&#45;MPO -->
<g id="node52" class="node">
<title>MB&#45;MPO</title>
<path fill="#dae8fc" stroke="black" stroke-width="2" d="M1399.5,-96.5C1399.5,-96.5 1440.5,-96.5 1440.5,-96.5 1446.5,-96.5 1452.5,-102.5 1452.5,-108.5 1452.5,-108.5 1452.5,-120.5 1452.5,-120.5 1452.5,-126.5 1446.5,-132.5 1440.5,-132.5 1440.5,-132.5 1399.5,-132.5 1399.5,-132.5 1393.5,-132.5 1387.5,-126.5 1387.5,-120.5 1387.5,-120.5 1387.5,-108.5 1387.5,-108.5 1387.5,-102.5 1393.5,-96.5 1399.5,-96.5"/>
<text text-anchor="middle" x="1420" y="-111.4" font-family="sans-serif" font-size="12.00">MB&#45;MPO</text>
</g>
<!-- Model Based&#45;&gt;MB&#45;MPO -->
<g id="edge62" class="edge">
<title>Model Based&#45;&gt;MB&#45;MPO</title>
<path fill="none" stroke="black" d="M1485.51,-870.47C1492.07,-865.26 1498.47,-859.02 1503,-852 1518.02,-828.72 1518,-819.2 1518,-791.5 1518,-791.5 1518,-791.5 1518,-187.5 1518,-169.96 1515.31,-163.49 1503,-151 1502.14,-150.13 1482.28,-141.62 1462.2,-133.15"/>
<polygon fill="black" stroke="black" points="1463.29,-129.82 1452.72,-129.16 1460.58,-136.27 1463.29,-129.82"/>
</g>
<!-- World Models -->
<g id="node53" class="node">
<title>World Models</title>
<path fill="#dae8fc" stroke="black" stroke-width="2" d="M1483,-96.5C1483,-96.5 1549,-96.5 1549,-96.5 1555,-96.5 1561,-102.5 1561,-108.5 1561,-108.5 1561,-120.5 1561,-120.5 1561,-126.5 1555,-132.5 1549,-132.5 1549,-132.5 1483,-132.5 1483,-132.5 1477,-132.5 1471,-126.5 1471,-120.5 1471,-120.5 1471,-108.5 1471,-108.5 1471,-102.5 1477,-96.5 1483,-96.5"/>
<text text-anchor="middle" x="1516" y="-111.4" font-family="sans-serif" font-size="12.00">World Models</text>
</g>
<!-- Model Based&#45;&gt;World Models -->
<g id="edge63" class="edge">
<title>Model Based&#45;&gt;World Models</title>
<path fill="none" stroke="black" d="M1488.86,-870.38C1499.43,-863.16 1510.48,-853.89 1518,-843 1531.95,-822.79 1538,-816.05 1538,-791.5 1538,-791.5 1538,-791.5 1538,-187.5 1538,-171.98 1533.27,-155.37 1528.19,-142.02"/>
<polygon fill="black" stroke="black" points="1531.33,-140.45 1524.32,-132.51 1524.85,-143.09 1531.33,-140.45"/>
</g>
<!-- SimPLe -->
<g id="node54" class="node">
<title>SimPLe</title>
<path fill="#dae8fc" stroke="black" stroke-width="2" d="M1533.5,-16.5C1533.5,-16.5 1568.5,-16.5 1568.5,-16.5 1574.5,-16.5 1580.5,-22.5 1580.5,-28.5 1580.5,-28.5 1580.5,-40.5 1580.5,-40.5 1580.5,-46.5 1574.5,-52.5 1568.5,-52.5 1568.5,-52.5 1533.5,-52.5 1533.5,-52.5 1527.5,-52.5 1521.5,-46.5 1521.5,-40.5 1521.5,-40.5 1521.5,-28.5 1521.5,-28.5 1521.5,-22.5 1527.5,-16.5 1533.5,-16.5"/>
<text text-anchor="middle" x="1551" y="-31.4" font-family="sans-serif" font-size="12.00">SimPLe</text>
</g>
<!-- Model Based&#45;&gt;SimPLe -->
<g id="edge64" class="edge">
<title>Model Based&#45;&gt;SimPLe</title>
<path fill="none" stroke="black" d="M1501.7,-873.27C1536.71,-858.8 1580,-832.6 1580,-791.5 1580,-791.5 1580,-791.5 1580,-113.5 1580,-95.49 1573.12,-76.52 1566.06,-61.79"/>
<polygon fill="black" stroke="black" points="1569.13,-60.11 1561.47,-52.79 1562.89,-63.29 1569.13,-60.11"/>
</g>
</g>
</svg>
