<?xml version="1.0" encoding="UTF-8" standalone="no"?>
<!DOCTYPE svg PUBLIC "-//W3C//DTD SVG 1.1//EN"
 "http://www.w3.org/Graphics/SVG/1.1/DTD/svg11.dtd">
<!-- Generated by graphviz version 2.38.0 (20140413.2041)
 -->
<!-- Title: %3 Pages: 1 -->
<svg width="1175pt" height="835pt"
 viewBox="0.00 0.00 1175.00 835.00" xmlns="http://www.w3.org/2000/svg" xmlns:xlink="http://www.w3.org/1999/xlink">
<g id="graph0" class="graph" transform="scale(1 1) rotate(0) translate(4 831)">
<title>%3</title>
<polygon fill="white" stroke="none" points="-4,4 -4,-831 1171,-831 1171,4 -4,4"/>
<g id="clust3" class="cluster"><title>clusterPolicy Gradient/Actor&#45;Critic</title>
<polygon fill="none" stroke="black" stroke-dasharray="5,2" points="509,-8 509,-763 1159,-763 1159,-8 509,-8"/>
<text text-anchor="middle" x="834" y="-746.2" font-family="sans-serif" font-size="16.00">Policy Gradient/Actor&#45;Critic</text>
</g>
<g id="clust2" class="cluster"><title>clusterValue Gradient</title>
<polygon fill="none" stroke="black" stroke-dasharray="5,2" points="135,-82 135,-763 501,-763 501,-82 135,-82"/>
<text text-anchor="middle" x="318" y="-746.2" font-family="sans-serif" font-size="16.00">Value Gradient</text>
</g>
<!-- 1989 -->
<g id="node1" class="node"><title>1989</title>
<text text-anchor="middle" x="27" y="-634" font-family="sans-serif" font-size="10.00" fill="blue">1989</text>
</g>
<!-- 1992 -->
<g id="node2" class="node"><title>1992</title>
<text text-anchor="middle" x="27" y="-560" font-family="sans-serif" font-size="10.00" fill="blue">1992</text>
</g>
<!-- 1989&#45;&gt;1992 -->
<g id="edge1" class="edge"><title>1989&#45;&gt;1992</title>
<path fill="none" stroke="blue" d="M27,-618.437C27,-610.307 27,-600.376 27,-591.205"/>
<polygon fill="blue" stroke="blue" points="30.5001,-590.941 27,-580.941 23.5001,-590.941 30.5001,-590.941"/>
</g>
<!-- 1994 -->
<g id="node3" class="node"><title>1994</title>
<text text-anchor="middle" x="27" y="-486" font-family="sans-serif" font-size="10.00" fill="blue">1994</text>
</g>
<!-- 1992&#45;&gt;1994 -->
<g id="edge2" class="edge"><title>1992&#45;&gt;1994</title>
<path fill="none" stroke="blue" d="M27,-544.437C27,-536.307 27,-526.376 27,-517.205"/>
<polygon fill="blue" stroke="blue" points="30.5001,-516.941 27,-506.941 23.5001,-516.941 30.5001,-516.941"/>
</g>
<!-- 2013 -->
<g id="node4" class="node"><title>2013</title>
<text text-anchor="middle" x="27" y="-412" font-family="sans-serif" font-size="10.00" fill="blue">2013</text>
</g>
<!-- 1994&#45;&gt;2013 -->
<g id="edge3" class="edge"><title>1994&#45;&gt;2013</title>
<path fill="none" stroke="blue" d="M27,-470.437C27,-462.307 27,-452.376 27,-443.205"/>
<polygon fill="blue" stroke="blue" points="30.5001,-442.941 27,-432.941 23.5001,-442.941 30.5001,-442.941"/>
</g>
<!-- 2014 -->
<g id="node5" class="node"><title>2014</title>
<text text-anchor="middle" x="27" y="-338" font-family="sans-serif" font-size="10.00" fill="blue">2014</text>
</g>
<!-- 2013&#45;&gt;2014 -->
<g id="edge4" class="edge"><title>2013&#45;&gt;2014</title>
<path fill="none" stroke="blue" d="M27,-396.437C27,-388.307 27,-378.376 27,-369.205"/>
<polygon fill="blue" stroke="blue" points="30.5001,-368.941 27,-358.941 23.5001,-368.941 30.5001,-368.941"/>
</g>
<!-- 2015 -->
<g id="node6" class="node"><title>2015</title>
<text text-anchor="middle" x="27" y="-264" font-family="sans-serif" font-size="10.00" fill="blue">2015</text>
</g>
<!-- 2014&#45;&gt;2015 -->
<g id="edge5" class="edge"><title>2014&#45;&gt;2015</title>
<path fill="none" stroke="blue" d="M27,-322.437C27,-314.307 27,-304.376 27,-295.205"/>
<polygon fill="blue" stroke="blue" points="30.5001,-294.941 27,-284.941 23.5001,-294.941 30.5001,-294.941"/>
</g>
<!-- 2016 -->
<g id="node7" class="node"><title>2016</title>
<text text-anchor="middle" x="27" y="-190" font-family="sans-serif" font-size="10.00" fill="blue">2016</text>
</g>
<!-- 2015&#45;&gt;2016 -->
<g id="edge6" class="edge"><title>2015&#45;&gt;2016</title>
<path fill="none" stroke="blue" d="M27,-248.437C27,-240.307 27,-230.376 27,-221.205"/>
<polygon fill="blue" stroke="blue" points="30.5001,-220.941 27,-210.941 23.5001,-220.941 30.5001,-220.941"/>
</g>
<!-- 2017 -->
<g id="node8" class="node"><title>2017</title>
<text text-anchor="middle" x="27" y="-106" font-family="sans-serif" font-size="10.00" fill="blue">2017</text>
</g>
<!-- 2016&#45;&gt;2017 -->
<g id="edge7" class="edge"><title>2016&#45;&gt;2017</title>
<path fill="none" stroke="blue" d="M27,-174.11C27,-163.274 27,-149.101 27,-136.791"/>
<polygon fill="blue" stroke="blue" points="30.5001,-136.584 27,-126.584 23.5001,-136.584 30.5001,-136.584"/>
</g>
<!-- 2018 -->
<g id="node9" class="node"><title>2018</title>
<text text-anchor="middle" x="27" y="-32" font-family="sans-serif" font-size="10.00" fill="blue">2018</text>
</g>
<!-- 2017&#45;&gt;2018 -->
<g id="edge8" class="edge"><title>2017&#45;&gt;2018</title>
<path fill="none" stroke="blue" d="M27,-90.437C27,-82.3072 27,-72.3761 27,-63.2047"/>
<polygon fill="blue" stroke="blue" points="30.5001,-62.9406 27,-52.9407 23.5001,-62.9407 30.5001,-62.9406"/>
</g>
<!-- Reinforcement Learning -->
<g id="node10" class="node"><title>Reinforcement Learning</title>
<path fill="none" stroke="black" d="M657,-790.5C657,-790.5 789,-790.5 789,-790.5 795,-790.5 801,-796.5 801,-802.5 801,-802.5 801,-814.5 801,-814.5 801,-820.5 795,-826.5 789,-826.5 789,-826.5 657,-826.5 657,-826.5 651,-826.5 645,-820.5 645,-814.5 645,-814.5 645,-802.5 645,-802.5 645,-796.5 651,-790.5 657,-790.5"/>
<text text-anchor="middle" x="723" y="-805.4" font-family="sans-serif" font-size="12.00">Reinforcement Learning</text>
</g>
<!-- vg -->
<!-- Reinforcement Learning&#45;&gt;vg -->
<g id="edge51" class="edge"><title>Reinforcement Learning&#45;&gt;vg</title>
<path fill="none" stroke="black" d="M644.929,-800.26C604.897,-794.572 555.816,-784.504 510.155,-765.107"/>
<polygon fill="black" stroke="black" points="511.332,-761.801 500.77,-760.964 508.504,-768.205 511.332,-761.801"/>
</g>
<!-- pg -->
<!-- Reinforcement Learning&#45;&gt;pg -->
<g id="edge52" class="edge"><title>Reinforcement Learning&#45;&gt;pg</title>
<path fill="none" stroke="black" d="M759.65,-790.337C774.009,-783.613 791.358,-775.488 809.39,-767.044"/>
<polygon fill="black" stroke="black" points="811.297,-770.016 818.869,-762.605 808.329,-763.677 811.297,-770.016"/>
</g>
<!-- DQN -->
<g id="node11" class="node"><title>DQN</title>
<path fill="none" stroke="black" d="M263,-396.5C263,-396.5 293,-396.5 293,-396.5 299,-396.5 305,-402.5 305,-408.5 305,-408.5 305,-420.5 305,-420.5 305,-426.5 299,-432.5 293,-432.5 293,-432.5 263,-432.5 263,-432.5 257,-432.5 251,-426.5 251,-420.5 251,-420.5 251,-408.5 251,-408.5 251,-402.5 257,-396.5 263,-396.5"/>
<text text-anchor="middle" x="278" y="-411.4" font-family="sans-serif" font-size="12.00">DQN</text>
</g>
<!-- DDPG -->
<g id="node12" class="node"><title>DDPG</title>
<path fill="none" stroke="black" d="M761,-248.5C761,-248.5 791,-248.5 791,-248.5 797,-248.5 803,-254.5 803,-260.5 803,-260.5 803,-272.5 803,-272.5 803,-278.5 797,-284.5 791,-284.5 791,-284.5 761,-284.5 761,-284.5 755,-284.5 749,-278.5 749,-272.5 749,-272.5 749,-260.5 749,-260.5 749,-254.5 755,-248.5 761,-248.5"/>
<text text-anchor="middle" x="776" y="-263.4" font-family="sans-serif" font-size="12.00">DDPG</text>
</g>
<!-- DQN&#45;&gt;DDPG -->
<g id="edge9" class="edge"><title>DQN&#45;&gt;DDPG</title>
<path fill="none" stroke="darkgray" stroke-dasharray="5,2" d="M305.128,-405.547C388.848,-381.002 643.274,-306.412 739.028,-278.339"/>
<polygon fill="darkgray" stroke="darkgray" points="740.236,-281.633 748.847,-275.46 738.266,-274.915 740.236,-281.633"/>
<text text-anchor="middle" x="615.5" y="-338" font-family="sans-serif" font-size="10.00" fill="darkgray">replay buffer</text>
</g>
<!-- ACER -->
<g id="node13" class="node"><title>ACER</title>
<path fill="none" stroke="black" d="M619,-90.5C619,-90.5 649,-90.5 649,-90.5 655,-90.5 661,-96.5 661,-102.5 661,-102.5 661,-114.5 661,-114.5 661,-120.5 655,-126.5 649,-126.5 649,-126.5 619,-126.5 619,-126.5 613,-126.5 607,-120.5 607,-114.5 607,-114.5 607,-102.5 607,-102.5 607,-96.5 613,-90.5 619,-90.5"/>
<text text-anchor="middle" x="634" y="-105.4" font-family="sans-serif" font-size="12.00">ACER</text>
</g>
<!-- DQN&#45;&gt;ACER -->
<g id="edge10" class="edge"><title>DQN&#45;&gt;ACER</title>
<path fill="none" stroke="darkgray" stroke-dasharray="5,2" d="M250.612,-399.538C197.55,-370.756 90.0843,-302.917 139,-248 186.466,-194.71 390.243,-233.401 458,-211 512.722,-192.909 569.29,-156.561 603.054,-132.633"/>
<polygon fill="darkgray" stroke="darkgray" points="605.461,-135.213 611.542,-126.537 601.378,-129.528 605.461,-135.213"/>
<text text-anchor="middle" x="190.5" y="-264" font-family="sans-serif" font-size="10.00" fill="darkgray">replay buffer, workers</text>
</g>
<!-- DDQN -->
<g id="node14" class="node"><title>DDQN</title>
<path fill="none" stroke="black" d="M407,-248.5C407,-248.5 437,-248.5 437,-248.5 443,-248.5 449,-254.5 449,-260.5 449,-260.5 449,-272.5 449,-272.5 449,-278.5 443,-284.5 437,-284.5 437,-284.5 407,-284.5 407,-284.5 401,-284.5 395,-278.5 395,-272.5 395,-272.5 395,-260.5 395,-260.5 395,-254.5 401,-248.5 407,-248.5"/>
<text text-anchor="middle" x="422" y="-263.4" font-family="sans-serif" font-size="12.00">DDQN</text>
</g>
<!-- DQN&#45;&gt;DDQN -->
<g id="edge17" class="edge"><title>DQN&#45;&gt;DDQN</title>
<path fill="none" stroke="black" d="M294.8,-396.466C320.135,-370.779 368.259,-321.988 397.502,-292.338"/>
<polygon fill="black" stroke="black" points="400.33,-294.455 404.86,-284.878 395.346,-289.54 400.33,-294.455"/>
</g>
<!-- DRQN -->
<g id="node20" class="node"><title>DRQN</title>
<path fill="none" stroke="black" d="M335,-248.5C335,-248.5 365,-248.5 365,-248.5 371,-248.5 377,-254.5 377,-260.5 377,-260.5 377,-272.5 377,-272.5 377,-278.5 371,-284.5 365,-284.5 365,-284.5 335,-284.5 335,-284.5 329,-284.5 323,-278.5 323,-272.5 323,-272.5 323,-260.5 323,-260.5 323,-254.5 329,-248.5 335,-248.5"/>
<text text-anchor="middle" x="350" y="-263.4" font-family="sans-serif" font-size="12.00">DRQN</text>
</g>
<!-- DQN&#45;&gt;DRQN -->
<g id="edge16" class="edge"><title>DQN&#45;&gt;DRQN</title>
<path fill="none" stroke="black" d="M286.4,-396.466C298.852,-371.217 322.314,-323.642 336.996,-293.868"/>
<polygon fill="black" stroke="black" points="340.146,-295.395 341.43,-284.878 333.868,-292.299 340.146,-295.395"/>
</g>
<!-- PER -->
<g id="node21" class="node"><title>PER</title>
<path fill="none" stroke="black" d="M263,-248.5C263,-248.5 293,-248.5 293,-248.5 299,-248.5 305,-254.5 305,-260.5 305,-260.5 305,-272.5 305,-272.5 305,-278.5 299,-284.5 293,-284.5 293,-284.5 263,-284.5 263,-284.5 257,-284.5 251,-278.5 251,-272.5 251,-272.5 251,-260.5 251,-260.5 251,-254.5 257,-248.5 263,-248.5"/>
<text text-anchor="middle" x="278" y="-263.4" font-family="sans-serif" font-size="12.00">PER</text>
</g>
<!-- DQN&#45;&gt;PER -->
<g id="edge18" class="edge"><title>DQN&#45;&gt;PER</title>
<path fill="none" stroke="black" d="M278,-396.466C278,-371.545 278,-324.874 278,-295.037"/>
<polygon fill="black" stroke="black" points="281.5,-294.878 278,-284.878 274.5,-294.878 281.5,-294.878"/>
</g>
<!-- QR&#45;DQN -->
<g id="node22" class="node"><title>QR&#45;DQN</title>
<path fill="none" stroke="black" d="M252.5,-90.5C252.5,-90.5 295.5,-90.5 295.5,-90.5 301.5,-90.5 307.5,-96.5 307.5,-102.5 307.5,-102.5 307.5,-114.5 307.5,-114.5 307.5,-120.5 301.5,-126.5 295.5,-126.5 295.5,-126.5 252.5,-126.5 252.5,-126.5 246.5,-126.5 240.5,-120.5 240.5,-114.5 240.5,-114.5 240.5,-102.5 240.5,-102.5 240.5,-96.5 246.5,-90.5 252.5,-90.5"/>
<text text-anchor="middle" x="274" y="-105.4" font-family="sans-serif" font-size="12.00">QR&#45;DQN</text>
</g>
<!-- DQN&#45;&gt;QR&#45;DQN -->
<g id="edge19" class="edge"><title>DQN&#45;&gt;QR&#45;DQN</title>
<path fill="none" stroke="black" d="M259.29,-396.48C246.555,-382.971 232,-362.86 232,-341.5 232,-341.5 232,-341.5 232,-191.5 232,-171.043 242.483,-150.559 252.975,-135.182"/>
<polygon fill="black" stroke="black" points="256.045,-136.909 259.074,-126.756 250.375,-132.804 256.045,-136.909"/>
</g>
<!-- DQN+HER -->
<g id="node23" class="node"><title>DQN+HER</title>
<path fill="none" stroke="black" d="M155.5,-90.5C155.5,-90.5 210.5,-90.5 210.5,-90.5 216.5,-90.5 222.5,-96.5 222.5,-102.5 222.5,-102.5 222.5,-114.5 222.5,-114.5 222.5,-120.5 216.5,-126.5 210.5,-126.5 210.5,-126.5 155.5,-126.5 155.5,-126.5 149.5,-126.5 143.5,-120.5 143.5,-114.5 143.5,-114.5 143.5,-102.5 143.5,-102.5 143.5,-96.5 149.5,-90.5 155.5,-90.5"/>
<text text-anchor="middle" x="183" y="-105.4" font-family="sans-serif" font-size="12.00">DQN+HER</text>
</g>
<!-- DQN&#45;&gt;DQN+HER -->
<g id="edge20" class="edge"><title>DQN&#45;&gt;DQN+HER</title>
<path fill="none" stroke="black" d="M250.774,-397.973C232.594,-385.373 212,-365.749 212,-341.5 212,-341.5 212,-341.5 212,-191.5 212,-170.714 214.143,-164.52 207,-145 205.787,-141.686 204.2,-138.381 202.418,-135.196"/>
<polygon fill="black" stroke="black" points="205.318,-133.232 197.033,-126.627 199.391,-136.956 205.318,-133.232"/>
</g>
<!-- TD3 -->
<g id="node15" class="node"><title>TD3</title>
<path fill="none" stroke="black" d="M561,-16.5C561,-16.5 591,-16.5 591,-16.5 597,-16.5 603,-22.5 603,-28.5 603,-28.5 603,-40.5 603,-40.5 603,-46.5 597,-52.5 591,-52.5 591,-52.5 561,-52.5 561,-52.5 555,-52.5 549,-46.5 549,-40.5 549,-40.5 549,-28.5 549,-28.5 549,-22.5 555,-16.5 561,-16.5"/>
<text text-anchor="middle" x="576" y="-31.4" font-family="sans-serif" font-size="12.00">TD3</text>
</g>
<!-- DDPG&#45;&gt;TD3 -->
<g id="edge40" class="edge"><title>DDPG&#45;&gt;TD3</title>
<path fill="none" stroke="black" d="M778.833,-248.397C785.15,-207.806 798.304,-107.168 778,-82 739.74,-34.5745 703.295,-67.0405 644,-53 633.858,-50.5984 622.905,-47.849 612.815,-45.2519"/>
<polygon fill="black" stroke="black" points="613.632,-41.8482 603.074,-42.7242 611.874,-48.6238 613.632,-41.8482"/>
</g>
<!-- DDPG+HER -->
<g id="node36" class="node"><title>DDPG+HER</title>
<path fill="none" stroke="black" d="M819,-90.5C819,-90.5 881,-90.5 881,-90.5 887,-90.5 893,-96.5 893,-102.5 893,-102.5 893,-114.5 893,-114.5 893,-120.5 887,-126.5 881,-126.5 881,-126.5 819,-126.5 819,-126.5 813,-126.5 807,-120.5 807,-114.5 807,-114.5 807,-102.5 807,-102.5 807,-96.5 813,-90.5 819,-90.5"/>
<text text-anchor="middle" x="850" y="-105.4" font-family="sans-serif" font-size="12.00">DDPG+HER</text>
</g>
<!-- DDPG&#45;&gt;DDPG+HER -->
<g id="edge37" class="edge"><title>DDPG&#45;&gt;DDPG+HER</title>
<path fill="none" stroke="darkgray" stroke-dasharray="5,2" d="M784.317,-248.174C787.085,-242.396 790.181,-235.923 793,-230 808.385,-197.676 825.989,-160.419 837.513,-135.992"/>
<polygon fill="darkgray" stroke="darkgray" points="840.808,-137.211 841.908,-126.673 834.477,-134.225 840.808,-137.211"/>
</g>
<!-- MADDPG -->
<g id="node37" class="node"><title>MADDPG</title>
<path fill="none" stroke="black" d="M711.5,-90.5C711.5,-90.5 756.5,-90.5 756.5,-90.5 762.5,-90.5 768.5,-96.5 768.5,-102.5 768.5,-102.5 768.5,-114.5 768.5,-114.5 768.5,-120.5 762.5,-126.5 756.5,-126.5 756.5,-126.5 711.5,-126.5 711.5,-126.5 705.5,-126.5 699.5,-120.5 699.5,-114.5 699.5,-114.5 699.5,-102.5 699.5,-102.5 699.5,-96.5 705.5,-90.5 711.5,-90.5"/>
<text text-anchor="middle" x="734" y="-105.4" font-family="sans-serif" font-size="12.00">MADDPG</text>
</g>
<!-- DDPG&#45;&gt;MADDPG -->
<g id="edge38" class="edge"><title>DDPG&#45;&gt;MADDPG</title>
<path fill="none" stroke="black" d="M771.345,-248.209C764.091,-221.268 750.03,-169.04 741.383,-136.923"/>
<polygon fill="black" stroke="black" points="744.656,-135.614 738.676,-126.868 737.896,-137.434 744.656,-135.614"/>
</g>
<!-- D4PG -->
<g id="node38" class="node"><title>D4PG</title>
<path fill="none" stroke="black" d="M665,-16.5C665,-16.5 695,-16.5 695,-16.5 701,-16.5 707,-22.5 707,-28.5 707,-28.5 707,-40.5 707,-40.5 707,-46.5 701,-52.5 695,-52.5 695,-52.5 665,-52.5 665,-52.5 659,-52.5 653,-46.5 653,-40.5 653,-40.5 653,-28.5 653,-28.5 653,-22.5 659,-16.5 665,-16.5"/>
<text text-anchor="middle" x="680" y="-31.4" font-family="sans-serif" font-size="12.00">D4PG</text>
</g>
<!-- DDPG&#45;&gt;D4PG -->
<g id="edge39" class="edge"><title>DDPG&#45;&gt;D4PG</title>
<path fill="none" stroke="black" d="M762.063,-248.392C742.546,-223.403 707.605,-174.692 691,-127 683.744,-106.159 681.113,-81.2137 680.231,-62.6371"/>
<polygon fill="black" stroke="black" points="683.724,-62.3916 679.891,-52.5146 676.728,-62.6264 683.724,-62.3916"/>
</g>
<!-- DDQN&#45;&gt;TD3 -->
<g id="edge11" class="edge"><title>DDQN&#45;&gt;TD3</title>
<path fill="none" stroke="darkgray" stroke-dasharray="5,2" d="M394.634,-251.788C391.74,-250.461 388.824,-249.174 386,-248 271.262,-200.312 193.967,-257.291 122,-156 108.849,-137.49 74.2401,-136.973 134,-82 163.583,-54.7871 437.851,-41.0668 538.873,-36.9037"/>
<polygon fill="darkgray" stroke="darkgray" points="539.078,-40.3984 548.928,-36.4975 538.795,-33.4041 539.078,-40.3984"/>
<text text-anchor="middle" x="164.5" y="-148" font-family="sans-serif" font-size="10.00" fill="darkgray">double Q&#45;learning</text>
</g>
<!-- Duelling&#45;DQN -->
<g id="node24" class="node"><title>Duelling&#45;DQN</title>
<path fill="none" stroke="black" d="M367,-174.5C367,-174.5 437,-174.5 437,-174.5 443,-174.5 449,-180.5 449,-186.5 449,-186.5 449,-198.5 449,-198.5 449,-204.5 443,-210.5 437,-210.5 437,-210.5 367,-210.5 367,-210.5 361,-210.5 355,-204.5 355,-198.5 355,-198.5 355,-186.5 355,-186.5 355,-180.5 361,-174.5 367,-174.5"/>
<text text-anchor="middle" x="402" y="-189.4" font-family="sans-serif" font-size="12.00">Duelling&#45;DQN</text>
</g>
<!-- DDQN&#45;&gt;Duelling&#45;DQN -->
<g id="edge21" class="edge"><title>DDQN&#45;&gt;Duelling&#45;DQN</title>
<path fill="none" stroke="black" d="M417.26,-248.437C414.953,-240.13 412.123,-229.944 409.53,-220.608"/>
<polygon fill="black" stroke="black" points="412.893,-219.639 406.845,-210.941 406.149,-221.513 412.893,-219.639"/>
</g>
<!-- RAINBOW -->
<g id="node25" class="node"><title>RAINBOW</title>
<path fill="none" stroke="black" d="M355.5,-90.5C355.5,-90.5 408.5,-90.5 408.5,-90.5 414.5,-90.5 420.5,-96.5 420.5,-102.5 420.5,-102.5 420.5,-114.5 420.5,-114.5 420.5,-120.5 414.5,-126.5 408.5,-126.5 408.5,-126.5 355.5,-126.5 355.5,-126.5 349.5,-126.5 343.5,-120.5 343.5,-114.5 343.5,-114.5 343.5,-102.5 343.5,-102.5 343.5,-96.5 349.5,-90.5 355.5,-90.5"/>
<text text-anchor="middle" x="382" y="-105.4" font-family="sans-serif" font-size="12.00">RAINBOW</text>
</g>
<!-- DDQN&#45;&gt;RAINBOW -->
<g id="edge22" class="edge"><title>DDQN&#45;&gt;RAINBOW</title>
<path fill="none" stroke="darkgray" stroke-dasharray="5,2" d="M394.961,-249.8C375.372,-237.788 351.414,-221.544 346,-211 333.297,-186.259 347.511,-156.001 361.65,-134.99"/>
<polygon fill="darkgray" stroke="darkgray" points="364.678,-136.771 367.626,-126.595 358.975,-132.712 364.678,-136.771"/>
</g>
<!-- SARSA -->
<g id="node17" class="node"><title>SARSA</title>
<path fill="none" stroke="black" d="M336,-470.5C336,-470.5 368,-470.5 368,-470.5 374,-470.5 380,-476.5 380,-482.5 380,-482.5 380,-494.5 380,-494.5 380,-500.5 374,-506.5 368,-506.5 368,-506.5 336,-506.5 336,-506.5 330,-506.5 324,-500.5 324,-494.5 324,-494.5 324,-482.5 324,-482.5 324,-476.5 330,-470.5 336,-470.5"/>
<text text-anchor="middle" x="352" y="-485.4" font-family="sans-serif" font-size="12.00">SARSA</text>
</g>
<!-- vg&#45;&gt;SARSA -->
<!-- Q&#45;learning -->
<g id="node18" class="node"><title>Q&#45;learning</title>
<path fill="none" stroke="black" d="M383.5,-618.5C383.5,-618.5 436.5,-618.5 436.5,-618.5 442.5,-618.5 448.5,-624.5 448.5,-630.5 448.5,-630.5 448.5,-642.5 448.5,-642.5 448.5,-648.5 442.5,-654.5 436.5,-654.5 436.5,-654.5 383.5,-654.5 383.5,-654.5 377.5,-654.5 371.5,-648.5 371.5,-642.5 371.5,-642.5 371.5,-630.5 371.5,-630.5 371.5,-624.5 377.5,-618.5 383.5,-618.5"/>
<text text-anchor="middle" x="410" y="-633.4" font-family="sans-serif" font-size="12.00">Q&#45;learning</text>
</g>
<!-- vg&#45;&gt;Q&#45;learning -->
<!-- C51 -->
<g id="node19" class="node"><title>C51</title>
<path fill="none" stroke="black" d="M451,-90.5C451,-90.5 481,-90.5 481,-90.5 487,-90.5 493,-96.5 493,-102.5 493,-102.5 493,-114.5 493,-114.5 493,-120.5 487,-126.5 481,-126.5 481,-126.5 451,-126.5 451,-126.5 445,-126.5 439,-120.5 439,-114.5 439,-114.5 439,-102.5 439,-102.5 439,-96.5 445,-90.5 451,-90.5"/>
<text text-anchor="middle" x="466" y="-105.4" font-family="sans-serif" font-size="12.00">C51</text>
</g>
<!-- vg&#45;&gt;C51 -->
<!-- Q&#45;learning&#45;&gt;DQN -->
<g id="edge15" class="edge"><title>Q&#45;learning&#45;&gt;DQN</title>
<path fill="none" stroke="black" d="M412.78,-618.125C416.975,-585.718 421.324,-515.249 389,-470 371.561,-445.588 340.085,-431.588 315.093,-423.907"/>
<polygon fill="black" stroke="black" points="315.763,-420.458 305.186,-421.081 313.843,-427.19 315.763,-420.458"/>
</g>
<!-- PER&#45;&gt;RAINBOW -->
<g id="edge23" class="edge"><title>PER&#45;&gt;RAINBOW</title>
<path fill="none" stroke="darkgray" stroke-dasharray="5,2" d="M285.856,-248.215C297.292,-223.951 320.019,-178.959 346,-145 348.913,-141.192 352.223,-137.393 355.626,-133.772"/>
<polygon fill="darkgray" stroke="darkgray" points="358.123,-136.224 362.648,-126.644 353.136,-131.312 358.123,-136.224"/>
</g>
<!-- QR&#45;DQN&#45;&gt;RAINBOW -->
<g id="edge25" class="edge"><title>QR&#45;DQN&#45;&gt;RAINBOW</title>
<path fill="none" stroke="darkgray" stroke-dasharray="5,2" d="M307.75,-108.5C316.297,-108.5 324.844,-108.5 333.391,-108.5"/>
<polygon fill="darkgray" stroke="darkgray" points="333.425,-112 343.425,-108.5 333.425,-105 333.425,-112"/>
</g>
<!-- Duelling&#45;DQN&#45;&gt;RAINBOW -->
<g id="edge24" class="edge"><title>Duelling&#45;DQN&#45;&gt;RAINBOW</title>
<path fill="none" stroke="darkgray" stroke-dasharray="5,2" d="M397.759,-174.11C395.089,-163.165 391.589,-148.815 388.566,-136.419"/>
<polygon fill="darkgray" stroke="darkgray" points="391.937,-135.47 386.167,-126.584 385.136,-137.128 391.937,-135.47"/>
</g>
<!-- A3C -->
<g id="node26" class="node"><title>A3C</title>
<path fill="none" stroke="black" d="M583,-174.5C583,-174.5 613,-174.5 613,-174.5 619,-174.5 625,-180.5 625,-186.5 625,-186.5 625,-198.5 625,-198.5 625,-204.5 619,-210.5 613,-210.5 613,-210.5 583,-210.5 583,-210.5 577,-210.5 571,-204.5 571,-198.5 571,-198.5 571,-186.5 571,-186.5 571,-180.5 577,-174.5 583,-174.5"/>
<text text-anchor="middle" x="598" y="-189.4" font-family="sans-serif" font-size="12.00">A3C</text>
</g>
<!-- A3C&#45;&gt;ACER -->
<g id="edge45" class="edge"><title>A3C&#45;&gt;ACER</title>
<path fill="none" stroke="black" d="M605.635,-174.11C610.488,-163.055 616.866,-148.527 622.345,-136.048"/>
<polygon fill="black" stroke="black" points="625.685,-137.147 626.5,-126.584 619.275,-134.333 625.685,-137.147"/>
</g>
<!-- A3C&#45;&gt;RAINBOW -->
<g id="edge26" class="edge"><title>A3C&#45;&gt;RAINBOW</title>
<path fill="none" stroke="darkgray" stroke-dasharray="5,2" d="M570.643,-181.115C535.394,-167.733 473.515,-144.242 430.272,-127.825"/>
<polygon fill="darkgray" stroke="darkgray" points="431.391,-124.507 420.8,-124.229 428.906,-131.051 431.391,-124.507"/>
</g>
<!-- A2C -->
<g id="node40" class="node"><title>A2C</title>
<path fill="none" stroke="black" d="M529,-90.5C529,-90.5 559,-90.5 559,-90.5 565,-90.5 571,-96.5 571,-102.5 571,-102.5 571,-114.5 571,-114.5 571,-120.5 565,-126.5 559,-126.5 559,-126.5 529,-126.5 529,-126.5 523,-126.5 517,-120.5 517,-114.5 517,-114.5 517,-102.5 517,-102.5 517,-96.5 523,-90.5 529,-90.5"/>
<text text-anchor="middle" x="544" y="-105.4" font-family="sans-serif" font-size="12.00">A2C</text>
</g>
<!-- A3C&#45;&gt;A2C -->
<g id="edge44" class="edge"><title>A3C&#45;&gt;A2C</title>
<path fill="none" stroke="black" d="M586.548,-174.11C579.052,-162.727 569.13,-147.661 560.754,-134.941"/>
<polygon fill="black" stroke="black" points="563.673,-133.011 555.25,-126.584 557.827,-136.861 563.673,-133.011"/>
</g>
<!-- pg&#45;&gt;A3C -->
<!-- REINFORCE -->
<g id="node28" class="node"><title>REINFORCE</title>
<path fill="none" stroke="black" d="M805,-544.5C805,-544.5 867,-544.5 867,-544.5 873,-544.5 879,-550.5 879,-556.5 879,-556.5 879,-568.5 879,-568.5 879,-574.5 873,-580.5 867,-580.5 867,-580.5 805,-580.5 805,-580.5 799,-580.5 793,-574.5 793,-568.5 793,-568.5 793,-556.5 793,-556.5 793,-550.5 799,-544.5 805,-544.5"/>
<text text-anchor="middle" x="836" y="-559.4" font-family="sans-serif" font-size="12.00">REINFORCE</text>
</g>
<!-- pg&#45;&gt;REINFORCE -->
<!-- DPG -->
<g id="node29" class="node"><title>DPG</title>
<path fill="none" stroke="black" d="M809,-322.5C809,-322.5 839,-322.5 839,-322.5 845,-322.5 851,-328.5 851,-334.5 851,-334.5 851,-346.5 851,-346.5 851,-352.5 845,-358.5 839,-358.5 839,-358.5 809,-358.5 809,-358.5 803,-358.5 797,-352.5 797,-346.5 797,-346.5 797,-334.5 797,-334.5 797,-328.5 803,-322.5 809,-322.5"/>
<text text-anchor="middle" x="824" y="-337.4" font-family="sans-serif" font-size="12.00">DPG</text>
</g>
<!-- pg&#45;&gt;DPG -->
<!-- TRPO -->
<g id="node30" class="node"><title>TRPO</title>
<path fill="none" stroke="black" d="M833,-248.5C833,-248.5 863,-248.5 863,-248.5 869,-248.5 875,-254.5 875,-260.5 875,-260.5 875,-272.5 875,-272.5 875,-278.5 869,-284.5 863,-284.5 863,-284.5 833,-284.5 833,-284.5 827,-284.5 821,-278.5 821,-272.5 821,-272.5 821,-260.5 821,-260.5 821,-254.5 827,-248.5 833,-248.5"/>
<text text-anchor="middle" x="848" y="-263.4" font-family="sans-serif" font-size="12.00">TRPO</text>
</g>
<!-- pg&#45;&gt;TRPO -->
<!-- GAE -->
<g id="node31" class="node"><title>GAE</title>
<path fill="none" stroke="black" d="M923,-248.5C923,-248.5 953,-248.5 953,-248.5 959,-248.5 965,-254.5 965,-260.5 965,-260.5 965,-272.5 965,-272.5 965,-278.5 959,-284.5 953,-284.5 953,-284.5 923,-284.5 923,-284.5 917,-284.5 911,-278.5 911,-272.5 911,-272.5 911,-260.5 911,-260.5 911,-254.5 917,-248.5 923,-248.5"/>
<text text-anchor="middle" x="938" y="-263.4" font-family="sans-serif" font-size="12.00">GAE</text>
</g>
<!-- pg&#45;&gt;GAE -->
<!-- ACKTR -->
<g id="node32" class="node"><title>ACKTR</title>
<path fill="none" stroke="black" d="M1015,-90.5C1015,-90.5 1047,-90.5 1047,-90.5 1053,-90.5 1059,-96.5 1059,-102.5 1059,-102.5 1059,-114.5 1059,-114.5 1059,-120.5 1053,-126.5 1047,-126.5 1047,-126.5 1015,-126.5 1015,-126.5 1009,-126.5 1003,-120.5 1003,-114.5 1003,-114.5 1003,-102.5 1003,-102.5 1003,-96.5 1009,-90.5 1015,-90.5"/>
<text text-anchor="middle" x="1031" y="-105.4" font-family="sans-serif" font-size="12.00">ACKTR</text>
</g>
<!-- pg&#45;&gt;ACKTR -->
<!-- SVPG -->
<g id="node33" class="node"><title>SVPG</title>
<path fill="none" stroke="black" d="M1089,-90.5C1089,-90.5 1119,-90.5 1119,-90.5 1125,-90.5 1131,-96.5 1131,-102.5 1131,-102.5 1131,-114.5 1131,-114.5 1131,-120.5 1125,-126.5 1119,-126.5 1119,-126.5 1089,-126.5 1089,-126.5 1083,-126.5 1077,-120.5 1077,-114.5 1077,-114.5 1077,-102.5 1077,-102.5 1077,-96.5 1083,-90.5 1089,-90.5"/>
<text text-anchor="middle" x="1104" y="-105.4" font-family="sans-serif" font-size="12.00">SVPG</text>
</g>
<!-- pg&#45;&gt;SVPG -->
<!-- SAC -->
<g id="node34" class="node"><title>SAC</title>
<path fill="none" stroke="black" d="M1003,-16.5C1003,-16.5 1033,-16.5 1033,-16.5 1039,-16.5 1045,-22.5 1045,-28.5 1045,-28.5 1045,-40.5 1045,-40.5 1045,-46.5 1039,-52.5 1033,-52.5 1033,-52.5 1003,-52.5 1003,-52.5 997,-52.5 991,-46.5 991,-40.5 991,-40.5 991,-28.5 991,-28.5 991,-22.5 997,-16.5 1003,-16.5"/>
<text text-anchor="middle" x="1018" y="-31.4" font-family="sans-serif" font-size="12.00">SAC</text>
</g>
<!-- pg&#45;&gt;SAC -->
<!-- IMPALA -->
<g id="node35" class="node"><title>IMPALA</title>
<path fill="none" stroke="black" d="M830.5,-16.5C830.5,-16.5 867.5,-16.5 867.5,-16.5 873.5,-16.5 879.5,-22.5 879.5,-28.5 879.5,-28.5 879.5,-40.5 879.5,-40.5 879.5,-46.5 873.5,-52.5 867.5,-52.5 867.5,-52.5 830.5,-52.5 830.5,-52.5 824.5,-52.5 818.5,-46.5 818.5,-40.5 818.5,-40.5 818.5,-28.5 818.5,-28.5 818.5,-22.5 824.5,-16.5 830.5,-16.5"/>
<text text-anchor="middle" x="849" y="-31.4" font-family="sans-serif" font-size="12.00">IMPALA</text>
</g>
<!-- pg&#45;&gt;IMPALA -->
<!-- DPG&#45;&gt;DDPG -->
<g id="edge36" class="edge"><title>DPG&#45;&gt;DDPG</title>
<path fill="none" stroke="black" d="M812.625,-322.437C806.851,-313.777 799.715,-303.073 793.28,-293.421"/>
<polygon fill="black" stroke="black" points="796.086,-291.32 787.627,-284.941 790.262,-295.203 796.086,-291.32"/>
</g>
<!-- TRPO&#45;&gt;ACER -->
<g id="edge42" class="edge"><title>TRPO&#45;&gt;ACER</title>
<path fill="none" stroke="darkgray" stroke-dasharray="5,2" d="M852.823,-248.19C853.651,-241.775 853.352,-234.686 850,-229 829.938,-194.974 726.774,-147.99 670.587,-124.352"/>
<polygon fill="darkgray" stroke="darkgray" points="671.909,-121.111 661.333,-120.49 669.214,-127.571 671.909,-121.111"/>
<text text-anchor="middle" x="871" y="-190" font-family="sans-serif" font-size="10.00" fill="darkgray">TRPO technique</text>
</g>
<!-- TRPO&#45;&gt;GAE -->
<g id="edge41" class="edge"><title>TRPO&#45;&gt;GAE</title>
<path fill="none" stroke="darkgray" stroke-dasharray="5,2" d="M875.07,-266.5C883.669,-266.5 892.267,-266.5 900.866,-266.5"/>
<polygon fill="darkgray" stroke="darkgray" points="900.96,-270 910.96,-266.5 900.96,-263 900.96,-270"/>
</g>
<!-- PPO -->
<g id="node39" class="node"><title>PPO</title>
<path fill="none" stroke="black" d="M923,-90.5C923,-90.5 953,-90.5 953,-90.5 959,-90.5 965,-96.5 965,-102.5 965,-102.5 965,-114.5 965,-114.5 965,-120.5 959,-126.5 953,-126.5 953,-126.5 923,-126.5 923,-126.5 917,-126.5 911,-120.5 911,-114.5 911,-114.5 911,-102.5 911,-102.5 911,-96.5 917,-90.5 923,-90.5"/>
<text text-anchor="middle" x="938" y="-105.4" font-family="sans-serif" font-size="12.00">PPO</text>
</g>
<!-- TRPO&#45;&gt;PPO -->
<g id="edge43" class="edge"><title>TRPO&#45;&gt;PPO</title>
<path fill="none" stroke="darkgray" stroke-dasharray="5,2" d="M846.118,-248.154C844.844,-228.837 845.269,-197.272 858,-174 868.114,-155.511 885.927,-140.352 902.181,-129.386"/>
<polygon fill="darkgray" stroke="darkgray" points="904.467,-132.078 910.992,-123.731 900.686,-126.187 904.467,-132.078"/>
</g>
<!-- PPO&#45;&gt;SAC -->
<!-- A2C&#45;&gt;ACER -->
<!-- A2C&#45;&gt;ACKTR -->
<!-- A2C&#45;&gt;SVPG -->
<!-- A2C&#45;&gt;IMPALA -->
</g>
</svg>
