<?xml version="1.0" encoding="UTF-8" standalone="no"?>
<!DOCTYPE svg PUBLIC "-//W3C//DTD SVG 1.1//EN"
 "http://www.w3.org/Graphics/SVG/1.1/DTD/svg11.dtd">
<!-- Generated by graphviz version 2.38.0 (20140413.2041)
 -->
<!-- Title: %3 Pages: 1 -->
<svg width="1260pt" height="1013pt"
 viewBox="0.00 0.00 1260.00 1013.00" xmlns="http://www.w3.org/2000/svg" xmlns:xlink="http://www.w3.org/1999/xlink">
<g id="graph0" class="graph" transform="scale(1 1) rotate(0) translate(4 1009)">
<title>%3</title>
<polygon fill="white" stroke="none" points="-4,4 -4,-1009 1256,-1009 1256,4 -4,4"/>
<g id="clust2" class="cluster"><title>clusterModel Free</title>
<polygon fill="#f7fdff" stroke="black" points="62,-80 62,-941 1119,-941 1119,-80 62,-80"/>
<text text-anchor="middle" x="590.5" y="-924.2" font-family="sans-serif" font-size="16.00">Model Free</text>
</g>
<g id="clust4" class="cluster"><title>clusterPolicy Gradient/Actor&#45;Critic</title>
<path fill="#f1f7fe" stroke="black" stroke-dasharray="5,2" d="M82,-88C82,-88 690,-88 690,-88 696,-88 702,-94 702,-100 702,-100 702,-831 702,-831 702,-837 696,-843 690,-843 690,-843 82,-843 82,-843 76,-843 70,-837 70,-831 70,-831 70,-100 70,-100 70,-94 76,-88 82,-88"/>
<text text-anchor="middle" x="386" y="-826.2" font-family="sans-serif" font-size="16.00">Policy Gradient/Actor&#45;Critic</text>
</g>
<g id="clust3" class="cluster"><title>clusterValue Gradient</title>
<path fill="#f1f7fe" stroke="black" stroke-dasharray="5,2" d="M736,-88C736,-88 1099,-88 1099,-88 1105,-88 1111,-94 1111,-100 1111,-100 1111,-831 1111,-831 1111,-837 1105,-843 1099,-843 1099,-843 736,-843 736,-843 730,-843 724,-837 724,-831 724,-831 724,-100 724,-100 724,-94 730,-88 736,-88"/>
<text text-anchor="middle" x="917.5" y="-826.2" font-family="sans-serif" font-size="16.00">Value Gradient</text>
</g>
<g id="clust5" class="cluster"><title>clusterModel Based</title>
<polygon fill="#f7fdff" stroke="black" points="1127,-8 1127,-941 1244,-941 1244,-8 1127,-8"/>
<text text-anchor="middle" x="1185.5" y="-924.2" font-family="sans-serif" font-size="16.00">Model Based</text>
</g>
<!-- 1989 -->
<g id="node1" class="node"><title>1989</title>
<text text-anchor="middle" x="27" y="-714" font-family="sans-serif" font-size="10.00" fill="darkblue">1989</text>
</g>
<!-- 1992 -->
<g id="node2" class="node"><title>1992</title>
<text text-anchor="middle" x="27" y="-640" font-family="sans-serif" font-size="10.00" fill="darkblue">1992</text>
</g>
<!-- 1989&#45;&gt;1992 -->
<g id="edge1" class="edge"><title>1989&#45;&gt;1992</title>
<path fill="none" stroke="darkblue" d="M27,-698.437C27,-690.307 27,-680.376 27,-671.205"/>
<polygon fill="darkblue" stroke="darkblue" points="30.5001,-670.941 27,-660.941 23.5001,-670.941 30.5001,-670.941"/>
</g>
<!-- 1994 -->
<g id="node3" class="node"><title>1994</title>
<text text-anchor="middle" x="27" y="-566" font-family="sans-serif" font-size="10.00" fill="darkblue">1994</text>
</g>
<!-- 1992&#45;&gt;1994 -->
<g id="edge2" class="edge"><title>1992&#45;&gt;1994</title>
<path fill="none" stroke="darkblue" d="M27,-624.437C27,-616.307 27,-606.376 27,-597.205"/>
<polygon fill="darkblue" stroke="darkblue" points="30.5001,-596.941 27,-586.941 23.5001,-596.941 30.5001,-596.941"/>
</g>
<!-- 2013 -->
<g id="node4" class="node"><title>2013</title>
<text text-anchor="middle" x="27" y="-492" font-family="sans-serif" font-size="10.00" fill="darkblue">2013</text>
</g>
<!-- 1994&#45;&gt;2013 -->
<g id="edge3" class="edge"><title>1994&#45;&gt;2013</title>
<path fill="none" stroke="darkblue" d="M27,-550.437C27,-542.307 27,-532.376 27,-523.205"/>
<polygon fill="darkblue" stroke="darkblue" points="30.5001,-522.941 27,-512.941 23.5001,-522.941 30.5001,-522.941"/>
</g>
<!-- 2014 -->
<g id="node5" class="node"><title>2014</title>
<text text-anchor="middle" x="27" y="-418" font-family="sans-serif" font-size="10.00" fill="darkblue">2014</text>
</g>
<!-- 2013&#45;&gt;2014 -->
<g id="edge4" class="edge"><title>2013&#45;&gt;2014</title>
<path fill="none" stroke="darkblue" d="M27,-476.437C27,-468.307 27,-458.376 27,-449.205"/>
<polygon fill="darkblue" stroke="darkblue" points="30.5001,-448.941 27,-438.941 23.5001,-448.941 30.5001,-448.941"/>
</g>
<!-- 2015 -->
<g id="node6" class="node"><title>2015</title>
<text text-anchor="middle" x="27" y="-344" font-family="sans-serif" font-size="10.00" fill="darkblue">2015</text>
</g>
<!-- 2014&#45;&gt;2015 -->
<g id="edge5" class="edge"><title>2014&#45;&gt;2015</title>
<path fill="none" stroke="darkblue" d="M27,-402.437C27,-394.307 27,-384.376 27,-375.205"/>
<polygon fill="darkblue" stroke="darkblue" points="30.5001,-374.941 27,-364.941 23.5001,-374.941 30.5001,-374.941"/>
</g>
<!-- 2016 -->
<g id="node7" class="node"><title>2016</title>
<text text-anchor="middle" x="27" y="-270" font-family="sans-serif" font-size="10.00" fill="darkblue">2016</text>
</g>
<!-- 2015&#45;&gt;2016 -->
<g id="edge6" class="edge"><title>2015&#45;&gt;2016</title>
<path fill="none" stroke="darkblue" d="M27,-328.437C27,-320.307 27,-310.376 27,-301.205"/>
<polygon fill="darkblue" stroke="darkblue" points="30.5001,-300.941 27,-290.941 23.5001,-300.941 30.5001,-300.941"/>
</g>
<!-- 2017 -->
<g id="node8" class="node"><title>2017</title>
<text text-anchor="middle" x="27" y="-186" font-family="sans-serif" font-size="10.00" fill="darkblue">2017</text>
</g>
<!-- 2016&#45;&gt;2017 -->
<g id="edge7" class="edge"><title>2016&#45;&gt;2017</title>
<path fill="none" stroke="darkblue" d="M27,-254.11C27,-243.274 27,-229.101 27,-216.791"/>
<polygon fill="darkblue" stroke="darkblue" points="30.5001,-216.584 27,-206.584 23.5001,-216.584 30.5001,-216.584"/>
</g>
<!-- 2018 -->
<g id="node9" class="node"><title>2018</title>
<text text-anchor="middle" x="27" y="-112" font-family="sans-serif" font-size="10.00" fill="darkblue">2018</text>
</g>
<!-- 2017&#45;&gt;2018 -->
<g id="edge8" class="edge"><title>2017&#45;&gt;2018</title>
<path fill="none" stroke="darkblue" d="M27,-170.437C27,-162.307 27,-152.376 27,-143.205"/>
<polygon fill="darkblue" stroke="darkblue" points="30.5001,-142.941 27,-132.941 23.5001,-142.941 30.5001,-142.941"/>
</g>
<!-- 2019 -->
<g id="node10" class="node"><title>2019</title>
<text text-anchor="middle" x="27" y="-32" font-family="sans-serif" font-size="10.00" fill="darkblue">2019</text>
</g>
<!-- 2018&#45;&gt;2019 -->
<g id="edge9" class="edge"><title>2018&#45;&gt;2019</title>
<path fill="none" stroke="darkblue" d="M27,-96.1893C27,-86.3938 27,-73.9218 27,-62.835"/>
<polygon fill="darkblue" stroke="darkblue" points="30.5001,-62.7623 27,-52.7623 23.5001,-62.7624 30.5001,-62.7623"/>
</g>
<!-- Reinforcement Learning -->
<g id="node11" class="node"><title>Reinforcement Learning</title>
<path fill="#ffe6cc" stroke="black" stroke-width="2" d="M1046,-968.5C1046,-968.5 1178,-968.5 1178,-968.5 1184,-968.5 1190,-974.5 1190,-980.5 1190,-980.5 1190,-992.5 1190,-992.5 1190,-998.5 1184,-1004.5 1178,-1004.5 1178,-1004.5 1046,-1004.5 1046,-1004.5 1040,-1004.5 1034,-998.5 1034,-992.5 1034,-992.5 1034,-980.5 1034,-980.5 1034,-974.5 1040,-968.5 1046,-968.5"/>
<text text-anchor="middle" x="1112" y="-983.4" font-family="sans-serif" font-size="12.00">Reinforcement Learning</text>
</g>
<!-- Model Free -->
<g id="node12" class="node"><title>Model Free</title>
<path fill="#ffe6cc" stroke="black" stroke-width="2" d="M982,-870.5C982,-870.5 1038,-870.5 1038,-870.5 1044,-870.5 1050,-876.5 1050,-882.5 1050,-882.5 1050,-894.5 1050,-894.5 1050,-900.5 1044,-906.5 1038,-906.5 1038,-906.5 982,-906.5 982,-906.5 976,-906.5 970,-900.5 970,-894.5 970,-894.5 970,-882.5 970,-882.5 970,-876.5 976,-870.5 982,-870.5"/>
<text text-anchor="middle" x="1010" y="-885.4" font-family="sans-serif" font-size="12.00">Model Free</text>
</g>
<!-- Reinforcement Learning&#45;&gt;Model Free -->
<g id="edge57" class="edge"><title>Reinforcement Learning&#45;&gt;Model Free</title>
<path fill="none" stroke="black" d="M1093.76,-968.337C1077.52,-953.048 1053.58,-930.519 1035.45,-913.455"/>
<polygon fill="black" stroke="black" points="1037.76,-910.819 1028.08,-906.514 1032.96,-915.917 1037.76,-910.819"/>
</g>
<!-- Model Based -->
<g id="node44" class="node"><title>Model Based</title>
<path fill="#ffe6cc" stroke="black" stroke-width="2" d="M1147,-870.5C1147,-870.5 1213,-870.5 1213,-870.5 1219,-870.5 1225,-876.5 1225,-882.5 1225,-882.5 1225,-894.5 1225,-894.5 1225,-900.5 1219,-906.5 1213,-906.5 1213,-906.5 1147,-906.5 1147,-906.5 1141,-906.5 1135,-900.5 1135,-894.5 1135,-894.5 1135,-882.5 1135,-882.5 1135,-876.5 1141,-870.5 1147,-870.5"/>
<text text-anchor="middle" x="1180" y="-885.4" font-family="sans-serif" font-size="12.00">Model Based</text>
</g>
<!-- Reinforcement Learning&#45;&gt;Model Based -->
<g id="edge58" class="edge"><title>Reinforcement Learning&#45;&gt;Model Based</title>
<path fill="none" stroke="black" d="M1124.16,-968.337C1134.7,-953.457 1150.09,-931.721 1162.05,-914.838"/>
<polygon fill="black" stroke="black" points="1165.02,-916.698 1167.95,-906.514 1159.31,-912.651 1165.02,-916.698"/>
</g>
<!-- Value Gradient -->
<g id="node13" class="node"><title>Value Gradient</title>
<path fill="#ffe6cc" stroke="black" stroke-width="2" d="M971.5,-772.5C971.5,-772.5 1048.5,-772.5 1048.5,-772.5 1054.5,-772.5 1060.5,-778.5 1060.5,-784.5 1060.5,-784.5 1060.5,-796.5 1060.5,-796.5 1060.5,-802.5 1054.5,-808.5 1048.5,-808.5 1048.5,-808.5 971.5,-808.5 971.5,-808.5 965.5,-808.5 959.5,-802.5 959.5,-796.5 959.5,-796.5 959.5,-784.5 959.5,-784.5 959.5,-778.5 965.5,-772.5 971.5,-772.5"/>
<text text-anchor="middle" x="1010" y="-787.4" font-family="sans-serif" font-size="12.00">Value Gradient</text>
</g>
<!-- Model Free&#45;&gt;Value Gradient -->
<g id="edge10" class="edge"><title>Model Free&#45;&gt;Value Gradient</title>
<path fill="none" stroke="black" d="M1010,-870.337C1010,-856.003 1010,-835.307 1010,-818.716"/>
<polygon fill="black" stroke="black" points="1013.5,-818.514 1010,-808.514 1006.5,-818.514 1013.5,-818.514"/>
</g>
<!-- Policy Gradient/Actor&#45;Critic -->
<g id="node14" class="node"><title>Policy Gradient/Actor&#45;Critic</title>
<path fill="#ffe6cc" stroke="black" stroke-width="2" d="M255.5,-772.5C255.5,-772.5 404.5,-772.5 404.5,-772.5 410.5,-772.5 416.5,-778.5 416.5,-784.5 416.5,-784.5 416.5,-796.5 416.5,-796.5 416.5,-802.5 410.5,-808.5 404.5,-808.5 404.5,-808.5 255.5,-808.5 255.5,-808.5 249.5,-808.5 243.5,-802.5 243.5,-796.5 243.5,-796.5 243.5,-784.5 243.5,-784.5 243.5,-778.5 249.5,-772.5 255.5,-772.5"/>
<text text-anchor="middle" x="330" y="-787.4" font-family="sans-serif" font-size="12.00">Policy Gradient/Actor&#45;Critic</text>
</g>
<!-- Model Free&#45;&gt;Policy Gradient/Actor&#45;Critic -->
<g id="edge11" class="edge"><title>Model Free&#45;&gt;Policy Gradient/Actor&#45;Critic</title>
<path fill="none" stroke="black" d="M969.499,-881.782C863.919,-866.877 577.99,-826.51 426.774,-805.162"/>
<polygon fill="black" stroke="black" points="426.959,-801.654 416.567,-803.721 425.98,-808.585 426.959,-801.654"/>
</g>
<!-- SARSA -->
<g id="node22" class="node"><title>SARSA</title>
<path fill="#dae8fc" stroke="black" stroke-width="2" d="M1009,-550.5C1009,-550.5 1041,-550.5 1041,-550.5 1047,-550.5 1053,-556.5 1053,-562.5 1053,-562.5 1053,-574.5 1053,-574.5 1053,-580.5 1047,-586.5 1041,-586.5 1041,-586.5 1009,-586.5 1009,-586.5 1003,-586.5 997,-580.5 997,-574.5 997,-574.5 997,-562.5 997,-562.5 997,-556.5 1003,-550.5 1009,-550.5"/>
<text text-anchor="middle" x="1025" y="-565.4" font-family="sans-serif" font-size="12.00">SARSA</text>
</g>
<!-- Value Gradient&#45;&gt;SARSA -->
<g id="edge16" class="edge"><title>Value Gradient&#45;&gt;SARSA</title>
<path fill="none" stroke="black" d="M1011.29,-772.32C1012.09,-761.592 1013.13,-747.493 1014,-735 1017.39,-686.48 1021.1,-629.94 1023.22,-597.085"/>
<polygon fill="black" stroke="black" points="1026.73,-597.102 1023.88,-586.897 1019.75,-596.65 1026.73,-597.102"/>
</g>
<!-- Q&#45;learning -->
<g id="node23" class="node"><title>Q&#45;learning</title>
<path fill="#dae8fc" stroke="black" stroke-width="2" d="M940.5,-698.5C940.5,-698.5 993.5,-698.5 993.5,-698.5 999.5,-698.5 1005.5,-704.5 1005.5,-710.5 1005.5,-710.5 1005.5,-722.5 1005.5,-722.5 1005.5,-728.5 999.5,-734.5 993.5,-734.5 993.5,-734.5 940.5,-734.5 940.5,-734.5 934.5,-734.5 928.5,-728.5 928.5,-722.5 928.5,-722.5 928.5,-710.5 928.5,-710.5 928.5,-704.5 934.5,-698.5 940.5,-698.5"/>
<text text-anchor="middle" x="967" y="-713.4" font-family="sans-serif" font-size="12.00">Q&#45;learning</text>
</g>
<!-- Value Gradient&#45;&gt;Q&#45;learning -->
<g id="edge17" class="edge"><title>Value Gradient&#45;&gt;Q&#45;learning</title>
<path fill="none" stroke="black" d="M999.81,-772.437C994.69,-763.865 988.375,-753.291 982.657,-743.717"/>
<polygon fill="black" stroke="black" points="985.548,-741.732 977.416,-734.941 979.539,-745.321 985.548,-741.732"/>
</g>
<!-- A3C -->
<g id="node20" class="node"><title>A3C</title>
<path fill="#dae8fc" stroke="black" stroke-width="2" d="M474,-254.5C474,-254.5 504,-254.5 504,-254.5 510,-254.5 516,-260.5 516,-266.5 516,-266.5 516,-278.5 516,-278.5 516,-284.5 510,-290.5 504,-290.5 504,-290.5 474,-290.5 474,-290.5 468,-290.5 462,-284.5 462,-278.5 462,-278.5 462,-266.5 462,-266.5 462,-260.5 468,-254.5 474,-254.5"/>
<text text-anchor="middle" x="489" y="-269.4" font-family="sans-serif" font-size="12.00">A3C</text>
</g>
<!-- Policy Gradient/Actor&#45;Critic&#45;&gt;A3C -->
<g id="edge35" class="edge"><title>Policy Gradient/Actor&#45;Critic&#45;&gt;A3C</title>
<path fill="none" stroke="black" d="M338.827,-772.238C345.313,-757.951 353,-736.921 353,-717.5 353,-717.5 353,-717.5 353,-345.5 353,-300.648 411.491,-283.659 451.755,-277.277"/>
<polygon fill="black" stroke="black" points="452.401,-280.72 461.805,-275.84 451.411,-273.791 452.401,-280.72"/>
</g>
<!-- REINFORCE -->
<g id="node31" class="node"><title>REINFORCE</title>
<path fill="#dae8fc" stroke="black" stroke-width="2" d="M384,-624.5C384,-624.5 446,-624.5 446,-624.5 452,-624.5 458,-630.5 458,-636.5 458,-636.5 458,-648.5 458,-648.5 458,-654.5 452,-660.5 446,-660.5 446,-660.5 384,-660.5 384,-660.5 378,-660.5 372,-654.5 372,-648.5 372,-648.5 372,-636.5 372,-636.5 372,-630.5 378,-624.5 384,-624.5"/>
<text text-anchor="middle" x="415" y="-639.4" font-family="sans-serif" font-size="12.00">REINFORCE</text>
</g>
<!-- Policy Gradient/Actor&#45;Critic&#45;&gt;REINFORCE -->
<g id="edge31" class="edge"><title>Policy Gradient/Actor&#45;Critic&#45;&gt;REINFORCE</title>
<path fill="none" stroke="black" d="M344.648,-772.297C349.17,-766.638 354.006,-760.204 358,-754 375.791,-726.367 392.581,-692.519 403.269,-669.621"/>
<polygon fill="black" stroke="black" points="406.452,-671.075 407.46,-660.529 400.095,-668.145 406.452,-671.075"/>
</g>
<!-- DPG -->
<g id="node32" class="node"><title>DPG</title>
<path fill="#dae8fc" stroke="black" stroke-width="2" d="M292,-402.5C292,-402.5 322,-402.5 322,-402.5 328,-402.5 334,-408.5 334,-414.5 334,-414.5 334,-426.5 334,-426.5 334,-432.5 328,-438.5 322,-438.5 322,-438.5 292,-438.5 292,-438.5 286,-438.5 280,-432.5 280,-426.5 280,-426.5 280,-414.5 280,-414.5 280,-408.5 286,-402.5 292,-402.5"/>
<text text-anchor="middle" x="307" y="-417.4" font-family="sans-serif" font-size="12.00">DPG</text>
</g>
<!-- Policy Gradient/Actor&#45;Critic&#45;&gt;DPG -->
<g id="edge32" class="edge"><title>Policy Gradient/Actor&#45;Critic&#45;&gt;DPG</title>
<path fill="none" stroke="black" d="M325.532,-772.467C322.12,-757.961 318,-736.509 318,-717.5 318,-717.5 318,-717.5 318,-493.5 318,-478.533 315.649,-462.015 313.12,-448.58"/>
<polygon fill="black" stroke="black" points="316.506,-447.664 311.096,-438.554 309.644,-449.049 316.506,-447.664"/>
</g>
<!-- TRPO -->
<g id="node33" class="node"><title>TRPO</title>
<path fill="#dae8fc" stroke="black" stroke-width="2" d="M566,-328.5C566,-328.5 596,-328.5 596,-328.5 602,-328.5 608,-334.5 608,-340.5 608,-340.5 608,-352.5 608,-352.5 608,-358.5 602,-364.5 596,-364.5 596,-364.5 566,-364.5 566,-364.5 560,-364.5 554,-358.5 554,-352.5 554,-352.5 554,-340.5 554,-340.5 554,-334.5 560,-328.5 566,-328.5"/>
<text text-anchor="middle" x="581" y="-343.4" font-family="sans-serif" font-size="12.00">TRPO</text>
</g>
<!-- Policy Gradient/Actor&#45;Critic&#45;&gt;TRPO -->
<g id="edge33" class="edge"><title>Policy Gradient/Actor&#45;Critic&#45;&gt;TRPO</title>
<path fill="none" stroke="black" d="M416.745,-781.276C464.956,-775.461 519.291,-766.468 540,-754 557.516,-743.454 568,-737.946 568,-717.5 568,-717.5 568,-717.5 568,-419.5 568,-404.466 570.779,-387.943 573.767,-374.521"/>
<polygon fill="black" stroke="black" points="577.239,-375.05 576.159,-364.51 570.431,-373.423 577.239,-375.05"/>
</g>
<!-- GAE -->
<g id="node34" class="node"><title>GAE</title>
<path fill="#dae8fc" stroke="black" stroke-width="2" d="M90,-328.5C90,-328.5 120,-328.5 120,-328.5 126,-328.5 132,-334.5 132,-340.5 132,-340.5 132,-352.5 132,-352.5 132,-358.5 126,-364.5 120,-364.5 120,-364.5 90,-364.5 90,-364.5 84,-364.5 78,-358.5 78,-352.5 78,-352.5 78,-340.5 78,-340.5 78,-334.5 84,-328.5 90,-328.5"/>
<text text-anchor="middle" x="105" y="-343.4" font-family="sans-serif" font-size="12.00">GAE</text>
</g>
<!-- Policy Gradient/Actor&#45;Critic&#45;&gt;GAE -->
<g id="edge34" class="edge"><title>Policy Gradient/Actor&#45;Critic&#45;&gt;GAE</title>
<path fill="none" stroke="black" d="M243.335,-785.694C210.891,-781.068 174.921,-771.872 146,-754 128.607,-743.252 118,-737.946 118,-717.5 118,-717.5 118,-717.5 118,-419.5 118,-404.466 115.221,-387.943 112.233,-374.521"/>
<polygon fill="black" stroke="black" points="115.569,-373.423 109.841,-364.51 108.761,-375.05 115.569,-373.423"/>
</g>
<!-- ACKTR -->
<g id="node35" class="node"><title>ACKTR</title>
<path fill="#dae8fc" stroke="black" stroke-width="2" d="M110,-170.5C110,-170.5 142,-170.5 142,-170.5 148,-170.5 154,-176.5 154,-182.5 154,-182.5 154,-194.5 154,-194.5 154,-200.5 148,-206.5 142,-206.5 142,-206.5 110,-206.5 110,-206.5 104,-206.5 98,-200.5 98,-194.5 98,-194.5 98,-182.5 98,-182.5 98,-176.5 104,-170.5 110,-170.5"/>
<text text-anchor="middle" x="126" y="-185.4" font-family="sans-serif" font-size="12.00">ACKTR</text>
</g>
<!-- Policy Gradient/Actor&#45;Critic&#45;&gt;ACKTR -->
<g id="edge36" class="edge"><title>Policy Gradient/Actor&#45;Critic&#45;&gt;ACKTR</title>
<path fill="none" stroke="black" d="M243.107,-775.652C213.163,-765.508 187,-747.936 187,-717.5 187,-717.5 187,-717.5 187,-271.5 187,-248.78 171.739,-228.274 156.483,-213.45"/>
<polygon fill="black" stroke="black" points="158.798,-210.824 149.061,-206.645 154.067,-215.983 158.798,-210.824"/>
</g>
<!-- SVPG -->
<g id="node36" class="node"><title>SVPG</title>
<path fill="#dae8fc" stroke="black" stroke-width="2" d="M184,-170.5C184,-170.5 214,-170.5 214,-170.5 220,-170.5 226,-176.5 226,-182.5 226,-182.5 226,-194.5 226,-194.5 226,-200.5 220,-206.5 214,-206.5 214,-206.5 184,-206.5 184,-206.5 178,-206.5 172,-200.5 172,-194.5 172,-194.5 172,-182.5 172,-182.5 172,-176.5 178,-170.5 184,-170.5"/>
<text text-anchor="middle" x="199" y="-185.4" font-family="sans-serif" font-size="12.00">SVPG</text>
</g>
<!-- Policy Gradient/Actor&#45;Critic&#45;&gt;SVPG -->
<g id="edge37" class="edge"><title>Policy Gradient/Actor&#45;Critic&#45;&gt;SVPG</title>
<path fill="none" stroke="black" d="M269.685,-772.471C244.946,-761.466 222,-744.091 222,-717.5 222,-717.5 222,-717.5 222,-271.5 222,-252.579 216.253,-232.085 210.504,-216.317"/>
<polygon fill="black" stroke="black" points="213.658,-214.768 206.787,-206.703 207.129,-217.292 213.658,-214.768"/>
</g>
<!-- SAC -->
<g id="node37" class="node"><title>SAC</title>
<path fill="#dae8fc" stroke="black" stroke-width="2" d="M577,-96.5C577,-96.5 607,-96.5 607,-96.5 613,-96.5 619,-102.5 619,-108.5 619,-108.5 619,-120.5 619,-120.5 619,-126.5 613,-132.5 607,-132.5 607,-132.5 577,-132.5 577,-132.5 571,-132.5 565,-126.5 565,-120.5 565,-120.5 565,-108.5 565,-108.5 565,-102.5 571,-96.5 577,-96.5"/>
<text text-anchor="middle" x="592" y="-111.4" font-family="sans-serif" font-size="12.00">SAC</text>
</g>
<!-- Policy Gradient/Actor&#45;Critic&#45;&gt;SAC -->
<g id="edge38" class="edge"><title>Policy Gradient/Actor&#45;Critic&#45;&gt;SAC</title>
<path fill="none" stroke="black" d="M243.384,-786.111C197.694,-779.137 151,-761.296 151,-717.5 151,-717.5 151,-717.5 151,-383 151,-300.066 105.716,-288.232 89,-207 85.6856,-190.893 77.9057,-182.138 89,-170 152.524,-100.499 206.146,-158.55 300,-151 412.808,-141.925 444.379,-161.126 554,-133 554.33,-132.915 554.66,-132.828 554.991,-132.738"/>
<polygon fill="black" stroke="black" points="556.251,-136.007 564.616,-129.505 554.022,-129.371 556.251,-136.007"/>
</g>
<!-- IMPALA -->
<g id="node38" class="node"><title>IMPALA</title>
<path fill="#dae8fc" stroke="black" stroke-width="2" d="M496.5,-96.5C496.5,-96.5 533.5,-96.5 533.5,-96.5 539.5,-96.5 545.5,-102.5 545.5,-108.5 545.5,-108.5 545.5,-120.5 545.5,-120.5 545.5,-126.5 539.5,-132.5 533.5,-132.5 533.5,-132.5 496.5,-132.5 496.5,-132.5 490.5,-132.5 484.5,-126.5 484.5,-120.5 484.5,-120.5 484.5,-108.5 484.5,-108.5 484.5,-102.5 490.5,-96.5 496.5,-96.5"/>
<text text-anchor="middle" x="515" y="-111.4" font-family="sans-serif" font-size="12.00">IMPALA</text>
</g>
<!-- Policy Gradient/Actor&#45;Critic&#45;&gt;IMPALA -->
<g id="edge39" class="edge"><title>Policy Gradient/Actor&#45;Critic&#45;&gt;IMPALA</title>
<path fill="none" stroke="black" d="M416.641,-775.128C472.59,-763.303 535,-744.141 535,-717.5 535,-717.5 535,-717.5 535,-309 535,-247.197 551.727,-230.479 539,-170 536.989,-160.444 533.195,-150.521 529.207,-141.802"/>
<polygon fill="black" stroke="black" points="532.23,-140.014 524.707,-132.553 525.935,-143.077 532.23,-140.014"/>
</g>
<!-- DQN -->
<g id="node15" class="node"><title>DQN</title>
<path fill="#dae8fc" stroke="black" stroke-width="2" d="M952,-476.5C952,-476.5 982,-476.5 982,-476.5 988,-476.5 994,-482.5 994,-488.5 994,-488.5 994,-500.5 994,-500.5 994,-506.5 988,-512.5 982,-512.5 982,-512.5 952,-512.5 952,-512.5 946,-512.5 940,-506.5 940,-500.5 940,-500.5 940,-488.5 940,-488.5 940,-482.5 946,-476.5 952,-476.5"/>
<text text-anchor="middle" x="967" y="-491.4" font-family="sans-serif" font-size="12.00">DQN</text>
</g>
<!-- DDPG -->
<g id="node16" class="node"><title>DDPG</title>
<path fill="#dae8fc" stroke="black" stroke-width="2" d="M292,-328.5C292,-328.5 322,-328.5 322,-328.5 328,-328.5 334,-334.5 334,-340.5 334,-340.5 334,-352.5 334,-352.5 334,-358.5 328,-364.5 322,-364.5 322,-364.5 292,-364.5 292,-364.5 286,-364.5 280,-358.5 280,-352.5 280,-352.5 280,-340.5 280,-340.5 280,-334.5 286,-328.5 292,-328.5"/>
<text text-anchor="middle" x="307" y="-343.4" font-family="sans-serif" font-size="12.00">DDPG</text>
</g>
<!-- DQN&#45;&gt;DDPG -->
<g id="edge12" class="edge"><title>DQN&#45;&gt;DDPG</title>
<path fill="none" stroke="darkgray" stroke-dasharray="5,2" d="M939.917,-487.887C906.693,-480.977 848.662,-468.823 799,-458 628.791,-420.904 425.924,-374.714 344.009,-355.98"/>
<polygon fill="darkgray" stroke="darkgray" points="344.703,-352.549 334.175,-353.73 343.142,-359.373 344.703,-352.549"/>
<text text-anchor="middle" x="740.5" y="-418" font-family="sans-serif" font-size="10.00" fill="darkgray">replay buffer</text>
</g>
<!-- ACER -->
<g id="node17" class="node"><title>ACER</title>
<path fill="#dae8fc" stroke="black" stroke-width="2" d="M580,-170.5C580,-170.5 610,-170.5 610,-170.5 616,-170.5 622,-176.5 622,-182.5 622,-182.5 622,-194.5 622,-194.5 622,-200.5 616,-206.5 610,-206.5 610,-206.5 580,-206.5 580,-206.5 574,-206.5 568,-200.5 568,-194.5 568,-194.5 568,-182.5 568,-182.5 568,-176.5 574,-170.5 580,-170.5"/>
<text text-anchor="middle" x="595" y="-185.4" font-family="sans-serif" font-size="12.00">ACER</text>
</g>
<!-- DQN&#45;&gt;ACER -->
<g id="edge13" class="edge"><title>DQN&#45;&gt;ACER</title>
<path fill="none" stroke="darkgray" stroke-dasharray="5,2" d="M939.821,-491.657C877.735,-486.906 728.077,-472.212 692,-439 686.049,-433.521 687,-429.589 687,-421.5 687,-421.5 687,-421.5 687,-309 687,-269.137 654.46,-234.422 628.084,-212.831"/>
<polygon fill="darkgray" stroke="darkgray" points="630.157,-210.009 620.139,-206.561 625.821,-215.504 630.157,-210.009"/>
<text text-anchor="middle" x="717.5" y="-344" font-family="sans-serif" font-size="10.00" fill="darkgray">replay buffer</text>
</g>
<!-- DDQN -->
<g id="node18" class="node"><title>DDQN</title>
<path fill="#dae8fc" stroke="black" stroke-width="2" d="M907,-328.5C907,-328.5 937,-328.5 937,-328.5 943,-328.5 949,-334.5 949,-340.5 949,-340.5 949,-352.5 949,-352.5 949,-358.5 943,-364.5 937,-364.5 937,-364.5 907,-364.5 907,-364.5 901,-364.5 895,-358.5 895,-352.5 895,-352.5 895,-340.5 895,-340.5 895,-334.5 901,-328.5 907,-328.5"/>
<text text-anchor="middle" x="922" y="-343.4" font-family="sans-serif" font-size="12.00">DDQN</text>
</g>
<!-- DQN&#45;&gt;DDQN -->
<g id="edge20" class="edge"><title>DQN&#45;&gt;DDQN</title>
<path fill="none" stroke="black" d="M961.75,-476.466C954.035,-451.435 939.557,-404.464 930.367,-374.646"/>
<polygon fill="black" stroke="black" points="933.646,-373.403 927.356,-364.878 926.957,-375.465 933.646,-373.403"/>
</g>
<!-- DRQN -->
<g id="node24" class="node"><title>DRQN</title>
<path fill="#dae8fc" stroke="black" stroke-width="2" d="M835,-328.5C835,-328.5 865,-328.5 865,-328.5 871,-328.5 877,-334.5 877,-340.5 877,-340.5 877,-352.5 877,-352.5 877,-358.5 871,-364.5 865,-364.5 865,-364.5 835,-364.5 835,-364.5 829,-364.5 823,-358.5 823,-352.5 823,-352.5 823,-340.5 823,-340.5 823,-334.5 829,-328.5 835,-328.5"/>
<text text-anchor="middle" x="850" y="-343.4" font-family="sans-serif" font-size="12.00">DRQN</text>
</g>
<!-- DQN&#45;&gt;DRQN -->
<g id="edge19" class="edge"><title>DQN&#45;&gt;DRQN</title>
<path fill="none" stroke="black" d="M953.35,-476.466C932.853,-450.889 893.997,-402.403 870.208,-372.717"/>
<polygon fill="black" stroke="black" points="872.911,-370.493 863.926,-364.878 867.448,-374.87 872.911,-370.493"/>
</g>
<!-- PER -->
<g id="node25" class="node"><title>PER</title>
<path fill="#dae8fc" stroke="black" stroke-width="2" d="M979,-328.5C979,-328.5 1009,-328.5 1009,-328.5 1015,-328.5 1021,-334.5 1021,-340.5 1021,-340.5 1021,-352.5 1021,-352.5 1021,-358.5 1015,-364.5 1009,-364.5 1009,-364.5 979,-364.5 979,-364.5 973,-364.5 967,-358.5 967,-352.5 967,-352.5 967,-340.5 967,-340.5 967,-334.5 973,-328.5 979,-328.5"/>
<text text-anchor="middle" x="994" y="-343.4" font-family="sans-serif" font-size="12.00">PER</text>
</g>
<!-- DQN&#45;&gt;PER -->
<g id="edge21" class="edge"><title>DQN&#45;&gt;PER</title>
<path fill="none" stroke="black" d="M970.15,-476.466C974.759,-451.545 983.39,-404.874 988.907,-375.037"/>
<polygon fill="black" stroke="black" points="992.409,-375.348 990.786,-364.878 985.526,-374.075 992.409,-375.348"/>
</g>
<!-- QR&#45;DQN -->
<g id="node26" class="node"><title>QR&#45;DQN</title>
<path fill="#dae8fc" stroke="black" stroke-width="2" d="M744.5,-170.5C744.5,-170.5 787.5,-170.5 787.5,-170.5 793.5,-170.5 799.5,-176.5 799.5,-182.5 799.5,-182.5 799.5,-194.5 799.5,-194.5 799.5,-200.5 793.5,-206.5 787.5,-206.5 787.5,-206.5 744.5,-206.5 744.5,-206.5 738.5,-206.5 732.5,-200.5 732.5,-194.5 732.5,-194.5 732.5,-182.5 732.5,-182.5 732.5,-176.5 738.5,-170.5 744.5,-170.5"/>
<text text-anchor="middle" x="766" y="-185.4" font-family="sans-serif" font-size="12.00">QR&#45;DQN</text>
</g>
<!-- DQN&#45;&gt;QR&#45;DQN -->
<g id="edge22" class="edge"><title>DQN&#45;&gt;QR&#45;DQN</title>
<path fill="none" stroke="black" d="M939.717,-493.316C893.315,-491.409 804,-480.124 804,-421.5 804,-421.5 804,-421.5 804,-271.5 804,-250.714 807.628,-243.911 799,-225 797.319,-221.316 795.104,-217.762 792.615,-214.42"/>
<polygon fill="black" stroke="black" points="795.136,-211.98 786.012,-206.595 789.786,-216.495 795.136,-211.98"/>
</g>
<!-- C51 -->
<g id="node27" class="node"><title>C51</title>
<path fill="#dae8fc" stroke="black" stroke-width="2" d="M943,-170.5C943,-170.5 973,-170.5 973,-170.5 979,-170.5 985,-176.5 985,-182.5 985,-182.5 985,-194.5 985,-194.5 985,-200.5 979,-206.5 973,-206.5 973,-206.5 943,-206.5 943,-206.5 937,-206.5 931,-200.5 931,-194.5 931,-194.5 931,-182.5 931,-182.5 931,-176.5 937,-170.5 943,-170.5"/>
<text text-anchor="middle" x="958" y="-185.4" font-family="sans-serif" font-size="12.00">C51</text>
</g>
<!-- DQN&#45;&gt;C51 -->
<g id="edge23" class="edge"><title>DQN&#45;&gt;C51</title>
<path fill="none" stroke="black" d="M994.183,-480.423C1014.94,-468.331 1040,-448.201 1040,-421.5 1040,-421.5 1040,-421.5 1040,-271.5 1040,-243.595 1015.96,-221.87 993.918,-207.813"/>
<polygon fill="black" stroke="black" points="995.677,-204.786 985.305,-202.623 992.064,-210.782 995.677,-204.786"/>
</g>
<!-- DQN+HER -->
<g id="node28" class="node"><title>DQN+HER</title>
<path fill="#dae8fc" stroke="black" stroke-width="2" d="M1015.5,-170.5C1015.5,-170.5 1070.5,-170.5 1070.5,-170.5 1076.5,-170.5 1082.5,-176.5 1082.5,-182.5 1082.5,-182.5 1082.5,-194.5 1082.5,-194.5 1082.5,-200.5 1076.5,-206.5 1070.5,-206.5 1070.5,-206.5 1015.5,-206.5 1015.5,-206.5 1009.5,-206.5 1003.5,-200.5 1003.5,-194.5 1003.5,-194.5 1003.5,-182.5 1003.5,-182.5 1003.5,-176.5 1009.5,-170.5 1015.5,-170.5"/>
<text text-anchor="middle" x="1043" y="-185.4" font-family="sans-serif" font-size="12.00">DQN+HER</text>
</g>
<!-- DQN&#45;&gt;DQN+HER -->
<g id="edge24" class="edge"><title>DQN&#45;&gt;DQN+HER</title>
<path fill="none" stroke="black" d="M994.4,-485.262C1021.83,-475.118 1060,-454.987 1060,-421.5 1060,-421.5 1060,-421.5 1060,-271.5 1060,-252.776 1055.7,-232.137 1051.42,-216.25"/>
<polygon fill="black" stroke="black" points="1054.77,-215.222 1048.66,-206.564 1048.04,-217.14 1054.77,-215.222"/>
</g>
<!-- IQN -->
<g id="node29" class="node"><title>IQN</title>
<path fill="#dae8fc" stroke="black" stroke-width="2" d="M1061,-96.5C1061,-96.5 1091,-96.5 1091,-96.5 1097,-96.5 1103,-102.5 1103,-108.5 1103,-108.5 1103,-120.5 1103,-120.5 1103,-126.5 1097,-132.5 1091,-132.5 1091,-132.5 1061,-132.5 1061,-132.5 1055,-132.5 1049,-126.5 1049,-120.5 1049,-120.5 1049,-108.5 1049,-108.5 1049,-102.5 1055,-96.5 1061,-96.5"/>
<text text-anchor="middle" x="1076" y="-111.4" font-family="sans-serif" font-size="12.00">IQN</text>
</g>
<!-- DQN&#45;&gt;IQN -->
<g id="edge25" class="edge"><title>DQN&#45;&gt;IQN</title>
<path fill="none" stroke="black" d="M994.319,-491.048C1033.77,-485.84 1102,-469.844 1102,-421.5 1102,-421.5 1102,-421.5 1102,-187.5 1102,-171.672 1096.37,-154.989 1090.35,-141.671"/>
<polygon fill="black" stroke="black" points="1093.49,-140.105 1085.98,-132.629 1087.18,-143.155 1093.49,-140.105"/>
</g>
<!-- TD3 -->
<g id="node19" class="node"><title>TD3</title>
<path fill="#dae8fc" stroke="black" stroke-width="2" d="M650,-96.5C650,-96.5 680,-96.5 680,-96.5 686,-96.5 692,-102.5 692,-108.5 692,-108.5 692,-120.5 692,-120.5 692,-126.5 686,-132.5 680,-132.5 680,-132.5 650,-132.5 650,-132.5 644,-132.5 638,-126.5 638,-120.5 638,-120.5 638,-108.5 638,-108.5 638,-102.5 644,-96.5 650,-96.5"/>
<text text-anchor="middle" x="665" y="-111.4" font-family="sans-serif" font-size="12.00">TD3</text>
</g>
<!-- DDPG&#45;&gt;TD3 -->
<g id="edge44" class="edge"><title>DDPG&#45;&gt;TD3</title>
<path fill="none" stroke="black" d="M295.694,-328.266C274.51,-293.616 234.479,-214.991 275,-170 327.785,-111.393 552.049,-154.275 628,-133 628.103,-132.971 628.205,-132.942 628.308,-132.913"/>
<polygon fill="black" stroke="black" points="629.628,-136.159 637.919,-129.563 627.324,-129.549 629.628,-136.159"/>
</g>
<!-- DDPG+HER -->
<g id="node39" class="node"><title>DDPG+HER</title>
<path fill="#dae8fc" stroke="black" stroke-width="2" d="M296,-170.5C296,-170.5 358,-170.5 358,-170.5 364,-170.5 370,-176.5 370,-182.5 370,-182.5 370,-194.5 370,-194.5 370,-200.5 364,-206.5 358,-206.5 358,-206.5 296,-206.5 296,-206.5 290,-206.5 284,-200.5 284,-194.5 284,-194.5 284,-182.5 284,-182.5 284,-176.5 290,-170.5 296,-170.5"/>
<text text-anchor="middle" x="327" y="-185.4" font-family="sans-serif" font-size="12.00">DDPG+HER</text>
</g>
<!-- DDPG&#45;&gt;DDPG+HER -->
<g id="edge41" class="edge"><title>DDPG&#45;&gt;DDPG+HER</title>
<path fill="none" stroke="darkgray" stroke-dasharray="5,2" d="M309.217,-328.209C312.671,-301.268 319.367,-249.04 323.484,-216.923"/>
<polygon fill="darkgray" stroke="darkgray" points="326.973,-217.232 324.773,-206.868 320.03,-216.342 326.973,-217.232"/>
</g>
<!-- MADDPG -->
<g id="node40" class="node"><title>MADDPG</title>
<path fill="#dae8fc" stroke="black" stroke-width="2" d="M400.5,-170.5C400.5,-170.5 445.5,-170.5 445.5,-170.5 451.5,-170.5 457.5,-176.5 457.5,-182.5 457.5,-182.5 457.5,-194.5 457.5,-194.5 457.5,-200.5 451.5,-206.5 445.5,-206.5 445.5,-206.5 400.5,-206.5 400.5,-206.5 394.5,-206.5 388.5,-200.5 388.5,-194.5 388.5,-194.5 388.5,-182.5 388.5,-182.5 388.5,-176.5 394.5,-170.5 400.5,-170.5"/>
<text text-anchor="middle" x="423" y="-185.4" font-family="sans-serif" font-size="12.00">MADDPG</text>
</g>
<!-- DDPG&#45;&gt;MADDPG -->
<g id="edge42" class="edge"><title>DDPG&#45;&gt;MADDPG</title>
<path fill="none" stroke="black" d="M319.857,-328.209C340.239,-300.8 380.083,-247.216 403.841,-215.266"/>
<polygon fill="black" stroke="black" points="406.927,-216.981 410.085,-206.868 401.309,-212.804 406.927,-216.981"/>
</g>
<!-- D4PG -->
<g id="node41" class="node"><title>D4PG</title>
<path fill="#dae8fc" stroke="black" stroke-width="2" d="M230,-96.5C230,-96.5 260,-96.5 260,-96.5 266,-96.5 272,-102.5 272,-108.5 272,-108.5 272,-120.5 272,-120.5 272,-126.5 266,-132.5 260,-132.5 260,-132.5 230,-132.5 230,-132.5 224,-132.5 218,-126.5 218,-120.5 218,-120.5 218,-108.5 218,-108.5 218,-102.5 224,-96.5 230,-96.5"/>
<text text-anchor="middle" x="245" y="-111.4" font-family="sans-serif" font-size="12.00">D4PG</text>
</g>
<!-- DDPG&#45;&gt;D4PG -->
<g id="edge43" class="edge"><title>DDPG&#45;&gt;D4PG</title>
<path fill="none" stroke="black" d="M302.34,-328.213C291.632,-288.488 265.203,-190.447 252.31,-142.618"/>
<polygon fill="black" stroke="black" points="255.612,-141.419 249.63,-132.674 248.853,-143.241 255.612,-141.419"/>
</g>
<!-- DDQN&#45;&gt;TD3 -->
<g id="edge14" class="edge"><title>DDQN&#45;&gt;TD3</title>
<path fill="none" stroke="darkgray" stroke-dasharray="5,2" d="M894.886,-332.03C839.886,-304.598 719.885,-244.146 714,-236 696.584,-211.896 714.224,-197.539 703,-170 698.886,-159.906 692.631,-149.838 686.377,-141.152"/>
<polygon fill="darkgray" stroke="darkgray" points="689.022,-138.846 680.202,-132.977 683.436,-143.066 689.022,-138.846"/>
<text text-anchor="middle" x="756.5" y="-228" font-family="sans-serif" font-size="10.00" fill="darkgray">double Q&#45;learning</text>
</g>
<!-- RAINBOW -->
<g id="node21" class="node"><title>RAINBOW</title>
<path fill="#dae8fc" stroke="black" stroke-width="2" d="M847.5,-170.5C847.5,-170.5 900.5,-170.5 900.5,-170.5 906.5,-170.5 912.5,-176.5 912.5,-182.5 912.5,-182.5 912.5,-194.5 912.5,-194.5 912.5,-200.5 906.5,-206.5 900.5,-206.5 900.5,-206.5 847.5,-206.5 847.5,-206.5 841.5,-206.5 835.5,-200.5 835.5,-194.5 835.5,-194.5 835.5,-182.5 835.5,-182.5 835.5,-176.5 841.5,-170.5 847.5,-170.5"/>
<text text-anchor="middle" x="874" y="-185.4" font-family="sans-serif" font-size="12.00">RAINBOW</text>
</g>
<!-- DDQN&#45;&gt;RAINBOW -->
<g id="edge27" class="edge"><title>DDQN&#45;&gt;RAINBOW</title>
<path fill="none" stroke="darkgray" stroke-dasharray="5,2" d="M898.778,-328.272C887.822,-318.668 875.884,-305.69 870,-291 860.464,-267.192 863.053,-237.678 867.069,-216.624"/>
<polygon fill="darkgray" stroke="darkgray" points="870.513,-217.256 869.175,-206.746 863.667,-215.796 870.513,-217.256"/>
</g>
<!-- Duelling&#45;DQN -->
<g id="node30" class="node"><title>Duelling&#45;DQN</title>
<path fill="#dae8fc" stroke="black" stroke-width="2" d="M891,-254.5C891,-254.5 961,-254.5 961,-254.5 967,-254.5 973,-260.5 973,-266.5 973,-266.5 973,-278.5 973,-278.5 973,-284.5 967,-290.5 961,-290.5 961,-290.5 891,-290.5 891,-290.5 885,-290.5 879,-284.5 879,-278.5 879,-278.5 879,-266.5 879,-266.5 879,-260.5 885,-254.5 891,-254.5"/>
<text text-anchor="middle" x="926" y="-269.4" font-family="sans-serif" font-size="12.00">Duelling&#45;DQN</text>
</g>
<!-- DDQN&#45;&gt;Duelling&#45;DQN -->
<g id="edge26" class="edge"><title>DDQN&#45;&gt;Duelling&#45;DQN</title>
<path fill="none" stroke="black" d="M922.948,-328.437C923.4,-320.307 923.951,-310.376 924.461,-301.205"/>
<polygon fill="black" stroke="black" points="927.971,-301.119 925.031,-290.941 920.982,-300.731 927.971,-301.119"/>
</g>
<!-- A3C&#45;&gt;ACER -->
<g id="edge49" class="edge"><title>A3C&#45;&gt;ACER</title>
<path fill="none" stroke="black" d="M511.221,-254.31C526.768,-242.283 547.722,-226.073 564.785,-212.874"/>
<polygon fill="black" stroke="black" points="567.04,-215.554 572.808,-206.667 562.757,-210.018 567.04,-215.554"/>
</g>
<!-- A3C&#45;&gt;RAINBOW -->
<g id="edge15" class="edge"><title>A3C&#45;&gt;RAINBOW</title>
<path fill="none" stroke="darkgray" stroke-dasharray="5,2" d="M516.204,-263.187C526.713,-260.11 538.868,-256.713 550,-254 613.428,-238.541 629.743,-236.538 694,-225 744.487,-215.935 757.81,-217.587 808,-207 813.722,-205.793 819.689,-204.402 825.594,-202.941"/>
<polygon fill="darkgray" stroke="darkgray" points="826.593,-206.299 835.421,-200.439 824.866,-199.515 826.593,-206.299"/>
</g>
<!-- A2C -->
<g id="node43" class="node"><title>A2C</title>
<path fill="#dae8fc" stroke="black" stroke-width="2" d="M488,-170.5C488,-170.5 518,-170.5 518,-170.5 524,-170.5 530,-176.5 530,-182.5 530,-182.5 530,-194.5 530,-194.5 530,-200.5 524,-206.5 518,-206.5 518,-206.5 488,-206.5 488,-206.5 482,-206.5 476,-200.5 476,-194.5 476,-194.5 476,-182.5 476,-182.5 476,-176.5 482,-170.5 488,-170.5"/>
<text text-anchor="middle" x="503" y="-185.4" font-family="sans-serif" font-size="12.00">A2C</text>
</g>
<!-- A3C&#45;&gt;A2C -->
<g id="edge48" class="edge"><title>A3C&#45;&gt;A2C</title>
<path fill="none" stroke="black" d="M491.969,-254.11C493.819,-243.274 496.239,-229.101 498.341,-216.791"/>
<polygon fill="black" stroke="black" points="501.85,-217.03 500.083,-206.584 494.95,-215.852 501.85,-217.03"/>
</g>
<!-- Q&#45;learning&#45;&gt;DQN -->
<g id="edge18" class="edge"><title>Q&#45;learning&#45;&gt;DQN</title>
<path fill="none" stroke="black" d="M967,-698.237C967,-660.164 967,-568.731 967,-522.801"/>
<polygon fill="black" stroke="black" points="970.5,-522.683 967,-512.683 963.5,-522.683 970.5,-522.683"/>
</g>
<!-- PER&#45;&gt;RAINBOW -->
<g id="edge28" class="edge"><title>PER&#45;&gt;RAINBOW</title>
<path fill="none" stroke="darkgray" stroke-dasharray="5,2" d="M995.961,-328.471C997.331,-308.87 996.782,-276.493 982,-254 973.98,-241.796 944.867,-224.741 918.886,-211.234"/>
<polygon fill="darkgray" stroke="darkgray" points="920.364,-208.058 909.867,-206.618 917.175,-214.289 920.364,-208.058"/>
</g>
<!-- QR&#45;DQN&#45;&gt;RAINBOW -->
<g id="edge30" class="edge"><title>QR&#45;DQN&#45;&gt;RAINBOW</title>
<path fill="none" stroke="darkgray" stroke-dasharray="5,2" d="M799.75,-188.5C808.297,-188.5 816.844,-188.5 825.391,-188.5"/>
<polygon fill="darkgray" stroke="darkgray" points="825.425,-192 835.425,-188.5 825.425,-185 825.425,-192"/>
</g>
<!-- Duelling&#45;DQN&#45;&gt;RAINBOW -->
<g id="edge29" class="edge"><title>Duelling&#45;DQN&#45;&gt;RAINBOW</title>
<path fill="none" stroke="darkgray" stroke-dasharray="5,2" d="M914.972,-254.11C907.823,-242.836 898.383,-227.95 890.366,-215.309"/>
<polygon fill="darkgray" stroke="darkgray" points="893.145,-213.155 884.834,-206.584 887.233,-216.903 893.145,-213.155"/>
</g>
<!-- DPG&#45;&gt;DDPG -->
<g id="edge40" class="edge"><title>DPG&#45;&gt;DDPG</title>
<path fill="none" stroke="black" d="M307,-402.437C307,-394.307 307,-384.376 307,-375.205"/>
<polygon fill="black" stroke="black" points="310.5,-374.941 307,-364.941 303.5,-374.941 310.5,-374.941"/>
</g>
<!-- TRPO&#45;&gt;ACER -->
<g id="edge46" class="edge"><title>TRPO&#45;&gt;ACER</title>
<path fill="none" stroke="darkgray" stroke-dasharray="5,2" d="M581.51,-328.266C582.155,-309.848 583.498,-279.811 586,-254 587.194,-241.679 589.013,-228.099 590.704,-216.591"/>
<polygon fill="darkgray" stroke="darkgray" points="594.165,-217.111 592.199,-206.7 587.244,-216.065 594.165,-217.111"/>
<text text-anchor="middle" x="624" y="-270" font-family="sans-serif" font-size="10.00" fill="darkgray">TRPO technique</text>
</g>
<!-- TRPO&#45;&gt;GAE -->
<g id="edge45" class="edge"><title>TRPO&#45;&gt;GAE</title>
<path fill="none" stroke="darkgray" stroke-dasharray="5,2" d="M553.647,-354.039C500.823,-367.671 381.064,-394.067 280,-383.5 231.65,-378.445 176.993,-365.736 141.822,-356.625"/>
<polygon fill="darkgray" stroke="darkgray" points="142.563,-353.201 132.001,-354.043 140.783,-359.971 142.563,-353.201"/>
</g>
<!-- PPO -->
<g id="node42" class="node"><title>PPO</title>
<path fill="#dae8fc" stroke="black" stroke-width="2" d="M652,-170.5C652,-170.5 682,-170.5 682,-170.5 688,-170.5 694,-176.5 694,-182.5 694,-182.5 694,-194.5 694,-194.5 694,-200.5 688,-206.5 682,-206.5 682,-206.5 652,-206.5 652,-206.5 646,-206.5 640,-200.5 640,-194.5 640,-194.5 640,-182.5 640,-182.5 640,-176.5 646,-170.5 652,-170.5"/>
<text text-anchor="middle" x="667" y="-185.4" font-family="sans-serif" font-size="12.00">PPO</text>
</g>
<!-- TRPO&#45;&gt;PPO -->
<g id="edge47" class="edge"><title>TRPO&#45;&gt;PPO</title>
<path fill="none" stroke="darkgray" stroke-dasharray="5,2" d="M608.239,-334.986C626.873,-326.231 650.252,-311.812 662,-291 674.761,-268.393 674.504,-238.242 671.979,-216.688"/>
<polygon fill="darkgray" stroke="darkgray" points="675.416,-215.992 670.556,-206.577 668.484,-216.967 675.416,-215.992"/>
</g>
<!-- PPO&#45;&gt;SAC -->
<!-- A2C&#45;&gt;ACER -->
<!-- A2C&#45;&gt;ACKTR -->
<!-- A2C&#45;&gt;SVPG -->
<!-- A2C&#45;&gt;IMPALA -->
<!-- MBMF -->
<g id="node45" class="node"><title>MBMF</title>
<path fill="#dae8fc" stroke="black" stroke-width="2" d="M1147,-170.5C1147,-170.5 1177,-170.5 1177,-170.5 1183,-170.5 1189,-176.5 1189,-182.5 1189,-182.5 1189,-194.5 1189,-194.5 1189,-200.5 1183,-206.5 1177,-206.5 1177,-206.5 1147,-206.5 1147,-206.5 1141,-206.5 1135,-200.5 1135,-194.5 1135,-194.5 1135,-182.5 1135,-182.5 1135,-176.5 1141,-170.5 1147,-170.5"/>
<text text-anchor="middle" x="1162" y="-185.4" font-family="sans-serif" font-size="12.00">MBMF</text>
</g>
<!-- Model Based&#45;&gt;MBMF -->
<g id="edge55" class="edge"><title>Model Based&#45;&gt;MBMF</title>
<path fill="none" stroke="black" d="M1177.4,-870.203C1174.74,-851.017 1171,-819.121 1171,-791.5 1171,-791.5 1171,-791.5 1171,-271.5 1171,-253.231 1168.77,-232.808 1166.52,-216.915"/>
<polygon fill="black" stroke="black" points="1169.94,-216.089 1165,-206.717 1163.02,-217.125 1169.94,-216.089"/>
</g>
<!-- SimPLe -->
<g id="node46" class="node"><title>SimPLe</title>
<path fill="#dae8fc" stroke="black" stroke-width="2" d="M1188.5,-16.5C1188.5,-16.5 1223.5,-16.5 1223.5,-16.5 1229.5,-16.5 1235.5,-22.5 1235.5,-28.5 1235.5,-28.5 1235.5,-40.5 1235.5,-40.5 1235.5,-46.5 1229.5,-52.5 1223.5,-52.5 1223.5,-52.5 1188.5,-52.5 1188.5,-52.5 1182.5,-52.5 1176.5,-46.5 1176.5,-40.5 1176.5,-40.5 1176.5,-28.5 1176.5,-28.5 1176.5,-22.5 1182.5,-16.5 1188.5,-16.5"/>
<text text-anchor="middle" x="1206" y="-31.4" font-family="sans-serif" font-size="12.00">SimPLe</text>
</g>
<!-- Model Based&#45;&gt;SimPLe -->
<g id="edge56" class="edge"><title>Model Based&#45;&gt;SimPLe</title>
<path fill="none" stroke="black" d="M1188.25,-870.248C1196.51,-851.363 1208,-819.972 1208,-791.5 1208,-791.5 1208,-791.5 1208,-113.5 1208,-96.6044 1207.53,-77.6569 1207.04,-62.6676"/>
<polygon fill="black" stroke="black" points="1210.53,-62.4117 1206.69,-52.5386 1203.54,-62.6535 1210.53,-62.4117"/>
</g>
</g>
</svg>
