<?xml version="1.0" encoding="UTF-8" standalone="no"?>
<!DOCTYPE svg PUBLIC "-//W3C//DTD SVG 1.1//EN"
 "http://www.w3.org/Graphics/SVG/1.1/DTD/svg11.dtd">
<!-- Generated by graphviz version 2.38.0 (20140413.2041)
 -->
<!-- Title: %3 Pages: 1 -->
<svg width="984pt" height="966pt"
 viewBox="0.00 0.00 984.00 966.00" xmlns="http://www.w3.org/2000/svg" xmlns:xlink="http://www.w3.org/1999/xlink">
<g id="graph0" class="graph" transform="scale(1 1) rotate(0) translate(4 962)">
<title>%3</title>
<polygon fill="white" stroke="none" points="-4,4 -4,-962 980,-962 980,4 -4,4"/>
<g id="clust1" class="cluster"><title>clusterValue Gradient</title>
<polygon fill="none" stroke="black" stroke-dasharray="5,2" points="170,-633 170,-950 968,-950 968,-633 170,-633"/>
<text text-anchor="middle" x="569" y="-933.2" font-family="arial" font-size="16.00">Value Gradient</text>
</g>
<g id="clust9" class="cluster"><title>clusterPolicy Gradient/Actor&#45;Critic</title>
<polygon fill="none" stroke="black" stroke-dasharray="5,2" points="170,-8 170,-572 961,-572 961,-8 170,-8"/>
<text text-anchor="middle" x="565.5" y="-555.2" font-family="arial" font-size="16.00">Policy Gradient/Actor&#45;Critic</text>
</g>
<!-- Reinforcement Learning -->
<g id="node1" class="node"><title>Reinforcement Learning</title>
<path fill="none" stroke="black" d="M12,-585C12,-585 129,-585 129,-585 135,-585 141,-591 141,-597 141,-597 141,-609 141,-609 141,-615 135,-621 129,-621 129,-621 12,-621 12,-621 6,-621 0,-615 0,-609 0,-609 0,-597 0,-597 0,-591 6,-585 12,-585"/>
<text text-anchor="middle" x="70.5" y="-599.9" font-family="arial" font-size="12.00">Reinforcement Learning</text>
</g>
<!-- vg -->
<!-- Reinforcement Learning&#45;&gt;vg -->
<g id="edge53" class="edge"><title>Reinforcement Learning&#45;&gt;vg</title>
<path fill="none" stroke="black" d="M89.6457,-621.077C108.425,-639.785 138.391,-669.639 162.937,-694.092"/>
<polygon fill="black" stroke="black" points="160.477,-696.582 170.032,-701.16 165.418,-691.623 160.477,-696.582"/>
</g>
<!-- pg -->
<!-- Reinforcement Learning&#45;&gt;pg -->
<g id="edge54" class="edge"><title>Reinforcement Learning&#45;&gt;pg</title>
<path fill="none" stroke="black" d="M82.1191,-584.968C99.8726,-554.82 136.436,-492.731 164.907,-444.384"/>
<polygon fill="black" stroke="black" points="168.064,-445.92 170.123,-435.527 162.032,-442.368 168.064,-445.92"/>
</g>
<!-- DQN -->
<g id="node2" class="node"><title>DQN</title>
<path fill="none" stroke="black" d="M551,-744C551,-744 581,-744 581,-744 587,-744 593,-750 593,-756 593,-756 593,-768 593,-768 593,-774 587,-780 581,-780 581,-780 551,-780 551,-780 545,-780 539,-774 539,-768 539,-768 539,-756 539,-756 539,-750 545,-744 551,-744"/>
<text text-anchor="middle" x="566" y="-758.9" font-family="arial" font-size="12.00">DQN</text>
</g>
<!-- DDPG -->
<g id="node3" class="node"><title>DDPG</title>
<path fill="none" stroke="black" d="M551,-277C551,-277 581,-277 581,-277 587,-277 593,-283 593,-289 593,-289 593,-301 593,-301 593,-307 587,-313 581,-313 581,-313 551,-313 551,-313 545,-313 539,-307 539,-301 539,-301 539,-289 539,-289 539,-283 545,-277 551,-277"/>
<text text-anchor="middle" x="566" y="-291.9" font-family="arial" font-size="12.00">DDPG</text>
</g>
<!-- DQN&#45;&gt;DDPG -->
<g id="edge1" class="edge"><title>DQN&#45;&gt;DDPG</title>
<path fill="none" stroke="darkgray" stroke-dasharray="5,2" d="M554.052,-743.759C523.72,-695.153 448.258,-558.448 479,-444.5 491.689,-397.468 523.23,-350.012 544.637,-321.554"/>
<polygon fill="darkgray" stroke="darkgray" points="547.616,-323.42 550.922,-313.354 542.061,-319.161 547.616,-323.42"/>
<text text-anchor="middle" x="494.5" y="-447.5" font-family="arial" font-size="10.00" fill="darkgray">replay buffer</text>
</g>
<!-- ACER -->
<g id="node4" class="node"><title>ACER</title>
<path fill="none" stroke="black" d="M789.5,-426C789.5,-426 819.5,-426 819.5,-426 825.5,-426 831.5,-432 831.5,-438 831.5,-438 831.5,-450 831.5,-450 831.5,-456 825.5,-462 819.5,-462 819.5,-462 789.5,-462 789.5,-462 783.5,-462 777.5,-456 777.5,-450 777.5,-450 777.5,-438 777.5,-438 777.5,-432 783.5,-426 789.5,-426"/>
<text text-anchor="middle" x="804.5" y="-440.9" font-family="arial" font-size="12.00">ACER</text>
</g>
<!-- DQN&#45;&gt;ACER -->
<g id="edge2" class="edge"><title>DQN&#45;&gt;ACER</title>
<path fill="none" stroke="darkgray" stroke-dasharray="5,2" d="M573.178,-743.783C583.002,-716.06 603.785,-662.157 630,-621 677.394,-546.592 692.874,-528.243 760,-471 762.803,-468.61 765.838,-466.286 768.956,-464.07"/>
<polygon fill="darkgray" stroke="darkgray" points="770.941,-466.953 777.305,-458.483 767.048,-461.136 770.941,-466.953"/>
<text text-anchor="middle" x="676.5" y="-624" font-family="arial" font-size="10.00" fill="darkgray">replay buffer, workers</text>
</g>
<!-- DDQN -->
<g id="node5" class="node"><title>DDQN</title>
<path fill="none" stroke="black" d="M661.5,-716C661.5,-716 691.5,-716 691.5,-716 697.5,-716 703.5,-722 703.5,-728 703.5,-728 703.5,-740 703.5,-740 703.5,-746 697.5,-752 691.5,-752 691.5,-752 661.5,-752 661.5,-752 655.5,-752 649.5,-746 649.5,-740 649.5,-740 649.5,-728 649.5,-728 649.5,-722 655.5,-716 661.5,-716"/>
<text text-anchor="middle" x="676.5" y="-730.9" font-family="arial" font-size="12.00">DDQN</text>
</g>
<!-- DQN&#45;&gt;DDQN -->
<g id="edge9" class="edge"><title>DQN&#45;&gt;DDQN</title>
<path fill="none" stroke="black" d="M593.265,-755.222C607.125,-751.645 624.342,-747.202 639.435,-743.307"/>
<polygon fill="black" stroke="black" points="640.669,-746.603 649.477,-740.716 638.92,-739.825 640.669,-746.603"/>
</g>
<!-- DRQN -->
<g id="node13" class="node"><title>DRQN</title>
<path fill="none" stroke="black" d="M661.5,-771C661.5,-771 691.5,-771 691.5,-771 697.5,-771 703.5,-777 703.5,-783 703.5,-783 703.5,-795 703.5,-795 703.5,-801 697.5,-807 691.5,-807 691.5,-807 661.5,-807 661.5,-807 655.5,-807 649.5,-801 649.5,-795 649.5,-795 649.5,-783 649.5,-783 649.5,-777 655.5,-771 661.5,-771"/>
<text text-anchor="middle" x="676.5" y="-785.9" font-family="arial" font-size="12.00">DRQN</text>
</g>
<!-- DQN&#45;&gt;DRQN -->
<g id="edge8" class="edge"><title>DQN&#45;&gt;DRQN</title>
<path fill="none" stroke="black" d="M593.265,-768.536C607.125,-771.985 624.342,-776.269 639.435,-780.025"/>
<polygon fill="black" stroke="black" points="638.928,-783.506 649.477,-782.524 640.618,-776.713 638.928,-783.506"/>
</g>
<!-- PER -->
<g id="node14" class="node"><title>PER</title>
<path fill="none" stroke="black" d="M661.5,-826C661.5,-826 691.5,-826 691.5,-826 697.5,-826 703.5,-832 703.5,-838 703.5,-838 703.5,-850 703.5,-850 703.5,-856 697.5,-862 691.5,-862 691.5,-862 661.5,-862 661.5,-862 655.5,-862 649.5,-856 649.5,-850 649.5,-850 649.5,-838 649.5,-838 649.5,-832 655.5,-826 661.5,-826"/>
<text text-anchor="middle" x="676.5" y="-840.9" font-family="arial" font-size="12.00">PER</text>
</g>
<!-- DQN&#45;&gt;PER -->
<g id="edge10" class="edge"><title>DQN&#45;&gt;PER</title>
<path fill="none" stroke="black" d="M585.823,-780.047C597.965,-791.273 614.358,-805.676 630,-817 633.432,-819.485 637.104,-821.95 640.819,-824.323"/>
<polygon fill="black" stroke="black" points="639.121,-827.388 649.47,-829.657 642.795,-821.43 639.121,-827.388"/>
</g>
<!-- QR&#45;DQN -->
<g id="node15" class="node"><title>QR&#45;DQN</title>
<path fill="none" stroke="black" d="M903,-696C903,-696 943,-696 943,-696 949,-696 955,-702 955,-708 955,-708 955,-720 955,-720 955,-726 949,-732 943,-732 943,-732 903,-732 903,-732 897,-732 891,-726 891,-720 891,-720 891,-708 891,-708 891,-702 897,-696 903,-696"/>
<text text-anchor="middle" x="923" y="-710.9" font-family="arial" font-size="12.00">QR&#45;DQN</text>
</g>
<!-- DQN&#45;&gt;QR&#45;DQN -->
<g id="edge11" class="edge"><title>DQN&#45;&gt;QR&#45;DQN</title>
<path fill="none" stroke="black" d="M581.384,-743.846C592.938,-730.827 610.424,-714.343 630,-707 714.652,-675.247 823.028,-691.119 881.021,-703.68"/>
<polygon fill="black" stroke="black" points="880.382,-707.124 890.906,-705.896 881.914,-700.293 880.382,-707.124"/>
</g>
<!-- DQN+HER -->
<g id="node16" class="node"><title>DQN+HER</title>
<path fill="none" stroke="black" d="M898,-824C898,-824 948,-824 948,-824 954,-824 960,-830 960,-836 960,-836 960,-848 960,-848 960,-854 954,-860 948,-860 948,-860 898,-860 898,-860 892,-860 886,-854 886,-848 886,-848 886,-836 886,-836 886,-830 892,-824 898,-824"/>
<text text-anchor="middle" x="923" y="-838.9" font-family="arial" font-size="12.00">DQN+HER</text>
</g>
<!-- DQN&#45;&gt;DQN+HER -->
<g id="edge12" class="edge"><title>DQN&#45;&gt;DQN+HER</title>
<path fill="none" stroke="black" d="M571.299,-780.075C578.505,-805.822 595.728,-852.134 630,-872 707.423,-916.88 816.026,-886.072 876.601,-862.296"/>
<polygon fill="black" stroke="black" points="877.929,-865.535 885.899,-858.553 875.315,-859.041 877.929,-865.535"/>
</g>
<!-- TD3 -->
<g id="node6" class="node"><title>TD3</title>
<path fill="none" stroke="black" d="M908,-489C908,-489 938,-489 938,-489 944,-489 950,-495 950,-501 950,-501 950,-513 950,-513 950,-519 944,-525 938,-525 938,-525 908,-525 908,-525 902,-525 896,-519 896,-513 896,-513 896,-501 896,-501 896,-495 902,-489 908,-489"/>
<text text-anchor="middle" x="923" y="-503.9" font-family="arial" font-size="12.00">TD3</text>
</g>
<!-- DDPG&#45;&gt;TD3 -->
<g id="edge37" class="edge"><title>DDPG&#45;&gt;TD3</title>
<path fill="none" stroke="black" d="M592.231,-276.967C603.434,-269.497 617.005,-261.159 630,-255 674.818,-233.76 811.506,-179.535 849,-212 892.454,-249.625 861.284,-416.105 886,-468 888.221,-472.664 891.196,-477.155 894.488,-481.327"/>
<polygon fill="black" stroke="black" points="891.888,-483.67 901.094,-488.914 897.167,-479.073 891.888,-483.67"/>
</g>
<!-- DDPG+HER -->
<g id="node35" class="node"><title>DDPG+HER</title>
<path fill="none" stroke="black" d="M775,-277C775,-277 834,-277 834,-277 840,-277 846,-283 846,-289 846,-289 846,-301 846,-301 846,-307 840,-313 834,-313 834,-313 775,-313 775,-313 769,-313 763,-307 763,-301 763,-301 763,-289 763,-289 763,-283 769,-277 775,-277"/>
<text text-anchor="middle" x="804.5" y="-291.9" font-family="arial" font-size="12.00">DDPG+HER</text>
</g>
<!-- DDPG&#45;&gt;DDPG+HER -->
<g id="edge34" class="edge"><title>DDPG&#45;&gt;DDPG+HER</title>
<path fill="none" stroke="darkgray" stroke-dasharray="5,2" d="M593.213,-295C631.613,-295 703.898,-295 752.873,-295"/>
<polygon fill="darkgray" stroke="darkgray" points="752.949,-298.5 762.949,-295 752.949,-291.5 752.949,-298.5"/>
</g>
<!-- MADDPG -->
<g id="node36" class="node"><title>MADDPG</title>
<path fill="none" stroke="black" d="M781.5,-222C781.5,-222 827.5,-222 827.5,-222 833.5,-222 839.5,-228 839.5,-234 839.5,-234 839.5,-246 839.5,-246 839.5,-252 833.5,-258 827.5,-258 827.5,-258 781.5,-258 781.5,-258 775.5,-258 769.5,-252 769.5,-246 769.5,-246 769.5,-234 769.5,-234 769.5,-228 775.5,-222 781.5,-222"/>
<text text-anchor="middle" x="804.5" y="-236.9" font-family="arial" font-size="12.00">MADDPG</text>
</g>
<!-- DDPG&#45;&gt;MADDPG -->
<g id="edge35" class="edge"><title>DDPG&#45;&gt;MADDPG</title>
<path fill="none" stroke="black" d="M593.213,-288.904C633.297,-279.582 710.304,-261.673 759.178,-250.308"/>
<polygon fill="black" stroke="black" points="760.209,-253.661 769.156,-247.987 758.623,-246.843 760.209,-253.661"/>
</g>
<!-- D4PG -->
<g id="node37" class="node"><title>D4PG</title>
<path fill="none" stroke="black" d="M908,-290C908,-290 938,-290 938,-290 944,-290 950,-296 950,-302 950,-302 950,-314 950,-314 950,-320 944,-326 938,-326 938,-326 908,-326 908,-326 902,-326 896,-320 896,-314 896,-314 896,-302 896,-302 896,-296 902,-290 908,-290"/>
<text text-anchor="middle" x="923" y="-304.9" font-family="arial" font-size="12.00">D4PG</text>
</g>
<!-- DDPG&#45;&gt;D4PG -->
<g id="edge36" class="edge"><title>DDPG&#45;&gt;D4PG</title>
<path fill="none" stroke="black" d="M593.047,-300.813C642.79,-311.176 754.749,-330.956 849,-322 861.122,-320.848 874.226,-318.643 885.94,-316.318"/>
<polygon fill="black" stroke="black" points="886.738,-319.727 895.818,-314.268 885.315,-312.874 886.738,-319.727"/>
</g>
<!-- DDQN&#45;&gt;TD3 -->
<g id="edge3" class="edge"><title>DDQN&#45;&gt;TD3</title>
<path fill="none" stroke="darkgray" stroke-dasharray="5,2" d="M696.771,-715.783C705.327,-707.183 715.203,-696.514 723,-686 742.8,-659.299 737.646,-645.603 760,-621 770.163,-609.814 842.749,-560.241 887.242,-530.271"/>
<polygon fill="darkgray" stroke="darkgray" points="889.395,-533.041 895.739,-524.556 885.488,-527.233 889.395,-533.041"/>
<text text-anchor="middle" x="804.5" y="-624" font-family="arial" font-size="10.00" fill="darkgray">double Q&#45;learning</text>
</g>
<!-- Duelling&#45;DQN -->
<g id="node18" class="node"><title>Duelling&#45;DQN</title>
<path fill="none" stroke="black" d="M772,-763C772,-763 837,-763 837,-763 843,-763 849,-769 849,-775 849,-775 849,-787 849,-787 849,-793 843,-799 837,-799 837,-799 772,-799 772,-799 766,-799 760,-793 760,-787 760,-787 760,-775 760,-775 760,-769 766,-763 772,-763"/>
<text text-anchor="middle" x="804.5" y="-777.9" font-family="arial" font-size="12.00">Duelling&#45;DQN</text>
</g>
<!-- DDQN&#45;&gt;Duelling&#45;DQN -->
<g id="edge13" class="edge"><title>DDQN&#45;&gt;Duelling&#45;DQN</title>
<path fill="none" stroke="black" d="M703.607,-743.738C716.979,-748.726 733.773,-754.991 749.756,-760.952"/>
<polygon fill="black" stroke="black" points="748.971,-764.395 759.564,-764.611 751.418,-757.837 748.971,-764.395"/>
</g>
<!-- RAINBOW -->
<g id="node19" class="node"><title>RAINBOW</title>
<path fill="none" stroke="black" d="M899,-769C899,-769 947,-769 947,-769 953,-769 959,-775 959,-781 959,-781 959,-793 959,-793 959,-799 953,-805 947,-805 947,-805 899,-805 899,-805 893,-805 887,-799 887,-793 887,-793 887,-781 887,-781 887,-775 893,-769 899,-769"/>
<text text-anchor="middle" x="923" y="-783.9" font-family="arial" font-size="12.00">RAINBOW</text>
</g>
<!-- DDQN&#45;&gt;RAINBOW -->
<g id="edge14" class="edge"><title>DDQN&#45;&gt;RAINBOW</title>
<path fill="none" stroke="darkgray" stroke-dasharray="5,2" d="M703.544,-734.554C737.571,-735.837 798.736,-740.071 849,-754 858.851,-756.73 869.064,-760.613 878.617,-764.761"/>
<polygon fill="darkgray" stroke="darkgray" points="877.36,-768.033 887.913,-768.965 880.244,-761.655 877.36,-768.033"/>
</g>
<!-- SARSA -->
<g id="node8" class="node"><title>SARSA</title>
<path fill="none" stroke="black" d="M404,-706C404,-706 438,-706 438,-706 444,-706 450,-712 450,-718 450,-718 450,-730 450,-730 450,-736 444,-742 438,-742 438,-742 404,-742 404,-742 398,-742 392,-736 392,-730 392,-730 392,-718 392,-718 392,-712 398,-706 404,-706"/>
<text text-anchor="middle" x="421" y="-720.9" font-family="arial" font-size="12.00">SARSA</text>
</g>
<!-- vg&#45;&gt;SARSA -->
<!-- Q&#45;learning -->
<g id="node9" class="node"><title>Q&#45;learning</title>
<path fill="none" stroke="black" d="M288.5,-744C288.5,-744 335.5,-744 335.5,-744 341.5,-744 347.5,-750 347.5,-756 347.5,-756 347.5,-768 347.5,-768 347.5,-774 341.5,-780 335.5,-780 335.5,-780 288.5,-780 288.5,-780 282.5,-780 276.5,-774 276.5,-768 276.5,-768 276.5,-756 276.5,-756 276.5,-750 282.5,-744 288.5,-744"/>
<text text-anchor="middle" x="312" y="-758.9" font-family="arial" font-size="12.00">Q&#45;learning</text>
</g>
<!-- vg&#45;&gt;Q&#45;learning -->
<!-- C51 -->
<g id="node10" class="node"><title>C51</title>
<path fill="none" stroke="black" d="M908,-879C908,-879 938,-879 938,-879 944,-879 950,-885 950,-891 950,-891 950,-903 950,-903 950,-909 944,-915 938,-915 938,-915 908,-915 908,-915 902,-915 896,-909 896,-903 896,-903 896,-891 896,-891 896,-885 902,-879 908,-879"/>
<text text-anchor="middle" x="923" y="-893.9" font-family="arial" font-size="12.00">C51</text>
</g>
<!-- vg&#45;&gt;C51 -->
<!-- Q&#45;learning&#45;&gt;DQN -->
<g id="edge7" class="edge"><title>Q&#45;learning&#45;&gt;DQN</title>
<path fill="none" stroke="black" d="M347.511,-762C395.107,-762 480.492,-762 528.908,-762"/>
<polygon fill="black" stroke="black" points="528.939,-765.5 538.939,-762 528.939,-758.5 528.939,-765.5"/>
</g>
<!-- Value Gradient1989 -->
<g id="node11" class="node"><title>Value Gradient1989</title>
<text text-anchor="middle" x="312" y="-656.5" font-family="arial" font-size="10.00" fill="darkgray">1989</text>
</g>
<!-- Value Gradient1994 -->
<g id="node12" class="node"><title>Value Gradient1994</title>
<text text-anchor="middle" x="421" y="-656.5" font-family="arial" font-size="10.00" fill="darkgray">1994</text>
</g>
<!-- Value Gradient1989&#45;&gt;Value Gradient1994 -->
<g id="edge18" class="edge"><title>Value Gradient1989&#45;&gt;Value Gradient1994</title>
<path fill="none" stroke="darkgray" d="M339.175,-659C352.518,-659 368.96,-659 383.523,-659"/>
<polygon fill="darkgray" stroke="darkgray" points="383.724,-662.5 393.724,-659 383.724,-655.5 383.724,-662.5"/>
</g>
<!-- Value Gradient2013 -->
<g id="node17" class="node"><title>Value Gradient2013</title>
<text text-anchor="middle" x="566" y="-656.5" font-family="arial" font-size="10.00" fill="darkgray">2013</text>
</g>
<!-- Value Gradient1994&#45;&gt;Value Gradient2013 -->
<g id="edge19" class="edge"><title>Value Gradient1994&#45;&gt;Value Gradient2013</title>
<path fill="none" stroke="darkgray" d="M448.228,-659C470.805,-659 503.612,-659 528.707,-659"/>
<polygon fill="darkgray" stroke="darkgray" points="528.938,-662.5 538.938,-659 528.938,-655.5 528.938,-662.5"/>
</g>
<!-- PER&#45;&gt;RAINBOW -->
<g id="edge15" class="edge"><title>PER&#45;&gt;RAINBOW</title>
<path fill="none" stroke="darkgray" stroke-dasharray="5,2" d="M703.525,-839.455C737.276,-833.385 797.877,-821.891 849,-809 858.143,-806.694 867.85,-803.969 877.099,-801.235"/>
<polygon fill="darkgray" stroke="darkgray" points="878.339,-804.517 886.907,-798.285 876.323,-797.813 878.339,-804.517"/>
</g>
<!-- QR&#45;DQN&#45;&gt;RAINBOW -->
<g id="edge17" class="edge"><title>QR&#45;DQN&#45;&gt;RAINBOW</title>
<path fill="none" stroke="darkgray" stroke-dasharray="5,2" d="M923,-732.25C923,-740.961 923,-749.671 923,-758.382"/>
<polygon fill="darkgray" stroke="darkgray" points="919.5,-758.607 923,-768.607 926.5,-758.607 919.5,-758.607"/>
</g>
<!-- Value Gradient2015 -->
<g id="node20" class="node"><title>Value Gradient2015</title>
<text text-anchor="middle" x="676.5" y="-656.5" font-family="arial" font-size="10.00" fill="darkgray">2015</text>
</g>
<!-- Value Gradient2013&#45;&gt;Value Gradient2015 -->
<g id="edge20" class="edge"><title>Value Gradient2013&#45;&gt;Value Gradient2015</title>
<path fill="none" stroke="darkgray" d="M593.265,-659C607.125,-659 624.342,-659 639.435,-659"/>
<polygon fill="darkgray" stroke="darkgray" points="639.477,-662.5 649.477,-659 639.477,-655.5 639.477,-662.5"/>
</g>
<!-- Duelling&#45;DQN&#45;&gt;RAINBOW -->
<g id="edge16" class="edge"><title>Duelling&#45;DQN&#45;&gt;RAINBOW</title>
<path fill="none" stroke="darkgray" stroke-dasharray="5,2" d="M849.212,-783.251C858.219,-783.715 867.721,-784.205 876.78,-784.671"/>
<polygon fill="darkgray" stroke="darkgray" points="876.603,-788.166 886.77,-785.186 876.963,-781.176 876.603,-788.166"/>
</g>
<!-- Value Gradient2016 -->
<g id="node21" class="node"><title>Value Gradient2016</title>
<text text-anchor="middle" x="804.5" y="-656.5" font-family="arial" font-size="10.00" fill="darkgray">2016</text>
</g>
<!-- Value Gradient2015&#45;&gt;Value Gradient2016 -->
<g id="edge21" class="edge"><title>Value Gradient2015&#45;&gt;Value Gradient2016</title>
<path fill="none" stroke="darkgray" d="M703.607,-659C722.022,-659 746.93,-659 767.267,-659"/>
<polygon fill="darkgray" stroke="darkgray" points="767.426,-662.5 777.426,-659 767.426,-655.5 767.426,-662.5"/>
</g>
<!-- Value Gradient2017 -->
<g id="node22" class="node"><title>Value Gradient2017</title>
<text text-anchor="middle" x="923" y="-656.5" font-family="arial" font-size="10.00" fill="darkgray">2017</text>
</g>
<!-- Value Gradient2016&#45;&gt;Value Gradient2017 -->
<g id="edge22" class="edge"><title>Value Gradient2016&#45;&gt;Value Gradient2017</title>
<path fill="none" stroke="darkgray" d="M831.645,-659C847.534,-659 868.057,-659 885.528,-659"/>
<polygon fill="darkgray" stroke="darkgray" points="885.942,-662.5 895.942,-659 885.942,-655.5 885.942,-662.5"/>
</g>
<!-- A3C -->
<g id="node23" class="node"><title>A3C</title>
<path fill="none" stroke="black" d="M661.5,-370C661.5,-370 691.5,-370 691.5,-370 697.5,-370 703.5,-376 703.5,-382 703.5,-382 703.5,-394 703.5,-394 703.5,-400 697.5,-406 691.5,-406 691.5,-406 661.5,-406 661.5,-406 655.5,-406 649.5,-400 649.5,-394 649.5,-394 649.5,-382 649.5,-382 649.5,-376 655.5,-370 661.5,-370"/>
<text text-anchor="middle" x="676.5" y="-384.9" font-family="arial" font-size="12.00">A3C</text>
</g>
<!-- A3C&#45;&gt;ACER -->
<g id="edge42" class="edge"><title>A3C&#45;&gt;ACER</title>
<path fill="none" stroke="black" d="M703.607,-399.603C722.275,-407.9 747.617,-419.163 768.104,-428.268"/>
<polygon fill="black" stroke="black" points="766.867,-431.549 777.426,-432.412 769.71,-425.152 766.867,-431.549"/>
</g>
<!-- A3C&#45;&gt;RAINBOW -->
<g id="edge23" class="edge"><title>A3C&#45;&gt;RAINBOW</title>
<path fill="none" stroke="darkgray" stroke-dasharray="5,2" d="M703.566,-405.384C710.85,-411.426 718.103,-418.776 723,-427 763.002,-494.186 708.806,-539.896 760,-599 787.621,-630.888 819.629,-601.716 849,-632 884.911,-669.027 861.289,-696.724 886,-742 889.478,-748.372 893.877,-754.748 898.395,-760.612"/>
<polygon fill="darkgray" stroke="darkgray" points="895.994,-763.209 905.006,-768.779 901.434,-758.805 895.994,-763.209"/>
</g>
<!-- A2C -->
<g id="node40" class="node"><title>A2C</title>
<path fill="none" stroke="black" d="M789.5,-353C789.5,-353 819.5,-353 819.5,-353 825.5,-353 831.5,-359 831.5,-365 831.5,-365 831.5,-377 831.5,-377 831.5,-383 825.5,-389 819.5,-389 819.5,-389 789.5,-389 789.5,-389 783.5,-389 777.5,-383 777.5,-377 777.5,-377 777.5,-365 777.5,-365 777.5,-359 783.5,-353 789.5,-353"/>
<text text-anchor="middle" x="804.5" y="-367.9" font-family="arial" font-size="12.00">A2C</text>
</g>
<!-- A3C&#45;&gt;A2C -->
<g id="edge41" class="edge"><title>A3C&#45;&gt;A2C</title>
<path fill="none" stroke="black" d="M703.607,-384.478C722.022,-381.993 746.93,-378.632 767.267,-375.889"/>
<polygon fill="black" stroke="black" points="767.984,-379.324 777.426,-374.518 767.048,-372.387 767.984,-379.324"/>
</g>
<!-- pg&#45;&gt;A3C -->
<!-- REINFORCE -->
<g id="node25" class="node"><title>REINFORCE</title>
<path fill="none" stroke="black" d="M281,-332C281,-332 343,-332 343,-332 349,-332 355,-338 355,-344 355,-344 355,-356 355,-356 355,-362 349,-368 343,-368 343,-368 281,-368 281,-368 275,-368 269,-362 269,-356 269,-356 269,-344 269,-344 269,-338 275,-332 281,-332"/>
<text text-anchor="middle" x="312" y="-346.9" font-family="arial" font-size="12.00">REINFORCE</text>
</g>
<!-- pg&#45;&gt;REINFORCE -->
<!-- DPG -->
<g id="node26" class="node"><title>DPG</title>
<path fill="none" stroke="black" d="M406,-283C406,-283 436,-283 436,-283 442,-283 448,-289 448,-295 448,-295 448,-307 448,-307 448,-313 442,-319 436,-319 436,-319 406,-319 406,-319 400,-319 394,-313 394,-307 394,-307 394,-295 394,-295 394,-289 400,-283 406,-283"/>
<text text-anchor="middle" x="421" y="-297.9" font-family="arial" font-size="12.00">DPG</text>
</g>
<!-- pg&#45;&gt;DPG -->
<!-- TRPO -->
<g id="node27" class="node"><title>TRPO</title>
<path fill="none" stroke="black" d="M551,-408C551,-408 581,-408 581,-408 587,-408 593,-414 593,-420 593,-420 593,-432 593,-432 593,-438 587,-444 581,-444 581,-444 551,-444 551,-444 545,-444 539,-438 539,-432 539,-432 539,-420 539,-420 539,-414 545,-408 551,-408"/>
<text text-anchor="middle" x="566" y="-422.9" font-family="arial" font-size="12.00">TRPO</text>
</g>
<!-- pg&#45;&gt;TRPO -->
<!-- GAE -->
<g id="node28" class="node"><title>GAE</title>
<path fill="none" stroke="black" d="M551,-481C551,-481 581,-481 581,-481 587,-481 593,-487 593,-493 593,-493 593,-505 593,-505 593,-511 587,-517 581,-517 581,-517 551,-517 551,-517 545,-517 539,-511 539,-505 539,-505 539,-493 539,-493 539,-487 545,-481 551,-481"/>
<text text-anchor="middle" x="566" y="-495.9" font-family="arial" font-size="12.00">GAE</text>
</g>
<!-- pg&#45;&gt;GAE -->
<!-- ACKTR -->
<g id="node29" class="node"><title>ACKTR</title>
<path fill="none" stroke="black" d="M788,-91C788,-91 821,-91 821,-91 827,-91 833,-97 833,-103 833,-103 833,-115 833,-115 833,-121 827,-127 821,-127 821,-127 788,-127 788,-127 782,-127 776,-121 776,-115 776,-115 776,-103 776,-103 776,-97 782,-91 788,-91"/>
<text text-anchor="middle" x="804.5" y="-105.9" font-family="arial" font-size="12.00">ACKTR</text>
</g>
<!-- pg&#45;&gt;ACKTR -->
<!-- SVPG -->
<g id="node30" class="node"><title>SVPG</title>
<path fill="none" stroke="black" d="M789.5,-146C789.5,-146 819.5,-146 819.5,-146 825.5,-146 831.5,-152 831.5,-158 831.5,-158 831.5,-170 831.5,-170 831.5,-176 825.5,-182 819.5,-182 819.5,-182 789.5,-182 789.5,-182 783.5,-182 777.5,-176 777.5,-170 777.5,-170 777.5,-158 777.5,-158 777.5,-152 783.5,-146 789.5,-146"/>
<text text-anchor="middle" x="804.5" y="-160.9" font-family="arial" font-size="12.00">SVPG</text>
</g>
<!-- pg&#45;&gt;SVPG -->
<!-- SAC -->
<g id="node31" class="node"><title>SAC</title>
<path fill="none" stroke="black" d="M908,-345C908,-345 938,-345 938,-345 944,-345 950,-351 950,-357 950,-357 950,-369 950,-369 950,-375 944,-381 938,-381 938,-381 908,-381 908,-381 902,-381 896,-375 896,-369 896,-369 896,-357 896,-357 896,-351 902,-345 908,-345"/>
<text text-anchor="middle" x="923" y="-359.9" font-family="arial" font-size="12.00">SAC</text>
</g>
<!-- pg&#45;&gt;SAC -->
<!-- IMPALA -->
<g id="node32" class="node"><title>IMPALA</title>
<path fill="none" stroke="black" d="M905,-423C905,-423 941,-423 941,-423 947,-423 953,-429 953,-435 953,-435 953,-447 953,-447 953,-453 947,-459 941,-459 941,-459 905,-459 905,-459 899,-459 893,-453 893,-447 893,-447 893,-435 893,-435 893,-429 899,-423 905,-423"/>
<text text-anchor="middle" x="923" y="-437.9" font-family="arial" font-size="12.00">IMPALA</text>
</g>
<!-- pg&#45;&gt;IMPALA -->
<!-- DPG&#45;&gt;DDPG -->
<g id="edge33" class="edge"><title>DPG&#45;&gt;DDPG</title>
<path fill="none" stroke="black" d="M448.228,-299.9C470.805,-298.952 503.612,-297.576 528.707,-296.523"/>
<polygon fill="black" stroke="black" points="529.093,-300.01 538.938,-296.094 528.8,-293.016 529.093,-300.01"/>
</g>
<!-- TRPO&#45;&gt;ACER -->
<g id="edge39" class="edge"><title>TRPO&#45;&gt;ACER</title>
<path fill="none" stroke="darkgray" stroke-dasharray="5,2" d="M593.213,-427.995C635.566,-431.219 719.141,-437.579 767.195,-441.237"/>
<polygon fill="darkgray" stroke="darkgray" points="766.933,-444.727 777.169,-441.996 767.464,-437.747 766.933,-444.727"/>
<text text-anchor="middle" x="676.5" y="-441" font-family="arial" font-size="10.00" fill="darkgray">TRPO technique</text>
</g>
<!-- TRPO&#45;&gt;GAE -->
<g id="edge38" class="edge"><title>TRPO&#45;&gt;GAE</title>
<path fill="none" stroke="darkgray" stroke-dasharray="5,2" d="M566,-444.25C566,-452.961 566,-461.671 566,-470.382"/>
<polygon fill="darkgray" stroke="darkgray" points="562.5,-470.607 566,-480.607 569.5,-470.607 562.5,-470.607"/>
</g>
<!-- PPO -->
<g id="node38" class="node"><title>PPO</title>
<path fill="none" stroke="black" d="M789.5,-481C789.5,-481 819.5,-481 819.5,-481 825.5,-481 831.5,-487 831.5,-493 831.5,-493 831.5,-505 831.5,-505 831.5,-511 825.5,-517 819.5,-517 819.5,-517 789.5,-517 789.5,-517 783.5,-517 777.5,-511 777.5,-505 777.5,-505 777.5,-493 777.5,-493 777.5,-487 783.5,-481 789.5,-481"/>
<text text-anchor="middle" x="804.5" y="-495.9" font-family="arial" font-size="12.00">PPO</text>
</g>
<!-- TRPO&#45;&gt;PPO -->
<g id="edge40" class="edge"><title>TRPO&#45;&gt;PPO</title>
<path fill="none" stroke="darkgray" stroke-dasharray="5,2" d="M593.026,-438.166C604.253,-443.148 617.625,-448.733 630,-453 676.655,-469.086 731.984,-482.874 767.4,-491.051"/>
<polygon fill="darkgray" stroke="darkgray" points="766.751,-494.492 777.279,-493.305 768.308,-487.668 766.751,-494.492"/>
</g>
<!-- Policy Gradient/Actor&#45;Critic1992 -->
<g id="node33" class="node"><title>Policy Gradient/Actor&#45;Critic1992</title>
<text text-anchor="middle" x="312" y="-31.5" font-family="arial" font-size="10.00" fill="darkgray">1992</text>
</g>
<!-- Policy Gradient/Actor&#45;Critic2014 -->
<g id="node34" class="node"><title>Policy Gradient/Actor&#45;Critic2014</title>
<text text-anchor="middle" x="421" y="-31.5" font-family="arial" font-size="10.00" fill="darkgray">2014</text>
</g>
<!-- Policy Gradient/Actor&#45;Critic1992&#45;&gt;Policy Gradient/Actor&#45;Critic2014 -->
<g id="edge48" class="edge"><title>Policy Gradient/Actor&#45;Critic1992&#45;&gt;Policy Gradient/Actor&#45;Critic2014</title>
<path fill="none" stroke="darkgray" d="M339.175,-34C352.518,-34 368.96,-34 383.523,-34"/>
<polygon fill="darkgray" stroke="darkgray" points="383.724,-37.5001 393.724,-34 383.724,-30.5001 383.724,-37.5001"/>
</g>
<!-- Policy Gradient/Actor&#45;Critic2015 -->
<g id="node39" class="node"><title>Policy Gradient/Actor&#45;Critic2015</title>
<text text-anchor="middle" x="566" y="-31.5" font-family="arial" font-size="10.00" fill="darkgray">2015</text>
</g>
<!-- Policy Gradient/Actor&#45;Critic2014&#45;&gt;Policy Gradient/Actor&#45;Critic2015 -->
<g id="edge49" class="edge"><title>Policy Gradient/Actor&#45;Critic2014&#45;&gt;Policy Gradient/Actor&#45;Critic2015</title>
<path fill="none" stroke="darkgray" d="M448.228,-34C470.805,-34 503.612,-34 528.707,-34"/>
<polygon fill="darkgray" stroke="darkgray" points="528.938,-37.5001 538.938,-34 528.938,-30.5001 528.938,-37.5001"/>
</g>
<!-- PPO&#45;&gt;SAC -->
<!-- Policy Gradient/Actor&#45;Critic2016 -->
<g id="node41" class="node"><title>Policy Gradient/Actor&#45;Critic2016</title>
<text text-anchor="middle" x="676.5" y="-31.5" font-family="arial" font-size="10.00" fill="darkgray">2016</text>
</g>
<!-- Policy Gradient/Actor&#45;Critic2015&#45;&gt;Policy Gradient/Actor&#45;Critic2016 -->
<g id="edge50" class="edge"><title>Policy Gradient/Actor&#45;Critic2015&#45;&gt;Policy Gradient/Actor&#45;Critic2016</title>
<path fill="none" stroke="darkgray" d="M593.265,-34C607.125,-34 624.342,-34 639.435,-34"/>
<polygon fill="darkgray" stroke="darkgray" points="639.477,-37.5001 649.477,-34 639.477,-30.5001 639.477,-37.5001"/>
</g>
<!-- A2C&#45;&gt;ACER -->
<!-- A2C&#45;&gt;ACKTR -->
<!-- A2C&#45;&gt;SVPG -->
<!-- A2C&#45;&gt;IMPALA -->
<!-- Policy Gradient/Actor&#45;Critic2017 -->
<g id="node42" class="node"><title>Policy Gradient/Actor&#45;Critic2017</title>
<text text-anchor="middle" x="804.5" y="-31.5" font-family="arial" font-size="10.00" fill="darkgray">2017</text>
</g>
<!-- Policy Gradient/Actor&#45;Critic2016&#45;&gt;Policy Gradient/Actor&#45;Critic2017 -->
<g id="edge51" class="edge"><title>Policy Gradient/Actor&#45;Critic2016&#45;&gt;Policy Gradient/Actor&#45;Critic2017</title>
<path fill="none" stroke="darkgray" d="M703.607,-34C722.022,-34 746.93,-34 767.267,-34"/>
<polygon fill="darkgray" stroke="darkgray" points="767.426,-37.5001 777.426,-34 767.426,-30.5001 767.426,-37.5001"/>
</g>
<!-- Policy Gradient/Actor&#45;Critic2018 -->
<g id="node43" class="node"><title>Policy Gradient/Actor&#45;Critic2018</title>
<text text-anchor="middle" x="923" y="-31.5" font-family="arial" font-size="10.00" fill="darkgray">2018</text>
</g>
<!-- Policy Gradient/Actor&#45;Critic2017&#45;&gt;Policy Gradient/Actor&#45;Critic2018 -->
<g id="edge52" class="edge"><title>Policy Gradient/Actor&#45;Critic2017&#45;&gt;Policy Gradient/Actor&#45;Critic2018</title>
<path fill="none" stroke="darkgray" d="M831.645,-34C847.534,-34 868.057,-34 885.528,-34"/>
<polygon fill="darkgray" stroke="darkgray" points="885.942,-37.5001 895.942,-34 885.942,-30.5001 885.942,-37.5001"/>
</g>
</g>
</svg>
