<?xml version="1.0" encoding="UTF-8" standalone="no"?>
<!DOCTYPE svg PUBLIC "-//W3C//DTD SVG 1.1//EN"
 "http://www.w3.org/Graphics/SVG/1.1/DTD/svg11.dtd">
<!-- Generated by graphviz version 2.38.0 (20140413.2041)
 -->
<!-- Title: %3 Pages: 1 -->
<svg width="1390pt" height="923pt"
 viewBox="0.00 0.00 1390.00 923.00" xmlns="http://www.w3.org/2000/svg" xmlns:xlink="http://www.w3.org/1999/xlink">
<g id="graph0" class="graph" transform="scale(1 1) rotate(0) translate(4 919)">
<title>%3</title>
<polygon fill="white" stroke="none" points="-4,4 -4,-919 1386,-919 1386,4 -4,4"/>
<g id="clust1" class="cluster"><title>clusterValue Gradient</title>
<polygon fill="none" stroke="black" stroke-dasharray="5,2" points="198,-598 198,-883 1261.5,-883 1261.5,-598 198,-598"/>
<text text-anchor="middle" x="729.75" y="-866.2" font-family="arial" font-size="16.00">Value Gradient</text>
</g>
<g id="clust9" class="cluster"><title>clusterPolicy Gradient/Actor&#45;Critic</title>
<polygon fill="none" stroke="black" stroke-dasharray="5,2" points="345,-8 345,-590 1374,-590 1374,-8 345,-8"/>
<text text-anchor="middle" x="859.5" y="-573.2" font-family="arial" font-size="16.00">Policy Gradient/Actor&#45;Critic</text>
</g>
<!-- Reinforcement Learning -->
<g id="node1" class="node"><title>Reinforcement Learning</title>
<path fill="none" stroke="black" d="M12,-467C12,-467 157,-467 157,-467 163,-467 169,-473 169,-479 169,-479 169,-491 169,-491 169,-497 163,-503 157,-503 157,-503 12,-503 12,-503 6,-503 0,-497 0,-491 0,-491 0,-479 0,-479 0,-473 6,-467 12,-467"/>
<text text-anchor="middle" x="84.5" y="-481.3" font-family="arial" font-size="14.00">Reinforcement Learning</text>
</g>
<!-- Value Gradient -->
<g id="node13" class="node"><title>Value Gradient</title>
<path fill="none" stroke="black" d="M218,-607C218,-607 304,-607 304,-607 310,-607 316,-613 316,-619 316,-619 316,-631 316,-631 316,-637 310,-643 304,-643 304,-643 218,-643 218,-643 212,-643 206,-637 206,-631 206,-631 206,-619 206,-619 206,-613 212,-607 218,-607"/>
<text text-anchor="middle" x="261" y="-621.3" font-family="arial" font-size="14.00">Value Gradient</text>
</g>
<!-- Reinforcement Learning&#45;&gt;Value Gradient -->
<g id="edge52" class="edge"><title>Reinforcement Learning&#45;&gt;Value Gradient</title>
<path fill="none" stroke="black" d="M107.956,-503.016C135.923,-525.454 184.238,-564.217 218.904,-592.029"/>
<polygon fill="black" stroke="black" points="216.97,-594.965 226.96,-598.492 221.35,-589.505 216.97,-594.965"/>
</g>
<!-- Policy Gradient -->
<g id="node29" class="node"><title>Policy Gradient</title>
<path fill="none" stroke="black" d="M365,-264C365,-264 454,-264 454,-264 460,-264 466,-270 466,-276 466,-276 466,-288 466,-288 466,-294 460,-300 454,-300 454,-300 365,-300 365,-300 359,-300 353,-294 353,-288 353,-288 353,-276 353,-276 353,-270 359,-264 365,-264"/>
<text text-anchor="middle" x="409.5" y="-278.3" font-family="arial" font-size="14.00">Policy Gradient</text>
</g>
<!-- Reinforcement Learning&#45;&gt;Policy Gradient -->
<g id="edge53" class="edge"><title>Reinforcement Learning&#45;&gt;Policy Gradient</title>
<path fill="none" stroke="black" d="M114.164,-466.985C163.601,-435.915 266.319,-371.359 336.341,-327.35"/>
<polygon fill="black" stroke="black" points="338.535,-330.105 345.14,-321.821 334.811,-324.179 338.535,-330.105"/>
</g>
<!-- DQN -->
<g id="node2" class="node"><title>DQN</title>
<path fill="none" stroke="black" d="M654,-645C654,-645 684,-645 684,-645 690,-645 696,-651 696,-657 696,-657 696,-669 696,-669 696,-675 690,-681 684,-681 684,-681 654,-681 654,-681 648,-681 642,-675 642,-669 642,-669 642,-657 642,-657 642,-651 648,-645 654,-645"/>
<text text-anchor="middle" x="669" y="-659.3" font-family="arial" font-size="14.00">DQN</text>
</g>
<!-- DDPG -->
<g id="node3" class="node"><title>DDPG</title>
<path fill="none" stroke="black" d="M792,-507C792,-507 827,-507 827,-507 833,-507 839,-513 839,-519 839,-519 839,-531 839,-531 839,-537 833,-543 827,-543 827,-543 792,-543 792,-543 786,-543 780,-537 780,-531 780,-531 780,-519 780,-519 780,-513 786,-507 792,-507"/>
<text text-anchor="middle" x="809.5" y="-521.3" font-family="arial" font-size="14.00">DDPG</text>
</g>
<!-- DQN&#45;&gt;DDPG -->
<g id="edge1" class="edge"><title>DQN&#45;&gt;DDPG</title>
<path fill="none" stroke="darkgray" stroke-dasharray="5,2" d="M688.106,-644.959C712.369,-620.784 755.555,-577.754 783.072,-550.336"/>
<polygon fill="darkgray" stroke="darkgray" points="785.776,-552.583 790.389,-543.046 780.835,-547.624 785.776,-552.583"/>
<text text-anchor="middle" x="738" y="-621.6" font-family="arial" font-size="8.00">replay buffer</text>
</g>
<!-- ACER -->
<g id="node4" class="node"><title>ACER</title>
<path fill="none" stroke="black" d="M1194,-218C1194,-218 1227,-218 1227,-218 1233,-218 1239,-224 1239,-230 1239,-230 1239,-242 1239,-242 1239,-248 1233,-254 1227,-254 1227,-254 1194,-254 1194,-254 1188,-254 1182,-248 1182,-242 1182,-242 1182,-230 1182,-230 1182,-224 1188,-218 1194,-218"/>
<text text-anchor="middle" x="1210.5" y="-232.3" font-family="arial" font-size="14.00">ACER</text>
</g>
<!-- DQN&#45;&gt;ACER -->
<g id="edge2" class="edge"><title>DQN&#45;&gt;ACER</title>
<path fill="none" stroke="darkgray" stroke-dasharray="5,2" d="M677.738,-644.811C683.376,-631.048 690.89,-611.578 696,-594 747.077,-418.313 644.716,-314.178 780,-191 890.896,-90.0268 1090.73,-174.333 1172.8,-216.015"/>
<polygon fill="darkgray" stroke="darkgray" points="1171.26,-219.159 1181.75,-220.631 1174.47,-212.937 1171.26,-219.159"/>
<text text-anchor="middle" x="898.5" y="-153.6" font-family="arial" font-size="8.00">replay buffer, workers</text>
</g>
<!-- DDQN -->
<g id="node5" class="node"><title>DDQN</title>
<path fill="none" stroke="black" d="M792,-738C792,-738 827,-738 827,-738 833,-738 839,-744 839,-750 839,-750 839,-762 839,-762 839,-768 833,-774 827,-774 827,-774 792,-774 792,-774 786,-774 780,-768 780,-762 780,-762 780,-750 780,-750 780,-744 786,-738 792,-738"/>
<text text-anchor="middle" x="809.5" y="-752.3" font-family="arial" font-size="14.00">DDQN</text>
</g>
<!-- DQN&#45;&gt;DDQN -->
<g id="edge13" class="edge"><title>DQN&#45;&gt;DDQN</title>
<path fill="none" stroke="black" d="M696.051,-680.493C717.825,-695.113 749.086,-716.105 773.123,-732.245"/>
<polygon fill="black" stroke="black" points="771.368,-735.283 781.621,-737.951 775.27,-729.471 771.368,-735.283"/>
</g>
<!-- DRQN -->
<g id="node16" class="node"><title>DRQN</title>
<path fill="none" stroke="black" d="M792,-607C792,-607 827,-607 827,-607 833,-607 839,-613 839,-619 839,-619 839,-631 839,-631 839,-637 833,-643 827,-643 827,-643 792,-643 792,-643 786,-643 780,-637 780,-631 780,-631 780,-619 780,-619 780,-613 786,-607 792,-607"/>
<text text-anchor="middle" x="809.5" y="-621.3" font-family="arial" font-size="14.00">DRQN</text>
</g>
<!-- DQN&#45;&gt;DRQN -->
<g id="edge12" class="edge"><title>DQN&#45;&gt;DRQN</title>
<path fill="none" stroke="black" d="M696.051,-655.852C716.894,-650.134 746.432,-642.03 770.003,-635.562"/>
<polygon fill="black" stroke="black" points="770.98,-638.924 779.698,-632.902 769.128,-632.173 770.98,-638.924"/>
</g>
<!-- PER -->
<g id="node17" class="node"><title>PER</title>
<path fill="none" stroke="black" d="M794.5,-683C794.5,-683 824.5,-683 824.5,-683 830.5,-683 836.5,-689 836.5,-695 836.5,-695 836.5,-707 836.5,-707 836.5,-713 830.5,-719 824.5,-719 824.5,-719 794.5,-719 794.5,-719 788.5,-719 782.5,-713 782.5,-707 782.5,-707 782.5,-695 782.5,-695 782.5,-689 788.5,-683 794.5,-683"/>
<text text-anchor="middle" x="809.5" y="-697.3" font-family="arial" font-size="14.00">PER</text>
</g>
<!-- DQN&#45;&gt;PER -->
<g id="edge14" class="edge"><title>DQN&#45;&gt;PER</title>
<path fill="none" stroke="black" d="M696.051,-670.148C717.58,-676.054 748.384,-684.506 772.31,-691.071"/>
<polygon fill="black" stroke="black" points="771.525,-694.485 782.095,-693.755 773.378,-687.734 771.525,-694.485"/>
</g>
<!-- QR&#45;DQN -->
<g id="node18" class="node"><title>QR&#45;DQN</title>
<path fill="none" stroke="black" d="M1185.5,-627C1185.5,-627 1235.5,-627 1235.5,-627 1241.5,-627 1247.5,-633 1247.5,-639 1247.5,-639 1247.5,-651 1247.5,-651 1247.5,-657 1241.5,-663 1235.5,-663 1235.5,-663 1185.5,-663 1185.5,-663 1179.5,-663 1173.5,-657 1173.5,-651 1173.5,-651 1173.5,-639 1173.5,-639 1173.5,-633 1179.5,-627 1185.5,-627"/>
<text text-anchor="middle" x="1210.5" y="-641.3" font-family="arial" font-size="14.00">QR&#45;DQN</text>
</g>
<!-- DQN&#45;&gt;QR&#45;DQN -->
<g id="edge15" class="edge"><title>DQN&#45;&gt;QR&#45;DQN</title>
<path fill="none" stroke="black" d="M696.021,-662.132C781.356,-659.285 1053.5,-650.205 1163.11,-646.548"/>
<polygon fill="black" stroke="black" points="1163.32,-650.043 1173.2,-646.211 1163.08,-643.047 1163.32,-650.043"/>
</g>
<!-- DQN+HER -->
<g id="node19" class="node"><title>DQN+HER</title>
<path fill="none" stroke="black" d="M1179.5,-758C1179.5,-758 1241.5,-758 1241.5,-758 1247.5,-758 1253.5,-764 1253.5,-770 1253.5,-770 1253.5,-782 1253.5,-782 1253.5,-788 1247.5,-794 1241.5,-794 1241.5,-794 1179.5,-794 1179.5,-794 1173.5,-794 1167.5,-788 1167.5,-782 1167.5,-782 1167.5,-770 1167.5,-770 1167.5,-764 1173.5,-758 1179.5,-758"/>
<text text-anchor="middle" x="1210.5" y="-772.3" font-family="arial" font-size="14.00">DQN+HER</text>
</g>
<!-- DQN&#45;&gt;DQN+HER -->
<g id="edge16" class="edge"><title>DQN&#45;&gt;DQN+HER</title>
<path fill="none" stroke="black" d="M679.845,-681.378C696.236,-709.753 732.111,-763.133 780,-784 846.198,-812.846 1058,-793.474 1157.25,-782.326"/>
<polygon fill="black" stroke="black" points="1157.82,-785.785 1167.36,-781.176 1157.02,-778.83 1157.82,-785.785"/>
</g>
<!-- TD3 -->
<g id="node6" class="node"><title>TD3</title>
<path fill="none" stroke="black" d="M1316,-519C1316,-519 1346,-519 1346,-519 1352,-519 1358,-525 1358,-531 1358,-531 1358,-543 1358,-543 1358,-549 1352,-555 1346,-555 1346,-555 1316,-555 1316,-555 1310,-555 1304,-549 1304,-543 1304,-543 1304,-531 1304,-531 1304,-525 1310,-519 1316,-519"/>
<text text-anchor="middle" x="1331" y="-533.3" font-family="arial" font-size="14.00">TD3</text>
</g>
<!-- DDPG&#45;&gt;TD3 -->
<g id="edge41" class="edge"><title>DDPG&#45;&gt;TD3</title>
<path fill="none" stroke="black" d="M839.182,-535.788C845,-537.538 851.134,-539.077 857,-540 1041.84,-569.075 1090.97,-545.391 1278,-540 1283.12,-539.852 1288.53,-539.623 1293.83,-539.356"/>
<polygon fill="black" stroke="black" points="1294.03,-542.85 1303.83,-538.805 1293.65,-535.86 1294.03,-542.85"/>
</g>
<!-- DDPG+HER -->
<g id="node38" class="node"><title>DDPG+HER</title>
<path fill="none" stroke="black" d="M1174,-424C1174,-424 1247,-424 1247,-424 1253,-424 1259,-430 1259,-436 1259,-436 1259,-448 1259,-448 1259,-454 1253,-460 1247,-460 1247,-460 1174,-460 1174,-460 1168,-460 1162,-454 1162,-448 1162,-448 1162,-436 1162,-436 1162,-430 1168,-424 1174,-424"/>
<text text-anchor="middle" x="1210.5" y="-438.3" font-family="arial" font-size="14.00">DDPG+HER</text>
</g>
<!-- DDPG&#45;&gt;DDPG+HER -->
<g id="edge38" class="edge"><title>DDPG&#45;&gt;DDPG+HER</title>
<path fill="none" stroke="darkgray" stroke-dasharray="5,2" d="M839.463,-517.269C845.258,-515.795 851.312,-514.306 857,-513 960.371,-489.269 1081.79,-465.766 1151.77,-452.64"/>
<polygon fill="darkgray" stroke="darkgray" points="1152.53,-456.059 1161.72,-450.779 1151.24,-449.178 1152.53,-456.059"/>
</g>
<!-- MADDPG -->
<g id="node39" class="node"><title>MADDPG</title>
<path fill="none" stroke="black" d="M1182.5,-479C1182.5,-479 1238.5,-479 1238.5,-479 1244.5,-479 1250.5,-485 1250.5,-491 1250.5,-491 1250.5,-503 1250.5,-503 1250.5,-509 1244.5,-515 1238.5,-515 1238.5,-515 1182.5,-515 1182.5,-515 1176.5,-515 1170.5,-509 1170.5,-503 1170.5,-503 1170.5,-491 1170.5,-491 1170.5,-485 1176.5,-479 1182.5,-479"/>
<text text-anchor="middle" x="1210.5" y="-493.3" font-family="arial" font-size="14.00">MADDPG</text>
</g>
<!-- DDPG&#45;&gt;MADDPG -->
<g id="edge39" class="edge"><title>DDPG&#45;&gt;MADDPG</title>
<path fill="none" stroke="black" d="M839.195,-522.986C906.693,-518.25 1076.16,-506.357 1160.39,-500.446"/>
<polygon fill="black" stroke="black" points="1160.74,-503.93 1170.47,-499.739 1160.25,-496.947 1160.74,-503.93"/>
</g>
<!-- D4PG -->
<g id="node40" class="node"><title>D4PG</title>
<path fill="none" stroke="black" d="M1315,-464C1315,-464 1347,-464 1347,-464 1353,-464 1359,-470 1359,-476 1359,-476 1359,-488 1359,-488 1359,-494 1353,-500 1347,-500 1347,-500 1315,-500 1315,-500 1309,-500 1303,-494 1303,-488 1303,-488 1303,-476 1303,-476 1303,-470 1309,-464 1315,-464"/>
<text text-anchor="middle" x="1331" y="-478.3" font-family="arial" font-size="14.00">D4PG</text>
</g>
<!-- DDPG&#45;&gt;D4PG -->
<g id="edge40" class="edge"><title>DDPG&#45;&gt;D4PG</title>
<path fill="none" stroke="black" d="M839.117,-526.946C925.364,-532.497 1181.74,-546.6 1261.5,-524 1274.74,-520.249 1287.94,-513.154 1299.18,-505.848"/>
<polygon fill="black" stroke="black" points="1301.45,-508.537 1307.73,-500.004 1297.49,-502.758 1301.45,-508.537"/>
</g>
<!-- DDQN&#45;&gt;TD3 -->
<g id="edge3" class="edge"><title>DDQN&#45;&gt;TD3</title>
<path fill="none" stroke="darkgray" stroke-dasharray="5,2" d="M828.502,-774.039C854.452,-798.626 905.098,-841.49 958,-858 1086.76,-898.185 1156.64,-942.846 1261.5,-858 1307.01,-821.179 1323.59,-636.707 1328.37,-565.295"/>
<polygon fill="darkgray" stroke="darkgray" points="1331.86,-565.43 1329.01,-555.226 1324.88,-564.982 1331.86,-565.43"/>
<text text-anchor="middle" x="1112" y="-908.6" font-family="arial" font-size="8.00">double Q&#45;learning</text>
</g>
<!-- Duelling&#45;DQN -->
<g id="node20" class="node"><title>Duelling&#45;DQN</title>
<path fill="none" stroke="black" d="M970,-738C970,-738 1050,-738 1050,-738 1056,-738 1062,-744 1062,-750 1062,-750 1062,-762 1062,-762 1062,-768 1056,-774 1050,-774 1050,-774 970,-774 970,-774 964,-774 958,-768 958,-762 958,-762 958,-750 958,-750 958,-744 964,-738 970,-738"/>
<text text-anchor="middle" x="1010" y="-752.3" font-family="arial" font-size="14.00">Duelling&#45;DQN</text>
</g>
<!-- DDQN&#45;&gt;Duelling&#45;DQN -->
<g id="edge17" class="edge"><title>DDQN&#45;&gt;Duelling&#45;DQN</title>
<path fill="none" stroke="black" d="M839.364,-756C867.549,-756 911.337,-756 947.365,-756"/>
<polygon fill="black" stroke="black" points="947.785,-759.5 957.785,-756 947.785,-752.5 947.785,-759.5"/>
</g>
<!-- RAINBOW -->
<g id="node21" class="node"><title>RAINBOW</title>
<path fill="none" stroke="black" d="M1179.5,-700C1179.5,-700 1241.5,-700 1241.5,-700 1247.5,-700 1253.5,-706 1253.5,-712 1253.5,-712 1253.5,-724 1253.5,-724 1253.5,-730 1247.5,-736 1241.5,-736 1241.5,-736 1179.5,-736 1179.5,-736 1173.5,-736 1167.5,-730 1167.5,-724 1167.5,-724 1167.5,-712 1167.5,-712 1167.5,-706 1173.5,-700 1179.5,-700"/>
<text text-anchor="middle" x="1210.5" y="-714.3" font-family="arial" font-size="14.00">RAINBOW</text>
</g>
<!-- DDQN&#45;&gt;RAINBOW -->
<g id="edge18" class="edge"><title>DDQN&#45;&gt;RAINBOW</title>
<path fill="none" stroke="darkgray" stroke-dasharray="5,2" d="M839.155,-749.547C868.749,-743.168 916.351,-733.7 958,-729 1026.46,-721.274 1105.97,-718.892 1156.97,-718.202"/>
<polygon fill="darkgray" stroke="darkgray" points="1157.13,-721.7 1167.09,-718.082 1157.05,-714.701 1157.13,-721.7"/>
</g>
<!-- Value Gradient1989 -->
<g id="node7" class="node"><title>Value Gradient1989</title>
<text text-anchor="middle" x="409.5" y="-827.3" font-family="arial" font-size="14.00" fill="darkgray">1989</text>
</g>
<!-- Value Gradient1994 -->
<g id="node8" class="node"><title>Value Gradient1994</title>
<text text-anchor="middle" x="554" y="-827.3" font-family="arial" font-size="14.00" fill="darkgray">1994</text>
</g>
<!-- Value Gradient1989&#45;&gt;Value Gradient1994 -->
<g id="edge4" class="edge"><title>Value Gradient1989&#45;&gt;Value Gradient1994</title>
<path fill="none" stroke="darkgray" d="M436.637,-831C458.994,-831 491.418,-831 516.364,-831"/>
<polygon fill="darkgray" stroke="darkgray" points="516.546,-834.5 526.546,-831 516.546,-827.5 516.546,-834.5"/>
</g>
<!-- Value Gradient2013 -->
<g id="node9" class="node"><title>Value Gradient2013</title>
<text text-anchor="middle" x="669" y="-827.3" font-family="arial" font-size="14.00" fill="darkgray">2013</text>
</g>
<!-- Value Gradient1994&#45;&gt;Value Gradient2013 -->
<g id="edge5" class="edge"><title>Value Gradient1994&#45;&gt;Value Gradient2013</title>
<path fill="none" stroke="darkgray" d="M581.208,-831C596.184,-831 615.19,-831 631.596,-831"/>
<polygon fill="darkgray" stroke="darkgray" points="631.934,-834.5 641.934,-831 631.934,-827.5 631.934,-834.5"/>
</g>
<!-- Value Gradient2015 -->
<g id="node10" class="node"><title>Value Gradient2015</title>
<text text-anchor="middle" x="809.5" y="-827.3" font-family="arial" font-size="14.00" fill="darkgray">2015</text>
</g>
<!-- Value Gradient2013&#45;&gt;Value Gradient2015 -->
<g id="edge6" class="edge"><title>Value Gradient2013&#45;&gt;Value Gradient2015</title>
<path fill="none" stroke="darkgray" d="M696.051,-831C717.484,-831 748.109,-831 771.989,-831"/>
<polygon fill="darkgray" stroke="darkgray" points="772.095,-834.5 782.095,-831 772.095,-827.5 772.095,-834.5"/>
</g>
<!-- Value Gradient2016 -->
<g id="node11" class="node"><title>Value Gradient2016</title>
<text text-anchor="middle" x="1010" y="-827.3" font-family="arial" font-size="14.00" fill="darkgray">2016</text>
</g>
<!-- Value Gradient2015&#45;&gt;Value Gradient2016 -->
<g id="edge7" class="edge"><title>Value Gradient2015&#45;&gt;Value Gradient2016</title>
<path fill="none" stroke="darkgray" d="M836.859,-831C871.733,-831 933.366,-831 972.646,-831"/>
<polygon fill="darkgray" stroke="darkgray" points="972.848,-834.5 982.848,-831 972.848,-827.5 972.848,-834.5"/>
</g>
<!-- Value Gradient2017 -->
<g id="node12" class="node"><title>Value Gradient2017</title>
<text text-anchor="middle" x="1210.5" y="-827.3" font-family="arial" font-size="14.00" fill="darkgray">2017</text>
</g>
<!-- Value Gradient2016&#45;&gt;Value Gradient2017 -->
<g id="edge8" class="edge"><title>Value Gradient2016&#45;&gt;Value Gradient2017</title>
<path fill="none" stroke="darkgray" d="M1037.36,-831C1072.23,-831 1133.87,-831 1173.15,-831"/>
<polygon fill="darkgray" stroke="darkgray" points="1173.35,-834.5 1183.35,-831 1173.35,-827.5 1173.35,-834.5"/>
</g>
<!-- SARSA -->
<g id="node14" class="node"><title>SARSA</title>
<path fill="none" stroke="black" d="M533,-607C533,-607 575,-607 575,-607 581,-607 587,-613 587,-619 587,-619 587,-631 587,-631 587,-637 581,-643 575,-643 575,-643 533,-643 533,-643 527,-643 521,-637 521,-631 521,-631 521,-619 521,-619 521,-613 527,-607 533,-607"/>
<text text-anchor="middle" x="554" y="-621.3" font-family="arial" font-size="14.00">SARSA</text>
</g>
<!-- Value Gradient&#45;&gt;SARSA -->
<g id="edge9" class="edge"><title>Value Gradient&#45;&gt;SARSA</title>
<path fill="none" stroke="black" d="M316.053,-625C372.333,-625 459.312,-625 510.757,-625"/>
<polygon fill="black" stroke="black" points="510.862,-628.5 520.862,-625 510.862,-621.5 510.862,-628.5"/>
</g>
<!-- Q&#45;learning -->
<g id="node15" class="node"><title>Q&#45;learning</title>
<path fill="none" stroke="black" d="M380.5,-645C380.5,-645 438.5,-645 438.5,-645 444.5,-645 450.5,-651 450.5,-657 450.5,-657 450.5,-669 450.5,-669 450.5,-675 444.5,-681 438.5,-681 438.5,-681 380.5,-681 380.5,-681 374.5,-681 368.5,-675 368.5,-669 368.5,-669 368.5,-657 368.5,-657 368.5,-651 374.5,-645 380.5,-645"/>
<text text-anchor="middle" x="409.5" y="-659.3" font-family="arial" font-size="14.00">Q&#45;learning</text>
</g>
<!-- Value Gradient&#45;&gt;Q&#45;learning -->
<g id="edge10" class="edge"><title>Value Gradient&#45;&gt;Q&#45;learning</title>
<path fill="none" stroke="black" d="M316.135,-639.042C330.04,-642.649 344.933,-646.512 358.612,-650.06"/>
<polygon fill="black" stroke="black" points="357.767,-653.456 368.326,-652.579 359.525,-646.681 357.767,-653.456"/>
</g>
<!-- Q&#45;learning&#45;&gt;DQN -->
<g id="edge11" class="edge"><title>Q&#45;learning&#45;&gt;DQN</title>
<path fill="none" stroke="black" d="M450.734,-663C500.311,-663 583.826,-663 631.581,-663"/>
<polygon fill="black" stroke="black" points="631.773,-666.5 641.773,-663 631.773,-659.5 631.773,-666.5"/>
</g>
<!-- PER&#45;&gt;RAINBOW -->
<g id="edge19" class="edge"><title>PER&#45;&gt;RAINBOW</title>
<path fill="none" stroke="darkgray" stroke-dasharray="5,2" d="M836.889,-701.589C893.291,-702.927 1029.75,-706.587 1144,-713 1148.23,-713.237 1152.61,-713.511 1157,-713.805"/>
<polygon fill="darkgray" stroke="darkgray" points="1157.01,-717.315 1167.24,-714.523 1157.5,-710.332 1157.01,-717.315"/>
</g>
<!-- QR&#45;DQN&#45;&gt;RAINBOW -->
<g id="edge21" class="edge"><title>QR&#45;DQN&#45;&gt;RAINBOW</title>
<path fill="none" stroke="darkgray" stroke-dasharray="5,2" d="M1210.5,-663.25C1210.5,-671.961 1210.5,-680.671 1210.5,-689.382"/>
<polygon fill="darkgray" stroke="darkgray" points="1207,-689.607 1210.5,-699.607 1214,-689.607 1207,-689.607"/>
</g>
<!-- Duelling&#45;DQN&#45;&gt;RAINBOW -->
<g id="edge20" class="edge"><title>Duelling&#45;DQN&#45;&gt;RAINBOW</title>
<path fill="none" stroke="darkgray" stroke-dasharray="5,2" d="M1062.12,-746.214C1091.3,-740.627 1127.81,-733.639 1157.19,-728.014"/>
<polygon fill="darkgray" stroke="darkgray" points="1158.1,-731.404 1167.26,-726.086 1156.78,-724.529 1158.1,-731.404"/>
</g>
<!-- A3C -->
<g id="node22" class="node"><title>A3C</title>
<path fill="none" stroke="black" d="M995,-181C995,-181 1025,-181 1025,-181 1031,-181 1037,-187 1037,-193 1037,-193 1037,-205 1037,-205 1037,-211 1031,-217 1025,-217 1025,-217 995,-217 995,-217 989,-217 983,-211 983,-205 983,-205 983,-193 983,-193 983,-187 989,-181 995,-181"/>
<text text-anchor="middle" x="1010" y="-195.3" font-family="arial" font-size="14.00">A3C</text>
</g>
<!-- A3C&#45;&gt;ACER -->
<g id="edge46" class="edge"><title>A3C&#45;&gt;ACER</title>
<path fill="none" stroke="black" d="M1037.36,-203.913C1071.82,-210.337 1132.42,-221.633 1171.75,-228.964"/>
<polygon fill="black" stroke="black" points="1171.28,-232.436 1181.75,-230.828 1172.56,-225.555 1171.28,-232.436"/>
</g>
<!-- A3C&#45;&gt;RAINBOW -->
<g id="edge22" class="edge"><title>A3C&#45;&gt;RAINBOW</title>
<path fill="none" stroke="darkgray" stroke-dasharray="5,2" d="M1037.21,-210.73C1046.31,-216.014 1055.78,-223.095 1062,-232 1177.09,-396.76 1062.54,-498.36 1162,-673 1166.03,-680.079 1171.53,-686.724 1177.36,-692.622"/>
<polygon fill="darkgray" stroke="darkgray" points="1175.16,-695.356 1184.84,-699.669 1179.96,-690.263 1175.16,-695.356"/>
</g>
<!-- A2C -->
<g id="node42" class="node"><title>A2C</title>
<path fill="none" stroke="black" d="M1195.5,-145C1195.5,-145 1225.5,-145 1225.5,-145 1231.5,-145 1237.5,-151 1237.5,-157 1237.5,-157 1237.5,-169 1237.5,-169 1237.5,-175 1231.5,-181 1225.5,-181 1225.5,-181 1195.5,-181 1195.5,-181 1189.5,-181 1183.5,-175 1183.5,-169 1183.5,-169 1183.5,-157 1183.5,-157 1183.5,-151 1189.5,-145 1195.5,-145"/>
<text text-anchor="middle" x="1210.5" y="-159.3" font-family="arial" font-size="14.00">A2C</text>
</g>
<!-- A3C&#45;&gt;A2C -->
<g id="edge45" class="edge"><title>A3C&#45;&gt;A2C</title>
<path fill="none" stroke="black" d="M1037.36,-194.219C1072.31,-187.881 1134.13,-176.669 1173.4,-169.548"/>
<polygon fill="black" stroke="black" points="1174.13,-172.971 1183.35,-167.743 1172.88,-166.084 1174.13,-172.971"/>
</g>
<!-- Policy Gradient/Actor&#45;Critic1992 -->
<g id="node23" class="node"><title>Policy Gradient/Actor&#45;Critic1992</title>
<text text-anchor="middle" x="554" y="-383.3" font-family="arial" font-size="14.00" fill="darkgray">1992</text>
</g>
<!-- Policy Gradient/Actor&#45;Critic2014 -->
<g id="node24" class="node"><title>Policy Gradient/Actor&#45;Critic2014</title>
<text text-anchor="middle" x="669" y="-383.3" font-family="arial" font-size="14.00" fill="darkgray">2014</text>
</g>
<!-- Policy Gradient/Actor&#45;Critic1992&#45;&gt;Policy Gradient/Actor&#45;Critic2014 -->
<g id="edge23" class="edge"><title>Policy Gradient/Actor&#45;Critic1992&#45;&gt;Policy Gradient/Actor&#45;Critic2014</title>
<path fill="none" stroke="darkgray" d="M581.208,-387C596.184,-387 615.19,-387 631.596,-387"/>
<polygon fill="darkgray" stroke="darkgray" points="631.934,-390.5 641.934,-387 631.934,-383.5 631.934,-390.5"/>
</g>
<!-- Policy Gradient/Actor&#45;Critic2015 -->
<g id="node25" class="node"><title>Policy Gradient/Actor&#45;Critic2015</title>
<text text-anchor="middle" x="809.5" y="-383.3" font-family="arial" font-size="14.00" fill="darkgray">2015</text>
</g>
<!-- Policy Gradient/Actor&#45;Critic2014&#45;&gt;Policy Gradient/Actor&#45;Critic2015 -->
<g id="edge24" class="edge"><title>Policy Gradient/Actor&#45;Critic2014&#45;&gt;Policy Gradient/Actor&#45;Critic2015</title>
<path fill="none" stroke="darkgray" d="M696.051,-387C717.484,-387 748.109,-387 771.989,-387"/>
<polygon fill="darkgray" stroke="darkgray" points="772.095,-390.5 782.095,-387 772.095,-383.5 772.095,-390.5"/>
</g>
<!-- Policy Gradient/Actor&#45;Critic2016 -->
<g id="node26" class="node"><title>Policy Gradient/Actor&#45;Critic2016</title>
<text text-anchor="middle" x="1010" y="-383.3" font-family="arial" font-size="14.00" fill="darkgray">2016</text>
</g>
<!-- Policy Gradient/Actor&#45;Critic2015&#45;&gt;Policy Gradient/Actor&#45;Critic2016 -->
<g id="edge25" class="edge"><title>Policy Gradient/Actor&#45;Critic2015&#45;&gt;Policy Gradient/Actor&#45;Critic2016</title>
<path fill="none" stroke="darkgray" d="M836.859,-387C871.733,-387 933.366,-387 972.646,-387"/>
<polygon fill="darkgray" stroke="darkgray" points="972.848,-390.5 982.848,-387 972.848,-383.5 972.848,-390.5"/>
</g>
<!-- Policy Gradient/Actor&#45;Critic2017 -->
<g id="node27" class="node"><title>Policy Gradient/Actor&#45;Critic2017</title>
<text text-anchor="middle" x="1210.5" y="-383.3" font-family="arial" font-size="14.00" fill="darkgray">2017</text>
</g>
<!-- Policy Gradient/Actor&#45;Critic2016&#45;&gt;Policy Gradient/Actor&#45;Critic2017 -->
<g id="edge26" class="edge"><title>Policy Gradient/Actor&#45;Critic2016&#45;&gt;Policy Gradient/Actor&#45;Critic2017</title>
<path fill="none" stroke="darkgray" d="M1037.36,-387C1072.23,-387 1133.87,-387 1173.15,-387"/>
<polygon fill="darkgray" stroke="darkgray" points="1173.35,-390.5 1183.35,-387 1173.35,-383.5 1173.35,-390.5"/>
</g>
<!-- Policy Gradient/Actor&#45;Critic2018 -->
<g id="node28" class="node"><title>Policy Gradient/Actor&#45;Critic2018</title>
<text text-anchor="middle" x="1331" y="-383.3" font-family="arial" font-size="14.00" fill="darkgray">2018</text>
</g>
<!-- Policy Gradient/Actor&#45;Critic2017&#45;&gt;Policy Gradient/Actor&#45;Critic2018 -->
<g id="edge27" class="edge"><title>Policy Gradient/Actor&#45;Critic2017&#45;&gt;Policy Gradient/Actor&#45;Critic2018</title>
<path fill="none" stroke="darkgray" d="M1237.51,-387C1253.91,-387 1275.34,-387 1293.44,-387"/>
<polygon fill="darkgray" stroke="darkgray" points="1293.65,-390.5 1303.65,-387 1293.65,-383.5 1293.65,-390.5"/>
</g>
<!-- Policy Gradient&#45;&gt;A3C -->
<g id="edge32" class="edge"><title>Policy Gradient&#45;&gt;A3C</title>
<path fill="none" stroke="black" d="M423.618,-263.943C446.397,-234.892 496.295,-181 553,-181 553,-181 553,-181 810.5,-181 867.359,-181 933.006,-188.416 972.734,-193.727"/>
<polygon fill="black" stroke="black" points="972.358,-197.208 982.739,-195.094 973.305,-190.273 972.358,-197.208"/>
</g>
<!-- REINFORCE -->
<g id="node30" class="node"><title>REINFORCE</title>
<path fill="none" stroke="black" d="M515,-216C515,-216 593,-216 593,-216 599,-216 605,-222 605,-228 605,-228 605,-240 605,-240 605,-246 599,-252 593,-252 593,-252 515,-252 515,-252 509,-252 503,-246 503,-240 503,-240 503,-228 503,-228 503,-222 509,-216 515,-216"/>
<text text-anchor="middle" x="554" y="-230.3" font-family="arial" font-size="14.00">REINFORCE</text>
</g>
<!-- Policy Gradient&#45;&gt;REINFORCE -->
<g id="edge28" class="edge"><title>Policy Gradient&#45;&gt;REINFORCE</title>
<path fill="none" stroke="black" d="M463.967,-263.99C473.444,-260.798 483.369,-257.454 493.012,-254.206"/>
<polygon fill="black" stroke="black" points="494.175,-257.508 502.534,-250.999 491.94,-250.874 494.175,-257.508"/>
</g>
<!-- DPG -->
<g id="node31" class="node"><title>DPG</title>
<path fill="none" stroke="black" d="M654,-424C654,-424 684,-424 684,-424 690,-424 696,-430 696,-436 696,-436 696,-448 696,-448 696,-454 690,-460 684,-460 684,-460 654,-460 654,-460 648,-460 642,-454 642,-448 642,-448 642,-436 642,-436 642,-430 648,-424 654,-424"/>
<text text-anchor="middle" x="669" y="-438.3" font-family="arial" font-size="14.00">DPG</text>
</g>
<!-- Policy Gradient&#45;&gt;DPG -->
<g id="edge29" class="edge"><title>Policy Gradient&#45;&gt;DPG</title>
<path fill="none" stroke="black" d="M417.801,-300.444C430.423,-329.719 459.244,-386.333 503,-414 541.948,-438.626 595.964,-443.486 631.431,-443.62"/>
<polygon fill="black" stroke="black" points="631.837,-447.116 641.805,-443.526 631.774,-440.116 631.837,-447.116"/>
</g>
<!-- TRPO -->
<g id="node32" class="node"><title>TRPO</title>
<path fill="none" stroke="black" d="M793,-201C793,-201 826,-201 826,-201 832,-201 838,-207 838,-213 838,-213 838,-225 838,-225 838,-231 832,-237 826,-237 826,-237 793,-237 793,-237 787,-237 781,-231 781,-225 781,-225 781,-213 781,-213 781,-207 787,-201 793,-201"/>
<text text-anchor="middle" x="809.5" y="-215.3" font-family="arial" font-size="14.00">TRPO</text>
</g>
<!-- Policy Gradient&#45;&gt;TRPO -->
<g id="edge30" class="edge"><title>Policy Gradient&#45;&gt;TRPO</title>
<path fill="none" stroke="black" d="M466.019,-277.433C505.027,-273.876 558.361,-268.313 605,-261 663.317,-251.855 730.226,-237.241 770.916,-227.886"/>
<polygon fill="black" stroke="black" points="771.722,-231.292 780.675,-225.627 770.143,-224.472 771.722,-231.292"/>
</g>
<!-- GAE -->
<g id="node33" class="node"><title>GAE</title>
<path fill="none" stroke="black" d="M794.5,-274C794.5,-274 824.5,-274 824.5,-274 830.5,-274 836.5,-280 836.5,-286 836.5,-286 836.5,-298 836.5,-298 836.5,-304 830.5,-310 824.5,-310 824.5,-310 794.5,-310 794.5,-310 788.5,-310 782.5,-304 782.5,-298 782.5,-298 782.5,-286 782.5,-286 782.5,-280 788.5,-274 794.5,-274"/>
<text text-anchor="middle" x="809.5" y="-288.3" font-family="arial" font-size="14.00">GAE</text>
</g>
<!-- Policy Gradient&#45;&gt;GAE -->
<g id="edge31" class="edge"><title>Policy Gradient&#45;&gt;GAE</title>
<path fill="none" stroke="black" d="M466.259,-283.401C549.08,-285.482 702.316,-289.332 772.136,-291.086"/>
<polygon fill="black" stroke="black" points="772.124,-294.587 782.209,-291.339 772.3,-287.589 772.124,-294.587"/>
</g>
<!-- ACKTR -->
<g id="node34" class="node"><title>ACKTR</title>
<path fill="none" stroke="black" d="M1189.5,-17C1189.5,-17 1231.5,-17 1231.5,-17 1237.5,-17 1243.5,-23 1243.5,-29 1243.5,-29 1243.5,-41 1243.5,-41 1243.5,-47 1237.5,-53 1231.5,-53 1231.5,-53 1189.5,-53 1189.5,-53 1183.5,-53 1177.5,-47 1177.5,-41 1177.5,-41 1177.5,-29 1177.5,-29 1177.5,-23 1183.5,-17 1189.5,-17"/>
<text text-anchor="middle" x="1210.5" y="-31.3" font-family="arial" font-size="14.00">ACKTR</text>
</g>
<!-- Policy Gradient&#45;&gt;ACKTR -->
<g id="edge33" class="edge"><title>Policy Gradient&#45;&gt;ACKTR</title>
<path fill="none" stroke="black" d="M418.382,-263.855C436.29,-225.774 483.915,-141 553,-141 553,-141 553,-141 1011,-141 1019.72,-141 1112.85,-89.4306 1168.39,-58.2309"/>
<polygon fill="black" stroke="black" points="1170.3,-61.1748 1177.3,-53.222 1166.86,-55.0735 1170.3,-61.1748"/>
</g>
<!-- SVPG -->
<g id="node35" class="node"><title>SVPG</title>
<path fill="none" stroke="black" d="M1194,-72C1194,-72 1227,-72 1227,-72 1233,-72 1239,-78 1239,-84 1239,-84 1239,-96 1239,-96 1239,-102 1233,-108 1227,-108 1227,-108 1194,-108 1194,-108 1188,-108 1182,-102 1182,-96 1182,-96 1182,-84 1182,-84 1182,-78 1188,-72 1194,-72"/>
<text text-anchor="middle" x="1210.5" y="-86.3" font-family="arial" font-size="14.00">SVPG</text>
</g>
<!-- Policy Gradient&#45;&gt;SVPG -->
<g id="edge34" class="edge"><title>Policy Gradient&#45;&gt;SVPG</title>
<path fill="none" stroke="black" d="M420.604,-263.885C440.922,-230.13 490.199,-161 553,-161 553,-161 553,-161 1011,-161 1070.49,-161 1089.44,-169.703 1144,-146 1152.74,-142.202 1169.01,-128.314 1183.14,-115.32"/>
<polygon fill="black" stroke="black" points="1185.78,-117.641 1190.71,-108.263 1181.01,-112.521 1185.78,-117.641"/>
</g>
<!-- SAC -->
<g id="node36" class="node"><title>SAC</title>
<path fill="none" stroke="black" d="M1316,-309C1316,-309 1346,-309 1346,-309 1352,-309 1358,-315 1358,-321 1358,-321 1358,-333 1358,-333 1358,-339 1352,-345 1346,-345 1346,-345 1316,-345 1316,-345 1310,-345 1304,-339 1304,-333 1304,-333 1304,-321 1304,-321 1304,-315 1310,-309 1316,-309"/>
<text text-anchor="middle" x="1331" y="-323.3" font-family="arial" font-size="14.00">SAC</text>
</g>
<!-- Policy Gradient&#45;&gt;SAC -->
<g id="edge35" class="edge"><title>Policy Gradient&#45;&gt;SAC</title>
<path fill="none" stroke="black" d="M432.636,-300.223C459.41,-320.365 506.674,-350 553,-350 553,-350 553,-350 1211.5,-350 1239.61,-350 1270.8,-343.684 1294.12,-337.672"/>
<polygon fill="black" stroke="black" points="1295.17,-341.015 1303.92,-335.044 1293.36,-334.253 1295.17,-341.015"/>
</g>
<!-- IMPALA -->
<g id="node37" class="node"><title>IMPALA</title>
<path fill="none" stroke="black" d="M1308,-227C1308,-227 1354,-227 1354,-227 1360,-227 1366,-233 1366,-239 1366,-239 1366,-251 1366,-251 1366,-257 1360,-263 1354,-263 1354,-263 1308,-263 1308,-263 1302,-263 1296,-257 1296,-251 1296,-251 1296,-239 1296,-239 1296,-233 1302,-227 1308,-227"/>
<text text-anchor="middle" x="1331" y="-241.3" font-family="arial" font-size="14.00">IMPALA</text>
</g>
<!-- Policy Gradient&#45;&gt;IMPALA -->
<g id="edge36" class="edge"><title>Policy Gradient&#45;&gt;IMPALA</title>
<path fill="none" stroke="black" d="M443.704,-300.01C471.93,-313.63 513.972,-330 553,-330 553,-330 553,-330 739,-330 834.043,-330 909.296,-332.333 1261.5,-263 1269.48,-261.43 1277.9,-259.47 1286.01,-257.426"/>
<polygon fill="black" stroke="black" points="1286.9,-260.813 1295.7,-254.913 1285.14,-254.037 1286.9,-260.813"/>
</g>
<!-- DPG&#45;&gt;DDPG -->
<g id="edge37" class="edge"><title>DPG&#45;&gt;DDPG</title>
<path fill="none" stroke="black" d="M696.051,-457.612C717.174,-470.27 747.224,-488.279 770.947,-502.495"/>
<polygon fill="black" stroke="black" points="769.321,-505.601 779.698,-507.739 772.919,-499.597 769.321,-505.601"/>
</g>
<!-- TRPO&#45;&gt;ACER -->
<g id="edge43" class="edge"><title>TRPO&#45;&gt;ACER</title>
<path fill="none" stroke="darkgray" stroke-dasharray="5,2" d="M838.226,-220.379C867.87,-221.839 916.252,-224.179 958,-226 1033.85,-229.308 1122.6,-232.732 1171.79,-234.591"/>
<polygon fill="darkgray" stroke="darkgray" points="1171.83,-238.095 1181.96,-234.974 1172.1,-231.1 1171.83,-238.095"/>
<text text-anchor="middle" x="1010" y="-233.6" font-family="arial" font-size="8.00">TRPO technique</text>
</g>
<!-- TRPO&#45;&gt;GAE -->
<g id="edge42" class="edge"><title>TRPO&#45;&gt;GAE</title>
<path fill="none" stroke="darkgray" stroke-dasharray="5,2" d="M809.5,-237.25C809.5,-245.961 809.5,-254.671 809.5,-263.382"/>
<polygon fill="darkgray" stroke="darkgray" points="806,-263.607 809.5,-273.607 813,-263.607 806,-263.607"/>
</g>
<!-- PPO -->
<g id="node41" class="node"><title>PPO</title>
<path fill="none" stroke="black" d="M1195.5,-294C1195.5,-294 1225.5,-294 1225.5,-294 1231.5,-294 1237.5,-300 1237.5,-306 1237.5,-306 1237.5,-318 1237.5,-318 1237.5,-324 1231.5,-330 1225.5,-330 1225.5,-330 1195.5,-330 1195.5,-330 1189.5,-330 1183.5,-324 1183.5,-318 1183.5,-318 1183.5,-306 1183.5,-306 1183.5,-300 1189.5,-294 1195.5,-294"/>
<text text-anchor="middle" x="1210.5" y="-308.3" font-family="arial" font-size="14.00">PPO</text>
</g>
<!-- TRPO&#45;&gt;PPO -->
<g id="edge44" class="edge"><title>TRPO&#45;&gt;PPO</title>
<path fill="none" stroke="darkgray" stroke-dasharray="5,2" d="M838.24,-225.466C908.684,-241.885 1094.46,-285.187 1173.3,-303.562"/>
<polygon fill="darkgray" stroke="darkgray" points="1172.72,-307.021 1183.25,-305.882 1174.31,-300.203 1172.72,-307.021"/>
</g>
<!-- PPO&#45;&gt;SAC -->
<!-- A2C&#45;&gt;ACER -->
<!-- A2C&#45;&gt;ACKTR -->
<!-- A2C&#45;&gt;SVPG -->
<!-- A2C&#45;&gt;IMPALA -->
</g>
</svg>
