<?xml version="1.0" encoding="UTF-8" standalone="no"?>
<!DOCTYPE svg PUBLIC "-//W3C//DTD SVG 1.1//EN"
 "http://www.w3.org/Graphics/SVG/1.1/DTD/svg11.dtd">
<!-- Generated by graphviz version 2.44.0 (20200408.0750)
 -->
<!-- Pages: 1 -->
<svg width="1907pt" height="1148pt"
 viewBox="0.00 0.00 1907.00 1148.00" xmlns="http://www.w3.org/2000/svg" xmlns:xlink="http://www.w3.org/1999/xlink">
<g id="graph0" class="graph" transform="scale(1 1) rotate(0) translate(4 1144)">
<polygon fill="white" stroke="transparent" points="-4,4 -4,-1144 1903,-1144 1903,4 -4,4"/>
<g id="clust2" class="cluster">
<title>clusterModel Free</title>
<polygon fill="#f7fdff" stroke="black" points="62,-8 62,-1077 1153,-1077 1153,-8 62,-8"/>
<text text-anchor="middle" x="607.5" y="-1060.2" font-family="sans-serif" font-size="16.00">Model Free</text>
</g>
<g id="clust3" class="cluster">
<title>clusterValue Gradient</title>
<path fill="#f1f7fe" stroke="black" stroke-dasharray="5,2" d="M758,-16C758,-16 1133,-16 1133,-16 1139,-16 1145,-22 1145,-28 1145,-28 1145,-968 1145,-968 1145,-974 1139,-980 1133,-980 1133,-980 758,-980 758,-980 752,-980 746,-974 746,-968 746,-968 746,-28 746,-28 746,-22 752,-16 758,-16"/>
<text text-anchor="middle" x="945.5" y="-963.2" font-family="sans-serif" font-size="16.00">Value Gradient</text>
</g>
<g id="clust4" class="cluster">
<title>clusterPolicy Gradient/Actor&#45;Critic</title>
<path fill="#f1f7fe" stroke="black" stroke-dasharray="5,2" d="M82,-162C82,-162 712,-162 712,-162 718,-162 724,-168 724,-174 724,-174 724,-968 724,-968 724,-974 718,-980 712,-980 712,-980 82,-980 82,-980 76,-980 70,-974 70,-968 70,-968 70,-174 70,-174 70,-168 76,-162 82,-162"/>
<text text-anchor="middle" x="397" y="-963.2" font-family="sans-serif" font-size="16.00">Policy Gradient/Actor&#45;Critic</text>
</g>
<g id="clust5" class="cluster">
<title>clusterModel Based</title>
<polygon fill="#f7fdff" stroke="black" points="1161,-89 1161,-1077 1701,-1077 1701,-89 1161,-89"/>
<text text-anchor="middle" x="1431" y="-1060.2" font-family="sans-serif" font-size="16.00">Model Based</text>
</g>
<g id="clust6" class="cluster">
<title>clusterMeta&#45;RL</title>
<polygon fill="#f7fdff" stroke="black" points="1709,-235 1709,-1077 1891,-1077 1891,-235 1709,-235"/>
<text text-anchor="middle" x="1800" y="-1060.2" font-family="sans-serif" font-size="16.00">Meta&#45;RL</text>
</g>
<!-- 1989 -->
<g id="node1" class="node">
<title>1989</title>
<text text-anchor="middle" x="27" y="-851.9" font-family="sans-serif" font-size="12.00" fill="darkblue">1989</text>
</g>
<!-- 1992 -->
<g id="node2" class="node">
<title>1992</title>
<text text-anchor="middle" x="27" y="-778.9" font-family="sans-serif" font-size="12.00" fill="darkblue">1992</text>
</g>
<!-- 1989&#45;&gt;1992 -->
<g id="edge1" class="edge">
<title>1989&#45;&gt;1992</title>
<path fill="none" stroke="darkblue" d="M27,-836.81C27,-828.79 27,-819.05 27,-810.07"/>
<polygon fill="darkblue" stroke="darkblue" points="30.5,-810.03 27,-800.03 23.5,-810.03 30.5,-810.03"/>
</g>
<!-- 1994 -->
<g id="node3" class="node">
<title>1994</title>
<text text-anchor="middle" x="27" y="-705.9" font-family="sans-serif" font-size="12.00" fill="darkblue">1994</text>
</g>
<!-- 1992&#45;&gt;1994 -->
<g id="edge2" class="edge">
<title>1992&#45;&gt;1994</title>
<path fill="none" stroke="darkblue" d="M27,-763.81C27,-755.79 27,-746.05 27,-737.07"/>
<polygon fill="darkblue" stroke="darkblue" points="30.5,-737.03 27,-727.03 23.5,-737.03 30.5,-737.03"/>
</g>
<!-- 2011 -->
<g id="node4" class="node">
<title>2011</title>
<text text-anchor="middle" x="27" y="-632.9" font-family="sans-serif" font-size="12.00" fill="darkblue">2011</text>
</g>
<!-- 1994&#45;&gt;2011 -->
<g id="edge3" class="edge">
<title>1994&#45;&gt;2011</title>
<path fill="none" stroke="darkblue" d="M27,-690.81C27,-682.79 27,-673.05 27,-664.07"/>
<polygon fill="darkblue" stroke="darkblue" points="30.5,-664.03 27,-654.03 23.5,-664.03 30.5,-664.03"/>
</g>
<!-- 2013 -->
<g id="node5" class="node">
<title>2013</title>
<text text-anchor="middle" x="27" y="-559.9" font-family="sans-serif" font-size="12.00" fill="darkblue">2013</text>
</g>
<!-- 2011&#45;&gt;2013 -->
<g id="edge4" class="edge">
<title>2011&#45;&gt;2013</title>
<path fill="none" stroke="darkblue" d="M27,-617.81C27,-609.79 27,-600.05 27,-591.07"/>
<polygon fill="darkblue" stroke="darkblue" points="30.5,-591.03 27,-581.03 23.5,-591.03 30.5,-591.03"/>
</g>
<!-- 2014 -->
<g id="node6" class="node">
<title>2014</title>
<text text-anchor="middle" x="27" y="-486.9" font-family="sans-serif" font-size="12.00" fill="darkblue">2014</text>
</g>
<!-- 2013&#45;&gt;2014 -->
<g id="edge5" class="edge">
<title>2013&#45;&gt;2014</title>
<path fill="none" stroke="darkblue" d="M27,-544.81C27,-536.79 27,-527.05 27,-518.07"/>
<polygon fill="darkblue" stroke="darkblue" points="30.5,-518.03 27,-508.03 23.5,-518.03 30.5,-518.03"/>
</g>
<!-- 2015 -->
<g id="node7" class="node">
<title>2015</title>
<text text-anchor="middle" x="27" y="-413.9" font-family="sans-serif" font-size="12.00" fill="darkblue">2015</text>
</g>
<!-- 2014&#45;&gt;2015 -->
<g id="edge6" class="edge">
<title>2014&#45;&gt;2015</title>
<path fill="none" stroke="darkblue" d="M27,-471.81C27,-463.79 27,-454.05 27,-445.07"/>
<polygon fill="darkblue" stroke="darkblue" points="30.5,-445.03 27,-435.03 23.5,-445.03 30.5,-445.03"/>
</g>
<!-- 2016 -->
<g id="node8" class="node">
<title>2016</title>
<text text-anchor="middle" x="27" y="-340.9" font-family="sans-serif" font-size="12.00" fill="darkblue">2016</text>
</g>
<!-- 2015&#45;&gt;2016 -->
<g id="edge7" class="edge">
<title>2015&#45;&gt;2016</title>
<path fill="none" stroke="darkblue" d="M27,-398.81C27,-390.79 27,-381.05 27,-372.07"/>
<polygon fill="darkblue" stroke="darkblue" points="30.5,-372.03 27,-362.03 23.5,-372.03 30.5,-372.03"/>
</g>
<!-- 2017 -->
<g id="node9" class="node">
<title>2017</title>
<text text-anchor="middle" x="27" y="-257.9" font-family="sans-serif" font-size="12.00" fill="darkblue">2017</text>
</g>
<!-- 2016&#45;&gt;2017 -->
<g id="edge8" class="edge">
<title>2016&#45;&gt;2017</title>
<path fill="none" stroke="darkblue" d="M27,-325.82C27,-315.19 27,-301.31 27,-289.2"/>
<polygon fill="darkblue" stroke="darkblue" points="30.5,-289.15 27,-279.15 23.5,-289.15 30.5,-289.15"/>
</g>
<!-- 2018 -->
<g id="node10" class="node">
<title>2018</title>
<text text-anchor="middle" x="27" y="-184.9" font-family="sans-serif" font-size="12.00" fill="darkblue">2018</text>
</g>
<!-- 2017&#45;&gt;2018 -->
<g id="edge9" class="edge">
<title>2017&#45;&gt;2018</title>
<path fill="none" stroke="darkblue" d="M27,-242.81C27,-234.79 27,-225.05 27,-216.07"/>
<polygon fill="darkblue" stroke="darkblue" points="30.5,-216.03 27,-206.03 23.5,-216.03 30.5,-216.03"/>
</g>
<!-- 2019 -->
<g id="node11" class="node">
<title>2019</title>
<text text-anchor="middle" x="27" y="-111.9" font-family="sans-serif" font-size="12.00" fill="darkblue">2019</text>
</g>
<!-- 2018&#45;&gt;2019 -->
<g id="edge10" class="edge">
<title>2018&#45;&gt;2019</title>
<path fill="none" stroke="darkblue" d="M27,-169.81C27,-161.79 27,-152.05 27,-143.07"/>
<polygon fill="darkblue" stroke="darkblue" points="30.5,-143.03 27,-133.03 23.5,-143.03 30.5,-143.03"/>
</g>
<!-- 2020 -->
<g id="node12" class="node">
<title>2020</title>
<text text-anchor="middle" x="27" y="-38.9" font-family="sans-serif" font-size="12.00" fill="darkblue">2020</text>
</g>
<!-- 2019&#45;&gt;2020 -->
<g id="edge11" class="edge">
<title>2019&#45;&gt;2020</title>
<path fill="none" stroke="darkblue" d="M27,-96.81C27,-88.79 27,-79.05 27,-70.07"/>
<polygon fill="darkblue" stroke="darkblue" points="30.5,-70.03 27,-60.03 23.5,-70.03 30.5,-70.03"/>
</g>
<!-- Reinforcement Learning -->
<g id="node13" class="node">
<title>Reinforcement Learning</title>
<path fill="#ffe6cc" stroke="black" stroke-width="2" d="M1558.5,-1140C1558.5,-1140 1437.5,-1140 1437.5,-1140 1431.5,-1140 1425.5,-1134 1425.5,-1128 1425.5,-1128 1425.5,-1116 1425.5,-1116 1425.5,-1110 1431.5,-1104 1437.5,-1104 1437.5,-1104 1558.5,-1104 1558.5,-1104 1564.5,-1104 1570.5,-1110 1570.5,-1116 1570.5,-1116 1570.5,-1128 1570.5,-1128 1570.5,-1134 1564.5,-1140 1558.5,-1140"/>
<text text-anchor="middle" x="1498" y="-1118.9" font-family="sans-serif" font-size="12.00">Reinforcement Learning</text>
</g>
<!-- Model Free -->
<g id="node14" class="node">
<title>Model Free</title>
<path fill="#ffe6cc" stroke="black" stroke-width="2" d="M993.5,-1043C993.5,-1043 940.5,-1043 940.5,-1043 934.5,-1043 928.5,-1037 928.5,-1031 928.5,-1031 928.5,-1019 928.5,-1019 928.5,-1013 934.5,-1007 940.5,-1007 940.5,-1007 993.5,-1007 993.5,-1007 999.5,-1007 1005.5,-1013 1005.5,-1019 1005.5,-1019 1005.5,-1031 1005.5,-1031 1005.5,-1037 999.5,-1043 993.5,-1043"/>
<text text-anchor="middle" x="967" y="-1021.9" font-family="sans-serif" font-size="12.00">Model Free</text>
</g>
<!-- Reinforcement Learning&#45;&gt;Model Free -->
<g id="edge77" class="edge">
<title>Reinforcement Learning&#45;&gt;Model Free</title>
<path fill="none" stroke="black" d="M1425.37,-1114.47C1356.02,-1107.57 1248.79,-1095.16 1157,-1077 1108.25,-1067.36 1053.54,-1052.2 1015.39,-1040.91"/>
<polygon fill="black" stroke="black" points="1016.16,-1037.49 1005.58,-1037.99 1014.16,-1044.2 1016.16,-1037.49"/>
</g>
<!-- Model Based -->
<g id="node49" class="node">
<title>Model Based</title>
<path fill="#ffe6cc" stroke="black" stroke-width="2" d="M1529.5,-1043C1529.5,-1043 1466.5,-1043 1466.5,-1043 1460.5,-1043 1454.5,-1037 1454.5,-1031 1454.5,-1031 1454.5,-1019 1454.5,-1019 1454.5,-1013 1460.5,-1007 1466.5,-1007 1466.5,-1007 1529.5,-1007 1529.5,-1007 1535.5,-1007 1541.5,-1013 1541.5,-1019 1541.5,-1019 1541.5,-1031 1541.5,-1031 1541.5,-1037 1535.5,-1043 1529.5,-1043"/>
<text text-anchor="middle" x="1498" y="-1021.9" font-family="sans-serif" font-size="12.00">Model Based</text>
</g>
<!-- Reinforcement Learning&#45;&gt;Model Based -->
<g id="edge78" class="edge">
<title>Reinforcement Learning&#45;&gt;Model Based</title>
<path fill="none" stroke="black" d="M1498,-1103.58C1498,-1089.65 1498,-1069.86 1498,-1053.76"/>
<polygon fill="black" stroke="black" points="1501.5,-1053.31 1498,-1043.31 1494.5,-1053.31 1501.5,-1053.31"/>
</g>
<!-- Meta&#45;RL -->
<g id="node63" class="node">
<title>Meta&#45;RL</title>
<path fill="#ffe6cc" stroke="black" stroke-width="2" d="M1835,-1043C1835,-1043 1797,-1043 1797,-1043 1791,-1043 1785,-1037 1785,-1031 1785,-1031 1785,-1019 1785,-1019 1785,-1013 1791,-1007 1797,-1007 1797,-1007 1835,-1007 1835,-1007 1841,-1007 1847,-1013 1847,-1019 1847,-1019 1847,-1031 1847,-1031 1847,-1037 1841,-1043 1835,-1043"/>
<text text-anchor="middle" x="1816" y="-1021.9" font-family="sans-serif" font-size="12.00">Meta&#45;RL</text>
</g>
<!-- Reinforcement Learning&#45;&gt;Meta&#45;RL -->
<g id="edge79" class="edge">
<title>Reinforcement Learning&#45;&gt;Meta&#45;RL</title>
<path fill="none" stroke="black" d="M1570.89,-1109.58C1611.03,-1102.28 1661.41,-1091.45 1705,-1077 1729.09,-1069.01 1754.91,-1057.35 1775.59,-1047.19"/>
<polygon fill="black" stroke="black" points="1777.31,-1050.24 1784.7,-1042.65 1774.19,-1043.98 1777.31,-1050.24"/>
</g>
<!-- Value Gradient -->
<g id="node15" class="node">
<title>Value Gradient</title>
<path fill="#ffe6cc" stroke="black" stroke-width="2" d="M1002.5,-946C1002.5,-946 931.5,-946 931.5,-946 925.5,-946 919.5,-940 919.5,-934 919.5,-934 919.5,-922 919.5,-922 919.5,-916 925.5,-910 931.5,-910 931.5,-910 1002.5,-910 1002.5,-910 1008.5,-910 1014.5,-916 1014.5,-922 1014.5,-922 1014.5,-934 1014.5,-934 1014.5,-940 1008.5,-946 1002.5,-946"/>
<text text-anchor="middle" x="967" y="-924.9" font-family="sans-serif" font-size="12.00">Value Gradient</text>
</g>
<!-- Model Free&#45;&gt;Value Gradient -->
<g id="edge12" class="edge">
<title>Model Free&#45;&gt;Value Gradient</title>
<path fill="none" stroke="black" d="M967,-1006.58C967,-992.65 967,-972.86 967,-956.76"/>
<polygon fill="black" stroke="black" points="970.5,-956.31 967,-946.31 963.5,-956.31 970.5,-956.31"/>
</g>
<!-- Policy Gradient/Actor&#45;Critic -->
<g id="node16" class="node">
<title>Policy Gradient/Actor&#45;Critic</title>
<path fill="#ffe6cc" stroke="black" stroke-width="2" d="M544.5,-946C544.5,-946 407.5,-946 407.5,-946 401.5,-946 395.5,-940 395.5,-934 395.5,-934 395.5,-922 395.5,-922 395.5,-916 401.5,-910 407.5,-910 407.5,-910 544.5,-910 544.5,-910 550.5,-910 556.5,-916 556.5,-922 556.5,-922 556.5,-934 556.5,-934 556.5,-940 550.5,-946 544.5,-946"/>
<text text-anchor="middle" x="476" y="-924.9" font-family="sans-serif" font-size="12.00">Policy Gradient/Actor&#45;Critic</text>
</g>
<!-- Model Free&#45;&gt;Policy Gradient/Actor&#45;Critic -->
<g id="edge13" class="edge">
<title>Model Free&#45;&gt;Policy Gradient/Actor&#45;Critic</title>
<path fill="none" stroke="black" d="M928.47,-1016.55C851.08,-1001.57 674.92,-967.49 566.65,-946.54"/>
<polygon fill="black" stroke="black" points="567.2,-943.08 556.72,-944.62 565.87,-949.95 567.2,-943.08"/>
</g>
<!-- SARSA -->
<g id="node24" class="node">
<title>SARSA</title>
<path fill="#dae8fc" stroke="black" stroke-width="2" d="M968.5,-727C968.5,-727 933.5,-727 933.5,-727 927.5,-727 921.5,-721 921.5,-715 921.5,-715 921.5,-703 921.5,-703 921.5,-697 927.5,-691 933.5,-691 933.5,-691 968.5,-691 968.5,-691 974.5,-691 980.5,-697 980.5,-703 980.5,-703 980.5,-715 980.5,-715 980.5,-721 974.5,-727 968.5,-727"/>
<text text-anchor="middle" x="951" y="-705.9" font-family="sans-serif" font-size="12.00">SARSA</text>
</g>
<!-- Value Gradient&#45;&gt;SARSA -->
<g id="edge18" class="edge">
<title>Value Gradient&#45;&gt;SARSA</title>
<path fill="none" stroke="black" d="M965.31,-909.98C964.29,-899.36 962.99,-885.39 962,-873 958.18,-825.25 954.61,-769.55 952.63,-737.18"/>
<polygon fill="black" stroke="black" points="956.12,-736.91 952.02,-727.14 949.13,-737.34 956.12,-736.91"/>
</g>
<!-- Q&#45;learning -->
<g id="node25" class="node">
<title>Q&#45;learning</title>
<path fill="#dae8fc" stroke="black" stroke-width="2" d="M1031.5,-873C1031.5,-873 982.5,-873 982.5,-873 976.5,-873 970.5,-867 970.5,-861 970.5,-861 970.5,-849 970.5,-849 970.5,-843 976.5,-837 982.5,-837 982.5,-837 1031.5,-837 1031.5,-837 1037.5,-837 1043.5,-843 1043.5,-849 1043.5,-849 1043.5,-861 1043.5,-861 1043.5,-867 1037.5,-873 1031.5,-873"/>
<text text-anchor="middle" x="1007" y="-851.9" font-family="sans-serif" font-size="12.00">Q&#45;learning</text>
</g>
<!-- Value Gradient&#45;&gt;Q&#45;learning -->
<g id="edge19" class="edge">
<title>Value Gradient&#45;&gt;Q&#45;learning</title>
<path fill="none" stroke="black" d="M976.68,-909.81C981.4,-901.44 987.17,-891.2 992.41,-881.9"/>
<polygon fill="black" stroke="black" points="995.55,-883.46 997.41,-873.03 989.45,-880.02 995.55,-883.46"/>
</g>
<!-- A3C -->
<g id="node22" class="node">
<title>A3C</title>
<path fill="#dae8fc" stroke="black" stroke-width="2" d="M554,-362C554,-362 524,-362 524,-362 518,-362 512,-356 512,-350 512,-350 512,-338 512,-338 512,-332 518,-326 524,-326 524,-326 554,-326 554,-326 560,-326 566,-332 566,-338 566,-338 566,-350 566,-350 566,-356 560,-362 554,-362"/>
<text text-anchor="middle" x="539" y="-340.9" font-family="sans-serif" font-size="12.00">A3C</text>
</g>
<!-- Policy Gradient/Actor&#45;Critic&#45;&gt;A3C -->
<g id="edge40" class="edge">
<title>Policy Gradient/Actor&#45;Critic&#45;&gt;A3C</title>
<path fill="none" stroke="black" d="M497.2,-909.76C510.83,-896.64 526,-877.26 526,-856 526,-856 526,-856 526,-416 526,-401.27 528.74,-385.09 531.71,-371.91"/>
<polygon fill="black" stroke="black" points="535.14,-372.6 534.09,-362.06 528.34,-370.96 535.14,-372.6"/>
</g>
<!-- REINFORCE -->
<g id="node36" class="node">
<title>REINFORCE</title>
<path fill="#dae8fc" stroke="black" stroke-width="2" d="M279.5,-800C279.5,-800 214.5,-800 214.5,-800 208.5,-800 202.5,-794 202.5,-788 202.5,-788 202.5,-776 202.5,-776 202.5,-770 208.5,-764 214.5,-764 214.5,-764 279.5,-764 279.5,-764 285.5,-764 291.5,-770 291.5,-776 291.5,-776 291.5,-788 291.5,-788 291.5,-794 285.5,-800 279.5,-800"/>
<text text-anchor="middle" x="247" y="-778.9" font-family="sans-serif" font-size="12.00">REINFORCE</text>
</g>
<!-- Policy Gradient/Actor&#45;Critic&#45;&gt;REINFORCE -->
<g id="edge36" class="edge">
<title>Policy Gradient/Actor&#45;Critic&#45;&gt;REINFORCE</title>
<path fill="none" stroke="black" d="M395.33,-916.99C358.77,-911.14 320.51,-902.78 306,-892 278.67,-871.7 262.59,-834.86 254.29,-809.68"/>
<polygon fill="black" stroke="black" points="257.59,-808.53 251.29,-800.01 250.91,-810.6 257.59,-808.53"/>
</g>
<!-- DPG -->
<g id="node37" class="node">
<title>DPG</title>
<path fill="#dae8fc" stroke="black" stroke-width="2" d="M198,-508C198,-508 168,-508 168,-508 162,-508 156,-502 156,-496 156,-496 156,-484 156,-484 156,-478 162,-472 168,-472 168,-472 198,-472 198,-472 204,-472 210,-478 210,-484 210,-484 210,-496 210,-496 210,-502 204,-508 198,-508"/>
<text text-anchor="middle" x="183" y="-486.9" font-family="sans-serif" font-size="12.00">DPG</text>
</g>
<!-- Policy Gradient/Actor&#45;Critic&#45;&gt;DPG -->
<g id="edge37" class="edge">
<title>Policy Gradient/Actor&#45;Critic&#45;&gt;DPG</title>
<path fill="none" stroke="black" d="M395.16,-923.13C308.43,-916.7 183,-899.83 183,-856 183,-856 183,-856 183,-562 183,-547.65 183,-531.67 183,-518.51"/>
<polygon fill="black" stroke="black" points="186.5,-518.22 183,-508.22 179.5,-518.22 186.5,-518.22"/>
</g>
<!-- TRPO -->
<g id="node38" class="node">
<title>TRPO</title>
<path fill="#dae8fc" stroke="black" stroke-width="2" d="M372,-435C372,-435 342,-435 342,-435 336,-435 330,-429 330,-423 330,-423 330,-411 330,-411 330,-405 336,-399 342,-399 342,-399 372,-399 372,-399 378,-399 384,-405 384,-411 384,-411 384,-423 384,-423 384,-429 378,-435 372,-435"/>
<text text-anchor="middle" x="357" y="-413.9" font-family="sans-serif" font-size="12.00">TRPO</text>
</g>
<!-- Policy Gradient/Actor&#45;Critic&#45;&gt;TRPO -->
<g id="edge38" class="edge">
<title>Policy Gradient/Actor&#45;Critic&#45;&gt;TRPO</title>
<path fill="none" stroke="black" d="M438.85,-909.79C419.16,-897.85 399,-879.82 399,-856 399,-856 399,-856 399,-489 399,-472.08 390.06,-455.66 380.43,-442.88"/>
<polygon fill="black" stroke="black" points="383.09,-440.61 374.08,-435.04 377.65,-445.01 383.09,-440.61"/>
</g>
<!-- GAE -->
<g id="node39" class="node">
<title>GAE</title>
<path fill="#dae8fc" stroke="black" stroke-width="2" d="M462,-435C462,-435 432,-435 432,-435 426,-435 420,-429 420,-423 420,-423 420,-411 420,-411 420,-405 426,-399 432,-399 432,-399 462,-399 462,-399 468,-399 474,-405 474,-411 474,-411 474,-423 474,-423 474,-429 468,-435 462,-435"/>
<text text-anchor="middle" x="447" y="-413.9" font-family="sans-serif" font-size="12.00">GAE</text>
</g>
<!-- Policy Gradient/Actor&#45;Critic&#45;&gt;GAE -->
<g id="edge39" class="edge">
<title>Policy Gradient/Actor&#45;Critic&#45;&gt;GAE</title>
<path fill="none" stroke="black" d="M469.86,-909.74C465.35,-895.51 460,-874.7 460,-856 460,-856 460,-856 460,-489 460,-474.27 457.26,-458.09 454.29,-444.91"/>
<polygon fill="black" stroke="black" points="457.66,-443.96 451.91,-435.06 450.86,-445.6 457.66,-443.96"/>
</g>
<!-- ACKTR -->
<g id="node40" class="node">
<title>ACKTR</title>
<path fill="#dae8fc" stroke="black" stroke-width="2" d="M631.5,-279C631.5,-279 596.5,-279 596.5,-279 590.5,-279 584.5,-273 584.5,-267 584.5,-267 584.5,-255 584.5,-255 584.5,-249 590.5,-243 596.5,-243 596.5,-243 631.5,-243 631.5,-243 637.5,-243 643.5,-249 643.5,-255 643.5,-255 643.5,-267 643.5,-267 643.5,-273 637.5,-279 631.5,-279"/>
<text text-anchor="middle" x="614" y="-257.9" font-family="sans-serif" font-size="12.00">ACKTR</text>
</g>
<!-- Policy Gradient/Actor&#45;Critic&#45;&gt;ACKTR -->
<g id="edge41" class="edge">
<title>Policy Gradient/Actor&#45;Critic&#45;&gt;ACKTR</title>
<path fill="none" stroke="black" d="M542.06,-909.94C566.79,-899.23 589,-882.3 589,-856 589,-856 589,-856 589,-343 589,-324.29 595.17,-304.18 601.38,-288.68"/>
<polygon fill="black" stroke="black" points="604.71,-289.8 605.4,-279.22 598.26,-287.06 604.71,-289.8"/>
</g>
<!-- SVPG -->
<g id="node41" class="node">
<title>SVPG</title>
<path fill="#dae8fc" stroke="black" stroke-width="2" d="M704,-279C704,-279 674,-279 674,-279 668,-279 662,-273 662,-267 662,-267 662,-255 662,-255 662,-249 668,-243 674,-243 674,-243 704,-243 704,-243 710,-243 716,-249 716,-255 716,-255 716,-267 716,-267 716,-273 710,-279 704,-279"/>
<text text-anchor="middle" x="689" y="-257.9" font-family="sans-serif" font-size="12.00">SVPG</text>
</g>
<!-- Policy Gradient/Actor&#45;Critic&#45;&gt;SVPG -->
<g id="edge42" class="edge">
<title>Policy Gradient/Actor&#45;Critic&#45;&gt;SVPG</title>
<path fill="none" stroke="black" d="M556.57,-921.79C598.45,-914.22 641,-896.54 641,-856 641,-856 641,-856 641,-343 641,-322.17 652.89,-302.01 664.83,-287.02"/>
<polygon fill="black" stroke="black" points="667.62,-289.14 671.4,-279.24 662.27,-284.62 667.62,-289.14"/>
</g>
<!-- SAC -->
<g id="node42" class="node">
<title>SAC</title>
<path fill="#dae8fc" stroke="black" stroke-width="2" d="M414,-206C414,-206 384,-206 384,-206 378,-206 372,-200 372,-194 372,-194 372,-182 372,-182 372,-176 378,-170 384,-170 384,-170 414,-170 414,-170 420,-170 426,-176 426,-182 426,-182 426,-194 426,-194 426,-200 420,-206 414,-206"/>
<text text-anchor="middle" x="399" y="-184.9" font-family="sans-serif" font-size="12.00">SAC</text>
</g>
<!-- Policy Gradient/Actor&#45;Critic&#45;&gt;SAC -->
<g id="edge43" class="edge">
<title>Policy Gradient/Actor&#45;Critic&#45;&gt;SAC</title>
<path fill="none" stroke="black" d="M482.52,-909.77C487.32,-895.56 493,-874.76 493,-856 493,-856 493,-856 493,-380 493,-355.9 500.63,-346.53 488,-326 467.38,-292.5 434.65,-311.85 413,-279 400.8,-260.48 397.76,-235.24 397.51,-216.2"/>
<polygon fill="black" stroke="black" points="401.01,-216.11 397.63,-206.07 394.02,-216.03 401.01,-216.11"/>
</g>
<!-- IMPALA -->
<g id="node43" class="node">
<title>IMPALA</title>
<path fill="#dae8fc" stroke="black" stroke-width="2" d="M333.5,-206C333.5,-206 298.5,-206 298.5,-206 292.5,-206 286.5,-200 286.5,-194 286.5,-194 286.5,-182 286.5,-182 286.5,-176 292.5,-170 298.5,-170 298.5,-170 333.5,-170 333.5,-170 339.5,-170 345.5,-176 345.5,-182 345.5,-182 345.5,-194 345.5,-194 345.5,-200 339.5,-206 333.5,-206"/>
<text text-anchor="middle" x="316" y="-184.9" font-family="sans-serif" font-size="12.00">IMPALA</text>
</g>
<!-- Policy Gradient/Actor&#45;Critic&#45;&gt;IMPALA -->
<g id="edge44" class="edge">
<title>Policy Gradient/Actor&#45;Critic&#45;&gt;IMPALA</title>
<path fill="none" stroke="black" d="M395.43,-921.79C353.55,-914.22 311,-896.54 311,-856 311,-856 311,-856 311,-260 311,-245.62 312.03,-229.63 313.16,-216.48"/>
<polygon fill="black" stroke="black" points="316.68,-216.47 314.11,-206.19 309.71,-215.83 316.68,-216.47"/>
</g>
<!-- DQN -->
<g id="node17" class="node">
<title>DQN</title>
<path fill="#dae8fc" stroke="black" stroke-width="2" d="M1022,-581C1022,-581 992,-581 992,-581 986,-581 980,-575 980,-569 980,-569 980,-557 980,-557 980,-551 986,-545 992,-545 992,-545 1022,-545 1022,-545 1028,-545 1034,-551 1034,-557 1034,-557 1034,-569 1034,-569 1034,-575 1028,-581 1022,-581"/>
<text text-anchor="middle" x="1007" y="-559.9" font-family="sans-serif" font-size="12.00">DQN</text>
</g>
<!-- DDPG -->
<g id="node18" class="node">
<title>DDPG</title>
<path fill="#dae8fc" stroke="black" stroke-width="2" d="M198,-435C198,-435 168,-435 168,-435 162,-435 156,-429 156,-423 156,-423 156,-411 156,-411 156,-405 162,-399 168,-399 168,-399 198,-399 198,-399 204,-399 210,-405 210,-411 210,-411 210,-423 210,-423 210,-429 204,-435 198,-435"/>
<text text-anchor="middle" x="183" y="-413.9" font-family="sans-serif" font-size="12.00">DDPG</text>
</g>
<!-- DQN&#45;&gt;DDPG -->
<g id="edge14" class="edge">
<title>DQN&#45;&gt;DDPG</title>
<path fill="none" stroke="darkgray" stroke-dasharray="5,2" d="M979.58,-557.21C857.25,-535.83 361.07,-449.12 220.36,-424.53"/>
<polygon fill="darkgray" stroke="darkgray" points="220.55,-421.01 210.1,-422.74 219.35,-427.91 220.55,-421.01"/>
<text text-anchor="middle" x="717.5" y="-487.5" font-family="sans-serif" font-size="10.00" fill="darkgray">replay buffer</text>
</g>
<!-- ACER -->
<g id="node19" class="node">
<title>ACER</title>
<path fill="#dae8fc" stroke="black" stroke-width="2" d="M554,-279C554,-279 524,-279 524,-279 518,-279 512,-273 512,-267 512,-267 512,-255 512,-255 512,-249 518,-243 524,-243 524,-243 554,-243 554,-243 560,-243 566,-249 566,-255 566,-255 566,-267 566,-267 566,-273 560,-279 554,-279"/>
<text text-anchor="middle" x="539" y="-257.9" font-family="sans-serif" font-size="12.00">ACER</text>
</g>
<!-- DQN&#45;&gt;ACER -->
<g id="edge15" class="edge">
<title>DQN&#45;&gt;ACER</title>
<path fill="none" stroke="darkgray" stroke-dasharray="5,2" d="M979.86,-561.02C910.72,-557.99 730.35,-546.48 687,-508 681.11,-502.77 682,-498.88 682,-491 682,-491 682,-491 682,-343 682,-336.87 617.53,-302.45 575.17,-280.5"/>
<polygon fill="darkgray" stroke="darkgray" points="576.72,-277.37 566.23,-275.89 573.51,-283.59 576.72,-277.37"/>
<text text-anchor="middle" x="709.5" y="-414.5" font-family="sans-serif" font-size="10.00" fill="darkgray">replay buffer</text>
</g>
<!-- DDQN -->
<g id="node20" class="node">
<title>DDQN</title>
<path fill="#dae8fc" stroke="black" stroke-width="2" d="M950,-435C950,-435 920,-435 920,-435 914,-435 908,-429 908,-423 908,-423 908,-411 908,-411 908,-405 914,-399 920,-399 920,-399 950,-399 950,-399 956,-399 962,-405 962,-411 962,-411 962,-423 962,-423 962,-429 956,-435 950,-435"/>
<text text-anchor="middle" x="935" y="-413.9" font-family="sans-serif" font-size="12.00">DDQN</text>
</g>
<!-- DQN&#45;&gt;DDQN -->
<g id="edge22" class="edge">
<title>DQN&#45;&gt;DDQN</title>
<path fill="none" stroke="black" d="M998.46,-544.92C986.01,-520.02 962.77,-473.54 948.14,-444.27"/>
<polygon fill="black" stroke="black" points="951.13,-442.44 943.53,-435.06 944.87,-445.57 951.13,-442.44"/>
</g>
<!-- DRQN -->
<g id="node26" class="node">
<title>DRQN</title>
<path fill="#dae8fc" stroke="black" stroke-width="2" d="M878,-435C878,-435 848,-435 848,-435 842,-435 836,-429 836,-423 836,-423 836,-411 836,-411 836,-405 842,-399 848,-399 848,-399 878,-399 878,-399 884,-399 890,-405 890,-411 890,-411 890,-423 890,-423 890,-429 884,-435 878,-435"/>
<text text-anchor="middle" x="863" y="-413.9" font-family="sans-serif" font-size="12.00">DRQN</text>
</g>
<!-- DQN&#45;&gt;DRQN -->
<g id="edge21" class="edge">
<title>DQN&#45;&gt;DRQN</title>
<path fill="none" stroke="black" d="M989.92,-544.92C964.48,-519.48 916.51,-471.51 887.39,-442.39"/>
<polygon fill="black" stroke="black" points="889.61,-439.66 880.06,-435.06 884.66,-444.61 889.61,-439.66"/>
</g>
<!-- PER -->
<g id="node27" class="node">
<title>PER</title>
<path fill="#dae8fc" stroke="black" stroke-width="2" d="M1022,-435C1022,-435 992,-435 992,-435 986,-435 980,-429 980,-423 980,-423 980,-411 980,-411 980,-405 986,-399 992,-399 992,-399 1022,-399 1022,-399 1028,-399 1034,-405 1034,-411 1034,-411 1034,-423 1034,-423 1034,-429 1028,-435 1022,-435"/>
<text text-anchor="middle" x="1007" y="-413.9" font-family="sans-serif" font-size="12.00">PER</text>
</g>
<!-- DQN&#45;&gt;PER -->
<g id="edge23" class="edge">
<title>DQN&#45;&gt;PER</title>
<path fill="none" stroke="black" d="M1007,-544.92C1007,-520.34 1007,-474.75 1007,-445.43"/>
<polygon fill="black" stroke="black" points="1010.5,-445.06 1007,-435.06 1003.5,-445.06 1010.5,-445.06"/>
</g>
<!-- QR&#45;DQN -->
<g id="node28" class="node">
<title>QR&#45;DQN</title>
<path fill="#dae8fc" stroke="black" stroke-width="2" d="M807.5,-279C807.5,-279 766.5,-279 766.5,-279 760.5,-279 754.5,-273 754.5,-267 754.5,-267 754.5,-255 754.5,-255 754.5,-249 760.5,-243 766.5,-243 766.5,-243 807.5,-243 807.5,-243 813.5,-243 819.5,-249 819.5,-255 819.5,-255 819.5,-267 819.5,-267 819.5,-273 813.5,-279 807.5,-279"/>
<text text-anchor="middle" x="787" y="-257.9" font-family="sans-serif" font-size="12.00">QR&#45;DQN</text>
</g>
<!-- DQN&#45;&gt;QR&#45;DQN -->
<g id="edge24" class="edge">
<title>DQN&#45;&gt;QR&#45;DQN</title>
<path fill="none" stroke="black" d="M979.78,-557.68C927.24,-548.56 817,-525.33 817,-491 817,-491 817,-491 817,-343 817,-322.44 819.33,-316.22 812,-297 810.8,-293.86 809.25,-290.74 807.51,-287.74"/>
<polygon fill="black" stroke="black" points="810.29,-285.59 801.88,-279.14 804.44,-289.43 810.29,-285.59"/>
</g>
<!-- C51 -->
<g id="node29" class="node">
<title>C51</title>
<path fill="#dae8fc" stroke="black" stroke-width="2" d="M989,-279C989,-279 959,-279 959,-279 953,-279 947,-273 947,-267 947,-267 947,-255 947,-255 947,-249 953,-243 959,-243 959,-243 989,-243 989,-243 995,-243 1001,-249 1001,-255 1001,-255 1001,-267 1001,-267 1001,-273 995,-279 989,-279"/>
<text text-anchor="middle" x="974" y="-257.9" font-family="sans-serif" font-size="12.00">C51</text>
</g>
<!-- DQN&#45;&gt;C51 -->
<g id="edge25" class="edge">
<title>DQN&#45;&gt;C51</title>
<path fill="none" stroke="black" d="M1025.98,-544.99C1038.65,-531.7 1053,-512 1053,-491 1053,-491 1053,-491 1053,-343 1053,-316.24 1030.63,-295.02 1009.7,-281.03"/>
<polygon fill="black" stroke="black" points="1011.51,-278.03 1001.19,-275.66 1007.78,-283.95 1011.51,-278.03"/>
</g>
<!-- DQN+HER -->
<g id="node30" class="node">
<title>DQN+HER</title>
<path fill="#dae8fc" stroke="black" stroke-width="2" d="M1084.5,-279C1084.5,-279 1031.5,-279 1031.5,-279 1025.5,-279 1019.5,-273 1019.5,-267 1019.5,-267 1019.5,-255 1019.5,-255 1019.5,-249 1025.5,-243 1031.5,-243 1031.5,-243 1084.5,-243 1084.5,-243 1090.5,-243 1096.5,-249 1096.5,-255 1096.5,-255 1096.5,-267 1096.5,-267 1096.5,-273 1090.5,-279 1084.5,-279"/>
<text text-anchor="middle" x="1058" y="-257.9" font-family="sans-serif" font-size="12.00">DQN+HER</text>
</g>
<!-- DQN&#45;&gt;DQN+HER -->
<g id="edge26" class="edge">
<title>DQN&#45;&gt;DQN+HER</title>
<path fill="none" stroke="black" d="M1034.23,-546.78C1052.41,-534.4 1073,-515.07 1073,-491 1073,-491 1073,-491 1073,-343 1073,-324.87 1069.32,-304.84 1065.61,-289.23"/>
<polygon fill="black" stroke="black" points="1068.92,-288.05 1063.08,-279.21 1062.13,-289.76 1068.92,-288.05"/>
</g>
<!-- IQN -->
<g id="node31" class="node">
<title>IQN</title>
<path fill="#dae8fc" stroke="black" stroke-width="2" d="M1105,-206C1105,-206 1075,-206 1075,-206 1069,-206 1063,-200 1063,-194 1063,-194 1063,-182 1063,-182 1063,-176 1069,-170 1075,-170 1075,-170 1105,-170 1105,-170 1111,-170 1117,-176 1117,-182 1117,-182 1117,-194 1117,-194 1117,-200 1111,-206 1105,-206"/>
<text text-anchor="middle" x="1090" y="-184.9" font-family="sans-serif" font-size="12.00">IQN</text>
</g>
<!-- DQN&#45;&gt;IQN -->
<g id="edge27" class="edge">
<title>DQN&#45;&gt;IQN</title>
<path fill="none" stroke="black" d="M1034.22,-556.7C1066.51,-548.65 1116,-529.96 1116,-491 1116,-491 1116,-491 1116,-260 1116,-244.62 1110.56,-228.45 1104.65,-215.43"/>
<polygon fill="black" stroke="black" points="1107.66,-213.61 1100.13,-206.16 1101.36,-216.68 1107.66,-213.61"/>
</g>
<!-- R2D2 -->
<g id="node32" class="node">
<title>R2D2</title>
<path fill="#dae8fc" stroke="black" stroke-width="2" d="M1100,-133C1100,-133 1070,-133 1070,-133 1064,-133 1058,-127 1058,-121 1058,-121 1058,-109 1058,-109 1058,-103 1064,-97 1070,-97 1070,-97 1100,-97 1100,-97 1106,-97 1112,-103 1112,-109 1112,-109 1112,-121 1112,-121 1112,-127 1106,-133 1100,-133"/>
<text text-anchor="middle" x="1085" y="-111.9" font-family="sans-serif" font-size="12.00">R2D2</text>
</g>
<!-- DQN&#45;&gt;R2D2 -->
<g id="edge28" class="edge">
<title>DQN&#45;&gt;R2D2</title>
<path fill="none" stroke="black" d="M1034.04,-559.16C1071.87,-553.51 1136,-537.14 1136,-491 1136,-491 1136,-491 1136,-187 1136,-169.28 1125.39,-152.95 1113.85,-140.44"/>
<polygon fill="black" stroke="black" points="1116.16,-137.79 1106.63,-133.16 1111.19,-142.72 1116.16,-137.79"/>
</g>
<!-- TD3 -->
<g id="node21" class="node">
<title>TD3</title>
<path fill="#dae8fc" stroke="black" stroke-width="2" d="M597,-206C597,-206 567,-206 567,-206 561,-206 555,-200 555,-194 555,-194 555,-182 555,-182 555,-176 561,-170 567,-170 567,-170 597,-170 597,-170 603,-170 609,-176 609,-182 609,-182 609,-194 609,-194 609,-200 603,-206 597,-206"/>
<text text-anchor="middle" x="582" y="-184.9" font-family="sans-serif" font-size="12.00">TD3</text>
</g>
<!-- DDPG&#45;&gt;TD3 -->
<g id="edge49" class="edge">
<title>DDPG&#45;&gt;TD3</title>
<path fill="none" stroke="black" d="M194.97,-398.88C225.23,-355.8 303.66,-245.56 321,-235 339.84,-223.53 476.88,-203.44 544.48,-194.07"/>
<polygon fill="black" stroke="black" points="545.28,-197.5 554.71,-192.66 544.33,-190.56 545.28,-197.5"/>
</g>
<!-- DDPG+HER -->
<g id="node44" class="node">
<title>DDPG+HER</title>
<path fill="#dae8fc" stroke="black" stroke-width="2" d="M171.5,-279C171.5,-279 110.5,-279 110.5,-279 104.5,-279 98.5,-273 98.5,-267 98.5,-267 98.5,-255 98.5,-255 98.5,-249 104.5,-243 110.5,-243 110.5,-243 171.5,-243 171.5,-243 177.5,-243 183.5,-249 183.5,-255 183.5,-255 183.5,-267 183.5,-267 183.5,-273 177.5,-279 171.5,-279"/>
<text text-anchor="middle" x="141" y="-257.9" font-family="sans-serif" font-size="12.00">DDPG+HER</text>
</g>
<!-- DDPG&#45;&gt;DDPG+HER -->
<g id="edge46" class="edge">
<title>DDPG&#45;&gt;DDPG+HER</title>
<path fill="none" stroke="darkgray" stroke-dasharray="5,2" d="M178.34,-398.93C171.09,-372.34 157.03,-320.78 148.38,-289.07"/>
<polygon fill="darkgray" stroke="darkgray" points="151.68,-287.87 145.68,-279.15 144.93,-289.71 151.68,-287.87"/>
</g>
<!-- MADDPG -->
<g id="node45" class="node">
<title>MADDPG</title>
<path fill="#dae8fc" stroke="black" stroke-width="2" d="M260,-279C260,-279 214,-279 214,-279 208,-279 202,-273 202,-267 202,-267 202,-255 202,-255 202,-249 208,-243 214,-243 214,-243 260,-243 260,-243 266,-243 272,-249 272,-255 272,-255 272,-267 272,-267 272,-273 266,-279 260,-279"/>
<text text-anchor="middle" x="237" y="-257.9" font-family="sans-serif" font-size="12.00">MADDPG</text>
</g>
<!-- DDPG&#45;&gt;MADDPG -->
<g id="edge47" class="edge">
<title>DDPG&#45;&gt;MADDPG</title>
<path fill="none" stroke="black" d="M188.99,-398.93C198.35,-372.22 216.55,-320.33 227.65,-288.66"/>
<polygon fill="black" stroke="black" points="230.98,-289.74 230.99,-279.15 224.38,-287.42 230.98,-289.74"/>
</g>
<!-- D4PG -->
<g id="node46" class="node">
<title>D4PG</title>
<path fill="#dae8fc" stroke="black" stroke-width="2" d="M120,-206C120,-206 90,-206 90,-206 84,-206 78,-200 78,-194 78,-194 78,-182 78,-182 78,-176 84,-170 90,-170 90,-170 120,-170 120,-170 126,-170 132,-176 132,-182 132,-182 132,-194 132,-194 132,-200 126,-206 120,-206"/>
<text text-anchor="middle" x="105" y="-184.9" font-family="sans-serif" font-size="12.00">D4PG</text>
</g>
<!-- DDPG&#45;&gt;D4PG -->
<g id="edge48" class="edge">
<title>DDPG&#45;&gt;D4PG</title>
<path fill="none" stroke="black" d="M166.17,-398.81C143.68,-374.51 104.95,-327.64 90,-279 83.63,-258.27 88.36,-233.98 94.14,-215.86"/>
<polygon fill="black" stroke="black" points="97.51,-216.83 97.5,-206.23 90.9,-214.52 97.51,-216.83"/>
</g>
<!-- DDQN&#45;&gt;TD3 -->
<g id="edge16" class="edge">
<title>DDQN&#45;&gt;TD3</title>
<path fill="none" stroke="darkgray" stroke-dasharray="5,2" d="M907.96,-403.01C856.14,-377.86 746.97,-323.65 736,-308 717.16,-281.14 746.25,-260 725,-235 698.94,-204.34 652.34,-193.93 619.43,-190.5"/>
<polygon fill="darkgray" stroke="darkgray" points="619.54,-186.99 609.27,-189.61 618.93,-193.96 619.54,-186.99"/>
<text text-anchor="middle" x="774" y="-300" font-family="sans-serif" font-size="10.00" fill="darkgray">double Q&#45;learning</text>
</g>
<!-- RAINBOW -->
<g id="node23" class="node">
<title>RAINBOW</title>
<path fill="#dae8fc" stroke="black" stroke-width="2" d="M917,-279C917,-279 867,-279 867,-279 861,-279 855,-273 855,-267 855,-267 855,-255 855,-255 855,-249 861,-243 867,-243 867,-243 917,-243 917,-243 923,-243 929,-249 929,-255 929,-255 929,-267 929,-267 929,-273 923,-279 917,-279"/>
<text text-anchor="middle" x="892" y="-257.9" font-family="sans-serif" font-size="12.00">RAINBOW</text>
</g>
<!-- DDQN&#45;&gt;RAINBOW -->
<g id="edge30" class="edge">
<title>DDQN&#45;&gt;RAINBOW</title>
<path fill="none" stroke="darkgray" stroke-dasharray="5,2" d="M912.22,-398.88C901.47,-389.36 889.76,-376.5 884,-362 874.7,-338.6 878.45,-309.74 883.49,-289.04"/>
<polygon fill="darkgray" stroke="darkgray" points="886.88,-289.89 886.09,-279.32 880.12,-288.08 886.88,-289.89"/>
</g>
<!-- Duelling&#45;DQN -->
<g id="node33" class="node">
<title>Duelling&#45;DQN</title>
<path fill="#dae8fc" stroke="black" stroke-width="2" d="M973,-362C973,-362 905,-362 905,-362 899,-362 893,-356 893,-350 893,-350 893,-338 893,-338 893,-332 899,-326 905,-326 905,-326 973,-326 973,-326 979,-326 985,-332 985,-338 985,-338 985,-350 985,-350 985,-356 979,-362 973,-362"/>
<text text-anchor="middle" x="939" y="-340.9" font-family="sans-serif" font-size="12.00">Duelling&#45;DQN</text>
</g>
<!-- DDQN&#45;&gt;Duelling&#45;DQN -->
<g id="edge29" class="edge">
<title>DDQN&#45;&gt;Duelling&#45;DQN</title>
<path fill="none" stroke="black" d="M935.97,-398.81C936.42,-390.79 936.97,-381.05 937.47,-372.07"/>
<polygon fill="black" stroke="black" points="940.97,-372.21 938.04,-362.03 933.98,-371.82 940.97,-372.21"/>
</g>
<!-- A3C&#45;&gt;ACER -->
<g id="edge54" class="edge">
<title>A3C&#45;&gt;ACER</title>
<path fill="none" stroke="black" d="M539,-325.82C539,-315.19 539,-301.31 539,-289.2"/>
<polygon fill="black" stroke="black" points="542.5,-289.15 539,-279.15 535.5,-289.15 542.5,-289.15"/>
</g>
<!-- A3C&#45;&gt;RAINBOW -->
<g id="edge17" class="edge">
<title>A3C&#45;&gt;RAINBOW</title>
<path fill="none" stroke="darkgray" stroke-dasharray="5,2" d="M566.21,-334.86C600.28,-324.89 660.55,-307.97 713,-297 764.07,-286.32 777.96,-289.81 829,-279 834.13,-277.91 839.47,-276.66 844.77,-275.34"/>
<polygon fill="darkgray" stroke="darkgray" points="846.04,-278.63 854.85,-272.75 844.3,-271.85 846.04,-278.63"/>
</g>
<!-- A2C -->
<g id="node48" class="node">
<title>A2C</title>
<path fill="#dae8fc" stroke="black" stroke-width="2" d="M464,-279C464,-279 434,-279 434,-279 428,-279 422,-273 422,-267 422,-267 422,-255 422,-255 422,-249 428,-243 434,-243 434,-243 464,-243 464,-243 470,-243 476,-249 476,-255 476,-255 476,-267 476,-267 476,-273 470,-279 464,-279"/>
<text text-anchor="middle" x="449" y="-257.9" font-family="sans-serif" font-size="12.00">A2C</text>
</g>
<!-- A3C&#45;&gt;A2C -->
<g id="edge53" class="edge">
<title>A3C&#45;&gt;A2C</title>
<path fill="none" stroke="black" d="M519.91,-325.82C507.03,-314.22 489.84,-298.75 475.61,-285.95"/>
<polygon fill="black" stroke="black" points="477.83,-283.24 468.06,-279.15 473.15,-288.44 477.83,-283.24"/>
</g>
<!-- Q&#45;learning&#45;&gt;DQN -->
<g id="edge20" class="edge">
<title>Q&#45;learning&#45;&gt;DQN</title>
<path fill="none" stroke="black" d="M1007,-836.78C1007,-822.41 1007,-801.37 1007,-783 1007,-783 1007,-783 1007,-635 1007,-620.65 1007,-604.67 1007,-591.51"/>
<polygon fill="black" stroke="black" points="1010.5,-591.22 1007,-581.22 1003.5,-591.22 1010.5,-591.22"/>
</g>
<!-- PER&#45;&gt;RAINBOW -->
<g id="edge31" class="edge">
<title>PER&#45;&gt;RAINBOW</title>
<path fill="none" stroke="darkgray" stroke-dasharray="5,2" d="M1008.59,-398.94C1009.53,-379.66 1008.38,-348.1 994,-326 980.75,-305.64 958.51,-290.58 938.18,-280.2"/>
<polygon fill="darkgray" stroke="darkgray" points="939.53,-276.96 929.01,-275.75 936.48,-283.26 939.53,-276.96"/>
</g>
<!-- QR&#45;DQN&#45;&gt;RAINBOW -->
<g id="edge33" class="edge">
<title>QR&#45;DQN&#45;&gt;RAINBOW</title>
<path fill="none" stroke="darkgray" stroke-dasharray="5,2" d="M819.81,-261C828.1,-261 836.38,-261 844.67,-261"/>
<polygon fill="darkgray" stroke="darkgray" points="844.78,-264.5 854.78,-261 844.78,-257.5 844.78,-264.5"/>
</g>
<!-- NGU -->
<g id="node34" class="node">
<title>NGU</title>
<path fill="#dae8fc" stroke="black" stroke-width="2" d="M1027,-60C1027,-60 997,-60 997,-60 991,-60 985,-54 985,-48 985,-48 985,-36 985,-36 985,-30 991,-24 997,-24 997,-24 1027,-24 1027,-24 1033,-24 1039,-30 1039,-36 1039,-36 1039,-48 1039,-48 1039,-54 1033,-60 1027,-60"/>
<text text-anchor="middle" x="1012" y="-38.9" font-family="sans-serif" font-size="12.00">NGU</text>
</g>
<!-- R2D2&#45;&gt;NGU -->
<g id="edge34" class="edge">
<title>R2D2&#45;&gt;NGU</title>
<path fill="none" stroke="black" d="M1067.33,-96.81C1058.18,-87.92 1046.86,-76.91 1036.85,-67.17"/>
<polygon fill="black" stroke="black" points="1039.12,-64.49 1029.51,-60.03 1034.24,-69.51 1039.12,-64.49"/>
</g>
<!-- Duelling&#45;DQN&#45;&gt;RAINBOW -->
<g id="edge32" class="edge">
<title>Duelling&#45;DQN&#45;&gt;RAINBOW</title>
<path fill="none" stroke="darkgray" stroke-dasharray="5,2" d="M929.03,-325.82C922.68,-314.87 914.32,-300.46 907.15,-288.11"/>
<polygon fill="darkgray" stroke="darkgray" points="910,-286.05 901.95,-279.15 903.94,-289.56 910,-286.05"/>
</g>
<!-- Agent57 -->
<g id="node35" class="node">
<title>Agent57</title>
<path fill="#dae8fc" stroke="black" stroke-width="2" d="M1125,-60C1125,-60 1087,-60 1087,-60 1081,-60 1075,-54 1075,-48 1075,-48 1075,-36 1075,-36 1075,-30 1081,-24 1087,-24 1087,-24 1125,-24 1125,-24 1131,-24 1137,-30 1137,-36 1137,-36 1137,-48 1137,-48 1137,-54 1131,-60 1125,-60"/>
<text text-anchor="middle" x="1106" y="-38.9" font-family="sans-serif" font-size="12.00">Agent57</text>
</g>
<!-- NGU&#45;&gt;Agent57 -->
<g id="edge35" class="edge">
<title>NGU&#45;&gt;Agent57</title>
<path fill="none" stroke="black" d="M1039.17,-42C1047.74,-42 1056.31,-42 1064.88,-42"/>
<polygon fill="black" stroke="black" points="1064.94,-45.5 1074.94,-42 1064.94,-38.5 1064.94,-45.5"/>
</g>
<!-- DPG&#45;&gt;DDPG -->
<g id="edge45" class="edge">
<title>DPG&#45;&gt;DDPG</title>
<path fill="none" stroke="black" d="M183,-471.81C183,-463.79 183,-454.05 183,-445.07"/>
<polygon fill="black" stroke="black" points="186.5,-445.03 183,-435.03 179.5,-445.03 186.5,-445.03"/>
</g>
<!-- TRPO&#45;&gt;ACER -->
<g id="edge51" class="edge">
<title>TRPO&#45;&gt;ACER</title>
<path fill="none" stroke="darkgray" stroke-dasharray="5,2" d="M368.1,-398.87C381.22,-379.53 404.52,-347.9 430,-326 451.99,-307.1 480.31,-290.66 502.58,-279.18"/>
<polygon fill="darkgray" stroke="darkgray" points="504.36,-282.2 511.71,-274.57 501.21,-275.95 504.36,-282.2"/>
<text text-anchor="middle" x="466.5" y="-341.5" font-family="sans-serif" font-size="10.00" fill="darkgray">TRPO technique</text>
</g>
<!-- TRPO&#45;&gt;GAE -->
<g id="edge50" class="edge">
<title>TRPO&#45;&gt;GAE</title>
<path fill="none" stroke="darkgray" stroke-dasharray="5,2" d="M384.07,-417C392.67,-417 401.27,-417 409.87,-417"/>
<polygon fill="darkgray" stroke="darkgray" points="409.96,-420.5 419.96,-417 409.96,-413.5 409.96,-420.5"/>
</g>
<!-- PPO -->
<g id="node47" class="node">
<title>PPO</title>
<path fill="#dae8fc" stroke="black" stroke-width="2" d="M372,-279C372,-279 342,-279 342,-279 336,-279 330,-273 330,-267 330,-267 330,-255 330,-255 330,-249 336,-243 342,-243 342,-243 372,-243 372,-243 378,-243 384,-249 384,-255 384,-255 384,-267 384,-267 384,-273 378,-279 372,-279"/>
<text text-anchor="middle" x="357" y="-257.9" font-family="sans-serif" font-size="12.00">PPO</text>
</g>
<!-- TRPO&#45;&gt;PPO -->
<g id="edge52" class="edge">
<title>TRPO&#45;&gt;PPO</title>
<path fill="none" stroke="darkgray" stroke-dasharray="5,2" d="M357,-398.93C357,-372.45 357,-321.22 357,-289.49"/>
<polygon fill="darkgray" stroke="darkgray" points="360.5,-289.15 357,-279.15 353.5,-289.15 360.5,-289.15"/>
</g>
<!-- PPO&#45;&gt;SAC -->
<!-- A2C&#45;&gt;ACER -->
<!-- A2C&#45;&gt;ACKTR -->
<!-- A2C&#45;&gt;SVPG -->
<!-- A2C&#45;&gt;IMPALA -->
<!-- PILCO -->
<g id="node50" class="node">
<title>PILCO</title>
<path fill="#dae8fc" stroke="black" stroke-width="2" d="M1367,-654C1367,-654 1337,-654 1337,-654 1331,-654 1325,-648 1325,-642 1325,-642 1325,-630 1325,-630 1325,-624 1331,-618 1337,-618 1337,-618 1367,-618 1367,-618 1373,-618 1379,-624 1379,-630 1379,-630 1379,-642 1379,-642 1379,-648 1373,-654 1367,-654"/>
<text text-anchor="middle" x="1352" y="-632.9" font-family="sans-serif" font-size="12.00">PILCO</text>
</g>
<!-- Model Based&#45;&gt;PILCO -->
<g id="edge60" class="edge">
<title>Model Based&#45;&gt;PILCO</title>
<path fill="none" stroke="black" d="M1454.38,-1017.67C1433.76,-1012.77 1410,-1004.15 1393,-989 1371.03,-969.42 1365,-958.43 1365,-929 1365,-929 1365,-929 1365,-708 1365,-693.27 1362.26,-677.09 1359.29,-663.91"/>
<polygon fill="black" stroke="black" points="1362.66,-662.96 1356.91,-654.06 1355.86,-664.6 1362.66,-662.96"/>
</g>
<!-- I2A -->
<g id="node51" class="node">
<title>I2A</title>
<path fill="#dae8fc" stroke="black" stroke-width="2" d="M1211,-279C1211,-279 1181,-279 1181,-279 1175,-279 1169,-273 1169,-267 1169,-267 1169,-255 1169,-255 1169,-249 1175,-243 1181,-243 1181,-243 1211,-243 1211,-243 1217,-243 1223,-249 1223,-255 1223,-255 1223,-267 1223,-267 1223,-273 1217,-279 1211,-279"/>
<text text-anchor="middle" x="1196" y="-257.9" font-family="sans-serif" font-size="12.00">I2A</text>
</g>
<!-- Model Based&#45;&gt;I2A -->
<g id="edge61" class="edge">
<title>Model Based&#45;&gt;I2A</title>
<path fill="none" stroke="black" d="M1454.2,-1008.97C1439.68,-1002.11 1424.56,-992.63 1414,-980 1398.77,-961.77 1398,-952.76 1398,-929 1398,-929 1398,-929 1398,-343 1398,-267.02 1311.84,-306.71 1232.65,-278.78"/>
<polygon fill="black" stroke="black" points="1233.62,-275.4 1223.03,-275.02 1231.07,-281.92 1233.62,-275.4"/>
</g>
<!-- MBMF -->
<g id="node52" class="node">
<title>MBMF</title>
<path fill="#dae8fc" stroke="black" stroke-width="2" d="M1283,-279C1283,-279 1253,-279 1253,-279 1247,-279 1241,-273 1241,-267 1241,-267 1241,-255 1241,-255 1241,-249 1247,-243 1253,-243 1253,-243 1283,-243 1283,-243 1289,-243 1295,-249 1295,-255 1295,-255 1295,-267 1295,-267 1295,-273 1289,-279 1283,-279"/>
<text text-anchor="middle" x="1268" y="-257.9" font-family="sans-serif" font-size="12.00">MBMF</text>
</g>
<!-- Model Based&#45;&gt;MBMF -->
<g id="edge62" class="edge">
<title>Model Based&#45;&gt;MBMF</title>
<path fill="none" stroke="black" d="M1464.59,-1006.98C1453.53,-999.93 1442.01,-990.85 1434,-980 1419.88,-960.89 1418,-952.76 1418,-929 1418,-929 1418,-929 1418,-343 1418,-321.5 1419.2,-311.14 1403,-297 1371.55,-269.54 1349.65,-289.57 1305.08,-278.6"/>
<polygon fill="black" stroke="black" points="1305.8,-275.16 1295.22,-275.75 1303.86,-281.89 1305.8,-275.16"/>
</g>
<!-- Exit -->
<g id="node53" class="node">
<title>Exit</title>
<path fill="#dae8fc" stroke="black" stroke-width="2" d="M1355,-279C1355,-279 1325,-279 1325,-279 1319,-279 1313,-273 1313,-267 1313,-267 1313,-255 1313,-255 1313,-249 1319,-243 1325,-243 1325,-243 1355,-243 1355,-243 1361,-243 1367,-249 1367,-255 1367,-255 1367,-267 1367,-267 1367,-273 1361,-279 1355,-279"/>
<text text-anchor="middle" x="1340" y="-257.9" font-family="sans-serif" font-size="12.00">Exit</text>
</g>
<!-- Model Based&#45;&gt;Exit -->
<g id="edge63" class="edge">
<title>Model Based&#45;&gt;Exit</title>
<path fill="none" stroke="black" d="M1476.95,-1006.89C1468.82,-999.37 1460.05,-989.98 1454,-980 1441.69,-959.68 1438,-952.76 1438,-929 1438,-929 1438,-929 1438,-343 1438,-321.5 1437.76,-312.64 1423,-297 1407.93,-281.03 1397.21,-287.59 1377,-279 1376.9,-278.96 1376.8,-278.92 1376.71,-278.88"/>
<polygon fill="black" stroke="black" points="1377.97,-275.61 1367.4,-274.8 1375.16,-282.02 1377.97,-275.61"/>
</g>
<!-- AlphaZero -->
<g id="node54" class="node">
<title>AlphaZero</title>
<path fill="#dae8fc" stroke="black" stroke-width="2" d="M1446.5,-279C1446.5,-279 1397.5,-279 1397.5,-279 1391.5,-279 1385.5,-273 1385.5,-267 1385.5,-267 1385.5,-255 1385.5,-255 1385.5,-249 1391.5,-243 1397.5,-243 1397.5,-243 1446.5,-243 1446.5,-243 1452.5,-243 1458.5,-249 1458.5,-255 1458.5,-255 1458.5,-267 1458.5,-267 1458.5,-273 1452.5,-279 1446.5,-279"/>
<text text-anchor="middle" x="1422" y="-257.9" font-family="sans-serif" font-size="12.00">AlphaZero</text>
</g>
<!-- Model Based&#45;&gt;AlphaZero -->
<g id="edge64" class="edge">
<title>Model Based&#45;&gt;AlphaZero</title>
<path fill="none" stroke="black" d="M1483.91,-1006.99C1479.92,-1001.51 1475.88,-995.24 1473,-989 1461.48,-964.04 1458,-956.49 1458,-929 1458,-929 1458,-929 1458,-343 1458,-323.37 1449.07,-303.2 1440.1,-287.9"/>
<polygon fill="black" stroke="black" points="1442.85,-285.68 1434.59,-279.04 1436.9,-289.38 1442.85,-285.68"/>
</g>
<!-- MVE -->
<g id="node55" class="node">
<title>MVE</title>
<path fill="#dae8fc" stroke="black" stroke-width="2" d="M1211,-206C1211,-206 1181,-206 1181,-206 1175,-206 1169,-200 1169,-194 1169,-194 1169,-182 1169,-182 1169,-176 1175,-170 1181,-170 1181,-170 1211,-170 1211,-170 1217,-170 1223,-176 1223,-182 1223,-182 1223,-194 1223,-194 1223,-200 1217,-206 1211,-206"/>
<text text-anchor="middle" x="1196" y="-184.9" font-family="sans-serif" font-size="12.00">MVE</text>
</g>
<!-- Model Based&#45;&gt;MVE -->
<g id="edge65" class="edge">
<title>Model Based&#45;&gt;MVE</title>
<path fill="none" stroke="black" d="M1492.11,-1006.72C1486.21,-987.86 1478,-956.64 1478,-929 1478,-929 1478,-929 1478,-260 1478,-248.03 1477.48,-242.3 1468,-235 1426.32,-202.88 1283.62,-220.38 1233,-206 1232.9,-205.97 1232.8,-205.94 1232.69,-205.91"/>
<polygon fill="black" stroke="black" points="1233.72,-202.56 1223.12,-202.6 1231.42,-209.18 1233.72,-202.56"/>
</g>
<!-- STEVE -->
<g id="node56" class="node">
<title>STEVE</title>
<path fill="#dae8fc" stroke="black" stroke-width="2" d="M1286.5,-206C1286.5,-206 1253.5,-206 1253.5,-206 1247.5,-206 1241.5,-200 1241.5,-194 1241.5,-194 1241.5,-182 1241.5,-182 1241.5,-176 1247.5,-170 1253.5,-170 1253.5,-170 1286.5,-170 1286.5,-170 1292.5,-170 1298.5,-176 1298.5,-182 1298.5,-182 1298.5,-194 1298.5,-194 1298.5,-200 1292.5,-206 1286.5,-206"/>
<text text-anchor="middle" x="1270" y="-184.9" font-family="sans-serif" font-size="12.00">STEVE</text>
</g>
<!-- Model Based&#45;&gt;STEVE -->
<g id="edge66" class="edge">
<title>Model Based&#45;&gt;STEVE</title>
<path fill="none" stroke="black" d="M1498,-1006.84C1498,-987.81 1498,-956.21 1498,-929 1498,-929 1498,-929 1498,-260 1498,-175.3 1400.07,-224.91 1308.66,-205.39"/>
<polygon fill="black" stroke="black" points="1309.24,-201.93 1298.7,-202.97 1307.59,-208.73 1309.24,-201.93"/>
</g>
<!-- ME&#45;TRPO -->
<g id="node57" class="node">
<title>ME&#45;TRPO</title>
<path fill="#dae8fc" stroke="black" stroke-width="2" d="M1377,-206C1377,-206 1329,-206 1329,-206 1323,-206 1317,-200 1317,-194 1317,-194 1317,-182 1317,-182 1317,-176 1323,-170 1329,-170 1329,-170 1377,-170 1377,-170 1383,-170 1389,-176 1389,-182 1389,-182 1389,-194 1389,-194 1389,-200 1383,-206 1377,-206"/>
<text text-anchor="middle" x="1353" y="-184.9" font-family="sans-serif" font-size="12.00">ME&#45;TRPO</text>
</g>
<!-- Model Based&#45;&gt;ME&#45;TRPO -->
<g id="edge67" class="edge">
<title>Model Based&#45;&gt;ME&#45;TRPO</title>
<path fill="none" stroke="black" d="M1503.89,-1006.72C1509.79,-987.86 1518,-956.64 1518,-929 1518,-929 1518,-929 1518,-260 1518,-242.67 1516.55,-234.81 1503,-224 1466.34,-194.73 1444.3,-218.18 1399,-206 1398.9,-205.97 1398.8,-205.95 1398.7,-205.92"/>
<polygon fill="black" stroke="black" points="1399.79,-202.59 1389.21,-203.08 1397.79,-209.3 1399.79,-202.59"/>
</g>
<!-- MB&#45;MPO -->
<g id="node58" class="node">
<title>MB&#45;MPO</title>
<path fill="#dae8fc" stroke="black" stroke-width="2" d="M1460.5,-206C1460.5,-206 1419.5,-206 1419.5,-206 1413.5,-206 1407.5,-200 1407.5,-194 1407.5,-194 1407.5,-182 1407.5,-182 1407.5,-176 1413.5,-170 1419.5,-170 1419.5,-170 1460.5,-170 1460.5,-170 1466.5,-170 1472.5,-176 1472.5,-182 1472.5,-182 1472.5,-194 1472.5,-194 1472.5,-200 1466.5,-206 1460.5,-206"/>
<text text-anchor="middle" x="1440" y="-184.9" font-family="sans-serif" font-size="12.00">MB&#45;MPO</text>
</g>
<!-- Model Based&#45;&gt;MB&#45;MPO -->
<g id="edge68" class="edge">
<title>Model Based&#45;&gt;MB&#45;MPO</title>
<path fill="none" stroke="black" d="M1512.09,-1006.99C1516.08,-1001.51 1520.12,-995.24 1523,-989 1534.52,-964.04 1538,-956.49 1538,-929 1538,-929 1538,-929 1538,-260 1538,-242.67 1535.23,-236.28 1523,-224 1522.14,-223.13 1502.27,-214.75 1482.2,-206.4"/>
<polygon fill="black" stroke="black" points="1483.29,-203.07 1472.72,-202.47 1480.61,-209.53 1483.29,-203.07"/>
</g>
<!-- World Models -->
<g id="node59" class="node">
<title>World Models</title>
<path fill="#dae8fc" stroke="black" stroke-width="2" d="M1569,-206C1569,-206 1503,-206 1503,-206 1497,-206 1491,-200 1491,-194 1491,-194 1491,-182 1491,-182 1491,-176 1497,-170 1503,-170 1503,-170 1569,-170 1569,-170 1575,-170 1581,-176 1581,-182 1581,-182 1581,-194 1581,-194 1581,-200 1575,-206 1569,-206"/>
<text text-anchor="middle" x="1536" y="-184.9" font-family="sans-serif" font-size="12.00">World Models</text>
</g>
<!-- Model Based&#45;&gt;World Models -->
<g id="edge69" class="edge">
<title>Model Based&#45;&gt;World Models</title>
<path fill="none" stroke="black" d="M1525.97,-1006.9C1532.36,-1001.84 1538.57,-995.8 1543,-989 1558,-965.97 1558,-956.49 1558,-929 1558,-929 1558,-929 1558,-260 1558,-244.78 1553.33,-228.52 1548.29,-215.4"/>
<polygon fill="black" stroke="black" points="1551.49,-213.96 1544.44,-206.05 1545.02,-216.63 1551.49,-213.96"/>
</g>
<!-- PETS -->
<g id="node60" class="node">
<title>PETS</title>
<path fill="#dae8fc" stroke="black" stroke-width="2" d="M1641,-206C1641,-206 1611,-206 1611,-206 1605,-206 1599,-200 1599,-194 1599,-194 1599,-182 1599,-182 1599,-176 1605,-170 1611,-170 1611,-170 1641,-170 1641,-170 1647,-170 1653,-176 1653,-182 1653,-182 1653,-194 1653,-194 1653,-200 1647,-206 1641,-206"/>
<text text-anchor="middle" x="1626" y="-184.9" font-family="sans-serif" font-size="12.00">PETS</text>
</g>
<!-- Model Based&#45;&gt;PETS -->
<g id="edge70" class="edge">
<title>Model Based&#45;&gt;PETS</title>
<path fill="none" stroke="black" d="M1537.91,-1006.87C1567.24,-991.29 1602,-965.19 1602,-929 1602,-929 1602,-929 1602,-260 1602,-244.76 1607.03,-228.6 1612.48,-215.55"/>
<polygon fill="black" stroke="black" points="1615.75,-216.81 1616.65,-206.25 1609.36,-213.94 1615.75,-216.81"/>
</g>
<!-- SimPLe -->
<g id="node61" class="node">
<title>SimPLe</title>
<path fill="#dae8fc" stroke="black" stroke-width="2" d="M1604.5,-133C1604.5,-133 1569.5,-133 1569.5,-133 1563.5,-133 1557.5,-127 1557.5,-121 1557.5,-121 1557.5,-109 1557.5,-109 1557.5,-103 1563.5,-97 1569.5,-97 1569.5,-97 1604.5,-97 1604.5,-97 1610.5,-97 1616.5,-103 1616.5,-109 1616.5,-109 1616.5,-121 1616.5,-121 1616.5,-127 1610.5,-133 1604.5,-133"/>
<text text-anchor="middle" x="1587" y="-111.9" font-family="sans-serif" font-size="12.00">SimPLe</text>
</g>
<!-- Model Based&#45;&gt;SimPLe -->
<g id="edge71" class="edge">
<title>Model Based&#45;&gt;SimPLe</title>
<path fill="none" stroke="black" d="M1541.91,-1019.15C1593.45,-1010.73 1672,-988.2 1672,-929 1672,-929 1672,-929 1672,-187 1672,-175.03 1669.71,-171.15 1662,-162 1652.08,-150.24 1638.35,-140.61 1625.35,-133.25"/>
<polygon fill="black" stroke="black" points="1626.99,-130.16 1616.52,-128.53 1623.68,-136.33 1626.99,-130.16"/>
</g>
<!-- MuZero -->
<g id="node62" class="node">
<title>MuZero</title>
<path fill="#dae8fc" stroke="black" stroke-width="2" d="M1681,-133C1681,-133 1647,-133 1647,-133 1641,-133 1635,-127 1635,-121 1635,-121 1635,-109 1635,-109 1635,-103 1641,-97 1647,-97 1647,-97 1681,-97 1681,-97 1687,-97 1693,-103 1693,-109 1693,-109 1693,-121 1693,-121 1693,-127 1687,-133 1681,-133"/>
<text text-anchor="middle" x="1664" y="-111.9" font-family="sans-serif" font-size="12.00">MuZero</text>
</g>
<!-- Model Based&#45;&gt;MuZero -->
<g id="edge72" class="edge">
<title>Model Based&#45;&gt;MuZero</title>
<path fill="none" stroke="black" d="M1541.54,-1021.46C1598.74,-1015.49 1692,-995.57 1692,-929 1692,-929 1692,-929 1692,-187 1692,-171.33 1686.02,-154.98 1679.59,-141.93"/>
<polygon fill="black" stroke="black" points="1682.67,-140.27 1674.91,-133.06 1676.48,-143.54 1682.67,-140.27"/>
</g>
<!-- DMRL -->
<g id="node64" class="node">
<title>DMRL</title>
<path fill="#dae8fc" stroke="black" stroke-width="2" d="M1759,-362C1759,-362 1729,-362 1729,-362 1723,-362 1717,-356 1717,-350 1717,-350 1717,-338 1717,-338 1717,-332 1723,-326 1729,-326 1729,-326 1759,-326 1759,-326 1765,-326 1771,-332 1771,-338 1771,-338 1771,-350 1771,-350 1771,-356 1765,-362 1759,-362"/>
<text text-anchor="middle" x="1744" y="-340.9" font-family="sans-serif" font-size="12.00">DMRL</text>
</g>
<!-- Meta&#45;RL&#45;&gt;DMRL -->
<g id="edge73" class="edge">
<title>Meta&#45;RL&#45;&gt;DMRL</title>
<path fill="none" stroke="black" d="M1801.95,-1006.99C1788.42,-988.84 1770,-958.69 1770,-929 1770,-929 1770,-929 1770,-416 1770,-400.62 1764.56,-384.45 1758.65,-371.43"/>
<polygon fill="black" stroke="black" points="1761.66,-369.61 1754.13,-362.16 1755.36,-372.68 1761.66,-369.61"/>
</g>
<!-- RL^2 -->
<g id="node65" class="node">
<title>RL^2</title>
<path fill="#dae8fc" stroke="black" stroke-width="2" d="M1831,-362C1831,-362 1801,-362 1801,-362 1795,-362 1789,-356 1789,-350 1789,-350 1789,-338 1789,-338 1789,-332 1795,-326 1801,-326 1801,-326 1831,-326 1831,-326 1837,-326 1843,-332 1843,-338 1843,-338 1843,-350 1843,-350 1843,-356 1837,-362 1831,-362"/>
<text text-anchor="middle" x="1816" y="-340.9" font-family="sans-serif" font-size="12.00">RL^2</text>
</g>
<!-- Meta&#45;RL&#45;&gt;RL^2 -->
<g id="edge74" class="edge">
<title>Meta&#45;RL&#45;&gt;RL^2</title>
<path fill="none" stroke="black" d="M1816,-1006.84C1816,-987.81 1816,-956.21 1816,-929 1816,-929 1816,-929 1816,-416 1816,-401.65 1816,-385.67 1816,-372.51"/>
<polygon fill="black" stroke="black" points="1819.5,-372.22 1816,-362.22 1812.5,-372.22 1819.5,-372.22"/>
</g>
<!-- MAML -->
<g id="node66" class="node">
<title>MAML</title>
<path fill="#dae8fc" stroke="black" stroke-width="2" d="M1799,-279C1799,-279 1769,-279 1769,-279 1763,-279 1757,-273 1757,-267 1757,-267 1757,-255 1757,-255 1757,-249 1763,-243 1769,-243 1769,-243 1799,-243 1799,-243 1805,-243 1811,-249 1811,-255 1811,-255 1811,-267 1811,-267 1811,-273 1805,-279 1799,-279"/>
<text text-anchor="middle" x="1784" y="-257.9" font-family="sans-serif" font-size="12.00">MAML</text>
</g>
<!-- Meta&#45;RL&#45;&gt;MAML -->
<g id="edge75" class="edge">
<title>Meta&#45;RL&#45;&gt;MAML</title>
<path fill="none" stroke="black" d="M1830.05,-1006.99C1843.58,-988.84 1862,-958.69 1862,-929 1862,-929 1862,-929 1862,-343 1862,-316.69 1840.39,-295.64 1819.92,-281.6"/>
<polygon fill="black" stroke="black" points="1821.58,-278.5 1811.28,-276.01 1817.78,-284.38 1821.58,-278.5"/>
</g>
<!-- SNAIL -->
<g id="node67" class="node">
<title>SNAIL</title>
<path fill="#dae8fc" stroke="black" stroke-width="2" d="M1871,-279C1871,-279 1841,-279 1841,-279 1835,-279 1829,-273 1829,-267 1829,-267 1829,-255 1829,-255 1829,-249 1835,-243 1841,-243 1841,-243 1871,-243 1871,-243 1877,-243 1883,-249 1883,-255 1883,-255 1883,-267 1883,-267 1883,-273 1877,-279 1871,-279"/>
<text text-anchor="middle" x="1856" y="-257.9" font-family="sans-serif" font-size="12.00">SNAIL</text>
</g>
<!-- Meta&#45;RL&#45;&gt;SNAIL -->
<g id="edge76" class="edge">
<title>Meta&#45;RL&#45;&gt;SNAIL</title>
<path fill="none" stroke="black" d="M1837.61,-1006.84C1856.86,-989.48 1882,-960.73 1882,-929 1882,-929 1882,-929 1882,-343 1882,-324.22 1875.59,-304.11 1869.13,-288.63"/>
<polygon fill="black" stroke="black" points="1872.2,-286.91 1864.95,-279.19 1865.8,-289.75 1872.2,-286.91"/>
</g>
</g>
</svg>
