<?xml version="1.0" encoding="UTF-8" standalone="no"?>
<!DOCTYPE svg PUBLIC "-//W3C//DTD SVG 1.1//EN"
 "http://www.w3.org/Graphics/SVG/1.1/DTD/svg11.dtd">
<!-- Generated by graphviz version 2.38.0 (20140413.2041)
 -->
<!-- Title: %3 Pages: 1 -->
<svg width="1305pt" height="841pt"
 viewBox="0.00 0.00 1305.00 841.36" xmlns="http://www.w3.org/2000/svg" xmlns:xlink="http://www.w3.org/1999/xlink">
<g id="graph0" class="graph" transform="scale(1 1) rotate(0) translate(4 837.357)">
<title>%3</title>
<polygon fill="white" stroke="none" points="-4,4 -4,-837.357 1301,-837.357 1301,4 -4,4"/>
<g id="clust1" class="cluster"><title>clusterValue Gradient</title>
<polygon fill="none" stroke="black" stroke-dasharray="5,2" points="179,-597.357 179,-825.357 1289,-825.357 1289,-597.357 179,-597.357"/>
<text text-anchor="middle" x="734" y="-810.157" font-family="Times New Roman,serif" font-size="14.00">Value Gradient</text>
</g>
<g id="clust2" class="cluster"><title>clusterPolicy Gradient/Actor&#45;Critic</title>
<polygon fill="none" stroke="black" stroke-dasharray="5,2" points="323,-72.357 323,-589.357 1122.5,-589.357 1122.5,-72.357 323,-72.357"/>
<text text-anchor="middle" x="722.75" y="-574.157" font-family="Times New Roman,serif" font-size="14.00">Policy Gradient/Actor&#45;Critic</text>
</g>
<!-- Reinforcement Learning -->
<g id="node1" class="node"><title>Reinforcement Learning</title>
<path fill="none" stroke="black" d="M12,-488.357C12,-488.357 138,-488.357 138,-488.357 144,-488.357 150,-494.357 150,-500.357 150,-500.357 150,-512.357 150,-512.357 150,-518.357 144,-524.357 138,-524.357 138,-524.357 12,-524.357 12,-524.357 6,-524.357 0,-518.357 0,-512.357 0,-512.357 0,-500.357 0,-500.357 0,-494.357 6,-488.357 12,-488.357"/>
<text text-anchor="middle" x="75" y="-502.657" font-family="Times New Roman,serif" font-size="14.00">Reinforcement Learning</text>
</g>
<!-- Value Gradient -->
<g id="node7" class="node"><title>Value Gradient</title>
<path fill="none" stroke="black" d="M199,-606.357C199,-606.357 275,-606.357 275,-606.357 281,-606.357 287,-612.357 287,-618.357 287,-618.357 287,-630.357 287,-630.357 287,-636.357 281,-642.357 275,-642.357 275,-642.357 199,-642.357 199,-642.357 193,-642.357 187,-636.357 187,-630.357 187,-630.357 187,-618.357 187,-618.357 187,-612.357 193,-606.357 199,-606.357"/>
<text text-anchor="middle" x="237" y="-620.657" font-family="Times New Roman,serif" font-size="14.00">Value Gradient</text>
</g>
<!-- Reinforcement Learning&#45;&gt;Value Gradient -->
<g id="edge42" class="edge"><title>Reinforcement Learning&#45;&gt;Value Gradient</title>
<path fill="none" stroke="black" d="M100.649,-524.536C124.86,-542.391 162.335,-570.029 191.72,-591.701"/>
<polygon fill="black" stroke="black" points="189.651,-594.523 199.776,-597.642 193.805,-588.89 189.651,-594.523"/>
</g>
<!-- Policy Gradient -->
<g id="node17" class="node"><title>Policy Gradient</title>
<path fill="none" stroke="black" d="M343,-303.357C343,-303.357 423,-303.357 423,-303.357 429,-303.357 435,-309.357 435,-315.357 435,-315.357 435,-327.357 435,-327.357 435,-333.357 429,-339.357 423,-339.357 423,-339.357 343,-339.357 343,-339.357 337,-339.357 331,-333.357 331,-327.357 331,-327.357 331,-315.357 331,-315.357 331,-309.357 337,-303.357 343,-303.357"/>
<text text-anchor="middle" x="383" y="-317.657" font-family="Times New Roman,serif" font-size="14.00">Policy Gradient</text>
</g>
<!-- Reinforcement Learning&#45;&gt;Policy Gradient -->
<g id="edge43" class="edge"><title>Reinforcement Learning&#45;&gt;Policy Gradient</title>
<path fill="none" stroke="black" d="M105.898,-488.282C153.944,-459.234 249.537,-401.441 314.63,-362.087"/>
<polygon fill="black" stroke="black" points="316.459,-365.071 323.206,-356.902 312.837,-359.081 316.459,-365.071"/>
</g>
<!-- DQN -->
<g id="node2" class="node"><title>DQN</title>
<path fill="none" stroke="black" d="M515,-661.357C515,-661.357 582,-661.357 582,-661.357 588,-661.357 594,-667.357 594,-673.357 594,-673.357 594,-685.357 594,-685.357 594,-691.357 588,-697.357 582,-697.357 582,-697.357 515,-697.357 515,-697.357 509,-697.357 503,-691.357 503,-685.357 503,-685.357 503,-673.357 503,-673.357 503,-667.357 509,-661.357 515,-661.357"/>
<text text-anchor="middle" x="526.5" y="-675.657" font-family="Times New Roman,serif" font-size="14.00">DQN</text>
<polyline fill="none" stroke="black" points="550,-661.357 550,-697.357 "/>
<text text-anchor="middle" x="572" y="-675.657" font-family="Times New Roman,serif" font-size="14.00">2013</text>
</g>
<!-- DDPG -->
<g id="node3" class="node"><title>DDPG</title>
<path fill="none" stroke="black" d="M725,-419.357C725,-419.357 800,-419.357 800,-419.357 806,-419.357 812,-425.357 812,-431.357 812,-431.357 812,-443.357 812,-443.357 812,-449.357 806,-455.357 800,-455.357 800,-455.357 725,-455.357 725,-455.357 719,-455.357 713,-449.357 713,-443.357 713,-443.357 713,-431.357 713,-431.357 713,-425.357 719,-419.357 725,-419.357"/>
<text text-anchor="middle" x="740.5" y="-433.657" font-family="Times New Roman,serif" font-size="14.00">DDPG</text>
<polyline fill="none" stroke="black" points="768,-419.357 768,-455.357 "/>
<text text-anchor="middle" x="790" y="-433.657" font-family="Times New Roman,serif" font-size="14.00">2015</text>
</g>
<!-- DQN&#45;&gt;DDPG -->
<g id="edge1" class="edge"><title>DQN&#45;&gt;DDPG</title>
<path fill="none" stroke="darkgray" stroke-dasharray="5,2" d="M565.434,-661.168C602.742,-618.581 695.855,-512.291 738.955,-463.092"/>
<polygon fill="darkgray" stroke="darkgray" points="741.713,-465.256 745.67,-455.427 736.448,-460.643 741.713,-465.256"/>
<text text-anchor="middle" x="658.5" y="-582.957" font-family="Times New Roman,serif" font-size="8.00">replay buffer</text>
</g>
<!-- ACER -->
<g id="node4" class="node"><title>ACER</title>
<path fill="none" stroke="black" d="M1010,-81.357C1010,-81.357 1084,-81.357 1084,-81.357 1090,-81.357 1096,-87.357 1096,-93.357 1096,-93.357 1096,-105.357 1096,-105.357 1096,-111.357 1090,-117.357 1084,-117.357 1084,-117.357 1010,-117.357 1010,-117.357 1004,-117.357 998,-111.357 998,-105.357 998,-105.357 998,-93.357 998,-93.357 998,-87.357 1004,-81.357 1010,-81.357"/>
<text text-anchor="middle" x="1025" y="-95.657" font-family="Times New Roman,serif" font-size="14.00">ACER</text>
<polyline fill="none" stroke="black" points="1052,-81.357 1052,-117.357 "/>
<text text-anchor="middle" x="1074" y="-95.657" font-family="Times New Roman,serif" font-size="14.00">2017</text>
</g>
<!-- DQN&#45;&gt;ACER -->
<g id="edge2" class="edge"><title>DQN&#45;&gt;ACER</title>
<path fill="none" stroke="darkgray" stroke-dasharray="5,2" d="M568.721,-661.12C584.583,-644.891 606.316,-619.705 618,-593.357 663.186,-491.464 614.058,-170.529 699,-98.357 779.404,-30.0405 912.202,-55.6665 988.073,-78.6718"/>
<polygon fill="darkgray" stroke="darkgray" points="987.35,-82.1124 997.939,-81.7459 989.433,-75.4293 987.35,-82.1124"/>
<text text-anchor="middle" x="762.5" y="-100.957" font-family="Times New Roman,serif" font-size="8.00">replay buffer, workers</text>
</g>
<!-- DDQN -->
<g id="node5" class="node"><title>DDQN</title>
<path fill="none" stroke="black" d="M724.5,-606.357C724.5,-606.357 800.5,-606.357 800.5,-606.357 806.5,-606.357 812.5,-612.357 812.5,-618.357 812.5,-618.357 812.5,-630.357 812.5,-630.357 812.5,-636.357 806.5,-642.357 800.5,-642.357 800.5,-642.357 724.5,-642.357 724.5,-642.357 718.5,-642.357 712.5,-636.357 712.5,-630.357 712.5,-630.357 712.5,-618.357 712.5,-618.357 712.5,-612.357 718.5,-606.357 724.5,-606.357"/>
<text text-anchor="middle" x="740.5" y="-620.657" font-family="Times New Roman,serif" font-size="14.00">DDQN</text>
<polyline fill="none" stroke="black" points="768.5,-606.357 768.5,-642.357 "/>
<text text-anchor="middle" x="790.5" y="-620.657" font-family="Times New Roman,serif" font-size="14.00">2015</text>
</g>
<!-- DQN&#45;&gt;DDQN -->
<g id="edge8" class="edge"><title>DQN&#45;&gt;DDQN</title>
<path fill="none" stroke="black" d="M594.201,-667.76C625.712,-659.585 668.236,-648.553 702.525,-639.657"/>
<polygon fill="black" stroke="black" points="703.62,-642.989 712.42,-637.09 701.862,-636.213 703.62,-642.989"/>
</g>
<!-- DRQN -->
<g id="node10" class="node"><title>DRQN</title>
<path fill="none" stroke="black" d="M724.5,-661.357C724.5,-661.357 800.5,-661.357 800.5,-661.357 806.5,-661.357 812.5,-667.357 812.5,-673.357 812.5,-673.357 812.5,-685.357 812.5,-685.357 812.5,-691.357 806.5,-697.357 800.5,-697.357 800.5,-697.357 724.5,-697.357 724.5,-697.357 718.5,-697.357 712.5,-691.357 712.5,-685.357 712.5,-685.357 712.5,-673.357 712.5,-673.357 712.5,-667.357 718.5,-661.357 724.5,-661.357"/>
<text text-anchor="middle" x="740.5" y="-675.657" font-family="Times New Roman,serif" font-size="14.00">DRQN</text>
<polyline fill="none" stroke="black" points="768.5,-661.357 768.5,-697.357 "/>
<text text-anchor="middle" x="790.5" y="-675.657" font-family="Times New Roman,serif" font-size="14.00">2015</text>
</g>
<!-- DQN&#45;&gt;DRQN -->
<g id="edge7" class="edge"><title>DQN&#45;&gt;DRQN</title>
<path fill="none" stroke="black" d="M594.201,-679.357C625.577,-679.357 667.871,-679.357 702.083,-679.357"/>
<polygon fill="black" stroke="black" points="702.42,-682.857 712.42,-679.357 702.42,-675.857 702.42,-682.857"/>
</g>
<!-- PER -->
<g id="node11" class="node"><title>PER</title>
<path fill="none" stroke="black" d="M870,-673.357C870,-673.357 933,-673.357 933,-673.357 939,-673.357 945,-679.357 945,-685.357 945,-685.357 945,-697.357 945,-697.357 945,-703.357 939,-709.357 933,-709.357 933,-709.357 870,-709.357 870,-709.357 864,-709.357 858,-703.357 858,-697.357 858,-697.357 858,-685.357 858,-685.357 858,-679.357 864,-673.357 870,-673.357"/>
<text text-anchor="middle" x="879.5" y="-687.657" font-family="Times New Roman,serif" font-size="14.00">PER</text>
<polyline fill="none" stroke="black" points="901,-673.357 901,-709.357 "/>
<text text-anchor="middle" x="923" y="-687.657" font-family="Times New Roman,serif" font-size="14.00">2015</text>
</g>
<!-- DQN&#45;&gt;PER -->
<g id="edge9" class="edge"><title>DQN&#45;&gt;PER</title>
<path fill="none" stroke="black" d="M594.007,-689.929C623.577,-696.399 663.373,-704.049 699,-707.357 755.203,-712.575 769.871,-713.316 826,-707.357 833.145,-706.598 840.611,-705.442 847.941,-704.09"/>
<polygon fill="black" stroke="black" points="848.675,-707.512 857.809,-702.144 847.321,-700.644 848.675,-707.512"/>
</g>
<!-- QR&#45;DQN -->
<g id="node12" class="node"><title>QR&#45;DQN</title>
<path fill="none" stroke="black" d="M856,-717.357C856,-717.357 947,-717.357 947,-717.357 953,-717.357 959,-723.357 959,-729.357 959,-729.357 959,-741.357 959,-741.357 959,-747.357 953,-753.357 947,-753.357 947,-753.357 856,-753.357 856,-753.357 850,-753.357 844,-747.357 844,-741.357 844,-741.357 844,-729.357 844,-729.357 844,-723.357 850,-717.357 856,-717.357"/>
<text text-anchor="middle" x="879.5" y="-731.657" font-family="Times New Roman,serif" font-size="14.00">QR&#45;DQN</text>
<polyline fill="none" stroke="black" points="915,-717.357 915,-753.357 "/>
<text text-anchor="middle" x="937" y="-731.657" font-family="Times New Roman,serif" font-size="14.00">2017</text>
</g>
<!-- DQN&#45;&gt;QR&#45;DQN -->
<g id="edge10" class="edge"><title>DQN&#45;&gt;QR&#45;DQN</title>
<path fill="none" stroke="black" d="M594.439,-695.032C607.696,-699.206 622.319,-703.378 636,-706.357 702.469,-720.833 779.989,-728.25 833.851,-731.94"/>
<polygon fill="black" stroke="black" points="833.753,-735.441 843.962,-732.608 834.214,-728.457 833.753,-735.441"/>
</g>
<!-- DQN+HER -->
<g id="node13" class="node"><title>DQN+HER</title>
<path fill="none" stroke="black" d="M711,-757.357C711,-757.357 814,-757.357 814,-757.357 820,-757.357 826,-763.357 826,-769.357 826,-769.357 826,-781.357 826,-781.357 826,-787.357 820,-793.357 814,-793.357 814,-793.357 711,-793.357 711,-793.357 705,-793.357 699,-787.357 699,-781.357 699,-781.357 699,-769.357 699,-769.357 699,-763.357 705,-757.357 711,-757.357"/>
<text text-anchor="middle" x="740.5" y="-771.657" font-family="Times New Roman,serif" font-size="14.00">DQN+HER</text>
<polyline fill="none" stroke="black" points="782,-757.357 782,-793.357 "/>
<text text-anchor="middle" x="804" y="-771.657" font-family="Times New Roman,serif" font-size="14.00">2017</text>
</g>
<!-- DQN&#45;&gt;DQN+HER -->
<g id="edge11" class="edge"><title>DQN&#45;&gt;DQN+HER</title>
<path fill="none" stroke="black" d="M569.774,-697.524C586.47,-711.609 611.33,-730.643 636,-742.357 652.57,-750.225 671.295,-756.426 689.129,-761.225"/>
<polygon fill="black" stroke="black" points="688.368,-764.643 698.925,-763.749 690.114,-757.865 688.368,-764.643"/>
</g>
<!-- TD3 -->
<g id="node6" class="node"><title>TD3</title>
<path fill="none" stroke="black" d="M1016,-521.357C1016,-521.357 1078,-521.357 1078,-521.357 1084,-521.357 1090,-527.357 1090,-533.357 1090,-533.357 1090,-545.357 1090,-545.357 1090,-551.357 1084,-557.357 1078,-557.357 1078,-557.357 1016,-557.357 1016,-557.357 1010,-557.357 1004,-551.357 1004,-545.357 1004,-545.357 1004,-533.357 1004,-533.357 1004,-527.357 1010,-521.357 1016,-521.357"/>
<text text-anchor="middle" x="1025" y="-535.657" font-family="Times New Roman,serif" font-size="14.00">TD3</text>
<polyline fill="none" stroke="black" points="1046,-521.357 1046,-557.357 "/>
<text text-anchor="middle" x="1068" y="-535.657" font-family="Times New Roman,serif" font-size="14.00">2018</text>
</g>
<!-- DDPG&#45;&gt;TD3 -->
<g id="edge31" class="edge"><title>DDPG&#45;&gt;TD3</title>
<path fill="none" stroke="black" d="M812.063,-454.891C862.749,-473.192 941.943,-501.786 993.907,-520.548"/>
<polygon fill="black" stroke="black" points="993.005,-523.944 1003.6,-524.048 995.382,-517.36 993.005,-523.944"/>
</g>
<!-- DDPG+HER -->
<g id="node26" class="node"><title>DDPG+HER</title>
<path fill="none" stroke="black" d="M991.5,-411.357C991.5,-411.357 1102.5,-411.357 1102.5,-411.357 1108.5,-411.357 1114.5,-417.357 1114.5,-423.357 1114.5,-423.357 1114.5,-435.357 1114.5,-435.357 1114.5,-441.357 1108.5,-447.357 1102.5,-447.357 1102.5,-447.357 991.5,-447.357 991.5,-447.357 985.5,-447.357 979.5,-441.357 979.5,-435.357 979.5,-435.357 979.5,-423.357 979.5,-423.357 979.5,-417.357 985.5,-411.357 991.5,-411.357"/>
<text text-anchor="middle" x="1025" y="-425.657" font-family="Times New Roman,serif" font-size="14.00">DDPG+HER</text>
<polyline fill="none" stroke="black" points="1070.5,-411.357 1070.5,-447.357 "/>
<text text-anchor="middle" x="1092.5" y="-425.657" font-family="Times New Roman,serif" font-size="14.00">2017</text>
</g>
<!-- DDPG&#45;&gt;DDPG+HER -->
<g id="edge28" class="edge"><title>DDPG&#45;&gt;DDPG+HER</title>
<path fill="none" stroke="darkgray" stroke-dasharray="5,2" d="M812.063,-435.982C855.233,-434.759 919.082,-432.951 969.175,-431.533"/>
<polygon fill="darkgray" stroke="darkgray" points="969.424,-435.027 979.32,-431.245 969.225,-428.03 969.424,-435.027"/>
</g>
<!-- MADDPG -->
<g id="node27" class="node"><title>MADDPG</title>
<path fill="none" stroke="black" d="M998.5,-466.357C998.5,-466.357 1095.5,-466.357 1095.5,-466.357 1101.5,-466.357 1107.5,-472.357 1107.5,-478.357 1107.5,-478.357 1107.5,-490.357 1107.5,-490.357 1107.5,-496.357 1101.5,-502.357 1095.5,-502.357 1095.5,-502.357 998.5,-502.357 998.5,-502.357 992.5,-502.357 986.5,-496.357 986.5,-490.357 986.5,-490.357 986.5,-478.357 986.5,-478.357 986.5,-472.357 992.5,-466.357 998.5,-466.357"/>
<text text-anchor="middle" x="1025" y="-480.657" font-family="Times New Roman,serif" font-size="14.00">MADDPG</text>
<polyline fill="none" stroke="black" points="1063.5,-466.357 1063.5,-502.357 "/>
<text text-anchor="middle" x="1085.5" y="-480.657" font-family="Times New Roman,serif" font-size="14.00">2017</text>
</g>
<!-- DDPG&#45;&gt;MADDPG -->
<g id="edge29" class="edge"><title>DDPG&#45;&gt;MADDPG</title>
<path fill="none" stroke="black" d="M812.063,-445.437C857.32,-452.966 925.303,-464.276 976.338,-472.767"/>
<polygon fill="black" stroke="black" points="975.869,-476.237 986.308,-474.426 977.018,-469.332 975.869,-476.237"/>
</g>
<!-- D4PG -->
<g id="node28" class="node"><title>D4PG</title>
<path fill="none" stroke="black" d="M1011,-356.357C1011,-356.357 1083,-356.357 1083,-356.357 1089,-356.357 1095,-362.357 1095,-368.357 1095,-368.357 1095,-380.357 1095,-380.357 1095,-386.357 1089,-392.357 1083,-392.357 1083,-392.357 1011,-392.357 1011,-392.357 1005,-392.357 999,-386.357 999,-380.357 999,-380.357 999,-368.357 999,-368.357 999,-362.357 1005,-356.357 1011,-356.357"/>
<text text-anchor="middle" x="1025" y="-370.657" font-family="Times New Roman,serif" font-size="14.00">D4PG</text>
<polyline fill="none" stroke="black" points="1051,-356.357 1051,-392.357 "/>
<text text-anchor="middle" x="1073" y="-370.657" font-family="Times New Roman,serif" font-size="14.00">2018</text>
</g>
<!-- DDPG&#45;&gt;D4PG -->
<g id="edge30" class="edge"><title>DDPG&#45;&gt;D4PG</title>
<path fill="none" stroke="black" d="M812.063,-426.527C861.017,-415.61 936.563,-398.762 988.486,-387.183"/>
<polygon fill="black" stroke="black" points="989.542,-390.534 998.54,-384.941 988.018,-383.702 989.542,-390.534"/>
</g>
<!-- DDQN&#45;&gt;TD3 -->
<g id="edge3" class="edge"><title>DDQN&#45;&gt;TD3</title>
<path fill="none" stroke="darkgray" stroke-dasharray="5,2" d="M812.708,-609.551C863.498,-594.269 942.412,-570.525 994.152,-554.957"/>
<polygon fill="darkgray" stroke="darkgray" points="995.235,-558.287 1003.8,-552.054 993.218,-551.583 995.235,-558.287"/>
<text text-anchor="middle" x="901.5" y="-601.957" font-family="Times New Roman,serif" font-size="8.00">double Q&#45;learning</text>
</g>
<!-- Duelling&#45;DQN -->
<g id="node14" class="node"><title>Duelling&#45;DQN</title>
<path fill="none" stroke="black" d="M989,-606.357C989,-606.357 1105,-606.357 1105,-606.357 1111,-606.357 1117,-612.357 1117,-618.357 1117,-618.357 1117,-630.357 1117,-630.357 1117,-636.357 1111,-642.357 1105,-642.357 1105,-642.357 989,-642.357 989,-642.357 983,-642.357 977,-636.357 977,-630.357 977,-630.357 977,-618.357 977,-618.357 977,-612.357 983,-606.357 989,-606.357"/>
<text text-anchor="middle" x="1025" y="-620.657" font-family="Times New Roman,serif" font-size="14.00">Duelling&#45;DQN</text>
<polyline fill="none" stroke="black" points="1073,-606.357 1073,-642.357 "/>
<text text-anchor="middle" x="1095" y="-620.657" font-family="Times New Roman,serif" font-size="14.00">2016</text>
</g>
<!-- DDQN&#45;&gt;Duelling&#45;DQN -->
<g id="edge12" class="edge"><title>DDQN&#45;&gt;Duelling&#45;DQN</title>
<path fill="none" stroke="black" d="M812.708,-624.357C855.227,-624.357 917.455,-624.357 966.951,-624.357"/>
<polygon fill="black" stroke="black" points="966.989,-627.857 976.989,-624.357 966.989,-620.857 966.989,-627.857"/>
</g>
<!-- RAINBOW -->
<g id="node15" class="node"><title>RAINBOW</title>
<path fill="none" stroke="black" d="M1166,-644.357C1166,-644.357 1269,-644.357 1269,-644.357 1275,-644.357 1281,-650.357 1281,-656.357 1281,-656.357 1281,-668.357 1281,-668.357 1281,-674.357 1275,-680.357 1269,-680.357 1269,-680.357 1166,-680.357 1166,-680.357 1160,-680.357 1154,-674.357 1154,-668.357 1154,-668.357 1154,-656.357 1154,-656.357 1154,-650.357 1160,-644.357 1166,-644.357"/>
<text text-anchor="middle" x="1195.5" y="-658.657" font-family="Times New Roman,serif" font-size="14.00">RAINBOW</text>
<polyline fill="none" stroke="black" points="1237,-644.357 1237,-680.357 "/>
<text text-anchor="middle" x="1259" y="-658.657" font-family="Times New Roman,serif" font-size="14.00">2017</text>
</g>
<!-- DDQN&#45;&gt;RAINBOW -->
<g id="edge13" class="edge"><title>DDQN&#45;&gt;RAINBOW</title>
<path fill="none" stroke="darkgray" stroke-dasharray="5,2" d="M812.565,-631.694C855.762,-637.882 920.42,-646.488 977,-651.357 1032.83,-656.161 1096.17,-658.955 1143.69,-660.524"/>
<polygon fill="darkgray" stroke="darkgray" points="1143.77,-664.028 1153.88,-660.849 1144,-657.032 1143.77,-664.028"/>
</g>
<!-- SARSA -->
<g id="node8" class="node"><title>SARSA</title>
<path fill="none" stroke="black" d="M342,-606.357C342,-606.357 424,-606.357 424,-606.357 430,-606.357 436,-612.357 436,-618.357 436,-618.357 436,-630.357 436,-630.357 436,-636.357 430,-642.357 424,-642.357 424,-642.357 342,-642.357 342,-642.357 336,-642.357 330,-636.357 330,-630.357 330,-630.357 330,-618.357 330,-618.357 330,-612.357 336,-606.357 342,-606.357"/>
<text text-anchor="middle" x="361" y="-620.657" font-family="Times New Roman,serif" font-size="14.00">SARSA</text>
<polyline fill="none" stroke="black" points="392,-606.357 392,-642.357 "/>
<text text-anchor="middle" x="414" y="-620.657" font-family="Times New Roman,serif" font-size="14.00">1994</text>
</g>
<!-- Value Gradient&#45;&gt;SARSA -->
<g id="edge4" class="edge"><title>Value Gradient&#45;&gt;SARSA</title>
<path fill="none" stroke="black" d="M287.154,-624.357C297.527,-624.357 308.605,-624.357 319.398,-624.357"/>
<polygon fill="black" stroke="black" points="319.624,-627.857 329.624,-624.357 319.624,-620.857 319.624,-627.857"/>
</g>
<!-- Q&#45;learning -->
<g id="node9" class="node"><title>Q&#45;learning</title>
<path fill="none" stroke="black" d="M336,-661.357C336,-661.357 430,-661.357 430,-661.357 436,-661.357 442,-667.357 442,-673.357 442,-673.357 442,-685.357 442,-685.357 442,-691.357 436,-697.357 430,-697.357 430,-697.357 336,-697.357 336,-697.357 330,-697.357 324,-691.357 324,-685.357 324,-685.357 324,-673.357 324,-673.357 324,-667.357 330,-661.357 336,-661.357"/>
<text text-anchor="middle" x="361" y="-675.657" font-family="Times New Roman,serif" font-size="14.00">Q&#45;learning</text>
<polyline fill="none" stroke="black" points="398,-661.357 398,-697.357 "/>
<text text-anchor="middle" x="420" y="-675.657" font-family="Times New Roman,serif" font-size="14.00">1989</text>
</g>
<!-- Value Gradient&#45;&gt;Q&#45;learning -->
<g id="edge5" class="edge"><title>Value Gradient&#45;&gt;Q&#45;learning</title>
<path fill="none" stroke="black" d="M285.151,-642.366C297.956,-647.257 311.956,-652.604 325.232,-657.675"/>
<polygon fill="black" stroke="black" points="324.152,-661.009 334.743,-661.307 326.65,-654.47 324.152,-661.009"/>
</g>
<!-- Q&#45;learning&#45;&gt;DQN -->
<g id="edge6" class="edge"><title>Q&#45;learning&#45;&gt;DQN</title>
<path fill="none" stroke="black" d="M442.104,-679.357C458.518,-679.357 476.324,-679.357 492.546,-679.357"/>
<polygon fill="black" stroke="black" points="492.948,-682.857 502.948,-679.357 492.948,-675.857 492.948,-682.857"/>
</g>
<!-- PER&#45;&gt;RAINBOW -->
<g id="edge14" class="edge"><title>PER&#45;&gt;RAINBOW</title>
<path fill="none" stroke="darkgray" stroke-dasharray="5,2" d="M945.174,-687.416C996.162,-682.707 1082.29,-674.753 1143.83,-669.069"/>
<polygon fill="darkgray" stroke="darkgray" points="1144.23,-672.546 1153.87,-668.142 1143.59,-665.576 1144.23,-672.546"/>
</g>
<!-- QR&#45;DQN&#45;&gt;RAINBOW -->
<g id="edge16" class="edge"><title>QR&#45;DQN&#45;&gt;RAINBOW</title>
<path fill="none" stroke="darkgray" stroke-dasharray="5,2" d="M959.363,-722.137C1011.13,-710.102 1087.82,-692.272 1143.98,-679.216"/>
<polygon fill="darkgray" stroke="darkgray" points="1144.92,-682.592 1153.87,-676.918 1143.33,-675.774 1144.92,-682.592"/>
</g>
<!-- Duelling&#45;DQN&#45;&gt;RAINBOW -->
<g id="edge15" class="edge"><title>Duelling&#45;DQN&#45;&gt;RAINBOW</title>
<path fill="none" stroke="darkgray" stroke-dasharray="5,2" d="M1117.02,-639.923C1125.87,-641.918 1134.95,-643.966 1143.85,-645.974"/>
<polygon fill="darkgray" stroke="darkgray" points="1143.29,-649.434 1153.81,-648.219 1144.83,-642.605 1143.29,-649.434"/>
</g>
<!-- A3C -->
<g id="node16" class="node"><title>A3C</title>
<path fill="none" stroke="black" d="M517,-86.357C517,-86.357 580,-86.357 580,-86.357 586,-86.357 592,-92.357 592,-98.357 592,-98.357 592,-110.357 592,-110.357 592,-116.357 586,-122.357 580,-122.357 580,-122.357 517,-122.357 517,-122.357 511,-122.357 505,-116.357 505,-110.357 505,-110.357 505,-98.357 505,-98.357 505,-92.357 511,-86.357 517,-86.357"/>
<text text-anchor="middle" x="526.5" y="-100.657" font-family="Times New Roman,serif" font-size="14.00">A3C</text>
<polyline fill="none" stroke="black" points="548,-86.357 548,-122.357 "/>
<text text-anchor="middle" x="570" y="-100.657" font-family="Times New Roman,serif" font-size="14.00">2016</text>
</g>
<!-- A3C&#45;&gt;ACER -->
<g id="edge36" class="edge"><title>A3C&#45;&gt;ACER</title>
<path fill="none" stroke="black" d="M592.007,-101.476C621.913,-99.5982 662.884,-97.3226 699,-96.357 800.534,-93.6423 918.834,-95.8044 987.779,-97.5973"/>
<polygon fill="black" stroke="black" points="987.908,-101.102 997.998,-97.8698 988.094,-94.1044 987.908,-101.102"/>
</g>
<!-- A3C&#45;&gt;RAINBOW -->
<g id="edge17" class="edge"><title>A3C&#45;&gt;RAINBOW</title>
<path fill="none" stroke="darkgray" stroke-dasharray="5,2" d="M586.326,-86.2576C687.769,-39.284 973.586,73.1571 1122.5,-71.357 1204.22,-150.665 1214.91,-527.529 1216.3,-634.178"/>
<polygon fill="darkgray" stroke="darkgray" points="1212.8,-634.226 1216.41,-644.187 1219.8,-634.148 1212.8,-634.226"/>
</g>
<!-- A2C -->
<g id="node30" class="node"><title>A2C</title>
<path fill="none" stroke="black" d="M731,-146.357C731,-146.357 794,-146.357 794,-146.357 800,-146.357 806,-152.357 806,-158.357 806,-158.357 806,-170.357 806,-170.357 806,-176.357 800,-182.357 794,-182.357 794,-182.357 731,-182.357 731,-182.357 725,-182.357 719,-176.357 719,-170.357 719,-170.357 719,-158.357 719,-158.357 719,-152.357 725,-146.357 731,-146.357"/>
<text text-anchor="middle" x="740.5" y="-160.657" font-family="Times New Roman,serif" font-size="14.00">A2C</text>
<polyline fill="none" stroke="black" points="762,-146.357 762,-182.357 "/>
<text text-anchor="middle" x="784" y="-160.657" font-family="Times New Roman,serif" font-size="14.00">2017</text>
</g>
<!-- A3C&#45;&gt;A2C -->
<g id="edge35" class="edge"><title>A3C&#45;&gt;A2C</title>
<path fill="none" stroke="black" d="M592.146,-116.427C625.856,-125.967 673.067,-139.329 709.081,-149.522"/>
<polygon fill="black" stroke="black" points="708.347,-152.951 718.922,-152.307 710.253,-146.216 708.347,-152.951"/>
</g>
<!-- Policy Gradient&#45;&gt;A3C -->
<g id="edge22" class="edge"><title>Policy Gradient&#45;&gt;A3C</title>
<path fill="none" stroke="black" d="M388.974,-303.171C399.715,-266.975 428.294,-185.202 479,-136.357 483.954,-131.585 489.751,-127.425 495.837,-123.828"/>
<polygon fill="black" stroke="black" points="497.749,-126.773 504.897,-118.953 494.432,-120.609 497.749,-126.773"/>
</g>
<!-- REINFORCE -->
<g id="node18" class="node"><title>REINFORCE</title>
<path fill="none" stroke="black" d="M491,-146.357C491,-146.357 606,-146.357 606,-146.357 612,-146.357 618,-152.357 618,-158.357 618,-158.357 618,-170.357 618,-170.357 618,-176.357 612,-182.357 606,-182.357 606,-182.357 491,-182.357 491,-182.357 485,-182.357 479,-176.357 479,-170.357 479,-170.357 479,-158.357 479,-158.357 479,-152.357 485,-146.357 491,-146.357"/>
<text text-anchor="middle" x="526.5" y="-160.657" font-family="Times New Roman,serif" font-size="14.00">REINFORCE</text>
<polyline fill="none" stroke="black" points="574,-146.357 574,-182.357 "/>
<text text-anchor="middle" x="596" y="-160.657" font-family="Times New Roman,serif" font-size="14.00">1992</text>
</g>
<!-- Policy Gradient&#45;&gt;REINFORCE -->
<g id="edge18" class="edge"><title>Policy Gradient&#45;&gt;REINFORCE</title>
<path fill="none" stroke="black" d="M390.677,-303.162C401.369,-276.406 424.776,-226.476 460,-197.357 464.569,-193.58 469.615,-190.209 474.909,-187.205"/>
<polygon fill="black" stroke="black" points="476.743,-190.197 484.012,-182.489 473.523,-183.981 476.743,-190.197"/>
</g>
<!-- DPG -->
<g id="node19" class="node"><title>DPG</title>
<path fill="none" stroke="black" d="M516,-393.357C516,-393.357 581,-393.357 581,-393.357 587,-393.357 593,-399.357 593,-405.357 593,-405.357 593,-417.357 593,-417.357 593,-423.357 587,-429.357 581,-429.357 581,-429.357 516,-429.357 516,-429.357 510,-429.357 504,-423.357 504,-417.357 504,-417.357 504,-405.357 504,-405.357 504,-399.357 510,-393.357 516,-393.357"/>
<text text-anchor="middle" x="526.5" y="-407.657" font-family="Times New Roman,serif" font-size="14.00">DPG</text>
<polyline fill="none" stroke="black" points="549,-393.357 549,-429.357 "/>
<text text-anchor="middle" x="571" y="-407.657" font-family="Times New Roman,serif" font-size="14.00">2014</text>
</g>
<!-- Policy Gradient&#45;&gt;DPG -->
<g id="edge19" class="edge"><title>Policy Gradient&#45;&gt;DPG</title>
<path fill="none" stroke="black" d="M404.839,-339.542C419.523,-351.696 440.049,-367.404 460,-378.357 470.674,-384.217 482.604,-389.476 494.137,-393.983"/>
<polygon fill="black" stroke="black" points="493.104,-397.334 503.696,-397.588 495.575,-390.784 493.104,-397.334"/>
</g>
<!-- TRPO -->
<g id="node20" class="node"><title>TRPO</title>
<path fill="none" stroke="black" d="M511.5,-266.357C511.5,-266.357 585.5,-266.357 585.5,-266.357 591.5,-266.357 597.5,-272.357 597.5,-278.357 597.5,-278.357 597.5,-290.357 597.5,-290.357 597.5,-296.357 591.5,-302.357 585.5,-302.357 585.5,-302.357 511.5,-302.357 511.5,-302.357 505.5,-302.357 499.5,-296.357 499.5,-290.357 499.5,-290.357 499.5,-278.357 499.5,-278.357 499.5,-272.357 505.5,-266.357 511.5,-266.357"/>
<text text-anchor="middle" x="526.5" y="-280.657" font-family="Times New Roman,serif" font-size="14.00">TRPO</text>
<polyline fill="none" stroke="black" points="553.5,-266.357 553.5,-302.357 "/>
<text text-anchor="middle" x="575.5" y="-280.657" font-family="Times New Roman,serif" font-size="14.00">2015</text>
</g>
<!-- Policy Gradient&#45;&gt;TRPO -->
<g id="edge20" class="edge"><title>Policy Gradient&#45;&gt;TRPO</title>
<path fill="none" stroke="black" d="M435.284,-309.751C452.429,-305.872 471.659,-301.52 489.293,-297.529"/>
<polygon fill="black" stroke="black" points="490.482,-300.849 499.462,-295.228 488.936,-294.021 490.482,-300.849"/>
</g>
<!-- GAE -->
<g id="node21" class="node"><title>GAE</title>
<path fill="none" stroke="black" d="M730,-222.357C730,-222.357 795,-222.357 795,-222.357 801,-222.357 807,-228.357 807,-234.357 807,-234.357 807,-246.357 807,-246.357 807,-252.357 801,-258.357 795,-258.357 795,-258.357 730,-258.357 730,-258.357 724,-258.357 718,-252.357 718,-246.357 718,-246.357 718,-234.357 718,-234.357 718,-228.357 724,-222.357 730,-222.357"/>
<text text-anchor="middle" x="740.5" y="-236.657" font-family="Times New Roman,serif" font-size="14.00">GAE</text>
<polyline fill="none" stroke="black" points="763,-222.357 763,-258.357 "/>
<text text-anchor="middle" x="785" y="-236.657" font-family="Times New Roman,serif" font-size="14.00">2015</text>
</g>
<!-- Policy Gradient&#45;&gt;GAE -->
<g id="edge21" class="edge"><title>Policy Gradient&#45;&gt;GAE</title>
<path fill="none" stroke="black" d="M403.352,-303.349C421.407,-287.787 449.868,-266.28 479,-256.357 555.108,-230.432 649.373,-231.117 707.468,-234.983"/>
<polygon fill="black" stroke="black" points="707.303,-238.48 717.529,-235.709 707.807,-231.498 707.303,-238.48"/>
</g>
<!-- ACKTR -->
<g id="node22" class="node"><title>ACKTR</title>
<path fill="none" stroke="black" d="M1004.5,-191.357C1004.5,-191.357 1089.5,-191.357 1089.5,-191.357 1095.5,-191.357 1101.5,-197.357 1101.5,-203.357 1101.5,-203.357 1101.5,-215.357 1101.5,-215.357 1101.5,-221.357 1095.5,-227.357 1089.5,-227.357 1089.5,-227.357 1004.5,-227.357 1004.5,-227.357 998.5,-227.357 992.5,-221.357 992.5,-215.357 992.5,-215.357 992.5,-203.357 992.5,-203.357 992.5,-197.357 998.5,-191.357 1004.5,-191.357"/>
<text text-anchor="middle" x="1025" y="-205.657" font-family="Times New Roman,serif" font-size="14.00">ACKTR</text>
<polyline fill="none" stroke="black" points="1057.5,-191.357 1057.5,-227.357 "/>
<text text-anchor="middle" x="1079.5" y="-205.657" font-family="Times New Roman,serif" font-size="14.00">2017</text>
</g>
<!-- Policy Gradient&#45;&gt;ACKTR -->
<g id="edge23" class="edge"><title>Policy Gradient&#45;&gt;ACKTR</title>
<path fill="none" stroke="black" d="M435.008,-324.762C535.077,-330.904 753.675,-341.509 826,-322.357 900.659,-302.587 907.301,-269.627 977,-236.357 980.555,-234.66 984.247,-232.983 987.993,-231.344"/>
<polygon fill="black" stroke="black" points="989.528,-234.495 997.364,-227.364 986.792,-228.052 989.528,-234.495"/>
</g>
<!-- SVPG -->
<g id="node23" class="node"><title>SVPG</title>
<path fill="none" stroke="black" d="M1010.5,-136.357C1010.5,-136.357 1083.5,-136.357 1083.5,-136.357 1089.5,-136.357 1095.5,-142.357 1095.5,-148.357 1095.5,-148.357 1095.5,-160.357 1095.5,-160.357 1095.5,-166.357 1089.5,-172.357 1083.5,-172.357 1083.5,-172.357 1010.5,-172.357 1010.5,-172.357 1004.5,-172.357 998.5,-166.357 998.5,-160.357 998.5,-160.357 998.5,-148.357 998.5,-148.357 998.5,-142.357 1004.5,-136.357 1010.5,-136.357"/>
<text text-anchor="middle" x="1025" y="-150.657" font-family="Times New Roman,serif" font-size="14.00">SVPG</text>
<polyline fill="none" stroke="black" points="1051.5,-136.357 1051.5,-172.357 "/>
<text text-anchor="middle" x="1073.5" y="-150.657" font-family="Times New Roman,serif" font-size="14.00">2017</text>
</g>
<!-- Policy Gradient&#45;&gt;SVPG -->
<g id="edge24" class="edge"><title>Policy Gradient&#45;&gt;SVPG</title>
<path fill="none" stroke="black" d="M397.055,-303.022C413.482,-281.548 443.837,-246.821 479,-230.357 619.549,-164.548 672.309,-212.901 826,-191.357 881.333,-183.6 944.167,-172.836 988.475,-164.917"/>
<polygon fill="black" stroke="black" points="989.256,-168.333 998.48,-163.121 988.019,-161.443 989.256,-168.333"/>
</g>
<!-- SAC -->
<g id="node24" class="node"><title>SAC</title>
<path fill="none" stroke="black" d="M1015,-301.357C1015,-301.357 1079,-301.357 1079,-301.357 1085,-301.357 1091,-307.357 1091,-313.357 1091,-313.357 1091,-325.357 1091,-325.357 1091,-331.357 1085,-337.357 1079,-337.357 1079,-337.357 1015,-337.357 1015,-337.357 1009,-337.357 1003,-331.357 1003,-325.357 1003,-325.357 1003,-313.357 1003,-313.357 1003,-307.357 1009,-301.357 1015,-301.357"/>
<text text-anchor="middle" x="1025" y="-315.657" font-family="Times New Roman,serif" font-size="14.00">SAC</text>
<polyline fill="none" stroke="black" points="1047,-301.357 1047,-337.357 "/>
<text text-anchor="middle" x="1069" y="-315.657" font-family="Times New Roman,serif" font-size="14.00">2018</text>
</g>
<!-- Policy Gradient&#45;&gt;SAC -->
<g id="edge25" class="edge"><title>Policy Gradient&#45;&gt;SAC</title>
<path fill="none" stroke="black" d="M413.162,-339.412C426.844,-346.851 443.698,-354.6 460,-358.357 568.059,-383.263 850.882,-379.005 959,-354.357 967.536,-352.411 968.922,-349.731 977,-346.357 982.323,-344.134 987.898,-341.861 993.474,-339.625"/>
<polygon fill="black" stroke="black" points="994.816,-342.858 1002.81,-335.909 992.229,-336.353 994.816,-342.858"/>
</g>
<!-- IMPALA -->
<g id="node25" class="node"><title>IMPALA</title>
<path fill="none" stroke="black" d="M1002.5,-246.357C1002.5,-246.357 1091.5,-246.357 1091.5,-246.357 1097.5,-246.357 1103.5,-252.357 1103.5,-258.357 1103.5,-258.357 1103.5,-270.357 1103.5,-270.357 1103.5,-276.357 1097.5,-282.357 1091.5,-282.357 1091.5,-282.357 1002.5,-282.357 1002.5,-282.357 996.5,-282.357 990.5,-276.357 990.5,-270.357 990.5,-270.357 990.5,-258.357 990.5,-258.357 990.5,-252.357 996.5,-246.357 1002.5,-246.357"/>
<text text-anchor="middle" x="1025" y="-260.657" font-family="Times New Roman,serif" font-size="14.00">IMPALA</text>
<polyline fill="none" stroke="black" points="1059.5,-246.357 1059.5,-282.357 "/>
<text text-anchor="middle" x="1081.5" y="-260.657" font-family="Times New Roman,serif" font-size="14.00">2018</text>
</g>
<!-- Policy Gradient&#45;&gt;IMPALA -->
<g id="edge26" class="edge"><title>Policy Gradient&#45;&gt;IMPALA</title>
<path fill="none" stroke="black" d="M435.253,-334.427C443.478,-336.059 451.937,-337.466 460,-338.357 621.683,-356.219 665.469,-364.632 826,-338.357 857.607,-333.184 934.783,-305.905 988.752,-285.966"/>
<polygon fill="black" stroke="black" points="990.048,-289.219 998.207,-282.46 987.614,-282.655 990.048,-289.219"/>
</g>
<!-- DPG&#45;&gt;DDPG -->
<g id="edge27" class="edge"><title>DPG&#45;&gt;DDPG</title>
<path fill="none" stroke="black" d="M593.154,-413.902C618.806,-415.672 651.824,-418.429 681,-422.357 688.071,-423.309 695.463,-424.464 702.779,-425.707"/>
<polygon fill="black" stroke="black" points="702.217,-429.161 712.671,-427.443 703.427,-422.267 702.217,-429.161"/>
</g>
<!-- TRPO&#45;&gt;ACER -->
<g id="edge33" class="edge"><title>TRPO&#45;&gt;ACER</title>
<path fill="none" stroke="darkgray" stroke-dasharray="5,2" d="M563.866,-266.303C594.33,-228.546 665.371,-143.403 699,-127.357 724.335,-115.269 895.654,-105.979 987.726,-101.792"/>
<polygon fill="darkgray" stroke="darkgray" points="987.901,-105.288 997.734,-101.343 987.587,-98.2953 987.901,-105.288"/>
<text text-anchor="middle" x="762.5" y="-129.957" font-family="Times New Roman,serif" font-size="8.00">TRPO technique</text>
</g>
<!-- TRPO&#45;&gt;GAE -->
<g id="edge32" class="edge"><title>TRPO&#45;&gt;GAE</title>
<path fill="none" stroke="darkgray" stroke-dasharray="5,2" d="M597.606,-274.373C630.377,-267.571 673.798,-258.559 707.713,-251.52"/>
<polygon fill="darkgray" stroke="darkgray" points="708.831,-254.863 717.911,-249.404 707.408,-248.009 708.831,-254.863"/>
</g>
<!-- PPO -->
<g id="node29" class="node"><title>PPO</title>
<path fill="none" stroke="black" d="M730.5,-277.357C730.5,-277.357 794.5,-277.357 794.5,-277.357 800.5,-277.357 806.5,-283.357 806.5,-289.357 806.5,-289.357 806.5,-301.357 806.5,-301.357 806.5,-307.357 800.5,-313.357 794.5,-313.357 794.5,-313.357 730.5,-313.357 730.5,-313.357 724.5,-313.357 718.5,-307.357 718.5,-301.357 718.5,-301.357 718.5,-289.357 718.5,-289.357 718.5,-283.357 724.5,-277.357 730.5,-277.357"/>
<text text-anchor="middle" x="740.5" y="-291.657" font-family="Times New Roman,serif" font-size="14.00">PPO</text>
<polyline fill="none" stroke="black" points="762.5,-277.357 762.5,-313.357 "/>
<text text-anchor="middle" x="784.5" y="-291.657" font-family="Times New Roman,serif" font-size="14.00">2017</text>
</g>
<!-- TRPO&#45;&gt;PPO -->
<g id="edge34" class="edge"><title>TRPO&#45;&gt;PPO</title>
<path fill="none" stroke="darkgray" stroke-dasharray="5,2" d="M597.606,-286.853C630.488,-288.559 674.091,-290.822 708.056,-292.584"/>
<polygon fill="darkgray" stroke="darkgray" points="708.097,-296.091 718.265,-293.114 708.46,-289.1 708.097,-296.091"/>
</g>
<!-- PPO&#45;&gt;SAC -->
<!-- A2C&#45;&gt;ACER -->
<!-- A2C&#45;&gt;ACKTR -->
<!-- A2C&#45;&gt;SVPG -->
<!-- A2C&#45;&gt;IMPALA -->
</g>
</svg>
