<?xml version="1.0" encoding="UTF-8" standalone="no"?>
<!DOCTYPE svg PUBLIC "-//W3C//DTD SVG 1.1//EN"
 "http://www.w3.org/Graphics/SVG/1.1/DTD/svg11.dtd">
<!-- Generated by graphviz version 2.38.0 (20140413.2041)
 -->
<!-- Title: %3 Pages: 1 -->
<svg width="1751pt" height="875pt"
 viewBox="0.00 0.00 1751.00 875.00" xmlns="http://www.w3.org/2000/svg" xmlns:xlink="http://www.w3.org/1999/xlink">
<g id="graph0" class="graph" transform="scale(1 1) rotate(0) translate(4 871)">
<title>%3</title>
<polygon fill="white" stroke="none" points="-4,4 -4,-871 1747,-871 1747,4 -4,4"/>
<!-- 1989 -->
<g id="node1" class="node"><title>1989</title>
<text text-anchor="middle" x="27" y="-691.8" font-family="Times New Roman,serif" font-size="14.00">1989</text>
</g>
<!-- 1992 -->
<g id="node2" class="node"><title>1992</title>
<text text-anchor="middle" x="27" y="-607.8" font-family="Times New Roman,serif" font-size="14.00">1992</text>
</g>
<!-- 1989&#45;&gt;1992 -->
<g id="edge1" class="edge"><title>1989&#45;&gt;1992</title>
<path fill="none" stroke="black" d="M27,-677.11C27,-666.274 27,-652.101 27,-639.791"/>
<polygon fill="black" stroke="black" points="30.5001,-639.584 27,-629.584 23.5001,-639.584 30.5001,-639.584"/>
</g>
<!-- 1994 -->
<g id="node3" class="node"><title>1994</title>
<text text-anchor="middle" x="27" y="-523.8" font-family="Times New Roman,serif" font-size="14.00">1994</text>
</g>
<!-- 1992&#45;&gt;1994 -->
<g id="edge2" class="edge"><title>1992&#45;&gt;1994</title>
<path fill="none" stroke="black" d="M27,-593.11C27,-582.274 27,-568.101 27,-555.791"/>
<polygon fill="black" stroke="black" points="30.5001,-555.584 27,-545.584 23.5001,-555.584 30.5001,-555.584"/>
</g>
<!-- 2013 -->
<g id="node4" class="node"><title>2013</title>
<text text-anchor="middle" x="27" y="-439.8" font-family="Times New Roman,serif" font-size="14.00">2013</text>
</g>
<!-- 1994&#45;&gt;2013 -->
<g id="edge3" class="edge"><title>1994&#45;&gt;2013</title>
<path fill="none" stroke="black" d="M27,-509.11C27,-498.274 27,-484.101 27,-471.791"/>
<polygon fill="black" stroke="black" points="30.5001,-471.584 27,-461.584 23.5001,-471.584 30.5001,-471.584"/>
</g>
<!-- 2014 -->
<g id="node5" class="node"><title>2014</title>
<text text-anchor="middle" x="27" y="-355.8" font-family="Times New Roman,serif" font-size="14.00">2014</text>
</g>
<!-- 2013&#45;&gt;2014 -->
<g id="edge4" class="edge"><title>2013&#45;&gt;2014</title>
<path fill="none" stroke="black" d="M27,-425.11C27,-414.274 27,-400.101 27,-387.791"/>
<polygon fill="black" stroke="black" points="30.5001,-387.584 27,-377.584 23.5001,-387.584 30.5001,-387.584"/>
</g>
<!-- 2015 -->
<g id="node6" class="node"><title>2015</title>
<text text-anchor="middle" x="27" y="-271.8" font-family="Times New Roman,serif" font-size="14.00">2015</text>
</g>
<!-- 2014&#45;&gt;2015 -->
<g id="edge5" class="edge"><title>2014&#45;&gt;2015</title>
<path fill="none" stroke="black" d="M27,-341.11C27,-330.274 27,-316.101 27,-303.791"/>
<polygon fill="black" stroke="black" points="30.5001,-303.584 27,-293.584 23.5001,-303.584 30.5001,-303.584"/>
</g>
<!-- 2016 -->
<g id="node7" class="node"><title>2016</title>
<text text-anchor="middle" x="27" y="-187.8" font-family="Times New Roman,serif" font-size="14.00">2016</text>
</g>
<!-- 2015&#45;&gt;2016 -->
<g id="edge6" class="edge"><title>2015&#45;&gt;2016</title>
<path fill="none" stroke="black" d="M27,-257.11C27,-246.274 27,-232.101 27,-219.791"/>
<polygon fill="black" stroke="black" points="30.5001,-219.584 27,-209.584 23.5001,-219.584 30.5001,-219.584"/>
</g>
<!-- 2017 -->
<g id="node8" class="node"><title>2017</title>
<text text-anchor="middle" x="27" y="-103.8" font-family="Times New Roman,serif" font-size="14.00">2017</text>
</g>
<!-- 2016&#45;&gt;2017 -->
<g id="edge7" class="edge"><title>2016&#45;&gt;2017</title>
<path fill="none" stroke="black" d="M27,-173.11C27,-162.274 27,-148.101 27,-135.791"/>
<polygon fill="black" stroke="black" points="30.5001,-135.584 27,-125.584 23.5001,-135.584 30.5001,-135.584"/>
</g>
<!-- 2018 -->
<g id="node9" class="node"><title>2018</title>
<text text-anchor="middle" x="27" y="-19.8" font-family="Times New Roman,serif" font-size="14.00">2018</text>
</g>
<!-- 2017&#45;&gt;2018 -->
<g id="edge8" class="edge"><title>2017&#45;&gt;2018</title>
<path fill="none" stroke="black" d="M27,-89.1099C27,-78.2743 27,-64.1012 27,-51.7913"/>
<polygon fill="black" stroke="black" points="30.5001,-51.5838 27,-41.5838 23.5001,-51.5839 30.5001,-51.5838"/>
</g>
<!-- Reinforcement Learning -->
<g id="node10" class="node"><title>Reinforcement Learning</title>
<path fill="none" stroke="black" d="M1209,-830.5C1209,-830.5 1335,-830.5 1335,-830.5 1341,-830.5 1347,-836.5 1347,-842.5 1347,-842.5 1347,-854.5 1347,-854.5 1347,-860.5 1341,-866.5 1335,-866.5 1335,-866.5 1209,-866.5 1209,-866.5 1203,-866.5 1197,-860.5 1197,-854.5 1197,-854.5 1197,-842.5 1197,-842.5 1197,-836.5 1203,-830.5 1209,-830.5"/>
<text text-anchor="middle" x="1272" y="-844.8" font-family="Times New Roman,serif" font-size="14.00">Reinforcement Learning</text>
</g>
<!-- Value Based -->
<g id="node11" class="node"><title>Value Based</title>
<path fill="none" stroke="black" d="M749,-756.5C749,-756.5 811,-756.5 811,-756.5 817,-756.5 823,-762.5 823,-768.5 823,-768.5 823,-780.5 823,-780.5 823,-786.5 817,-792.5 811,-792.5 811,-792.5 749,-792.5 749,-792.5 743,-792.5 737,-786.5 737,-780.5 737,-780.5 737,-768.5 737,-768.5 737,-762.5 743,-756.5 749,-756.5"/>
<text text-anchor="middle" x="780" y="-770.8" font-family="Times New Roman,serif" font-size="14.00">Value Based</text>
</g>
<!-- Reinforcement Learning&#45;&gt;Value Based -->
<g id="edge9" class="edge"><title>Reinforcement Learning&#45;&gt;Value Based</title>
<path fill="none" stroke="black" d="M1196.74,-836.486C1096.27,-821.784 920.835,-796.11 833.11,-783.272"/>
<polygon fill="black" stroke="black" points="833.514,-779.794 823.113,-781.809 832.501,-786.72 833.514,-779.794"/>
</g>
<!-- Policy Based -->
<g id="node12" class="node"><title>Policy Based</title>
<path fill="none" stroke="black" d="M1506,-756.5C1506,-756.5 1572,-756.5 1572,-756.5 1578,-756.5 1584,-762.5 1584,-768.5 1584,-768.5 1584,-780.5 1584,-780.5 1584,-786.5 1578,-792.5 1572,-792.5 1572,-792.5 1506,-792.5 1506,-792.5 1500,-792.5 1494,-786.5 1494,-780.5 1494,-780.5 1494,-768.5 1494,-768.5 1494,-762.5 1500,-756.5 1506,-756.5"/>
<text text-anchor="middle" x="1539" y="-770.8" font-family="Times New Roman,serif" font-size="14.00">Policy Based</text>
</g>
<!-- Reinforcement Learning&#45;&gt;Policy Based -->
<g id="edge11" class="edge"><title>Reinforcement Learning&#45;&gt;Policy Based</title>
<path fill="none" stroke="black" d="M1335.28,-830.437C1380.48,-818.246 1440.71,-802.004 1483.94,-790.348"/>
<polygon fill="black" stroke="black" points="1484.97,-793.694 1493.72,-787.711 1483.15,-786.936 1484.97,-793.694"/>
</g>
<!-- Actor Critic -->
<g id="node13" class="node"><title>Actor Critic</title>
<path fill="none" stroke="black" d="M1242.5,-756.5C1242.5,-756.5 1301.5,-756.5 1301.5,-756.5 1307.5,-756.5 1313.5,-762.5 1313.5,-768.5 1313.5,-768.5 1313.5,-780.5 1313.5,-780.5 1313.5,-786.5 1307.5,-792.5 1301.5,-792.5 1301.5,-792.5 1242.5,-792.5 1242.5,-792.5 1236.5,-792.5 1230.5,-786.5 1230.5,-780.5 1230.5,-780.5 1230.5,-768.5 1230.5,-768.5 1230.5,-762.5 1236.5,-756.5 1242.5,-756.5"/>
<text text-anchor="middle" x="1272" y="-770.8" font-family="Times New Roman,serif" font-size="14.00">Actor Critic</text>
</g>
<!-- Reinforcement Learning&#45;&gt;Actor Critic -->
<g id="edge10" class="edge"><title>Reinforcement Learning&#45;&gt;Actor Critic</title>
<path fill="none" stroke="black" d="M1272,-830.437C1272,-822.307 1272,-812.376 1272,-803.205"/>
<polygon fill="black" stroke="black" points="1275.5,-802.941 1272,-792.941 1268.5,-802.941 1275.5,-802.941"/>
</g>
<!-- Q&#45;learning -->
<g id="node14" class="node"><title>Q&#45;learning</title>
<path fill="none" stroke="black" d="M733.5,-672.5C733.5,-672.5 826.5,-672.5 826.5,-672.5 832.5,-672.5 838.5,-678.5 838.5,-684.5 838.5,-684.5 838.5,-706.5 838.5,-706.5 838.5,-712.5 832.5,-718.5 826.5,-718.5 826.5,-718.5 733.5,-718.5 733.5,-718.5 727.5,-718.5 721.5,-712.5 721.5,-706.5 721.5,-706.5 721.5,-684.5 721.5,-684.5 721.5,-678.5 727.5,-672.5 733.5,-672.5"/>
<text text-anchor="middle" x="780" y="-703.3" font-family="Times New Roman,serif" font-size="14.00">Q&#45;learning</text>
<polyline fill="none" stroke="black" points="721.5,-695.5 838.5,-695.5 "/>
<text text-anchor="middle" x="743.5" y="-680.3" font-family="Times New Roman,serif" font-size="14.00">OFP</text>
<polyline fill="none" stroke="black" points="765.5,-672.5 765.5,-695.5 "/>
<text text-anchor="middle" x="783.5" y="-680.3" font-family="Times New Roman,serif" font-size="14.00">DA</text>
<polyline fill="none" stroke="black" points="801.5,-672.5 801.5,-695.5 "/>
<text text-anchor="middle" x="820" y="-680.3" font-family="Times New Roman,serif" font-size="14.00">QV</text>
</g>
<!-- Value Based&#45;&gt;Q&#45;learning -->
<g id="edge13" class="edge"><title>Value Based&#45;&gt;Q&#45;learning</title>
<path fill="none" stroke="black" d="M780,-756.411C780,-748.212 780,-738.113 780,-728.558"/>
<polygon fill="black" stroke="black" points="783.5,-728.52 780,-718.52 776.5,-728.52 783.5,-728.52"/>
</g>
<!-- SARSA -->
<g id="node16" class="node"><title>SARSA</title>
<path fill="none" stroke="black" d="M664.5,-504.5C664.5,-504.5 721.5,-504.5 721.5,-504.5 727.5,-504.5 733.5,-510.5 733.5,-516.5 733.5,-516.5 733.5,-538.5 733.5,-538.5 733.5,-544.5 727.5,-550.5 721.5,-550.5 721.5,-550.5 664.5,-550.5 664.5,-550.5 658.5,-550.5 652.5,-544.5 652.5,-538.5 652.5,-538.5 652.5,-516.5 652.5,-516.5 652.5,-510.5 658.5,-504.5 664.5,-504.5"/>
<text text-anchor="middle" x="693" y="-535.3" font-family="Times New Roman,serif" font-size="14.00">SARSA</text>
<polyline fill="none" stroke="black" points="652.5,-527.5 733.5,-527.5 "/>
<text text-anchor="middle" x="675" y="-512.3" font-family="Times New Roman,serif" font-size="14.00">ONP</text>
<polyline fill="none" stroke="black" points="697.5,-504.5 697.5,-527.5 "/>
<text text-anchor="middle" x="715.5" y="-512.3" font-family="Times New Roman,serif" font-size="14.00">DA</text>
</g>
<!-- Value Based&#45;&gt;SARSA -->
<g id="edge12" class="edge"><title>Value Based&#45;&gt;SARSA</title>
<path fill="none" stroke="black" d="M748.744,-756.268C735.119,-747.06 720.372,-734.424 712,-719 684.841,-668.962 685.52,-600.596 688.944,-560.832"/>
<polygon fill="black" stroke="black" points="692.449,-560.945 689.935,-550.652 685.482,-560.266 692.449,-560.945"/>
</g>
<!-- REINFORCE -->
<g id="node15" class="node"><title>REINFORCE</title>
<path fill="none" stroke="black" d="M1601,-588.5C1601,-588.5 1731,-588.5 1731,-588.5 1737,-588.5 1743,-594.5 1743,-600.5 1743,-600.5 1743,-622.5 1743,-622.5 1743,-628.5 1737,-634.5 1731,-634.5 1731,-634.5 1601,-634.5 1601,-634.5 1595,-634.5 1589,-628.5 1589,-622.5 1589,-622.5 1589,-600.5 1589,-600.5 1589,-594.5 1595,-588.5 1601,-588.5"/>
<text text-anchor="middle" x="1666" y="-619.3" font-family="Times New Roman,serif" font-size="14.00">REINFORCE</text>
<polyline fill="none" stroke="black" points="1589,-611.5 1743,-611.5 "/>
<text text-anchor="middle" x="1608" y="-596.3" font-family="Times New Roman,serif" font-size="14.00">MC</text>
<polyline fill="none" stroke="black" points="1627,-588.5 1627,-611.5 "/>
<text text-anchor="middle" x="1649.5" y="-596.3" font-family="Times New Roman,serif" font-size="14.00">ONP</text>
<polyline fill="none" stroke="black" points="1672,-588.5 1672,-611.5 "/>
<text text-anchor="middle" x="1689.5" y="-596.3" font-family="Times New Roman,serif" font-size="14.00">CS</text>
<polyline fill="none" stroke="black" points="1707,-588.5 1707,-611.5 "/>
<text text-anchor="middle" x="1725" y="-596.3" font-family="Times New Roman,serif" font-size="14.00">DA</text>
</g>
<!-- Policy Based&#45;&gt;REINFORCE -->
<g id="edge19" class="edge"><title>Policy Based&#45;&gt;REINFORCE</title>
<path fill="none" stroke="black" d="M1557.54,-756.362C1563.34,-750.706 1569.62,-744.258 1575,-738 1601.48,-707.191 1628.37,-669.084 1645.98,-642.996"/>
<polygon fill="black" stroke="black" points="1648.92,-644.892 1651.58,-634.637 1643.1,-640.995 1648.92,-644.892"/>
</g>
<!-- DPG -->
<g id="node18" class="node"><title>DPG</title>
<path fill="none" stroke="black" d="M877,-336.5C877,-336.5 1003,-336.5 1003,-336.5 1009,-336.5 1015,-342.5 1015,-348.5 1015,-348.5 1015,-370.5 1015,-370.5 1015,-376.5 1009,-382.5 1003,-382.5 1003,-382.5 877,-382.5 877,-382.5 871,-382.5 865,-376.5 865,-370.5 865,-370.5 865,-348.5 865,-348.5 865,-342.5 871,-336.5 877,-336.5"/>
<text text-anchor="middle" x="940" y="-367.3" font-family="Times New Roman,serif" font-size="14.00">DPG</text>
<polyline fill="none" stroke="black" points="865,-359.5 1015,-359.5 "/>
<text text-anchor="middle" x="887" y="-344.3" font-family="Times New Roman,serif" font-size="14.00">OFP</text>
<polyline fill="none" stroke="black" points="909,-336.5 909,-359.5 "/>
<text text-anchor="middle" x="926.5" y="-344.3" font-family="Times New Roman,serif" font-size="14.00">CS</text>
<polyline fill="none" stroke="black" points="944,-336.5 944,-359.5 "/>
<text text-anchor="middle" x="962" y="-344.3" font-family="Times New Roman,serif" font-size="14.00">CA</text>
<polyline fill="none" stroke="black" points="980,-336.5 980,-359.5 "/>
<text text-anchor="middle" x="997.5" y="-344.3" font-family="Times New Roman,serif" font-size="14.00">DP</text>
</g>
<!-- Actor Critic&#45;&gt;DPG -->
<g id="edge20" class="edge"><title>Actor Critic&#45;&gt;DPG</title>
<path fill="none" stroke="black" d="M1230.29,-771.478C1147.85,-766.337 972,-749.196 972,-696.5 972,-696.5 972,-696.5 972,-442.5 972,-424.95 965.56,-406.644 958.458,-391.791"/>
<polygon fill="black" stroke="black" points="961.418,-389.891 953.757,-382.573 955.182,-393.072 961.418,-389.891"/>
</g>
<!-- TRPO -->
<g id="node21" class="node"><title>TRPO</title>
<path fill="none" stroke="black" d="M1276,-252.5C1276,-252.5 1414,-252.5 1414,-252.5 1420,-252.5 1426,-258.5 1426,-264.5 1426,-264.5 1426,-286.5 1426,-286.5 1426,-292.5 1420,-298.5 1414,-298.5 1414,-298.5 1276,-298.5 1276,-298.5 1270,-298.5 1264,-292.5 1264,-286.5 1264,-286.5 1264,-264.5 1264,-264.5 1264,-258.5 1270,-252.5 1276,-252.5"/>
<text text-anchor="middle" x="1345" y="-283.3" font-family="Times New Roman,serif" font-size="14.00">TRPO</text>
<polyline fill="none" stroke="black" points="1264,-275.5 1426,-275.5 "/>
<text text-anchor="middle" x="1286.5" y="-260.3" font-family="Times New Roman,serif" font-size="14.00">ONP</text>
<polyline fill="none" stroke="black" points="1309,-252.5 1309,-275.5 "/>
<text text-anchor="middle" x="1326.5" y="-260.3" font-family="Times New Roman,serif" font-size="14.00">CS</text>
<polyline fill="none" stroke="black" points="1344,-252.5 1344,-275.5 "/>
<text text-anchor="middle" x="1362" y="-260.3" font-family="Times New Roman,serif" font-size="14.00">CA</text>
<polyline fill="none" stroke="black" points="1380,-252.5 1380,-275.5 "/>
<text text-anchor="middle" x="1403" y="-260.3" font-family="Times New Roman,serif" font-size="14.00">ADV</text>
</g>
<!-- Actor Critic&#45;&gt;TRPO -->
<g id="edge25" class="edge"><title>Actor Critic&#45;&gt;TRPO</title>
<path fill="none" stroke="black" d="M1285.78,-756.271C1296.3,-741.359 1309,-718.747 1309,-696.5 1309,-696.5 1309,-696.5 1309,-358.5 1309,-340.603 1316.28,-322.222 1324.29,-307.41"/>
<polygon fill="black" stroke="black" points="1327.36,-309.098 1329.31,-298.686 1321.29,-305.605 1327.36,-309.098"/>
</g>
<!-- A3C -->
<g id="node23" class="node"><title>A3C</title>
<path fill="none" stroke="black" d="M987,-168.5C987,-168.5 1125,-168.5 1125,-168.5 1131,-168.5 1137,-174.5 1137,-180.5 1137,-180.5 1137,-202.5 1137,-202.5 1137,-208.5 1131,-214.5 1125,-214.5 1125,-214.5 987,-214.5 987,-214.5 981,-214.5 975,-208.5 975,-202.5 975,-202.5 975,-180.5 975,-180.5 975,-174.5 981,-168.5 987,-168.5"/>
<text text-anchor="middle" x="1056" y="-199.3" font-family="Times New Roman,serif" font-size="14.00">A3C</text>
<polyline fill="none" stroke="black" points="975,-191.5 1137,-191.5 "/>
<text text-anchor="middle" x="997.5" y="-176.3" font-family="Times New Roman,serif" font-size="14.00">ONP</text>
<polyline fill="none" stroke="black" points="1020,-168.5 1020,-191.5 "/>
<text text-anchor="middle" x="1037.5" y="-176.3" font-family="Times New Roman,serif" font-size="14.00">CS</text>
<polyline fill="none" stroke="black" points="1055,-168.5 1055,-191.5 "/>
<text text-anchor="middle" x="1073" y="-176.3" font-family="Times New Roman,serif" font-size="14.00">CA</text>
<polyline fill="none" stroke="black" points="1091,-168.5 1091,-191.5 "/>
<text text-anchor="middle" x="1114" y="-176.3" font-family="Times New Roman,serif" font-size="14.00">ADV</text>
</g>
<!-- Actor Critic&#45;&gt;A3C -->
<g id="edge26" class="edge"><title>Actor Critic&#45;&gt;A3C</title>
<path fill="none" stroke="black" d="M1230.08,-772.668C1178.31,-769.157 1097,-754.422 1097,-696.5 1097,-696.5 1097,-696.5 1097,-274.5 1097,-256.31 1088.83,-238.02 1079.78,-223.343"/>
<polygon fill="black" stroke="black" points="1082.52,-221.137 1074.1,-214.705 1076.67,-224.983 1082.52,-221.137"/>
</g>
<!-- ACKTR -->
<g id="node29" class="node"><title>ACKTR</title>
<path fill="none" stroke="black" d="M1167,-84.5C1167,-84.5 1305,-84.5 1305,-84.5 1311,-84.5 1317,-90.5 1317,-96.5 1317,-96.5 1317,-118.5 1317,-118.5 1317,-124.5 1311,-130.5 1305,-130.5 1305,-130.5 1167,-130.5 1167,-130.5 1161,-130.5 1155,-124.5 1155,-118.5 1155,-118.5 1155,-96.5 1155,-96.5 1155,-90.5 1161,-84.5 1167,-84.5"/>
<text text-anchor="middle" x="1236" y="-115.3" font-family="Times New Roman,serif" font-size="14.00">ACKTR</text>
<polyline fill="none" stroke="black" points="1155,-107.5 1317,-107.5 "/>
<text text-anchor="middle" x="1177.5" y="-92.3" font-family="Times New Roman,serif" font-size="14.00">ONP</text>
<polyline fill="none" stroke="black" points="1200,-84.5 1200,-107.5 "/>
<text text-anchor="middle" x="1217.5" y="-92.3" font-family="Times New Roman,serif" font-size="14.00">CS</text>
<polyline fill="none" stroke="black" points="1235,-84.5 1235,-107.5 "/>
<text text-anchor="middle" x="1253" y="-92.3" font-family="Times New Roman,serif" font-size="14.00">CA</text>
<polyline fill="none" stroke="black" points="1271,-84.5 1271,-107.5 "/>
<text text-anchor="middle" x="1294" y="-92.3" font-family="Times New Roman,serif" font-size="14.00">ADV</text>
</g>
<!-- Actor Critic&#45;&gt;ACKTR -->
<g id="edge30" class="edge"><title>Actor Critic&#45;&gt;ACKTR</title>
<path fill="none" stroke="black" d="M1258.59,-756.213C1248.36,-741.267 1236,-718.635 1236,-696.5 1236,-696.5 1236,-696.5 1236,-190.5 1236,-174.233 1236,-156.151 1236,-141.115"/>
<polygon fill="black" stroke="black" points="1239.5,-140.774 1236,-130.774 1232.5,-140.774 1239.5,-140.774"/>
</g>
<!-- PPO -->
<g id="node30" class="node"><title>PPO</title>
<path fill="none" stroke="black" d="M1347,-84.5C1347,-84.5 1521,-84.5 1521,-84.5 1527,-84.5 1533,-90.5 1533,-96.5 1533,-96.5 1533,-118.5 1533,-118.5 1533,-124.5 1527,-130.5 1521,-130.5 1521,-130.5 1347,-130.5 1347,-130.5 1341,-130.5 1335,-124.5 1335,-118.5 1335,-118.5 1335,-96.5 1335,-96.5 1335,-90.5 1341,-84.5 1347,-84.5"/>
<text text-anchor="middle" x="1434" y="-115.3" font-family="Times New Roman,serif" font-size="14.00">PPO</text>
<polyline fill="none" stroke="black" points="1335,-107.5 1533,-107.5 "/>
<text text-anchor="middle" x="1357.5" y="-92.3" font-family="Times New Roman,serif" font-size="14.00">ONP</text>
<polyline fill="none" stroke="black" points="1380,-84.5 1380,-107.5 "/>
<text text-anchor="middle" x="1397.5" y="-92.3" font-family="Times New Roman,serif" font-size="14.00">CS</text>
<polyline fill="none" stroke="black" points="1415,-84.5 1415,-107.5 "/>
<text text-anchor="middle" x="1433" y="-92.3" font-family="Times New Roman,serif" font-size="14.00">DA</text>
<polyline fill="none" stroke="black" points="1451,-84.5 1451,-107.5 "/>
<text text-anchor="middle" x="1469" y="-92.3" font-family="Times New Roman,serif" font-size="14.00">CA</text>
<polyline fill="none" stroke="black" points="1487,-84.5 1487,-107.5 "/>
<text text-anchor="middle" x="1510" y="-92.3" font-family="Times New Roman,serif" font-size="14.00">ADV</text>
</g>
<!-- Actor Critic&#45;&gt;PPO -->
<g id="edge31" class="edge"><title>Actor Critic&#45;&gt;PPO</title>
<path fill="none" stroke="black" d="M1313.75,-773.354C1367.49,-770.712 1454,-757.055 1454,-696.5 1454,-696.5 1454,-696.5 1454,-190.5 1454,-173.713 1449.99,-155.529 1445.57,-140.56"/>
<polygon fill="black" stroke="black" points="1448.83,-139.252 1442.48,-130.767 1442.15,-141.357 1448.83,-139.252"/>
</g>
<!-- SAC -->
<g id="node32" class="node"><title>SAC</title>
<path fill="none" stroke="black" d="M1462.5,-0.5C1462.5,-0.5 1659.5,-0.5 1659.5,-0.5 1665.5,-0.5 1671.5,-6.5 1671.5,-12.5 1671.5,-12.5 1671.5,-34.5 1671.5,-34.5 1671.5,-40.5 1665.5,-46.5 1659.5,-46.5 1659.5,-46.5 1462.5,-46.5 1462.5,-46.5 1456.5,-46.5 1450.5,-40.5 1450.5,-34.5 1450.5,-34.5 1450.5,-12.5 1450.5,-12.5 1450.5,-6.5 1456.5,-0.5 1462.5,-0.5"/>
<text text-anchor="middle" x="1561" y="-31.3" font-family="Times New Roman,serif" font-size="14.00">SAC</text>
<polyline fill="none" stroke="black" points="1450.5,-23.5 1671.5,-23.5 "/>
<text text-anchor="middle" x="1472.5" y="-8.3" font-family="Times New Roman,serif" font-size="14.00">OFP</text>
<polyline fill="none" stroke="black" points="1494.5,-0.5 1494.5,-23.5 "/>
<text text-anchor="middle" x="1512" y="-8.3" font-family="Times New Roman,serif" font-size="14.00">CS</text>
<polyline fill="none" stroke="black" points="1529.5,-0.5 1529.5,-23.5 "/>
<text text-anchor="middle" x="1547.5" y="-8.3" font-family="Times New Roman,serif" font-size="14.00">CA</text>
<polyline fill="none" stroke="black" points="1565.5,-0.5 1565.5,-23.5 "/>
<text text-anchor="middle" x="1583.5" y="-8.3" font-family="Times New Roman,serif" font-size="14.00">CA</text>
<polyline fill="none" stroke="black" points="1601.5,-0.5 1601.5,-23.5 "/>
<text text-anchor="middle" x="1620" y="-8.3" font-family="Times New Roman,serif" font-size="14.00">QV</text>
<polyline fill="none" stroke="black" points="1638.5,-0.5 1638.5,-23.5 "/>
<text text-anchor="middle" x="1655" y="-8.3" font-family="Times New Roman,serif" font-size="14.00">SP</text>
</g>
<!-- Actor Critic&#45;&gt;SAC -->
<g id="edge33" class="edge"><title>Actor Critic&#45;&gt;SAC</title>
<path fill="none" stroke="black" d="M1313.71,-771.069C1393.75,-765.256 1561,-747.061 1561,-696.5 1561,-696.5 1561,-696.5 1561,-106.5 1561,-90.233 1561,-72.1508 1561,-57.1147"/>
<polygon fill="black" stroke="black" points="1564.5,-56.774 1561,-46.774 1557.5,-56.774 1564.5,-56.774"/>
</g>
<!-- DQN -->
<g id="node17" class="node"><title>DQN</title>
<path fill="none" stroke="black" d="M477.5,-420.5C477.5,-420.5 640.5,-420.5 640.5,-420.5 646.5,-420.5 652.5,-426.5 652.5,-432.5 652.5,-432.5 652.5,-454.5 652.5,-454.5 652.5,-460.5 646.5,-466.5 640.5,-466.5 640.5,-466.5 477.5,-466.5 477.5,-466.5 471.5,-466.5 465.5,-460.5 465.5,-454.5 465.5,-454.5 465.5,-432.5 465.5,-432.5 465.5,-426.5 471.5,-420.5 477.5,-420.5"/>
<text text-anchor="middle" x="559" y="-451.3" font-family="Times New Roman,serif" font-size="14.00">DQN</text>
<polyline fill="none" stroke="black" points="465.5,-443.5 652.5,-443.5 "/>
<text text-anchor="middle" x="487.5" y="-428.3" font-family="Times New Roman,serif" font-size="14.00">OFP</text>
<polyline fill="none" stroke="black" points="509.5,-420.5 509.5,-443.5 "/>
<text text-anchor="middle" x="527" y="-428.3" font-family="Times New Roman,serif" font-size="14.00">CS</text>
<polyline fill="none" stroke="black" points="544.5,-420.5 544.5,-443.5 "/>
<text text-anchor="middle" x="562.5" y="-428.3" font-family="Times New Roman,serif" font-size="14.00">DA</text>
<polyline fill="none" stroke="black" points="580.5,-420.5 580.5,-443.5 "/>
<text text-anchor="middle" x="599" y="-428.3" font-family="Times New Roman,serif" font-size="14.00">QV</text>
<polyline fill="none" stroke="black" points="617.5,-420.5 617.5,-443.5 "/>
<text text-anchor="middle" x="635" y="-428.3" font-family="Times New Roman,serif" font-size="14.00">RB</text>
</g>
<!-- Q&#45;learning&#45;&gt;DQN -->
<g id="edge14" class="edge"><title>Q&#45;learning&#45;&gt;DQN</title>
<path fill="none" stroke="black" d="M782.235,-672.284C784.881,-633.199 784.459,-551.764 742,-504 721.56,-481.006 692.145,-466.856 662.857,-458.162"/>
<polygon fill="black" stroke="black" points="663.514,-454.712 652.942,-455.418 661.647,-461.459 663.514,-454.712"/>
</g>
<!-- DDQN -->
<g id="node19" class="node"><title>DDQN</title>
<path fill="none" stroke="black" d="M411,-252.5C411,-252.5 539,-252.5 539,-252.5 545,-252.5 551,-258.5 551,-264.5 551,-264.5 551,-286.5 551,-286.5 551,-292.5 545,-298.5 539,-298.5 539,-298.5 411,-298.5 411,-298.5 405,-298.5 399,-292.5 399,-286.5 399,-286.5 399,-264.5 399,-264.5 399,-258.5 405,-252.5 411,-252.5"/>
<text text-anchor="middle" x="475" y="-283.3" font-family="Times New Roman,serif" font-size="14.00">DDQN</text>
<polyline fill="none" stroke="black" points="399,-275.5 551,-275.5 "/>
<text text-anchor="middle" x="421" y="-260.3" font-family="Times New Roman,serif" font-size="14.00">OFP</text>
<polyline fill="none" stroke="black" points="443,-252.5 443,-275.5 "/>
<text text-anchor="middle" x="460.5" y="-260.3" font-family="Times New Roman,serif" font-size="14.00">CS</text>
<polyline fill="none" stroke="black" points="478,-252.5 478,-275.5 "/>
<text text-anchor="middle" x="496" y="-260.3" font-family="Times New Roman,serif" font-size="14.00">DA</text>
<polyline fill="none" stroke="black" points="514,-252.5 514,-275.5 "/>
<text text-anchor="middle" x="532.5" y="-260.3" font-family="Times New Roman,serif" font-size="14.00">QV</text>
</g>
<!-- DQN&#45;&gt;DDQN -->
<g id="edge15" class="edge"><title>DQN&#45;&gt;DDQN</title>
<path fill="none" stroke="black" d="M547.845,-420.456C533.223,-391.559 507.483,-340.692 490.843,-307.808"/>
<polygon fill="black" stroke="black" points="493.839,-305.977 486.201,-298.635 487.593,-309.138 493.839,-305.977"/>
</g>
<!-- DDPG -->
<g id="node20" class="node"><title>DDPG</title>
<path fill="none" stroke="black" d="M727.5,-252.5C727.5,-252.5 888.5,-252.5 888.5,-252.5 894.5,-252.5 900.5,-258.5 900.5,-264.5 900.5,-264.5 900.5,-286.5 900.5,-286.5 900.5,-292.5 894.5,-298.5 888.5,-298.5 888.5,-298.5 727.5,-298.5 727.5,-298.5 721.5,-298.5 715.5,-292.5 715.5,-286.5 715.5,-286.5 715.5,-264.5 715.5,-264.5 715.5,-258.5 721.5,-252.5 727.5,-252.5"/>
<text text-anchor="middle" x="808" y="-283.3" font-family="Times New Roman,serif" font-size="14.00">DDPG</text>
<polyline fill="none" stroke="black" points="715.5,-275.5 900.5,-275.5 "/>
<text text-anchor="middle" x="737.5" y="-260.3" font-family="Times New Roman,serif" font-size="14.00">OFP</text>
<polyline fill="none" stroke="black" points="759.5,-252.5 759.5,-275.5 "/>
<text text-anchor="middle" x="777" y="-260.3" font-family="Times New Roman,serif" font-size="14.00">CS</text>
<polyline fill="none" stroke="black" points="794.5,-252.5 794.5,-275.5 "/>
<text text-anchor="middle" x="812.5" y="-260.3" font-family="Times New Roman,serif" font-size="14.00">CA</text>
<polyline fill="none" stroke="black" points="830.5,-252.5 830.5,-275.5 "/>
<text text-anchor="middle" x="848" y="-260.3" font-family="Times New Roman,serif" font-size="14.00">DP</text>
<polyline fill="none" stroke="black" points="865.5,-252.5 865.5,-275.5 "/>
<text text-anchor="middle" x="883" y="-260.3" font-family="Times New Roman,serif" font-size="14.00">RB</text>
</g>
<!-- DQN&#45;&gt;DDPG -->
<g id="edge22" class="edge"><title>DQN&#45;&gt;DDPG</title>
<path fill="none" stroke="black" stroke-dasharray="1,5" d="M592.065,-420.456C636.992,-390.505 717.323,-336.951 766.325,-304.283"/>
<polygon fill="black" stroke="black" points="768.419,-307.094 774.798,-298.635 764.536,-301.27 768.419,-307.094"/>
<text text-anchor="middle" x="753" y="-355.8" font-family="Times New Roman,serif" font-size="14.00">replay buffer</text>
</g>
<!-- QR&#45;DQN -->
<g id="node24" class="node"><title>QR&#45;DQN</title>
<path fill="none" stroke="black" d="M289.5,-84.5C289.5,-84.5 452.5,-84.5 452.5,-84.5 458.5,-84.5 464.5,-90.5 464.5,-96.5 464.5,-96.5 464.5,-118.5 464.5,-118.5 464.5,-124.5 458.5,-130.5 452.5,-130.5 452.5,-130.5 289.5,-130.5 289.5,-130.5 283.5,-130.5 277.5,-124.5 277.5,-118.5 277.5,-118.5 277.5,-96.5 277.5,-96.5 277.5,-90.5 283.5,-84.5 289.5,-84.5"/>
<text text-anchor="middle" x="371" y="-115.3" font-family="Times New Roman,serif" font-size="14.00">QR&#45;DQN</text>
<polyline fill="none" stroke="black" points="277.5,-107.5 464.5,-107.5 "/>
<text text-anchor="middle" x="299.5" y="-92.3" font-family="Times New Roman,serif" font-size="14.00">OFP</text>
<polyline fill="none" stroke="black" points="321.5,-84.5 321.5,-107.5 "/>
<text text-anchor="middle" x="339" y="-92.3" font-family="Times New Roman,serif" font-size="14.00">CS</text>
<polyline fill="none" stroke="black" points="356.5,-84.5 356.5,-107.5 "/>
<text text-anchor="middle" x="374.5" y="-92.3" font-family="Times New Roman,serif" font-size="14.00">DA</text>
<polyline fill="none" stroke="black" points="392.5,-84.5 392.5,-107.5 "/>
<text text-anchor="middle" x="411" y="-92.3" font-family="Times New Roman,serif" font-size="14.00">QV</text>
<polyline fill="none" stroke="black" points="429.5,-84.5 429.5,-107.5 "/>
<text text-anchor="middle" x="447" y="-92.3" font-family="Times New Roman,serif" font-size="14.00">RB</text>
</g>
<!-- DQN&#45;&gt;QR&#45;DQN -->
<g id="edge17" class="edge"><title>DQN&#45;&gt;QR&#45;DQN</title>
<path fill="none" stroke="black" d="M465.275,-435.737C418.184,-426.659 371,-406.168 371,-360.5 371,-360.5 371,-360.5 371,-190.5 371,-174.233 371,-156.151 371,-141.115"/>
<polygon fill="black" stroke="black" points="374.5,-140.774 371,-130.774 367.5,-140.774 374.5,-140.774"/>
</g>
<!-- DQN+HER -->
<g id="node25" class="node"><title>DQN+HER</title>
<path fill="none" stroke="black" d="M84.5,-84.5C84.5,-84.5 247.5,-84.5 247.5,-84.5 253.5,-84.5 259.5,-90.5 259.5,-96.5 259.5,-96.5 259.5,-118.5 259.5,-118.5 259.5,-124.5 253.5,-130.5 247.5,-130.5 247.5,-130.5 84.5,-130.5 84.5,-130.5 78.5,-130.5 72.5,-124.5 72.5,-118.5 72.5,-118.5 72.5,-96.5 72.5,-96.5 72.5,-90.5 78.5,-84.5 84.5,-84.5"/>
<text text-anchor="middle" x="166" y="-115.3" font-family="Times New Roman,serif" font-size="14.00">DQN+HER</text>
<polyline fill="none" stroke="black" points="72.5,-107.5 259.5,-107.5 "/>
<text text-anchor="middle" x="94.5" y="-92.3" font-family="Times New Roman,serif" font-size="14.00">OFP</text>
<polyline fill="none" stroke="black" points="116.5,-84.5 116.5,-107.5 "/>
<text text-anchor="middle" x="134" y="-92.3" font-family="Times New Roman,serif" font-size="14.00">CS</text>
<polyline fill="none" stroke="black" points="151.5,-84.5 151.5,-107.5 "/>
<text text-anchor="middle" x="169.5" y="-92.3" font-family="Times New Roman,serif" font-size="14.00">DA</text>
<polyline fill="none" stroke="black" points="187.5,-84.5 187.5,-107.5 "/>
<text text-anchor="middle" x="206" y="-92.3" font-family="Times New Roman,serif" font-size="14.00">QV</text>
<polyline fill="none" stroke="black" points="224.5,-84.5 224.5,-107.5 "/>
<text text-anchor="middle" x="242" y="-92.3" font-family="Times New Roman,serif" font-size="14.00">RB</text>
</g>
<!-- DQN&#45;&gt;DQN+HER -->
<g id="edge18" class="edge"><title>DQN&#45;&gt;DQN+HER</title>
<path fill="none" stroke="black" stroke-dasharray="1,5" d="M465.366,-441.367C349.125,-437.366 166,-421.399 166,-360.5 166,-360.5 166,-360.5 166,-190.5 166,-174.233 166,-156.151 166,-141.115"/>
<polygon fill="black" stroke="black" points="169.5,-140.774 166,-130.774 162.5,-140.774 169.5,-140.774"/>
</g>
<!-- ACER -->
<g id="node28" class="node"><title>ACER</title>
<path fill="none" stroke="black" d="M495,-84.5C495,-84.5 667,-84.5 667,-84.5 673,-84.5 679,-90.5 679,-96.5 679,-96.5 679,-118.5 679,-118.5 679,-124.5 673,-130.5 667,-130.5 667,-130.5 495,-130.5 495,-130.5 489,-130.5 483,-124.5 483,-118.5 483,-118.5 483,-96.5 483,-96.5 483,-90.5 489,-84.5 495,-84.5"/>
<text text-anchor="middle" x="581" y="-115.3" font-family="Times New Roman,serif" font-size="14.00">ACER</text>
<polyline fill="none" stroke="black" points="483,-107.5 679,-107.5 "/>
<text text-anchor="middle" x="505" y="-92.3" font-family="Times New Roman,serif" font-size="14.00">OFP</text>
<polyline fill="none" stroke="black" points="527,-84.5 527,-107.5 "/>
<text text-anchor="middle" x="544.5" y="-92.3" font-family="Times New Roman,serif" font-size="14.00">CS</text>
<polyline fill="none" stroke="black" points="562,-84.5 562,-107.5 "/>
<text text-anchor="middle" x="580" y="-92.3" font-family="Times New Roman,serif" font-size="14.00">CA</text>
<polyline fill="none" stroke="black" points="598,-84.5 598,-107.5 "/>
<text text-anchor="middle" x="621" y="-92.3" font-family="Times New Roman,serif" font-size="14.00">ADV</text>
<polyline fill="none" stroke="black" points="644,-84.5 644,-107.5 "/>
<text text-anchor="middle" x="661.5" y="-92.3" font-family="Times New Roman,serif" font-size="14.00">RB</text>
</g>
<!-- DQN&#45;&gt;ACER -->
<g id="edge29" class="edge"><title>DQN&#45;&gt;ACER</title>
<path fill="none" stroke="black" stroke-dasharray="1,5" d="M571.037,-420.221C578.626,-404.11 587,-381.56 587,-360.5 587,-360.5 587,-360.5 587,-190.5 587,-174.19 585.805,-156.103 584.481,-141.075"/>
<polygon fill="black" stroke="black" points="587.93,-140.37 583.51,-130.742 580.961,-141.026 587.93,-140.37"/>
<text text-anchor="middle" x="623" y="-271.8" font-family="Times New Roman,serif" font-size="14.00">replay buffer</text>
</g>
<!-- DPG&#45;&gt;DDPG -->
<g id="edge21" class="edge"><title>DPG&#45;&gt;DDPG</title>
<path fill="none" stroke="black" d="M904.279,-336.31C888.284,-326.374 869.261,-314.556 852.364,-304.06"/>
<polygon fill="black" stroke="black" points="854.091,-301.012 843.75,-298.708 850.397,-306.958 854.091,-301.012"/>
</g>
<!-- Duelling&#45;DQN -->
<g id="node22" class="node"><title>Duelling&#45;DQN</title>
<path fill="none" stroke="black" d="M411,-168.5C411,-168.5 539,-168.5 539,-168.5 545,-168.5 551,-174.5 551,-180.5 551,-180.5 551,-202.5 551,-202.5 551,-208.5 545,-214.5 539,-214.5 539,-214.5 411,-214.5 411,-214.5 405,-214.5 399,-208.5 399,-202.5 399,-202.5 399,-180.5 399,-180.5 399,-174.5 405,-168.5 411,-168.5"/>
<text text-anchor="middle" x="475" y="-199.3" font-family="Times New Roman,serif" font-size="14.00">Duelling&#45;DQN</text>
<polyline fill="none" stroke="black" points="399,-191.5 551,-191.5 "/>
<text text-anchor="middle" x="421" y="-176.3" font-family="Times New Roman,serif" font-size="14.00">OFP</text>
<polyline fill="none" stroke="black" points="443,-168.5 443,-191.5 "/>
<text text-anchor="middle" x="460.5" y="-176.3" font-family="Times New Roman,serif" font-size="14.00">CS</text>
<polyline fill="none" stroke="black" points="478,-168.5 478,-191.5 "/>
<text text-anchor="middle" x="496" y="-176.3" font-family="Times New Roman,serif" font-size="14.00">DA</text>
<polyline fill="none" stroke="black" points="514,-168.5 514,-191.5 "/>
<text text-anchor="middle" x="532.5" y="-176.3" font-family="Times New Roman,serif" font-size="14.00">QV</text>
</g>
<!-- DDQN&#45;&gt;Duelling&#45;DQN -->
<g id="edge16" class="edge"><title>DDQN&#45;&gt;Duelling&#45;DQN</title>
<path fill="none" stroke="black" d="M475,-252.093C475,-243.618 475,-233.797 475,-224.604"/>
<polygon fill="black" stroke="black" points="478.5,-224.596 475,-214.596 471.5,-224.596 478.5,-224.596"/>
</g>
<!-- DDPG+HER -->
<g id="node26" class="node"><title>DDPG+HER</title>
<path fill="none" stroke="black" d="M747,-84.5C747,-84.5 945,-84.5 945,-84.5 951,-84.5 957,-90.5 957,-96.5 957,-96.5 957,-118.5 957,-118.5 957,-124.5 951,-130.5 945,-130.5 945,-130.5 747,-130.5 747,-130.5 741,-130.5 735,-124.5 735,-118.5 735,-118.5 735,-96.5 735,-96.5 735,-90.5 741,-84.5 747,-84.5"/>
<text text-anchor="middle" x="846" y="-115.3" font-family="Times New Roman,serif" font-size="14.00">DDPG+HER</text>
<polyline fill="none" stroke="black" points="735,-107.5 957,-107.5 "/>
<text text-anchor="middle" x="757" y="-92.3" font-family="Times New Roman,serif" font-size="14.00">OFP</text>
<polyline fill="none" stroke="black" points="779,-84.5 779,-107.5 "/>
<text text-anchor="middle" x="796.5" y="-92.3" font-family="Times New Roman,serif" font-size="14.00">CS</text>
<polyline fill="none" stroke="black" points="814,-84.5 814,-107.5 "/>
<text text-anchor="middle" x="832" y="-92.3" font-family="Times New Roman,serif" font-size="14.00">DA</text>
<polyline fill="none" stroke="black" points="850,-84.5 850,-107.5 "/>
<text text-anchor="middle" x="867.5" y="-92.3" font-family="Times New Roman,serif" font-size="14.00">DP</text>
<polyline fill="none" stroke="black" points="885,-84.5 885,-107.5 "/>
<text text-anchor="middle" x="903.5" y="-92.3" font-family="Times New Roman,serif" font-size="14.00">QV</text>
<polyline fill="none" stroke="black" points="922,-84.5 922,-107.5 "/>
<text text-anchor="middle" x="939.5" y="-92.3" font-family="Times New Roman,serif" font-size="14.00">RB</text>
</g>
<!-- DDPG&#45;&gt;DDPG+HER -->
<g id="edge23" class="edge"><title>DDPG&#45;&gt;DDPG+HER</title>
<path fill="none" stroke="black" stroke-dasharray="1,5" d="M813.046,-252.456C819.604,-223.807 831.106,-173.563 838.638,-140.659"/>
<polygon fill="black" stroke="black" points="842.113,-141.164 840.933,-130.635 835.29,-139.602 842.113,-141.164"/>
</g>
<!-- TD3 -->
<g id="node31" class="node"><title>TD3</title>
<path fill="none" stroke="black" d="M608,-0.5C608,-0.5 806,-0.5 806,-0.5 812,-0.5 818,-6.5 818,-12.5 818,-12.5 818,-34.5 818,-34.5 818,-40.5 812,-46.5 806,-46.5 806,-46.5 608,-46.5 608,-46.5 602,-46.5 596,-40.5 596,-34.5 596,-34.5 596,-12.5 596,-12.5 596,-6.5 602,-0.5 608,-0.5"/>
<text text-anchor="middle" x="707" y="-31.3" font-family="Times New Roman,serif" font-size="14.00">TD3</text>
<polyline fill="none" stroke="black" points="596,-23.5 818,-23.5 "/>
<text text-anchor="middle" x="618" y="-8.3" font-family="Times New Roman,serif" font-size="14.00">OFP</text>
<polyline fill="none" stroke="black" points="640,-0.5 640,-23.5 "/>
<text text-anchor="middle" x="657.5" y="-8.3" font-family="Times New Roman,serif" font-size="14.00">CS</text>
<polyline fill="none" stroke="black" points="675,-0.5 675,-23.5 "/>
<text text-anchor="middle" x="693" y="-8.3" font-family="Times New Roman,serif" font-size="14.00">DA</text>
<polyline fill="none" stroke="black" points="711,-0.5 711,-23.5 "/>
<text text-anchor="middle" x="728.5" y="-8.3" font-family="Times New Roman,serif" font-size="14.00">DP</text>
<polyline fill="none" stroke="black" points="746,-0.5 746,-23.5 "/>
<text text-anchor="middle" x="764.5" y="-8.3" font-family="Times New Roman,serif" font-size="14.00">QV</text>
<polyline fill="none" stroke="black" points="783,-0.5 783,-23.5 "/>
<text text-anchor="middle" x="800.5" y="-8.3" font-family="Times New Roman,serif" font-size="14.00">RB</text>
</g>
<!-- DDPG&#45;&gt;TD3 -->
<g id="edge24" class="edge"><title>DDPG&#45;&gt;TD3</title>
<path fill="none" stroke="black" d="M792.085,-252.323C773.332,-225.091 742.628,-176.858 726,-131 717.252,-106.874 712.43,-78.1615 709.834,-56.6321"/>
<polygon fill="black" stroke="black" points="713.313,-56.2449 708.732,-46.6917 706.356,-57.0166 713.313,-56.2449"/>
</g>
<!-- TRPO&#45;&gt;PPO -->
<g id="edge32" class="edge"><title>TRPO&#45;&gt;PPO</title>
<path fill="none" stroke="black" stroke-dasharray="1,5" d="M1356.82,-252.456C1372.31,-223.559 1399.58,-172.692 1417.21,-139.808"/>
<polygon fill="black" stroke="black" points="1420.49,-141.102 1422.13,-130.635 1414.32,-137.794 1420.49,-141.102"/>
</g>
<!-- A2C -->
<g id="node27" class="node"><title>A2C</title>
<path fill="none" stroke="black" d="M987,-84.5C987,-84.5 1125,-84.5 1125,-84.5 1131,-84.5 1137,-90.5 1137,-96.5 1137,-96.5 1137,-118.5 1137,-118.5 1137,-124.5 1131,-130.5 1125,-130.5 1125,-130.5 987,-130.5 987,-130.5 981,-130.5 975,-124.5 975,-118.5 975,-118.5 975,-96.5 975,-96.5 975,-90.5 981,-84.5 987,-84.5"/>
<text text-anchor="middle" x="1056" y="-115.3" font-family="Times New Roman,serif" font-size="14.00">A2C</text>
<polyline fill="none" stroke="black" points="975,-107.5 1137,-107.5 "/>
<text text-anchor="middle" x="997.5" y="-92.3" font-family="Times New Roman,serif" font-size="14.00">ONP</text>
<polyline fill="none" stroke="black" points="1020,-84.5 1020,-107.5 "/>
<text text-anchor="middle" x="1037.5" y="-92.3" font-family="Times New Roman,serif" font-size="14.00">CS</text>
<polyline fill="none" stroke="black" points="1055,-84.5 1055,-107.5 "/>
<text text-anchor="middle" x="1073" y="-92.3" font-family="Times New Roman,serif" font-size="14.00">CA</text>
<polyline fill="none" stroke="black" points="1091,-84.5 1091,-107.5 "/>
<text text-anchor="middle" x="1114" y="-92.3" font-family="Times New Roman,serif" font-size="14.00">ADV</text>
</g>
<!-- A3C&#45;&gt;A2C -->
<g id="edge27" class="edge"><title>A3C&#45;&gt;A2C</title>
<path fill="none" stroke="black" d="M1056,-168.093C1056,-159.618 1056,-149.797 1056,-140.604"/>
<polygon fill="black" stroke="black" points="1059.5,-140.596 1056,-130.596 1052.5,-140.596 1059.5,-140.596"/>
</g>
<!-- A3C&#45;&gt;ACER -->
<g id="edge28" class="edge"><title>A3C&#45;&gt;ACER</title>
<path fill="none" stroke="black" d="M974.884,-176.497C896.046,-162.887 775.822,-142.132 688.936,-127.133"/>
<polygon fill="black" stroke="black" points="689.493,-123.678 679.043,-125.425 688.302,-130.576 689.493,-123.678"/>
</g>
</g>
</svg>
