<?xml version="1.0" encoding="UTF-8" standalone="no"?>
<!DOCTYPE svg PUBLIC "-//W3C//DTD SVG 1.1//EN"
 "http://www.w3.org/Graphics/SVG/1.1/DTD/svg11.dtd">
<!-- Generated by graphviz version 2.38.0 (20140413.2041)
 -->
<!-- Title: %3 Pages: 1 -->
<svg width="1921pt" height="875pt"
 viewBox="0.00 0.00 1921.00 875.00" xmlns="http://www.w3.org/2000/svg" xmlns:xlink="http://www.w3.org/1999/xlink">
<g id="graph0" class="graph" transform="scale(1 1) rotate(0) translate(4 871)">
<title>%3</title>
<polygon fill="white" stroke="none" points="-4,4 -4,-871 1917,-871 1917,4 -4,4"/>
<!-- 1989 -->
<g id="node1" class="node"><title>1989</title>
<text text-anchor="middle" x="27" y="-691.8" font-family="Times New Roman,serif" font-size="14.00">1989</text>
</g>
<!-- 1992 -->
<g id="node2" class="node"><title>1992</title>
<text text-anchor="middle" x="27" y="-607.8" font-family="Times New Roman,serif" font-size="14.00">1992</text>
</g>
<!-- 1989&#45;&gt;1992 -->
<g id="edge1" class="edge"><title>1989&#45;&gt;1992</title>
<path fill="none" stroke="black" d="M27,-677.11C27,-666.274 27,-652.101 27,-639.791"/>
<polygon fill="black" stroke="black" points="30.5001,-639.584 27,-629.584 23.5001,-639.584 30.5001,-639.584"/>
</g>
<!-- 1994 -->
<g id="node3" class="node"><title>1994</title>
<text text-anchor="middle" x="27" y="-523.8" font-family="Times New Roman,serif" font-size="14.00">1994</text>
</g>
<!-- 1992&#45;&gt;1994 -->
<g id="edge2" class="edge"><title>1992&#45;&gt;1994</title>
<path fill="none" stroke="black" d="M27,-593.11C27,-582.274 27,-568.101 27,-555.791"/>
<polygon fill="black" stroke="black" points="30.5001,-555.584 27,-545.584 23.5001,-555.584 30.5001,-555.584"/>
</g>
<!-- 2013 -->
<g id="node4" class="node"><title>2013</title>
<text text-anchor="middle" x="27" y="-439.8" font-family="Times New Roman,serif" font-size="14.00">2013</text>
</g>
<!-- 1994&#45;&gt;2013 -->
<g id="edge3" class="edge"><title>1994&#45;&gt;2013</title>
<path fill="none" stroke="black" d="M27,-509.11C27,-498.274 27,-484.101 27,-471.791"/>
<polygon fill="black" stroke="black" points="30.5001,-471.584 27,-461.584 23.5001,-471.584 30.5001,-471.584"/>
</g>
<!-- 2014 -->
<g id="node5" class="node"><title>2014</title>
<text text-anchor="middle" x="27" y="-355.8" font-family="Times New Roman,serif" font-size="14.00">2014</text>
</g>
<!-- 2013&#45;&gt;2014 -->
<g id="edge4" class="edge"><title>2013&#45;&gt;2014</title>
<path fill="none" stroke="black" d="M27,-425.11C27,-414.274 27,-400.101 27,-387.791"/>
<polygon fill="black" stroke="black" points="30.5001,-387.584 27,-377.584 23.5001,-387.584 30.5001,-387.584"/>
</g>
<!-- 2015 -->
<g id="node6" class="node"><title>2015</title>
<text text-anchor="middle" x="27" y="-271.8" font-family="Times New Roman,serif" font-size="14.00">2015</text>
</g>
<!-- 2014&#45;&gt;2015 -->
<g id="edge5" class="edge"><title>2014&#45;&gt;2015</title>
<path fill="none" stroke="black" d="M27,-341.11C27,-330.274 27,-316.101 27,-303.791"/>
<polygon fill="black" stroke="black" points="30.5001,-303.584 27,-293.584 23.5001,-303.584 30.5001,-303.584"/>
</g>
<!-- 2016 -->
<g id="node7" class="node"><title>2016</title>
<text text-anchor="middle" x="27" y="-187.8" font-family="Times New Roman,serif" font-size="14.00">2016</text>
</g>
<!-- 2015&#45;&gt;2016 -->
<g id="edge6" class="edge"><title>2015&#45;&gt;2016</title>
<path fill="none" stroke="black" d="M27,-257.11C27,-246.274 27,-232.101 27,-219.791"/>
<polygon fill="black" stroke="black" points="30.5001,-219.584 27,-209.584 23.5001,-219.584 30.5001,-219.584"/>
</g>
<!-- 2017 -->
<g id="node8" class="node"><title>2017</title>
<text text-anchor="middle" x="27" y="-103.8" font-family="Times New Roman,serif" font-size="14.00">2017</text>
</g>
<!-- 2016&#45;&gt;2017 -->
<g id="edge7" class="edge"><title>2016&#45;&gt;2017</title>
<path fill="none" stroke="black" d="M27,-173.11C27,-162.274 27,-148.101 27,-135.791"/>
<polygon fill="black" stroke="black" points="30.5001,-135.584 27,-125.584 23.5001,-135.584 30.5001,-135.584"/>
</g>
<!-- 2018 -->
<g id="node9" class="node"><title>2018</title>
<text text-anchor="middle" x="27" y="-19.8" font-family="Times New Roman,serif" font-size="14.00">2018</text>
</g>
<!-- 2017&#45;&gt;2018 -->
<g id="edge8" class="edge"><title>2017&#45;&gt;2018</title>
<path fill="none" stroke="black" d="M27,-89.1099C27,-78.2743 27,-64.1012 27,-51.7913"/>
<polygon fill="black" stroke="black" points="30.5001,-51.5838 27,-41.5838 23.5001,-51.5839 30.5001,-51.5838"/>
</g>
<!-- Reinforcement Learning -->
<g id="node10" class="node"><title>Reinforcement Learning</title>
<path fill="none" stroke="black" d="M1397,-830.5C1397,-830.5 1523,-830.5 1523,-830.5 1529,-830.5 1535,-836.5 1535,-842.5 1535,-842.5 1535,-854.5 1535,-854.5 1535,-860.5 1529,-866.5 1523,-866.5 1523,-866.5 1397,-866.5 1397,-866.5 1391,-866.5 1385,-860.5 1385,-854.5 1385,-854.5 1385,-842.5 1385,-842.5 1385,-836.5 1391,-830.5 1397,-830.5"/>
<text text-anchor="middle" x="1460" y="-844.8" font-family="Times New Roman,serif" font-size="14.00">Reinforcement Learning</text>
</g>
<!-- Value Based -->
<g id="node11" class="node"><title>Value Based</title>
<path fill="none" stroke="black" d="M1110,-756.5C1110,-756.5 1172,-756.5 1172,-756.5 1178,-756.5 1184,-762.5 1184,-768.5 1184,-768.5 1184,-780.5 1184,-780.5 1184,-786.5 1178,-792.5 1172,-792.5 1172,-792.5 1110,-792.5 1110,-792.5 1104,-792.5 1098,-786.5 1098,-780.5 1098,-780.5 1098,-768.5 1098,-768.5 1098,-762.5 1104,-756.5 1110,-756.5"/>
<text text-anchor="middle" x="1141" y="-770.8" font-family="Times New Roman,serif" font-size="14.00">Value Based</text>
</g>
<!-- Reinforcement Learning&#45;&gt;Value Based -->
<g id="edge9" class="edge"><title>Reinforcement Learning&#45;&gt;Value Based</title>
<path fill="none" stroke="black" d="M1384.81,-830.528C1326.26,-817.315 1246.46,-799.303 1194.35,-787.541"/>
<polygon fill="black" stroke="black" points="1194.83,-784.062 1184.31,-785.275 1193.29,-790.891 1194.83,-784.062"/>
</g>
<!-- Policy Based -->
<g id="node12" class="node"><title>Policy Based</title>
<path fill="none" stroke="black" d="M1650,-756.5C1650,-756.5 1716,-756.5 1716,-756.5 1722,-756.5 1728,-762.5 1728,-768.5 1728,-768.5 1728,-780.5 1728,-780.5 1728,-786.5 1722,-792.5 1716,-792.5 1716,-792.5 1650,-792.5 1650,-792.5 1644,-792.5 1638,-786.5 1638,-780.5 1638,-780.5 1638,-768.5 1638,-768.5 1638,-762.5 1644,-756.5 1650,-756.5"/>
<text text-anchor="middle" x="1683" y="-770.8" font-family="Times New Roman,serif" font-size="14.00">Policy Based</text>
</g>
<!-- Reinforcement Learning&#45;&gt;Policy Based -->
<g id="edge11" class="edge"><title>Reinforcement Learning&#45;&gt;Policy Based</title>
<path fill="none" stroke="black" d="M1512.85,-830.437C1547.58,-819.224 1592.92,-804.584 1628.07,-793.237"/>
<polygon fill="black" stroke="black" points="1629.25,-796.533 1637.69,-790.129 1627.1,-789.871 1629.25,-796.533"/>
</g>
<!-- Actor Critic -->
<g id="node13" class="node"><title>Actor Critic</title>
<path fill="none" stroke="black" d="M1430.5,-756.5C1430.5,-756.5 1489.5,-756.5 1489.5,-756.5 1495.5,-756.5 1501.5,-762.5 1501.5,-768.5 1501.5,-768.5 1501.5,-780.5 1501.5,-780.5 1501.5,-786.5 1495.5,-792.5 1489.5,-792.5 1489.5,-792.5 1430.5,-792.5 1430.5,-792.5 1424.5,-792.5 1418.5,-786.5 1418.5,-780.5 1418.5,-780.5 1418.5,-768.5 1418.5,-768.5 1418.5,-762.5 1424.5,-756.5 1430.5,-756.5"/>
<text text-anchor="middle" x="1460" y="-770.8" font-family="Times New Roman,serif" font-size="14.00">Actor Critic</text>
</g>
<!-- Reinforcement Learning&#45;&gt;Actor Critic -->
<g id="edge10" class="edge"><title>Reinforcement Learning&#45;&gt;Actor Critic</title>
<path fill="none" stroke="black" d="M1460,-830.437C1460,-822.307 1460,-812.376 1460,-803.205"/>
<polygon fill="black" stroke="black" points="1463.5,-802.941 1460,-792.941 1456.5,-802.941 1463.5,-802.941"/>
</g>
<!-- Q&#45;learning -->
<g id="node14" class="node"><title>Q&#45;learning</title>
<path fill="none" stroke="black" d="M588.5,-672.5C588.5,-672.5 681.5,-672.5 681.5,-672.5 687.5,-672.5 693.5,-678.5 693.5,-684.5 693.5,-684.5 693.5,-706.5 693.5,-706.5 693.5,-712.5 687.5,-718.5 681.5,-718.5 681.5,-718.5 588.5,-718.5 588.5,-718.5 582.5,-718.5 576.5,-712.5 576.5,-706.5 576.5,-706.5 576.5,-684.5 576.5,-684.5 576.5,-678.5 582.5,-672.5 588.5,-672.5"/>
<text text-anchor="middle" x="635" y="-703.3" font-family="Times New Roman,serif" font-size="14.00">Q&#45;learning</text>
<polyline fill="none" stroke="black" points="576.5,-695.5 693.5,-695.5 "/>
<text text-anchor="middle" x="598.5" y="-680.3" font-family="Times New Roman,serif" font-size="14.00">OFP</text>
<polyline fill="none" stroke="black" points="620.5,-672.5 620.5,-695.5 "/>
<text text-anchor="middle" x="638.5" y="-680.3" font-family="Times New Roman,serif" font-size="14.00">DA</text>
<polyline fill="none" stroke="black" points="656.5,-672.5 656.5,-695.5 "/>
<text text-anchor="middle" x="675" y="-680.3" font-family="Times New Roman,serif" font-size="14.00">QV</text>
</g>
<!-- Value Based&#45;&gt;Q&#45;learning -->
<g id="edge13" class="edge"><title>Value Based&#45;&gt;Q&#45;learning</title>
<path fill="none" stroke="black" d="M1097.86,-766.935C1009.99,-753.564 809.665,-723.079 703.683,-706.952"/>
<polygon fill="black" stroke="black" points="704.141,-703.481 693.729,-705.437 703.088,-710.402 704.141,-703.481"/>
</g>
<!-- SARSA -->
<g id="node16" class="node"><title>SARSA</title>
<path fill="none" stroke="black" d="M1112.5,-504.5C1112.5,-504.5 1169.5,-504.5 1169.5,-504.5 1175.5,-504.5 1181.5,-510.5 1181.5,-516.5 1181.5,-516.5 1181.5,-538.5 1181.5,-538.5 1181.5,-544.5 1175.5,-550.5 1169.5,-550.5 1169.5,-550.5 1112.5,-550.5 1112.5,-550.5 1106.5,-550.5 1100.5,-544.5 1100.5,-538.5 1100.5,-538.5 1100.5,-516.5 1100.5,-516.5 1100.5,-510.5 1106.5,-504.5 1112.5,-504.5"/>
<text text-anchor="middle" x="1141" y="-535.3" font-family="Times New Roman,serif" font-size="14.00">SARSA</text>
<polyline fill="none" stroke="black" points="1100.5,-527.5 1181.5,-527.5 "/>
<text text-anchor="middle" x="1123" y="-512.3" font-family="Times New Roman,serif" font-size="14.00">ONP</text>
<polyline fill="none" stroke="black" points="1145.5,-504.5 1145.5,-527.5 "/>
<text text-anchor="middle" x="1163.5" y="-512.3" font-family="Times New Roman,serif" font-size="14.00">DA</text>
</g>
<!-- Value Based&#45;&gt;SARSA -->
<g id="edge12" class="edge"><title>Value Based&#45;&gt;SARSA</title>
<path fill="none" stroke="black" d="M1141,-756.272C1141,-715.614 1141,-613.171 1141,-560.645"/>
<polygon fill="black" stroke="black" points="1144.5,-560.536 1141,-550.536 1137.5,-560.536 1144.5,-560.536"/>
</g>
<!-- REINFORCE -->
<g id="node15" class="node"><title>REINFORCE</title>
<path fill="none" stroke="black" d="M1771,-588.5C1771,-588.5 1901,-588.5 1901,-588.5 1907,-588.5 1913,-594.5 1913,-600.5 1913,-600.5 1913,-622.5 1913,-622.5 1913,-628.5 1907,-634.5 1901,-634.5 1901,-634.5 1771,-634.5 1771,-634.5 1765,-634.5 1759,-628.5 1759,-622.5 1759,-622.5 1759,-600.5 1759,-600.5 1759,-594.5 1765,-588.5 1771,-588.5"/>
<text text-anchor="middle" x="1836" y="-619.3" font-family="Times New Roman,serif" font-size="14.00">REINFORCE</text>
<polyline fill="none" stroke="black" points="1759,-611.5 1913,-611.5 "/>
<text text-anchor="middle" x="1778" y="-596.3" font-family="Times New Roman,serif" font-size="14.00">MC</text>
<polyline fill="none" stroke="black" points="1797,-588.5 1797,-611.5 "/>
<text text-anchor="middle" x="1819.5" y="-596.3" font-family="Times New Roman,serif" font-size="14.00">ONP</text>
<polyline fill="none" stroke="black" points="1842,-588.5 1842,-611.5 "/>
<text text-anchor="middle" x="1859.5" y="-596.3" font-family="Times New Roman,serif" font-size="14.00">CS</text>
<polyline fill="none" stroke="black" points="1877,-588.5 1877,-611.5 "/>
<text text-anchor="middle" x="1895" y="-596.3" font-family="Times New Roman,serif" font-size="14.00">DA</text>
</g>
<!-- Policy Based&#45;&gt;REINFORCE -->
<g id="edge19" class="edge"><title>Policy Based&#45;&gt;REINFORCE</title>
<path fill="none" stroke="black" d="M1718.86,-756.386C1727.91,-751.177 1737.25,-744.961 1745,-738 1775.76,-710.374 1802.38,-670.707 1818.74,-643.401"/>
<polygon fill="black" stroke="black" points="1821.84,-645.043 1823.89,-634.65 1815.8,-641.494 1821.84,-645.043"/>
</g>
<!-- DPG -->
<g id="node18" class="node"><title>DPG</title>
<path fill="none" stroke="black" d="M1178,-336.5C1178,-336.5 1304,-336.5 1304,-336.5 1310,-336.5 1316,-342.5 1316,-348.5 1316,-348.5 1316,-370.5 1316,-370.5 1316,-376.5 1310,-382.5 1304,-382.5 1304,-382.5 1178,-382.5 1178,-382.5 1172,-382.5 1166,-376.5 1166,-370.5 1166,-370.5 1166,-348.5 1166,-348.5 1166,-342.5 1172,-336.5 1178,-336.5"/>
<text text-anchor="middle" x="1241" y="-367.3" font-family="Times New Roman,serif" font-size="14.00">DPG</text>
<polyline fill="none" stroke="black" points="1166,-359.5 1316,-359.5 "/>
<text text-anchor="middle" x="1188" y="-344.3" font-family="Times New Roman,serif" font-size="14.00">OFP</text>
<polyline fill="none" stroke="black" points="1210,-336.5 1210,-359.5 "/>
<text text-anchor="middle" x="1227.5" y="-344.3" font-family="Times New Roman,serif" font-size="14.00">CS</text>
<polyline fill="none" stroke="black" points="1245,-336.5 1245,-359.5 "/>
<text text-anchor="middle" x="1263" y="-344.3" font-family="Times New Roman,serif" font-size="14.00">CA</text>
<polyline fill="none" stroke="black" points="1281,-336.5 1281,-359.5 "/>
<text text-anchor="middle" x="1298.5" y="-344.3" font-family="Times New Roman,serif" font-size="14.00">DP</text>
</g>
<!-- Actor Critic&#45;&gt;DPG -->
<g id="edge20" class="edge"><title>Actor Critic&#45;&gt;DPG</title>
<path fill="none" stroke="black" d="M1418.45,-769.121C1375.6,-762.034 1315,-743.672 1315,-696.5 1315,-696.5 1315,-696.5 1315,-442.5 1315,-421.242 1301.12,-403.018 1285.39,-389.187"/>
<polygon fill="black" stroke="black" points="1287.51,-386.403 1277.57,-382.756 1283.07,-391.81 1287.51,-386.403"/>
</g>
<!-- TRPO -->
<g id="node21" class="node"><title>TRPO</title>
<path fill="none" stroke="black" d="M1519,-252.5C1519,-252.5 1657,-252.5 1657,-252.5 1663,-252.5 1669,-258.5 1669,-264.5 1669,-264.5 1669,-286.5 1669,-286.5 1669,-292.5 1663,-298.5 1657,-298.5 1657,-298.5 1519,-298.5 1519,-298.5 1513,-298.5 1507,-292.5 1507,-286.5 1507,-286.5 1507,-264.5 1507,-264.5 1507,-258.5 1513,-252.5 1519,-252.5"/>
<text text-anchor="middle" x="1588" y="-283.3" font-family="Times New Roman,serif" font-size="14.00">TRPO</text>
<polyline fill="none" stroke="black" points="1507,-275.5 1669,-275.5 "/>
<text text-anchor="middle" x="1529.5" y="-260.3" font-family="Times New Roman,serif" font-size="14.00">ONP</text>
<polyline fill="none" stroke="black" points="1552,-252.5 1552,-275.5 "/>
<text text-anchor="middle" x="1569.5" y="-260.3" font-family="Times New Roman,serif" font-size="14.00">CS</text>
<polyline fill="none" stroke="black" points="1587,-252.5 1587,-275.5 "/>
<text text-anchor="middle" x="1605" y="-260.3" font-family="Times New Roman,serif" font-size="14.00">CA</text>
<polyline fill="none" stroke="black" points="1623,-252.5 1623,-275.5 "/>
<text text-anchor="middle" x="1646" y="-260.3" font-family="Times New Roman,serif" font-size="14.00">ADV</text>
</g>
<!-- Actor Critic&#45;&gt;TRPO -->
<g id="edge27" class="edge"><title>Actor Critic&#45;&gt;TRPO</title>
<path fill="none" stroke="black" d="M1501.6,-757.67C1526.37,-745.251 1553,-725.218 1553,-696.5 1553,-696.5 1553,-696.5 1553,-358.5 1553,-340.683 1560.08,-322.309 1567.87,-307.482"/>
<polygon fill="black" stroke="black" points="1570.92,-309.182 1572.75,-298.746 1564.82,-305.766 1570.92,-309.182"/>
</g>
<!-- A3C -->
<g id="node23" class="node"><title>A3C</title>
<path fill="none" stroke="black" d="M1229.5,-168.5C1229.5,-168.5 1400.5,-168.5 1400.5,-168.5 1406.5,-168.5 1412.5,-174.5 1412.5,-180.5 1412.5,-180.5 1412.5,-202.5 1412.5,-202.5 1412.5,-208.5 1406.5,-214.5 1400.5,-214.5 1400.5,-214.5 1229.5,-214.5 1229.5,-214.5 1223.5,-214.5 1217.5,-208.5 1217.5,-202.5 1217.5,-202.5 1217.5,-180.5 1217.5,-180.5 1217.5,-174.5 1223.5,-168.5 1229.5,-168.5"/>
<text text-anchor="middle" x="1315" y="-199.3" font-family="Times New Roman,serif" font-size="14.00">A3C</text>
<polyline fill="none" stroke="black" points="1217.5,-191.5 1412.5,-191.5 "/>
<text text-anchor="middle" x="1240" y="-176.3" font-family="Times New Roman,serif" font-size="14.00">ONP</text>
<polyline fill="none" stroke="black" points="1262.5,-168.5 1262.5,-191.5 "/>
<text text-anchor="middle" x="1280" y="-176.3" font-family="Times New Roman,serif" font-size="14.00">CS</text>
<polyline fill="none" stroke="black" points="1297.5,-168.5 1297.5,-191.5 "/>
<text text-anchor="middle" x="1315.5" y="-176.3" font-family="Times New Roman,serif" font-size="14.00">CA</text>
<polyline fill="none" stroke="black" points="1333.5,-168.5 1333.5,-191.5 "/>
<text text-anchor="middle" x="1356.5" y="-176.3" font-family="Times New Roman,serif" font-size="14.00">ADV</text>
<polyline fill="none" stroke="black" points="1379.5,-168.5 1379.5,-191.5 "/>
<text text-anchor="middle" x="1396" y="-176.3" font-family="Times New Roman,serif" font-size="14.00">SP</text>
</g>
<!-- Actor Critic&#45;&gt;A3C -->
<g id="edge28" class="edge"><title>Actor Critic&#45;&gt;A3C</title>
<path fill="none" stroke="black" d="M1427.76,-756.491C1407.43,-743.205 1385,-722.626 1385,-696.5 1385,-696.5 1385,-696.5 1385,-274.5 1385,-253.619 1371.71,-235.366 1356.71,-221.415"/>
<polygon fill="black" stroke="black" points="1358.61,-218.435 1348.77,-214.521 1354.02,-223.72 1358.61,-218.435"/>
</g>
<!-- ACKTR -->
<g id="node30" class="node"><title>ACKTR</title>
<path fill="none" stroke="black" d="M1697,-84.5C1697,-84.5 1835,-84.5 1835,-84.5 1841,-84.5 1847,-90.5 1847,-96.5 1847,-96.5 1847,-118.5 1847,-118.5 1847,-124.5 1841,-130.5 1835,-130.5 1835,-130.5 1697,-130.5 1697,-130.5 1691,-130.5 1685,-124.5 1685,-118.5 1685,-118.5 1685,-96.5 1685,-96.5 1685,-90.5 1691,-84.5 1697,-84.5"/>
<text text-anchor="middle" x="1766" y="-115.3" font-family="Times New Roman,serif" font-size="14.00">ACKTR</text>
<polyline fill="none" stroke="black" points="1685,-107.5 1847,-107.5 "/>
<text text-anchor="middle" x="1707.5" y="-92.3" font-family="Times New Roman,serif" font-size="14.00">ONP</text>
<polyline fill="none" stroke="black" points="1730,-84.5 1730,-107.5 "/>
<text text-anchor="middle" x="1747.5" y="-92.3" font-family="Times New Roman,serif" font-size="14.00">CS</text>
<polyline fill="none" stroke="black" points="1765,-84.5 1765,-107.5 "/>
<text text-anchor="middle" x="1783" y="-92.3" font-family="Times New Roman,serif" font-size="14.00">CA</text>
<polyline fill="none" stroke="black" points="1801,-84.5 1801,-107.5 "/>
<text text-anchor="middle" x="1824" y="-92.3" font-family="Times New Roman,serif" font-size="14.00">ADV</text>
</g>
<!-- Actor Critic&#45;&gt;ACKTR -->
<g id="edge32" class="edge"><title>Actor Critic&#45;&gt;ACKTR</title>
<path fill="none" stroke="black" d="M1501.75,-770.327C1577.77,-763.393 1731,-743.577 1731,-696.5 1731,-696.5 1731,-696.5 1731,-190.5 1731,-172.683 1738.08,-154.309 1745.87,-139.482"/>
<polygon fill="black" stroke="black" points="1748.92,-141.182 1750.75,-130.746 1742.82,-137.766 1748.92,-141.182"/>
</g>
<!-- PPO -->
<g id="node31" class="node"><title>PPO</title>
<path fill="none" stroke="black" d="M1481,-84.5C1481,-84.5 1655,-84.5 1655,-84.5 1661,-84.5 1667,-90.5 1667,-96.5 1667,-96.5 1667,-118.5 1667,-118.5 1667,-124.5 1661,-130.5 1655,-130.5 1655,-130.5 1481,-130.5 1481,-130.5 1475,-130.5 1469,-124.5 1469,-118.5 1469,-118.5 1469,-96.5 1469,-96.5 1469,-90.5 1475,-84.5 1481,-84.5"/>
<text text-anchor="middle" x="1568" y="-115.3" font-family="Times New Roman,serif" font-size="14.00">PPO</text>
<polyline fill="none" stroke="black" points="1469,-107.5 1667,-107.5 "/>
<text text-anchor="middle" x="1491.5" y="-92.3" font-family="Times New Roman,serif" font-size="14.00">ONP</text>
<polyline fill="none" stroke="black" points="1514,-84.5 1514,-107.5 "/>
<text text-anchor="middle" x="1531.5" y="-92.3" font-family="Times New Roman,serif" font-size="14.00">CS</text>
<polyline fill="none" stroke="black" points="1549,-84.5 1549,-107.5 "/>
<text text-anchor="middle" x="1567" y="-92.3" font-family="Times New Roman,serif" font-size="14.00">DA</text>
<polyline fill="none" stroke="black" points="1585,-84.5 1585,-107.5 "/>
<text text-anchor="middle" x="1603" y="-92.3" font-family="Times New Roman,serif" font-size="14.00">CA</text>
<polyline fill="none" stroke="black" points="1621,-84.5 1621,-107.5 "/>
<text text-anchor="middle" x="1644" y="-92.3" font-family="Times New Roman,serif" font-size="14.00">ADV</text>
</g>
<!-- Actor Critic&#45;&gt;PPO -->
<g id="edge33" class="edge"><title>Actor Critic&#45;&gt;PPO</title>
<path fill="none" stroke="black" d="M1466.75,-756.367C1472.21,-740.956 1479,-717.567 1479,-696.5 1479,-696.5 1479,-696.5 1479,-190.5 1479,-167.908 1494.7,-149.827 1512.92,-136.454"/>
<polygon fill="black" stroke="black" points="1515.14,-139.176 1521.41,-130.642 1511.18,-133.399 1515.14,-139.176"/>
</g>
<!-- SAC -->
<g id="node34" class="node"><title>SAC</title>
<path fill="none" stroke="black" d="M1342.5,-0.5C1342.5,-0.5 1539.5,-0.5 1539.5,-0.5 1545.5,-0.5 1551.5,-6.5 1551.5,-12.5 1551.5,-12.5 1551.5,-34.5 1551.5,-34.5 1551.5,-40.5 1545.5,-46.5 1539.5,-46.5 1539.5,-46.5 1342.5,-46.5 1342.5,-46.5 1336.5,-46.5 1330.5,-40.5 1330.5,-34.5 1330.5,-34.5 1330.5,-12.5 1330.5,-12.5 1330.5,-6.5 1336.5,-0.5 1342.5,-0.5"/>
<text text-anchor="middle" x="1441" y="-31.3" font-family="Times New Roman,serif" font-size="14.00">SAC</text>
<polyline fill="none" stroke="black" points="1330.5,-23.5 1551.5,-23.5 "/>
<text text-anchor="middle" x="1352.5" y="-8.3" font-family="Times New Roman,serif" font-size="14.00">OFP</text>
<polyline fill="none" stroke="black" points="1374.5,-0.5 1374.5,-23.5 "/>
<text text-anchor="middle" x="1392" y="-8.3" font-family="Times New Roman,serif" font-size="14.00">CS</text>
<polyline fill="none" stroke="black" points="1409.5,-0.5 1409.5,-23.5 "/>
<text text-anchor="middle" x="1427.5" y="-8.3" font-family="Times New Roman,serif" font-size="14.00">CA</text>
<polyline fill="none" stroke="black" points="1445.5,-0.5 1445.5,-23.5 "/>
<text text-anchor="middle" x="1463.5" y="-8.3" font-family="Times New Roman,serif" font-size="14.00">CA</text>
<polyline fill="none" stroke="black" points="1481.5,-0.5 1481.5,-23.5 "/>
<text text-anchor="middle" x="1500" y="-8.3" font-family="Times New Roman,serif" font-size="14.00">QV</text>
<polyline fill="none" stroke="black" points="1518.5,-0.5 1518.5,-23.5 "/>
<text text-anchor="middle" x="1535" y="-8.3" font-family="Times New Roman,serif" font-size="14.00">SP</text>
</g>
<!-- Actor Critic&#45;&gt;SAC -->
<g id="edge35" class="edge"><title>Actor Critic&#45;&gt;SAC</title>
<path fill="none" stroke="black" d="M1453.25,-756.367C1447.79,-740.956 1441,-717.567 1441,-696.5 1441,-696.5 1441,-696.5 1441,-106.5 1441,-90.233 1441,-72.1508 1441,-57.1147"/>
<polygon fill="black" stroke="black" points="1444.5,-56.774 1441,-46.774 1437.5,-56.774 1444.5,-56.774"/>
</g>
<!-- DQN -->
<g id="node17" class="node"><title>DQN</title>
<path fill="none" stroke="black" d="M325.5,-420.5C325.5,-420.5 488.5,-420.5 488.5,-420.5 494.5,-420.5 500.5,-426.5 500.5,-432.5 500.5,-432.5 500.5,-454.5 500.5,-454.5 500.5,-460.5 494.5,-466.5 488.5,-466.5 488.5,-466.5 325.5,-466.5 325.5,-466.5 319.5,-466.5 313.5,-460.5 313.5,-454.5 313.5,-454.5 313.5,-432.5 313.5,-432.5 313.5,-426.5 319.5,-420.5 325.5,-420.5"/>
<text text-anchor="middle" x="407" y="-451.3" font-family="Times New Roman,serif" font-size="14.00">DQN</text>
<polyline fill="none" stroke="black" points="313.5,-443.5 500.5,-443.5 "/>
<text text-anchor="middle" x="335.5" y="-428.3" font-family="Times New Roman,serif" font-size="14.00">OFP</text>
<polyline fill="none" stroke="black" points="357.5,-420.5 357.5,-443.5 "/>
<text text-anchor="middle" x="375" y="-428.3" font-family="Times New Roman,serif" font-size="14.00">CS</text>
<polyline fill="none" stroke="black" points="392.5,-420.5 392.5,-443.5 "/>
<text text-anchor="middle" x="410.5" y="-428.3" font-family="Times New Roman,serif" font-size="14.00">DA</text>
<polyline fill="none" stroke="black" points="428.5,-420.5 428.5,-443.5 "/>
<text text-anchor="middle" x="447" y="-428.3" font-family="Times New Roman,serif" font-size="14.00">QV</text>
<polyline fill="none" stroke="black" points="465.5,-420.5 465.5,-443.5 "/>
<text text-anchor="middle" x="483" y="-428.3" font-family="Times New Roman,serif" font-size="14.00">RB</text>
</g>
<!-- Q&#45;learning&#45;&gt;DQN -->
<g id="edge14" class="edge"><title>Q&#45;learning&#45;&gt;DQN</title>
<path fill="none" stroke="black" d="M614.767,-672.314C573.697,-627.282 480.532,-525.127 434.206,-474.331"/>
<polygon fill="black" stroke="black" points="436.513,-471.666 427.188,-466.636 431.341,-476.383 436.513,-471.666"/>
</g>
<!-- DDQN -->
<g id="node19" class="node"><title>DDQN</title>
<path fill="none" stroke="black" d="M125,-252.5C125,-252.5 253,-252.5 253,-252.5 259,-252.5 265,-258.5 265,-264.5 265,-264.5 265,-286.5 265,-286.5 265,-292.5 259,-298.5 253,-298.5 253,-298.5 125,-298.5 125,-298.5 119,-298.5 113,-292.5 113,-286.5 113,-286.5 113,-264.5 113,-264.5 113,-258.5 119,-252.5 125,-252.5"/>
<text text-anchor="middle" x="189" y="-283.3" font-family="Times New Roman,serif" font-size="14.00">DDQN</text>
<polyline fill="none" stroke="black" points="113,-275.5 265,-275.5 "/>
<text text-anchor="middle" x="135" y="-260.3" font-family="Times New Roman,serif" font-size="14.00">OFP</text>
<polyline fill="none" stroke="black" points="157,-252.5 157,-275.5 "/>
<text text-anchor="middle" x="174.5" y="-260.3" font-family="Times New Roman,serif" font-size="14.00">CS</text>
<polyline fill="none" stroke="black" points="192,-252.5 192,-275.5 "/>
<text text-anchor="middle" x="210" y="-260.3" font-family="Times New Roman,serif" font-size="14.00">DA</text>
<polyline fill="none" stroke="black" points="228,-252.5 228,-275.5 "/>
<text text-anchor="middle" x="246.5" y="-260.3" font-family="Times New Roman,serif" font-size="14.00">QV</text>
</g>
<!-- DQN&#45;&gt;DDQN -->
<g id="edge15" class="edge"><title>DQN&#45;&gt;DDQN</title>
<path fill="none" stroke="black" d="M313.377,-420.726C301.203,-415.689 289.377,-409.527 279,-402 245.267,-377.531 219.319,-336.512 204.138,-308.059"/>
<polygon fill="black" stroke="black" points="207.117,-306.2 199.407,-298.934 200.903,-309.422 207.117,-306.2"/>
</g>
<!-- DDPG -->
<g id="node20" class="node"><title>DDPG</title>
<path fill="none" stroke="black" d="M512.5,-252.5C512.5,-252.5 673.5,-252.5 673.5,-252.5 679.5,-252.5 685.5,-258.5 685.5,-264.5 685.5,-264.5 685.5,-286.5 685.5,-286.5 685.5,-292.5 679.5,-298.5 673.5,-298.5 673.5,-298.5 512.5,-298.5 512.5,-298.5 506.5,-298.5 500.5,-292.5 500.5,-286.5 500.5,-286.5 500.5,-264.5 500.5,-264.5 500.5,-258.5 506.5,-252.5 512.5,-252.5"/>
<text text-anchor="middle" x="593" y="-283.3" font-family="Times New Roman,serif" font-size="14.00">DDPG</text>
<polyline fill="none" stroke="black" points="500.5,-275.5 685.5,-275.5 "/>
<text text-anchor="middle" x="522.5" y="-260.3" font-family="Times New Roman,serif" font-size="14.00">OFP</text>
<polyline fill="none" stroke="black" points="544.5,-252.5 544.5,-275.5 "/>
<text text-anchor="middle" x="562" y="-260.3" font-family="Times New Roman,serif" font-size="14.00">CS</text>
<polyline fill="none" stroke="black" points="579.5,-252.5 579.5,-275.5 "/>
<text text-anchor="middle" x="597.5" y="-260.3" font-family="Times New Roman,serif" font-size="14.00">CA</text>
<polyline fill="none" stroke="black" points="615.5,-252.5 615.5,-275.5 "/>
<text text-anchor="middle" x="633" y="-260.3" font-family="Times New Roman,serif" font-size="14.00">DP</text>
<polyline fill="none" stroke="black" points="650.5,-252.5 650.5,-275.5 "/>
<text text-anchor="middle" x="668" y="-260.3" font-family="Times New Roman,serif" font-size="14.00">RB</text>
</g>
<!-- DQN&#45;&gt;DDPG -->
<g id="edge22" class="edge"><title>DQN&#45;&gt;DDPG</title>
<path fill="none" stroke="black" stroke-dasharray="1,5" d="M431.699,-420.456C464.912,-390.815 524.026,-338.057 560.725,-305.305"/>
<polygon fill="black" stroke="black" points="563.068,-307.905 568.198,-298.635 558.407,-302.682 563.068,-307.905"/>
<text text-anchor="middle" x="561" y="-355.8" font-family="Times New Roman,serif" font-size="14.00">replay buffer</text>
</g>
<!-- QR&#45;DQN -->
<g id="node24" class="node"><title>QR&#45;DQN</title>
<path fill="none" stroke="black" d="M289.5,-84.5C289.5,-84.5 452.5,-84.5 452.5,-84.5 458.5,-84.5 464.5,-90.5 464.5,-96.5 464.5,-96.5 464.5,-118.5 464.5,-118.5 464.5,-124.5 458.5,-130.5 452.5,-130.5 452.5,-130.5 289.5,-130.5 289.5,-130.5 283.5,-130.5 277.5,-124.5 277.5,-118.5 277.5,-118.5 277.5,-96.5 277.5,-96.5 277.5,-90.5 283.5,-84.5 289.5,-84.5"/>
<text text-anchor="middle" x="371" y="-115.3" font-family="Times New Roman,serif" font-size="14.00">QR&#45;DQN</text>
<polyline fill="none" stroke="black" points="277.5,-107.5 464.5,-107.5 "/>
<text text-anchor="middle" x="299.5" y="-92.3" font-family="Times New Roman,serif" font-size="14.00">OFP</text>
<polyline fill="none" stroke="black" points="321.5,-84.5 321.5,-107.5 "/>
<text text-anchor="middle" x="339" y="-92.3" font-family="Times New Roman,serif" font-size="14.00">CS</text>
<polyline fill="none" stroke="black" points="356.5,-84.5 356.5,-107.5 "/>
<text text-anchor="middle" x="374.5" y="-92.3" font-family="Times New Roman,serif" font-size="14.00">DA</text>
<polyline fill="none" stroke="black" points="392.5,-84.5 392.5,-107.5 "/>
<text text-anchor="middle" x="411" y="-92.3" font-family="Times New Roman,serif" font-size="14.00">QV</text>
<polyline fill="none" stroke="black" points="429.5,-84.5 429.5,-107.5 "/>
<text text-anchor="middle" x="447" y="-92.3" font-family="Times New Roman,serif" font-size="14.00">RB</text>
</g>
<!-- DQN&#45;&gt;QR&#45;DQN -->
<g id="edge17" class="edge"><title>DQN&#45;&gt;QR&#45;DQN</title>
<path fill="none" stroke="black" d="M391.315,-420.314C381.613,-404.429 371,-382.111 371,-360.5 371,-360.5 371,-360.5 371,-190.5 371,-174.233 371,-156.151 371,-141.115"/>
<polygon fill="black" stroke="black" points="374.5,-140.774 371,-130.774 367.5,-140.774 374.5,-140.774"/>
</g>
<!-- DQN+HER -->
<g id="node25" class="node"><title>DQN+HER</title>
<path fill="none" stroke="black" d="M84.5,-84.5C84.5,-84.5 247.5,-84.5 247.5,-84.5 253.5,-84.5 259.5,-90.5 259.5,-96.5 259.5,-96.5 259.5,-118.5 259.5,-118.5 259.5,-124.5 253.5,-130.5 247.5,-130.5 247.5,-130.5 84.5,-130.5 84.5,-130.5 78.5,-130.5 72.5,-124.5 72.5,-118.5 72.5,-118.5 72.5,-96.5 72.5,-96.5 72.5,-90.5 78.5,-84.5 84.5,-84.5"/>
<text text-anchor="middle" x="166" y="-115.3" font-family="Times New Roman,serif" font-size="14.00">DQN+HER</text>
<polyline fill="none" stroke="black" points="72.5,-107.5 259.5,-107.5 "/>
<text text-anchor="middle" x="94.5" y="-92.3" font-family="Times New Roman,serif" font-size="14.00">OFP</text>
<polyline fill="none" stroke="black" points="116.5,-84.5 116.5,-107.5 "/>
<text text-anchor="middle" x="134" y="-92.3" font-family="Times New Roman,serif" font-size="14.00">CS</text>
<polyline fill="none" stroke="black" points="151.5,-84.5 151.5,-107.5 "/>
<text text-anchor="middle" x="169.5" y="-92.3" font-family="Times New Roman,serif" font-size="14.00">DA</text>
<polyline fill="none" stroke="black" points="187.5,-84.5 187.5,-107.5 "/>
<text text-anchor="middle" x="206" y="-92.3" font-family="Times New Roman,serif" font-size="14.00">QV</text>
<polyline fill="none" stroke="black" points="224.5,-84.5 224.5,-107.5 "/>
<text text-anchor="middle" x="242" y="-92.3" font-family="Times New Roman,serif" font-size="14.00">RB</text>
</g>
<!-- DQN&#45;&gt;DQN+HER -->
<g id="edge18" class="edge"><title>DQN&#45;&gt;DQN+HER</title>
<path fill="none" stroke="black" stroke-dasharray="1,5" d="M340.686,-420.454C315.607,-407.594 293,-388.293 293,-360.5 293,-360.5 293,-360.5 293,-190.5 293,-165.477 275.384,-147.719 253.274,-135.285"/>
<polygon fill="black" stroke="black" points="254.75,-132.108 244.262,-130.61 251.527,-138.322 254.75,-132.108"/>
</g>
<!-- ACER -->
<g id="node29" class="node"><title>ACER</title>
<path fill="none" stroke="black" d="M1015,-84.5C1015,-84.5 1187,-84.5 1187,-84.5 1193,-84.5 1199,-90.5 1199,-96.5 1199,-96.5 1199,-118.5 1199,-118.5 1199,-124.5 1193,-130.5 1187,-130.5 1187,-130.5 1015,-130.5 1015,-130.5 1009,-130.5 1003,-124.5 1003,-118.5 1003,-118.5 1003,-96.5 1003,-96.5 1003,-90.5 1009,-84.5 1015,-84.5"/>
<text text-anchor="middle" x="1101" y="-115.3" font-family="Times New Roman,serif" font-size="14.00">ACER</text>
<polyline fill="none" stroke="black" points="1003,-107.5 1199,-107.5 "/>
<text text-anchor="middle" x="1025" y="-92.3" font-family="Times New Roman,serif" font-size="14.00">OFP</text>
<polyline fill="none" stroke="black" points="1047,-84.5 1047,-107.5 "/>
<text text-anchor="middle" x="1064.5" y="-92.3" font-family="Times New Roman,serif" font-size="14.00">CS</text>
<polyline fill="none" stroke="black" points="1082,-84.5 1082,-107.5 "/>
<text text-anchor="middle" x="1100" y="-92.3" font-family="Times New Roman,serif" font-size="14.00">CA</text>
<polyline fill="none" stroke="black" points="1118,-84.5 1118,-107.5 "/>
<text text-anchor="middle" x="1141" y="-92.3" font-family="Times New Roman,serif" font-size="14.00">ADV</text>
<polyline fill="none" stroke="black" points="1164,-84.5 1164,-107.5 "/>
<text text-anchor="middle" x="1181.5" y="-92.3" font-family="Times New Roman,serif" font-size="14.00">RB</text>
</g>
<!-- DQN&#45;&gt;ACER -->
<g id="edge31" class="edge"><title>DQN&#45;&gt;ACER</title>
<path fill="none" stroke="black" stroke-dasharray="1,5" d="M500.747,-439.984C678.513,-433.956 1047,-414.899 1047,-360.5 1047,-360.5 1047,-360.5 1047,-190.5 1047,-171.084 1057.69,-152.712 1069.56,-138.299"/>
<polygon fill="black" stroke="black" points="1072.25,-140.542 1076.21,-130.717 1066.99,-135.924 1072.25,-140.542"/>
<text text-anchor="middle" x="1083" y="-271.8" font-family="Times New Roman,serif" font-size="14.00">replay buffer</text>
</g>
<!-- DPG&#45;&gt;DDPG -->
<g id="edge21" class="edge"><title>DPG&#45;&gt;DDPG</title>
<path fill="none" stroke="black" d="M1165.72,-348.973C1049.6,-334.279 826.555,-306.055 695.713,-289.498"/>
<polygon fill="black" stroke="black" points="696.039,-286.011 685.678,-288.228 695.16,-292.956 696.039,-286.011"/>
</g>
<!-- Duelling&#45;DQN -->
<g id="node22" class="node"><title>Duelling&#45;DQN</title>
<path fill="none" stroke="black" d="M125,-168.5C125,-168.5 253,-168.5 253,-168.5 259,-168.5 265,-174.5 265,-180.5 265,-180.5 265,-202.5 265,-202.5 265,-208.5 259,-214.5 253,-214.5 253,-214.5 125,-214.5 125,-214.5 119,-214.5 113,-208.5 113,-202.5 113,-202.5 113,-180.5 113,-180.5 113,-174.5 119,-168.5 125,-168.5"/>
<text text-anchor="middle" x="189" y="-199.3" font-family="Times New Roman,serif" font-size="14.00">Duelling&#45;DQN</text>
<polyline fill="none" stroke="black" points="113,-191.5 265,-191.5 "/>
<text text-anchor="middle" x="135" y="-176.3" font-family="Times New Roman,serif" font-size="14.00">OFP</text>
<polyline fill="none" stroke="black" points="157,-168.5 157,-191.5 "/>
<text text-anchor="middle" x="174.5" y="-176.3" font-family="Times New Roman,serif" font-size="14.00">CS</text>
<polyline fill="none" stroke="black" points="192,-168.5 192,-191.5 "/>
<text text-anchor="middle" x="210" y="-176.3" font-family="Times New Roman,serif" font-size="14.00">DA</text>
<polyline fill="none" stroke="black" points="228,-168.5 228,-191.5 "/>
<text text-anchor="middle" x="246.5" y="-176.3" font-family="Times New Roman,serif" font-size="14.00">QV</text>
</g>
<!-- DDQN&#45;&gt;Duelling&#45;DQN -->
<g id="edge16" class="edge"><title>DDQN&#45;&gt;Duelling&#45;DQN</title>
<path fill="none" stroke="black" d="M189,-252.093C189,-243.618 189,-233.797 189,-224.604"/>
<polygon fill="black" stroke="black" points="192.5,-224.596 189,-214.596 185.5,-224.596 192.5,-224.596"/>
</g>
<!-- MADDPG -->
<g id="node26" class="node"><title>MADDPG</title>
<path fill="none" stroke="black" d="M571.5,-84.5C571.5,-84.5 732.5,-84.5 732.5,-84.5 738.5,-84.5 744.5,-90.5 744.5,-96.5 744.5,-96.5 744.5,-118.5 744.5,-118.5 744.5,-124.5 738.5,-130.5 732.5,-130.5 732.5,-130.5 571.5,-130.5 571.5,-130.5 565.5,-130.5 559.5,-124.5 559.5,-118.5 559.5,-118.5 559.5,-96.5 559.5,-96.5 559.5,-90.5 565.5,-84.5 571.5,-84.5"/>
<text text-anchor="middle" x="652" y="-115.3" font-family="Times New Roman,serif" font-size="14.00">MADDPG</text>
<polyline fill="none" stroke="black" points="559.5,-107.5 744.5,-107.5 "/>
<text text-anchor="middle" x="581.5" y="-92.3" font-family="Times New Roman,serif" font-size="14.00">OFP</text>
<polyline fill="none" stroke="black" points="603.5,-84.5 603.5,-107.5 "/>
<text text-anchor="middle" x="621" y="-92.3" font-family="Times New Roman,serif" font-size="14.00">CS</text>
<polyline fill="none" stroke="black" points="638.5,-84.5 638.5,-107.5 "/>
<text text-anchor="middle" x="656.5" y="-92.3" font-family="Times New Roman,serif" font-size="14.00">CA</text>
<polyline fill="none" stroke="black" points="674.5,-84.5 674.5,-107.5 "/>
<text text-anchor="middle" x="692" y="-92.3" font-family="Times New Roman,serif" font-size="14.00">DP</text>
<polyline fill="none" stroke="black" points="709.5,-84.5 709.5,-107.5 "/>
<text text-anchor="middle" x="727" y="-92.3" font-family="Times New Roman,serif" font-size="14.00">RB</text>
</g>
<!-- DDPG&#45;&gt;MADDPG -->
<g id="edge25" class="edge"><title>DDPG&#45;&gt;MADDPG</title>
<path fill="none" stroke="black" d="M600.835,-252.456C611.061,-223.683 629.03,-173.128 640.721,-140.233"/>
<polygon fill="black" stroke="black" points="644.082,-141.229 644.133,-130.635 637.486,-138.885 644.082,-141.229"/>
</g>
<!-- DDPG+HER -->
<g id="node27" class="node"><title>DDPG+HER</title>
<path fill="none" stroke="black" d="M775,-84.5C775,-84.5 973,-84.5 973,-84.5 979,-84.5 985,-90.5 985,-96.5 985,-96.5 985,-118.5 985,-118.5 985,-124.5 979,-130.5 973,-130.5 973,-130.5 775,-130.5 775,-130.5 769,-130.5 763,-124.5 763,-118.5 763,-118.5 763,-96.5 763,-96.5 763,-90.5 769,-84.5 775,-84.5"/>
<text text-anchor="middle" x="874" y="-115.3" font-family="Times New Roman,serif" font-size="14.00">DDPG+HER</text>
<polyline fill="none" stroke="black" points="763,-107.5 985,-107.5 "/>
<text text-anchor="middle" x="785" y="-92.3" font-family="Times New Roman,serif" font-size="14.00">OFP</text>
<polyline fill="none" stroke="black" points="807,-84.5 807,-107.5 "/>
<text text-anchor="middle" x="824.5" y="-92.3" font-family="Times New Roman,serif" font-size="14.00">CS</text>
<polyline fill="none" stroke="black" points="842,-84.5 842,-107.5 "/>
<text text-anchor="middle" x="860" y="-92.3" font-family="Times New Roman,serif" font-size="14.00">DA</text>
<polyline fill="none" stroke="black" points="878,-84.5 878,-107.5 "/>
<text text-anchor="middle" x="895.5" y="-92.3" font-family="Times New Roman,serif" font-size="14.00">DP</text>
<polyline fill="none" stroke="black" points="913,-84.5 913,-107.5 "/>
<text text-anchor="middle" x="931.5" y="-92.3" font-family="Times New Roman,serif" font-size="14.00">QV</text>
<polyline fill="none" stroke="black" points="950,-84.5 950,-107.5 "/>
<text text-anchor="middle" x="967.5" y="-92.3" font-family="Times New Roman,serif" font-size="14.00">RB</text>
</g>
<!-- DDPG&#45;&gt;DDPG+HER -->
<g id="edge23" class="edge"><title>DDPG&#45;&gt;DDPG+HER</title>
<path fill="none" stroke="black" stroke-dasharray="1,5" d="M630.315,-252.456C681.226,-222.381 772.422,-168.507 827.654,-135.879"/>
<polygon fill="black" stroke="black" points="829.701,-138.734 836.531,-130.635 826.141,-132.708 829.701,-138.734"/>
</g>
<!-- D4PG -->
<g id="node32" class="node"><title>D4PG</title>
<path fill="none" stroke="black" d="M320.5,-0.5C320.5,-0.5 481.5,-0.5 481.5,-0.5 487.5,-0.5 493.5,-6.5 493.5,-12.5 493.5,-12.5 493.5,-34.5 493.5,-34.5 493.5,-40.5 487.5,-46.5 481.5,-46.5 481.5,-46.5 320.5,-46.5 320.5,-46.5 314.5,-46.5 308.5,-40.5 308.5,-34.5 308.5,-34.5 308.5,-12.5 308.5,-12.5 308.5,-6.5 314.5,-0.5 320.5,-0.5"/>
<text text-anchor="middle" x="401" y="-31.3" font-family="Times New Roman,serif" font-size="14.00">D4PG</text>
<polyline fill="none" stroke="black" points="308.5,-23.5 493.5,-23.5 "/>
<text text-anchor="middle" x="330.5" y="-8.3" font-family="Times New Roman,serif" font-size="14.00">OFP</text>
<polyline fill="none" stroke="black" points="352.5,-0.5 352.5,-23.5 "/>
<text text-anchor="middle" x="370" y="-8.3" font-family="Times New Roman,serif" font-size="14.00">CS</text>
<polyline fill="none" stroke="black" points="387.5,-0.5 387.5,-23.5 "/>
<text text-anchor="middle" x="405.5" y="-8.3" font-family="Times New Roman,serif" font-size="14.00">CA</text>
<polyline fill="none" stroke="black" points="423.5,-0.5 423.5,-23.5 "/>
<text text-anchor="middle" x="441" y="-8.3" font-family="Times New Roman,serif" font-size="14.00">DP</text>
<polyline fill="none" stroke="black" points="458.5,-0.5 458.5,-23.5 "/>
<text text-anchor="middle" x="476" y="-8.3" font-family="Times New Roman,serif" font-size="14.00">RB</text>
</g>
<!-- DDPG&#45;&gt;D4PG -->
<g id="edge26" class="edge"><title>DDPG&#45;&gt;D4PG</title>
<path fill="none" stroke="black" d="M571.399,-252.375C561.483,-241.597 549.966,-228.148 541,-215 504.04,-160.804 514.222,-135.029 473,-84 463.898,-72.7329 452.383,-62.0848 441.246,-52.9954"/>
<polygon fill="black" stroke="black" points="443.258,-50.1243 433.244,-46.6658 438.916,-55.6146 443.258,-50.1243"/>
</g>
<!-- TD3 -->
<g id="node33" class="node"><title>TD3</title>
<path fill="none" stroke="black" d="M524,-0.5C524,-0.5 722,-0.5 722,-0.5 728,-0.5 734,-6.5 734,-12.5 734,-12.5 734,-34.5 734,-34.5 734,-40.5 728,-46.5 722,-46.5 722,-46.5 524,-46.5 524,-46.5 518,-46.5 512,-40.5 512,-34.5 512,-34.5 512,-12.5 512,-12.5 512,-6.5 518,-0.5 524,-0.5"/>
<text text-anchor="middle" x="623" y="-31.3" font-family="Times New Roman,serif" font-size="14.00">TD3</text>
<polyline fill="none" stroke="black" points="512,-23.5 734,-23.5 "/>
<text text-anchor="middle" x="534" y="-8.3" font-family="Times New Roman,serif" font-size="14.00">OFP</text>
<polyline fill="none" stroke="black" points="556,-0.5 556,-23.5 "/>
<text text-anchor="middle" x="573.5" y="-8.3" font-family="Times New Roman,serif" font-size="14.00">CS</text>
<polyline fill="none" stroke="black" points="591,-0.5 591,-23.5 "/>
<text text-anchor="middle" x="609" y="-8.3" font-family="Times New Roman,serif" font-size="14.00">DA</text>
<polyline fill="none" stroke="black" points="627,-0.5 627,-23.5 "/>
<text text-anchor="middle" x="644.5" y="-8.3" font-family="Times New Roman,serif" font-size="14.00">DP</text>
<polyline fill="none" stroke="black" points="662,-0.5 662,-23.5 "/>
<text text-anchor="middle" x="680.5" y="-8.3" font-family="Times New Roman,serif" font-size="14.00">QV</text>
<polyline fill="none" stroke="black" points="699,-0.5 699,-23.5 "/>
<text text-anchor="middle" x="716.5" y="-8.3" font-family="Times New Roman,serif" font-size="14.00">RB</text>
</g>
<!-- DDPG&#45;&gt;TD3 -->
<g id="edge24" class="edge"><title>DDPG&#45;&gt;TD3</title>
<path fill="none" stroke="black" d="M579.044,-252.336C557.902,-215.715 522.941,-140.963 550,-84 555.758,-71.8782 565.328,-61.413 575.674,-52.7882"/>
<polygon fill="black" stroke="black" points="577.942,-55.4576 583.686,-46.5545 573.644,-49.9328 577.942,-55.4576"/>
</g>
<!-- TRPO&#45;&gt;PPO -->
<g id="edge34" class="edge"><title>TRPO&#45;&gt;PPO</title>
<path fill="none" stroke="black" stroke-dasharray="1,5" d="M1585.34,-252.456C1581.89,-223.807 1575.84,-173.563 1571.87,-140.659"/>
<polygon fill="black" stroke="black" points="1575.34,-140.144 1570.67,-130.635 1568.39,-140.982 1575.34,-140.144"/>
</g>
<!-- A2C -->
<g id="node28" class="node"><title>A2C</title>
<path fill="none" stroke="black" d="M1229.5,-84.5C1229.5,-84.5 1400.5,-84.5 1400.5,-84.5 1406.5,-84.5 1412.5,-90.5 1412.5,-96.5 1412.5,-96.5 1412.5,-118.5 1412.5,-118.5 1412.5,-124.5 1406.5,-130.5 1400.5,-130.5 1400.5,-130.5 1229.5,-130.5 1229.5,-130.5 1223.5,-130.5 1217.5,-124.5 1217.5,-118.5 1217.5,-118.5 1217.5,-96.5 1217.5,-96.5 1217.5,-90.5 1223.5,-84.5 1229.5,-84.5"/>
<text text-anchor="middle" x="1315" y="-115.3" font-family="Times New Roman,serif" font-size="14.00">A2C</text>
<polyline fill="none" stroke="black" points="1217.5,-107.5 1412.5,-107.5 "/>
<text text-anchor="middle" x="1240" y="-92.3" font-family="Times New Roman,serif" font-size="14.00">ONP</text>
<polyline fill="none" stroke="black" points="1262.5,-84.5 1262.5,-107.5 "/>
<text text-anchor="middle" x="1280" y="-92.3" font-family="Times New Roman,serif" font-size="14.00">CS</text>
<polyline fill="none" stroke="black" points="1297.5,-84.5 1297.5,-107.5 "/>
<text text-anchor="middle" x="1315.5" y="-92.3" font-family="Times New Roman,serif" font-size="14.00">CA</text>
<polyline fill="none" stroke="black" points="1333.5,-84.5 1333.5,-107.5 "/>
<text text-anchor="middle" x="1356.5" y="-92.3" font-family="Times New Roman,serif" font-size="14.00">ADV</text>
<polyline fill="none" stroke="black" points="1379.5,-84.5 1379.5,-107.5 "/>
<text text-anchor="middle" x="1396" y="-92.3" font-family="Times New Roman,serif" font-size="14.00">SP</text>
</g>
<!-- A3C&#45;&gt;A2C -->
<g id="edge29" class="edge"><title>A3C&#45;&gt;A2C</title>
<path fill="none" stroke="black" d="M1315,-168.093C1315,-159.618 1315,-149.797 1315,-140.604"/>
<polygon fill="black" stroke="black" points="1318.5,-140.596 1315,-130.596 1311.5,-140.596 1318.5,-140.596"/>
</g>
<!-- A3C&#45;&gt;ACER -->
<g id="edge30" class="edge"><title>A3C&#45;&gt;ACER</title>
<path fill="none" stroke="black" d="M1257.37,-168.418C1229.9,-157.891 1196.87,-145.233 1168.25,-134.27"/>
<polygon fill="black" stroke="black" points="1169.32,-130.932 1158.73,-130.622 1166.82,-137.468 1169.32,-130.932"/>
</g>
</g>
</svg>
